<?xml version="1.0" standalone="no"?>
 <!DOCTYPE svg PUBLIC "-//W3C//DTD SVG 1.1//EN" 
 "http://www.w3.org/Graphics/SVG/1.1/DTD/svg11.dtd"> 
<svg xmlns="http://www.w3.org/2000/svg" version="1.1" 
    width="27.94cm" height="21.59cm" viewBox="0 0 110000 85000 ">
<title>SVG Picture created as 40-channel HV switching board-B.Paste.svg date 2016/11/30 23:41:24 </title>
  <desc>Picture generated by PCBNEW </desc>
<g style="fill:#000000; fill-opacity:1;stroke:#000000; stroke-opacity:1;
stroke-linecap:round; stroke-linejoin:round; "
 transform="translate(0 0) scale(1 1)">
</g>
<g style="fill:#000000; fill-opacity:0.0; 
stroke:#000000; stroke-width:-0.000393701; stroke-opacity:1; 
stroke-linecap:round; stroke-linejoin:round;">
</g>
<g style="fill:#000000; fill-opacity:0.0; 
stroke:#000000; stroke-width:39.3701; stroke-opacity:1; 
stroke-linecap:round; stroke-linejoin:round;">
</g>
<g style="fill:#000000; fill-opacity:0.0; 
stroke:#000000; stroke-width:59.0551; stroke-opacity:1; 
stroke-linecap:round; stroke-linejoin:round;">
<rect x="62755.9" y="67677.2" width="42519.7" height="12598.4" rx="0" />
</g>
<g style="fill:#000000; fill-opacity:0.0; 
stroke:#000000; stroke-width:39.3701; stroke-opacity:1; 
stroke-linecap:round; stroke-linejoin:round;">
</g>
<g style="fill:#000000; fill-opacity:0.0; 
stroke:#000000; stroke-width:59.0551; stroke-opacity:1; 
stroke-linecap:round; stroke-linejoin:round;">
<rect x="3937.01" y="3937.01" width="102126" height="77126" rx="0" />
</g>
<g style="fill:#000000; fill-opacity:0.0; 
stroke:#000000; stroke-width:39.3701; stroke-opacity:1; 
stroke-linecap:round; stroke-linejoin:round;">
</g>
<g style="fill:#000000; fill-opacity:0.0; 
stroke:#000000; stroke-width:59.0551; stroke-opacity:1; 
stroke-linecap:round; stroke-linejoin:round;">
<rect x="4724.41" y="4724.41" width="100551" height="75551.2" rx="0" />
</g>
<g style="fill:#000000; fill-opacity:0.0; 
stroke:#000000; stroke-width:39.3701; stroke-opacity:1; 
stroke-linecap:round; stroke-linejoin:round;">
</g>
<g style="fill:#000000; fill-opacity:0.0; 
stroke:#000000; stroke-width:59.0551; stroke-opacity:1; 
stroke-linecap:round; stroke-linejoin:round;">
<path d="M23622 4724
L23622 3937
" />
</g>
<g style="fill:#000000; fill-opacity:0.0; 
stroke:#000000; stroke-width:39.3701; stroke-opacity:1; 
stroke-linecap:round; stroke-linejoin:round;">
</g>
<g style="fill:#000000; fill-opacity:0.0; 
stroke:#000000; stroke-width:59.0551; stroke-opacity:1; 
stroke-linecap:round; stroke-linejoin:round;">
<path d="M43307 4724
L43307 3937
" />
</g>
<g style="fill:#000000; fill-opacity:0.0; 
stroke:#000000; stroke-width:39.3701; stroke-opacity:1; 
stroke-linecap:round; stroke-linejoin:round;">
</g>
<g style="fill:#000000; fill-opacity:0.0; 
stroke:#000000; stroke-width:59.0551; stroke-opacity:1; 
stroke-linecap:round; stroke-linejoin:round;">
<path d="M62992 4724
L62992 3937
" />
</g>
<g style="fill:#000000; fill-opacity:0.0; 
stroke:#000000; stroke-width:39.3701; stroke-opacity:1; 
stroke-linecap:round; stroke-linejoin:round;">
</g>
<g style="fill:#000000; fill-opacity:0.0; 
stroke:#000000; stroke-width:59.0551; stroke-opacity:1; 
stroke-linecap:round; stroke-linejoin:round;">
<path d="M82677 4724
L82677 3937
" />
</g>
<g style="fill:#000000; fill-opacity:0.0; 
stroke:#000000; stroke-width:39.3701; stroke-opacity:1; 
stroke-linecap:round; stroke-linejoin:round;">
</g>
<g style="fill:#000000; fill-opacity:0.0; 
stroke:#000000; stroke-width:59.0551; stroke-opacity:1; 
stroke-linecap:round; stroke-linejoin:round;">
<path d="M102362 4724
L102362 3937
" />
</g>
<g style="fill:#000000; fill-opacity:0.0; 
stroke:#000000; stroke-width:39.3701; stroke-opacity:1; 
stroke-linecap:round; stroke-linejoin:round;">
</g>
<g style="fill:#000000; fill-opacity:0.0; 
stroke:#000000; stroke-width:59.0551; stroke-opacity:1; 
stroke-linecap:round; stroke-linejoin:round;">
<path d="M14169 4562
L13877 4562
" />
<path d="M14023 4562
L14023 4050
L13974 4123
L13925 4172
L13877 4196
" />
</g>
<g style="fill:#000000; fill-opacity:0.0; 
stroke:#000000; stroke-width:39.3701; stroke-opacity:1; 
stroke-linecap:round; stroke-linejoin:round;">
</g>
<g style="fill:#000000; fill-opacity:0.0; 
stroke:#000000; stroke-width:59.0551; stroke-opacity:1; 
stroke-linecap:round; stroke-linejoin:round;">
<path d="M33562 4099
L33586 4074
L33635 4050
L33757 4050
L33805 4074
L33830 4099
L33854 4147
L33854 4196
L33830 4269
L33537 4562
L33854 4562
" />
</g>
<g style="fill:#000000; fill-opacity:0.0; 
stroke:#000000; stroke-width:39.3701; stroke-opacity:1; 
stroke-linecap:round; stroke-linejoin:round;">
</g>
<g style="fill:#000000; fill-opacity:0.0; 
stroke:#000000; stroke-width:59.0551; stroke-opacity:1; 
stroke-linecap:round; stroke-linejoin:round;">
<path d="M53222 4050
L53539 4050
L53368 4245
L53442 4245
L53490 4269
L53515 4294
L53539 4342
L53539 4464
L53515 4513
L53490 4537
L53442 4562
L53295 4562
L53247 4537
L53222 4513
" />
</g>
<g style="fill:#000000; fill-opacity:0.0; 
stroke:#000000; stroke-width:39.3701; stroke-opacity:1; 
stroke-linecap:round; stroke-linejoin:round;">
</g>
<g style="fill:#000000; fill-opacity:0.0; 
stroke:#000000; stroke-width:59.0551; stroke-opacity:1; 
stroke-linecap:round; stroke-linejoin:round;">
<path d="M73175 4221
L73175 4562
" />
<path d="M73053 4026
L72932 4391
L73248 4391
" />
</g>
<g style="fill:#000000; fill-opacity:0.0; 
stroke:#000000; stroke-width:39.3701; stroke-opacity:1; 
stroke-linecap:round; stroke-linejoin:round;">
</g>
<g style="fill:#000000; fill-opacity:0.0; 
stroke:#000000; stroke-width:59.0551; stroke-opacity:1; 
stroke-linecap:round; stroke-linejoin:round;">
<path d="M92885 4050
L92641 4050
L92617 4294
L92641 4269
L92690 4245
L92812 4245
L92860 4269
L92885 4294
L92909 4342
L92909 4464
L92885 4513
L92860 4537
L92812 4562
L92690 4562
L92641 4537
L92617 4513
" />
</g>
<g style="fill:#000000; fill-opacity:0.0; 
stroke:#000000; stroke-width:39.3701; stroke-opacity:1; 
stroke-linecap:round; stroke-linejoin:round;">
</g>
<g style="fill:#000000; fill-opacity:0.0; 
stroke:#000000; stroke-width:59.0551; stroke-opacity:1; 
stroke-linecap:round; stroke-linejoin:round;">
<path d="M23622 80275
L23622 81062
" />
</g>
<g style="fill:#000000; fill-opacity:0.0; 
stroke:#000000; stroke-width:39.3701; stroke-opacity:1; 
stroke-linecap:round; stroke-linejoin:round;">
</g>
<g style="fill:#000000; fill-opacity:0.0; 
stroke:#000000; stroke-width:59.0551; stroke-opacity:1; 
stroke-linecap:round; stroke-linejoin:round;">
<path d="M43307 80275
L43307 81062
" />
</g>
<g style="fill:#000000; fill-opacity:0.0; 
stroke:#000000; stroke-width:39.3701; stroke-opacity:1; 
stroke-linecap:round; stroke-linejoin:round;">
</g>
<g style="fill:#000000; fill-opacity:0.0; 
stroke:#000000; stroke-width:59.0551; stroke-opacity:1; 
stroke-linecap:round; stroke-linejoin:round;">
<path d="M62992 80275
L62992 81062
" />
</g>
<g style="fill:#000000; fill-opacity:0.0; 
stroke:#000000; stroke-width:39.3701; stroke-opacity:1; 
stroke-linecap:round; stroke-linejoin:round;">
</g>
<g style="fill:#000000; fill-opacity:0.0; 
stroke:#000000; stroke-width:59.0551; stroke-opacity:1; 
stroke-linecap:round; stroke-linejoin:round;">
<path d="M82677 80275
L82677 81062
" />
</g>
<g style="fill:#000000; fill-opacity:0.0; 
stroke:#000000; stroke-width:39.3701; stroke-opacity:1; 
stroke-linecap:round; stroke-linejoin:round;">
</g>
<g style="fill:#000000; fill-opacity:0.0; 
stroke:#000000; stroke-width:59.0551; stroke-opacity:1; 
stroke-linecap:round; stroke-linejoin:round;">
<path d="M102362 80275
L102362 81062
" />
</g>
<g style="fill:#000000; fill-opacity:0.0; 
stroke:#000000; stroke-width:39.3701; stroke-opacity:1; 
stroke-linecap:round; stroke-linejoin:round;">
</g>
<g style="fill:#000000; fill-opacity:0.0; 
stroke:#000000; stroke-width:59.0551; stroke-opacity:1; 
stroke-linecap:round; stroke-linejoin:round;">
<path d="M14169 80900
L13877 80900
" />
<path d="M14023 80900
L14023 80389
L13974 80462
L13925 80510
L13877 80535
" />
</g>
<g style="fill:#000000; fill-opacity:0.0; 
stroke:#000000; stroke-width:39.3701; stroke-opacity:1; 
stroke-linecap:round; stroke-linejoin:round;">
</g>
<g style="fill:#000000; fill-opacity:0.0; 
stroke:#000000; stroke-width:59.0551; stroke-opacity:1; 
stroke-linecap:round; stroke-linejoin:round;">
<path d="M33562 80437
L33586 80413
L33635 80389
L33757 80389
L33805 80413
L33830 80437
L33854 80486
L33854 80535
L33830 80608
L33537 80900
L33854 80900
" />
</g>
<g style="fill:#000000; fill-opacity:0.0; 
stroke:#000000; stroke-width:39.3701; stroke-opacity:1; 
stroke-linecap:round; stroke-linejoin:round;">
</g>
<g style="fill:#000000; fill-opacity:0.0; 
stroke:#000000; stroke-width:59.0551; stroke-opacity:1; 
stroke-linecap:round; stroke-linejoin:round;">
<path d="M53222 80389
L53539 80389
L53368 80583
L53442 80583
L53490 80608
L53515 80632
L53539 80681
L53539 80803
L53515 80852
L53490 80876
L53442 80900
L53295 80900
L53247 80876
L53222 80852
" />
</g>
<g style="fill:#000000; fill-opacity:0.0; 
stroke:#000000; stroke-width:39.3701; stroke-opacity:1; 
stroke-linecap:round; stroke-linejoin:round;">
</g>
<g style="fill:#000000; fill-opacity:0.0; 
stroke:#000000; stroke-width:59.0551; stroke-opacity:1; 
stroke-linecap:round; stroke-linejoin:round;">
<path d="M73175 80559
L73175 80900
" />
<path d="M73053 80364
L72932 80730
L73248 80730
" />
</g>
<g style="fill:#000000; fill-opacity:0.0; 
stroke:#000000; stroke-width:39.3701; stroke-opacity:1; 
stroke-linecap:round; stroke-linejoin:round;">
</g>
<g style="fill:#000000; fill-opacity:0.0; 
stroke:#000000; stroke-width:59.0551; stroke-opacity:1; 
stroke-linecap:round; stroke-linejoin:round;">
<path d="M92885 80389
L92641 80389
L92617 80632
L92641 80608
L92690 80583
L92812 80583
L92860 80608
L92885 80632
L92909 80681
L92909 80803
L92885 80852
L92860 80876
L92812 80900
L92690 80900
L92641 80876
L92617 80852
" />
</g>
<g style="fill:#000000; fill-opacity:0.0; 
stroke:#000000; stroke-width:39.3701; stroke-opacity:1; 
stroke-linecap:round; stroke-linejoin:round;">
</g>
<g style="fill:#000000; fill-opacity:0.0; 
stroke:#000000; stroke-width:59.0551; stroke-opacity:1; 
stroke-linecap:round; stroke-linejoin:round;">
<path d="M3937 23622
L4724 23622
" />
</g>
<g style="fill:#000000; fill-opacity:0.0; 
stroke:#000000; stroke-width:39.3701; stroke-opacity:1; 
stroke-linecap:round; stroke-linejoin:round;">
</g>
<g style="fill:#000000; fill-opacity:0.0; 
stroke:#000000; stroke-width:59.0551; stroke-opacity:1; 
stroke-linecap:round; stroke-linejoin:round;">
<path d="M3937 43307
L4724 43307
" />
</g>
<g style="fill:#000000; fill-opacity:0.0; 
stroke:#000000; stroke-width:39.3701; stroke-opacity:1; 
stroke-linecap:round; stroke-linejoin:round;">
</g>
<g style="fill:#000000; fill-opacity:0.0; 
stroke:#000000; stroke-width:59.0551; stroke-opacity:1; 
stroke-linecap:round; stroke-linejoin:round;">
<path d="M3937 62992
L4724 62992
" />
</g>
<g style="fill:#000000; fill-opacity:0.0; 
stroke:#000000; stroke-width:39.3701; stroke-opacity:1; 
stroke-linecap:round; stroke-linejoin:round;">
</g>
<g style="fill:#000000; fill-opacity:0.0; 
stroke:#000000; stroke-width:59.0551; stroke-opacity:1; 
stroke-linecap:round; stroke-linejoin:round;">
<path d="M4208 13864
L4452 13864
" />
<path d="M4160 14011
L4330 13499
L4501 14011
" />
</g>
<g style="fill:#000000; fill-opacity:0.0; 
stroke:#000000; stroke-width:39.3701; stroke-opacity:1; 
stroke-linecap:round; stroke-linejoin:round;">
</g>
<g style="fill:#000000; fill-opacity:0.0; 
stroke:#000000; stroke-width:59.0551; stroke-opacity:1; 
stroke-linecap:round; stroke-linejoin:round;">
<path d="M4367 33428
L4440 33452
L4464 33476
L4489 33525
L4489 33598
L4464 33647
L4440 33671
L4391 33696
L4196 33696
L4196 33184
L4367 33184
L4416 33208
L4440 33233
L4464 33281
L4464 33330
L4440 33379
L4416 33403
L4367 33428
L4196 33428
" />
</g>
<g style="fill:#000000; fill-opacity:0.0; 
stroke:#000000; stroke-width:39.3701; stroke-opacity:1; 
stroke-linecap:round; stroke-linejoin:round;">
</g>
<g style="fill:#000000; fill-opacity:0.0; 
stroke:#000000; stroke-width:59.0551; stroke-opacity:1; 
stroke-linecap:round; stroke-linejoin:round;">
<path d="M4489 53332
L4464 53356
L4391 53381
L4342 53381
L4269 53356
L4221 53308
L4196 53259
L4172 53161
L4172 53088
L4196 52991
L4221 52942
L4269 52893
L4342 52869
L4391 52869
L4464 52893
L4489 52918
" />
</g>
<g style="fill:#000000; fill-opacity:0.0; 
stroke:#000000; stroke-width:39.3701; stroke-opacity:1; 
stroke-linecap:round; stroke-linejoin:round;">
</g>
<g style="fill:#000000; fill-opacity:0.0; 
stroke:#000000; stroke-width:59.0551; stroke-opacity:1; 
stroke-linecap:round; stroke-linejoin:round;">
<path d="M4196 73066
L4196 72554
L4318 72554
L4391 72578
L4440 72627
L4464 72676
L4489 72773
L4489 72846
L4464 72944
L4440 72993
L4391 73041
L4318 73066
L4196 73066
" />
</g>
<g style="fill:#000000; fill-opacity:0.0; 
stroke:#000000; stroke-width:39.3701; stroke-opacity:1; 
stroke-linecap:round; stroke-linejoin:round;">
</g>
<g style="fill:#000000; fill-opacity:0.0; 
stroke:#000000; stroke-width:59.0551; stroke-opacity:1; 
stroke-linecap:round; stroke-linejoin:round;">
<path d="M106062 23622
L105275 23622
" />
</g>
<g style="fill:#000000; fill-opacity:0.0; 
stroke:#000000; stroke-width:39.3701; stroke-opacity:1; 
stroke-linecap:round; stroke-linejoin:round;">
</g>
<g style="fill:#000000; fill-opacity:0.0; 
stroke:#000000; stroke-width:59.0551; stroke-opacity:1; 
stroke-linecap:round; stroke-linejoin:round;">
<path d="M106062 43307
L105275 43307
" />
</g>
<g style="fill:#000000; fill-opacity:0.0; 
stroke:#000000; stroke-width:39.3701; stroke-opacity:1; 
stroke-linecap:round; stroke-linejoin:round;">
</g>
<g style="fill:#000000; fill-opacity:0.0; 
stroke:#000000; stroke-width:59.0551; stroke-opacity:1; 
stroke-linecap:round; stroke-linejoin:round;">
<path d="M106062 62992
L105275 62992
" />
</g>
<g style="fill:#000000; fill-opacity:0.0; 
stroke:#000000; stroke-width:39.3701; stroke-opacity:1; 
stroke-linecap:round; stroke-linejoin:round;">
</g>
<g style="fill:#000000; fill-opacity:0.0; 
stroke:#000000; stroke-width:59.0551; stroke-opacity:1; 
stroke-linecap:round; stroke-linejoin:round;">
<path d="M105547 13864
L105791 13864
" />
<path d="M105498 14011
L105669 13499
L105839 14011
" />
</g>
<g style="fill:#000000; fill-opacity:0.0; 
stroke:#000000; stroke-width:39.3701; stroke-opacity:1; 
stroke-linecap:round; stroke-linejoin:round;">
</g>
<g style="fill:#000000; fill-opacity:0.0; 
stroke:#000000; stroke-width:59.0551; stroke-opacity:1; 
stroke-linecap:round; stroke-linejoin:round;">
<path d="M105705 33428
L105778 33452
L105803 33476
L105827 33525
L105827 33598
L105803 33647
L105778 33671
L105730 33696
L105535 33696
L105535 33184
L105705 33184
L105754 33208
L105778 33233
L105803 33281
L105803 33330
L105778 33379
L105754 33403
L105705 33428
L105535 33428
" />
</g>
<g style="fill:#000000; fill-opacity:0.0; 
stroke:#000000; stroke-width:39.3701; stroke-opacity:1; 
stroke-linecap:round; stroke-linejoin:round;">
</g>
<g style="fill:#000000; fill-opacity:0.0; 
stroke:#000000; stroke-width:59.0551; stroke-opacity:1; 
stroke-linecap:round; stroke-linejoin:round;">
<path d="M105827 53332
L105803 53356
L105730 53381
L105681 53381
L105608 53356
L105559 53308
L105535 53259
L105510 53161
L105510 53088
L105535 52991
L105559 52942
L105608 52893
L105681 52869
L105730 52869
L105803 52893
L105827 52918
" />
</g>
<g style="fill:#000000; fill-opacity:0.0; 
stroke:#000000; stroke-width:39.3701; stroke-opacity:1; 
stroke-linecap:round; stroke-linejoin:round;">
</g>
<g style="fill:#000000; fill-opacity:0.0; 
stroke:#000000; stroke-width:59.0551; stroke-opacity:1; 
stroke-linecap:round; stroke-linejoin:round;">
<path d="M105535 73066
L105535 72554
L105657 72554
L105730 72578
L105778 72627
L105803 72676
L105827 72773
L105827 72846
L105803 72944
L105778 72993
L105730 73041
L105657 73066
L105535 73066
" />
</g>
<g style="fill:#000000; fill-opacity:0.0; 
stroke:#000000; stroke-width:39.3701; stroke-opacity:1; 
stroke-linecap:round; stroke-linejoin:round;">
</g>
<g style="fill:#000000; fill-opacity:0.0; 
stroke:#000000; stroke-width:59.0551; stroke-opacity:1; 
stroke-linecap:round; stroke-linejoin:round;">
<path d="M71951 78613
L71951 78023
L72092 78023
L72176 78051
L72232 78107
L72260 78163
L72289 78276
L72289 78360
L72260 78473
L72232 78529
L72176 78585
L72092 78613
L71951 78613
" />
<path d="M72795 78613
L72795 78304
L72767 78248
L72710 78219
L72598 78219
L72542 78248
" />
<path d="M72795 78585
L72739 78613
L72598 78613
L72542 78585
L72514 78529
L72514 78473
L72542 78416
L72598 78388
L72739 78388
L72795 78360
" />
<path d="M72992 78219
L73217 78219
" />
<path d="M73076 78023
L73076 78529
L73104 78585
L73160 78613
L73217 78613
" />
<path d="M73638 78585
L73582 78613
L73470 78613
L73413 78585
L73385 78529
L73385 78304
L73413 78248
L73470 78219
L73582 78219
L73638 78248
L73667 78304
L73667 78360
L73385 78416
" />
<path d="M73920 78557
L73948 78585
L73920 78613
L73892 78585
L73920 78557
L73920 78613
" />
<path d="M73920 78248
L73948 78276
L73920 78304
L73892 78276
L73920 78248
L73920 78304
" />
<path d="M74623 78079
L74651 78051
L74707 78023
L74848 78023
L74904 78051
L74932 78079
L74960 78135
L74960 78191
L74932 78276
L74595 78613
L74960 78613
" />
<path d="M75326 78023
L75382 78023
L75438 78051
L75466 78079
L75494 78135
L75523 78248
L75523 78388
L75494 78501
L75466 78557
L75438 78585
L75382 78613
L75326 78613
L75269 78585
L75241 78557
L75213 78501
L75185 78388
L75185 78248
L75213 78135
L75241 78079
L75269 78051
L75326 78023
" />
<path d="M76085 78613
L75748 78613
" />
<path d="M75916 78613
L75916 78023
L75860 78107
L75804 78163
L75748 78191
" />
<path d="M76591 78023
L76479 78023
L76422 78051
L76394 78079
L76338 78163
L76310 78276
L76310 78501
L76338 78557
L76366 78585
L76422 78613
L76535 78613
L76591 78585
L76619 78557
L76647 78501
L76647 78360
L76619 78304
L76591 78276
L76535 78248
L76422 78248
L76366 78276
L76338 78304
L76310 78360
" />
<path d="M76901 78388
L77350 78388
" />
<path d="M77941 78613
L77604 78613
" />
<path d="M77772 78613
L77772 78023
L77716 78107
L77660 78163
L77604 78191
" />
<path d="M78503 78613
L78166 78613
" />
<path d="M78335 78613
L78335 78023
L78278 78107
L78222 78163
L78166 78191
" />
<path d="M78757 78388
L79206 78388
" />
<path d="M79431 78023
L79797 78023
L79600 78248
L79685 78248
L79741 78276
L79769 78304
L79797 78360
L79797 78501
L79769 78557
L79741 78585
L79685 78613
L79516 78613
L79460 78585
L79431 78557
" />
<path d="M80163 78023
L80219 78023
L80275 78051
L80303 78079
L80331 78135
L80359 78248
L80359 78388
L80331 78501
L80303 78557
L80275 78585
L80219 78613
L80163 78613
L80106 78585
L80078 78557
L80050 78501
L80022 78388
L80022 78248
L80050 78135
L80078 78079
L80106 78051
L80163 78023
" />
</g>
<g style="fill:#000000; fill-opacity:0.0; 
stroke:#000000; stroke-width:39.3701; stroke-opacity:1; 
stroke-linecap:round; stroke-linejoin:round;">
</g>
<g style="fill:#000000; fill-opacity:0.0; 
stroke:#000000; stroke-width:59.0551; stroke-opacity:1; 
stroke-linecap:round; stroke-linejoin:round;">
<path d="M62755 78897
L105275 78897
" />
</g>
<g style="fill:#000000; fill-opacity:0.0; 
stroke:#000000; stroke-width:39.3701; stroke-opacity:1; 
stroke-linecap:round; stroke-linejoin:round;">
</g>
<g style="fill:#000000; fill-opacity:0.0; 
stroke:#000000; stroke-width:59.0551; stroke-opacity:1; 
stroke-linecap:round; stroke-linejoin:round;">
<path d="M63290 79715
L63290 79125
" />
<path d="M63627 79715
L63374 79378
" />
<path d="M63627 79125
L63290 79462
" />
<path d="M63880 79715
L63880 79322
" />
<path d="M63880 79125
L63852 79153
L63880 79181
L63908 79153
L63880 79125
L63880 79181
" />
<path d="M64499 79659
L64471 79687
L64386 79715
L64330 79715
L64246 79687
L64190 79631
L64161 79575
L64133 79462
L64133 79378
L64161 79266
L64190 79209
L64246 79153
L64330 79125
L64386 79125
L64471 79153
L64499 79181
" />
<path d="M65005 79715
L65005 79406
L64977 79350
L64921 79322
L64808 79322
L64752 79350
" />
<path d="M65005 79687
L64949 79715
L64808 79715
L64752 79687
L64724 79631
L64724 79575
L64752 79519
L64808 79491
L64949 79491
L65005 79462
" />
<path d="M65539 79715
L65539 79125
" />
<path d="M65539 79687
L65483 79715
L65371 79715
L65314 79687
L65286 79659
L65258 79603
L65258 79434
L65286 79378
L65314 79350
L65371 79322
L65483 79322
L65539 79350
" />
<path d="M66271 79406
L66467 79406
" />
<path d="M66552 79715
L66271 79715
L66271 79125
L66552 79125
" />
<path d="M66805 79659
L66833 79687
L66805 79715
L66777 79687
L66805 79659
L66805 79715
" />
<path d="M67086 79715
L67086 79125
L67227 79125
L67311 79153
L67367 79209
L67395 79266
L67424 79378
L67424 79462
L67395 79575
L67367 79631
L67311 79687
L67227 79715
L67086 79715
" />
<path d="M67677 79659
L67705 79687
L67677 79715
L67649 79687
L67677 79659
L67677 79715
" />
<path d="M67930 79547
L68211 79547
" />
<path d="M67874 79715
L68070 79125
L68267 79715
" />
<path d="M68464 79659
L68492 79687
L68464 79715
L68436 79687
L68464 79659
L68464 79715
" />
<path d="M69645 79715
L69645 79125
" />
<path d="M69701 79491
L69870 79715
" />
<path d="M69870 79322
L69645 79547
" />
<path d="M70123 79715
L70123 79322
" />
<path d="M70123 79125
L70095 79153
L70123 79181
L70151 79153
L70123 79125
L70123 79181
" />
<path d="M70658 79687
L70601 79715
L70489 79715
L70433 79687
L70404 79659
L70376 79603
L70376 79434
L70404 79378
L70433 79350
L70489 79322
L70601 79322
L70658 79350
" />
<path d="M71164 79715
L71164 79406
L71136 79350
L71079 79322
L70967 79322
L70911 79350
" />
<path d="M71164 79687
L71107 79715
L70967 79715
L70911 79687
L70883 79631
L70883 79575
L70911 79519
L70967 79491
L71107 79491
L71164 79462
" />
<path d="M71698 79715
L71698 79125
" />
<path d="M71698 79687
L71642 79715
L71529 79715
L71473 79687
L71445 79659
L71417 79603
L71417 79434
L71445 79378
L71473 79350
L71529 79322
L71642 79322
L71698 79350
" />
<path d="M72682 79322
L72682 79715
" />
<path d="M72542 79097
L72401 79519
L72767 79519
" />
<path d="M72992 79659
L73020 79687
L72992 79715
L72964 79687
L72992 79659
L72992 79715
" />
<path d="M73385 79125
L73442 79125
L73498 79153
L73526 79181
L73554 79237
L73582 79350
L73582 79491
L73554 79603
L73526 79659
L73498 79687
L73442 79715
L73385 79715
L73329 79687
L73301 79659
L73273 79603
L73245 79491
L73245 79350
L73273 79237
L73301 79181
L73329 79153
L73385 79125
" />
<path d="M73835 79659
L73863 79687
L73835 79715
L73807 79687
L73835 79659
L73835 79715
" />
<path d="M74426 79715
L74088 79715
" />
<path d="M74257 79715
L74257 79125
L74201 79209
L74145 79266
L74088 79294
" />
<path d="M74679 79491
L75129 79491
" />
<path d="M75382 79687
L75438 79715
L75551 79715
L75607 79687
L75635 79631
L75635 79603
L75607 79547
L75551 79519
L75466 79519
L75410 79491
L75382 79434
L75382 79406
L75410 79350
L75466 79322
L75551 79322
L75607 79350
" />
<path d="M75804 79322
L76029 79322
" />
<path d="M75888 79125
L75888 79631
L75916 79687
L75973 79715
L76029 79715
" />
<path d="M76479 79715
L76479 79406
L76451 79350
L76394 79322
L76282 79322
L76226 79350
" />
<path d="M76479 79687
L76422 79715
L76282 79715
L76226 79687
L76197 79631
L76197 79575
L76226 79519
L76282 79491
L76422 79491
L76479 79462
" />
<path d="M76760 79715
L76760 79125
" />
<path d="M76760 79350
L76816 79322
L76929 79322
L76985 79350
L77013 79378
L77041 79434
L77041 79603
L77013 79659
L76985 79687
L76929 79715
L76816 79715
L76760 79687
" />
<path d="M77379 79715
L77322 79687
L77294 79631
L77294 79125
" />
<path d="M77829 79687
L77772 79715
L77660 79715
L77604 79687
L77575 79631
L77575 79406
L77604 79350
L77660 79322
L77772 79322
L77829 79350
L77857 79406
L77857 79462
L77575 79519
" />
</g>
<g style="fill:#000000; fill-opacity:0.0; 
stroke:#000000; stroke-width:39.3701; stroke-opacity:1; 
stroke-linecap:round; stroke-linejoin:round;">
</g>
<g style="fill:#000000; fill-opacity:0.0; 
stroke:#000000; stroke-width:59.0551; stroke-opacity:1; 
stroke-linecap:round; stroke-linejoin:round;">
<path d="M62755 77716
L105275 77716
" />
</g>
<g style="fill:#000000; fill-opacity:0.0; 
stroke:#000000; stroke-width:39.3701; stroke-opacity:1; 
stroke-linecap:round; stroke-linejoin:round;">
</g>
<g style="fill:#000000; fill-opacity:0.0; 
stroke:#000000; stroke-width:118.11; stroke-opacity:1; 
stroke-linecap:round; stroke-linejoin:round;">
<path d="M97092 78613
L96895 78332
" />
<path d="M96754 78613
L96754 78023
L96979 78023
L97035 78051
L97064 78079
L97092 78135
L97092 78219
L97064 78276
L97035 78304
L96979 78332
L96754 78332
" />
<path d="M97570 78585
L97514 78613
L97401 78613
L97345 78585
L97317 78529
L97317 78304
L97345 78248
L97401 78219
L97514 78219
L97570 78248
L97598 78304
L97598 78360
L97317 78416
" />
<path d="M97795 78219
L97935 78613
L98076 78219
" />
<path d="M98301 78557
L98329 78585
L98301 78613
L98273 78585
L98301 78557
L98301 78613
" />
<path d="M98301 78248
L98329 78276
L98301 78304
L98273 78276
L98301 78248
L98301 78304
" />
<path d="M98976 78023
L99341 78023
L99145 78248
L99229 78248
L99285 78276
L99313 78304
L99341 78360
L99341 78501
L99313 78557
L99285 78585
L99229 78613
L99060 78613
L99004 78585
L98976 78557
" />
<path d="M99595 78557
L99623 78585
L99595 78613
L99566 78585
L99595 78557
L99595 78613
" />
<path d="M99988 78023
L100044 78023
L100101 78051
L100129 78079
L100157 78135
L100185 78248
L100185 78388
L100157 78501
L100129 78557
L100101 78585
L100044 78613
L99988 78613
L99932 78585
L99904 78557
L99876 78501
L99848 78388
L99848 78248
L99876 78135
L99904 78079
L99932 78051
L99988 78023
" />
</g>
<g style="fill:#000000; fill-opacity:0.0; 
stroke:#000000; stroke-width:39.3701; stroke-opacity:1; 
stroke-linecap:round; stroke-linejoin:round;">
</g>
<g style="fill:#000000; fill-opacity:0.0; 
stroke:#000000; stroke-width:59.0551; stroke-opacity:1; 
stroke-linecap:round; stroke-linejoin:round;">
<path d="M63262 78585
L63346 78613
L63487 78613
L63543 78585
L63571 78557
L63599 78501
L63599 78444
L63571 78388
L63543 78360
L63487 78332
L63374 78304
L63318 78276
L63290 78248
L63262 78191
L63262 78135
L63290 78079
L63318 78051
L63374 78023
L63515 78023
L63599 78051
" />
<path d="M63852 78613
L63852 78219
" />
<path d="M63852 78023
L63824 78051
L63852 78079
L63880 78051
L63852 78023
L63852 78079
" />
<path d="M64077 78219
L64386 78219
L64077 78613
L64386 78613
" />
<path d="M64836 78585
L64780 78613
L64668 78613
L64611 78585
L64583 78529
L64583 78304
L64611 78248
L64668 78219
L64780 78219
L64836 78248
L64865 78304
L64865 78360
L64583 78416
" />
<path d="M65118 78557
L65146 78585
L65118 78613
L65089 78585
L65118 78557
L65118 78613
" />
<path d="M65118 78248
L65146 78276
L65118 78304
L65089 78276
L65118 78248
L65118 78304
" />
<path d="M65849 78023
L65849 78501
L65877 78557
L65905 78585
L65961 78613
L66074 78613
L66130 78585
L66158 78557
L66186 78501
L66186 78023
" />
<path d="M66439 78585
L66524 78613
L66664 78613
L66721 78585
L66749 78557
L66777 78501
L66777 78444
L66749 78388
L66721 78360
L66664 78332
L66552 78304
L66496 78276
L66467 78248
L66439 78191
L66439 78135
L66467 78079
L66496 78051
L66552 78023
L66692 78023
L66777 78051
" />
<path d="M67311 78613
L67030 78613
L67030 78023
" />
<path d="M67733 78585
L67677 78613
L67564 78613
L67508 78585
L67480 78529
L67480 78304
L67508 78248
L67564 78219
L67677 78219
L67733 78248
L67761 78304
L67761 78360
L67480 78416
" />
<path d="M67930 78219
L68155 78219
" />
<path d="M68014 78023
L68014 78529
L68042 78585
L68098 78613
L68155 78613
" />
<path d="M68267 78219
L68492 78219
" />
<path d="M68352 78023
L68352 78529
L68380 78585
L68436 78613
L68492 78613
" />
<path d="M68914 78585
L68858 78613
L68745 78613
L68689 78585
L68661 78529
L68661 78304
L68689 78248
L68745 78219
L68858 78219
L68914 78248
L68942 78304
L68942 78360
L68661 78416
" />
<path d="M69195 78613
L69195 78219
" />
<path d="M69195 78332
L69223 78276
L69251 78248
L69308 78219
L69364 78219
" />
</g>
<g style="fill:#000000; fill-opacity:0.0; 
stroke:#000000; stroke-width:39.3701; stroke-opacity:1; 
stroke-linecap:round; stroke-linejoin:round;">
</g>
<g style="fill:#000000; fill-opacity:0.0; 
stroke:#000000; stroke-width:59.0551; stroke-opacity:1; 
stroke-linecap:round; stroke-linejoin:round;">
<path d="M96754 79715
L96754 79125
" />
<path d="M97289 79715
L97289 79125
" />
<path d="M97289 79687
L97232 79715
L97120 79715
L97064 79687
L97035 79659
L97007 79603
L97007 79434
L97035 79378
L97064 79350
L97120 79322
L97232 79322
L97289 79350
" />
<path d="M97570 79659
L97598 79687
L97570 79715
L97542 79687
L97570 79659
L97570 79715
" />
<path d="M97570 79350
L97598 79378
L97570 79406
L97542 79378
L97570 79350
L97570 79406
" />
<path d="M98610 79715
L98273 79715
" />
<path d="M98442 79715
L98442 79125
L98385 79209
L98329 79266
L98273 79294
" />
<path d="M99285 79097
L98779 79856
" />
<path d="M99791 79715
L99454 79715
" />
<path d="M99623 79715
L99623 79125
L99566 79209
L99510 79266
L99454 79294
" />
</g>
<g style="fill:#000000; fill-opacity:0.0; 
stroke:#000000; stroke-width:39.3701; stroke-opacity:1; 
stroke-linecap:round; stroke-linejoin:round;">
</g>
<g style="fill:#000000; fill-opacity:0.0; 
stroke:#000000; stroke-width:59.0551; stroke-opacity:1; 
stroke-linecap:round; stroke-linejoin:round;">
<path d="M62755 76141
L105275 76141
" />
</g>
<g style="fill:#000000; fill-opacity:0.0; 
stroke:#000000; stroke-width:39.3701; stroke-opacity:1; 
stroke-linecap:round; stroke-linejoin:round;">
</g>
<g style="fill:#000000; fill-opacity:0.0; 
stroke:#000000; stroke-width:157.48; stroke-opacity:1; 
stroke-linecap:round; stroke-linejoin:round;">
<path d="M63327 76419
L63777 76419
" />
<path d="M63454 77206
L63552 76419
" />
<path d="M63941 77206
L64007 76681
" />
<path d="M64040 76419
L63997 76456
L64030 76494
L64072 76456
L64040 76419
L64030 76494
" />
<path d="M64269 76681
L64569 76681
" />
<path d="M64415 76419
L64330 77094
L64358 77169
L64429 77206
L64504 77206
" />
<path d="M64879 77206
L64808 77169
L64780 77094
L64865 76419
" />
<path d="M65483 77169
L65404 77206
L65254 77206
L65183 77169
L65155 77094
L65193 76794
L65239 76719
L65319 76681
L65469 76681
L65539 76719
L65568 76794
L65558 76869
L65174 76944
" />
<path d="M65863 77131
L65896 77169
L65853 77206
L65821 77169
L65863 77131
L65853 77206
" />
<path d="M65914 76719
L65947 76756
L65905 76794
L65872 76756
L65914 76719
L65905 76794
" />
<path d="M67231 76681
L67166 77206
" />
<path d="M67081 76381
L66824 76944
L67311 76944
" />
<path d="M67827 76419
L67902 76419
L67972 76456
L68005 76494
L68033 76569
L68052 76719
L68028 76906
L67972 77056
L67925 77131
L67883 77169
L67803 77206
L67728 77206
L67658 77169
L67625 77131
L67597 77056
L67578 76906
L67602 76719
L67658 76569
L67705 76494
L67747 76456
L67827 76419
" />
<path d="M68366 76906
L68966 76906
" />
<path d="M69645 77169
L69565 77206
L69416 77206
L69345 77169
L69312 77131
L69284 77056
L69312 76831
L69359 76756
L69401 76719
L69481 76681
L69631 76681
L69701 76719
" />
<path d="M69978 77206
L70076 76419
" />
<path d="M70315 77206
L70367 76794
L70339 76719
L70269 76681
L70156 76681
L70076 76719
L70034 76756
" />
<path d="M71028 77206
L71079 76794
L71051 76719
L70981 76681
L70831 76681
L70751 76719
" />
<path d="M71032 77169
L70953 77206
L70765 77206
L70695 77169
L70667 77094
L70676 77019
L70723 76944
L70803 76906
L70990 76906
L71070 76869
" />
<path d="M71468 76681
L71403 77206
" />
<path d="M71459 76756
L71501 76719
L71581 76681
L71693 76681
L71764 76719
L71792 76794
L71740 77206
" />
<path d="M72181 76681
L72115 77206
" />
<path d="M72171 76756
L72214 76719
L72293 76681
L72406 76681
L72476 76719
L72504 76794
L72453 77206
" />
<path d="M73132 77169
L73053 77206
L72903 77206
L72832 77169
L72804 77094
L72842 76794
L72889 76719
L72968 76681
L73118 76681
L73188 76719
L73217 76794
L73207 76869
L72823 76944
" />
<path d="M73615 77206
L73545 77169
L73517 77094
L73601 76419
" />
<path d="M74515 77206
L74613 76419
" />
<path d="M74566 76794
L75016 76794
" />
<path d="M74965 77206
L75063 76419
" />
<path d="M75326 76419
L75490 77206
L75851 76419
" />
<path d="M76582 77169
L76652 77206
L76802 77206
L76882 77169
L76929 77094
L76933 77056
L76905 76981
L76835 76944
L76722 76944
L76652 76906
L76624 76831
L76629 76794
L76676 76719
L76755 76681
L76868 76681
L76938 76719
" />
<path d="M77243 76681
L77327 77206
L77524 76831
L77627 77206
L77843 76681
" />
<path d="M78077 77206
L78143 76681
" />
<path d="M78175 76419
L78133 76456
L78166 76494
L78208 76456
L78175 76419
L78166 76494
" />
<path d="M78405 76681
L78705 76681
" />
<path d="M78550 76419
L78466 77094
L78494 77169
L78564 77206
L78639 77206
" />
<path d="M79244 77169
L79164 77206
L79014 77206
L78944 77169
L78911 77131
L78883 77056
L78911 76831
L78958 76756
L79000 76719
L79080 76681
L79230 76681
L79300 76719
" />
<path d="M79577 77206
L79675 76419
" />
<path d="M79914 77206
L79966 76794
L79938 76719
L79867 76681
L79755 76681
L79675 76719
L79633 76756
" />
<path d="M80289 77206
L80355 76681
" />
<path d="M80388 76419
L80345 76456
L80378 76494
L80420 76456
L80388 76419
L80378 76494
" />
<path d="M80730 76681
L80664 77206
" />
<path d="M80720 76756
L80763 76719
L80842 76681
L80955 76681
L81025 76719
L81053 76794
L81002 77206
" />
<path d="M81780 76681
L81700 77319
L81653 77394
L81611 77431
L81531 77469
L81419 77469
L81348 77431
" />
<path d="M81719 77169
L81639 77206
L81489 77206
L81419 77169
L81386 77131
L81358 77056
L81386 76831
L81433 76756
L81475 76719
L81555 76681
L81705 76681
L81775 76719
" />
<path d="M82689 77206
L82787 76419
" />
<path d="M82750 76719
L82829 76681
L82979 76681
L83050 76719
L83083 76756
L83111 76831
L83083 77056
L83036 77131
L82994 77169
L82914 77206
L82764 77206
L82694 77169
" />
<path d="M83514 77206
L83443 77169
L83411 77131
L83383 77056
L83411 76831
L83458 76756
L83500 76719
L83579 76681
L83692 76681
L83762 76719
L83795 76756
L83823 76831
L83795 77056
L83748 77131
L83706 77169
L83626 77206
L83514 77206
" />
<path d="M84451 77206
L84503 76794
L84475 76719
L84404 76681
L84254 76681
L84175 76719
" />
<path d="M84456 77169
L84376 77206
L84189 77206
L84118 77169
L84090 77094
L84100 77019
L84146 76944
L84226 76906
L84414 76906
L84493 76869
" />
<path d="M84826 77206
L84892 76681
" />
<path d="M84873 76831
L84920 76756
L84962 76719
L85042 76681
L85117 76681
" />
<path d="M85651 77206
L85749 76419
" />
<path d="M85656 77169
L85576 77206
L85426 77206
L85356 77169
L85323 77131
L85295 77056
L85323 76831
L85370 76756
L85412 76719
L85492 76681
L85642 76681
L85712 76719
" />
</g>
<g style="fill:#000000; fill-opacity:0.0; 
stroke:#000000; stroke-width:39.3701; stroke-opacity:1; 
stroke-linecap:round; stroke-linejoin:round;">
</g>
<g style="fill:#000000; fill-opacity:0.0; 
stroke:#000000; stroke-width:59.0551; stroke-opacity:1; 
stroke-linecap:round; stroke-linejoin:round;">
<path d="M63487 75390
L63290 75390
" />
<path d="M63290 75700
L63290 75109
L63571 75109
" />
<path d="M63796 75700
L63796 75306
" />
<path d="M63796 75109
L63768 75137
L63796 75165
L63824 75137
L63796 75109
L63796 75165
" />
<path d="M64161 75700
L64105 75672
L64077 75615
L64077 75109
" />
<path d="M64611 75672
L64555 75700
L64443 75700
L64386 75672
L64358 75615
L64358 75390
L64386 75334
L64443 75306
L64555 75306
L64611 75334
L64640 75390
L64640 75447
L64358 75503
" />
<path d="M64893 75643
L64921 75672
L64893 75700
L64865 75672
L64893 75643
L64893 75700
" />
<path d="M64893 75334
L64921 75362
L64893 75390
L64865 75362
L64893 75334
L64893 75390
" />
<path d="M65877 75306
L65877 75700
" />
<path d="M65736 75081
L65596 75503
L65961 75503
" />
<path d="M66299 75109
L66355 75109
L66411 75137
L66439 75165
L66467 75222
L66496 75334
L66496 75475
L66467 75587
L66439 75643
L66411 75672
L66355 75700
L66299 75700
L66242 75672
L66214 75643
L66186 75587
L66158 75475
L66158 75334
L66186 75222
L66214 75165
L66242 75137
L66299 75109
" />
<path d="M66749 75475
L67199 75475
" />
<path d="M67733 75672
L67677 75700
L67564 75700
L67508 75672
L67480 75643
L67452 75587
L67452 75419
L67480 75362
L67508 75334
L67564 75306
L67677 75306
L67733 75334
" />
<path d="M67986 75700
L67986 75109
" />
<path d="M68239 75700
L68239 75390
L68211 75334
L68155 75306
L68070 75306
L68014 75334
L67986 75362
" />
<path d="M68773 75700
L68773 75390
L68745 75334
L68689 75306
L68577 75306
L68520 75334
" />
<path d="M68773 75672
L68717 75700
L68577 75700
L68520 75672
L68492 75615
L68492 75559
L68520 75503
L68577 75475
L68717 75475
L68773 75447
" />
<path d="M69055 75306
L69055 75700
" />
<path d="M69055 75362
L69083 75334
L69139 75306
L69223 75306
L69280 75334
L69308 75390
L69308 75700
" />
<path d="M69589 75306
L69589 75700
" />
<path d="M69589 75362
L69617 75334
L69673 75306
L69758 75306
L69814 75334
L69842 75390
L69842 75700
" />
<path d="M70348 75672
L70292 75700
L70179 75700
L70123 75672
L70095 75615
L70095 75390
L70123 75334
L70179 75306
L70292 75306
L70348 75334
L70376 75390
L70376 75447
L70095 75503
" />
<path d="M70714 75700
L70658 75672
L70629 75615
L70629 75109
" />
<path d="M71389 75700
L71389 75109
" />
<path d="M71389 75390
L71726 75390
" />
<path d="M71726 75700
L71726 75109
" />
<path d="M71923 75109
L72120 75700
L72317 75109
" />
<path d="M72935 75672
L72992 75700
L73104 75700
L73160 75672
L73188 75615
L73188 75587
L73160 75531
L73104 75503
L73020 75503
L72964 75475
L72935 75419
L72935 75390
L72964 75334
L73020 75306
L73104 75306
L73160 75334
" />
<path d="M73385 75306
L73498 75700
L73610 75419
L73723 75700
L73835 75306
" />
<path d="M74060 75700
L74060 75306
" />
<path d="M74060 75109
L74032 75137
L74060 75165
L74088 75137
L74060 75109
L74060 75165
" />
<path d="M74257 75306
L74482 75306
" />
<path d="M74341 75109
L74341 75615
L74370 75672
L74426 75700
L74482 75700
" />
<path d="M74932 75672
L74876 75700
L74763 75700
L74707 75672
L74679 75643
L74651 75587
L74651 75419
L74679 75362
L74707 75334
L74763 75306
L74876 75306
L74932 75334
" />
<path d="M75185 75700
L75185 75109
" />
<path d="M75438 75700
L75438 75390
L75410 75334
L75354 75306
L75269 75306
L75213 75334
L75185 75362
" />
<path d="M75719 75700
L75719 75306
" />
<path d="M75719 75109
L75691 75137
L75719 75165
L75748 75137
L75719 75109
L75719 75165
" />
<path d="M76001 75306
L76001 75700
" />
<path d="M76001 75362
L76029 75334
L76085 75306
L76169 75306
L76226 75334
L76254 75390
L76254 75700
" />
<path d="M76788 75306
L76788 75784
L76760 75840
L76732 75868
L76676 75897
L76591 75897
L76535 75868
" />
<path d="M76788 75672
L76732 75700
L76619 75700
L76563 75672
L76535 75643
L76507 75587
L76507 75419
L76535 75362
L76563 75334
L76619 75306
L76732 75306
L76788 75334
" />
<path d="M77519 75700
L77519 75109
" />
<path d="M77519 75334
L77575 75306
L77688 75306
L77744 75334
L77772 75362
L77800 75419
L77800 75587
L77772 75643
L77744 75672
L77688 75700
L77575 75700
L77519 75672
" />
<path d="M78138 75700
L78082 75672
L78053 75643
L78025 75587
L78025 75419
L78053 75362
L78082 75334
L78138 75306
L78222 75306
L78278 75334
L78307 75362
L78335 75419
L78335 75587
L78307 75643
L78278 75672
L78222 75700
L78138 75700
" />
<path d="M78841 75700
L78841 75390
L78813 75334
L78757 75306
L78644 75306
L78588 75334
" />
<path d="M78841 75672
L78785 75700
L78644 75700
L78588 75672
L78560 75615
L78560 75559
L78588 75503
L78644 75475
L78785 75475
L78841 75447
" />
<path d="M79122 75700
L79122 75306
" />
<path d="M79122 75419
L79150 75362
L79178 75334
L79235 75306
L79291 75306
" />
<path d="M79741 75700
L79741 75109
" />
<path d="M79741 75672
L79685 75700
L79572 75700
L79516 75672
L79488 75643
L79460 75587
L79460 75419
L79488 75362
L79516 75334
L79572 75306
L79685 75306
L79741 75334
" />
<path d="M80022 75643
L80050 75672
L80022 75700
L79994 75672
L80022 75643
L80022 75700
" />
<path d="M80303 75700
L80303 75109
" />
<path d="M80359 75475
L80528 75700
" />
<path d="M80528 75306
L80303 75531
" />
<path d="M80781 75700
L80781 75306
" />
<path d="M80781 75109
L80753 75137
L80781 75165
L80809 75137
L80781 75109
L80781 75165
" />
<path d="M81316 75672
L81259 75700
L81147 75700
L81091 75672
L81062 75643
L81034 75587
L81034 75419
L81062 75362
L81091 75334
L81147 75306
L81259 75306
L81316 75334
" />
<path d="M81822 75700
L81822 75390
L81794 75334
L81737 75306
L81625 75306
L81569 75334
" />
<path d="M81822 75672
L81766 75700
L81625 75700
L81569 75672
L81541 75615
L81541 75559
L81569 75503
L81625 75475
L81766 75475
L81822 75447
" />
<path d="M82356 75700
L82356 75109
" />
<path d="M82356 75672
L82300 75700
L82187 75700
L82131 75672
L82103 75643
L82075 75587
L82075 75419
L82103 75362
L82131 75334
L82187 75306
L82300 75306
L82356 75334
" />
<path d="M82497 75756
L82947 75756
" />
<path d="M83087 75306
L83087 75897
" />
<path d="M83087 75334
L83143 75306
L83256 75306
L83312 75334
L83340 75362
L83368 75419
L83368 75587
L83340 75643
L83312 75672
L83256 75700
L83143 75700
L83087 75672
" />
<path d="M83875 75672
L83818 75700
L83706 75700
L83650 75672
L83622 75643
L83593 75587
L83593 75419
L83622 75362
L83650 75334
L83706 75306
L83818 75306
L83875 75334
" />
<path d="M84128 75700
L84128 75109
" />
<path d="M84128 75334
L84184 75306
L84296 75306
L84353 75334
L84381 75362
L84409 75419
L84409 75587
L84381 75643
L84353 75672
L84296 75700
L84184 75700
L84128 75672
" />
</g>
<g style="fill:#000000; fill-opacity:0.0; 
stroke:#000000; stroke-width:39.3701; stroke-opacity:1; 
stroke-linecap:round; stroke-linejoin:round;">
</g>
<g style="fill:#000000; fill-opacity:0.0; 
stroke:#000000; stroke-width:59.0551; stroke-opacity:1; 
stroke-linecap:round; stroke-linejoin:round;">
<path d="M62755 73779
L105275 73779
" />
</g>
<g style="fill:#000000; fill-opacity:0.0; 
stroke:#000000; stroke-width:39.3701; stroke-opacity:1; 
stroke-linecap:round; stroke-linejoin:round;">
</g>
<g style="fill:#000000; fill-opacity:0.0; 
stroke:#000000; stroke-width:59.0551; stroke-opacity:1; 
stroke-linecap:round; stroke-linejoin:round;">
<path d="M63262 74609
L63346 74637
L63487 74637
L63543 74609
L63571 74580
L63599 74524
L63599 74468
L63571 74412
L63543 74384
L63487 74356
L63374 74327
L63318 74299
L63290 74271
L63262 74215
L63262 74159
L63290 74102
L63318 74074
L63374 74046
L63515 74046
L63599 74074
" />
<path d="M63852 74637
L63852 74046
" />
<path d="M64105 74637
L64105 74327
L64077 74271
L64021 74243
L63937 74243
L63880 74271
L63852 74299
" />
<path d="M64611 74609
L64555 74637
L64443 74637
L64386 74609
L64358 74552
L64358 74327
L64386 74271
L64443 74243
L64555 74243
L64611 74271
L64640 74327
L64640 74384
L64358 74440
" />
<path d="M65118 74609
L65061 74637
L64949 74637
L64893 74609
L64865 74552
L64865 74327
L64893 74271
L64949 74243
L65061 74243
L65118 74271
L65146 74327
L65146 74384
L64865 74440
" />
<path d="M65314 74243
L65539 74243
" />
<path d="M65399 74046
L65399 74552
L65427 74609
L65483 74637
L65539 74637
" />
<path d="M65736 74580
L65764 74609
L65736 74637
L65708 74609
L65736 74580
L65736 74637
" />
<path d="M65736 74271
L65764 74299
L65736 74327
L65708 74299
L65736 74271
L65736 74327
" />
</g>
<g style="fill:#000000; fill-opacity:0.0; 
stroke:#000000; stroke-width:39.3701; stroke-opacity:1; 
stroke-linecap:round; stroke-linejoin:round;">
</g>
<g style="fill:#000000; fill-opacity:0.0; 
stroke:#000000; stroke-width:118.11; stroke-opacity:1; 
stroke-linecap:round; stroke-linejoin:round;">
<path d="M63627 73456
L63430 73174
" />
<path d="M63290 73456
L63290 72865
L63515 72865
L63571 72893
L63599 72921
L63627 72978
L63627 73062
L63599 73118
L63571 73146
L63515 73174
L63290 73174
" />
<path d="M63824 73062
L63965 73456
" />
<path d="M64105 73062
L63965 73456
L63908 73596
L63880 73624
L63824 73652
" />
<path d="M64583 73456
L64583 73146
L64555 73090
L64499 73062
L64386 73062
L64330 73090
" />
<path d="M64583 73428
L64527 73456
L64386 73456
L64330 73428
L64302 73371
L64302 73315
L64330 73259
L64386 73231
L64527 73231
L64583 73203
" />
<path d="M64865 73062
L64865 73456
" />
<path d="M64865 73118
L64893 73090
L64949 73062
L65033 73062
L65089 73090
L65118 73146
L65118 73456
" />
<path d="M66046 73146
L65849 73146
" />
<path d="M65849 73456
L65849 72865
L66130 72865
" />
<path d="M66439 73456
L66383 73428
L66355 73399
L66327 73343
L66327 73174
L66355 73118
L66383 73090
L66439 73062
L66524 73062
L66580 73090
L66608 73118
L66636 73174
L66636 73343
L66608 73399
L66580 73428
L66524 73456
L66439 73456
" />
<path d="M66889 73456
L66889 72865
" />
<path d="M66889 73090
L66946 73062
L67058 73062
L67114 73090
L67142 73118
L67170 73174
L67170 73343
L67142 73399
L67114 73428
L67058 73456
L66946 73456
L66889 73428
" />
<path d="M67649 73428
L67592 73456
L67480 73456
L67424 73428
L67395 73371
L67395 73146
L67424 73090
L67480 73062
L67592 73062
L67649 73090
L67677 73146
L67677 73203
L67395 73259
" />
<path d="M68014 73456
L67958 73428
L67930 73371
L67930 72865
" />
</g>
<g style="fill:#000000; fill-opacity:0.0; 
stroke:#000000; stroke-width:39.3701; stroke-opacity:1; 
stroke-linecap:round; stroke-linejoin:round;">
</g>
<g style="fill:#000000; fill-opacity:0.0; 
stroke:#000000; stroke-width:59.0551; stroke-opacity:1; 
stroke-linecap:round; stroke-linejoin:round;">
<path d="M70629 77716
L70629 78897
" />
</g>
<g style="fill:#000000; fill-opacity:0.0; 
stroke:#000000; stroke-width:39.3701; stroke-opacity:1; 
stroke-linecap:round; stroke-linejoin:round;">
</g>
<g style="fill:#000000; fill-opacity:0.0; 
stroke:#000000; stroke-width:59.0551; stroke-opacity:1; 
stroke-linecap:round; stroke-linejoin:round;">
<path d="M95826 77716
L95826 80275
" />
</g>
<g style="fill:#000000; fill-opacity:0.0; 
stroke:#000000; stroke-width:39.3701; stroke-opacity:1; 
stroke-linecap:round; stroke-linejoin:round;">
<path d="M21803 51417
L10039 51417
" />
<path d="M10039 51417
L10039 15984
" />
<path d="M21803 53779
L28188 53779
" />
<path d="M21803 53779
L21803 51417
" />
<path d="M43110 15984
L43110 51417
" />
<path d="M10078 15984
L43110 15984
" />
<path d="M43110 51417
L31417 51417
" />
<path d="M31429 53779
L31429 51413
" />
<path d="M29133 53779
L31429 53779
" />
<path d="M29133 51732
L29133 53779
" />
<path d="M29133.9 51732.3 A472.441 472.441 0.0 0 0 28189 51732.3 " />
<path d="M28188 53779
L28188 51692
" />
</g>
<g style="fill:#000000; fill-opacity:0.0; 
stroke:#000000; stroke-width:0; stroke-opacity:1; 
stroke-linecap:round; stroke-linejoin:round;">
</g>
<g style="fill:#000000; fill-opacity:1.0; 
stroke:#000000; stroke-width:0; stroke-opacity:1; 
stroke-linecap:round; stroke-linejoin:round;">
<polyline style="fill-rule:evenodd;"
points="21964,40273
21964,41073
21364,41073
21364,40273
21964,40273
" /> 
<polyline style="fill-rule:evenodd;"
points="20964,40273
20964,41073
20364,41073
20364,40273
20964,40273
" /> 
<polyline style="fill-rule:evenodd;"
points="19964,40273
19964,41073
19364,41073
19364,40273
19964,40273
" /> 
<polyline style="fill-rule:evenodd;"
points="18964,40273
18964,41073
18364,41073
18364,40273
18964,40273
" /> 
<polyline style="fill-rule:evenodd;"
points="18964,37273
18964,38073
18364,38073
18364,37273
18964,37273
" /> 
<polyline style="fill-rule:evenodd;"
points="19964,37273
19964,38073
19364,38073
19364,37273
19964,37273
" /> 
<polyline style="fill-rule:evenodd;"
points="20964,37273
20964,38073
20364,38073
20364,37273
20964,37273
" /> 
<polyline style="fill-rule:evenodd;"
points="21964,37273
21964,38073
21364,38073
21364,37273
21964,37273
" /> 
<polyline style="fill-rule:evenodd;"
points="26420,42516
25908,42516
25908,42240
26420,42240
26420,42516
" /> 
<polyline style="fill-rule:evenodd;"
points="26420,41768
25908,41768
25908,41492
26420,41492
26420,41768
" /> 
<polyline style="fill-rule:evenodd;"
points="16446,20187
14970,20187
14970,19183
16446,19183
16446,20187
" /> 
<polyline style="fill-rule:evenodd;"
points="16446,18061
14970,18061
14970,17057
16446,17057
16446,18061
" /> 
<polyline style="fill-rule:evenodd;"
points="39964,45935
39964,46735
39364,46735
39364,45935
39964,45935
" /> 
<polyline style="fill-rule:evenodd;"
points="38964,45935
38964,46735
38364,46735
38364,45935
38964,45935
" /> 
<polyline style="fill-rule:evenodd;"
points="37964,45935
37964,46735
37364,46735
37364,45935
37964,45935
" /> 
<polyline style="fill-rule:evenodd;"
points="36964,45935
36964,46735
36364,46735
36364,45935
36964,45935
" /> 
<polyline style="fill-rule:evenodd;"
points="36964,42935
36964,43735
36364,43735
36364,42935
36964,42935
" /> 
<polyline style="fill-rule:evenodd;"
points="37964,42935
37964,43735
37364,43735
37364,42935
37964,42935
" /> 
<polyline style="fill-rule:evenodd;"
points="38964,42935
38964,43735
38364,43735
38364,42935
38964,42935
" /> 
<polyline style="fill-rule:evenodd;"
points="39964,42935
39964,43735
39364,43735
39364,42935
39964,42935
" /> 
<polyline style="fill-rule:evenodd;"
points="39964,40273
39964,41073
39364,41073
39364,40273
39964,40273
" /> 
<polyline style="fill-rule:evenodd;"
points="38964,40273
38964,41073
38364,41073
38364,40273
38964,40273
" /> 
<polyline style="fill-rule:evenodd;"
points="37964,40273
37964,41073
37364,41073
37364,40273
37964,40273
" /> 
<polyline style="fill-rule:evenodd;"
points="36964,40273
36964,41073
36364,41073
36364,40273
36964,40273
" /> 
<polyline style="fill-rule:evenodd;"
points="36964,37273
36964,38073
36364,38073
36364,37273
36964,37273
" /> 
<polyline style="fill-rule:evenodd;"
points="37964,37273
37964,38073
37364,38073
37364,37273
37964,37273
" /> 
<polyline style="fill-rule:evenodd;"
points="38964,37273
38964,38073
38364,38073
38364,37273
38964,37273
" /> 
<polyline style="fill-rule:evenodd;"
points="39964,37273
39964,38073
39364,38073
39364,37273
39964,37273
" /> 
<polyline style="fill-rule:evenodd;"
points="39964,34533
39964,35333
39364,35333
39364,34533
39964,34533
" /> 
<polyline style="fill-rule:evenodd;"
points="38964,34533
38964,35333
38364,35333
38364,34533
38964,34533
" /> 
<polyline style="fill-rule:evenodd;"
points="37964,34533
37964,35333
37364,35333
37364,34533
37964,34533
" /> 
<polyline style="fill-rule:evenodd;"
points="36964,34533
36964,35333
36364,35333
36364,34533
36964,34533
" /> 
<polyline style="fill-rule:evenodd;"
points="36964,31533
36964,32333
36364,32333
36364,31533
36964,31533
" /> 
<polyline style="fill-rule:evenodd;"
points="37964,31533
37964,32333
37364,32333
37364,31533
37964,31533
" /> 
<polyline style="fill-rule:evenodd;"
points="38964,31533
38964,32333
38364,32333
38364,31533
38964,31533
" /> 
<polyline style="fill-rule:evenodd;"
points="39964,31533
39964,32333
39364,32333
39364,31533
39964,31533
" /> 
<polyline style="fill-rule:evenodd;"
points="39964,28832
39964,29632
39364,29632
39364,28832
39964,28832
" /> 
<polyline style="fill-rule:evenodd;"
points="38964,28832
38964,29632
38364,29632
38364,28832
38964,28832
" /> 
<polyline style="fill-rule:evenodd;"
points="37964,28832
37964,29632
37364,29632
37364,28832
37964,28832
" /> 
<polyline style="fill-rule:evenodd;"
points="36964,28832
36964,29632
36364,29632
36364,28832
36964,28832
" /> 
<polyline style="fill-rule:evenodd;"
points="36964,25832
36964,26632
36364,26632
36364,25832
36964,25832
" /> 
<polyline style="fill-rule:evenodd;"
points="37964,25832
37964,26632
37364,26632
37364,25832
37964,25832
" /> 
<polyline style="fill-rule:evenodd;"
points="38964,25832
38964,26632
38364,26632
38364,25832
38964,25832
" /> 
<polyline style="fill-rule:evenodd;"
points="39964,25832
39964,26632
39364,26632
39364,25832
39964,25832
" /> 
<polyline style="fill-rule:evenodd;"
points="33964,45935
33964,46735
33364,46735
33364,45935
33964,45935
" /> 
<polyline style="fill-rule:evenodd;"
points="32964,45935
32964,46735
32364,46735
32364,45935
32964,45935
" /> 
<polyline style="fill-rule:evenodd;"
points="31964,45935
31964,46735
31364,46735
31364,45935
31964,45935
" /> 
<polyline style="fill-rule:evenodd;"
points="30964,45935
30964,46735
30364,46735
30364,45935
30964,45935
" /> 
<polyline style="fill-rule:evenodd;"
points="30964,42935
30964,43735
30364,43735
30364,42935
30964,42935
" /> 
<polyline style="fill-rule:evenodd;"
points="31964,42935
31964,43735
31364,43735
31364,42935
31964,42935
" /> 
<polyline style="fill-rule:evenodd;"
points="32964,42935
32964,43735
32364,43735
32364,42935
32964,42935
" /> 
<polyline style="fill-rule:evenodd;"
points="33964,42935
33964,43735
33364,43735
33364,42935
33964,42935
" /> 
<polyline style="fill-rule:evenodd;"
points="33964,40273
33964,41073
33364,41073
33364,40273
33964,40273
" /> 
<polyline style="fill-rule:evenodd;"
points="32964,40273
32964,41073
32364,41073
32364,40273
32964,40273
" /> 
<polyline style="fill-rule:evenodd;"
points="31964,40273
31964,41073
31364,41073
31364,40273
31964,40273
" /> 
<polyline style="fill-rule:evenodd;"
points="30964,40273
30964,41073
30364,41073
30364,40273
30964,40273
" /> 
<polyline style="fill-rule:evenodd;"
points="30964,37273
30964,38073
30364,38073
30364,37273
30964,37273
" /> 
<polyline style="fill-rule:evenodd;"
points="31964,37273
31964,38073
31364,38073
31364,37273
31964,37273
" /> 
<polyline style="fill-rule:evenodd;"
points="32964,37273
32964,38073
32364,38073
32364,37273
32964,37273
" /> 
<polyline style="fill-rule:evenodd;"
points="33964,37273
33964,38073
33364,38073
33364,37273
33964,37273
" /> 
<polyline style="fill-rule:evenodd;"
points="33964,34533
33964,35333
33364,35333
33364,34533
33964,34533
" /> 
<polyline style="fill-rule:evenodd;"
points="32964,34533
32964,35333
32364,35333
32364,34533
32964,34533
" /> 
<polyline style="fill-rule:evenodd;"
points="31964,34533
31964,35333
31364,35333
31364,34533
31964,34533
" /> 
<polyline style="fill-rule:evenodd;"
points="30964,34533
30964,35333
30364,35333
30364,34533
30964,34533
" /> 
<polyline style="fill-rule:evenodd;"
points="30964,31533
30964,32333
30364,32333
30364,31533
30964,31533
" /> 
<polyline style="fill-rule:evenodd;"
points="31964,31533
31964,32333
31364,32333
31364,31533
31964,31533
" /> 
<polyline style="fill-rule:evenodd;"
points="32964,31533
32964,32333
32364,32333
32364,31533
32964,31533
" /> 
<polyline style="fill-rule:evenodd;"
points="33964,31533
33964,32333
33364,32333
33364,31533
33964,31533
" /> 
<polyline style="fill-rule:evenodd;"
points="33964,28832
33964,29632
33364,29632
33364,28832
33964,28832
" /> 
<polyline style="fill-rule:evenodd;"
points="32964,28832
32964,29632
32364,29632
32364,28832
32964,28832
" /> 
<polyline style="fill-rule:evenodd;"
points="31964,28832
31964,29632
31364,29632
31364,28832
31964,28832
" /> 
<polyline style="fill-rule:evenodd;"
points="30964,28832
30964,29632
30364,29632
30364,28832
30964,28832
" /> 
<polyline style="fill-rule:evenodd;"
points="30964,25832
30964,26632
30364,26632
30364,25832
30964,25832
" /> 
<polyline style="fill-rule:evenodd;"
points="31964,25832
31964,26632
31364,26632
31364,25832
31964,25832
" /> 
<polyline style="fill-rule:evenodd;"
points="32964,25832
32964,26632
32364,26632
32364,25832
32964,25832
" /> 
<polyline style="fill-rule:evenodd;"
points="33964,25832
33964,26632
33364,26632
33364,25832
33964,25832
" /> 
<polyline style="fill-rule:evenodd;"
points="27964,45935
27964,46735
27364,46735
27364,45935
27964,45935
" /> 
<polyline style="fill-rule:evenodd;"
points="26964,45935
26964,46735
26364,46735
26364,45935
26964,45935
" /> 
<polyline style="fill-rule:evenodd;"
points="25964,45935
25964,46735
25364,46735
25364,45935
25964,45935
" /> 
<polyline style="fill-rule:evenodd;"
points="24964,45935
24964,46735
24364,46735
24364,45935
24964,45935
" /> 
<polyline style="fill-rule:evenodd;"
points="24964,42935
24964,43735
24364,43735
24364,42935
24964,42935
" /> 
<polyline style="fill-rule:evenodd;"
points="25964,42935
25964,43735
25364,43735
25364,42935
25964,42935
" /> 
<polyline style="fill-rule:evenodd;"
points="26964,42935
26964,43735
26364,43735
26364,42935
26964,42935
" /> 
<polyline style="fill-rule:evenodd;"
points="27964,42935
27964,43735
27364,43735
27364,42935
27964,42935
" /> 
<polyline style="fill-rule:evenodd;"
points="27964,40273
27964,41073
27364,41073
27364,40273
27964,40273
" /> 
<polyline style="fill-rule:evenodd;"
points="26964,40273
26964,41073
26364,41073
26364,40273
26964,40273
" /> 
<polyline style="fill-rule:evenodd;"
points="25964,40273
25964,41073
25364,41073
25364,40273
25964,40273
" /> 
<polyline style="fill-rule:evenodd;"
points="24964,40273
24964,41073
24364,41073
24364,40273
24964,40273
" /> 
<polyline style="fill-rule:evenodd;"
points="24964,37273
24964,38073
24364,38073
24364,37273
24964,37273
" /> 
<polyline style="fill-rule:evenodd;"
points="25964,37273
25964,38073
25364,38073
25364,37273
25964,37273
" /> 
<polyline style="fill-rule:evenodd;"
points="26964,37273
26964,38073
26364,38073
26364,37273
26964,37273
" /> 
<polyline style="fill-rule:evenodd;"
points="27964,37273
27964,38073
27364,38073
27364,37273
27964,37273
" /> 
<polyline style="fill-rule:evenodd;"
points="27964,34533
27964,35333
27364,35333
27364,34533
27964,34533
" /> 
<polyline style="fill-rule:evenodd;"
points="26964,34533
26964,35333
26364,35333
26364,34533
26964,34533
" /> 
<polyline style="fill-rule:evenodd;"
points="25964,34533
25964,35333
25364,35333
25364,34533
25964,34533
" /> 
<polyline style="fill-rule:evenodd;"
points="24964,34533
24964,35333
24364,35333
24364,34533
24964,34533
" /> 
<polyline style="fill-rule:evenodd;"
points="24964,31533
24964,32333
24364,32333
24364,31533
24964,31533
" /> 
<polyline style="fill-rule:evenodd;"
points="25964,31533
25964,32333
25364,32333
25364,31533
25964,31533
" /> 
<polyline style="fill-rule:evenodd;"
points="26964,31533
26964,32333
26364,32333
26364,31533
26964,31533
" /> 
<polyline style="fill-rule:evenodd;"
points="27964,31533
27964,32333
27364,32333
27364,31533
27964,31533
" /> 
<polyline style="fill-rule:evenodd;"
points="27964,28832
27964,29632
27364,29632
27364,28832
27964,28832
" /> 
<polyline style="fill-rule:evenodd;"
points="26964,28832
26964,29632
26364,29632
26364,28832
26964,28832
" /> 
<polyline style="fill-rule:evenodd;"
points="25964,28832
25964,29632
25364,29632
25364,28832
25964,28832
" /> 
<polyline style="fill-rule:evenodd;"
points="24964,28832
24964,29632
24364,29632
24364,28832
24964,28832
" /> 
<polyline style="fill-rule:evenodd;"
points="24964,25832
24964,26632
24364,26632
24364,25832
24964,25832
" /> 
<polyline style="fill-rule:evenodd;"
points="25964,25832
25964,26632
25364,26632
25364,25832
25964,25832
" /> 
<polyline style="fill-rule:evenodd;"
points="26964,25832
26964,26632
26364,26632
26364,25832
26964,25832
" /> 
<polyline style="fill-rule:evenodd;"
points="27964,25832
27964,26632
27364,26632
27364,25832
27964,25832
" /> 
<polyline style="fill-rule:evenodd;"
points="21964,45935
21964,46735
21364,46735
21364,45935
21964,45935
" /> 
<polyline style="fill-rule:evenodd;"
points="20964,45935
20964,46735
20364,46735
20364,45935
20964,45935
" /> 
<polyline style="fill-rule:evenodd;"
points="19964,45935
19964,46735
19364,46735
19364,45935
19964,45935
" /> 
<polyline style="fill-rule:evenodd;"
points="18964,45935
18964,46735
18364,46735
18364,45935
18964,45935
" /> 
<polyline style="fill-rule:evenodd;"
points="18964,42935
18964,43735
18364,43735
18364,42935
18964,42935
" /> 
<polyline style="fill-rule:evenodd;"
points="19964,42935
19964,43735
19364,43735
19364,42935
19964,42935
" /> 
<polyline style="fill-rule:evenodd;"
points="20964,42935
20964,43735
20364,43735
20364,42935
20964,42935
" /> 
<polyline style="fill-rule:evenodd;"
points="21964,42935
21964,43735
21364,43735
21364,42935
21964,42935
" /> 
<polyline style="fill-rule:evenodd;"
points="21964,34533
21964,35333
21364,35333
21364,34533
21964,34533
" /> 
<polyline style="fill-rule:evenodd;"
points="20964,34533
20964,35333
20364,35333
20364,34533
20964,34533
" /> 
<polyline style="fill-rule:evenodd;"
points="19964,34533
19964,35333
19364,35333
19364,34533
19964,34533
" /> 
<polyline style="fill-rule:evenodd;"
points="18964,34533
18964,35333
18364,35333
18364,34533
18964,34533
" /> 
<polyline style="fill-rule:evenodd;"
points="18964,31533
18964,32333
18364,32333
18364,31533
18964,31533
" /> 
<polyline style="fill-rule:evenodd;"
points="19964,31533
19964,32333
19364,32333
19364,31533
19964,31533
" /> 
<polyline style="fill-rule:evenodd;"
points="20964,31533
20964,32333
20364,32333
20364,31533
20964,31533
" /> 
<polyline style="fill-rule:evenodd;"
points="21964,31533
21964,32333
21364,32333
21364,31533
21964,31533
" /> 
<polyline style="fill-rule:evenodd;"
points="21964,28832
21964,29632
21364,29632
21364,28832
21964,28832
" /> 
<polyline style="fill-rule:evenodd;"
points="20964,28832
20964,29632
20364,29632
20364,28832
20964,28832
" /> 
<polyline style="fill-rule:evenodd;"
points="19964,28832
19964,29632
19364,29632
19364,28832
19964,28832
" /> 
<polyline style="fill-rule:evenodd;"
points="18964,28832
18964,29632
18364,29632
18364,28832
18964,28832
" /> 
<polyline style="fill-rule:evenodd;"
points="18964,25832
18964,26632
18364,26632
18364,25832
18964,25832
" /> 
<polyline style="fill-rule:evenodd;"
points="19964,25832
19964,26632
19364,26632
19364,25832
19964,25832
" /> 
<polyline style="fill-rule:evenodd;"
points="20964,25832
20964,26632
20364,26632
20364,25832
20964,25832
" /> 
<polyline style="fill-rule:evenodd;"
points="21964,25832
21964,26632
21364,26632
21364,25832
21964,25832
" /> 
<polyline style="fill-rule:evenodd;"
points="15964,45935
15964,46735
15364,46735
15364,45935
15964,45935
" /> 
<polyline style="fill-rule:evenodd;"
points="14964,45935
14964,46735
14364,46735
14364,45935
14964,45935
" /> 
<polyline style="fill-rule:evenodd;"
points="13964,45935
13964,46735
13364,46735
13364,45935
13964,45935
" /> 
<polyline style="fill-rule:evenodd;"
points="12964,45935
12964,46735
12364,46735
12364,45935
12964,45935
" /> 
<polyline style="fill-rule:evenodd;"
points="12964,42935
12964,43735
12364,43735
12364,42935
12964,42935
" /> 
<polyline style="fill-rule:evenodd;"
points="13964,42935
13964,43735
13364,43735
13364,42935
13964,42935
" /> 
<polyline style="fill-rule:evenodd;"
points="14964,42935
14964,43735
14364,43735
14364,42935
14964,42935
" /> 
<polyline style="fill-rule:evenodd;"
points="15964,42935
15964,43735
15364,43735
15364,42935
15964,42935
" /> 
<polyline style="fill-rule:evenodd;"
points="15964,40273
15964,41073
15364,41073
15364,40273
15964,40273
" /> 
<polyline style="fill-rule:evenodd;"
points="14964,40273
14964,41073
14364,41073
14364,40273
14964,40273
" /> 
<polyline style="fill-rule:evenodd;"
points="13964,40273
13964,41073
13364,41073
13364,40273
13964,40273
" /> 
<polyline style="fill-rule:evenodd;"
points="12964,40273
12964,41073
12364,41073
12364,40273
12964,40273
" /> 
<polyline style="fill-rule:evenodd;"
points="12964,37273
12964,38073
12364,38073
12364,37273
12964,37273
" /> 
<polyline style="fill-rule:evenodd;"
points="13964,37273
13964,38073
13364,38073
13364,37273
13964,37273
" /> 
<polyline style="fill-rule:evenodd;"
points="14964,37273
14964,38073
14364,38073
14364,37273
14964,37273
" /> 
<polyline style="fill-rule:evenodd;"
points="15964,37273
15964,38073
15364,38073
15364,37273
15964,37273
" /> 
<polyline style="fill-rule:evenodd;"
points="15964,34533
15964,35333
15364,35333
15364,34533
15964,34533
" /> 
<polyline style="fill-rule:evenodd;"
points="14964,34533
14964,35333
14364,35333
14364,34533
14964,34533
" /> 
<polyline style="fill-rule:evenodd;"
points="13964,34533
13964,35333
13364,35333
13364,34533
13964,34533
" /> 
<polyline style="fill-rule:evenodd;"
points="12964,34533
12964,35333
12364,35333
12364,34533
12964,34533
" /> 
<polyline style="fill-rule:evenodd;"
points="12964,31533
12964,32333
12364,32333
12364,31533
12964,31533
" /> 
<polyline style="fill-rule:evenodd;"
points="13964,31533
13964,32333
13364,32333
13364,31533
13964,31533
" /> 
<polyline style="fill-rule:evenodd;"
points="14964,31533
14964,32333
14364,32333
14364,31533
14964,31533
" /> 
<polyline style="fill-rule:evenodd;"
points="15964,31533
15964,32333
15364,32333
15364,31533
15964,31533
" /> 
<polyline style="fill-rule:evenodd;"
points="15964,28832
15964,29632
15364,29632
15364,28832
15964,28832
" /> 
<polyline style="fill-rule:evenodd;"
points="14964,28832
14964,29632
14364,29632
14364,28832
14964,28832
" /> 
<polyline style="fill-rule:evenodd;"
points="13964,28832
13964,29632
13364,29632
13364,28832
13964,28832
" /> 
<polyline style="fill-rule:evenodd;"
points="12964,28832
12964,29632
12364,29632
12364,28832
12964,28832
" /> 
<polyline style="fill-rule:evenodd;"
points="12964,25832
12964,26632
12364,26632
12364,25832
12964,25832
" /> 
<polyline style="fill-rule:evenodd;"
points="13964,25832
13964,26632
13364,26632
13364,25832
13964,25832
" /> 
<polyline style="fill-rule:evenodd;"
points="14964,25832
14964,26632
14364,26632
14364,25832
14964,25832
" /> 
<polyline style="fill-rule:evenodd;"
points="15964,25832
15964,26632
15364,26632
15364,25832
15964,25832
" /> 
<polyline style="fill-rule:evenodd;"
points="40014,24557
40014,25007
39814,25007
39814,24557
40014,24557
" /> 
<polyline style="fill-rule:evenodd;"
points="39514,24557
39514,25007
39314,25007
39314,24557
39514,24557
" /> 
<polyline style="fill-rule:evenodd;"
points="39014,24557
39014,25007
38814,25007
38814,24557
39014,24557
" /> 
<polyline style="fill-rule:evenodd;"
points="38514,24557
38514,25007
38314,25007
38314,24557
38514,24557
" /> 
<polyline style="fill-rule:evenodd;"
points="38014,24557
38014,25007
37814,25007
37814,24557
38014,24557
" /> 
<polyline style="fill-rule:evenodd;"
points="37514,24557
37514,25007
37314,25007
37314,24557
37514,24557
" /> 
<polyline style="fill-rule:evenodd;"
points="37014,24557
37014,25007
36814,25007
36814,24557
37014,24557
" /> 
<polyline style="fill-rule:evenodd;"
points="36514,24557
36514,25007
36314,25007
36314,24557
36514,24557
" /> 
<polyline style="fill-rule:evenodd;"
points="36514,22557
36514,23007
36314,23007
36314,22557
36514,22557
" /> 
<polyline style="fill-rule:evenodd;"
points="37014,22557
37014,23007
36814,23007
36814,22557
37014,22557
" /> 
<polyline style="fill-rule:evenodd;"
points="37514,22557
37514,23007
37314,23007
37314,22557
37514,22557
" /> 
<polyline style="fill-rule:evenodd;"
points="38014,22557
38014,23007
37814,23007
37814,22557
38014,22557
" /> 
<polyline style="fill-rule:evenodd;"
points="38514,22557
38514,23007
38314,23007
38314,22557
38514,22557
" /> 
<polyline style="fill-rule:evenodd;"
points="39014,22557
39014,23007
38814,23007
38814,22557
39014,22557
" /> 
<polyline style="fill-rule:evenodd;"
points="39514,22557
39514,23007
39314,23007
39314,22557
39514,22557
" /> 
<polyline style="fill-rule:evenodd;"
points="40014,22557
40014,23007
39814,23007
39814,22557
40014,22557
" /> 
<polyline style="fill-rule:evenodd;"
points="34014,24607
34014,25057
33814,25057
33814,24607
34014,24607
" /> 
<polyline style="fill-rule:evenodd;"
points="33514,24607
33514,25057
33314,25057
33314,24607
33514,24607
" /> 
<polyline style="fill-rule:evenodd;"
points="33014,24607
33014,25057
32814,25057
32814,24607
33014,24607
" /> 
<polyline style="fill-rule:evenodd;"
points="32514,24607
32514,25057
32314,25057
32314,24607
32514,24607
" /> 
<polyline style="fill-rule:evenodd;"
points="32014,24607
32014,25057
31814,25057
31814,24607
32014,24607
" /> 
<polyline style="fill-rule:evenodd;"
points="31514,24607
31514,25057
31314,25057
31314,24607
31514,24607
" /> 
<polyline style="fill-rule:evenodd;"
points="31014,24607
31014,25057
30814,25057
30814,24607
31014,24607
" /> 
<polyline style="fill-rule:evenodd;"
points="30514,24607
30514,25057
30314,25057
30314,24607
30514,24607
" /> 
<polyline style="fill-rule:evenodd;"
points="30514,22607
30514,23057
30314,23057
30314,22607
30514,22607
" /> 
<polyline style="fill-rule:evenodd;"
points="31014,22607
31014,23057
30814,23057
30814,22607
31014,22607
" /> 
<polyline style="fill-rule:evenodd;"
points="31514,22607
31514,23057
31314,23057
31314,22607
31514,22607
" /> 
<polyline style="fill-rule:evenodd;"
points="32014,22607
32014,23057
31814,23057
31814,22607
32014,22607
" /> 
<polyline style="fill-rule:evenodd;"
points="32514,22607
32514,23057
32314,23057
32314,22607
32514,22607
" /> 
<polyline style="fill-rule:evenodd;"
points="33014,22607
33014,23057
32814,23057
32814,22607
33014,22607
" /> 
<polyline style="fill-rule:evenodd;"
points="33514,22607
33514,23057
33314,23057
33314,22607
33514,22607
" /> 
<polyline style="fill-rule:evenodd;"
points="34014,22607
34014,23057
33814,23057
33814,22607
34014,22607
" /> 
<polyline style="fill-rule:evenodd;"
points="28014,24607
28014,25057
27814,25057
27814,24607
28014,24607
" /> 
<polyline style="fill-rule:evenodd;"
points="27514,24607
27514,25057
27314,25057
27314,24607
27514,24607
" /> 
<polyline style="fill-rule:evenodd;"
points="27014,24607
27014,25057
26814,25057
26814,24607
27014,24607
" /> 
<polyline style="fill-rule:evenodd;"
points="26514,24607
26514,25057
26314,25057
26314,24607
26514,24607
" /> 
<polyline style="fill-rule:evenodd;"
points="26014,24607
26014,25057
25814,25057
25814,24607
26014,24607
" /> 
<polyline style="fill-rule:evenodd;"
points="25514,24607
25514,25057
25314,25057
25314,24607
25514,24607
" /> 
<polyline style="fill-rule:evenodd;"
points="25014,24607
25014,25057
24814,25057
24814,24607
25014,24607
" /> 
<polyline style="fill-rule:evenodd;"
points="24514,24607
24514,25057
24314,25057
24314,24607
24514,24607
" /> 
<polyline style="fill-rule:evenodd;"
points="24514,22607
24514,23057
24314,23057
24314,22607
24514,22607
" /> 
<polyline style="fill-rule:evenodd;"
points="25014,22607
25014,23057
24814,23057
24814,22607
25014,22607
" /> 
<polyline style="fill-rule:evenodd;"
points="25514,22607
25514,23057
25314,23057
25314,22607
25514,22607
" /> 
<polyline style="fill-rule:evenodd;"
points="26014,22607
26014,23057
25814,23057
25814,22607
26014,22607
" /> 
<polyline style="fill-rule:evenodd;"
points="26514,22607
26514,23057
26314,23057
26314,22607
26514,22607
" /> 
<polyline style="fill-rule:evenodd;"
points="27014,22607
27014,23057
26814,23057
26814,22607
27014,22607
" /> 
<polyline style="fill-rule:evenodd;"
points="27514,22607
27514,23057
27314,23057
27314,22607
27514,22607
" /> 
<polyline style="fill-rule:evenodd;"
points="28014,22607
28014,23057
27814,23057
27814,22607
28014,22607
" /> 
<polyline style="fill-rule:evenodd;"
points="22014,24607
22014,25057
21814,25057
21814,24607
22014,24607
" /> 
<polyline style="fill-rule:evenodd;"
points="21514,24607
21514,25057
21314,25057
21314,24607
21514,24607
" /> 
<polyline style="fill-rule:evenodd;"
points="21014,24607
21014,25057
20814,25057
20814,24607
21014,24607
" /> 
<polyline style="fill-rule:evenodd;"
points="20514,24607
20514,25057
20314,25057
20314,24607
20514,24607
" /> 
<polyline style="fill-rule:evenodd;"
points="20014,24607
20014,25057
19814,25057
19814,24607
20014,24607
" /> 
<polyline style="fill-rule:evenodd;"
points="19514,24607
19514,25057
19314,25057
19314,24607
19514,24607
" /> 
<polyline style="fill-rule:evenodd;"
points="19014,24607
19014,25057
18814,25057
18814,24607
19014,24607
" /> 
<polyline style="fill-rule:evenodd;"
points="18514,24607
18514,25057
18314,25057
18314,24607
18514,24607
" /> 
<polyline style="fill-rule:evenodd;"
points="18514,22607
18514,23057
18314,23057
18314,22607
18514,22607
" /> 
<polyline style="fill-rule:evenodd;"
points="19014,22607
19014,23057
18814,23057
18814,22607
19014,22607
" /> 
<polyline style="fill-rule:evenodd;"
points="19514,22607
19514,23057
19314,23057
19314,22607
19514,22607
" /> 
<polyline style="fill-rule:evenodd;"
points="20014,22607
20014,23057
19814,23057
19814,22607
20014,22607
" /> 
<polyline style="fill-rule:evenodd;"
points="20514,22607
20514,23057
20314,23057
20314,22607
20514,22607
" /> 
<polyline style="fill-rule:evenodd;"
points="21014,22607
21014,23057
20814,23057
20814,22607
21014,22607
" /> 
<polyline style="fill-rule:evenodd;"
points="21514,22607
21514,23057
21314,23057
21314,22607
21514,22607
" /> 
<polyline style="fill-rule:evenodd;"
points="22014,22607
22014,23057
21814,23057
21814,22607
22014,22607
" /> 
<polyline style="fill-rule:evenodd;"
points="16014,24607
16014,25057
15814,25057
15814,24607
16014,24607
" /> 
<polyline style="fill-rule:evenodd;"
points="15514,24607
15514,25057
15314,25057
15314,24607
15514,24607
" /> 
<polyline style="fill-rule:evenodd;"
points="15014,24607
15014,25057
14814,25057
14814,24607
15014,24607
" /> 
<polyline style="fill-rule:evenodd;"
points="14514,24607
14514,25057
14314,25057
14314,24607
14514,24607
" /> 
<polyline style="fill-rule:evenodd;"
points="14014,24607
14014,25057
13814,25057
13814,24607
14014,24607
" /> 
<polyline style="fill-rule:evenodd;"
points="13514,24607
13514,25057
13314,25057
13314,24607
13514,24607
" /> 
<polyline style="fill-rule:evenodd;"
points="13014,24607
13014,25057
12814,25057
12814,24607
13014,24607
" /> 
<polyline style="fill-rule:evenodd;"
points="12514,24607
12514,25057
12314,25057
12314,24607
12514,24607
" /> 
<polyline style="fill-rule:evenodd;"
points="12514,22607
12514,23057
12314,23057
12314,22607
12514,22607
" /> 
<polyline style="fill-rule:evenodd;"
points="13014,22607
13014,23057
12814,23057
12814,22607
13014,22607
" /> 
<polyline style="fill-rule:evenodd;"
points="13514,22607
13514,23057
13314,23057
13314,22607
13514,22607
" /> 
<polyline style="fill-rule:evenodd;"
points="14014,22607
14014,23057
13814,23057
13814,22607
14014,22607
" /> 
<polyline style="fill-rule:evenodd;"
points="14514,22607
14514,23057
14314,23057
14314,22607
14514,22607
" /> 
<polyline style="fill-rule:evenodd;"
points="15014,22607
15014,23057
14814,23057
14814,22607
15014,22607
" /> 
<polyline style="fill-rule:evenodd;"
points="15514,22607
15514,23057
15314,23057
15314,22607
15514,22607
" /> 
<polyline style="fill-rule:evenodd;"
points="16014,22607
16014,23057
15814,23057
15814,22607
16014,22607
" /> 
<polyline style="fill-rule:evenodd;"
points="40433,23001
40433,22509
40826,22509
40826,23001
40433,23001
" /> 
<polyline style="fill-rule:evenodd;"
points="41220,23001
41220,22509
41614,22509
41614,23001
41220,23001
" /> 
<polyline style="fill-rule:evenodd;"
points="22480,23080
22480,22588
22874,22588
22874,23080
22480,23080
" /> 
<polyline style="fill-rule:evenodd;"
points="23267,23080
23267,22588
23661,22588
23661,23080
23267,23080
" /> 
<polyline style="fill-rule:evenodd;"
points="34409,23120
34409,22627
34803,22627
34803,23120
34409,23120
" /> 
<polyline style="fill-rule:evenodd;"
points="35196,23120
35196,22627
35590,22627
35590,23120
35196,23120
" /> 
<polyline style="fill-rule:evenodd;"
points="16456,23041
16456,22549
16850,22549
16850,23041
16456,23041
" /> 
<polyline style="fill-rule:evenodd;"
points="17244,23041
17244,22549
17637,22549
17637,23041
17244,23041
" /> 
<polyline style="fill-rule:evenodd;"
points="28464,23080
28464,22588
28858,22588
28858,23080
28464,23080
" /> 
<polyline style="fill-rule:evenodd;"
points="29251,23080
29251,22588
29645,22588
29645,23080
29251,23080
" /> 
<polyline style="fill-rule:evenodd;"
points="33740,18336
33740,18828
33346,18828
33346,18336
33740,18336
" /> 
<polyline style="fill-rule:evenodd;"
points="32952,18336
32952,18828
32559,18828
32559,18336
32952,18336
" /> 
<polyline style="fill-rule:evenodd;"
points="38460,42526
37948,42526
37948,42251
38460,42251
38460,42526
" /> 
<polyline style="fill-rule:evenodd;"
points="38460,41778
37948,41778
37948,41503
38460,41503
38460,41778
" /> 
<polyline style="fill-rule:evenodd;"
points="38420,36815
37908,36815
37908,36539
38420,36539
38420,36815
" /> 
<polyline style="fill-rule:evenodd;"
points="38420,36067
37908,36067
37908,35791
38420,35791
38420,36067
" /> 
<polyline style="fill-rule:evenodd;"
points="32420,42516
31908,42516
31908,42240
32420,42240
32420,42516
" /> 
<polyline style="fill-rule:evenodd;"
points="32420,41768
31908,41768
31908,41492
32420,41492
32420,41768
" /> 
<polyline style="fill-rule:evenodd;"
points="32420,36815
31908,36815
31908,36539
32420,36539
32420,36815
" /> 
<polyline style="fill-rule:evenodd;"
points="32420,36067
31908,36067
31908,35791
32420,35791
32420,36067
" /> 
<polyline style="fill-rule:evenodd;"
points="26420,36815
25908,36815
25908,36539
26420,36539
26420,36815
" /> 
<polyline style="fill-rule:evenodd;"
points="26420,36067
25908,36067
25908,35791
26420,35791
26420,36067
" /> 
<polyline style="fill-rule:evenodd;"
points="20420,42516
19908,42516
19908,42240
20420,42240
20420,42516
" /> 
<polyline style="fill-rule:evenodd;"
points="20420,41768
19908,41768
19908,41492
20420,41492
20420,41768
" /> 
<polyline style="fill-rule:evenodd;"
points="20420,36815
19908,36815
19908,36539
20420,36539
20420,36815
" /> 
<polyline style="fill-rule:evenodd;"
points="20420,36067
19908,36067
19908,35791
20420,35791
20420,36067
" /> 
<polyline style="fill-rule:evenodd;"
points="14625,20275
14114,20275
14114,20000
14625,20000
14625,20275
" /> 
<polyline style="fill-rule:evenodd;"
points="14625,19527
14114,19527
14114,19251
14625,19251
14625,19527
" /> 
<polyline style="fill-rule:evenodd;"
points="14420,42516
13908,42516
13908,42240
14420,42240
14420,42516
" /> 
<polyline style="fill-rule:evenodd;"
points="14420,41768
13908,41768
13908,41492
14420,41492
14420,41768
" /> 
<polyline style="fill-rule:evenodd;"
points="14420,36815
13908,36815
13908,36539
14420,36539
14420,36815
" /> 
<polyline style="fill-rule:evenodd;"
points="14420,36067
13908,36067
13908,35791
14420,35791
14420,36067
" /> 
<polyline style="fill-rule:evenodd;"
points="39408,47193
39920,47193
39920,47468
39408,47468
39408,47193
" /> 
<polyline style="fill-rule:evenodd;"
points="39408,47941
39920,47941
39920,48217
39408,48217
39408,47941
" /> 
<polyline style="fill-rule:evenodd;"
points="38420,48217
37908,48217
37908,47941
38420,47941
38420,48217
" /> 
<polyline style="fill-rule:evenodd;"
points="38420,47468
37908,47468
37908,47193
38420,47193
38420,47468
" /> 
<polyline style="fill-rule:evenodd;"
points="39448,41503
39960,41503
39960,41778
39448,41778
39448,41503
" /> 
<polyline style="fill-rule:evenodd;"
points="39448,42251
39960,42251
39960,42526
39448,42526
39448,42251
" /> 
<polyline style="fill-rule:evenodd;"
points="39408,35791
39920,35791
39920,36067
39408,36067
39408,35791
" /> 
<polyline style="fill-rule:evenodd;"
points="39408,36539
39920,36539
39920,36815
39408,36815
39408,36539
" /> 
<polyline style="fill-rule:evenodd;"
points="39408,30091
39920,30091
39920,30366
39408,30366
39408,30091
" /> 
<polyline style="fill-rule:evenodd;"
points="39408,30839
39920,30839
39920,31114
39408,31114
39408,30839
" /> 
<polyline style="fill-rule:evenodd;"
points="38420,31114
37908,31114
37908,30839
38420,30839
38420,31114
" /> 
<polyline style="fill-rule:evenodd;"
points="38420,30366
37908,30366
37908,30091
38420,30091
38420,30366
" /> 
<polyline style="fill-rule:evenodd;"
points="36920,48217
36408,48217
36408,47941
36920,47941
36920,48217
" /> 
<polyline style="fill-rule:evenodd;"
points="36920,47468
36408,47468
36408,47193
36920,47193
36920,47468
" /> 
<polyline style="fill-rule:evenodd;"
points="36920,42526
36408,42526
36408,42251
36920,42251
36920,42526
" /> 
<polyline style="fill-rule:evenodd;"
points="36920,41778
36408,41778
36408,41503
36920,41503
36920,41778
" /> 
<polyline style="fill-rule:evenodd;"
points="36920,36815
36408,36815
36408,36539
36920,36539
36920,36815
" /> 
<polyline style="fill-rule:evenodd;"
points="36920,36067
36408,36067
36408,35791
36920,35791
36920,36067
" /> 
<polyline style="fill-rule:evenodd;"
points="36920,31114
36408,31114
36408,30839
36920,30839
36920,31114
" /> 
<polyline style="fill-rule:evenodd;"
points="36920,30366
36408,30366
36408,30091
36920,30091
36920,30366
" /> 
<polyline style="fill-rule:evenodd;"
points="32420,48217
31908,48217
31908,47941
32420,47941
32420,48217
" /> 
<polyline style="fill-rule:evenodd;"
points="32420,47468
31908,47468
31908,47193
32420,47193
32420,47468
" /> 
<polyline style="fill-rule:evenodd;"
points="33408,47193
33920,47193
33920,47468
33408,47468
33408,47193
" /> 
<polyline style="fill-rule:evenodd;"
points="33408,47941
33920,47941
33920,48217
33408,48217
33408,47941
" /> 
<polyline style="fill-rule:evenodd;"
points="33408,41492
33920,41492
33920,41768
33408,41768
33408,41492
" /> 
<polyline style="fill-rule:evenodd;"
points="33408,42240
33920,42240
33920,42516
33408,42516
33408,42240
" /> 
<polyline style="fill-rule:evenodd;"
points="33408,35791
33920,35791
33920,36067
33408,36067
33408,35791
" /> 
<polyline style="fill-rule:evenodd;"
points="33408,36539
33920,36539
33920,36815
33408,36815
33408,36539
" /> 
<polyline style="fill-rule:evenodd;"
points="33408,30091
33920,30091
33920,30366
33408,30366
33408,30091
" /> 
<polyline style="fill-rule:evenodd;"
points="33408,30839
33920,30839
33920,31114
33408,31114
33408,30839
" /> 
<polyline style="fill-rule:evenodd;"
points="32420,31114
31908,31114
31908,30839
32420,30839
32420,31114
" /> 
<polyline style="fill-rule:evenodd;"
points="32420,30366
31908,30366
31908,30091
32420,30091
32420,30366
" /> 
<polyline style="fill-rule:evenodd;"
points="30920,48217
30408,48217
30408,47941
30920,47941
30920,48217
" /> 
<polyline style="fill-rule:evenodd;"
points="30920,47468
30408,47468
30408,47193
30920,47193
30920,47468
" /> 
<polyline style="fill-rule:evenodd;"
points="30920,42516
30408,42516
30408,42240
30920,42240
30920,42516
" /> 
<polyline style="fill-rule:evenodd;"
points="30920,41768
30408,41768
30408,41492
30920,41492
30920,41768
" /> 
<polyline style="fill-rule:evenodd;"
points="30920,36815
30408,36815
30408,36539
30920,36539
30920,36815
" /> 
<polyline style="fill-rule:evenodd;"
points="30920,36067
30408,36067
30408,35791
30920,35791
30920,36067
" /> 
<polyline style="fill-rule:evenodd;"
points="30920,31114
30408,31114
30408,30839
30920,30839
30920,31114
" /> 
<polyline style="fill-rule:evenodd;"
points="30920,30366
30408,30366
30408,30091
30920,30091
30920,30366
" /> 
<polyline style="fill-rule:evenodd;"
points="26420,48217
25908,48217
25908,47941
26420,47941
26420,48217
" /> 
<polyline style="fill-rule:evenodd;"
points="26420,47468
25908,47468
25908,47193
26420,47193
26420,47468
" /> 
<polyline style="fill-rule:evenodd;"
points="27408,47193
27920,47193
27920,47468
27408,47468
27408,47193
" /> 
<polyline style="fill-rule:evenodd;"
points="27408,47941
27920,47941
27920,48217
27408,48217
27408,47941
" /> 
<polyline style="fill-rule:evenodd;"
points="27408,41492
27920,41492
27920,41768
27408,41768
27408,41492
" /> 
<polyline style="fill-rule:evenodd;"
points="27408,42240
27920,42240
27920,42516
27408,42516
27408,42240
" /> 
<polyline style="fill-rule:evenodd;"
points="27408,35791
27920,35791
27920,36067
27408,36067
27408,35791
" /> 
<polyline style="fill-rule:evenodd;"
points="27408,36539
27920,36539
27920,36815
27408,36815
27408,36539
" /> 
<polyline style="fill-rule:evenodd;"
points="27408,30091
27920,30091
27920,30366
27408,30366
27408,30091
" /> 
<polyline style="fill-rule:evenodd;"
points="27408,30839
27920,30839
27920,31114
27408,31114
27408,30839
" /> 
<polyline style="fill-rule:evenodd;"
points="26420,31114
25908,31114
25908,30839
26420,30839
26420,31114
" /> 
<polyline style="fill-rule:evenodd;"
points="26420,30366
25908,30366
25908,30091
26420,30091
26420,30366
" /> 
<polyline style="fill-rule:evenodd;"
points="24920,48217
24408,48217
24408,47941
24920,47941
24920,48217
" /> 
<polyline style="fill-rule:evenodd;"
points="24920,47468
24408,47468
24408,47193
24920,47193
24920,47468
" /> 
<polyline style="fill-rule:evenodd;"
points="24920,42516
24408,42516
24408,42240
24920,42240
24920,42516
" /> 
<polyline style="fill-rule:evenodd;"
points="24920,41768
24408,41768
24408,41492
24920,41492
24920,41768
" /> 
<polyline style="fill-rule:evenodd;"
points="24920,36815
24408,36815
24408,36539
24920,36539
24920,36815
" /> 
<polyline style="fill-rule:evenodd;"
points="24920,36067
24408,36067
24408,35791
24920,35791
24920,36067
" /> 
<polyline style="fill-rule:evenodd;"
points="24920,31114
24408,31114
24408,30839
24920,30839
24920,31114
" /> 
<polyline style="fill-rule:evenodd;"
points="24920,30366
24408,30366
24408,30091
24920,30091
24920,30366
" /> 
<polyline style="fill-rule:evenodd;"
points="20420,48217
19908,48217
19908,47941
20420,47941
20420,48217
" /> 
<polyline style="fill-rule:evenodd;"
points="20420,47468
19908,47468
19908,47193
20420,47193
20420,47468
" /> 
<polyline style="fill-rule:evenodd;"
points="21408,47193
21920,47193
21920,47468
21408,47468
21408,47193
" /> 
<polyline style="fill-rule:evenodd;"
points="21408,47941
21920,47941
21920,48217
21408,48217
21408,47941
" /> 
<polyline style="fill-rule:evenodd;"
points="21408,41492
21920,41492
21920,41768
21408,41768
21408,41492
" /> 
<polyline style="fill-rule:evenodd;"
points="21408,42240
21920,42240
21920,42516
21408,42516
21408,42240
" /> 
<polyline style="fill-rule:evenodd;"
points="21408,35791
21920,35791
21920,36067
21408,36067
21408,35791
" /> 
<polyline style="fill-rule:evenodd;"
points="21408,36539
21920,36539
21920,36815
21408,36815
21408,36539
" /> 
<polyline style="fill-rule:evenodd;"
points="21408,30091
21920,30091
21920,30366
21408,30366
21408,30091
" /> 
<polyline style="fill-rule:evenodd;"
points="21408,30839
21920,30839
21920,31114
21408,31114
21408,30839
" /> 
<polyline style="fill-rule:evenodd;"
points="20420,31114
19908,31114
19908,30839
20420,30839
20420,31114
" /> 
<polyline style="fill-rule:evenodd;"
points="20420,30366
19908,30366
19908,30091
20420,30091
20420,30366
" /> 
<polyline style="fill-rule:evenodd;"
points="18920,48217
18408,48217
18408,47941
18920,47941
18920,48217
" /> 
<polyline style="fill-rule:evenodd;"
points="18920,47468
18408,47468
18408,47193
18920,47193
18920,47468
" /> 
<polyline style="fill-rule:evenodd;"
points="18920,42516
18408,42516
18408,42240
18920,42240
18920,42516
" /> 
<polyline style="fill-rule:evenodd;"
points="18920,41768
18408,41768
18408,41492
18920,41492
18920,41768
" /> 
<polyline style="fill-rule:evenodd;"
points="18920,36815
18408,36815
18408,36539
18920,36539
18920,36815
" /> 
<polyline style="fill-rule:evenodd;"
points="18920,36067
18408,36067
18408,35791
18920,35791
18920,36067
" /> 
<polyline style="fill-rule:evenodd;"
points="18920,31114
18408,31114
18408,30839
18920,30839
18920,31114
" /> 
<polyline style="fill-rule:evenodd;"
points="18920,30366
18408,30366
18408,30091
18920,30091
18920,30366
" /> 
<polyline style="fill-rule:evenodd;"
points="15408,47193
15920,47193
15920,47468
15408,47468
15408,47193
" /> 
<polyline style="fill-rule:evenodd;"
points="15408,47941
15920,47941
15920,48217
15408,48217
15408,47941
" /> 
<polyline style="fill-rule:evenodd;"
points="14420,48217
13908,48217
13908,47941
14420,47941
14420,48217
" /> 
<polyline style="fill-rule:evenodd;"
points="14420,47468
13908,47468
13908,47193
14420,47193
14420,47468
" /> 
<polyline style="fill-rule:evenodd;"
points="15408,41492
15920,41492
15920,41768
15408,41768
15408,41492
" /> 
<polyline style="fill-rule:evenodd;"
points="15408,42240
15920,42240
15920,42516
15408,42516
15408,42240
" /> 
<polyline style="fill-rule:evenodd;"
points="15408,35791
15920,35791
15920,36067
15408,36067
15408,35791
" /> 
<polyline style="fill-rule:evenodd;"
points="15408,36539
15920,36539
15920,36815
15408,36815
15408,36539
" /> 
<polyline style="fill-rule:evenodd;"
points="15408,30091
15920,30091
15920,30366
15408,30366
15408,30091
" /> 
<polyline style="fill-rule:evenodd;"
points="15408,30839
15920,30839
15920,31114
15408,31114
15408,30839
" /> 
<polyline style="fill-rule:evenodd;"
points="14420,31114
13908,31114
13908,30839
14420,30839
14420,31114
" /> 
<polyline style="fill-rule:evenodd;"
points="14420,30366
13908,30366
13908,30091
14420,30091
14420,30366
" /> 
<polyline style="fill-rule:evenodd;"
points="12920,48217
12408,48217
12408,47941
12920,47941
12920,48217
" /> 
<polyline style="fill-rule:evenodd;"
points="12920,47468
12408,47468
12408,47193
12920,47193
12920,47468
" /> 
<polyline style="fill-rule:evenodd;"
points="12920,42516
12408,42516
12408,42240
12920,42240
12920,42516
" /> 
<polyline style="fill-rule:evenodd;"
points="12920,41768
12408,41768
12408,41492
12920,41492
12920,41768
" /> 
<polyline style="fill-rule:evenodd;"
points="12920,36815
12408,36815
12408,36539
12920,36539
12920,36815
" /> 
<polyline style="fill-rule:evenodd;"
points="12920,36067
12408,36067
12408,35791
12920,35791
12920,36067
" /> 
<polyline style="fill-rule:evenodd;"
points="12920,31114
12408,31114
12408,30839
12920,30839
12920,31114
" /> 
<polyline style="fill-rule:evenodd;"
points="12920,30366
12408,30366
12408,30091
12920,30091
12920,30366
" /> 
<polyline style="fill-rule:evenodd;"
points="24507,52283
24507,53385
24311,53385
24311,52283
24507,52283
" /> 
<polyline style="fill-rule:evenodd;"
points="24192,52283
24192,53385
23996,53385
23996,52283
24192,52283
" /> 
<polyline style="fill-rule:evenodd;"
points="23562,52283
23562,53385
23366,53385
23366,52283
23562,52283
" /> 
<polyline style="fill-rule:evenodd;"
points="23877,52283
23877,53385
23681,53385
23681,52283
23877,52283
" /> 
<polyline style="fill-rule:evenodd;"
points="22618,52283
22618,53385
22421,53385
22421,52283
22618,52283
" /> 
<polyline style="fill-rule:evenodd;"
points="22303,52283
22303,53385
22106,53385
22106,52283
22303,52283
" /> 
<polyline style="fill-rule:evenodd;"
points="22933,52283
22933,53385
22736,53385
22736,52283
22933,52283
" /> 
<polyline style="fill-rule:evenodd;"
points="23248,52283
23248,53385
23051,53385
23051,52283
23248,52283
" /> 
<polyline style="fill-rule:evenodd;"
points="27027,52283
27027,53385
26830,53385
26830,52283
27027,52283
" /> 
<polyline style="fill-rule:evenodd;"
points="26712,52283
26712,53385
26515,53385
26515,52283
26712,52283
" /> 
<polyline style="fill-rule:evenodd;"
points="26082,52283
26082,53385
25885,53385
25885,52283
26082,52283
" /> 
<polyline style="fill-rule:evenodd;"
points="26397,52283
26397,53385
26200,53385
26200,52283
26397,52283
" /> 
<polyline style="fill-rule:evenodd;"
points="25137,52283
25137,53385
24940,53385
24940,52283
25137,52283
" /> 
<polyline style="fill-rule:evenodd;"
points="24822,52283
24822,53385
24625,53385
24625,52283
24822,52283
" /> 
<polyline style="fill-rule:evenodd;"
points="25452,52283
25452,53385
25255,53385
25255,52283
25452,52283
" /> 
<polyline style="fill-rule:evenodd;"
points="25767,52283
25767,53385
25570,53385
25570,52283
25767,52283
" /> 
<polyline style="fill-rule:evenodd;"
points="29547,52283
29547,53385
29350,53385
29350,52283
29547,52283
" /> 
<polyline style="fill-rule:evenodd;"
points="27972,52283
27972,53385
27775,53385
27775,52283
27972,52283
" /> 
<polyline style="fill-rule:evenodd;"
points="27342,52283
27342,53385
27145,53385
27145,52283
27342,52283
" /> 
<polyline style="fill-rule:evenodd;"
points="27657,52283
27657,53385
27460,53385
27460,52283
27657,52283
" /> 
<polyline style="fill-rule:evenodd;"
points="30177,52283
30177,53385
29980,53385
29980,52283
30177,52283
" /> 
<polyline style="fill-rule:evenodd;"
points="29862,52283
29862,53385
29665,53385
29665,52283
29862,52283
" /> 
<polyline style="fill-rule:evenodd;"
points="30492,52283
30492,53385
30295,53385
30295,52283
30492,52283
" /> 
<polyline style="fill-rule:evenodd;"
points="31122,52283
31122,53385
30925,53385
30925,52283
31122,52283
" /> 
<polyline style="fill-rule:evenodd;"
points="30807,52283
30807,53385
30610,53385
30610,52283
30807,52283
" /> 
</g> 
</svg>
