<?xml version="1.0" standalone="no"?>
 <!DOCTYPE svg PUBLIC "-//W3C//DTD SVG 1.1//EN" 
 "http://www.w3.org/Graphics/SVG/1.1/DTD/svg11.dtd"> 
<svg xmlns="http://www.w3.org/2000/svg" version="1.1" 
    width="27.94cm" height="21.59cm" viewBox="0 0 110000 85000 ">
<title>SVG Picture created as 40-channel HV switching board-F.Paste.svg date 2016/09/28 11:03:53 </title>
  <desc>Picture generated by PCBNEW </desc>
<g style="fill:#000000; fill-opacity:1;stroke:#000000; stroke-opacity:1;
stroke-linecap:round; stroke-linejoin:round; "
 transform="translate(0 0) scale(1 1)">
</g>
<g style="fill:#000000; fill-opacity:0.0; 
stroke:#000000; stroke-width:-0.000393701; stroke-opacity:1; 
stroke-linecap:round; stroke-linejoin:round;">
</g>
<g style="fill:#000000; fill-opacity:0.0; 
stroke:#000000; stroke-width:39.3701; stroke-opacity:1; 
stroke-linecap:round; stroke-linejoin:round;">
</g>
<g style="fill:#000000; fill-opacity:0.0; 
stroke:#000000; stroke-width:59.0551; stroke-opacity:1; 
stroke-linecap:round; stroke-linejoin:round;">
<rect x="62755.9" y="67677.2" width="42519.7" height="12598.4" rx="0" />
</g>
<g style="fill:#000000; fill-opacity:0.0; 
stroke:#000000; stroke-width:39.3701; stroke-opacity:1; 
stroke-linecap:round; stroke-linejoin:round;">
</g>
<g style="fill:#000000; fill-opacity:0.0; 
stroke:#000000; stroke-width:59.0551; stroke-opacity:1; 
stroke-linecap:round; stroke-linejoin:round;">
<rect x="3937.01" y="3937.01" width="102126" height="77126" rx="0" />
</g>
<g style="fill:#000000; fill-opacity:0.0; 
stroke:#000000; stroke-width:39.3701; stroke-opacity:1; 
stroke-linecap:round; stroke-linejoin:round;">
</g>
<g style="fill:#000000; fill-opacity:0.0; 
stroke:#000000; stroke-width:59.0551; stroke-opacity:1; 
stroke-linecap:round; stroke-linejoin:round;">
<rect x="4724.41" y="4724.41" width="100551" height="75551.2" rx="0" />
</g>
<g style="fill:#000000; fill-opacity:0.0; 
stroke:#000000; stroke-width:39.3701; stroke-opacity:1; 
stroke-linecap:round; stroke-linejoin:round;">
</g>
<g style="fill:#000000; fill-opacity:0.0; 
stroke:#000000; stroke-width:59.0551; stroke-opacity:1; 
stroke-linecap:round; stroke-linejoin:round;">
<path d="M23622 4724
L23622 3937
" />
</g>
<g style="fill:#000000; fill-opacity:0.0; 
stroke:#000000; stroke-width:39.3701; stroke-opacity:1; 
stroke-linecap:round; stroke-linejoin:round;">
</g>
<g style="fill:#000000; fill-opacity:0.0; 
stroke:#000000; stroke-width:59.0551; stroke-opacity:1; 
stroke-linecap:round; stroke-linejoin:round;">
<path d="M43307 4724
L43307 3937
" />
</g>
<g style="fill:#000000; fill-opacity:0.0; 
stroke:#000000; stroke-width:39.3701; stroke-opacity:1; 
stroke-linecap:round; stroke-linejoin:round;">
</g>
<g style="fill:#000000; fill-opacity:0.0; 
stroke:#000000; stroke-width:59.0551; stroke-opacity:1; 
stroke-linecap:round; stroke-linejoin:round;">
<path d="M62992 4724
L62992 3937
" />
</g>
<g style="fill:#000000; fill-opacity:0.0; 
stroke:#000000; stroke-width:39.3701; stroke-opacity:1; 
stroke-linecap:round; stroke-linejoin:round;">
</g>
<g style="fill:#000000; fill-opacity:0.0; 
stroke:#000000; stroke-width:59.0551; stroke-opacity:1; 
stroke-linecap:round; stroke-linejoin:round;">
<path d="M82677 4724
L82677 3937
" />
</g>
<g style="fill:#000000; fill-opacity:0.0; 
stroke:#000000; stroke-width:39.3701; stroke-opacity:1; 
stroke-linecap:round; stroke-linejoin:round;">
</g>
<g style="fill:#000000; fill-opacity:0.0; 
stroke:#000000; stroke-width:59.0551; stroke-opacity:1; 
stroke-linecap:round; stroke-linejoin:round;">
<path d="M102362 4724
L102362 3937
" />
</g>
<g style="fill:#000000; fill-opacity:0.0; 
stroke:#000000; stroke-width:39.3701; stroke-opacity:1; 
stroke-linecap:round; stroke-linejoin:round;">
</g>
<g style="fill:#000000; fill-opacity:0.0; 
stroke:#000000; stroke-width:59.0551; stroke-opacity:1; 
stroke-linecap:round; stroke-linejoin:round;">
<path d="M14169 4562
L13877 4562
" />
<path d="M14023 4562
L14023 4050
L13974 4123
L13925 4172
L13877 4196
" />
</g>
<g style="fill:#000000; fill-opacity:0.0; 
stroke:#000000; stroke-width:39.3701; stroke-opacity:1; 
stroke-linecap:round; stroke-linejoin:round;">
</g>
<g style="fill:#000000; fill-opacity:0.0; 
stroke:#000000; stroke-width:59.0551; stroke-opacity:1; 
stroke-linecap:round; stroke-linejoin:round;">
<path d="M33562 4099
L33586 4074
L33635 4050
L33757 4050
L33805 4074
L33830 4099
L33854 4147
L33854 4196
L33830 4269
L33537 4562
L33854 4562
" />
</g>
<g style="fill:#000000; fill-opacity:0.0; 
stroke:#000000; stroke-width:39.3701; stroke-opacity:1; 
stroke-linecap:round; stroke-linejoin:round;">
</g>
<g style="fill:#000000; fill-opacity:0.0; 
stroke:#000000; stroke-width:59.0551; stroke-opacity:1; 
stroke-linecap:round; stroke-linejoin:round;">
<path d="M53222 4050
L53539 4050
L53368 4245
L53442 4245
L53490 4269
L53515 4294
L53539 4342
L53539 4464
L53515 4513
L53490 4537
L53442 4562
L53295 4562
L53247 4537
L53222 4513
" />
</g>
<g style="fill:#000000; fill-opacity:0.0; 
stroke:#000000; stroke-width:39.3701; stroke-opacity:1; 
stroke-linecap:round; stroke-linejoin:round;">
</g>
<g style="fill:#000000; fill-opacity:0.0; 
stroke:#000000; stroke-width:59.0551; stroke-opacity:1; 
stroke-linecap:round; stroke-linejoin:round;">
<path d="M73175 4221
L73175 4562
" />
<path d="M73053 4026
L72932 4391
L73248 4391
" />
</g>
<g style="fill:#000000; fill-opacity:0.0; 
stroke:#000000; stroke-width:39.3701; stroke-opacity:1; 
stroke-linecap:round; stroke-linejoin:round;">
</g>
<g style="fill:#000000; fill-opacity:0.0; 
stroke:#000000; stroke-width:59.0551; stroke-opacity:1; 
stroke-linecap:round; stroke-linejoin:round;">
<path d="M92885 4050
L92641 4050
L92617 4294
L92641 4269
L92690 4245
L92812 4245
L92860 4269
L92885 4294
L92909 4342
L92909 4464
L92885 4513
L92860 4537
L92812 4562
L92690 4562
L92641 4537
L92617 4513
" />
</g>
<g style="fill:#000000; fill-opacity:0.0; 
stroke:#000000; stroke-width:39.3701; stroke-opacity:1; 
stroke-linecap:round; stroke-linejoin:round;">
</g>
<g style="fill:#000000; fill-opacity:0.0; 
stroke:#000000; stroke-width:59.0551; stroke-opacity:1; 
stroke-linecap:round; stroke-linejoin:round;">
<path d="M23622 80275
L23622 81062
" />
</g>
<g style="fill:#000000; fill-opacity:0.0; 
stroke:#000000; stroke-width:39.3701; stroke-opacity:1; 
stroke-linecap:round; stroke-linejoin:round;">
</g>
<g style="fill:#000000; fill-opacity:0.0; 
stroke:#000000; stroke-width:59.0551; stroke-opacity:1; 
stroke-linecap:round; stroke-linejoin:round;">
<path d="M43307 80275
L43307 81062
" />
</g>
<g style="fill:#000000; fill-opacity:0.0; 
stroke:#000000; stroke-width:39.3701; stroke-opacity:1; 
stroke-linecap:round; stroke-linejoin:round;">
</g>
<g style="fill:#000000; fill-opacity:0.0; 
stroke:#000000; stroke-width:59.0551; stroke-opacity:1; 
stroke-linecap:round; stroke-linejoin:round;">
<path d="M62992 80275
L62992 81062
" />
</g>
<g style="fill:#000000; fill-opacity:0.0; 
stroke:#000000; stroke-width:39.3701; stroke-opacity:1; 
stroke-linecap:round; stroke-linejoin:round;">
</g>
<g style="fill:#000000; fill-opacity:0.0; 
stroke:#000000; stroke-width:59.0551; stroke-opacity:1; 
stroke-linecap:round; stroke-linejoin:round;">
<path d="M82677 80275
L82677 81062
" />
</g>
<g style="fill:#000000; fill-opacity:0.0; 
stroke:#000000; stroke-width:39.3701; stroke-opacity:1; 
stroke-linecap:round; stroke-linejoin:round;">
</g>
<g style="fill:#000000; fill-opacity:0.0; 
stroke:#000000; stroke-width:59.0551; stroke-opacity:1; 
stroke-linecap:round; stroke-linejoin:round;">
<path d="M102362 80275
L102362 81062
" />
</g>
<g style="fill:#000000; fill-opacity:0.0; 
stroke:#000000; stroke-width:39.3701; stroke-opacity:1; 
stroke-linecap:round; stroke-linejoin:round;">
</g>
<g style="fill:#000000; fill-opacity:0.0; 
stroke:#000000; stroke-width:59.0551; stroke-opacity:1; 
stroke-linecap:round; stroke-linejoin:round;">
<path d="M14169 80900
L13877 80900
" />
<path d="M14023 80900
L14023 80389
L13974 80462
L13925 80510
L13877 80535
" />
</g>
<g style="fill:#000000; fill-opacity:0.0; 
stroke:#000000; stroke-width:39.3701; stroke-opacity:1; 
stroke-linecap:round; stroke-linejoin:round;">
</g>
<g style="fill:#000000; fill-opacity:0.0; 
stroke:#000000; stroke-width:59.0551; stroke-opacity:1; 
stroke-linecap:round; stroke-linejoin:round;">
<path d="M33562 80437
L33586 80413
L33635 80389
L33757 80389
L33805 80413
L33830 80437
L33854 80486
L33854 80535
L33830 80608
L33537 80900
L33854 80900
" />
</g>
<g style="fill:#000000; fill-opacity:0.0; 
stroke:#000000; stroke-width:39.3701; stroke-opacity:1; 
stroke-linecap:round; stroke-linejoin:round;">
</g>
<g style="fill:#000000; fill-opacity:0.0; 
stroke:#000000; stroke-width:59.0551; stroke-opacity:1; 
stroke-linecap:round; stroke-linejoin:round;">
<path d="M53222 80389
L53539 80389
L53368 80583
L53442 80583
L53490 80608
L53515 80632
L53539 80681
L53539 80803
L53515 80852
L53490 80876
L53442 80900
L53295 80900
L53247 80876
L53222 80852
" />
</g>
<g style="fill:#000000; fill-opacity:0.0; 
stroke:#000000; stroke-width:39.3701; stroke-opacity:1; 
stroke-linecap:round; stroke-linejoin:round;">
</g>
<g style="fill:#000000; fill-opacity:0.0; 
stroke:#000000; stroke-width:59.0551; stroke-opacity:1; 
stroke-linecap:round; stroke-linejoin:round;">
<path d="M73175 80559
L73175 80900
" />
<path d="M73053 80364
L72932 80730
L73248 80730
" />
</g>
<g style="fill:#000000; fill-opacity:0.0; 
stroke:#000000; stroke-width:39.3701; stroke-opacity:1; 
stroke-linecap:round; stroke-linejoin:round;">
</g>
<g style="fill:#000000; fill-opacity:0.0; 
stroke:#000000; stroke-width:59.0551; stroke-opacity:1; 
stroke-linecap:round; stroke-linejoin:round;">
<path d="M92885 80389
L92641 80389
L92617 80632
L92641 80608
L92690 80583
L92812 80583
L92860 80608
L92885 80632
L92909 80681
L92909 80803
L92885 80852
L92860 80876
L92812 80900
L92690 80900
L92641 80876
L92617 80852
" />
</g>
<g style="fill:#000000; fill-opacity:0.0; 
stroke:#000000; stroke-width:39.3701; stroke-opacity:1; 
stroke-linecap:round; stroke-linejoin:round;">
</g>
<g style="fill:#000000; fill-opacity:0.0; 
stroke:#000000; stroke-width:59.0551; stroke-opacity:1; 
stroke-linecap:round; stroke-linejoin:round;">
<path d="M3937 23622
L4724 23622
" />
</g>
<g style="fill:#000000; fill-opacity:0.0; 
stroke:#000000; stroke-width:39.3701; stroke-opacity:1; 
stroke-linecap:round; stroke-linejoin:round;">
</g>
<g style="fill:#000000; fill-opacity:0.0; 
stroke:#000000; stroke-width:59.0551; stroke-opacity:1; 
stroke-linecap:round; stroke-linejoin:round;">
<path d="M3937 43307
L4724 43307
" />
</g>
<g style="fill:#000000; fill-opacity:0.0; 
stroke:#000000; stroke-width:39.3701; stroke-opacity:1; 
stroke-linecap:round; stroke-linejoin:round;">
</g>
<g style="fill:#000000; fill-opacity:0.0; 
stroke:#000000; stroke-width:59.0551; stroke-opacity:1; 
stroke-linecap:round; stroke-linejoin:round;">
<path d="M3937 62992
L4724 62992
" />
</g>
<g style="fill:#000000; fill-opacity:0.0; 
stroke:#000000; stroke-width:39.3701; stroke-opacity:1; 
stroke-linecap:round; stroke-linejoin:round;">
</g>
<g style="fill:#000000; fill-opacity:0.0; 
stroke:#000000; stroke-width:59.0551; stroke-opacity:1; 
stroke-linecap:round; stroke-linejoin:round;">
<path d="M4208 13864
L4452 13864
" />
<path d="M4160 14011
L4330 13499
L4501 14011
" />
</g>
<g style="fill:#000000; fill-opacity:0.0; 
stroke:#000000; stroke-width:39.3701; stroke-opacity:1; 
stroke-linecap:round; stroke-linejoin:round;">
</g>
<g style="fill:#000000; fill-opacity:0.0; 
stroke:#000000; stroke-width:59.0551; stroke-opacity:1; 
stroke-linecap:round; stroke-linejoin:round;">
<path d="M4367 33428
L4440 33452
L4464 33476
L4489 33525
L4489 33598
L4464 33647
L4440 33671
L4391 33696
L4196 33696
L4196 33184
L4367 33184
L4416 33208
L4440 33233
L4464 33281
L4464 33330
L4440 33379
L4416 33403
L4367 33428
L4196 33428
" />
</g>
<g style="fill:#000000; fill-opacity:0.0; 
stroke:#000000; stroke-width:39.3701; stroke-opacity:1; 
stroke-linecap:round; stroke-linejoin:round;">
</g>
<g style="fill:#000000; fill-opacity:0.0; 
stroke:#000000; stroke-width:59.0551; stroke-opacity:1; 
stroke-linecap:round; stroke-linejoin:round;">
<path d="M4489 53332
L4464 53356
L4391 53381
L4342 53381
L4269 53356
L4221 53308
L4196 53259
L4172 53161
L4172 53088
L4196 52991
L4221 52942
L4269 52893
L4342 52869
L4391 52869
L4464 52893
L4489 52918
" />
</g>
<g style="fill:#000000; fill-opacity:0.0; 
stroke:#000000; stroke-width:39.3701; stroke-opacity:1; 
stroke-linecap:round; stroke-linejoin:round;">
</g>
<g style="fill:#000000; fill-opacity:0.0; 
stroke:#000000; stroke-width:59.0551; stroke-opacity:1; 
stroke-linecap:round; stroke-linejoin:round;">
<path d="M4196 73066
L4196 72554
L4318 72554
L4391 72578
L4440 72627
L4464 72676
L4489 72773
L4489 72846
L4464 72944
L4440 72993
L4391 73041
L4318 73066
L4196 73066
" />
</g>
<g style="fill:#000000; fill-opacity:0.0; 
stroke:#000000; stroke-width:39.3701; stroke-opacity:1; 
stroke-linecap:round; stroke-linejoin:round;">
</g>
<g style="fill:#000000; fill-opacity:0.0; 
stroke:#000000; stroke-width:59.0551; stroke-opacity:1; 
stroke-linecap:round; stroke-linejoin:round;">
<path d="M106062 23622
L105275 23622
" />
</g>
<g style="fill:#000000; fill-opacity:0.0; 
stroke:#000000; stroke-width:39.3701; stroke-opacity:1; 
stroke-linecap:round; stroke-linejoin:round;">
</g>
<g style="fill:#000000; fill-opacity:0.0; 
stroke:#000000; stroke-width:59.0551; stroke-opacity:1; 
stroke-linecap:round; stroke-linejoin:round;">
<path d="M106062 43307
L105275 43307
" />
</g>
<g style="fill:#000000; fill-opacity:0.0; 
stroke:#000000; stroke-width:39.3701; stroke-opacity:1; 
stroke-linecap:round; stroke-linejoin:round;">
</g>
<g style="fill:#000000; fill-opacity:0.0; 
stroke:#000000; stroke-width:59.0551; stroke-opacity:1; 
stroke-linecap:round; stroke-linejoin:round;">
<path d="M106062 62992
L105275 62992
" />
</g>
<g style="fill:#000000; fill-opacity:0.0; 
stroke:#000000; stroke-width:39.3701; stroke-opacity:1; 
stroke-linecap:round; stroke-linejoin:round;">
</g>
<g style="fill:#000000; fill-opacity:0.0; 
stroke:#000000; stroke-width:59.0551; stroke-opacity:1; 
stroke-linecap:round; stroke-linejoin:round;">
<path d="M105547 13864
L105791 13864
" />
<path d="M105498 14011
L105669 13499
L105839 14011
" />
</g>
<g style="fill:#000000; fill-opacity:0.0; 
stroke:#000000; stroke-width:39.3701; stroke-opacity:1; 
stroke-linecap:round; stroke-linejoin:round;">
</g>
<g style="fill:#000000; fill-opacity:0.0; 
stroke:#000000; stroke-width:59.0551; stroke-opacity:1; 
stroke-linecap:round; stroke-linejoin:round;">
<path d="M105705 33428
L105778 33452
L105803 33476
L105827 33525
L105827 33598
L105803 33647
L105778 33671
L105730 33696
L105535 33696
L105535 33184
L105705 33184
L105754 33208
L105778 33233
L105803 33281
L105803 33330
L105778 33379
L105754 33403
L105705 33428
L105535 33428
" />
</g>
<g style="fill:#000000; fill-opacity:0.0; 
stroke:#000000; stroke-width:39.3701; stroke-opacity:1; 
stroke-linecap:round; stroke-linejoin:round;">
</g>
<g style="fill:#000000; fill-opacity:0.0; 
stroke:#000000; stroke-width:59.0551; stroke-opacity:1; 
stroke-linecap:round; stroke-linejoin:round;">
<path d="M105827 53332
L105803 53356
L105730 53381
L105681 53381
L105608 53356
L105559 53308
L105535 53259
L105510 53161
L105510 53088
L105535 52991
L105559 52942
L105608 52893
L105681 52869
L105730 52869
L105803 52893
L105827 52918
" />
</g>
<g style="fill:#000000; fill-opacity:0.0; 
stroke:#000000; stroke-width:39.3701; stroke-opacity:1; 
stroke-linecap:round; stroke-linejoin:round;">
</g>
<g style="fill:#000000; fill-opacity:0.0; 
stroke:#000000; stroke-width:59.0551; stroke-opacity:1; 
stroke-linecap:round; stroke-linejoin:round;">
<path d="M105535 73066
L105535 72554
L105657 72554
L105730 72578
L105778 72627
L105803 72676
L105827 72773
L105827 72846
L105803 72944
L105778 72993
L105730 73041
L105657 73066
L105535 73066
" />
</g>
<g style="fill:#000000; fill-opacity:0.0; 
stroke:#000000; stroke-width:39.3701; stroke-opacity:1; 
stroke-linecap:round; stroke-linejoin:round;">
</g>
<g style="fill:#000000; fill-opacity:0.0; 
stroke:#000000; stroke-width:59.0551; stroke-opacity:1; 
stroke-linecap:round; stroke-linejoin:round;">
<path d="M71951 78613
L71951 78023
L72092 78023
L72176 78051
L72232 78107
L72260 78163
L72289 78276
L72289 78360
L72260 78473
L72232 78529
L72176 78585
L72092 78613
L71951 78613
" />
<path d="M72795 78613
L72795 78304
L72767 78248
L72710 78219
L72598 78219
L72542 78248
" />
<path d="M72795 78585
L72739 78613
L72598 78613
L72542 78585
L72514 78529
L72514 78473
L72542 78416
L72598 78388
L72739 78388
L72795 78360
" />
<path d="M72992 78219
L73217 78219
" />
<path d="M73076 78023
L73076 78529
L73104 78585
L73160 78613
L73217 78613
" />
<path d="M73638 78585
L73582 78613
L73470 78613
L73413 78585
L73385 78529
L73385 78304
L73413 78248
L73470 78219
L73582 78219
L73638 78248
L73667 78304
L73667 78360
L73385 78416
" />
<path d="M73920 78557
L73948 78585
L73920 78613
L73892 78585
L73920 78557
L73920 78613
" />
<path d="M73920 78248
L73948 78276
L73920 78304
L73892 78276
L73920 78248
L73920 78304
" />
<path d="M74623 78079
L74651 78051
L74707 78023
L74848 78023
L74904 78051
L74932 78079
L74960 78135
L74960 78191
L74932 78276
L74595 78613
L74960 78613
" />
<path d="M75326 78023
L75382 78023
L75438 78051
L75466 78079
L75494 78135
L75523 78248
L75523 78388
L75494 78501
L75466 78557
L75438 78585
L75382 78613
L75326 78613
L75269 78585
L75241 78557
L75213 78501
L75185 78388
L75185 78248
L75213 78135
L75241 78079
L75269 78051
L75326 78023
" />
<path d="M76085 78613
L75748 78613
" />
<path d="M75916 78613
L75916 78023
L75860 78107
L75804 78163
L75748 78191
" />
<path d="M76591 78023
L76479 78023
L76422 78051
L76394 78079
L76338 78163
L76310 78276
L76310 78501
L76338 78557
L76366 78585
L76422 78613
L76535 78613
L76591 78585
L76619 78557
L76647 78501
L76647 78360
L76619 78304
L76591 78276
L76535 78248
L76422 78248
L76366 78276
L76338 78304
L76310 78360
" />
<path d="M76901 78388
L77350 78388
" />
<path d="M77744 78023
L77800 78023
L77857 78051
L77885 78079
L77913 78135
L77941 78248
L77941 78388
L77913 78501
L77885 78557
L77857 78585
L77800 78613
L77744 78613
L77688 78585
L77660 78557
L77632 78501
L77604 78388
L77604 78248
L77632 78135
L77660 78079
L77688 78051
L77744 78023
" />
<path d="M78222 78613
L78335 78613
L78391 78585
L78419 78557
L78475 78473
L78503 78360
L78503 78135
L78475 78079
L78447 78051
L78391 78023
L78278 78023
L78222 78051
L78194 78079
L78166 78135
L78166 78276
L78194 78332
L78222 78360
L78278 78388
L78391 78388
L78447 78360
L78475 78332
L78503 78276
" />
<path d="M78757 78388
L79206 78388
" />
<path d="M79460 78079
L79488 78051
L79544 78023
L79685 78023
L79741 78051
L79769 78079
L79797 78135
L79797 78191
L79769 78276
L79431 78613
L79797 78613
" />
<path d="M80134 78276
L80078 78248
L80050 78219
L80022 78163
L80022 78135
L80050 78079
L80078 78051
L80134 78023
L80247 78023
L80303 78051
L80331 78079
L80359 78135
L80359 78163
L80331 78219
L80303 78248
L80247 78276
L80134 78276
L80078 78304
L80050 78332
L80022 78388
L80022 78501
L80050 78557
L80078 78585
L80134 78613
L80247 78613
L80303 78585
L80331 78557
L80359 78501
L80359 78388
L80331 78332
L80303 78304
L80247 78276
" />
</g>
<g style="fill:#000000; fill-opacity:0.0; 
stroke:#000000; stroke-width:39.3701; stroke-opacity:1; 
stroke-linecap:round; stroke-linejoin:round;">
</g>
<g style="fill:#000000; fill-opacity:0.0; 
stroke:#000000; stroke-width:59.0551; stroke-opacity:1; 
stroke-linecap:round; stroke-linejoin:round;">
<path d="M62755 78897
L105275 78897
" />
</g>
<g style="fill:#000000; fill-opacity:0.0; 
stroke:#000000; stroke-width:39.3701; stroke-opacity:1; 
stroke-linecap:round; stroke-linejoin:round;">
</g>
<g style="fill:#000000; fill-opacity:0.0; 
stroke:#000000; stroke-width:59.0551; stroke-opacity:1; 
stroke-linecap:round; stroke-linejoin:round;">
<path d="M63290 79715
L63290 79125
" />
<path d="M63627 79715
L63374 79378
" />
<path d="M63627 79125
L63290 79462
" />
<path d="M63880 79715
L63880 79322
" />
<path d="M63880 79125
L63852 79153
L63880 79181
L63908 79153
L63880 79125
L63880 79181
" />
<path d="M64499 79659
L64471 79687
L64386 79715
L64330 79715
L64246 79687
L64190 79631
L64161 79575
L64133 79462
L64133 79378
L64161 79266
L64190 79209
L64246 79153
L64330 79125
L64386 79125
L64471 79153
L64499 79181
" />
<path d="M65005 79715
L65005 79406
L64977 79350
L64921 79322
L64808 79322
L64752 79350
" />
<path d="M65005 79687
L64949 79715
L64808 79715
L64752 79687
L64724 79631
L64724 79575
L64752 79519
L64808 79491
L64949 79491
L65005 79462
" />
<path d="M65539 79715
L65539 79125
" />
<path d="M65539 79687
L65483 79715
L65371 79715
L65314 79687
L65286 79659
L65258 79603
L65258 79434
L65286 79378
L65314 79350
L65371 79322
L65483 79322
L65539 79350
" />
<path d="M66271 79406
L66467 79406
" />
<path d="M66552 79715
L66271 79715
L66271 79125
L66552 79125
" />
<path d="M66805 79659
L66833 79687
L66805 79715
L66777 79687
L66805 79659
L66805 79715
" />
<path d="M67086 79715
L67086 79125
L67227 79125
L67311 79153
L67367 79209
L67395 79266
L67424 79378
L67424 79462
L67395 79575
L67367 79631
L67311 79687
L67227 79715
L67086 79715
" />
<path d="M67677 79659
L67705 79687
L67677 79715
L67649 79687
L67677 79659
L67677 79715
" />
<path d="M67930 79547
L68211 79547
" />
<path d="M67874 79715
L68070 79125
L68267 79715
" />
<path d="M68464 79659
L68492 79687
L68464 79715
L68436 79687
L68464 79659
L68464 79715
" />
<path d="M69645 79715
L69645 79125
" />
<path d="M69701 79491
L69870 79715
" />
<path d="M69870 79322
L69645 79547
" />
<path d="M70123 79715
L70123 79322
" />
<path d="M70123 79125
L70095 79153
L70123 79181
L70151 79153
L70123 79125
L70123 79181
" />
<path d="M70658 79687
L70601 79715
L70489 79715
L70433 79687
L70404 79659
L70376 79603
L70376 79434
L70404 79378
L70433 79350
L70489 79322
L70601 79322
L70658 79350
" />
<path d="M71164 79715
L71164 79406
L71136 79350
L71079 79322
L70967 79322
L70911 79350
" />
<path d="M71164 79687
L71107 79715
L70967 79715
L70911 79687
L70883 79631
L70883 79575
L70911 79519
L70967 79491
L71107 79491
L71164 79462
" />
<path d="M71698 79715
L71698 79125
" />
<path d="M71698 79687
L71642 79715
L71529 79715
L71473 79687
L71445 79659
L71417 79603
L71417 79434
L71445 79378
L71473 79350
L71529 79322
L71642 79322
L71698 79350
" />
<path d="M72682 79322
L72682 79715
" />
<path d="M72542 79097
L72401 79519
L72767 79519
" />
<path d="M72992 79659
L73020 79687
L72992 79715
L72964 79687
L72992 79659
L72992 79715
" />
<path d="M73385 79125
L73442 79125
L73498 79153
L73526 79181
L73554 79237
L73582 79350
L73582 79491
L73554 79603
L73526 79659
L73498 79687
L73442 79715
L73385 79715
L73329 79687
L73301 79659
L73273 79603
L73245 79491
L73245 79350
L73273 79237
L73301 79181
L73329 79153
L73385 79125
" />
<path d="M73835 79659
L73863 79687
L73835 79715
L73807 79687
L73835 79659
L73835 79715
" />
<path d="M74426 79715
L74088 79715
" />
<path d="M74257 79715
L74257 79125
L74201 79209
L74145 79266
L74088 79294
" />
<path d="M74679 79491
L75129 79491
" />
<path d="M75382 79687
L75438 79715
L75551 79715
L75607 79687
L75635 79631
L75635 79603
L75607 79547
L75551 79519
L75466 79519
L75410 79491
L75382 79434
L75382 79406
L75410 79350
L75466 79322
L75551 79322
L75607 79350
" />
<path d="M75804 79322
L76029 79322
" />
<path d="M75888 79125
L75888 79631
L75916 79687
L75973 79715
L76029 79715
" />
<path d="M76479 79715
L76479 79406
L76451 79350
L76394 79322
L76282 79322
L76226 79350
" />
<path d="M76479 79687
L76422 79715
L76282 79715
L76226 79687
L76197 79631
L76197 79575
L76226 79519
L76282 79491
L76422 79491
L76479 79462
" />
<path d="M76760 79715
L76760 79125
" />
<path d="M76760 79350
L76816 79322
L76929 79322
L76985 79350
L77013 79378
L77041 79434
L77041 79603
L77013 79659
L76985 79687
L76929 79715
L76816 79715
L76760 79687
" />
<path d="M77379 79715
L77322 79687
L77294 79631
L77294 79125
" />
<path d="M77829 79687
L77772 79715
L77660 79715
L77604 79687
L77575 79631
L77575 79406
L77604 79350
L77660 79322
L77772 79322
L77829 79350
L77857 79406
L77857 79462
L77575 79519
" />
</g>
<g style="fill:#000000; fill-opacity:0.0; 
stroke:#000000; stroke-width:39.3701; stroke-opacity:1; 
stroke-linecap:round; stroke-linejoin:round;">
</g>
<g style="fill:#000000; fill-opacity:0.0; 
stroke:#000000; stroke-width:59.0551; stroke-opacity:1; 
stroke-linecap:round; stroke-linejoin:round;">
<path d="M62755 77716
L105275 77716
" />
</g>
<g style="fill:#000000; fill-opacity:0.0; 
stroke:#000000; stroke-width:39.3701; stroke-opacity:1; 
stroke-linecap:round; stroke-linejoin:round;">
</g>
<g style="fill:#000000; fill-opacity:0.0; 
stroke:#000000; stroke-width:118.11; stroke-opacity:1; 
stroke-linecap:round; stroke-linejoin:round;">
<path d="M97092 78613
L96895 78332
" />
<path d="M96754 78613
L96754 78023
L96979 78023
L97035 78051
L97064 78079
L97092 78135
L97092 78219
L97064 78276
L97035 78304
L96979 78332
L96754 78332
" />
<path d="M97570 78585
L97514 78613
L97401 78613
L97345 78585
L97317 78529
L97317 78304
L97345 78248
L97401 78219
L97514 78219
L97570 78248
L97598 78304
L97598 78360
L97317 78416
" />
<path d="M97795 78219
L97935 78613
L98076 78219
" />
<path d="M98301 78557
L98329 78585
L98301 78613
L98273 78585
L98301 78557
L98301 78613
" />
<path d="M98301 78248
L98329 78276
L98301 78304
L98273 78276
L98301 78248
L98301 78304
" />
<path d="M99004 78079
L99032 78051
L99088 78023
L99229 78023
L99285 78051
L99313 78079
L99341 78135
L99341 78191
L99313 78276
L98976 78613
L99341 78613
" />
<path d="M99595 78557
L99623 78585
L99595 78613
L99566 78585
L99595 78557
L99595 78613
" />
<path d="M100185 78613
L99848 78613
" />
<path d="M100016 78613
L100016 78023
L99960 78107
L99904 78163
L99848 78191
" />
<path d="M100438 78557
L100466 78585
L100438 78613
L100410 78585
L100438 78557
L100438 78613
" />
<path d="M101029 78613
L100691 78613
" />
<path d="M100860 78613
L100860 78023
L100804 78107
L100748 78163
L100691 78191
" />
</g>
<g style="fill:#000000; fill-opacity:0.0; 
stroke:#000000; stroke-width:39.3701; stroke-opacity:1; 
stroke-linecap:round; stroke-linejoin:round;">
</g>
<g style="fill:#000000; fill-opacity:0.0; 
stroke:#000000; stroke-width:59.0551; stroke-opacity:1; 
stroke-linecap:round; stroke-linejoin:round;">
<path d="M63262 78585
L63346 78613
L63487 78613
L63543 78585
L63571 78557
L63599 78501
L63599 78444
L63571 78388
L63543 78360
L63487 78332
L63374 78304
L63318 78276
L63290 78248
L63262 78191
L63262 78135
L63290 78079
L63318 78051
L63374 78023
L63515 78023
L63599 78051
" />
<path d="M63852 78613
L63852 78219
" />
<path d="M63852 78023
L63824 78051
L63852 78079
L63880 78051
L63852 78023
L63852 78079
" />
<path d="M64077 78219
L64386 78219
L64077 78613
L64386 78613
" />
<path d="M64836 78585
L64780 78613
L64668 78613
L64611 78585
L64583 78529
L64583 78304
L64611 78248
L64668 78219
L64780 78219
L64836 78248
L64865 78304
L64865 78360
L64583 78416
" />
<path d="M65118 78557
L65146 78585
L65118 78613
L65089 78585
L65118 78557
L65118 78613
" />
<path d="M65118 78248
L65146 78276
L65118 78304
L65089 78276
L65118 78248
L65118 78304
" />
<path d="M65849 78023
L65849 78501
L65877 78557
L65905 78585
L65961 78613
L66074 78613
L66130 78585
L66158 78557
L66186 78501
L66186 78023
" />
<path d="M66439 78585
L66524 78613
L66664 78613
L66721 78585
L66749 78557
L66777 78501
L66777 78444
L66749 78388
L66721 78360
L66664 78332
L66552 78304
L66496 78276
L66467 78248
L66439 78191
L66439 78135
L66467 78079
L66496 78051
L66552 78023
L66692 78023
L66777 78051
" />
<path d="M67311 78613
L67030 78613
L67030 78023
" />
<path d="M67733 78585
L67677 78613
L67564 78613
L67508 78585
L67480 78529
L67480 78304
L67508 78248
L67564 78219
L67677 78219
L67733 78248
L67761 78304
L67761 78360
L67480 78416
" />
<path d="M67930 78219
L68155 78219
" />
<path d="M68014 78023
L68014 78529
L68042 78585
L68098 78613
L68155 78613
" />
<path d="M68267 78219
L68492 78219
" />
<path d="M68352 78023
L68352 78529
L68380 78585
L68436 78613
L68492 78613
" />
<path d="M68914 78585
L68858 78613
L68745 78613
L68689 78585
L68661 78529
L68661 78304
L68689 78248
L68745 78219
L68858 78219
L68914 78248
L68942 78304
L68942 78360
L68661 78416
" />
<path d="M69195 78613
L69195 78219
" />
<path d="M69195 78332
L69223 78276
L69251 78248
L69308 78219
L69364 78219
" />
</g>
<g style="fill:#000000; fill-opacity:0.0; 
stroke:#000000; stroke-width:39.3701; stroke-opacity:1; 
stroke-linecap:round; stroke-linejoin:round;">
</g>
<g style="fill:#000000; fill-opacity:0.0; 
stroke:#000000; stroke-width:59.0551; stroke-opacity:1; 
stroke-linecap:round; stroke-linejoin:round;">
<path d="M96754 79715
L96754 79125
" />
<path d="M97289 79715
L97289 79125
" />
<path d="M97289 79687
L97232 79715
L97120 79715
L97064 79687
L97035 79659
L97007 79603
L97007 79434
L97035 79378
L97064 79350
L97120 79322
L97232 79322
L97289 79350
" />
<path d="M97570 79659
L97598 79687
L97570 79715
L97542 79687
L97570 79659
L97570 79715
" />
<path d="M97570 79350
L97598 79378
L97570 79406
L97542 79378
L97570 79350
L97570 79406
" />
<path d="M98610 79715
L98273 79715
" />
<path d="M98442 79715
L98442 79125
L98385 79209
L98329 79266
L98273 79294
" />
<path d="M99285 79097
L98779 79856
" />
<path d="M99791 79715
L99454 79715
" />
<path d="M99623 79715
L99623 79125
L99566 79209
L99510 79266
L99454 79294
" />
</g>
<g style="fill:#000000; fill-opacity:0.0; 
stroke:#000000; stroke-width:39.3701; stroke-opacity:1; 
stroke-linecap:round; stroke-linejoin:round;">
</g>
<g style="fill:#000000; fill-opacity:0.0; 
stroke:#000000; stroke-width:59.0551; stroke-opacity:1; 
stroke-linecap:round; stroke-linejoin:round;">
<path d="M62755 76141
L105275 76141
" />
</g>
<g style="fill:#000000; fill-opacity:0.0; 
stroke:#000000; stroke-width:39.3701; stroke-opacity:1; 
stroke-linecap:round; stroke-linejoin:round;">
</g>
<g style="fill:#000000; fill-opacity:0.0; 
stroke:#000000; stroke-width:157.48; stroke-opacity:1; 
stroke-linecap:round; stroke-linejoin:round;">
<path d="M63327 76419
L63777 76419
" />
<path d="M63454 77206
L63552 76419
" />
<path d="M63941 77206
L64007 76681
" />
<path d="M64040 76419
L63997 76456
L64030 76494
L64072 76456
L64040 76419
L64030 76494
" />
<path d="M64269 76681
L64569 76681
" />
<path d="M64415 76419
L64330 77094
L64358 77169
L64429 77206
L64504 77206
" />
<path d="M64879 77206
L64808 77169
L64780 77094
L64865 76419
" />
<path d="M65483 77169
L65404 77206
L65254 77206
L65183 77169
L65155 77094
L65193 76794
L65239 76719
L65319 76681
L65469 76681
L65539 76719
L65568 76794
L65558 76869
L65174 76944
" />
<path d="M65863 77131
L65896 77169
L65853 77206
L65821 77169
L65863 77131
L65853 77206
" />
<path d="M65914 76719
L65947 76756
L65905 76794
L65872 76756
L65914 76719
L65905 76794
" />
<path d="M67231 76681
L67166 77206
" />
<path d="M67081 76381
L66824 76944
L67311 76944
" />
<path d="M67827 76419
L67902 76419
L67972 76456
L68005 76494
L68033 76569
L68052 76719
L68028 76906
L67972 77056
L67925 77131
L67883 77169
L67803 77206
L67728 77206
L67658 77169
L67625 77131
L67597 77056
L67578 76906
L67602 76719
L67658 76569
L67705 76494
L67747 76456
L67827 76419
" />
<path d="M68366 76906
L68966 76906
" />
<path d="M69645 77169
L69565 77206
L69416 77206
L69345 77169
L69312 77131
L69284 77056
L69312 76831
L69359 76756
L69401 76719
L69481 76681
L69631 76681
L69701 76719
" />
<path d="M69978 77206
L70076 76419
" />
<path d="M70315 77206
L70367 76794
L70339 76719
L70269 76681
L70156 76681
L70076 76719
L70034 76756
" />
<path d="M71028 77206
L71079 76794
L71051 76719
L70981 76681
L70831 76681
L70751 76719
" />
<path d="M71032 77169
L70953 77206
L70765 77206
L70695 77169
L70667 77094
L70676 77019
L70723 76944
L70803 76906
L70990 76906
L71070 76869
" />
<path d="M71468 76681
L71403 77206
" />
<path d="M71459 76756
L71501 76719
L71581 76681
L71693 76681
L71764 76719
L71792 76794
L71740 77206
" />
<path d="M72181 76681
L72115 77206
" />
<path d="M72171 76756
L72214 76719
L72293 76681
L72406 76681
L72476 76719
L72504 76794
L72453 77206
" />
<path d="M73132 77169
L73053 77206
L72903 77206
L72832 77169
L72804 77094
L72842 76794
L72889 76719
L72968 76681
L73118 76681
L73188 76719
L73217 76794
L73207 76869
L72823 76944
" />
<path d="M73615 77206
L73545 77169
L73517 77094
L73601 76419
" />
<path d="M74515 77206
L74613 76419
" />
<path d="M74566 76794
L75016 76794
" />
<path d="M74965 77206
L75063 76419
" />
<path d="M75326 76419
L75490 77206
L75851 76419
" />
<path d="M76582 77169
L76652 77206
L76802 77206
L76882 77169
L76929 77094
L76933 77056
L76905 76981
L76835 76944
L76722 76944
L76652 76906
L76624 76831
L76629 76794
L76676 76719
L76755 76681
L76868 76681
L76938 76719
" />
<path d="M77243 76681
L77327 77206
L77524 76831
L77627 77206
L77843 76681
" />
<path d="M78077 77206
L78143 76681
" />
<path d="M78175 76419
L78133 76456
L78166 76494
L78208 76456
L78175 76419
L78166 76494
" />
<path d="M78405 76681
L78705 76681
" />
<path d="M78550 76419
L78466 77094
L78494 77169
L78564 77206
L78639 77206
" />
<path d="M79244 77169
L79164 77206
L79014 77206
L78944 77169
L78911 77131
L78883 77056
L78911 76831
L78958 76756
L79000 76719
L79080 76681
L79230 76681
L79300 76719
" />
<path d="M79577 77206
L79675 76419
" />
<path d="M79914 77206
L79966 76794
L79938 76719
L79867 76681
L79755 76681
L79675 76719
L79633 76756
" />
<path d="M80289 77206
L80355 76681
" />
<path d="M80388 76419
L80345 76456
L80378 76494
L80420 76456
L80388 76419
L80378 76494
" />
<path d="M80730 76681
L80664 77206
" />
<path d="M80720 76756
L80763 76719
L80842 76681
L80955 76681
L81025 76719
L81053 76794
L81002 77206
" />
<path d="M81780 76681
L81700 77319
L81653 77394
L81611 77431
L81531 77469
L81419 77469
L81348 77431
" />
<path d="M81719 77169
L81639 77206
L81489 77206
L81419 77169
L81386 77131
L81358 77056
L81386 76831
L81433 76756
L81475 76719
L81555 76681
L81705 76681
L81775 76719
" />
<path d="M82689 77206
L82787 76419
" />
<path d="M82750 76719
L82829 76681
L82979 76681
L83050 76719
L83083 76756
L83111 76831
L83083 77056
L83036 77131
L82994 77169
L82914 77206
L82764 77206
L82694 77169
" />
<path d="M83514 77206
L83443 77169
L83411 77131
L83383 77056
L83411 76831
L83458 76756
L83500 76719
L83579 76681
L83692 76681
L83762 76719
L83795 76756
L83823 76831
L83795 77056
L83748 77131
L83706 77169
L83626 77206
L83514 77206
" />
<path d="M84451 77206
L84503 76794
L84475 76719
L84404 76681
L84254 76681
L84175 76719
" />
<path d="M84456 77169
L84376 77206
L84189 77206
L84118 77169
L84090 77094
L84100 77019
L84146 76944
L84226 76906
L84414 76906
L84493 76869
" />
<path d="M84826 77206
L84892 76681
" />
<path d="M84873 76831
L84920 76756
L84962 76719
L85042 76681
L85117 76681
" />
<path d="M85651 77206
L85749 76419
" />
<path d="M85656 77169
L85576 77206
L85426 77206
L85356 77169
L85323 77131
L85295 77056
L85323 76831
L85370 76756
L85412 76719
L85492 76681
L85642 76681
L85712 76719
" />
</g>
<g style="fill:#000000; fill-opacity:0.0; 
stroke:#000000; stroke-width:39.3701; stroke-opacity:1; 
stroke-linecap:round; stroke-linejoin:round;">
</g>
<g style="fill:#000000; fill-opacity:0.0; 
stroke:#000000; stroke-width:59.0551; stroke-opacity:1; 
stroke-linecap:round; stroke-linejoin:round;">
<path d="M63487 75390
L63290 75390
" />
<path d="M63290 75700
L63290 75109
L63571 75109
" />
<path d="M63796 75700
L63796 75306
" />
<path d="M63796 75109
L63768 75137
L63796 75165
L63824 75137
L63796 75109
L63796 75165
" />
<path d="M64161 75700
L64105 75672
L64077 75615
L64077 75109
" />
<path d="M64611 75672
L64555 75700
L64443 75700
L64386 75672
L64358 75615
L64358 75390
L64386 75334
L64443 75306
L64555 75306
L64611 75334
L64640 75390
L64640 75447
L64358 75503
" />
<path d="M64893 75643
L64921 75672
L64893 75700
L64865 75672
L64893 75643
L64893 75700
" />
<path d="M64893 75334
L64921 75362
L64893 75390
L64865 75362
L64893 75334
L64893 75390
" />
<path d="M65877 75306
L65877 75700
" />
<path d="M65736 75081
L65596 75503
L65961 75503
" />
<path d="M66299 75109
L66355 75109
L66411 75137
L66439 75165
L66467 75222
L66496 75334
L66496 75475
L66467 75587
L66439 75643
L66411 75672
L66355 75700
L66299 75700
L66242 75672
L66214 75643
L66186 75587
L66158 75475
L66158 75334
L66186 75222
L66214 75165
L66242 75137
L66299 75109
" />
<path d="M66749 75475
L67199 75475
" />
<path d="M67733 75672
L67677 75700
L67564 75700
L67508 75672
L67480 75643
L67452 75587
L67452 75419
L67480 75362
L67508 75334
L67564 75306
L67677 75306
L67733 75334
" />
<path d="M67986 75700
L67986 75109
" />
<path d="M68239 75700
L68239 75390
L68211 75334
L68155 75306
L68070 75306
L68014 75334
L67986 75362
" />
<path d="M68773 75700
L68773 75390
L68745 75334
L68689 75306
L68577 75306
L68520 75334
" />
<path d="M68773 75672
L68717 75700
L68577 75700
L68520 75672
L68492 75615
L68492 75559
L68520 75503
L68577 75475
L68717 75475
L68773 75447
" />
<path d="M69055 75306
L69055 75700
" />
<path d="M69055 75362
L69083 75334
L69139 75306
L69223 75306
L69280 75334
L69308 75390
L69308 75700
" />
<path d="M69589 75306
L69589 75700
" />
<path d="M69589 75362
L69617 75334
L69673 75306
L69758 75306
L69814 75334
L69842 75390
L69842 75700
" />
<path d="M70348 75672
L70292 75700
L70179 75700
L70123 75672
L70095 75615
L70095 75390
L70123 75334
L70179 75306
L70292 75306
L70348 75334
L70376 75390
L70376 75447
L70095 75503
" />
<path d="M70714 75700
L70658 75672
L70629 75615
L70629 75109
" />
<path d="M71389 75700
L71389 75109
" />
<path d="M71389 75390
L71726 75390
" />
<path d="M71726 75700
L71726 75109
" />
<path d="M71923 75109
L72120 75700
L72317 75109
" />
<path d="M72935 75672
L72992 75700
L73104 75700
L73160 75672
L73188 75615
L73188 75587
L73160 75531
L73104 75503
L73020 75503
L72964 75475
L72935 75419
L72935 75390
L72964 75334
L73020 75306
L73104 75306
L73160 75334
" />
<path d="M73385 75306
L73498 75700
L73610 75419
L73723 75700
L73835 75306
" />
<path d="M74060 75700
L74060 75306
" />
<path d="M74060 75109
L74032 75137
L74060 75165
L74088 75137
L74060 75109
L74060 75165
" />
<path d="M74257 75306
L74482 75306
" />
<path d="M74341 75109
L74341 75615
L74370 75672
L74426 75700
L74482 75700
" />
<path d="M74932 75672
L74876 75700
L74763 75700
L74707 75672
L74679 75643
L74651 75587
L74651 75419
L74679 75362
L74707 75334
L74763 75306
L74876 75306
L74932 75334
" />
<path d="M75185 75700
L75185 75109
" />
<path d="M75438 75700
L75438 75390
L75410 75334
L75354 75306
L75269 75306
L75213 75334
L75185 75362
" />
<path d="M75719 75700
L75719 75306
" />
<path d="M75719 75109
L75691 75137
L75719 75165
L75748 75137
L75719 75109
L75719 75165
" />
<path d="M76001 75306
L76001 75700
" />
<path d="M76001 75362
L76029 75334
L76085 75306
L76169 75306
L76226 75334
L76254 75390
L76254 75700
" />
<path d="M76788 75306
L76788 75784
L76760 75840
L76732 75868
L76676 75897
L76591 75897
L76535 75868
" />
<path d="M76788 75672
L76732 75700
L76619 75700
L76563 75672
L76535 75643
L76507 75587
L76507 75419
L76535 75362
L76563 75334
L76619 75306
L76732 75306
L76788 75334
" />
<path d="M77519 75700
L77519 75109
" />
<path d="M77519 75334
L77575 75306
L77688 75306
L77744 75334
L77772 75362
L77800 75419
L77800 75587
L77772 75643
L77744 75672
L77688 75700
L77575 75700
L77519 75672
" />
<path d="M78138 75700
L78082 75672
L78053 75643
L78025 75587
L78025 75419
L78053 75362
L78082 75334
L78138 75306
L78222 75306
L78278 75334
L78307 75362
L78335 75419
L78335 75587
L78307 75643
L78278 75672
L78222 75700
L78138 75700
" />
<path d="M78841 75700
L78841 75390
L78813 75334
L78757 75306
L78644 75306
L78588 75334
" />
<path d="M78841 75672
L78785 75700
L78644 75700
L78588 75672
L78560 75615
L78560 75559
L78588 75503
L78644 75475
L78785 75475
L78841 75447
" />
<path d="M79122 75700
L79122 75306
" />
<path d="M79122 75419
L79150 75362
L79178 75334
L79235 75306
L79291 75306
" />
<path d="M79741 75700
L79741 75109
" />
<path d="M79741 75672
L79685 75700
L79572 75700
L79516 75672
L79488 75643
L79460 75587
L79460 75419
L79488 75362
L79516 75334
L79572 75306
L79685 75306
L79741 75334
" />
<path d="M80022 75643
L80050 75672
L80022 75700
L79994 75672
L80022 75643
L80022 75700
" />
<path d="M80303 75700
L80303 75109
" />
<path d="M80359 75475
L80528 75700
" />
<path d="M80528 75306
L80303 75531
" />
<path d="M80781 75700
L80781 75306
" />
<path d="M80781 75109
L80753 75137
L80781 75165
L80809 75137
L80781 75109
L80781 75165
" />
<path d="M81316 75672
L81259 75700
L81147 75700
L81091 75672
L81062 75643
L81034 75587
L81034 75419
L81062 75362
L81091 75334
L81147 75306
L81259 75306
L81316 75334
" />
<path d="M81822 75700
L81822 75390
L81794 75334
L81737 75306
L81625 75306
L81569 75334
" />
<path d="M81822 75672
L81766 75700
L81625 75700
L81569 75672
L81541 75615
L81541 75559
L81569 75503
L81625 75475
L81766 75475
L81822 75447
" />
<path d="M82356 75700
L82356 75109
" />
<path d="M82356 75672
L82300 75700
L82187 75700
L82131 75672
L82103 75643
L82075 75587
L82075 75419
L82103 75362
L82131 75334
L82187 75306
L82300 75306
L82356 75334
" />
<path d="M82497 75756
L82947 75756
" />
<path d="M83087 75306
L83087 75897
" />
<path d="M83087 75334
L83143 75306
L83256 75306
L83312 75334
L83340 75362
L83368 75419
L83368 75587
L83340 75643
L83312 75672
L83256 75700
L83143 75700
L83087 75672
" />
<path d="M83875 75672
L83818 75700
L83706 75700
L83650 75672
L83622 75643
L83593 75587
L83593 75419
L83622 75362
L83650 75334
L83706 75306
L83818 75306
L83875 75334
" />
<path d="M84128 75700
L84128 75109
" />
<path d="M84128 75334
L84184 75306
L84296 75306
L84353 75334
L84381 75362
L84409 75419
L84409 75587
L84381 75643
L84353 75672
L84296 75700
L84184 75700
L84128 75672
" />
</g>
<g style="fill:#000000; fill-opacity:0.0; 
stroke:#000000; stroke-width:39.3701; stroke-opacity:1; 
stroke-linecap:round; stroke-linejoin:round;">
</g>
<g style="fill:#000000; fill-opacity:0.0; 
stroke:#000000; stroke-width:59.0551; stroke-opacity:1; 
stroke-linecap:round; stroke-linejoin:round;">
<path d="M62755 73779
L105275 73779
" />
</g>
<g style="fill:#000000; fill-opacity:0.0; 
stroke:#000000; stroke-width:39.3701; stroke-opacity:1; 
stroke-linecap:round; stroke-linejoin:round;">
</g>
<g style="fill:#000000; fill-opacity:0.0; 
stroke:#000000; stroke-width:59.0551; stroke-opacity:1; 
stroke-linecap:round; stroke-linejoin:round;">
<path d="M63262 74609
L63346 74637
L63487 74637
L63543 74609
L63571 74580
L63599 74524
L63599 74468
L63571 74412
L63543 74384
L63487 74356
L63374 74327
L63318 74299
L63290 74271
L63262 74215
L63262 74159
L63290 74102
L63318 74074
L63374 74046
L63515 74046
L63599 74074
" />
<path d="M63852 74637
L63852 74046
" />
<path d="M64105 74637
L64105 74327
L64077 74271
L64021 74243
L63937 74243
L63880 74271
L63852 74299
" />
<path d="M64611 74609
L64555 74637
L64443 74637
L64386 74609
L64358 74552
L64358 74327
L64386 74271
L64443 74243
L64555 74243
L64611 74271
L64640 74327
L64640 74384
L64358 74440
" />
<path d="M65118 74609
L65061 74637
L64949 74637
L64893 74609
L64865 74552
L64865 74327
L64893 74271
L64949 74243
L65061 74243
L65118 74271
L65146 74327
L65146 74384
L64865 74440
" />
<path d="M65314 74243
L65539 74243
" />
<path d="M65399 74046
L65399 74552
L65427 74609
L65483 74637
L65539 74637
" />
<path d="M65736 74580
L65764 74609
L65736 74637
L65708 74609
L65736 74580
L65736 74637
" />
<path d="M65736 74271
L65764 74299
L65736 74327
L65708 74299
L65736 74271
L65736 74327
" />
</g>
<g style="fill:#000000; fill-opacity:0.0; 
stroke:#000000; stroke-width:39.3701; stroke-opacity:1; 
stroke-linecap:round; stroke-linejoin:round;">
</g>
<g style="fill:#000000; fill-opacity:0.0; 
stroke:#000000; stroke-width:118.11; stroke-opacity:1; 
stroke-linecap:round; stroke-linejoin:round;">
<path d="M63627 73456
L63430 73174
" />
<path d="M63290 73456
L63290 72865
L63515 72865
L63571 72893
L63599 72921
L63627 72978
L63627 73062
L63599 73118
L63571 73146
L63515 73174
L63290 73174
" />
<path d="M63824 73062
L63965 73456
" />
<path d="M64105 73062
L63965 73456
L63908 73596
L63880 73624
L63824 73652
" />
<path d="M64583 73456
L64583 73146
L64555 73090
L64499 73062
L64386 73062
L64330 73090
" />
<path d="M64583 73428
L64527 73456
L64386 73456
L64330 73428
L64302 73371
L64302 73315
L64330 73259
L64386 73231
L64527 73231
L64583 73203
" />
<path d="M64865 73062
L64865 73456
" />
<path d="M64865 73118
L64893 73090
L64949 73062
L65033 73062
L65089 73090
L65118 73146
L65118 73456
" />
<path d="M66046 73146
L65849 73146
" />
<path d="M65849 73456
L65849 72865
L66130 72865
" />
<path d="M66439 73456
L66383 73428
L66355 73399
L66327 73343
L66327 73174
L66355 73118
L66383 73090
L66439 73062
L66524 73062
L66580 73090
L66608 73118
L66636 73174
L66636 73343
L66608 73399
L66580 73428
L66524 73456
L66439 73456
" />
<path d="M66889 73456
L66889 72865
" />
<path d="M66889 73090
L66946 73062
L67058 73062
L67114 73090
L67142 73118
L67170 73174
L67170 73343
L67142 73399
L67114 73428
L67058 73456
L66946 73456
L66889 73428
" />
<path d="M67649 73428
L67592 73456
L67480 73456
L67424 73428
L67395 73371
L67395 73146
L67424 73090
L67480 73062
L67592 73062
L67649 73090
L67677 73146
L67677 73203
L67395 73259
" />
<path d="M68014 73456
L67958 73428
L67930 73371
L67930 72865
" />
</g>
<g style="fill:#000000; fill-opacity:0.0; 
stroke:#000000; stroke-width:39.3701; stroke-opacity:1; 
stroke-linecap:round; stroke-linejoin:round;">
</g>
<g style="fill:#000000; fill-opacity:0.0; 
stroke:#000000; stroke-width:59.0551; stroke-opacity:1; 
stroke-linecap:round; stroke-linejoin:round;">
<path d="M70629 77716
L70629 78897
" />
</g>
<g style="fill:#000000; fill-opacity:0.0; 
stroke:#000000; stroke-width:39.3701; stroke-opacity:1; 
stroke-linecap:round; stroke-linejoin:round;">
</g>
<g style="fill:#000000; fill-opacity:0.0; 
stroke:#000000; stroke-width:59.0551; stroke-opacity:1; 
stroke-linecap:round; stroke-linejoin:round;">
<path d="M95826 77716
L95826 80275
" />
</g>
<g style="fill:#000000; fill-opacity:0.0; 
stroke:#000000; stroke-width:150; stroke-opacity:1; 
stroke-linecap:round; stroke-linejoin:round;">
<path d="M43102 10045
L10102 10045
" />
<path d="M43102 58045
L43102 10045
" />
<path d="M10102 58045
L43102 58045
" />
<path d="M10102 10045
L10102 58045
" />
</g>
<g style="fill:#000000; fill-opacity:0.0; 
stroke:#000000; stroke-width:0; stroke-opacity:1; 
stroke-linecap:round; stroke-linejoin:round;">
</g>
<g style="fill:#000000; fill-opacity:1.0; 
stroke:#000000; stroke-width:0; stroke-opacity:1; 
stroke-linecap:round; stroke-linejoin:round;">
<polyline style="fill-rule:evenodd;"
points="11926,18392
13402,18392
13402,19396
11926,19396
11926,18392
" /> 
<polyline style="fill-rule:evenodd;"
points="11926,20518
13402,20518
13402,21522
11926,21522
11926,20518
" /> 
<polyline style="fill-rule:evenodd;"
points="39964,46832
39964,47632
39364,47632
39364,46832
39964,46832
" /> 
<polyline style="fill-rule:evenodd;"
points="38964,46832
38964,47632
38364,47632
38364,46832
38964,46832
" /> 
<polyline style="fill-rule:evenodd;"
points="37964,46832
37964,47632
37364,47632
37364,46832
37964,46832
" /> 
<polyline style="fill-rule:evenodd;"
points="36964,46832
36964,47632
36364,47632
36364,46832
36964,46832
" /> 
<polyline style="fill-rule:evenodd;"
points="36964,49832
36964,50632
36364,50632
36364,49832
36964,49832
" /> 
<polyline style="fill-rule:evenodd;"
points="37964,49832
37964,50632
37364,50632
37364,49832
37964,49832
" /> 
<polyline style="fill-rule:evenodd;"
points="38964,49832
38964,50632
38364,50632
38364,49832
38964,49832
" /> 
<polyline style="fill-rule:evenodd;"
points="39964,49832
39964,50632
39364,50632
39364,49832
39964,49832
" /> 
<polyline style="fill-rule:evenodd;"
points="39964,39832
39964,40632
39364,40632
39364,39832
39964,39832
" /> 
<polyline style="fill-rule:evenodd;"
points="38964,39832
38964,40632
38364,40632
38364,39832
38964,39832
" /> 
<polyline style="fill-rule:evenodd;"
points="37964,39832
37964,40632
37364,40632
37364,39832
37964,39832
" /> 
<polyline style="fill-rule:evenodd;"
points="36964,39832
36964,40632
36364,40632
36364,39832
36964,39832
" /> 
<polyline style="fill-rule:evenodd;"
points="36964,42832
36964,43632
36364,43632
36364,42832
36964,42832
" /> 
<polyline style="fill-rule:evenodd;"
points="37964,42832
37964,43632
37364,43632
37364,42832
37964,42832
" /> 
<polyline style="fill-rule:evenodd;"
points="38964,42832
38964,43632
38364,43632
38364,42832
38964,42832
" /> 
<polyline style="fill-rule:evenodd;"
points="39964,42832
39964,43632
39364,43632
39364,42832
39964,42832
" /> 
<polyline style="fill-rule:evenodd;"
points="39964,32832
39964,33632
39364,33632
39364,32832
39964,32832
" /> 
<polyline style="fill-rule:evenodd;"
points="38964,32832
38964,33632
38364,33632
38364,32832
38964,32832
" /> 
<polyline style="fill-rule:evenodd;"
points="37964,32832
37964,33632
37364,33632
37364,32832
37964,32832
" /> 
<polyline style="fill-rule:evenodd;"
points="36964,32832
36964,33632
36364,33632
36364,32832
36964,32832
" /> 
<polyline style="fill-rule:evenodd;"
points="36964,35832
36964,36632
36364,36632
36364,35832
36964,35832
" /> 
<polyline style="fill-rule:evenodd;"
points="37964,35832
37964,36632
37364,36632
37364,35832
37964,35832
" /> 
<polyline style="fill-rule:evenodd;"
points="38964,35832
38964,36632
38364,36632
38364,35832
38964,35832
" /> 
<polyline style="fill-rule:evenodd;"
points="39964,35832
39964,36632
39364,36632
39364,35832
39964,35832
" /> 
<polyline style="fill-rule:evenodd;"
points="39964,25832
39964,26632
39364,26632
39364,25832
39964,25832
" /> 
<polyline style="fill-rule:evenodd;"
points="38964,25832
38964,26632
38364,26632
38364,25832
38964,25832
" /> 
<polyline style="fill-rule:evenodd;"
points="37964,25832
37964,26632
37364,26632
37364,25832
37964,25832
" /> 
<polyline style="fill-rule:evenodd;"
points="36964,25832
36964,26632
36364,26632
36364,25832
36964,25832
" /> 
<polyline style="fill-rule:evenodd;"
points="36964,28832
36964,29632
36364,29632
36364,28832
36964,28832
" /> 
<polyline style="fill-rule:evenodd;"
points="37964,28832
37964,29632
37364,29632
37364,28832
37964,28832
" /> 
<polyline style="fill-rule:evenodd;"
points="38964,28832
38964,29632
38364,29632
38364,28832
38964,28832
" /> 
<polyline style="fill-rule:evenodd;"
points="39964,28832
39964,29632
39364,29632
39364,28832
39964,28832
" /> 
<polyline style="fill-rule:evenodd;"
points="33964,46832
33964,47632
33364,47632
33364,46832
33964,46832
" /> 
<polyline style="fill-rule:evenodd;"
points="32964,46832
32964,47632
32364,47632
32364,46832
32964,46832
" /> 
<polyline style="fill-rule:evenodd;"
points="31964,46832
31964,47632
31364,47632
31364,46832
31964,46832
" /> 
<polyline style="fill-rule:evenodd;"
points="30964,46832
30964,47632
30364,47632
30364,46832
30964,46832
" /> 
<polyline style="fill-rule:evenodd;"
points="30964,49832
30964,50632
30364,50632
30364,49832
30964,49832
" /> 
<polyline style="fill-rule:evenodd;"
points="31964,49832
31964,50632
31364,50632
31364,49832
31964,49832
" /> 
<polyline style="fill-rule:evenodd;"
points="32964,49832
32964,50632
32364,50632
32364,49832
32964,49832
" /> 
<polyline style="fill-rule:evenodd;"
points="33964,49832
33964,50632
33364,50632
33364,49832
33964,49832
" /> 
<polyline style="fill-rule:evenodd;"
points="33964,39832
33964,40632
33364,40632
33364,39832
33964,39832
" /> 
<polyline style="fill-rule:evenodd;"
points="32964,39832
32964,40632
32364,40632
32364,39832
32964,39832
" /> 
<polyline style="fill-rule:evenodd;"
points="31964,39832
31964,40632
31364,40632
31364,39832
31964,39832
" /> 
<polyline style="fill-rule:evenodd;"
points="30964,39832
30964,40632
30364,40632
30364,39832
30964,39832
" /> 
<polyline style="fill-rule:evenodd;"
points="30964,42832
30964,43632
30364,43632
30364,42832
30964,42832
" /> 
<polyline style="fill-rule:evenodd;"
points="31964,42832
31964,43632
31364,43632
31364,42832
31964,42832
" /> 
<polyline style="fill-rule:evenodd;"
points="32964,42832
32964,43632
32364,43632
32364,42832
32964,42832
" /> 
<polyline style="fill-rule:evenodd;"
points="33964,42832
33964,43632
33364,43632
33364,42832
33964,42832
" /> 
<polyline style="fill-rule:evenodd;"
points="33964,32832
33964,33632
33364,33632
33364,32832
33964,32832
" /> 
<polyline style="fill-rule:evenodd;"
points="32964,32832
32964,33632
32364,33632
32364,32832
32964,32832
" /> 
<polyline style="fill-rule:evenodd;"
points="31964,32832
31964,33632
31364,33632
31364,32832
31964,32832
" /> 
<polyline style="fill-rule:evenodd;"
points="30964,32832
30964,33632
30364,33632
30364,32832
30964,32832
" /> 
<polyline style="fill-rule:evenodd;"
points="30964,35832
30964,36632
30364,36632
30364,35832
30964,35832
" /> 
<polyline style="fill-rule:evenodd;"
points="31964,35832
31964,36632
31364,36632
31364,35832
31964,35832
" /> 
<polyline style="fill-rule:evenodd;"
points="32964,35832
32964,36632
32364,36632
32364,35832
32964,35832
" /> 
<polyline style="fill-rule:evenodd;"
points="33964,35832
33964,36632
33364,36632
33364,35832
33964,35832
" /> 
<polyline style="fill-rule:evenodd;"
points="33964,25832
33964,26632
33364,26632
33364,25832
33964,25832
" /> 
<polyline style="fill-rule:evenodd;"
points="32964,25832
32964,26632
32364,26632
32364,25832
32964,25832
" /> 
<polyline style="fill-rule:evenodd;"
points="31964,25832
31964,26632
31364,26632
31364,25832
31964,25832
" /> 
<polyline style="fill-rule:evenodd;"
points="30964,25832
30964,26632
30364,26632
30364,25832
30964,25832
" /> 
<polyline style="fill-rule:evenodd;"
points="30964,28832
30964,29632
30364,29632
30364,28832
30964,28832
" /> 
<polyline style="fill-rule:evenodd;"
points="31964,28832
31964,29632
31364,29632
31364,28832
31964,28832
" /> 
<polyline style="fill-rule:evenodd;"
points="32964,28832
32964,29632
32364,29632
32364,28832
32964,28832
" /> 
<polyline style="fill-rule:evenodd;"
points="33964,28832
33964,29632
33364,29632
33364,28832
33964,28832
" /> 
<polyline style="fill-rule:evenodd;"
points="27964,46832
27964,47632
27364,47632
27364,46832
27964,46832
" /> 
<polyline style="fill-rule:evenodd;"
points="26964,46832
26964,47632
26364,47632
26364,46832
26964,46832
" /> 
<polyline style="fill-rule:evenodd;"
points="25964,46832
25964,47632
25364,47632
25364,46832
25964,46832
" /> 
<polyline style="fill-rule:evenodd;"
points="24964,46832
24964,47632
24364,47632
24364,46832
24964,46832
" /> 
<polyline style="fill-rule:evenodd;"
points="24964,49832
24964,50632
24364,50632
24364,49832
24964,49832
" /> 
<polyline style="fill-rule:evenodd;"
points="25964,49832
25964,50632
25364,50632
25364,49832
25964,49832
" /> 
<polyline style="fill-rule:evenodd;"
points="26964,49832
26964,50632
26364,50632
26364,49832
26964,49832
" /> 
<polyline style="fill-rule:evenodd;"
points="27964,49832
27964,50632
27364,50632
27364,49832
27964,49832
" /> 
<polyline style="fill-rule:evenodd;"
points="27964,39832
27964,40632
27364,40632
27364,39832
27964,39832
" /> 
<polyline style="fill-rule:evenodd;"
points="26964,39832
26964,40632
26364,40632
26364,39832
26964,39832
" /> 
<polyline style="fill-rule:evenodd;"
points="25964,39832
25964,40632
25364,40632
25364,39832
25964,39832
" /> 
<polyline style="fill-rule:evenodd;"
points="24964,39832
24964,40632
24364,40632
24364,39832
24964,39832
" /> 
<polyline style="fill-rule:evenodd;"
points="24964,42832
24964,43632
24364,43632
24364,42832
24964,42832
" /> 
<polyline style="fill-rule:evenodd;"
points="25964,42832
25964,43632
25364,43632
25364,42832
25964,42832
" /> 
<polyline style="fill-rule:evenodd;"
points="26964,42832
26964,43632
26364,43632
26364,42832
26964,42832
" /> 
<polyline style="fill-rule:evenodd;"
points="27964,42832
27964,43632
27364,43632
27364,42832
27964,42832
" /> 
<polyline style="fill-rule:evenodd;"
points="27964,32832
27964,33632
27364,33632
27364,32832
27964,32832
" /> 
<polyline style="fill-rule:evenodd;"
points="26964,32832
26964,33632
26364,33632
26364,32832
26964,32832
" /> 
<polyline style="fill-rule:evenodd;"
points="25964,32832
25964,33632
25364,33632
25364,32832
25964,32832
" /> 
<polyline style="fill-rule:evenodd;"
points="24964,32832
24964,33632
24364,33632
24364,32832
24964,32832
" /> 
<polyline style="fill-rule:evenodd;"
points="24964,35832
24964,36632
24364,36632
24364,35832
24964,35832
" /> 
<polyline style="fill-rule:evenodd;"
points="25964,35832
25964,36632
25364,36632
25364,35832
25964,35832
" /> 
<polyline style="fill-rule:evenodd;"
points="26964,35832
26964,36632
26364,36632
26364,35832
26964,35832
" /> 
<polyline style="fill-rule:evenodd;"
points="27964,35832
27964,36632
27364,36632
27364,35832
27964,35832
" /> 
<polyline style="fill-rule:evenodd;"
points="27964,25832
27964,26632
27364,26632
27364,25832
27964,25832
" /> 
<polyline style="fill-rule:evenodd;"
points="26964,25832
26964,26632
26364,26632
26364,25832
26964,25832
" /> 
<polyline style="fill-rule:evenodd;"
points="25964,25832
25964,26632
25364,26632
25364,25832
25964,25832
" /> 
<polyline style="fill-rule:evenodd;"
points="24964,25832
24964,26632
24364,26632
24364,25832
24964,25832
" /> 
<polyline style="fill-rule:evenodd;"
points="24964,28832
24964,29632
24364,29632
24364,28832
24964,28832
" /> 
<polyline style="fill-rule:evenodd;"
points="25964,28832
25964,29632
25364,29632
25364,28832
25964,28832
" /> 
<polyline style="fill-rule:evenodd;"
points="26964,28832
26964,29632
26364,29632
26364,28832
26964,28832
" /> 
<polyline style="fill-rule:evenodd;"
points="27964,28832
27964,29632
27364,29632
27364,28832
27964,28832
" /> 
<polyline style="fill-rule:evenodd;"
points="21964,46832
21964,47632
21364,47632
21364,46832
21964,46832
" /> 
<polyline style="fill-rule:evenodd;"
points="20964,46832
20964,47632
20364,47632
20364,46832
20964,46832
" /> 
<polyline style="fill-rule:evenodd;"
points="19964,46832
19964,47632
19364,47632
19364,46832
19964,46832
" /> 
<polyline style="fill-rule:evenodd;"
points="18964,46832
18964,47632
18364,47632
18364,46832
18964,46832
" /> 
<polyline style="fill-rule:evenodd;"
points="18964,49832
18964,50632
18364,50632
18364,49832
18964,49832
" /> 
<polyline style="fill-rule:evenodd;"
points="19964,49832
19964,50632
19364,50632
19364,49832
19964,49832
" /> 
<polyline style="fill-rule:evenodd;"
points="20964,49832
20964,50632
20364,50632
20364,49832
20964,49832
" /> 
<polyline style="fill-rule:evenodd;"
points="21964,49832
21964,50632
21364,50632
21364,49832
21964,49832
" /> 
<polyline style="fill-rule:evenodd;"
points="21964,39832
21964,40632
21364,40632
21364,39832
21964,39832
" /> 
<polyline style="fill-rule:evenodd;"
points="20964,39832
20964,40632
20364,40632
20364,39832
20964,39832
" /> 
<polyline style="fill-rule:evenodd;"
points="19964,39832
19964,40632
19364,40632
19364,39832
19964,39832
" /> 
<polyline style="fill-rule:evenodd;"
points="18964,39832
18964,40632
18364,40632
18364,39832
18964,39832
" /> 
<polyline style="fill-rule:evenodd;"
points="18964,42832
18964,43632
18364,43632
18364,42832
18964,42832
" /> 
<polyline style="fill-rule:evenodd;"
points="19964,42832
19964,43632
19364,43632
19364,42832
19964,42832
" /> 
<polyline style="fill-rule:evenodd;"
points="20964,42832
20964,43632
20364,43632
20364,42832
20964,42832
" /> 
<polyline style="fill-rule:evenodd;"
points="21964,42832
21964,43632
21364,43632
21364,42832
21964,42832
" /> 
<polyline style="fill-rule:evenodd;"
points="21964,32832
21964,33632
21364,33632
21364,32832
21964,32832
" /> 
<polyline style="fill-rule:evenodd;"
points="20964,32832
20964,33632
20364,33632
20364,32832
20964,32832
" /> 
<polyline style="fill-rule:evenodd;"
points="19964,32832
19964,33632
19364,33632
19364,32832
19964,32832
" /> 
<polyline style="fill-rule:evenodd;"
points="18964,32832
18964,33632
18364,33632
18364,32832
18964,32832
" /> 
<polyline style="fill-rule:evenodd;"
points="18964,35832
18964,36632
18364,36632
18364,35832
18964,35832
" /> 
<polyline style="fill-rule:evenodd;"
points="19964,35832
19964,36632
19364,36632
19364,35832
19964,35832
" /> 
<polyline style="fill-rule:evenodd;"
points="20964,35832
20964,36632
20364,36632
20364,35832
20964,35832
" /> 
<polyline style="fill-rule:evenodd;"
points="21964,35832
21964,36632
21364,36632
21364,35832
21964,35832
" /> 
<polyline style="fill-rule:evenodd;"
points="21964,25832
21964,26632
21364,26632
21364,25832
21964,25832
" /> 
<polyline style="fill-rule:evenodd;"
points="20964,25832
20964,26632
20364,26632
20364,25832
20964,25832
" /> 
<polyline style="fill-rule:evenodd;"
points="19964,25832
19964,26632
19364,26632
19364,25832
19964,25832
" /> 
<polyline style="fill-rule:evenodd;"
points="18964,25832
18964,26632
18364,26632
18364,25832
18964,25832
" /> 
<polyline style="fill-rule:evenodd;"
points="18964,28832
18964,29632
18364,29632
18364,28832
18964,28832
" /> 
<polyline style="fill-rule:evenodd;"
points="19964,28832
19964,29632
19364,29632
19364,28832
19964,28832
" /> 
<polyline style="fill-rule:evenodd;"
points="20964,28832
20964,29632
20364,29632
20364,28832
20964,28832
" /> 
<polyline style="fill-rule:evenodd;"
points="21964,28832
21964,29632
21364,29632
21364,28832
21964,28832
" /> 
<polyline style="fill-rule:evenodd;"
points="15964,46832
15964,47632
15364,47632
15364,46832
15964,46832
" /> 
<polyline style="fill-rule:evenodd;"
points="14964,46832
14964,47632
14364,47632
14364,46832
14964,46832
" /> 
<polyline style="fill-rule:evenodd;"
points="13964,46832
13964,47632
13364,47632
13364,46832
13964,46832
" /> 
<polyline style="fill-rule:evenodd;"
points="12964,46832
12964,47632
12364,47632
12364,46832
12964,46832
" /> 
<polyline style="fill-rule:evenodd;"
points="12964,49832
12964,50632
12364,50632
12364,49832
12964,49832
" /> 
<polyline style="fill-rule:evenodd;"
points="13964,49832
13964,50632
13364,50632
13364,49832
13964,49832
" /> 
<polyline style="fill-rule:evenodd;"
points="14964,49832
14964,50632
14364,50632
14364,49832
14964,49832
" /> 
<polyline style="fill-rule:evenodd;"
points="15964,49832
15964,50632
15364,50632
15364,49832
15964,49832
" /> 
<polyline style="fill-rule:evenodd;"
points="15964,39832
15964,40632
15364,40632
15364,39832
15964,39832
" /> 
<polyline style="fill-rule:evenodd;"
points="14964,39832
14964,40632
14364,40632
14364,39832
14964,39832
" /> 
<polyline style="fill-rule:evenodd;"
points="13964,39832
13964,40632
13364,40632
13364,39832
13964,39832
" /> 
<polyline style="fill-rule:evenodd;"
points="12964,39832
12964,40632
12364,40632
12364,39832
12964,39832
" /> 
<polyline style="fill-rule:evenodd;"
points="12964,42832
12964,43632
12364,43632
12364,42832
12964,42832
" /> 
<polyline style="fill-rule:evenodd;"
points="13964,42832
13964,43632
13364,43632
13364,42832
13964,42832
" /> 
<polyline style="fill-rule:evenodd;"
points="14964,42832
14964,43632
14364,43632
14364,42832
14964,42832
" /> 
<polyline style="fill-rule:evenodd;"
points="15964,42832
15964,43632
15364,43632
15364,42832
15964,42832
" /> 
<polyline style="fill-rule:evenodd;"
points="15964,32832
15964,33632
15364,33632
15364,32832
15964,32832
" /> 
<polyline style="fill-rule:evenodd;"
points="14964,32832
14964,33632
14364,33632
14364,32832
14964,32832
" /> 
<polyline style="fill-rule:evenodd;"
points="13964,32832
13964,33632
13364,33632
13364,32832
13964,32832
" /> 
<polyline style="fill-rule:evenodd;"
points="12964,32832
12964,33632
12364,33632
12364,32832
12964,32832
" /> 
<polyline style="fill-rule:evenodd;"
points="12964,35832
12964,36632
12364,36632
12364,35832
12964,35832
" /> 
<polyline style="fill-rule:evenodd;"
points="13964,35832
13964,36632
13364,36632
13364,35832
13964,35832
" /> 
<polyline style="fill-rule:evenodd;"
points="14964,35832
14964,36632
14364,36632
14364,35832
14964,35832
" /> 
<polyline style="fill-rule:evenodd;"
points="15964,35832
15964,36632
15364,36632
15364,35832
15964,35832
" /> 
<polyline style="fill-rule:evenodd;"
points="15964,25832
15964,26632
15364,26632
15364,25832
15964,25832
" /> 
<polyline style="fill-rule:evenodd;"
points="14964,25832
14964,26632
14364,26632
14364,25832
14964,25832
" /> 
<polyline style="fill-rule:evenodd;"
points="13964,25832
13964,26632
13364,26632
13364,25832
13964,25832
" /> 
<polyline style="fill-rule:evenodd;"
points="12964,25832
12964,26632
12364,26632
12364,25832
12964,25832
" /> 
<polyline style="fill-rule:evenodd;"
points="12964,28832
12964,29632
12364,29632
12364,28832
12964,28832
" /> 
<polyline style="fill-rule:evenodd;"
points="13964,28832
13964,29632
13364,29632
13364,28832
13964,28832
" /> 
<polyline style="fill-rule:evenodd;"
points="14964,28832
14964,29632
14364,29632
14364,28832
14964,28832
" /> 
<polyline style="fill-rule:evenodd;"
points="15964,28832
15964,29632
15364,29632
15364,28832
15964,28832
" /> 
<polyline style="fill-rule:evenodd;"
points="36302,14120
36302,14570
36102,14570
36102,14120
36302,14120
" /> 
<polyline style="fill-rule:evenodd;"
points="35802,14120
35802,14570
35602,14570
35602,14120
35802,14120
" /> 
<polyline style="fill-rule:evenodd;"
points="35302,14120
35302,14570
35102,14570
35102,14120
35302,14120
" /> 
<polyline style="fill-rule:evenodd;"
points="34802,14120
34802,14570
34602,14570
34602,14120
34802,14120
" /> 
<polyline style="fill-rule:evenodd;"
points="34302,14120
34302,14570
34102,14570
34102,14120
34302,14120
" /> 
<polyline style="fill-rule:evenodd;"
points="33802,14120
33802,14570
33602,14570
33602,14120
33802,14120
" /> 
<polyline style="fill-rule:evenodd;"
points="33302,14120
33302,14570
33102,14570
33102,14120
33302,14120
" /> 
<polyline style="fill-rule:evenodd;"
points="33302,16220
33302,16670
33102,16670
33102,16220
33302,16220
" /> 
<polyline style="fill-rule:evenodd;"
points="33802,16220
33802,16670
33602,16670
33602,16220
33802,16220
" /> 
<polyline style="fill-rule:evenodd;"
points="34302,16220
34302,16670
34102,16670
34102,16220
34302,16220
" /> 
<polyline style="fill-rule:evenodd;"
points="34802,16220
34802,16670
34602,16670
34602,16220
34802,16220
" /> 
<polyline style="fill-rule:evenodd;"
points="35302,16220
35302,16670
35102,16670
35102,16220
35302,16220
" /> 
<polyline style="fill-rule:evenodd;"
points="35802,16220
35802,16670
35602,16670
35602,16220
35802,16220
" /> 
<polyline style="fill-rule:evenodd;"
points="36302,16220
36302,16670
36102,16670
36102,16220
36302,16220
" /> 
<polyline style="fill-rule:evenodd;"
points="39999,24980
39330,24980
39330,24626
39999,24626
39999,24980
" /> 
<polyline style="fill-rule:evenodd;"
points="39999,23839
39330,23839
39330,23484
39999,23484
39999,23839
" /> 
<polyline style="fill-rule:evenodd;"
points="39999,31980
39330,31980
39330,31626
39999,31626
39999,31980
" /> 
<polyline style="fill-rule:evenodd;"
points="39999,30839
39330,30839
39330,30484
39999,30484
39999,30839
" /> 
<polyline style="fill-rule:evenodd;"
points="39999,38980
39330,38980
39330,38626
39999,38626
39999,38980
" /> 
<polyline style="fill-rule:evenodd;"
points="39999,37839
39330,37839
39330,37484
39999,37484
39999,37839
" /> 
<polyline style="fill-rule:evenodd;"
points="39999,46030
39330,46030
39330,45676
39999,45676
39999,46030
" /> 
<polyline style="fill-rule:evenodd;"
points="39999,44889
39330,44889
39330,44534
39999,44534
39999,44889
" /> 
<polyline style="fill-rule:evenodd;"
points="37830,23484
38499,23484
38499,23839
37830,23839
37830,23484
" /> 
<polyline style="fill-rule:evenodd;"
points="37830,24626
38499,24626
38499,24980
37830,24980
37830,24626
" /> 
<polyline style="fill-rule:evenodd;"
points="36330,23484
36999,23484
36999,23839
36330,23839
36330,23484
" /> 
<polyline style="fill-rule:evenodd;"
points="36330,24626
36999,24626
36999,24980
36330,24980
36330,24626
" /> 
<polyline style="fill-rule:evenodd;"
points="36330,30484
36999,30484
36999,30839
36330,30839
36330,30484
" /> 
<polyline style="fill-rule:evenodd;"
points="36330,31626
36999,31626
36999,31980
36330,31980
36330,31626
" /> 
<polyline style="fill-rule:evenodd;"
points="36330,37484
36999,37484
36999,37839
36330,37839
36330,37484
" /> 
<polyline style="fill-rule:evenodd;"
points="36330,38626
36999,38626
36999,38980
36330,38980
36330,38626
" /> 
<polyline style="fill-rule:evenodd;"
points="36330,44534
36999,44534
36999,44889
36330,44889
36330,44534
" /> 
<polyline style="fill-rule:evenodd;"
points="36330,45676
36999,45676
36999,46030
36330,46030
36330,45676
" /> 
<polyline style="fill-rule:evenodd;"
points="37830,44534
38499,44534
38499,44889
37830,44889
37830,44534
" /> 
<polyline style="fill-rule:evenodd;"
points="37830,45676
38499,45676
38499,46030
37830,46030
37830,45676
" /> 
<polyline style="fill-rule:evenodd;"
points="33999,24980
33330,24980
33330,24626
33999,24626
33999,24980
" /> 
<polyline style="fill-rule:evenodd;"
points="33999,23839
33330,23839
33330,23484
33999,23484
33999,23839
" /> 
<polyline style="fill-rule:evenodd;"
points="33999,31980
33330,31980
33330,31626
33999,31626
33999,31980
" /> 
<polyline style="fill-rule:evenodd;"
points="33999,30839
33330,30839
33330,30484
33999,30484
33999,30839
" /> 
<polyline style="fill-rule:evenodd;"
points="33999,38980
33330,38980
33330,38626
33999,38626
33999,38980
" /> 
<polyline style="fill-rule:evenodd;"
points="33999,37839
33330,37839
33330,37484
33999,37484
33999,37839
" /> 
<polyline style="fill-rule:evenodd;"
points="33999,45980
33330,45980
33330,45626
33999,45626
33999,45980
" /> 
<polyline style="fill-rule:evenodd;"
points="33999,44839
33330,44839
33330,44484
33999,44484
33999,44839
" /> 
<polyline style="fill-rule:evenodd;"
points="31830,23484
32499,23484
32499,23839
31830,23839
31830,23484
" /> 
<polyline style="fill-rule:evenodd;"
points="31830,24626
32499,24626
32499,24980
31830,24980
31830,24626
" /> 
<polyline style="fill-rule:evenodd;"
points="30330,23484
30999,23484
30999,23839
30330,23839
30330,23484
" /> 
<polyline style="fill-rule:evenodd;"
points="30330,24626
30999,24626
30999,24980
30330,24980
30330,24626
" /> 
<polyline style="fill-rule:evenodd;"
points="30330,30484
30999,30484
30999,30839
30330,30839
30330,30484
" /> 
<polyline style="fill-rule:evenodd;"
points="30330,31626
30999,31626
30999,31980
30330,31980
30330,31626
" /> 
<polyline style="fill-rule:evenodd;"
points="30330,37484
30999,37484
30999,37839
30330,37839
30330,37484
" /> 
<polyline style="fill-rule:evenodd;"
points="30330,38626
30999,38626
30999,38980
30330,38980
30330,38626
" /> 
<polyline style="fill-rule:evenodd;"
points="30330,44484
30999,44484
30999,44839
30330,44839
30330,44484
" /> 
<polyline style="fill-rule:evenodd;"
points="30330,45626
30999,45626
30999,45980
30330,45980
30330,45626
" /> 
<polyline style="fill-rule:evenodd;"
points="31830,44484
32499,44484
32499,44839
31830,44839
31830,44484
" /> 
<polyline style="fill-rule:evenodd;"
points="31830,45626
32499,45626
32499,45980
31830,45980
31830,45626
" /> 
<polyline style="fill-rule:evenodd;"
points="27999,24980
27330,24980
27330,24626
27999,24626
27999,24980
" /> 
<polyline style="fill-rule:evenodd;"
points="27999,23839
27330,23839
27330,23484
27999,23484
27999,23839
" /> 
<polyline style="fill-rule:evenodd;"
points="27999,31980
27330,31980
27330,31626
27999,31626
27999,31980
" /> 
<polyline style="fill-rule:evenodd;"
points="27999,30839
27330,30839
27330,30484
27999,30484
27999,30839
" /> 
<polyline style="fill-rule:evenodd;"
points="27999,38980
27330,38980
27330,38626
27999,38626
27999,38980
" /> 
<polyline style="fill-rule:evenodd;"
points="27999,37839
27330,37839
27330,37484
27999,37484
27999,37839
" /> 
<polyline style="fill-rule:evenodd;"
points="27999,45980
27330,45980
27330,45626
27999,45626
27999,45980
" /> 
<polyline style="fill-rule:evenodd;"
points="27999,44839
27330,44839
27330,44484
27999,44484
27999,44839
" /> 
<polyline style="fill-rule:evenodd;"
points="25830,23484
26499,23484
26499,23839
25830,23839
25830,23484
" /> 
<polyline style="fill-rule:evenodd;"
points="25830,24626
26499,24626
26499,24980
25830,24980
25830,24626
" /> 
<polyline style="fill-rule:evenodd;"
points="24330,23484
24999,23484
24999,23839
24330,23839
24330,23484
" /> 
<polyline style="fill-rule:evenodd;"
points="24330,24626
24999,24626
24999,24980
24330,24980
24330,24626
" /> 
<polyline style="fill-rule:evenodd;"
points="24330,30484
24999,30484
24999,30839
24330,30839
24330,30484
" /> 
<polyline style="fill-rule:evenodd;"
points="24330,31626
24999,31626
24999,31980
24330,31980
24330,31626
" /> 
<polyline style="fill-rule:evenodd;"
points="24330,37484
24999,37484
24999,37839
24330,37839
24330,37484
" /> 
<polyline style="fill-rule:evenodd;"
points="24330,38626
24999,38626
24999,38980
24330,38980
24330,38626
" /> 
<polyline style="fill-rule:evenodd;"
points="24330,44484
24999,44484
24999,44839
24330,44839
24330,44484
" /> 
<polyline style="fill-rule:evenodd;"
points="24330,45626
24999,45626
24999,45980
24330,45980
24330,45626
" /> 
<polyline style="fill-rule:evenodd;"
points="25830,44484
26499,44484
26499,44839
25830,44839
25830,44484
" /> 
<polyline style="fill-rule:evenodd;"
points="25830,45626
26499,45626
26499,45980
25830,45980
25830,45626
" /> 
<polyline style="fill-rule:evenodd;"
points="21999,24980
21330,24980
21330,24626
21999,24626
21999,24980
" /> 
<polyline style="fill-rule:evenodd;"
points="21999,23839
21330,23839
21330,23484
21999,23484
21999,23839
" /> 
<polyline style="fill-rule:evenodd;"
points="21999,31980
21330,31980
21330,31626
21999,31626
21999,31980
" /> 
<polyline style="fill-rule:evenodd;"
points="21999,30839
21330,30839
21330,30484
21999,30484
21999,30839
" /> 
<polyline style="fill-rule:evenodd;"
points="21999,38980
21330,38980
21330,38626
21999,38626
21999,38980
" /> 
<polyline style="fill-rule:evenodd;"
points="21999,37839
21330,37839
21330,37484
21999,37484
21999,37839
" /> 
<polyline style="fill-rule:evenodd;"
points="21999,45980
21330,45980
21330,45626
21999,45626
21999,45980
" /> 
<polyline style="fill-rule:evenodd;"
points="21999,44839
21330,44839
21330,44484
21999,44484
21999,44839
" /> 
<polyline style="fill-rule:evenodd;"
points="38779,21579
38779,20910
39133,20910
39133,21579
38779,21579
" /> 
<polyline style="fill-rule:evenodd;"
points="39921,21579
39921,20910
40275,20910
40275,21579
39921,21579
" /> 
<polyline style="fill-rule:evenodd;"
points="19830,23484
20499,23484
20499,23839
19830,23839
19830,23484
" /> 
<polyline style="fill-rule:evenodd;"
points="19830,24626
20499,24626
20499,24980
19830,24980
19830,24626
" /> 
<polyline style="fill-rule:evenodd;"
points="18330,23484
18999,23484
18999,23839
18330,23839
18330,23484
" /> 
<polyline style="fill-rule:evenodd;"
points="18330,24626
18999,24626
18999,24980
18330,24980
18330,24626
" /> 
<polyline style="fill-rule:evenodd;"
points="18330,30484
18999,30484
18999,30839
18330,30839
18330,30484
" /> 
<polyline style="fill-rule:evenodd;"
points="18330,31626
18999,31626
18999,31980
18330,31980
18330,31626
" /> 
<polyline style="fill-rule:evenodd;"
points="18330,37484
18999,37484
18999,37839
18330,37839
18330,37484
" /> 
<polyline style="fill-rule:evenodd;"
points="18330,38626
18999,38626
18999,38980
18330,38980
18330,38626
" /> 
<polyline style="fill-rule:evenodd;"
points="18330,44484
18999,44484
18999,44839
18330,44839
18330,44484
" /> 
<polyline style="fill-rule:evenodd;"
points="18330,45626
18999,45626
18999,45980
18330,45980
18330,45626
" /> 
<polyline style="fill-rule:evenodd;"
points="19830,44484
20499,44484
20499,44839
19830,44839
19830,44484
" /> 
<polyline style="fill-rule:evenodd;"
points="19830,45626
20499,45626
20499,45980
19830,45980
19830,45626
" /> 
<polyline style="fill-rule:evenodd;"
points="15999,24980
15330,24980
15330,24626
15999,24626
15999,24980
" /> 
<polyline style="fill-rule:evenodd;"
points="15999,23839
15330,23839
15330,23484
15999,23484
15999,23839
" /> 
<polyline style="fill-rule:evenodd;"
points="15999,31980
15330,31980
15330,31626
15999,31626
15999,31980
" /> 
<polyline style="fill-rule:evenodd;"
points="15999,30839
15330,30839
15330,30484
15999,30484
15999,30839
" /> 
<polyline style="fill-rule:evenodd;"
points="15999,38980
15330,38980
15330,38626
15999,38626
15999,38980
" /> 
<polyline style="fill-rule:evenodd;"
points="15999,37839
15330,37839
15330,37484
15999,37484
15999,37839
" /> 
<polyline style="fill-rule:evenodd;"
points="15999,45980
15330,45980
15330,45626
15999,45626
15999,45980
" /> 
<polyline style="fill-rule:evenodd;"
points="15999,44839
15330,44839
15330,44484
15999,44484
15999,44839
" /> 
<polyline style="fill-rule:evenodd;"
points="13830,23484
14499,23484
14499,23839
13830,23839
13830,23484
" /> 
<polyline style="fill-rule:evenodd;"
points="13830,24626
14499,24626
14499,24980
13830,24980
13830,24626
" /> 
<polyline style="fill-rule:evenodd;"
points="12330,23484
12999,23484
12999,23839
12330,23839
12330,23484
" /> 
<polyline style="fill-rule:evenodd;"
points="12330,24626
12999,24626
12999,24980
12330,24980
12330,24626
" /> 
<polyline style="fill-rule:evenodd;"
points="12330,30484
12999,30484
12999,30839
12330,30839
12330,30484
" /> 
<polyline style="fill-rule:evenodd;"
points="12330,31626
12999,31626
12999,31980
12330,31980
12330,31626
" /> 
<polyline style="fill-rule:evenodd;"
points="12330,37484
12999,37484
12999,37839
12330,37839
12330,37484
" /> 
<polyline style="fill-rule:evenodd;"
points="12330,38626
12999,38626
12999,38980
12330,38980
12330,38626
" /> 
<polyline style="fill-rule:evenodd;"
points="12330,44484
12999,44484
12999,44839
12330,44839
12330,44484
" /> 
<polyline style="fill-rule:evenodd;"
points="12330,45626
12999,45626
12999,45980
12330,45980
12330,45626
" /> 
<polyline style="fill-rule:evenodd;"
points="13830,44484
14499,44484
14499,44839
13830,44839
13830,44484
" /> 
<polyline style="fill-rule:evenodd;"
points="13830,45626
14499,45626
14499,45980
13830,45980
13830,45626
" /> 
<polyline style="fill-rule:evenodd;"
points="37830,30484
38499,30484
38499,30839
37830,30839
37830,30484
" /> 
<polyline style="fill-rule:evenodd;"
points="37830,31626
38499,31626
38499,31980
37830,31980
37830,31626
" /> 
<polyline style="fill-rule:evenodd;"
points="37830,37484
38499,37484
38499,37839
37830,37839
37830,37484
" /> 
<polyline style="fill-rule:evenodd;"
points="37830,38626
38499,38626
38499,38980
37830,38980
37830,38626
" /> 
<polyline style="fill-rule:evenodd;"
points="31830,30484
32499,30484
32499,30839
31830,30839
31830,30484
" /> 
<polyline style="fill-rule:evenodd;"
points="31830,31626
32499,31626
32499,31980
31830,31980
31830,31626
" /> 
<polyline style="fill-rule:evenodd;"
points="31830,37480
32500,37480
32500,37834
31830,37834
31830,37480
" /> 
<polyline style="fill-rule:evenodd;"
points="31830,38622
32500,38622
32500,38976
31830,38976
31830,38622
" /> 
<polyline style="fill-rule:evenodd;"
points="25830,30484
26499,30484
26499,30839
25830,30839
25830,30484
" /> 
<polyline style="fill-rule:evenodd;"
points="25830,31626
26499,31626
26499,31980
25830,31980
25830,31626
" /> 
<polyline style="fill-rule:evenodd;"
points="25830,37484
26499,37484
26499,37839
25830,37839
25830,37484
" /> 
<polyline style="fill-rule:evenodd;"
points="25830,38626
26499,38626
26499,38980
25830,38980
25830,38626
" /> 
<polyline style="fill-rule:evenodd;"
points="19262,14198
19262,14867
18908,14867
18908,14198
19262,14198
" /> 
<polyline style="fill-rule:evenodd;"
points="18121,14198
18121,14867
17766,14867
17766,14198
18121,14198
" /> 
<polyline style="fill-rule:evenodd;"
points="32537,16743
31867,16743
31867,16388
32537,16388
32537,16743
" /> 
<polyline style="fill-rule:evenodd;"
points="32537,15601
31867,15601
31867,15247
32537,15247
32537,15601
" /> 
<polyline style="fill-rule:evenodd;"
points="19830,30484
20499,30484
20499,30839
19830,30839
19830,30484
" /> 
<polyline style="fill-rule:evenodd;"
points="19830,31626
20499,31626
20499,31980
19830,31980
19830,31626
" /> 
<polyline style="fill-rule:evenodd;"
points="19830,37484
20499,37484
20499,37839
19830,37839
19830,37484
" /> 
<polyline style="fill-rule:evenodd;"
points="19830,38626
20499,38626
20499,38980
19830,38980
19830,38626
" /> 
<polyline style="fill-rule:evenodd;"
points="13830,30484
14499,30484
14499,30839
13830,30839
13830,30484
" /> 
<polyline style="fill-rule:evenodd;"
points="13830,31626
14499,31626
14499,31980
13830,31980
13830,31626
" /> 
<polyline style="fill-rule:evenodd;"
points="13830,37484
14499,37484
14499,37839
13830,37839
13830,37484
" /> 
<polyline style="fill-rule:evenodd;"
points="13830,38626
14499,38626
14499,38980
13830,38980
13830,38626
" /> 
<polyline style="fill-rule:evenodd;"
points="40570,22637
40570,22145
40964,22145
40964,22637
40570,22637
" /> 
<polyline style="fill-rule:evenodd;"
points="41358,22637
41358,22145
41751,22145
41751,22637
41358,22637
" /> 
<polyline style="fill-rule:evenodd;"
points="22942,24242
23435,24242
23435,24635
22942,24635
22942,24242
" /> 
<polyline style="fill-rule:evenodd;"
points="22942,25029
23435,25029
23435,25423
22942,25423
22942,25029
" /> 
<polyline style="fill-rule:evenodd;"
points="14011,19591
14011,19099
14405,19099
14405,19591
14011,19591
" /> 
<polyline style="fill-rule:evenodd;"
points="14799,19591
14799,19099
15192,19099
15192,19591
14799,19591
" /> 
<polyline style="fill-rule:evenodd;"
points="14011,20941
14011,20449
14405,20449
14405,20941
14011,20941
" /> 
<polyline style="fill-rule:evenodd;"
points="14799,20941
14799,20449
15192,20449
15192,20941
14799,20941
" /> 
<polyline style="fill-rule:evenodd;"
points="34940,24242
35433,24242
35433,24635
34940,24635
34940,24242
" /> 
<polyline style="fill-rule:evenodd;"
points="34940,25029
35433,25029
35433,25423
34940,25423
34940,25029
" /> 
<polyline style="fill-rule:evenodd;"
points="16958,24242
17450,24242
17450,24635
16958,24635
16958,24242
" /> 
<polyline style="fill-rule:evenodd;"
points="16958,25029
17450,25029
17450,25423
16958,25423
16958,25029
" /> 
<polyline style="fill-rule:evenodd;"
points="20086,13294
20578,13294
20578,13688
20086,13688
20086,13294
" /> 
<polyline style="fill-rule:evenodd;"
points="20086,14082
20578,14082
20578,14475
20086,14475
20086,14082
" /> 
<polyline style="fill-rule:evenodd;"
points="15648,17285
15156,17285
15156,16892
15648,16892
15648,17285
" /> 
<polyline style="fill-rule:evenodd;"
points="15648,16498
15156,16498
15156,16104
15648,16104
15648,16498
" /> 
<polyline style="fill-rule:evenodd;"
points="28897,24251
29389,24251
29389,24645
28897,24645
28897,24251
" /> 
<polyline style="fill-rule:evenodd;"
points="28897,25039
29389,25039
29389,25433
28897,25433
28897,25039
" /> 
<polyline style="fill-rule:evenodd;"
points="38653,14531
38653,14059
39125,14059
39125,14531
38653,14531
" /> 
<polyline style="fill-rule:evenodd;"
points="39479,14531
39479,14059
39951,14059
39951,14531
39479,14531
" /> 
<polyline style="fill-rule:evenodd;"
points="38653,15531
38653,15059
39125,15059
39125,15531
38653,15531
" /> 
<polyline style="fill-rule:evenodd;"
points="39479,15531
39479,15059
39951,15059
39951,15531
39479,15531
" /> 
<polyline style="fill-rule:evenodd;"
points="38653,16531
38653,16059
39125,16059
39125,16531
38653,16531
" /> 
<polyline style="fill-rule:evenodd;"
points="39479,16531
39479,16059
39951,16059
39951,16531
39479,16531
" /> 
<polyline style="fill-rule:evenodd;"
points="38653,17531
38653,17059
39125,17059
39125,17531
38653,17531
" /> 
<polyline style="fill-rule:evenodd;"
points="39479,17531
39479,17059
39951,17059
39951,17531
39479,17531
" /> 
</g> 
</svg>
