<?xml version="1.0" standalone="no"?>
 <!DOCTYPE svg PUBLIC "-//W3C//DTD SVG 1.1//EN" 
 "http://www.w3.org/Graphics/SVG/1.1/DTD/svg11.dtd"> 
<svg xmlns="http://www.w3.org/2000/svg" version="1.1" 
    width="27.94cm" height="21.59cm" viewBox="0 0 110000 85000 ">
<title>SVG Picture created as 40-channel HV switching board-B.Mask.svg date 2017/04/05 08:28:20 </title>
  <desc>Picture generated by PCBNEW </desc>
<g style="fill:#000000; fill-opacity:1;stroke:#000000; stroke-opacity:1;
stroke-linecap:round; stroke-linejoin:round; "
 transform="translate(0 0) scale(1 1)">
</g>
<g style="fill:#000000; fill-opacity:0.0; 
stroke:#000000; stroke-width:-0.000393701; stroke-opacity:1; 
stroke-linecap:round; stroke-linejoin:round;">
</g>
<g style="fill:#000000; fill-opacity:0.0; 
stroke:#000000; stroke-width:39.3701; stroke-opacity:1; 
stroke-linecap:round; stroke-linejoin:round;">
</g>
<g style="fill:#000000; fill-opacity:0.0; 
stroke:#000000; stroke-width:59.0551; stroke-opacity:1; 
stroke-linecap:round; stroke-linejoin:round;">
<rect x="62755.9" y="67677.2" width="42519.7" height="12598.4" rx="0" />
</g>
<g style="fill:#000000; fill-opacity:0.0; 
stroke:#000000; stroke-width:39.3701; stroke-opacity:1; 
stroke-linecap:round; stroke-linejoin:round;">
</g>
<g style="fill:#000000; fill-opacity:0.0; 
stroke:#000000; stroke-width:59.0551; stroke-opacity:1; 
stroke-linecap:round; stroke-linejoin:round;">
<rect x="3937.01" y="3937.01" width="102126" height="77126" rx="0" />
</g>
<g style="fill:#000000; fill-opacity:0.0; 
stroke:#000000; stroke-width:39.3701; stroke-opacity:1; 
stroke-linecap:round; stroke-linejoin:round;">
</g>
<g style="fill:#000000; fill-opacity:0.0; 
stroke:#000000; stroke-width:59.0551; stroke-opacity:1; 
stroke-linecap:round; stroke-linejoin:round;">
<rect x="4724.41" y="4724.41" width="100551" height="75551.2" rx="0" />
</g>
<g style="fill:#000000; fill-opacity:0.0; 
stroke:#000000; stroke-width:39.3701; stroke-opacity:1; 
stroke-linecap:round; stroke-linejoin:round;">
</g>
<g style="fill:#000000; fill-opacity:0.0; 
stroke:#000000; stroke-width:59.0551; stroke-opacity:1; 
stroke-linecap:round; stroke-linejoin:round;">
<path d="M23622 4724
L23622 3937
" />
</g>
<g style="fill:#000000; fill-opacity:0.0; 
stroke:#000000; stroke-width:39.3701; stroke-opacity:1; 
stroke-linecap:round; stroke-linejoin:round;">
</g>
<g style="fill:#000000; fill-opacity:0.0; 
stroke:#000000; stroke-width:59.0551; stroke-opacity:1; 
stroke-linecap:round; stroke-linejoin:round;">
<path d="M43307 4724
L43307 3937
" />
</g>
<g style="fill:#000000; fill-opacity:0.0; 
stroke:#000000; stroke-width:39.3701; stroke-opacity:1; 
stroke-linecap:round; stroke-linejoin:round;">
</g>
<g style="fill:#000000; fill-opacity:0.0; 
stroke:#000000; stroke-width:59.0551; stroke-opacity:1; 
stroke-linecap:round; stroke-linejoin:round;">
<path d="M62992 4724
L62992 3937
" />
</g>
<g style="fill:#000000; fill-opacity:0.0; 
stroke:#000000; stroke-width:39.3701; stroke-opacity:1; 
stroke-linecap:round; stroke-linejoin:round;">
</g>
<g style="fill:#000000; fill-opacity:0.0; 
stroke:#000000; stroke-width:59.0551; stroke-opacity:1; 
stroke-linecap:round; stroke-linejoin:round;">
<path d="M82677 4724
L82677 3937
" />
</g>
<g style="fill:#000000; fill-opacity:0.0; 
stroke:#000000; stroke-width:39.3701; stroke-opacity:1; 
stroke-linecap:round; stroke-linejoin:round;">
</g>
<g style="fill:#000000; fill-opacity:0.0; 
stroke:#000000; stroke-width:59.0551; stroke-opacity:1; 
stroke-linecap:round; stroke-linejoin:round;">
<path d="M102362 4724
L102362 3937
" />
</g>
<g style="fill:#000000; fill-opacity:0.0; 
stroke:#000000; stroke-width:39.3701; stroke-opacity:1; 
stroke-linecap:round; stroke-linejoin:round;">
</g>
<g style="fill:#000000; fill-opacity:0.0; 
stroke:#000000; stroke-width:59.0551; stroke-opacity:1; 
stroke-linecap:round; stroke-linejoin:round;">
<path d="M14169 4562
L13877 4562
" />
<path d="M14023 4562
L14023 4050
L13974 4123
L13925 4172
L13877 4196
" />
</g>
<g style="fill:#000000; fill-opacity:0.0; 
stroke:#000000; stroke-width:39.3701; stroke-opacity:1; 
stroke-linecap:round; stroke-linejoin:round;">
</g>
<g style="fill:#000000; fill-opacity:0.0; 
stroke:#000000; stroke-width:59.0551; stroke-opacity:1; 
stroke-linecap:round; stroke-linejoin:round;">
<path d="M33562 4099
L33586 4074
L33635 4050
L33757 4050
L33805 4074
L33830 4099
L33854 4147
L33854 4196
L33830 4269
L33537 4562
L33854 4562
" />
</g>
<g style="fill:#000000; fill-opacity:0.0; 
stroke:#000000; stroke-width:39.3701; stroke-opacity:1; 
stroke-linecap:round; stroke-linejoin:round;">
</g>
<g style="fill:#000000; fill-opacity:0.0; 
stroke:#000000; stroke-width:59.0551; stroke-opacity:1; 
stroke-linecap:round; stroke-linejoin:round;">
<path d="M53222 4050
L53539 4050
L53368 4245
L53442 4245
L53490 4269
L53515 4294
L53539 4342
L53539 4464
L53515 4513
L53490 4537
L53442 4562
L53295 4562
L53247 4537
L53222 4513
" />
</g>
<g style="fill:#000000; fill-opacity:0.0; 
stroke:#000000; stroke-width:39.3701; stroke-opacity:1; 
stroke-linecap:round; stroke-linejoin:round;">
</g>
<g style="fill:#000000; fill-opacity:0.0; 
stroke:#000000; stroke-width:59.0551; stroke-opacity:1; 
stroke-linecap:round; stroke-linejoin:round;">
<path d="M73175 4221
L73175 4562
" />
<path d="M73053 4026
L72932 4391
L73248 4391
" />
</g>
<g style="fill:#000000; fill-opacity:0.0; 
stroke:#000000; stroke-width:39.3701; stroke-opacity:1; 
stroke-linecap:round; stroke-linejoin:round;">
</g>
<g style="fill:#000000; fill-opacity:0.0; 
stroke:#000000; stroke-width:59.0551; stroke-opacity:1; 
stroke-linecap:round; stroke-linejoin:round;">
<path d="M92885 4050
L92641 4050
L92617 4294
L92641 4269
L92690 4245
L92812 4245
L92860 4269
L92885 4294
L92909 4342
L92909 4464
L92885 4513
L92860 4537
L92812 4562
L92690 4562
L92641 4537
L92617 4513
" />
</g>
<g style="fill:#000000; fill-opacity:0.0; 
stroke:#000000; stroke-width:39.3701; stroke-opacity:1; 
stroke-linecap:round; stroke-linejoin:round;">
</g>
<g style="fill:#000000; fill-opacity:0.0; 
stroke:#000000; stroke-width:59.0551; stroke-opacity:1; 
stroke-linecap:round; stroke-linejoin:round;">
<path d="M23622 80275
L23622 81062
" />
</g>
<g style="fill:#000000; fill-opacity:0.0; 
stroke:#000000; stroke-width:39.3701; stroke-opacity:1; 
stroke-linecap:round; stroke-linejoin:round;">
</g>
<g style="fill:#000000; fill-opacity:0.0; 
stroke:#000000; stroke-width:59.0551; stroke-opacity:1; 
stroke-linecap:round; stroke-linejoin:round;">
<path d="M43307 80275
L43307 81062
" />
</g>
<g style="fill:#000000; fill-opacity:0.0; 
stroke:#000000; stroke-width:39.3701; stroke-opacity:1; 
stroke-linecap:round; stroke-linejoin:round;">
</g>
<g style="fill:#000000; fill-opacity:0.0; 
stroke:#000000; stroke-width:59.0551; stroke-opacity:1; 
stroke-linecap:round; stroke-linejoin:round;">
<path d="M62992 80275
L62992 81062
" />
</g>
<g style="fill:#000000; fill-opacity:0.0; 
stroke:#000000; stroke-width:39.3701; stroke-opacity:1; 
stroke-linecap:round; stroke-linejoin:round;">
</g>
<g style="fill:#000000; fill-opacity:0.0; 
stroke:#000000; stroke-width:59.0551; stroke-opacity:1; 
stroke-linecap:round; stroke-linejoin:round;">
<path d="M82677 80275
L82677 81062
" />
</g>
<g style="fill:#000000; fill-opacity:0.0; 
stroke:#000000; stroke-width:39.3701; stroke-opacity:1; 
stroke-linecap:round; stroke-linejoin:round;">
</g>
<g style="fill:#000000; fill-opacity:0.0; 
stroke:#000000; stroke-width:59.0551; stroke-opacity:1; 
stroke-linecap:round; stroke-linejoin:round;">
<path d="M102362 80275
L102362 81062
" />
</g>
<g style="fill:#000000; fill-opacity:0.0; 
stroke:#000000; stroke-width:39.3701; stroke-opacity:1; 
stroke-linecap:round; stroke-linejoin:round;">
</g>
<g style="fill:#000000; fill-opacity:0.0; 
stroke:#000000; stroke-width:59.0551; stroke-opacity:1; 
stroke-linecap:round; stroke-linejoin:round;">
<path d="M14169 80900
L13877 80900
" />
<path d="M14023 80900
L14023 80389
L13974 80462
L13925 80510
L13877 80535
" />
</g>
<g style="fill:#000000; fill-opacity:0.0; 
stroke:#000000; stroke-width:39.3701; stroke-opacity:1; 
stroke-linecap:round; stroke-linejoin:round;">
</g>
<g style="fill:#000000; fill-opacity:0.0; 
stroke:#000000; stroke-width:59.0551; stroke-opacity:1; 
stroke-linecap:round; stroke-linejoin:round;">
<path d="M33562 80437
L33586 80413
L33635 80389
L33757 80389
L33805 80413
L33830 80437
L33854 80486
L33854 80535
L33830 80608
L33537 80900
L33854 80900
" />
</g>
<g style="fill:#000000; fill-opacity:0.0; 
stroke:#000000; stroke-width:39.3701; stroke-opacity:1; 
stroke-linecap:round; stroke-linejoin:round;">
</g>
<g style="fill:#000000; fill-opacity:0.0; 
stroke:#000000; stroke-width:59.0551; stroke-opacity:1; 
stroke-linecap:round; stroke-linejoin:round;">
<path d="M53222 80389
L53539 80389
L53368 80583
L53442 80583
L53490 80608
L53515 80632
L53539 80681
L53539 80803
L53515 80852
L53490 80876
L53442 80900
L53295 80900
L53247 80876
L53222 80852
" />
</g>
<g style="fill:#000000; fill-opacity:0.0; 
stroke:#000000; stroke-width:39.3701; stroke-opacity:1; 
stroke-linecap:round; stroke-linejoin:round;">
</g>
<g style="fill:#000000; fill-opacity:0.0; 
stroke:#000000; stroke-width:59.0551; stroke-opacity:1; 
stroke-linecap:round; stroke-linejoin:round;">
<path d="M73175 80559
L73175 80900
" />
<path d="M73053 80364
L72932 80730
L73248 80730
" />
</g>
<g style="fill:#000000; fill-opacity:0.0; 
stroke:#000000; stroke-width:39.3701; stroke-opacity:1; 
stroke-linecap:round; stroke-linejoin:round;">
</g>
<g style="fill:#000000; fill-opacity:0.0; 
stroke:#000000; stroke-width:59.0551; stroke-opacity:1; 
stroke-linecap:round; stroke-linejoin:round;">
<path d="M92885 80389
L92641 80389
L92617 80632
L92641 80608
L92690 80583
L92812 80583
L92860 80608
L92885 80632
L92909 80681
L92909 80803
L92885 80852
L92860 80876
L92812 80900
L92690 80900
L92641 80876
L92617 80852
" />
</g>
<g style="fill:#000000; fill-opacity:0.0; 
stroke:#000000; stroke-width:39.3701; stroke-opacity:1; 
stroke-linecap:round; stroke-linejoin:round;">
</g>
<g style="fill:#000000; fill-opacity:0.0; 
stroke:#000000; stroke-width:59.0551; stroke-opacity:1; 
stroke-linecap:round; stroke-linejoin:round;">
<path d="M3937 23622
L4724 23622
" />
</g>
<g style="fill:#000000; fill-opacity:0.0; 
stroke:#000000; stroke-width:39.3701; stroke-opacity:1; 
stroke-linecap:round; stroke-linejoin:round;">
</g>
<g style="fill:#000000; fill-opacity:0.0; 
stroke:#000000; stroke-width:59.0551; stroke-opacity:1; 
stroke-linecap:round; stroke-linejoin:round;">
<path d="M3937 43307
L4724 43307
" />
</g>
<g style="fill:#000000; fill-opacity:0.0; 
stroke:#000000; stroke-width:39.3701; stroke-opacity:1; 
stroke-linecap:round; stroke-linejoin:round;">
</g>
<g style="fill:#000000; fill-opacity:0.0; 
stroke:#000000; stroke-width:59.0551; stroke-opacity:1; 
stroke-linecap:round; stroke-linejoin:round;">
<path d="M3937 62992
L4724 62992
" />
</g>
<g style="fill:#000000; fill-opacity:0.0; 
stroke:#000000; stroke-width:39.3701; stroke-opacity:1; 
stroke-linecap:round; stroke-linejoin:round;">
</g>
<g style="fill:#000000; fill-opacity:0.0; 
stroke:#000000; stroke-width:59.0551; stroke-opacity:1; 
stroke-linecap:round; stroke-linejoin:round;">
<path d="M4208 13864
L4452 13864
" />
<path d="M4160 14011
L4330 13499
L4501 14011
" />
</g>
<g style="fill:#000000; fill-opacity:0.0; 
stroke:#000000; stroke-width:39.3701; stroke-opacity:1; 
stroke-linecap:round; stroke-linejoin:round;">
</g>
<g style="fill:#000000; fill-opacity:0.0; 
stroke:#000000; stroke-width:59.0551; stroke-opacity:1; 
stroke-linecap:round; stroke-linejoin:round;">
<path d="M4367 33428
L4440 33452
L4464 33476
L4489 33525
L4489 33598
L4464 33647
L4440 33671
L4391 33696
L4196 33696
L4196 33184
L4367 33184
L4416 33208
L4440 33233
L4464 33281
L4464 33330
L4440 33379
L4416 33403
L4367 33428
L4196 33428
" />
</g>
<g style="fill:#000000; fill-opacity:0.0; 
stroke:#000000; stroke-width:39.3701; stroke-opacity:1; 
stroke-linecap:round; stroke-linejoin:round;">
</g>
<g style="fill:#000000; fill-opacity:0.0; 
stroke:#000000; stroke-width:59.0551; stroke-opacity:1; 
stroke-linecap:round; stroke-linejoin:round;">
<path d="M4489 53332
L4464 53356
L4391 53381
L4342 53381
L4269 53356
L4221 53308
L4196 53259
L4172 53161
L4172 53088
L4196 52991
L4221 52942
L4269 52893
L4342 52869
L4391 52869
L4464 52893
L4489 52918
" />
</g>
<g style="fill:#000000; fill-opacity:0.0; 
stroke:#000000; stroke-width:39.3701; stroke-opacity:1; 
stroke-linecap:round; stroke-linejoin:round;">
</g>
<g style="fill:#000000; fill-opacity:0.0; 
stroke:#000000; stroke-width:59.0551; stroke-opacity:1; 
stroke-linecap:round; stroke-linejoin:round;">
<path d="M4196 73066
L4196 72554
L4318 72554
L4391 72578
L4440 72627
L4464 72676
L4489 72773
L4489 72846
L4464 72944
L4440 72993
L4391 73041
L4318 73066
L4196 73066
" />
</g>
<g style="fill:#000000; fill-opacity:0.0; 
stroke:#000000; stroke-width:39.3701; stroke-opacity:1; 
stroke-linecap:round; stroke-linejoin:round;">
</g>
<g style="fill:#000000; fill-opacity:0.0; 
stroke:#000000; stroke-width:59.0551; stroke-opacity:1; 
stroke-linecap:round; stroke-linejoin:round;">
<path d="M106062 23622
L105275 23622
" />
</g>
<g style="fill:#000000; fill-opacity:0.0; 
stroke:#000000; stroke-width:39.3701; stroke-opacity:1; 
stroke-linecap:round; stroke-linejoin:round;">
</g>
<g style="fill:#000000; fill-opacity:0.0; 
stroke:#000000; stroke-width:59.0551; stroke-opacity:1; 
stroke-linecap:round; stroke-linejoin:round;">
<path d="M106062 43307
L105275 43307
" />
</g>
<g style="fill:#000000; fill-opacity:0.0; 
stroke:#000000; stroke-width:39.3701; stroke-opacity:1; 
stroke-linecap:round; stroke-linejoin:round;">
</g>
<g style="fill:#000000; fill-opacity:0.0; 
stroke:#000000; stroke-width:59.0551; stroke-opacity:1; 
stroke-linecap:round; stroke-linejoin:round;">
<path d="M106062 62992
L105275 62992
" />
</g>
<g style="fill:#000000; fill-opacity:0.0; 
stroke:#000000; stroke-width:39.3701; stroke-opacity:1; 
stroke-linecap:round; stroke-linejoin:round;">
</g>
<g style="fill:#000000; fill-opacity:0.0; 
stroke:#000000; stroke-width:59.0551; stroke-opacity:1; 
stroke-linecap:round; stroke-linejoin:round;">
<path d="M105547 13864
L105791 13864
" />
<path d="M105498 14011
L105669 13499
L105839 14011
" />
</g>
<g style="fill:#000000; fill-opacity:0.0; 
stroke:#000000; stroke-width:39.3701; stroke-opacity:1; 
stroke-linecap:round; stroke-linejoin:round;">
</g>
<g style="fill:#000000; fill-opacity:0.0; 
stroke:#000000; stroke-width:59.0551; stroke-opacity:1; 
stroke-linecap:round; stroke-linejoin:round;">
<path d="M105705 33428
L105778 33452
L105803 33476
L105827 33525
L105827 33598
L105803 33647
L105778 33671
L105730 33696
L105535 33696
L105535 33184
L105705 33184
L105754 33208
L105778 33233
L105803 33281
L105803 33330
L105778 33379
L105754 33403
L105705 33428
L105535 33428
" />
</g>
<g style="fill:#000000; fill-opacity:0.0; 
stroke:#000000; stroke-width:39.3701; stroke-opacity:1; 
stroke-linecap:round; stroke-linejoin:round;">
</g>
<g style="fill:#000000; fill-opacity:0.0; 
stroke:#000000; stroke-width:59.0551; stroke-opacity:1; 
stroke-linecap:round; stroke-linejoin:round;">
<path d="M105827 53332
L105803 53356
L105730 53381
L105681 53381
L105608 53356
L105559 53308
L105535 53259
L105510 53161
L105510 53088
L105535 52991
L105559 52942
L105608 52893
L105681 52869
L105730 52869
L105803 52893
L105827 52918
" />
</g>
<g style="fill:#000000; fill-opacity:0.0; 
stroke:#000000; stroke-width:39.3701; stroke-opacity:1; 
stroke-linecap:round; stroke-linejoin:round;">
</g>
<g style="fill:#000000; fill-opacity:0.0; 
stroke:#000000; stroke-width:59.0551; stroke-opacity:1; 
stroke-linecap:round; stroke-linejoin:round;">
<path d="M105535 73066
L105535 72554
L105657 72554
L105730 72578
L105778 72627
L105803 72676
L105827 72773
L105827 72846
L105803 72944
L105778 72993
L105730 73041
L105657 73066
L105535 73066
" />
</g>
<g style="fill:#000000; fill-opacity:0.0; 
stroke:#000000; stroke-width:39.3701; stroke-opacity:1; 
stroke-linecap:round; stroke-linejoin:round;">
</g>
<g style="fill:#000000; fill-opacity:0.0; 
stroke:#000000; stroke-width:59.0551; stroke-opacity:1; 
stroke-linecap:round; stroke-linejoin:round;">
<path d="M71951 78613
L71951 78023
L72092 78023
L72176 78051
L72232 78107
L72260 78163
L72289 78276
L72289 78360
L72260 78473
L72232 78529
L72176 78585
L72092 78613
L71951 78613
" />
<path d="M72795 78613
L72795 78304
L72767 78248
L72710 78219
L72598 78219
L72542 78248
" />
<path d="M72795 78585
L72739 78613
L72598 78613
L72542 78585
L72514 78529
L72514 78473
L72542 78416
L72598 78388
L72739 78388
L72795 78360
" />
<path d="M72992 78219
L73217 78219
" />
<path d="M73076 78023
L73076 78529
L73104 78585
L73160 78613
L73217 78613
" />
<path d="M73638 78585
L73582 78613
L73470 78613
L73413 78585
L73385 78529
L73385 78304
L73413 78248
L73470 78219
L73582 78219
L73638 78248
L73667 78304
L73667 78360
L73385 78416
" />
<path d="M73920 78557
L73948 78585
L73920 78613
L73892 78585
L73920 78557
L73920 78613
" />
<path d="M73920 78248
L73948 78276
L73920 78304
L73892 78276
L73920 78248
L73920 78304
" />
<path d="M74623 78079
L74651 78051
L74707 78023
L74848 78023
L74904 78051
L74932 78079
L74960 78135
L74960 78191
L74932 78276
L74595 78613
L74960 78613
" />
<path d="M75326 78023
L75382 78023
L75438 78051
L75466 78079
L75494 78135
L75523 78248
L75523 78388
L75494 78501
L75466 78557
L75438 78585
L75382 78613
L75326 78613
L75269 78585
L75241 78557
L75213 78501
L75185 78388
L75185 78248
L75213 78135
L75241 78079
L75269 78051
L75326 78023
" />
<path d="M76085 78613
L75748 78613
" />
<path d="M75916 78613
L75916 78023
L75860 78107
L75804 78163
L75748 78191
" />
<path d="M76282 78023
L76676 78023
L76422 78613
" />
<path d="M76901 78388
L77350 78388
" />
<path d="M77744 78023
L77800 78023
L77857 78051
L77885 78079
L77913 78135
L77941 78248
L77941 78388
L77913 78501
L77885 78557
L77857 78585
L77800 78613
L77744 78613
L77688 78585
L77660 78557
L77632 78501
L77604 78388
L77604 78248
L77632 78135
L77660 78079
L77688 78051
L77744 78023
" />
<path d="M78138 78023
L78503 78023
L78307 78248
L78391 78248
L78447 78276
L78475 78304
L78503 78360
L78503 78501
L78475 78557
L78447 78585
L78391 78613
L78222 78613
L78166 78585
L78138 78557
" />
<path d="M78757 78388
L79206 78388
" />
<path d="M79600 78023
L79656 78023
L79713 78051
L79741 78079
L79769 78135
L79797 78248
L79797 78388
L79769 78501
L79741 78557
L79713 78585
L79656 78613
L79600 78613
L79544 78585
L79516 78557
L79488 78501
L79460 78388
L79460 78248
L79488 78135
L79516 78079
L79544 78051
L79600 78023
" />
<path d="M79994 78023
L80388 78023
L80134 78613
" />
</g>
<g style="fill:#000000; fill-opacity:0.0; 
stroke:#000000; stroke-width:39.3701; stroke-opacity:1; 
stroke-linecap:round; stroke-linejoin:round;">
</g>
<g style="fill:#000000; fill-opacity:0.0; 
stroke:#000000; stroke-width:59.0551; stroke-opacity:1; 
stroke-linecap:round; stroke-linejoin:round;">
<path d="M62755 78897
L105275 78897
" />
</g>
<g style="fill:#000000; fill-opacity:0.0; 
stroke:#000000; stroke-width:39.3701; stroke-opacity:1; 
stroke-linecap:round; stroke-linejoin:round;">
</g>
<g style="fill:#000000; fill-opacity:0.0; 
stroke:#000000; stroke-width:59.0551; stroke-opacity:1; 
stroke-linecap:round; stroke-linejoin:round;">
<path d="M63290 79715
L63290 79125
" />
<path d="M63627 79715
L63374 79378
" />
<path d="M63627 79125
L63290 79462
" />
<path d="M63880 79715
L63880 79322
" />
<path d="M63880 79125
L63852 79153
L63880 79181
L63908 79153
L63880 79125
L63880 79181
" />
<path d="M64499 79659
L64471 79687
L64386 79715
L64330 79715
L64246 79687
L64190 79631
L64161 79575
L64133 79462
L64133 79378
L64161 79266
L64190 79209
L64246 79153
L64330 79125
L64386 79125
L64471 79153
L64499 79181
" />
<path d="M65005 79715
L65005 79406
L64977 79350
L64921 79322
L64808 79322
L64752 79350
" />
<path d="M65005 79687
L64949 79715
L64808 79715
L64752 79687
L64724 79631
L64724 79575
L64752 79519
L64808 79491
L64949 79491
L65005 79462
" />
<path d="M65539 79715
L65539 79125
" />
<path d="M65539 79687
L65483 79715
L65371 79715
L65314 79687
L65286 79659
L65258 79603
L65258 79434
L65286 79378
L65314 79350
L65371 79322
L65483 79322
L65539 79350
" />
<path d="M66271 79406
L66467 79406
" />
<path d="M66552 79715
L66271 79715
L66271 79125
L66552 79125
" />
<path d="M66805 79659
L66833 79687
L66805 79715
L66777 79687
L66805 79659
L66805 79715
" />
<path d="M67086 79715
L67086 79125
L67227 79125
L67311 79153
L67367 79209
L67395 79266
L67424 79378
L67424 79462
L67395 79575
L67367 79631
L67311 79687
L67227 79715
L67086 79715
" />
<path d="M67677 79659
L67705 79687
L67677 79715
L67649 79687
L67677 79659
L67677 79715
" />
<path d="M67930 79547
L68211 79547
" />
<path d="M67874 79715
L68070 79125
L68267 79715
" />
<path d="M68464 79659
L68492 79687
L68464 79715
L68436 79687
L68464 79659
L68464 79715
" />
<path d="M69645 79715
L69645 79125
" />
<path d="M69701 79491
L69870 79715
" />
<path d="M69870 79322
L69645 79547
" />
<path d="M70123 79715
L70123 79322
" />
<path d="M70123 79125
L70095 79153
L70123 79181
L70151 79153
L70123 79125
L70123 79181
" />
<path d="M70658 79687
L70601 79715
L70489 79715
L70433 79687
L70404 79659
L70376 79603
L70376 79434
L70404 79378
L70433 79350
L70489 79322
L70601 79322
L70658 79350
" />
<path d="M71164 79715
L71164 79406
L71136 79350
L71079 79322
L70967 79322
L70911 79350
" />
<path d="M71164 79687
L71107 79715
L70967 79715
L70911 79687
L70883 79631
L70883 79575
L70911 79519
L70967 79491
L71107 79491
L71164 79462
" />
<path d="M71698 79715
L71698 79125
" />
<path d="M71698 79687
L71642 79715
L71529 79715
L71473 79687
L71445 79659
L71417 79603
L71417 79434
L71445 79378
L71473 79350
L71529 79322
L71642 79322
L71698 79350
" />
<path d="M72682 79322
L72682 79715
" />
<path d="M72542 79097
L72401 79519
L72767 79519
" />
<path d="M72992 79659
L73020 79687
L72992 79715
L72964 79687
L72992 79659
L72992 79715
" />
<path d="M73385 79125
L73442 79125
L73498 79153
L73526 79181
L73554 79237
L73582 79350
L73582 79491
L73554 79603
L73526 79659
L73498 79687
L73442 79715
L73385 79715
L73329 79687
L73301 79659
L73273 79603
L73245 79491
L73245 79350
L73273 79237
L73301 79181
L73329 79153
L73385 79125
" />
<path d="M73835 79659
L73863 79687
L73835 79715
L73807 79687
L73835 79659
L73835 79715
" />
<path d="M74426 79715
L74088 79715
" />
<path d="M74257 79715
L74257 79125
L74201 79209
L74145 79266
L74088 79294
" />
<path d="M74679 79491
L75129 79491
" />
<path d="M75382 79687
L75438 79715
L75551 79715
L75607 79687
L75635 79631
L75635 79603
L75607 79547
L75551 79519
L75466 79519
L75410 79491
L75382 79434
L75382 79406
L75410 79350
L75466 79322
L75551 79322
L75607 79350
" />
<path d="M75804 79322
L76029 79322
" />
<path d="M75888 79125
L75888 79631
L75916 79687
L75973 79715
L76029 79715
" />
<path d="M76479 79715
L76479 79406
L76451 79350
L76394 79322
L76282 79322
L76226 79350
" />
<path d="M76479 79687
L76422 79715
L76282 79715
L76226 79687
L76197 79631
L76197 79575
L76226 79519
L76282 79491
L76422 79491
L76479 79462
" />
<path d="M76760 79715
L76760 79125
" />
<path d="M76760 79350
L76816 79322
L76929 79322
L76985 79350
L77013 79378
L77041 79434
L77041 79603
L77013 79659
L76985 79687
L76929 79715
L76816 79715
L76760 79687
" />
<path d="M77379 79715
L77322 79687
L77294 79631
L77294 79125
" />
<path d="M77829 79687
L77772 79715
L77660 79715
L77604 79687
L77575 79631
L77575 79406
L77604 79350
L77660 79322
L77772 79322
L77829 79350
L77857 79406
L77857 79462
L77575 79519
" />
</g>
<g style="fill:#000000; fill-opacity:0.0; 
stroke:#000000; stroke-width:39.3701; stroke-opacity:1; 
stroke-linecap:round; stroke-linejoin:round;">
</g>
<g style="fill:#000000; fill-opacity:0.0; 
stroke:#000000; stroke-width:59.0551; stroke-opacity:1; 
stroke-linecap:round; stroke-linejoin:round;">
<path d="M62755 77716
L105275 77716
" />
</g>
<g style="fill:#000000; fill-opacity:0.0; 
stroke:#000000; stroke-width:39.3701; stroke-opacity:1; 
stroke-linecap:round; stroke-linejoin:round;">
</g>
<g style="fill:#000000; fill-opacity:0.0; 
stroke:#000000; stroke-width:118.11; stroke-opacity:1; 
stroke-linecap:round; stroke-linejoin:round;">
<path d="M97092 78613
L96895 78332
" />
<path d="M96754 78613
L96754 78023
L96979 78023
L97035 78051
L97064 78079
L97092 78135
L97092 78219
L97064 78276
L97035 78304
L96979 78332
L96754 78332
" />
<path d="M97570 78585
L97514 78613
L97401 78613
L97345 78585
L97317 78529
L97317 78304
L97345 78248
L97401 78219
L97514 78219
L97570 78248
L97598 78304
L97598 78360
L97317 78416
" />
<path d="M97795 78219
L97935 78613
L98076 78219
" />
<path d="M98301 78557
L98329 78585
L98301 78613
L98273 78585
L98301 78557
L98301 78613
" />
<path d="M98301 78248
L98329 78276
L98301 78304
L98273 78276
L98301 78248
L98301 78304
" />
<path d="M98976 78023
L99341 78023
L99145 78248
L99229 78248
L99285 78276
L99313 78304
L99341 78360
L99341 78501
L99313 78557
L99285 78585
L99229 78613
L99060 78613
L99004 78585
L98976 78557
" />
<path d="M99595 78557
L99623 78585
L99595 78613
L99566 78585
L99595 78557
L99595 78613
" />
<path d="M100185 78613
L99848 78613
" />
<path d="M100016 78613
L100016 78023
L99960 78107
L99904 78163
L99848 78191
" />
</g>
<g style="fill:#000000; fill-opacity:0.0; 
stroke:#000000; stroke-width:39.3701; stroke-opacity:1; 
stroke-linecap:round; stroke-linejoin:round;">
</g>
<g style="fill:#000000; fill-opacity:0.0; 
stroke:#000000; stroke-width:59.0551; stroke-opacity:1; 
stroke-linecap:round; stroke-linejoin:round;">
<path d="M63262 78585
L63346 78613
L63487 78613
L63543 78585
L63571 78557
L63599 78501
L63599 78444
L63571 78388
L63543 78360
L63487 78332
L63374 78304
L63318 78276
L63290 78248
L63262 78191
L63262 78135
L63290 78079
L63318 78051
L63374 78023
L63515 78023
L63599 78051
" />
<path d="M63852 78613
L63852 78219
" />
<path d="M63852 78023
L63824 78051
L63852 78079
L63880 78051
L63852 78023
L63852 78079
" />
<path d="M64077 78219
L64386 78219
L64077 78613
L64386 78613
" />
<path d="M64836 78585
L64780 78613
L64668 78613
L64611 78585
L64583 78529
L64583 78304
L64611 78248
L64668 78219
L64780 78219
L64836 78248
L64865 78304
L64865 78360
L64583 78416
" />
<path d="M65118 78557
L65146 78585
L65118 78613
L65089 78585
L65118 78557
L65118 78613
" />
<path d="M65118 78248
L65146 78276
L65118 78304
L65089 78276
L65118 78248
L65118 78304
" />
<path d="M65849 78023
L65849 78501
L65877 78557
L65905 78585
L65961 78613
L66074 78613
L66130 78585
L66158 78557
L66186 78501
L66186 78023
" />
<path d="M66439 78585
L66524 78613
L66664 78613
L66721 78585
L66749 78557
L66777 78501
L66777 78444
L66749 78388
L66721 78360
L66664 78332
L66552 78304
L66496 78276
L66467 78248
L66439 78191
L66439 78135
L66467 78079
L66496 78051
L66552 78023
L66692 78023
L66777 78051
" />
<path d="M67311 78613
L67030 78613
L67030 78023
" />
<path d="M67733 78585
L67677 78613
L67564 78613
L67508 78585
L67480 78529
L67480 78304
L67508 78248
L67564 78219
L67677 78219
L67733 78248
L67761 78304
L67761 78360
L67480 78416
" />
<path d="M67930 78219
L68155 78219
" />
<path d="M68014 78023
L68014 78529
L68042 78585
L68098 78613
L68155 78613
" />
<path d="M68267 78219
L68492 78219
" />
<path d="M68352 78023
L68352 78529
L68380 78585
L68436 78613
L68492 78613
" />
<path d="M68914 78585
L68858 78613
L68745 78613
L68689 78585
L68661 78529
L68661 78304
L68689 78248
L68745 78219
L68858 78219
L68914 78248
L68942 78304
L68942 78360
L68661 78416
" />
<path d="M69195 78613
L69195 78219
" />
<path d="M69195 78332
L69223 78276
L69251 78248
L69308 78219
L69364 78219
" />
</g>
<g style="fill:#000000; fill-opacity:0.0; 
stroke:#000000; stroke-width:39.3701; stroke-opacity:1; 
stroke-linecap:round; stroke-linejoin:round;">
</g>
<g style="fill:#000000; fill-opacity:0.0; 
stroke:#000000; stroke-width:59.0551; stroke-opacity:1; 
stroke-linecap:round; stroke-linejoin:round;">
<path d="M96754 79715
L96754 79125
" />
<path d="M97289 79715
L97289 79125
" />
<path d="M97289 79687
L97232 79715
L97120 79715
L97064 79687
L97035 79659
L97007 79603
L97007 79434
L97035 79378
L97064 79350
L97120 79322
L97232 79322
L97289 79350
" />
<path d="M97570 79659
L97598 79687
L97570 79715
L97542 79687
L97570 79659
L97570 79715
" />
<path d="M97570 79350
L97598 79378
L97570 79406
L97542 79378
L97570 79350
L97570 79406
" />
<path d="M98610 79715
L98273 79715
" />
<path d="M98442 79715
L98442 79125
L98385 79209
L98329 79266
L98273 79294
" />
<path d="M99285 79097
L98779 79856
" />
<path d="M99791 79715
L99454 79715
" />
<path d="M99623 79715
L99623 79125
L99566 79209
L99510 79266
L99454 79294
" />
</g>
<g style="fill:#000000; fill-opacity:0.0; 
stroke:#000000; stroke-width:39.3701; stroke-opacity:1; 
stroke-linecap:round; stroke-linejoin:round;">
</g>
<g style="fill:#000000; fill-opacity:0.0; 
stroke:#000000; stroke-width:59.0551; stroke-opacity:1; 
stroke-linecap:round; stroke-linejoin:round;">
<path d="M62755 76141
L105275 76141
" />
</g>
<g style="fill:#000000; fill-opacity:0.0; 
stroke:#000000; stroke-width:39.3701; stroke-opacity:1; 
stroke-linecap:round; stroke-linejoin:round;">
</g>
<g style="fill:#000000; fill-opacity:0.0; 
stroke:#000000; stroke-width:157.48; stroke-opacity:1; 
stroke-linecap:round; stroke-linejoin:round;">
<path d="M63327 76419
L63777 76419
" />
<path d="M63454 77206
L63552 76419
" />
<path d="M63941 77206
L64007 76681
" />
<path d="M64040 76419
L63997 76456
L64030 76494
L64072 76456
L64040 76419
L64030 76494
" />
<path d="M64269 76681
L64569 76681
" />
<path d="M64415 76419
L64330 77094
L64358 77169
L64429 77206
L64504 77206
" />
<path d="M64879 77206
L64808 77169
L64780 77094
L64865 76419
" />
<path d="M65483 77169
L65404 77206
L65254 77206
L65183 77169
L65155 77094
L65193 76794
L65239 76719
L65319 76681
L65469 76681
L65539 76719
L65568 76794
L65558 76869
L65174 76944
" />
<path d="M65863 77131
L65896 77169
L65853 77206
L65821 77169
L65863 77131
L65853 77206
" />
<path d="M65914 76719
L65947 76756
L65905 76794
L65872 76756
L65914 76719
L65905 76794
" />
<path d="M67231 76681
L67166 77206
" />
<path d="M67081 76381
L66824 76944
L67311 76944
" />
<path d="M67827 76419
L67902 76419
L67972 76456
L68005 76494
L68033 76569
L68052 76719
L68028 76906
L67972 77056
L67925 77131
L67883 77169
L67803 77206
L67728 77206
L67658 77169
L67625 77131
L67597 77056
L67578 76906
L67602 76719
L67658 76569
L67705 76494
L67747 76456
L67827 76419
" />
<path d="M68366 76906
L68966 76906
" />
<path d="M69645 77169
L69565 77206
L69416 77206
L69345 77169
L69312 77131
L69284 77056
L69312 76831
L69359 76756
L69401 76719
L69481 76681
L69631 76681
L69701 76719
" />
<path d="M69978 77206
L70076 76419
" />
<path d="M70315 77206
L70367 76794
L70339 76719
L70269 76681
L70156 76681
L70076 76719
L70034 76756
" />
<path d="M71028 77206
L71079 76794
L71051 76719
L70981 76681
L70831 76681
L70751 76719
" />
<path d="M71032 77169
L70953 77206
L70765 77206
L70695 77169
L70667 77094
L70676 77019
L70723 76944
L70803 76906
L70990 76906
L71070 76869
" />
<path d="M71468 76681
L71403 77206
" />
<path d="M71459 76756
L71501 76719
L71581 76681
L71693 76681
L71764 76719
L71792 76794
L71740 77206
" />
<path d="M72181 76681
L72115 77206
" />
<path d="M72171 76756
L72214 76719
L72293 76681
L72406 76681
L72476 76719
L72504 76794
L72453 77206
" />
<path d="M73132 77169
L73053 77206
L72903 77206
L72832 77169
L72804 77094
L72842 76794
L72889 76719
L72968 76681
L73118 76681
L73188 76719
L73217 76794
L73207 76869
L72823 76944
" />
<path d="M73615 77206
L73545 77169
L73517 77094
L73601 76419
" />
<path d="M74515 77206
L74613 76419
" />
<path d="M74566 76794
L75016 76794
" />
<path d="M74965 77206
L75063 76419
" />
<path d="M75326 76419
L75490 77206
L75851 76419
" />
<path d="M76582 77169
L76652 77206
L76802 77206
L76882 77169
L76929 77094
L76933 77056
L76905 76981
L76835 76944
L76722 76944
L76652 76906
L76624 76831
L76629 76794
L76676 76719
L76755 76681
L76868 76681
L76938 76719
" />
<path d="M77243 76681
L77327 77206
L77524 76831
L77627 77206
L77843 76681
" />
<path d="M78077 77206
L78143 76681
" />
<path d="M78175 76419
L78133 76456
L78166 76494
L78208 76456
L78175 76419
L78166 76494
" />
<path d="M78405 76681
L78705 76681
" />
<path d="M78550 76419
L78466 77094
L78494 77169
L78564 77206
L78639 77206
" />
<path d="M79244 77169
L79164 77206
L79014 77206
L78944 77169
L78911 77131
L78883 77056
L78911 76831
L78958 76756
L79000 76719
L79080 76681
L79230 76681
L79300 76719
" />
<path d="M79577 77206
L79675 76419
" />
<path d="M79914 77206
L79966 76794
L79938 76719
L79867 76681
L79755 76681
L79675 76719
L79633 76756
" />
<path d="M80289 77206
L80355 76681
" />
<path d="M80388 76419
L80345 76456
L80378 76494
L80420 76456
L80388 76419
L80378 76494
" />
<path d="M80730 76681
L80664 77206
" />
<path d="M80720 76756
L80763 76719
L80842 76681
L80955 76681
L81025 76719
L81053 76794
L81002 77206
" />
<path d="M81780 76681
L81700 77319
L81653 77394
L81611 77431
L81531 77469
L81419 77469
L81348 77431
" />
<path d="M81719 77169
L81639 77206
L81489 77206
L81419 77169
L81386 77131
L81358 77056
L81386 76831
L81433 76756
L81475 76719
L81555 76681
L81705 76681
L81775 76719
" />
<path d="M82689 77206
L82787 76419
" />
<path d="M82750 76719
L82829 76681
L82979 76681
L83050 76719
L83083 76756
L83111 76831
L83083 77056
L83036 77131
L82994 77169
L82914 77206
L82764 77206
L82694 77169
" />
<path d="M83514 77206
L83443 77169
L83411 77131
L83383 77056
L83411 76831
L83458 76756
L83500 76719
L83579 76681
L83692 76681
L83762 76719
L83795 76756
L83823 76831
L83795 77056
L83748 77131
L83706 77169
L83626 77206
L83514 77206
" />
<path d="M84451 77206
L84503 76794
L84475 76719
L84404 76681
L84254 76681
L84175 76719
" />
<path d="M84456 77169
L84376 77206
L84189 77206
L84118 77169
L84090 77094
L84100 77019
L84146 76944
L84226 76906
L84414 76906
L84493 76869
" />
<path d="M84826 77206
L84892 76681
" />
<path d="M84873 76831
L84920 76756
L84962 76719
L85042 76681
L85117 76681
" />
<path d="M85651 77206
L85749 76419
" />
<path d="M85656 77169
L85576 77206
L85426 77206
L85356 77169
L85323 77131
L85295 77056
L85323 76831
L85370 76756
L85412 76719
L85492 76681
L85642 76681
L85712 76719
" />
</g>
<g style="fill:#000000; fill-opacity:0.0; 
stroke:#000000; stroke-width:39.3701; stroke-opacity:1; 
stroke-linecap:round; stroke-linejoin:round;">
</g>
<g style="fill:#000000; fill-opacity:0.0; 
stroke:#000000; stroke-width:59.0551; stroke-opacity:1; 
stroke-linecap:round; stroke-linejoin:round;">
<path d="M63487 75390
L63290 75390
" />
<path d="M63290 75700
L63290 75109
L63571 75109
" />
<path d="M63796 75700
L63796 75306
" />
<path d="M63796 75109
L63768 75137
L63796 75165
L63824 75137
L63796 75109
L63796 75165
" />
<path d="M64161 75700
L64105 75672
L64077 75615
L64077 75109
" />
<path d="M64611 75672
L64555 75700
L64443 75700
L64386 75672
L64358 75615
L64358 75390
L64386 75334
L64443 75306
L64555 75306
L64611 75334
L64640 75390
L64640 75447
L64358 75503
" />
<path d="M64893 75643
L64921 75672
L64893 75700
L64865 75672
L64893 75643
L64893 75700
" />
<path d="M64893 75334
L64921 75362
L64893 75390
L64865 75362
L64893 75334
L64893 75390
" />
<path d="M65877 75306
L65877 75700
" />
<path d="M65736 75081
L65596 75503
L65961 75503
" />
<path d="M66299 75109
L66355 75109
L66411 75137
L66439 75165
L66467 75222
L66496 75334
L66496 75475
L66467 75587
L66439 75643
L66411 75672
L66355 75700
L66299 75700
L66242 75672
L66214 75643
L66186 75587
L66158 75475
L66158 75334
L66186 75222
L66214 75165
L66242 75137
L66299 75109
" />
<path d="M66749 75475
L67199 75475
" />
<path d="M67733 75672
L67677 75700
L67564 75700
L67508 75672
L67480 75643
L67452 75587
L67452 75419
L67480 75362
L67508 75334
L67564 75306
L67677 75306
L67733 75334
" />
<path d="M67986 75700
L67986 75109
" />
<path d="M68239 75700
L68239 75390
L68211 75334
L68155 75306
L68070 75306
L68014 75334
L67986 75362
" />
<path d="M68773 75700
L68773 75390
L68745 75334
L68689 75306
L68577 75306
L68520 75334
" />
<path d="M68773 75672
L68717 75700
L68577 75700
L68520 75672
L68492 75615
L68492 75559
L68520 75503
L68577 75475
L68717 75475
L68773 75447
" />
<path d="M69055 75306
L69055 75700
" />
<path d="M69055 75362
L69083 75334
L69139 75306
L69223 75306
L69280 75334
L69308 75390
L69308 75700
" />
<path d="M69589 75306
L69589 75700
" />
<path d="M69589 75362
L69617 75334
L69673 75306
L69758 75306
L69814 75334
L69842 75390
L69842 75700
" />
<path d="M70348 75672
L70292 75700
L70179 75700
L70123 75672
L70095 75615
L70095 75390
L70123 75334
L70179 75306
L70292 75306
L70348 75334
L70376 75390
L70376 75447
L70095 75503
" />
<path d="M70714 75700
L70658 75672
L70629 75615
L70629 75109
" />
<path d="M71389 75700
L71389 75109
" />
<path d="M71389 75390
L71726 75390
" />
<path d="M71726 75700
L71726 75109
" />
<path d="M71923 75109
L72120 75700
L72317 75109
" />
<path d="M72935 75672
L72992 75700
L73104 75700
L73160 75672
L73188 75615
L73188 75587
L73160 75531
L73104 75503
L73020 75503
L72964 75475
L72935 75419
L72935 75390
L72964 75334
L73020 75306
L73104 75306
L73160 75334
" />
<path d="M73385 75306
L73498 75700
L73610 75419
L73723 75700
L73835 75306
" />
<path d="M74060 75700
L74060 75306
" />
<path d="M74060 75109
L74032 75137
L74060 75165
L74088 75137
L74060 75109
L74060 75165
" />
<path d="M74257 75306
L74482 75306
" />
<path d="M74341 75109
L74341 75615
L74370 75672
L74426 75700
L74482 75700
" />
<path d="M74932 75672
L74876 75700
L74763 75700
L74707 75672
L74679 75643
L74651 75587
L74651 75419
L74679 75362
L74707 75334
L74763 75306
L74876 75306
L74932 75334
" />
<path d="M75185 75700
L75185 75109
" />
<path d="M75438 75700
L75438 75390
L75410 75334
L75354 75306
L75269 75306
L75213 75334
L75185 75362
" />
<path d="M75719 75700
L75719 75306
" />
<path d="M75719 75109
L75691 75137
L75719 75165
L75748 75137
L75719 75109
L75719 75165
" />
<path d="M76001 75306
L76001 75700
" />
<path d="M76001 75362
L76029 75334
L76085 75306
L76169 75306
L76226 75334
L76254 75390
L76254 75700
" />
<path d="M76788 75306
L76788 75784
L76760 75840
L76732 75868
L76676 75897
L76591 75897
L76535 75868
" />
<path d="M76788 75672
L76732 75700
L76619 75700
L76563 75672
L76535 75643
L76507 75587
L76507 75419
L76535 75362
L76563 75334
L76619 75306
L76732 75306
L76788 75334
" />
<path d="M77519 75700
L77519 75109
" />
<path d="M77519 75334
L77575 75306
L77688 75306
L77744 75334
L77772 75362
L77800 75419
L77800 75587
L77772 75643
L77744 75672
L77688 75700
L77575 75700
L77519 75672
" />
<path d="M78138 75700
L78082 75672
L78053 75643
L78025 75587
L78025 75419
L78053 75362
L78082 75334
L78138 75306
L78222 75306
L78278 75334
L78307 75362
L78335 75419
L78335 75587
L78307 75643
L78278 75672
L78222 75700
L78138 75700
" />
<path d="M78841 75700
L78841 75390
L78813 75334
L78757 75306
L78644 75306
L78588 75334
" />
<path d="M78841 75672
L78785 75700
L78644 75700
L78588 75672
L78560 75615
L78560 75559
L78588 75503
L78644 75475
L78785 75475
L78841 75447
" />
<path d="M79122 75700
L79122 75306
" />
<path d="M79122 75419
L79150 75362
L79178 75334
L79235 75306
L79291 75306
" />
<path d="M79741 75700
L79741 75109
" />
<path d="M79741 75672
L79685 75700
L79572 75700
L79516 75672
L79488 75643
L79460 75587
L79460 75419
L79488 75362
L79516 75334
L79572 75306
L79685 75306
L79741 75334
" />
<path d="M80022 75643
L80050 75672
L80022 75700
L79994 75672
L80022 75643
L80022 75700
" />
<path d="M80303 75700
L80303 75109
" />
<path d="M80359 75475
L80528 75700
" />
<path d="M80528 75306
L80303 75531
" />
<path d="M80781 75700
L80781 75306
" />
<path d="M80781 75109
L80753 75137
L80781 75165
L80809 75137
L80781 75109
L80781 75165
" />
<path d="M81316 75672
L81259 75700
L81147 75700
L81091 75672
L81062 75643
L81034 75587
L81034 75419
L81062 75362
L81091 75334
L81147 75306
L81259 75306
L81316 75334
" />
<path d="M81822 75700
L81822 75390
L81794 75334
L81737 75306
L81625 75306
L81569 75334
" />
<path d="M81822 75672
L81766 75700
L81625 75700
L81569 75672
L81541 75615
L81541 75559
L81569 75503
L81625 75475
L81766 75475
L81822 75447
" />
<path d="M82356 75700
L82356 75109
" />
<path d="M82356 75672
L82300 75700
L82187 75700
L82131 75672
L82103 75643
L82075 75587
L82075 75419
L82103 75362
L82131 75334
L82187 75306
L82300 75306
L82356 75334
" />
<path d="M82497 75756
L82947 75756
" />
<path d="M83087 75306
L83087 75897
" />
<path d="M83087 75334
L83143 75306
L83256 75306
L83312 75334
L83340 75362
L83368 75419
L83368 75587
L83340 75643
L83312 75672
L83256 75700
L83143 75700
L83087 75672
" />
<path d="M83875 75672
L83818 75700
L83706 75700
L83650 75672
L83622 75643
L83593 75587
L83593 75419
L83622 75362
L83650 75334
L83706 75306
L83818 75306
L83875 75334
" />
<path d="M84128 75700
L84128 75109
" />
<path d="M84128 75334
L84184 75306
L84296 75306
L84353 75334
L84381 75362
L84409 75419
L84409 75587
L84381 75643
L84353 75672
L84296 75700
L84184 75700
L84128 75672
" />
</g>
<g style="fill:#000000; fill-opacity:0.0; 
stroke:#000000; stroke-width:39.3701; stroke-opacity:1; 
stroke-linecap:round; stroke-linejoin:round;">
</g>
<g style="fill:#000000; fill-opacity:0.0; 
stroke:#000000; stroke-width:59.0551; stroke-opacity:1; 
stroke-linecap:round; stroke-linejoin:round;">
<path d="M62755 73779
L105275 73779
" />
</g>
<g style="fill:#000000; fill-opacity:0.0; 
stroke:#000000; stroke-width:39.3701; stroke-opacity:1; 
stroke-linecap:round; stroke-linejoin:round;">
</g>
<g style="fill:#000000; fill-opacity:0.0; 
stroke:#000000; stroke-width:59.0551; stroke-opacity:1; 
stroke-linecap:round; stroke-linejoin:round;">
<path d="M63262 74609
L63346 74637
L63487 74637
L63543 74609
L63571 74580
L63599 74524
L63599 74468
L63571 74412
L63543 74384
L63487 74356
L63374 74327
L63318 74299
L63290 74271
L63262 74215
L63262 74159
L63290 74102
L63318 74074
L63374 74046
L63515 74046
L63599 74074
" />
<path d="M63852 74637
L63852 74046
" />
<path d="M64105 74637
L64105 74327
L64077 74271
L64021 74243
L63937 74243
L63880 74271
L63852 74299
" />
<path d="M64611 74609
L64555 74637
L64443 74637
L64386 74609
L64358 74552
L64358 74327
L64386 74271
L64443 74243
L64555 74243
L64611 74271
L64640 74327
L64640 74384
L64358 74440
" />
<path d="M65118 74609
L65061 74637
L64949 74637
L64893 74609
L64865 74552
L64865 74327
L64893 74271
L64949 74243
L65061 74243
L65118 74271
L65146 74327
L65146 74384
L64865 74440
" />
<path d="M65314 74243
L65539 74243
" />
<path d="M65399 74046
L65399 74552
L65427 74609
L65483 74637
L65539 74637
" />
<path d="M65736 74580
L65764 74609
L65736 74637
L65708 74609
L65736 74580
L65736 74637
" />
<path d="M65736 74271
L65764 74299
L65736 74327
L65708 74299
L65736 74271
L65736 74327
" />
</g>
<g style="fill:#000000; fill-opacity:0.0; 
stroke:#000000; stroke-width:39.3701; stroke-opacity:1; 
stroke-linecap:round; stroke-linejoin:round;">
</g>
<g style="fill:#000000; fill-opacity:0.0; 
stroke:#000000; stroke-width:118.11; stroke-opacity:1; 
stroke-linecap:round; stroke-linejoin:round;">
<path d="M63262 73428
L63346 73456
L63487 73456
L63543 73428
L63571 73399
L63599 73343
L63599 73287
L63571 73231
L63543 73203
L63487 73174
L63374 73146
L63318 73118
L63290 73090
L63262 73034
L63262 72978
L63290 72921
L63318 72893
L63374 72865
L63515 72865
L63599 72893
" />
<path d="M64105 73428
L64049 73456
L63937 73456
L63880 73428
L63852 73399
L63824 73343
L63824 73174
L63852 73118
L63880 73090
L63937 73062
L64049 73062
L64105 73090
" />
<path d="M64358 73456
L64358 73062
" />
<path d="M64358 72865
L64330 72893
L64358 72921
L64386 72893
L64358 72865
L64358 72921
" />
<path d="M64640 73231
L65089 73231
" />
<path d="M65568 73146
L65652 73174
L65680 73203
L65708 73259
L65708 73343
L65680 73399
L65652 73428
L65596 73456
L65371 73456
L65371 72865
L65568 72865
L65624 72893
L65652 72921
L65680 72978
L65680 73034
L65652 73090
L65624 73118
L65568 73146
L65371 73146
" />
<path d="M66046 73456
L65989 73428
L65961 73399
L65933 73343
L65933 73174
L65961 73118
L65989 73090
L66046 73062
L66130 73062
L66186 73090
L66214 73118
L66242 73174
L66242 73343
L66214 73399
L66186 73428
L66130 73456
L66046 73456
" />
<path d="M66411 73062
L66636 73062
" />
<path d="M66496 72865
L66496 73371
L66524 73428
L66580 73456
L66636 73456
" />
<path d="M66805 73428
L66861 73456
L66974 73456
L67030 73428
L67058 73371
L67058 73343
L67030 73287
L66974 73259
L66889 73259
L66833 73231
L66805 73174
L66805 73146
L66833 73090
L66889 73062
L66974 73062
L67030 73090
" />
<path d="M67761 73456
L67761 72865
" />
<path d="M68042 73062
L68042 73456
" />
<path d="M68042 73118
L68070 73090
L68127 73062
L68211 73062
L68267 73090
L68295 73146
L68295 73456
" />
<path d="M68830 73428
L68773 73456
L68661 73456
L68605 73428
L68577 73399
L68548 73343
L68548 73174
L68577 73118
L68605 73090
L68661 73062
L68773 73062
L68830 73090
" />
<path d="M69083 73399
L69111 73428
L69083 73456
L69055 73428
L69083 73399
L69083 73456
" />
</g>
<g style="fill:#000000; fill-opacity:0.0; 
stroke:#000000; stroke-width:39.3701; stroke-opacity:1; 
stroke-linecap:round; stroke-linejoin:round;">
</g>
<g style="fill:#000000; fill-opacity:0.0; 
stroke:#000000; stroke-width:59.0551; stroke-opacity:1; 
stroke-linecap:round; stroke-linejoin:round;">
<path d="M70629 77716
L70629 78897
" />
</g>
<g style="fill:#000000; fill-opacity:0.0; 
stroke:#000000; stroke-width:39.3701; stroke-opacity:1; 
stroke-linecap:round; stroke-linejoin:round;">
</g>
<g style="fill:#000000; fill-opacity:0.0; 
stroke:#000000; stroke-width:59.0551; stroke-opacity:1; 
stroke-linecap:round; stroke-linejoin:round;">
<path d="M95826 77716
L95826 80275
" />
</g>
<g style="fill:#000000; fill-opacity:0.0; 
stroke:#000000; stroke-width:39.3701; stroke-opacity:1; 
stroke-linecap:round; stroke-linejoin:round;">
<path d="M42519 9055
L42519 45275
" />
<path d="M9448 9055
L42519 9055
" />
<path d="M9448 45275
L9448 9055
" />
<path d="M42519 45275
L9448 45275
" />
</g>
<g style="fill:#000000; fill-opacity:0.0; 
stroke:#000000; stroke-width:0; stroke-opacity:1; 
stroke-linecap:round; stroke-linejoin:round;">
</g>
<g style="fill:#000000; fill-opacity:1.0; 
stroke:#000000; stroke-width:0; stroke-opacity:1; 
stroke-linecap:round; stroke-linejoin:round;">
<polyline style="fill-rule:evenodd;"
points="30494,21873
30494,20873
31294,20873
31294,21873
30494,21873
" /> 
<polyline style="fill-rule:evenodd;"
points="31494,21873
31494,20873
32294,20873
32294,21873
31494,21873
" /> 
<polyline style="fill-rule:evenodd;"
points="32494,21873
32494,20873
33294,20873
33294,21873
32494,21873
" /> 
<polyline style="fill-rule:evenodd;"
points="33494,21873
33494,20873
34294,20873
34294,21873
33494,21873
" /> 
<polyline style="fill-rule:evenodd;"
points="33494,24873
33494,23873
34294,23873
34294,24873
33494,24873
" /> 
<polyline style="fill-rule:evenodd;"
points="32494,24873
32494,23873
33294,23873
33294,24873
32494,24873
" /> 
<polyline style="fill-rule:evenodd;"
points="31494,24873
31494,23873
32294,23873
32294,24873
31494,24873
" /> 
<polyline style="fill-rule:evenodd;"
points="30494,24873
30494,23873
31294,23873
31294,24873
30494,24873
" /> 
<polyline style="fill-rule:evenodd;"
points="26038,19431
26750,19431
26750,19906
26038,19906
26038,19431
" /> 
<polyline style="fill-rule:evenodd;"
points="26038,20179
26750,20179
26750,20654
26038,20654
26038,20179
" /> 
<polyline style="fill-rule:evenodd;"
points="36012,40894
37688,40894
37688,42098
36012,42098
36012,40894
" /> 
<polyline style="fill-rule:evenodd;"
points="36012,43020
37688,43020
37688,44224
36012,44224
36012,43020
" /> 
<polyline style="fill-rule:evenodd;"
points="12494,16212
12494,15212
13294,15212
13294,16212
12494,16212
" /> 
<polyline style="fill-rule:evenodd;"
points="13494,16212
13494,15212
14294,15212
14294,16212
13494,16212
" /> 
<polyline style="fill-rule:evenodd;"
points="14494,16212
14494,15212
15294,15212
15294,16212
14494,16212
" /> 
<polyline style="fill-rule:evenodd;"
points="15494,16212
15494,15212
16294,15212
16294,16212
15494,16212
" /> 
<polyline style="fill-rule:evenodd;"
points="15494,19212
15494,18212
16294,18212
16294,19212
15494,19212
" /> 
<polyline style="fill-rule:evenodd;"
points="14494,19212
14494,18212
15294,18212
15294,19212
14494,19212
" /> 
<polyline style="fill-rule:evenodd;"
points="13494,19212
13494,18212
14294,18212
14294,19212
13494,19212
" /> 
<polyline style="fill-rule:evenodd;"
points="12494,19212
12494,18212
13294,18212
13294,19212
12494,19212
" /> 
<polyline style="fill-rule:evenodd;"
points="12494,21873
12494,20873
13294,20873
13294,21873
12494,21873
" /> 
<polyline style="fill-rule:evenodd;"
points="13494,21873
13494,20873
14294,20873
14294,21873
13494,21873
" /> 
<polyline style="fill-rule:evenodd;"
points="14494,21873
14494,20873
15294,20873
15294,21873
14494,21873
" /> 
<polyline style="fill-rule:evenodd;"
points="15494,21873
15494,20873
16294,20873
16294,21873
15494,21873
" /> 
<polyline style="fill-rule:evenodd;"
points="15494,24873
15494,23873
16294,23873
16294,24873
15494,24873
" /> 
<polyline style="fill-rule:evenodd;"
points="14494,24873
14494,23873
15294,23873
15294,24873
14494,24873
" /> 
<polyline style="fill-rule:evenodd;"
points="13494,24873
13494,23873
14294,23873
14294,24873
13494,24873
" /> 
<polyline style="fill-rule:evenodd;"
points="12494,24873
12494,23873
13294,23873
13294,24873
12494,24873
" /> 
<polyline style="fill-rule:evenodd;"
points="12494,27613
12494,26613
13294,26613
13294,27613
12494,27613
" /> 
<polyline style="fill-rule:evenodd;"
points="13494,27613
13494,26613
14294,26613
14294,27613
13494,27613
" /> 
<polyline style="fill-rule:evenodd;"
points="14494,27613
14494,26613
15294,26613
15294,27613
14494,27613
" /> 
<polyline style="fill-rule:evenodd;"
points="15494,27613
15494,26613
16294,26613
16294,27613
15494,27613
" /> 
<polyline style="fill-rule:evenodd;"
points="15494,30613
15494,29613
16294,29613
16294,30613
15494,30613
" /> 
<polyline style="fill-rule:evenodd;"
points="14494,30613
14494,29613
15294,29613
15294,30613
14494,30613
" /> 
<polyline style="fill-rule:evenodd;"
points="13494,30613
13494,29613
14294,29613
14294,30613
13494,30613
" /> 
<polyline style="fill-rule:evenodd;"
points="12494,30613
12494,29613
13294,29613
13294,30613
12494,30613
" /> 
<polyline style="fill-rule:evenodd;"
points="12494,33314
12494,32314
13294,32314
13294,33314
12494,33314
" /> 
<polyline style="fill-rule:evenodd;"
points="13494,33314
13494,32314
14294,32314
14294,33314
13494,33314
" /> 
<polyline style="fill-rule:evenodd;"
points="14494,33314
14494,32314
15294,32314
15294,33314
14494,33314
" /> 
<polyline style="fill-rule:evenodd;"
points="15494,33314
15494,32314
16294,32314
16294,33314
15494,33314
" /> 
<polyline style="fill-rule:evenodd;"
points="15494,36314
15494,35314
16294,35314
16294,36314
15494,36314
" /> 
<polyline style="fill-rule:evenodd;"
points="14494,36314
14494,35314
15294,35314
15294,36314
14494,36314
" /> 
<polyline style="fill-rule:evenodd;"
points="13494,36314
13494,35314
14294,35314
14294,36314
13494,36314
" /> 
<polyline style="fill-rule:evenodd;"
points="12494,36314
12494,35314
13294,35314
13294,36314
12494,36314
" /> 
<polyline style="fill-rule:evenodd;"
points="18494,16212
18494,15212
19294,15212
19294,16212
18494,16212
" /> 
<polyline style="fill-rule:evenodd;"
points="19494,16212
19494,15212
20294,15212
20294,16212
19494,16212
" /> 
<polyline style="fill-rule:evenodd;"
points="20494,16212
20494,15212
21294,15212
21294,16212
20494,16212
" /> 
<polyline style="fill-rule:evenodd;"
points="21494,16212
21494,15212
22294,15212
22294,16212
21494,16212
" /> 
<polyline style="fill-rule:evenodd;"
points="21494,19212
21494,18212
22294,18212
22294,19212
21494,19212
" /> 
<polyline style="fill-rule:evenodd;"
points="20494,19212
20494,18212
21294,18212
21294,19212
20494,19212
" /> 
<polyline style="fill-rule:evenodd;"
points="19494,19212
19494,18212
20294,18212
20294,19212
19494,19212
" /> 
<polyline style="fill-rule:evenodd;"
points="18494,19212
18494,18212
19294,18212
19294,19212
18494,19212
" /> 
<polyline style="fill-rule:evenodd;"
points="18494,21873
18494,20873
19294,20873
19294,21873
18494,21873
" /> 
<polyline style="fill-rule:evenodd;"
points="19494,21873
19494,20873
20294,20873
20294,21873
19494,21873
" /> 
<polyline style="fill-rule:evenodd;"
points="20494,21873
20494,20873
21294,20873
21294,21873
20494,21873
" /> 
<polyline style="fill-rule:evenodd;"
points="21494,21873
21494,20873
22294,20873
22294,21873
21494,21873
" /> 
<polyline style="fill-rule:evenodd;"
points="21494,24873
21494,23873
22294,23873
22294,24873
21494,24873
" /> 
<polyline style="fill-rule:evenodd;"
points="20494,24873
20494,23873
21294,23873
21294,24873
20494,24873
" /> 
<polyline style="fill-rule:evenodd;"
points="19494,24873
19494,23873
20294,23873
20294,24873
19494,24873
" /> 
<polyline style="fill-rule:evenodd;"
points="18494,24873
18494,23873
19294,23873
19294,24873
18494,24873
" /> 
<polyline style="fill-rule:evenodd;"
points="18494,27613
18494,26613
19294,26613
19294,27613
18494,27613
" /> 
<polyline style="fill-rule:evenodd;"
points="19494,27613
19494,26613
20294,26613
20294,27613
19494,27613
" /> 
<polyline style="fill-rule:evenodd;"
points="20494,27613
20494,26613
21294,26613
21294,27613
20494,27613
" /> 
<polyline style="fill-rule:evenodd;"
points="21494,27613
21494,26613
22294,26613
22294,27613
21494,27613
" /> 
<polyline style="fill-rule:evenodd;"
points="21494,30613
21494,29613
22294,29613
22294,30613
21494,30613
" /> 
<polyline style="fill-rule:evenodd;"
points="20494,30613
20494,29613
21294,29613
21294,30613
20494,30613
" /> 
<polyline style="fill-rule:evenodd;"
points="19494,30613
19494,29613
20294,29613
20294,30613
19494,30613
" /> 
<polyline style="fill-rule:evenodd;"
points="18494,30613
18494,29613
19294,29613
19294,30613
18494,30613
" /> 
<polyline style="fill-rule:evenodd;"
points="18494,33314
18494,32314
19294,32314
19294,33314
18494,33314
" /> 
<polyline style="fill-rule:evenodd;"
points="19494,33314
19494,32314
20294,32314
20294,33314
19494,33314
" /> 
<polyline style="fill-rule:evenodd;"
points="20494,33314
20494,32314
21294,32314
21294,33314
20494,33314
" /> 
<polyline style="fill-rule:evenodd;"
points="21494,33314
21494,32314
22294,32314
22294,33314
21494,33314
" /> 
<polyline style="fill-rule:evenodd;"
points="21494,36314
21494,35314
22294,35314
22294,36314
21494,36314
" /> 
<polyline style="fill-rule:evenodd;"
points="20494,36314
20494,35314
21294,35314
21294,36314
20494,36314
" /> 
<polyline style="fill-rule:evenodd;"
points="19494,36314
19494,35314
20294,35314
20294,36314
19494,36314
" /> 
<polyline style="fill-rule:evenodd;"
points="18494,36314
18494,35314
19294,35314
19294,36314
18494,36314
" /> 
<polyline style="fill-rule:evenodd;"
points="24494,16212
24494,15212
25294,15212
25294,16212
24494,16212
" /> 
<polyline style="fill-rule:evenodd;"
points="25494,16212
25494,15212
26294,15212
26294,16212
25494,16212
" /> 
<polyline style="fill-rule:evenodd;"
points="26494,16212
26494,15212
27294,15212
27294,16212
26494,16212
" /> 
<polyline style="fill-rule:evenodd;"
points="27494,16212
27494,15212
28294,15212
28294,16212
27494,16212
" /> 
<polyline style="fill-rule:evenodd;"
points="27494,19212
27494,18212
28294,18212
28294,19212
27494,19212
" /> 
<polyline style="fill-rule:evenodd;"
points="26494,19212
26494,18212
27294,18212
27294,19212
26494,19212
" /> 
<polyline style="fill-rule:evenodd;"
points="25494,19212
25494,18212
26294,18212
26294,19212
25494,19212
" /> 
<polyline style="fill-rule:evenodd;"
points="24494,19212
24494,18212
25294,18212
25294,19212
24494,19212
" /> 
<polyline style="fill-rule:evenodd;"
points="24494,21873
24494,20873
25294,20873
25294,21873
24494,21873
" /> 
<polyline style="fill-rule:evenodd;"
points="25494,21873
25494,20873
26294,20873
26294,21873
25494,21873
" /> 
<polyline style="fill-rule:evenodd;"
points="26494,21873
26494,20873
27294,20873
27294,21873
26494,21873
" /> 
<polyline style="fill-rule:evenodd;"
points="27494,21873
27494,20873
28294,20873
28294,21873
27494,21873
" /> 
<polyline style="fill-rule:evenodd;"
points="27494,24873
27494,23873
28294,23873
28294,24873
27494,24873
" /> 
<polyline style="fill-rule:evenodd;"
points="26494,24873
26494,23873
27294,23873
27294,24873
26494,24873
" /> 
<polyline style="fill-rule:evenodd;"
points="25494,24873
25494,23873
26294,23873
26294,24873
25494,24873
" /> 
<polyline style="fill-rule:evenodd;"
points="24494,24873
24494,23873
25294,23873
25294,24873
24494,24873
" /> 
<polyline style="fill-rule:evenodd;"
points="24494,27613
24494,26613
25294,26613
25294,27613
24494,27613
" /> 
<polyline style="fill-rule:evenodd;"
points="25494,27613
25494,26613
26294,26613
26294,27613
25494,27613
" /> 
<polyline style="fill-rule:evenodd;"
points="26494,27613
26494,26613
27294,26613
27294,27613
26494,27613
" /> 
<polyline style="fill-rule:evenodd;"
points="27494,27613
27494,26613
28294,26613
28294,27613
27494,27613
" /> 
<polyline style="fill-rule:evenodd;"
points="27494,30613
27494,29613
28294,29613
28294,30613
27494,30613
" /> 
<polyline style="fill-rule:evenodd;"
points="26494,30613
26494,29613
27294,29613
27294,30613
26494,30613
" /> 
<polyline style="fill-rule:evenodd;"
points="25494,30613
25494,29613
26294,29613
26294,30613
25494,30613
" /> 
<polyline style="fill-rule:evenodd;"
points="24494,30613
24494,29613
25294,29613
25294,30613
24494,30613
" /> 
<polyline style="fill-rule:evenodd;"
points="24494,33314
24494,32314
25294,32314
25294,33314
24494,33314
" /> 
<polyline style="fill-rule:evenodd;"
points="25494,33314
25494,32314
26294,32314
26294,33314
25494,33314
" /> 
<polyline style="fill-rule:evenodd;"
points="26494,33314
26494,32314
27294,32314
27294,33314
26494,33314
" /> 
<polyline style="fill-rule:evenodd;"
points="27494,33314
27494,32314
28294,32314
28294,33314
27494,33314
" /> 
<polyline style="fill-rule:evenodd;"
points="27494,36314
27494,35314
28294,35314
28294,36314
27494,36314
" /> 
<polyline style="fill-rule:evenodd;"
points="26494,36314
26494,35314
27294,35314
27294,36314
26494,36314
" /> 
<polyline style="fill-rule:evenodd;"
points="25494,36314
25494,35314
26294,35314
26294,36314
25494,36314
" /> 
<polyline style="fill-rule:evenodd;"
points="24494,36314
24494,35314
25294,35314
25294,36314
24494,36314
" /> 
<polyline style="fill-rule:evenodd;"
points="30494,16212
30494,15212
31294,15212
31294,16212
30494,16212
" /> 
<polyline style="fill-rule:evenodd;"
points="31494,16212
31494,15212
32294,15212
32294,16212
31494,16212
" /> 
<polyline style="fill-rule:evenodd;"
points="32494,16212
32494,15212
33294,15212
33294,16212
32494,16212
" /> 
<polyline style="fill-rule:evenodd;"
points="33494,16212
33494,15212
34294,15212
34294,16212
33494,16212
" /> 
<polyline style="fill-rule:evenodd;"
points="33494,19212
33494,18212
34294,18212
34294,19212
33494,19212
" /> 
<polyline style="fill-rule:evenodd;"
points="32494,19212
32494,18212
33294,18212
33294,19212
32494,19212
" /> 
<polyline style="fill-rule:evenodd;"
points="31494,19212
31494,18212
32294,18212
32294,19212
31494,19212
" /> 
<polyline style="fill-rule:evenodd;"
points="30494,19212
30494,18212
31294,18212
31294,19212
30494,19212
" /> 
<polyline style="fill-rule:evenodd;"
points="30494,27613
30494,26613
31294,26613
31294,27613
30494,27613
" /> 
<polyline style="fill-rule:evenodd;"
points="31494,27613
31494,26613
32294,26613
32294,27613
31494,27613
" /> 
<polyline style="fill-rule:evenodd;"
points="32494,27613
32494,26613
33294,26613
33294,27613
32494,27613
" /> 
<polyline style="fill-rule:evenodd;"
points="33494,27613
33494,26613
34294,26613
34294,27613
33494,27613
" /> 
<polyline style="fill-rule:evenodd;"
points="33494,30613
33494,29613
34294,29613
34294,30613
33494,30613
" /> 
<polyline style="fill-rule:evenodd;"
points="32494,30613
32494,29613
33294,29613
33294,30613
32494,30613
" /> 
<polyline style="fill-rule:evenodd;"
points="31494,30613
31494,29613
32294,29613
32294,30613
31494,30613
" /> 
<polyline style="fill-rule:evenodd;"
points="30494,30613
30494,29613
31294,29613
31294,30613
30494,30613
" /> 
<polyline style="fill-rule:evenodd;"
points="30494,33314
30494,32314
31294,32314
31294,33314
30494,33314
" /> 
<polyline style="fill-rule:evenodd;"
points="31494,33314
31494,32314
32294,32314
32294,33314
31494,33314
" /> 
<polyline style="fill-rule:evenodd;"
points="32494,33314
32494,32314
33294,32314
33294,33314
32494,33314
" /> 
<polyline style="fill-rule:evenodd;"
points="33494,33314
33494,32314
34294,32314
34294,33314
33494,33314
" /> 
<polyline style="fill-rule:evenodd;"
points="33494,36314
33494,35314
34294,35314
34294,36314
33494,36314
" /> 
<polyline style="fill-rule:evenodd;"
points="32494,36314
32494,35314
33294,35314
33294,36314
32494,36314
" /> 
<polyline style="fill-rule:evenodd;"
points="31494,36314
31494,35314
32294,35314
32294,36314
31494,36314
" /> 
<polyline style="fill-rule:evenodd;"
points="30494,36314
30494,35314
31294,35314
31294,36314
30494,36314
" /> 
<polyline style="fill-rule:evenodd;"
points="36494,16212
36494,15212
37294,15212
37294,16212
36494,16212
" /> 
<polyline style="fill-rule:evenodd;"
points="37494,16212
37494,15212
38294,15212
38294,16212
37494,16212
" /> 
<polyline style="fill-rule:evenodd;"
points="38494,16212
38494,15212
39294,15212
39294,16212
38494,16212
" /> 
<polyline style="fill-rule:evenodd;"
points="39494,16212
39494,15212
40294,15212
40294,16212
39494,16212
" /> 
<polyline style="fill-rule:evenodd;"
points="39494,19212
39494,18212
40294,18212
40294,19212
39494,19212
" /> 
<polyline style="fill-rule:evenodd;"
points="38494,19212
38494,18212
39294,18212
39294,19212
38494,19212
" /> 
<polyline style="fill-rule:evenodd;"
points="37494,19212
37494,18212
38294,18212
38294,19212
37494,19212
" /> 
<polyline style="fill-rule:evenodd;"
points="36494,19212
36494,18212
37294,18212
37294,19212
36494,19212
" /> 
<polyline style="fill-rule:evenodd;"
points="36494,21873
36494,20873
37294,20873
37294,21873
36494,21873
" /> 
<polyline style="fill-rule:evenodd;"
points="37494,21873
37494,20873
38294,20873
38294,21873
37494,21873
" /> 
<polyline style="fill-rule:evenodd;"
points="38494,21873
38494,20873
39294,20873
39294,21873
38494,21873
" /> 
<polyline style="fill-rule:evenodd;"
points="39494,21873
39494,20873
40294,20873
40294,21873
39494,21873
" /> 
<polyline style="fill-rule:evenodd;"
points="39494,24873
39494,23873
40294,23873
40294,24873
39494,24873
" /> 
<polyline style="fill-rule:evenodd;"
points="38494,24873
38494,23873
39294,23873
39294,24873
38494,24873
" /> 
<polyline style="fill-rule:evenodd;"
points="37494,24873
37494,23873
38294,23873
38294,24873
37494,24873
" /> 
<polyline style="fill-rule:evenodd;"
points="36494,24873
36494,23873
37294,23873
37294,24873
36494,24873
" /> 
<polyline style="fill-rule:evenodd;"
points="36494,27613
36494,26613
37294,26613
37294,27613
36494,27613
" /> 
<polyline style="fill-rule:evenodd;"
points="37494,27613
37494,26613
38294,26613
38294,27613
37494,27613
" /> 
<polyline style="fill-rule:evenodd;"
points="38494,27613
38494,26613
39294,26613
39294,27613
38494,27613
" /> 
<polyline style="fill-rule:evenodd;"
points="39494,27613
39494,26613
40294,26613
40294,27613
39494,27613
" /> 
<polyline style="fill-rule:evenodd;"
points="39494,30613
39494,29613
40294,29613
40294,30613
39494,30613
" /> 
<polyline style="fill-rule:evenodd;"
points="38494,30613
38494,29613
39294,29613
39294,30613
38494,30613
" /> 
<polyline style="fill-rule:evenodd;"
points="37494,30613
37494,29613
38294,29613
38294,30613
37494,30613
" /> 
<polyline style="fill-rule:evenodd;"
points="36494,30613
36494,29613
37294,29613
37294,30613
36494,30613
" /> 
<polyline style="fill-rule:evenodd;"
points="36494,33314
36494,32314
37294,32314
37294,33314
36494,33314
" /> 
<polyline style="fill-rule:evenodd;"
points="37494,33314
37494,32314
38294,32314
38294,33314
37494,33314
" /> 
<polyline style="fill-rule:evenodd;"
points="38494,33314
38494,32314
39294,32314
39294,33314
38494,33314
" /> 
<polyline style="fill-rule:evenodd;"
points="39494,33314
39494,32314
40294,32314
40294,33314
39494,33314
" /> 
<polyline style="fill-rule:evenodd;"
points="39494,36314
39494,35314
40294,35314
40294,36314
39494,36314
" /> 
<polyline style="fill-rule:evenodd;"
points="38494,36314
38494,35314
39294,35314
39294,36314
38494,36314
" /> 
<polyline style="fill-rule:evenodd;"
points="37494,36314
37494,35314
38294,35314
38294,36314
37494,36314
" /> 
<polyline style="fill-rule:evenodd;"
points="36494,36314
36494,35314
37294,35314
37294,36314
36494,36314
" /> 
<polyline style="fill-rule:evenodd;"
points="33300,40051
34180,40051
34180,41051
33300,41051
33300,40051
" /> 
</g>
<g style="fill:#000000; fill-opacity:1.0; 
stroke:#000000; stroke-width:880; stroke-opacity:1; 
stroke-linecap:round; stroke-linejoin:round;">
</g>
<g style="fill:#000000; fill-opacity:0.0; 
stroke:#000000; stroke-width:880; stroke-opacity:1; 
stroke-linecap:round; stroke-linejoin:round;">
<path d="M32740 40491
L32740 40611
" />
<path d="M31740 40491
L31740 40611
" />
<path d="M30740 40491
L30740 40611
" />
<path d="M29740 40491
L29740 40611
" />
<path d="M28740 40491
L28740 40611
" />
</g>
<g style="fill:#000000; fill-opacity:0.0; 
stroke:#000000; stroke-width:0; stroke-opacity:1; 
stroke-linecap:round; stroke-linejoin:round;">
</g>
<g style="fill:#000000; fill-opacity:1.0; 
stroke:#000000; stroke-width:0; stroke-opacity:1; 
stroke-linecap:round; stroke-linejoin:round;">
<polyline style="fill-rule:evenodd;"
points="14652,42959
13772,42959
13772,42079
14652,42079
14652,42959
" /> 
</g>
<g style="fill:#000000; fill-opacity:1.0; 
stroke:#000000; stroke-width:880; stroke-opacity:1; 
stroke-linecap:round; stroke-linejoin:round;">
</g>
<g style="fill:#000000; fill-opacity:0.0; 
stroke:#000000; stroke-width:880; stroke-opacity:1; 
stroke-linecap:round; stroke-linejoin:round;">
<path d="M14212 41519
L14212 41519
" />
<path d="M15212 42519
L15212 42519
" />
<path d="M15212 41519
L15212 41519
" />
<path d="M16212 42519
L16212 42519
" />
<path d="M16212 41519
L16212 41519
" />
</g>
<g style="fill:#000000; fill-opacity:0.0; 
stroke:#000000; stroke-width:0; stroke-opacity:1; 
stroke-linecap:round; stroke-linejoin:round;">
</g>
<g style="fill:#000000; fill-opacity:1.0; 
stroke:#000000; stroke-width:0; stroke-opacity:1; 
stroke-linecap:round; stroke-linejoin:round;">
<polyline style="fill-rule:evenodd;"
points="12444,37589
12444,36939
12844,36939
12844,37589
12444,37589
" /> 
<polyline style="fill-rule:evenodd;"
points="12944,37589
12944,36939
13344,36939
13344,37589
12944,37589
" /> 
<polyline style="fill-rule:evenodd;"
points="13444,37589
13444,36939
13844,36939
13844,37589
13444,37589
" /> 
<polyline style="fill-rule:evenodd;"
points="13944,37589
13944,36939
14344,36939
14344,37589
13944,37589
" /> 
<polyline style="fill-rule:evenodd;"
points="14444,37589
14444,36939
14844,36939
14844,37589
14444,37589
" /> 
<polyline style="fill-rule:evenodd;"
points="14944,37589
14944,36939
15344,36939
15344,37589
14944,37589
" /> 
<polyline style="fill-rule:evenodd;"
points="15444,37589
15444,36939
15844,36939
15844,37589
15444,37589
" /> 
<polyline style="fill-rule:evenodd;"
points="15944,37589
15944,36939
16344,36939
16344,37589
15944,37589
" /> 
<polyline style="fill-rule:evenodd;"
points="15944,39589
15944,38939
16344,38939
16344,39589
15944,39589
" /> 
<polyline style="fill-rule:evenodd;"
points="15444,39589
15444,38939
15844,38939
15844,39589
15444,39589
" /> 
<polyline style="fill-rule:evenodd;"
points="14944,39589
14944,38939
15344,38939
15344,39589
14944,39589
" /> 
<polyline style="fill-rule:evenodd;"
points="14444,39589
14444,38939
14844,38939
14844,39589
14444,39589
" /> 
<polyline style="fill-rule:evenodd;"
points="13944,39589
13944,38939
14344,38939
14344,39589
13944,39589
" /> 
<polyline style="fill-rule:evenodd;"
points="13444,39589
13444,38939
13844,38939
13844,39589
13444,39589
" /> 
<polyline style="fill-rule:evenodd;"
points="12944,39589
12944,38939
13344,38939
13344,39589
12944,39589
" /> 
<polyline style="fill-rule:evenodd;"
points="12444,39589
12444,38939
12844,38939
12844,39589
12444,39589
" /> 
<polyline style="fill-rule:evenodd;"
points="18444,37539
18444,36889
18844,36889
18844,37539
18444,37539
" /> 
<polyline style="fill-rule:evenodd;"
points="18944,37539
18944,36889
19344,36889
19344,37539
18944,37539
" /> 
<polyline style="fill-rule:evenodd;"
points="19444,37539
19444,36889
19844,36889
19844,37539
19444,37539
" /> 
<polyline style="fill-rule:evenodd;"
points="19944,37539
19944,36889
20344,36889
20344,37539
19944,37539
" /> 
<polyline style="fill-rule:evenodd;"
points="20444,37539
20444,36889
20844,36889
20844,37539
20444,37539
" /> 
<polyline style="fill-rule:evenodd;"
points="20944,37539
20944,36889
21344,36889
21344,37539
20944,37539
" /> 
<polyline style="fill-rule:evenodd;"
points="21444,37539
21444,36889
21844,36889
21844,37539
21444,37539
" /> 
<polyline style="fill-rule:evenodd;"
points="21944,37539
21944,36889
22344,36889
22344,37539
21944,37539
" /> 
<polyline style="fill-rule:evenodd;"
points="21944,39539
21944,38889
22344,38889
22344,39539
21944,39539
" /> 
<polyline style="fill-rule:evenodd;"
points="21444,39539
21444,38889
21844,38889
21844,39539
21444,39539
" /> 
<polyline style="fill-rule:evenodd;"
points="20944,39539
20944,38889
21344,38889
21344,39539
20944,39539
" /> 
<polyline style="fill-rule:evenodd;"
points="20444,39539
20444,38889
20844,38889
20844,39539
20444,39539
" /> 
<polyline style="fill-rule:evenodd;"
points="19944,39539
19944,38889
20344,38889
20344,39539
19944,39539
" /> 
<polyline style="fill-rule:evenodd;"
points="19444,39539
19444,38889
19844,38889
19844,39539
19444,39539
" /> 
<polyline style="fill-rule:evenodd;"
points="18944,39539
18944,38889
19344,38889
19344,39539
18944,39539
" /> 
<polyline style="fill-rule:evenodd;"
points="18444,39539
18444,38889
18844,38889
18844,39539
18444,39539
" /> 
<polyline style="fill-rule:evenodd;"
points="24444,37539
24444,36889
24844,36889
24844,37539
24444,37539
" /> 
<polyline style="fill-rule:evenodd;"
points="24944,37539
24944,36889
25344,36889
25344,37539
24944,37539
" /> 
<polyline style="fill-rule:evenodd;"
points="25444,37539
25444,36889
25844,36889
25844,37539
25444,37539
" /> 
<polyline style="fill-rule:evenodd;"
points="25944,37539
25944,36889
26344,36889
26344,37539
25944,37539
" /> 
<polyline style="fill-rule:evenodd;"
points="26444,37539
26444,36889
26844,36889
26844,37539
26444,37539
" /> 
<polyline style="fill-rule:evenodd;"
points="26944,37539
26944,36889
27344,36889
27344,37539
26944,37539
" /> 
<polyline style="fill-rule:evenodd;"
points="27444,37539
27444,36889
27844,36889
27844,37539
27444,37539
" /> 
<polyline style="fill-rule:evenodd;"
points="27944,37539
27944,36889
28344,36889
28344,37539
27944,37539
" /> 
<polyline style="fill-rule:evenodd;"
points="27944,39539
27944,38889
28344,38889
28344,39539
27944,39539
" /> 
<polyline style="fill-rule:evenodd;"
points="27444,39539
27444,38889
27844,38889
27844,39539
27444,39539
" /> 
<polyline style="fill-rule:evenodd;"
points="26944,39539
26944,38889
27344,38889
27344,39539
26944,39539
" /> 
<polyline style="fill-rule:evenodd;"
points="26444,39539
26444,38889
26844,38889
26844,39539
26444,39539
" /> 
<polyline style="fill-rule:evenodd;"
points="25944,39539
25944,38889
26344,38889
26344,39539
25944,39539
" /> 
<polyline style="fill-rule:evenodd;"
points="25444,39539
25444,38889
25844,38889
25844,39539
25444,39539
" /> 
<polyline style="fill-rule:evenodd;"
points="24944,39539
24944,38889
25344,38889
25344,39539
24944,39539
" /> 
<polyline style="fill-rule:evenodd;"
points="24444,39539
24444,38889
24844,38889
24844,39539
24444,39539
" /> 
<polyline style="fill-rule:evenodd;"
points="30444,37539
30444,36889
30844,36889
30844,37539
30444,37539
" /> 
<polyline style="fill-rule:evenodd;"
points="30944,37539
30944,36889
31344,36889
31344,37539
30944,37539
" /> 
<polyline style="fill-rule:evenodd;"
points="31444,37539
31444,36889
31844,36889
31844,37539
31444,37539
" /> 
<polyline style="fill-rule:evenodd;"
points="31944,37539
31944,36889
32344,36889
32344,37539
31944,37539
" /> 
<polyline style="fill-rule:evenodd;"
points="32444,37539
32444,36889
32844,36889
32844,37539
32444,37539
" /> 
<polyline style="fill-rule:evenodd;"
points="32944,37539
32944,36889
33344,36889
33344,37539
32944,37539
" /> 
<polyline style="fill-rule:evenodd;"
points="33444,37539
33444,36889
33844,36889
33844,37539
33444,37539
" /> 
<polyline style="fill-rule:evenodd;"
points="33944,37539
33944,36889
34344,36889
34344,37539
33944,37539
" /> 
<polyline style="fill-rule:evenodd;"
points="33944,39539
33944,38889
34344,38889
34344,39539
33944,39539
" /> 
<polyline style="fill-rule:evenodd;"
points="33444,39539
33444,38889
33844,38889
33844,39539
33444,39539
" /> 
<polyline style="fill-rule:evenodd;"
points="32944,39539
32944,38889
33344,38889
33344,39539
32944,39539
" /> 
<polyline style="fill-rule:evenodd;"
points="32444,39539
32444,38889
32844,38889
32844,39539
32444,39539
" /> 
<polyline style="fill-rule:evenodd;"
points="31944,39539
31944,38889
32344,38889
32344,39539
31944,39539
" /> 
<polyline style="fill-rule:evenodd;"
points="31444,39539
31444,38889
31844,38889
31844,39539
31444,39539
" /> 
<polyline style="fill-rule:evenodd;"
points="30944,39539
30944,38889
31344,38889
31344,39539
30944,39539
" /> 
<polyline style="fill-rule:evenodd;"
points="30444,39539
30444,38889
30844,38889
30844,39539
30444,39539
" /> 
<polyline style="fill-rule:evenodd;"
points="36444,37539
36444,36889
36844,36889
36844,37539
36444,37539
" /> 
<polyline style="fill-rule:evenodd;"
points="36944,37539
36944,36889
37344,36889
37344,37539
36944,37539
" /> 
<polyline style="fill-rule:evenodd;"
points="37444,37539
37444,36889
37844,36889
37844,37539
37444,37539
" /> 
<polyline style="fill-rule:evenodd;"
points="37944,37539
37944,36889
38344,36889
38344,37539
37944,37539
" /> 
<polyline style="fill-rule:evenodd;"
points="38444,37539
38444,36889
38844,36889
38844,37539
38444,37539
" /> 
<polyline style="fill-rule:evenodd;"
points="38944,37539
38944,36889
39344,36889
39344,37539
38944,37539
" /> 
<polyline style="fill-rule:evenodd;"
points="39444,37539
39444,36889
39844,36889
39844,37539
39444,37539
" /> 
<polyline style="fill-rule:evenodd;"
points="39944,37539
39944,36889
40344,36889
40344,37539
39944,37539
" /> 
<polyline style="fill-rule:evenodd;"
points="39944,39539
39944,38889
40344,38889
40344,39539
39944,39539
" /> 
<polyline style="fill-rule:evenodd;"
points="39444,39539
39444,38889
39844,38889
39844,39539
39444,39539
" /> 
<polyline style="fill-rule:evenodd;"
points="38944,39539
38944,38889
39344,38889
39344,39539
38944,39539
" /> 
<polyline style="fill-rule:evenodd;"
points="38444,39539
38444,38889
38844,38889
38844,39539
38444,39539
" /> 
<polyline style="fill-rule:evenodd;"
points="37944,39539
37944,38889
38344,38889
38344,39539
37944,39539
" /> 
<polyline style="fill-rule:evenodd;"
points="37444,39539
37444,38889
37844,38889
37844,39539
37444,39539
" /> 
<polyline style="fill-rule:evenodd;"
points="36944,39539
36944,38889
37344,38889
37344,39539
36944,39539
" /> 
<polyline style="fill-rule:evenodd;"
points="36444,39539
36444,38889
36844,38889
36844,39539
36444,39539
" /> 
<polyline style="fill-rule:evenodd;"
points="12225,38945
12225,39637
11632,39637
11632,38945
12225,38945
" /> 
<polyline style="fill-rule:evenodd;"
points="11438,38945
11438,39637
10844,39637
10844,38945
11438,38945
" /> 
<polyline style="fill-rule:evenodd;"
points="30178,38866
30178,39558
29585,39558
29585,38866
30178,38866
" /> 
<polyline style="fill-rule:evenodd;"
points="29391,38866
29391,39558
28797,39558
28797,38866
29391,38866
" /> 
<polyline style="fill-rule:evenodd;"
points="18249,38827
18249,39519
17655,39519
17655,38827
18249,38827
" /> 
<polyline style="fill-rule:evenodd;"
points="17462,38827
17462,39519
16868,39519
16868,38827
17462,38827
" /> 
<polyline style="fill-rule:evenodd;"
points="36202,38905
36202,39598
35608,39598
35608,38905
36202,38905
" /> 
<polyline style="fill-rule:evenodd;"
points="35414,38905
35414,39598
34821,39598
34821,38905
35414,38905
" /> 
<polyline style="fill-rule:evenodd;"
points="24194,38866
24194,39558
23600,39558
23600,38866
24194,38866
" /> 
<polyline style="fill-rule:evenodd;"
points="23407,38866
23407,39558
22813,39558
22813,38866
23407,38866
" /> 
<polyline style="fill-rule:evenodd;"
points="20109,42698
19417,42698
19417,42104
20109,42104
20109,42698
" /> 
<polyline style="fill-rule:evenodd;"
points="20109,41911
19417,41911
19417,41317
20109,41317
20109,41911
" /> 
<polyline style="fill-rule:evenodd;"
points="13998,19420
14710,19420
14710,19895
13998,19895
13998,19420
" /> 
<polyline style="fill-rule:evenodd;"
points="13998,20168
14710,20168
14710,20643
13998,20643
13998,20168
" /> 
<polyline style="fill-rule:evenodd;"
points="14038,25131
14750,25131
14750,25607
14038,25607
14038,25131
" /> 
<polyline style="fill-rule:evenodd;"
points="14038,25879
14750,25879
14750,26355
14038,26355
14038,25879
" /> 
<polyline style="fill-rule:evenodd;"
points="20038,19431
20750,19431
20750,19906
20038,19906
20038,19431
" /> 
<polyline style="fill-rule:evenodd;"
points="20038,20179
20750,20179
20750,20654
20038,20654
20038,20179
" /> 
<polyline style="fill-rule:evenodd;"
points="20038,25131
20750,25131
20750,25607
20038,25607
20038,25131
" /> 
<polyline style="fill-rule:evenodd;"
points="20038,25879
20750,25879
20750,26355
20038,26355
20038,25879
" /> 
<polyline style="fill-rule:evenodd;"
points="26038,25131
26750,25131
26750,25607
26038,25607
26038,25131
" /> 
<polyline style="fill-rule:evenodd;"
points="26038,25879
26750,25879
26750,26355
26038,26355
26038,25879
" /> 
<polyline style="fill-rule:evenodd;"
points="32038,19431
32750,19431
32750,19906
32038,19906
32038,19431
" /> 
<polyline style="fill-rule:evenodd;"
points="32038,20179
32750,20179
32750,20654
32038,20654
32038,20179
" /> 
<polyline style="fill-rule:evenodd;"
points="32038,25131
32750,25131
32750,25607
32038,25607
32038,25131
" /> 
<polyline style="fill-rule:evenodd;"
points="32038,25879
32750,25879
32750,26355
32038,26355
32038,25879
" /> 
<polyline style="fill-rule:evenodd;"
points="34486,42774
35198,42774
35198,43249
34486,43249
34486,42774
" /> 
<polyline style="fill-rule:evenodd;"
points="34486,43522
35198,43522
35198,43997
34486,43997
34486,43522
" /> 
<polyline style="fill-rule:evenodd;"
points="38038,19431
38750,19431
38750,19906
38038,19906
38038,19431
" /> 
<polyline style="fill-rule:evenodd;"
points="38038,20179
38750,20179
38750,20654
38038,20654
38038,20179
" /> 
<polyline style="fill-rule:evenodd;"
points="38038,25131
38750,25131
38750,25607
38038,25607
38038,25131
" /> 
<polyline style="fill-rule:evenodd;"
points="38038,25879
38750,25879
38750,26355
38038,26355
38038,25879
" /> 
<polyline style="fill-rule:evenodd;"
points="13250,14953
12538,14953
12538,14478
13250,14478
13250,14953
" /> 
<polyline style="fill-rule:evenodd;"
points="13250,14205
12538,14205
12538,13730
13250,13730
13250,14205
" /> 
<polyline style="fill-rule:evenodd;"
points="14038,13730
14750,13730
14750,14205
14038,14205
14038,13730
" /> 
<polyline style="fill-rule:evenodd;"
points="14038,14478
14750,14478
14750,14953
14038,14953
14038,14478
" /> 
<polyline style="fill-rule:evenodd;"
points="13210,20643
12498,20643
12498,20168
13210,20168
13210,20643
" /> 
<polyline style="fill-rule:evenodd;"
points="13210,19895
12498,19895
12498,19420
13210,19420
13210,19895
" /> 
<polyline style="fill-rule:evenodd;"
points="13250,26355
12538,26355
12538,25879
13250,25879
13250,26355
" /> 
<polyline style="fill-rule:evenodd;"
points="13250,25607
12538,25607
12538,25131
13250,25131
13250,25607
" /> 
<polyline style="fill-rule:evenodd;"
points="13250,32056
12538,32056
12538,31580
13250,31580
13250,32056
" /> 
<polyline style="fill-rule:evenodd;"
points="13250,31308
12538,31308
12538,30832
13250,30832
13250,31308
" /> 
<polyline style="fill-rule:evenodd;"
points="14038,30832
14750,30832
14750,31308
14038,31308
14038,30832
" /> 
<polyline style="fill-rule:evenodd;"
points="14038,31580
14750,31580
14750,32056
14038,32056
14038,31580
" /> 
<polyline style="fill-rule:evenodd;"
points="15538,13730
16250,13730
16250,14205
15538,14205
15538,13730
" /> 
<polyline style="fill-rule:evenodd;"
points="15538,14478
16250,14478
16250,14953
15538,14953
15538,14478
" /> 
<polyline style="fill-rule:evenodd;"
points="15538,19420
16250,19420
16250,19895
15538,19895
15538,19420
" /> 
<polyline style="fill-rule:evenodd;"
points="15538,20168
16250,20168
16250,20643
15538,20643
15538,20168
" /> 
<polyline style="fill-rule:evenodd;"
points="15538,25131
16250,25131
16250,25607
15538,25607
15538,25131
" /> 
<polyline style="fill-rule:evenodd;"
points="15538,25879
16250,25879
16250,26355
15538,26355
15538,25879
" /> 
<polyline style="fill-rule:evenodd;"
points="15538,30832
16250,30832
16250,31308
15538,31308
15538,30832
" /> 
<polyline style="fill-rule:evenodd;"
points="15538,31580
16250,31580
16250,32056
15538,32056
15538,31580
" /> 
<polyline style="fill-rule:evenodd;"
points="20038,13730
20750,13730
20750,14205
20038,14205
20038,13730
" /> 
<polyline style="fill-rule:evenodd;"
points="20038,14478
20750,14478
20750,14953
20038,14953
20038,14478
" /> 
<polyline style="fill-rule:evenodd;"
points="19250,14953
18538,14953
18538,14478
19250,14478
19250,14953
" /> 
<polyline style="fill-rule:evenodd;"
points="19250,14205
18538,14205
18538,13730
19250,13730
19250,14205
" /> 
<polyline style="fill-rule:evenodd;"
points="19250,20654
18538,20654
18538,20179
19250,20179
19250,20654
" /> 
<polyline style="fill-rule:evenodd;"
points="19250,19906
18538,19906
18538,19431
19250,19431
19250,19906
" /> 
<polyline style="fill-rule:evenodd;"
points="19250,26355
18538,26355
18538,25879
19250,25879
19250,26355
" /> 
<polyline style="fill-rule:evenodd;"
points="19250,25607
18538,25607
18538,25131
19250,25131
19250,25607
" /> 
<polyline style="fill-rule:evenodd;"
points="19250,32056
18538,32056
18538,31580
19250,31580
19250,32056
" /> 
<polyline style="fill-rule:evenodd;"
points="19250,31308
18538,31308
18538,30832
19250,30832
19250,31308
" /> 
<polyline style="fill-rule:evenodd;"
points="20038,30832
20750,30832
20750,31308
20038,31308
20038,30832
" /> 
<polyline style="fill-rule:evenodd;"
points="20038,31580
20750,31580
20750,32056
20038,32056
20038,31580
" /> 
<polyline style="fill-rule:evenodd;"
points="21538,13730
22250,13730
22250,14205
21538,14205
21538,13730
" /> 
<polyline style="fill-rule:evenodd;"
points="21538,14478
22250,14478
22250,14953
21538,14953
21538,14478
" /> 
<polyline style="fill-rule:evenodd;"
points="21538,19431
22250,19431
22250,19906
21538,19906
21538,19431
" /> 
<polyline style="fill-rule:evenodd;"
points="21538,20179
22250,20179
22250,20654
21538,20654
21538,20179
" /> 
<polyline style="fill-rule:evenodd;"
points="21538,25131
22250,25131
22250,25607
21538,25607
21538,25131
" /> 
<polyline style="fill-rule:evenodd;"
points="21538,25879
22250,25879
22250,26355
21538,26355
21538,25879
" /> 
<polyline style="fill-rule:evenodd;"
points="21538,30832
22250,30832
22250,31308
21538,31308
21538,30832
" /> 
<polyline style="fill-rule:evenodd;"
points="21538,31580
22250,31580
22250,32056
21538,32056
21538,31580
" /> 
<polyline style="fill-rule:evenodd;"
points="26038,13730
26750,13730
26750,14205
26038,14205
26038,13730
" /> 
<polyline style="fill-rule:evenodd;"
points="26038,14478
26750,14478
26750,14953
26038,14953
26038,14478
" /> 
<polyline style="fill-rule:evenodd;"
points="25250,14953
24538,14953
24538,14478
25250,14478
25250,14953
" /> 
<polyline style="fill-rule:evenodd;"
points="25250,14205
24538,14205
24538,13730
25250,13730
25250,14205
" /> 
<polyline style="fill-rule:evenodd;"
points="25250,20654
24538,20654
24538,20179
25250,20179
25250,20654
" /> 
<polyline style="fill-rule:evenodd;"
points="25250,19906
24538,19906
24538,19431
25250,19431
25250,19906
" /> 
<polyline style="fill-rule:evenodd;"
points="25250,26355
24538,26355
24538,25879
25250,25879
25250,26355
" /> 
<polyline style="fill-rule:evenodd;"
points="25250,25607
24538,25607
24538,25131
25250,25131
25250,25607
" /> 
<polyline style="fill-rule:evenodd;"
points="25250,32056
24538,32056
24538,31580
25250,31580
25250,32056
" /> 
<polyline style="fill-rule:evenodd;"
points="25250,31308
24538,31308
24538,30832
25250,30832
25250,31308
" /> 
<polyline style="fill-rule:evenodd;"
points="26038,30832
26750,30832
26750,31308
26038,31308
26038,30832
" /> 
<polyline style="fill-rule:evenodd;"
points="26038,31580
26750,31580
26750,32056
26038,32056
26038,31580
" /> 
<polyline style="fill-rule:evenodd;"
points="27538,13730
28250,13730
28250,14205
27538,14205
27538,13730
" /> 
<polyline style="fill-rule:evenodd;"
points="27538,14478
28250,14478
28250,14953
27538,14953
27538,14478
" /> 
<polyline style="fill-rule:evenodd;"
points="27538,19431
28250,19431
28250,19906
27538,19906
27538,19431
" /> 
<polyline style="fill-rule:evenodd;"
points="27538,20179
28250,20179
28250,20654
27538,20654
27538,20179
" /> 
<polyline style="fill-rule:evenodd;"
points="27538,25131
28250,25131
28250,25607
27538,25607
27538,25131
" /> 
<polyline style="fill-rule:evenodd;"
points="27538,25879
28250,25879
28250,26355
27538,26355
27538,25879
" /> 
<polyline style="fill-rule:evenodd;"
points="27538,30832
28250,30832
28250,31308
27538,31308
27538,30832
" /> 
<polyline style="fill-rule:evenodd;"
points="27538,31580
28250,31580
28250,32056
27538,32056
27538,31580
" /> 
<polyline style="fill-rule:evenodd;"
points="32038,13730
32750,13730
32750,14205
32038,14205
32038,13730
" /> 
<polyline style="fill-rule:evenodd;"
points="32038,14478
32750,14478
32750,14953
32038,14953
32038,14478
" /> 
<polyline style="fill-rule:evenodd;"
points="31250,14953
30538,14953
30538,14478
31250,14478
31250,14953
" /> 
<polyline style="fill-rule:evenodd;"
points="31250,14205
30538,14205
30538,13730
31250,13730
31250,14205
" /> 
<polyline style="fill-rule:evenodd;"
points="31250,20654
30538,20654
30538,20179
31250,20179
31250,20654
" /> 
<polyline style="fill-rule:evenodd;"
points="31250,19906
30538,19906
30538,19431
31250,19431
31250,19906
" /> 
<polyline style="fill-rule:evenodd;"
points="31250,26355
30538,26355
30538,25879
31250,25879
31250,26355
" /> 
<polyline style="fill-rule:evenodd;"
points="31250,25607
30538,25607
30538,25131
31250,25131
31250,25607
" /> 
<polyline style="fill-rule:evenodd;"
points="31250,32056
30538,32056
30538,31580
31250,31580
31250,32056
" /> 
<polyline style="fill-rule:evenodd;"
points="31250,31308
30538,31308
30538,30832
31250,30832
31250,31308
" /> 
<polyline style="fill-rule:evenodd;"
points="32038,30832
32750,30832
32750,31308
32038,31308
32038,30832
" /> 
<polyline style="fill-rule:evenodd;"
points="32038,31580
32750,31580
32750,32056
32038,32056
32038,31580
" /> 
<polyline style="fill-rule:evenodd;"
points="33538,13730
34250,13730
34250,14205
33538,14205
33538,13730
" /> 
<polyline style="fill-rule:evenodd;"
points="33538,14478
34250,14478
34250,14953
33538,14953
33538,14478
" /> 
<polyline style="fill-rule:evenodd;"
points="33538,19431
34250,19431
34250,19906
33538,19906
33538,19431
" /> 
<polyline style="fill-rule:evenodd;"
points="33538,20179
34250,20179
34250,20654
33538,20654
33538,20179
" /> 
<polyline style="fill-rule:evenodd;"
points="33538,25131
34250,25131
34250,25607
33538,25607
33538,25131
" /> 
<polyline style="fill-rule:evenodd;"
points="33538,25879
34250,25879
34250,26355
33538,26355
33538,25879
" /> 
<polyline style="fill-rule:evenodd;"
points="33538,30832
34250,30832
34250,31308
33538,31308
33538,30832
" /> 
<polyline style="fill-rule:evenodd;"
points="33538,31580
34250,31580
34250,32056
33538,32056
33538,31580
" /> 
<polyline style="fill-rule:evenodd;"
points="37250,14953
36538,14953
36538,14478
37250,14478
37250,14953
" /> 
<polyline style="fill-rule:evenodd;"
points="37250,14205
36538,14205
36538,13730
37250,13730
37250,14205
" /> 
<polyline style="fill-rule:evenodd;"
points="38038,13730
38750,13730
38750,14205
38038,14205
38038,13730
" /> 
<polyline style="fill-rule:evenodd;"
points="38038,14478
38750,14478
38750,14953
38038,14953
38038,14478
" /> 
<polyline style="fill-rule:evenodd;"
points="37250,20654
36538,20654
36538,20179
37250,20179
37250,20654
" /> 
<polyline style="fill-rule:evenodd;"
points="37250,19906
36538,19906
36538,19431
37250,19431
37250,19906
" /> 
<polyline style="fill-rule:evenodd;"
points="37250,26355
36538,26355
36538,25879
37250,25879
37250,26355
" /> 
<polyline style="fill-rule:evenodd;"
points="37250,25607
36538,25607
36538,25131
37250,25131
37250,25607
" /> 
<polyline style="fill-rule:evenodd;"
points="37250,32056
36538,32056
36538,31580
37250,31580
37250,32056
" /> 
<polyline style="fill-rule:evenodd;"
points="37250,31308
36538,31308
36538,30832
37250,30832
37250,31308
" /> 
<polyline style="fill-rule:evenodd;"
points="38038,30832
38750,30832
38750,31308
38038,31308
38038,30832
" /> 
<polyline style="fill-rule:evenodd;"
points="38038,31580
38750,31580
38750,32056
38038,32056
38038,31580
" /> 
<polyline style="fill-rule:evenodd;"
points="39538,13730
40250,13730
40250,14205
39538,14205
39538,13730
" /> 
<polyline style="fill-rule:evenodd;"
points="39538,14478
40250,14478
40250,14953
39538,14953
39538,14478
" /> 
<polyline style="fill-rule:evenodd;"
points="39538,19431
40250,19431
40250,19906
39538,19906
39538,19431
" /> 
<polyline style="fill-rule:evenodd;"
points="39538,20179
40250,20179
40250,20654
39538,20654
39538,20179
" /> 
<polyline style="fill-rule:evenodd;"
points="39538,25131
40250,25131
40250,25607
39538,25607
39538,25131
" /> 
<polyline style="fill-rule:evenodd;"
points="39538,25879
40250,25879
40250,26355
39538,26355
39538,25879
" /> 
<polyline style="fill-rule:evenodd;"
points="39538,30832
40250,30832
40250,31308
39538,31308
39538,30832
" /> 
<polyline style="fill-rule:evenodd;"
points="39538,31580
40250,31580
40250,32056
39538,32056
39538,31580
" /> 
<circle cx="11023.6" cy="10629.9" r="900" /> 
</g>
<g style="fill:#000000; fill-opacity:1.0; 
stroke:#000000; stroke-width:39.3701; stroke-opacity:1; 
stroke-linecap:round; stroke-linejoin:round;">
</g>
<g style="fill:#000000; fill-opacity:1.0; 
stroke:#000000; stroke-width:0; stroke-opacity:1; 
stroke-linecap:round; stroke-linejoin:round;">
<circle cx="40944.9" cy="10629.9" r="900" /> 
</g>
<g style="fill:#000000; fill-opacity:1.0; 
stroke:#000000; stroke-width:39.3701; stroke-opacity:1; 
stroke-linecap:round; stroke-linejoin:round;">
</g>
<g style="fill:#000000; fill-opacity:1.0; 
stroke:#000000; stroke-width:0; stroke-opacity:1; 
stroke-linecap:round; stroke-linejoin:round;">
<circle cx="11023.6" cy="43700.8" r="900" /> 
</g>
<g style="fill:#000000; fill-opacity:1.0; 
stroke:#000000; stroke-width:39.3701; stroke-opacity:1; 
stroke-linecap:round; stroke-linejoin:round;">
</g>
<g style="fill:#000000; fill-opacity:1.0; 
stroke:#000000; stroke-width:0; stroke-opacity:1; 
stroke-linecap:round; stroke-linejoin:round;">
<circle cx="40944.9" cy="43700.8" r="900" /> 
</g>
<g style="fill:#000000; fill-opacity:1.0; 
stroke:#000000; stroke-width:39.3701; stroke-opacity:1; 
stroke-linecap:round; stroke-linejoin:round;">
</g>
<g style="fill:#000000; fill-opacity:1.0; 
stroke:#000000; stroke-width:0; stroke-opacity:1; 
stroke-linecap:round; stroke-linejoin:round;">
<polyline style="fill-rule:evenodd;"
points="20218,43197
20218,43889
19624,43889
19624,43197
20218,43197
" /> 
<polyline style="fill-rule:evenodd;"
points="19430,43197
19430,43889
18837,43889
18837,43197
19430,43197
" /> 
<polyline style="fill-rule:evenodd;"
points="12980,44204
12980,43512
13574,43512
13574,44204
12980,44204
" /> 
<polyline style="fill-rule:evenodd;"
points="13768,44204
13768,43512
14361,43512
14361,44204
13768,44204
" /> 
<polyline style="fill-rule:evenodd;"
points="12980,45021
12980,44329
13574,44329
13574,45021
12980,45021
" /> 
<polyline style="fill-rule:evenodd;"
points="13768,45021
13768,44329
14361,44329
14361,45021
13768,45021
" /> 
<polyline style="fill-rule:evenodd;"
points="18111,43029
18111,43741
17636,43741
17636,43029
18111,43029
" /> 
<polyline style="fill-rule:evenodd;"
points="17363,43029
17363,43741
16888,43741
16888,43029
17363,43029
" /> 
<polyline style="fill-rule:evenodd;"
points="18111,43699
18111,44411
17636,44411
17636,43699
18111,43699
" /> 
<polyline style="fill-rule:evenodd;"
points="17363,43699
17363,44411
16888,44411
16888,43699
17363,43699
" /> 
<circle cx="38909.8" cy="9635.12" r="350" /> 
</g>
<g style="fill:#000000; fill-opacity:1.0; 
stroke:#000000; stroke-width:39.3701; stroke-opacity:1; 
stroke-linecap:round; stroke-linejoin:round;">
</g>
<g style="fill:#000000; fill-opacity:1.0; 
stroke:#000000; stroke-width:0; stroke-opacity:1; 
stroke-linecap:round; stroke-linejoin:round;">
<circle cx="24869.8" cy="9635.12" r="350" /> 
</g>
<g style="fill:#000000; fill-opacity:1.0; 
stroke:#000000; stroke-width:39.3701; stroke-opacity:1; 
stroke-linecap:round; stroke-linejoin:round;">
</g>
<g style="fill:#000000; fill-opacity:1.0; 
stroke:#000000; stroke-width:0; stroke-opacity:1; 
stroke-linecap:round; stroke-linejoin:round;">
<circle cx="38909.8" cy="10525.1" r="350" /> 
</g>
<g style="fill:#000000; fill-opacity:1.0; 
stroke:#000000; stroke-width:39.3701; stroke-opacity:1; 
stroke-linecap:round; stroke-linejoin:round;">
</g>
<g style="fill:#000000; fill-opacity:1.0; 
stroke:#000000; stroke-width:0; stroke-opacity:1; 
stroke-linecap:round; stroke-linejoin:round;">
<circle cx="24869.8" cy="10525.1" r="350" /> 
</g>
<g style="fill:#000000; fill-opacity:1.0; 
stroke:#000000; stroke-width:39.3701; stroke-opacity:1; 
stroke-linecap:round; stroke-linejoin:round;">
</g>
<g style="fill:#000000; fill-opacity:1.0; 
stroke:#000000; stroke-width:0; stroke-opacity:1; 
stroke-linecap:round; stroke-linejoin:round;">
<polyline style="fill-rule:evenodd;"
points="25227,43325
25227,44037
24752,44037
24752,43325
25227,43325
" /> 
<polyline style="fill-rule:evenodd;"
points="24479,43325
24479,44037
24004,44037
24004,43325
24479,43325
" /> 
<polyline style="fill-rule:evenodd;"
points="23069,9585
23781,9585
23781,10060
23069,10060
23069,9585
" /> 
<polyline style="fill-rule:evenodd;"
points="23069,10333
23781,10333
23781,10808
23069,10808
23069,10333
" /> 
<polyline style="fill-rule:evenodd;"
points="22944,10926
22252,10926
22252,10333
22944,10333
22944,10926
" /> 
<polyline style="fill-rule:evenodd;"
points="22944,10139
22252,10139
22252,9545
22944,9545
22944,10139
" /> 
</g> 
</svg>
