<?xml version="1.0" standalone="no"?>
 <!DOCTYPE svg PUBLIC "-//W3C//DTD SVG 1.1//EN" 
 "http://www.w3.org/Graphics/SVG/1.1/DTD/svg11.dtd"> 
<svg xmlns="http://www.w3.org/2000/svg" version="1.1" 
    width="27.94cm" height="21.59cm" viewBox="0 0 110000 85000 ">
<title>SVG Picture created as 40-channel HV switching board-F.Paste.svg date 2017/04/05 08:28:20 </title>
  <desc>Picture generated by PCBNEW </desc>
<g style="fill:#000000; fill-opacity:1;stroke:#000000; stroke-opacity:1;
stroke-linecap:round; stroke-linejoin:round; "
 transform="translate(0 0) scale(1 1)">
</g>
<g style="fill:#000000; fill-opacity:0.0; 
stroke:#000000; stroke-width:-0.000393701; stroke-opacity:1; 
stroke-linecap:round; stroke-linejoin:round;">
</g>
<g style="fill:#000000; fill-opacity:0.0; 
stroke:#000000; stroke-width:39.3701; stroke-opacity:1; 
stroke-linecap:round; stroke-linejoin:round;">
</g>
<g style="fill:#000000; fill-opacity:0.0; 
stroke:#000000; stroke-width:59.0551; stroke-opacity:1; 
stroke-linecap:round; stroke-linejoin:round;">
<rect x="62755.9" y="67677.2" width="42519.7" height="12598.4" rx="0" />
</g>
<g style="fill:#000000; fill-opacity:0.0; 
stroke:#000000; stroke-width:39.3701; stroke-opacity:1; 
stroke-linecap:round; stroke-linejoin:round;">
</g>
<g style="fill:#000000; fill-opacity:0.0; 
stroke:#000000; stroke-width:59.0551; stroke-opacity:1; 
stroke-linecap:round; stroke-linejoin:round;">
<rect x="3937.01" y="3937.01" width="102126" height="77126" rx="0" />
</g>
<g style="fill:#000000; fill-opacity:0.0; 
stroke:#000000; stroke-width:39.3701; stroke-opacity:1; 
stroke-linecap:round; stroke-linejoin:round;">
</g>
<g style="fill:#000000; fill-opacity:0.0; 
stroke:#000000; stroke-width:59.0551; stroke-opacity:1; 
stroke-linecap:round; stroke-linejoin:round;">
<rect x="4724.41" y="4724.41" width="100551" height="75551.2" rx="0" />
</g>
<g style="fill:#000000; fill-opacity:0.0; 
stroke:#000000; stroke-width:39.3701; stroke-opacity:1; 
stroke-linecap:round; stroke-linejoin:round;">
</g>
<g style="fill:#000000; fill-opacity:0.0; 
stroke:#000000; stroke-width:59.0551; stroke-opacity:1; 
stroke-linecap:round; stroke-linejoin:round;">
<path d="M23622 4724
L23622 3937
" />
</g>
<g style="fill:#000000; fill-opacity:0.0; 
stroke:#000000; stroke-width:39.3701; stroke-opacity:1; 
stroke-linecap:round; stroke-linejoin:round;">
</g>
<g style="fill:#000000; fill-opacity:0.0; 
stroke:#000000; stroke-width:59.0551; stroke-opacity:1; 
stroke-linecap:round; stroke-linejoin:round;">
<path d="M43307 4724
L43307 3937
" />
</g>
<g style="fill:#000000; fill-opacity:0.0; 
stroke:#000000; stroke-width:39.3701; stroke-opacity:1; 
stroke-linecap:round; stroke-linejoin:round;">
</g>
<g style="fill:#000000; fill-opacity:0.0; 
stroke:#000000; stroke-width:59.0551; stroke-opacity:1; 
stroke-linecap:round; stroke-linejoin:round;">
<path d="M62992 4724
L62992 3937
" />
</g>
<g style="fill:#000000; fill-opacity:0.0; 
stroke:#000000; stroke-width:39.3701; stroke-opacity:1; 
stroke-linecap:round; stroke-linejoin:round;">
</g>
<g style="fill:#000000; fill-opacity:0.0; 
stroke:#000000; stroke-width:59.0551; stroke-opacity:1; 
stroke-linecap:round; stroke-linejoin:round;">
<path d="M82677 4724
L82677 3937
" />
</g>
<g style="fill:#000000; fill-opacity:0.0; 
stroke:#000000; stroke-width:39.3701; stroke-opacity:1; 
stroke-linecap:round; stroke-linejoin:round;">
</g>
<g style="fill:#000000; fill-opacity:0.0; 
stroke:#000000; stroke-width:59.0551; stroke-opacity:1; 
stroke-linecap:round; stroke-linejoin:round;">
<path d="M102362 4724
L102362 3937
" />
</g>
<g style="fill:#000000; fill-opacity:0.0; 
stroke:#000000; stroke-width:39.3701; stroke-opacity:1; 
stroke-linecap:round; stroke-linejoin:round;">
</g>
<g style="fill:#000000; fill-opacity:0.0; 
stroke:#000000; stroke-width:59.0551; stroke-opacity:1; 
stroke-linecap:round; stroke-linejoin:round;">
<path d="M14169 4562
L13877 4562
" />
<path d="M14023 4562
L14023 4050
L13974 4123
L13925 4172
L13877 4196
" />
</g>
<g style="fill:#000000; fill-opacity:0.0; 
stroke:#000000; stroke-width:39.3701; stroke-opacity:1; 
stroke-linecap:round; stroke-linejoin:round;">
</g>
<g style="fill:#000000; fill-opacity:0.0; 
stroke:#000000; stroke-width:59.0551; stroke-opacity:1; 
stroke-linecap:round; stroke-linejoin:round;">
<path d="M33562 4099
L33586 4074
L33635 4050
L33757 4050
L33805 4074
L33830 4099
L33854 4147
L33854 4196
L33830 4269
L33537 4562
L33854 4562
" />
</g>
<g style="fill:#000000; fill-opacity:0.0; 
stroke:#000000; stroke-width:39.3701; stroke-opacity:1; 
stroke-linecap:round; stroke-linejoin:round;">
</g>
<g style="fill:#000000; fill-opacity:0.0; 
stroke:#000000; stroke-width:59.0551; stroke-opacity:1; 
stroke-linecap:round; stroke-linejoin:round;">
<path d="M53222 4050
L53539 4050
L53368 4245
L53442 4245
L53490 4269
L53515 4294
L53539 4342
L53539 4464
L53515 4513
L53490 4537
L53442 4562
L53295 4562
L53247 4537
L53222 4513
" />
</g>
<g style="fill:#000000; fill-opacity:0.0; 
stroke:#000000; stroke-width:39.3701; stroke-opacity:1; 
stroke-linecap:round; stroke-linejoin:round;">
</g>
<g style="fill:#000000; fill-opacity:0.0; 
stroke:#000000; stroke-width:59.0551; stroke-opacity:1; 
stroke-linecap:round; stroke-linejoin:round;">
<path d="M73175 4221
L73175 4562
" />
<path d="M73053 4026
L72932 4391
L73248 4391
" />
</g>
<g style="fill:#000000; fill-opacity:0.0; 
stroke:#000000; stroke-width:39.3701; stroke-opacity:1; 
stroke-linecap:round; stroke-linejoin:round;">
</g>
<g style="fill:#000000; fill-opacity:0.0; 
stroke:#000000; stroke-width:59.0551; stroke-opacity:1; 
stroke-linecap:round; stroke-linejoin:round;">
<path d="M92885 4050
L92641 4050
L92617 4294
L92641 4269
L92690 4245
L92812 4245
L92860 4269
L92885 4294
L92909 4342
L92909 4464
L92885 4513
L92860 4537
L92812 4562
L92690 4562
L92641 4537
L92617 4513
" />
</g>
<g style="fill:#000000; fill-opacity:0.0; 
stroke:#000000; stroke-width:39.3701; stroke-opacity:1; 
stroke-linecap:round; stroke-linejoin:round;">
</g>
<g style="fill:#000000; fill-opacity:0.0; 
stroke:#000000; stroke-width:59.0551; stroke-opacity:1; 
stroke-linecap:round; stroke-linejoin:round;">
<path d="M23622 80275
L23622 81062
" />
</g>
<g style="fill:#000000; fill-opacity:0.0; 
stroke:#000000; stroke-width:39.3701; stroke-opacity:1; 
stroke-linecap:round; stroke-linejoin:round;">
</g>
<g style="fill:#000000; fill-opacity:0.0; 
stroke:#000000; stroke-width:59.0551; stroke-opacity:1; 
stroke-linecap:round; stroke-linejoin:round;">
<path d="M43307 80275
L43307 81062
" />
</g>
<g style="fill:#000000; fill-opacity:0.0; 
stroke:#000000; stroke-width:39.3701; stroke-opacity:1; 
stroke-linecap:round; stroke-linejoin:round;">
</g>
<g style="fill:#000000; fill-opacity:0.0; 
stroke:#000000; stroke-width:59.0551; stroke-opacity:1; 
stroke-linecap:round; stroke-linejoin:round;">
<path d="M62992 80275
L62992 81062
" />
</g>
<g style="fill:#000000; fill-opacity:0.0; 
stroke:#000000; stroke-width:39.3701; stroke-opacity:1; 
stroke-linecap:round; stroke-linejoin:round;">
</g>
<g style="fill:#000000; fill-opacity:0.0; 
stroke:#000000; stroke-width:59.0551; stroke-opacity:1; 
stroke-linecap:round; stroke-linejoin:round;">
<path d="M82677 80275
L82677 81062
" />
</g>
<g style="fill:#000000; fill-opacity:0.0; 
stroke:#000000; stroke-width:39.3701; stroke-opacity:1; 
stroke-linecap:round; stroke-linejoin:round;">
</g>
<g style="fill:#000000; fill-opacity:0.0; 
stroke:#000000; stroke-width:59.0551; stroke-opacity:1; 
stroke-linecap:round; stroke-linejoin:round;">
<path d="M102362 80275
L102362 81062
" />
</g>
<g style="fill:#000000; fill-opacity:0.0; 
stroke:#000000; stroke-width:39.3701; stroke-opacity:1; 
stroke-linecap:round; stroke-linejoin:round;">
</g>
<g style="fill:#000000; fill-opacity:0.0; 
stroke:#000000; stroke-width:59.0551; stroke-opacity:1; 
stroke-linecap:round; stroke-linejoin:round;">
<path d="M14169 80900
L13877 80900
" />
<path d="M14023 80900
L14023 80389
L13974 80462
L13925 80510
L13877 80535
" />
</g>
<g style="fill:#000000; fill-opacity:0.0; 
stroke:#000000; stroke-width:39.3701; stroke-opacity:1; 
stroke-linecap:round; stroke-linejoin:round;">
</g>
<g style="fill:#000000; fill-opacity:0.0; 
stroke:#000000; stroke-width:59.0551; stroke-opacity:1; 
stroke-linecap:round; stroke-linejoin:round;">
<path d="M33562 80437
L33586 80413
L33635 80389
L33757 80389
L33805 80413
L33830 80437
L33854 80486
L33854 80535
L33830 80608
L33537 80900
L33854 80900
" />
</g>
<g style="fill:#000000; fill-opacity:0.0; 
stroke:#000000; stroke-width:39.3701; stroke-opacity:1; 
stroke-linecap:round; stroke-linejoin:round;">
</g>
<g style="fill:#000000; fill-opacity:0.0; 
stroke:#000000; stroke-width:59.0551; stroke-opacity:1; 
stroke-linecap:round; stroke-linejoin:round;">
<path d="M53222 80389
L53539 80389
L53368 80583
L53442 80583
L53490 80608
L53515 80632
L53539 80681
L53539 80803
L53515 80852
L53490 80876
L53442 80900
L53295 80900
L53247 80876
L53222 80852
" />
</g>
<g style="fill:#000000; fill-opacity:0.0; 
stroke:#000000; stroke-width:39.3701; stroke-opacity:1; 
stroke-linecap:round; stroke-linejoin:round;">
</g>
<g style="fill:#000000; fill-opacity:0.0; 
stroke:#000000; stroke-width:59.0551; stroke-opacity:1; 
stroke-linecap:round; stroke-linejoin:round;">
<path d="M73175 80559
L73175 80900
" />
<path d="M73053 80364
L72932 80730
L73248 80730
" />
</g>
<g style="fill:#000000; fill-opacity:0.0; 
stroke:#000000; stroke-width:39.3701; stroke-opacity:1; 
stroke-linecap:round; stroke-linejoin:round;">
</g>
<g style="fill:#000000; fill-opacity:0.0; 
stroke:#000000; stroke-width:59.0551; stroke-opacity:1; 
stroke-linecap:round; stroke-linejoin:round;">
<path d="M92885 80389
L92641 80389
L92617 80632
L92641 80608
L92690 80583
L92812 80583
L92860 80608
L92885 80632
L92909 80681
L92909 80803
L92885 80852
L92860 80876
L92812 80900
L92690 80900
L92641 80876
L92617 80852
" />
</g>
<g style="fill:#000000; fill-opacity:0.0; 
stroke:#000000; stroke-width:39.3701; stroke-opacity:1; 
stroke-linecap:round; stroke-linejoin:round;">
</g>
<g style="fill:#000000; fill-opacity:0.0; 
stroke:#000000; stroke-width:59.0551; stroke-opacity:1; 
stroke-linecap:round; stroke-linejoin:round;">
<path d="M3937 23622
L4724 23622
" />
</g>
<g style="fill:#000000; fill-opacity:0.0; 
stroke:#000000; stroke-width:39.3701; stroke-opacity:1; 
stroke-linecap:round; stroke-linejoin:round;">
</g>
<g style="fill:#000000; fill-opacity:0.0; 
stroke:#000000; stroke-width:59.0551; stroke-opacity:1; 
stroke-linecap:round; stroke-linejoin:round;">
<path d="M3937 43307
L4724 43307
" />
</g>
<g style="fill:#000000; fill-opacity:0.0; 
stroke:#000000; stroke-width:39.3701; stroke-opacity:1; 
stroke-linecap:round; stroke-linejoin:round;">
</g>
<g style="fill:#000000; fill-opacity:0.0; 
stroke:#000000; stroke-width:59.0551; stroke-opacity:1; 
stroke-linecap:round; stroke-linejoin:round;">
<path d="M3937 62992
L4724 62992
" />
</g>
<g style="fill:#000000; fill-opacity:0.0; 
stroke:#000000; stroke-width:39.3701; stroke-opacity:1; 
stroke-linecap:round; stroke-linejoin:round;">
</g>
<g style="fill:#000000; fill-opacity:0.0; 
stroke:#000000; stroke-width:59.0551; stroke-opacity:1; 
stroke-linecap:round; stroke-linejoin:round;">
<path d="M4208 13864
L4452 13864
" />
<path d="M4160 14011
L4330 13499
L4501 14011
" />
</g>
<g style="fill:#000000; fill-opacity:0.0; 
stroke:#000000; stroke-width:39.3701; stroke-opacity:1; 
stroke-linecap:round; stroke-linejoin:round;">
</g>
<g style="fill:#000000; fill-opacity:0.0; 
stroke:#000000; stroke-width:59.0551; stroke-opacity:1; 
stroke-linecap:round; stroke-linejoin:round;">
<path d="M4367 33428
L4440 33452
L4464 33476
L4489 33525
L4489 33598
L4464 33647
L4440 33671
L4391 33696
L4196 33696
L4196 33184
L4367 33184
L4416 33208
L4440 33233
L4464 33281
L4464 33330
L4440 33379
L4416 33403
L4367 33428
L4196 33428
" />
</g>
<g style="fill:#000000; fill-opacity:0.0; 
stroke:#000000; stroke-width:39.3701; stroke-opacity:1; 
stroke-linecap:round; stroke-linejoin:round;">
</g>
<g style="fill:#000000; fill-opacity:0.0; 
stroke:#000000; stroke-width:59.0551; stroke-opacity:1; 
stroke-linecap:round; stroke-linejoin:round;">
<path d="M4489 53332
L4464 53356
L4391 53381
L4342 53381
L4269 53356
L4221 53308
L4196 53259
L4172 53161
L4172 53088
L4196 52991
L4221 52942
L4269 52893
L4342 52869
L4391 52869
L4464 52893
L4489 52918
" />
</g>
<g style="fill:#000000; fill-opacity:0.0; 
stroke:#000000; stroke-width:39.3701; stroke-opacity:1; 
stroke-linecap:round; stroke-linejoin:round;">
</g>
<g style="fill:#000000; fill-opacity:0.0; 
stroke:#000000; stroke-width:59.0551; stroke-opacity:1; 
stroke-linecap:round; stroke-linejoin:round;">
<path d="M4196 73066
L4196 72554
L4318 72554
L4391 72578
L4440 72627
L4464 72676
L4489 72773
L4489 72846
L4464 72944
L4440 72993
L4391 73041
L4318 73066
L4196 73066
" />
</g>
<g style="fill:#000000; fill-opacity:0.0; 
stroke:#000000; stroke-width:39.3701; stroke-opacity:1; 
stroke-linecap:round; stroke-linejoin:round;">
</g>
<g style="fill:#000000; fill-opacity:0.0; 
stroke:#000000; stroke-width:59.0551; stroke-opacity:1; 
stroke-linecap:round; stroke-linejoin:round;">
<path d="M106062 23622
L105275 23622
" />
</g>
<g style="fill:#000000; fill-opacity:0.0; 
stroke:#000000; stroke-width:39.3701; stroke-opacity:1; 
stroke-linecap:round; stroke-linejoin:round;">
</g>
<g style="fill:#000000; fill-opacity:0.0; 
stroke:#000000; stroke-width:59.0551; stroke-opacity:1; 
stroke-linecap:round; stroke-linejoin:round;">
<path d="M106062 43307
L105275 43307
" />
</g>
<g style="fill:#000000; fill-opacity:0.0; 
stroke:#000000; stroke-width:39.3701; stroke-opacity:1; 
stroke-linecap:round; stroke-linejoin:round;">
</g>
<g style="fill:#000000; fill-opacity:0.0; 
stroke:#000000; stroke-width:59.0551; stroke-opacity:1; 
stroke-linecap:round; stroke-linejoin:round;">
<path d="M106062 62992
L105275 62992
" />
</g>
<g style="fill:#000000; fill-opacity:0.0; 
stroke:#000000; stroke-width:39.3701; stroke-opacity:1; 
stroke-linecap:round; stroke-linejoin:round;">
</g>
<g style="fill:#000000; fill-opacity:0.0; 
stroke:#000000; stroke-width:59.0551; stroke-opacity:1; 
stroke-linecap:round; stroke-linejoin:round;">
<path d="M105547 13864
L105791 13864
" />
<path d="M105498 14011
L105669 13499
L105839 14011
" />
</g>
<g style="fill:#000000; fill-opacity:0.0; 
stroke:#000000; stroke-width:39.3701; stroke-opacity:1; 
stroke-linecap:round; stroke-linejoin:round;">
</g>
<g style="fill:#000000; fill-opacity:0.0; 
stroke:#000000; stroke-width:59.0551; stroke-opacity:1; 
stroke-linecap:round; stroke-linejoin:round;">
<path d="M105705 33428
L105778 33452
L105803 33476
L105827 33525
L105827 33598
L105803 33647
L105778 33671
L105730 33696
L105535 33696
L105535 33184
L105705 33184
L105754 33208
L105778 33233
L105803 33281
L105803 33330
L105778 33379
L105754 33403
L105705 33428
L105535 33428
" />
</g>
<g style="fill:#000000; fill-opacity:0.0; 
stroke:#000000; stroke-width:39.3701; stroke-opacity:1; 
stroke-linecap:round; stroke-linejoin:round;">
</g>
<g style="fill:#000000; fill-opacity:0.0; 
stroke:#000000; stroke-width:59.0551; stroke-opacity:1; 
stroke-linecap:round; stroke-linejoin:round;">
<path d="M105827 53332
L105803 53356
L105730 53381
L105681 53381
L105608 53356
L105559 53308
L105535 53259
L105510 53161
L105510 53088
L105535 52991
L105559 52942
L105608 52893
L105681 52869
L105730 52869
L105803 52893
L105827 52918
" />
</g>
<g style="fill:#000000; fill-opacity:0.0; 
stroke:#000000; stroke-width:39.3701; stroke-opacity:1; 
stroke-linecap:round; stroke-linejoin:round;">
</g>
<g style="fill:#000000; fill-opacity:0.0; 
stroke:#000000; stroke-width:59.0551; stroke-opacity:1; 
stroke-linecap:round; stroke-linejoin:round;">
<path d="M105535 73066
L105535 72554
L105657 72554
L105730 72578
L105778 72627
L105803 72676
L105827 72773
L105827 72846
L105803 72944
L105778 72993
L105730 73041
L105657 73066
L105535 73066
" />
</g>
<g style="fill:#000000; fill-opacity:0.0; 
stroke:#000000; stroke-width:39.3701; stroke-opacity:1; 
stroke-linecap:round; stroke-linejoin:round;">
</g>
<g style="fill:#000000; fill-opacity:0.0; 
stroke:#000000; stroke-width:59.0551; stroke-opacity:1; 
stroke-linecap:round; stroke-linejoin:round;">
<path d="M71951 78613
L71951 78023
L72092 78023
L72176 78051
L72232 78107
L72260 78163
L72289 78276
L72289 78360
L72260 78473
L72232 78529
L72176 78585
L72092 78613
L71951 78613
" />
<path d="M72795 78613
L72795 78304
L72767 78248
L72710 78219
L72598 78219
L72542 78248
" />
<path d="M72795 78585
L72739 78613
L72598 78613
L72542 78585
L72514 78529
L72514 78473
L72542 78416
L72598 78388
L72739 78388
L72795 78360
" />
<path d="M72992 78219
L73217 78219
" />
<path d="M73076 78023
L73076 78529
L73104 78585
L73160 78613
L73217 78613
" />
<path d="M73638 78585
L73582 78613
L73470 78613
L73413 78585
L73385 78529
L73385 78304
L73413 78248
L73470 78219
L73582 78219
L73638 78248
L73667 78304
L73667 78360
L73385 78416
" />
<path d="M73920 78557
L73948 78585
L73920 78613
L73892 78585
L73920 78557
L73920 78613
" />
<path d="M73920 78248
L73948 78276
L73920 78304
L73892 78276
L73920 78248
L73920 78304
" />
<path d="M74623 78079
L74651 78051
L74707 78023
L74848 78023
L74904 78051
L74932 78079
L74960 78135
L74960 78191
L74932 78276
L74595 78613
L74960 78613
" />
<path d="M75326 78023
L75382 78023
L75438 78051
L75466 78079
L75494 78135
L75523 78248
L75523 78388
L75494 78501
L75466 78557
L75438 78585
L75382 78613
L75326 78613
L75269 78585
L75241 78557
L75213 78501
L75185 78388
L75185 78248
L75213 78135
L75241 78079
L75269 78051
L75326 78023
" />
<path d="M76085 78613
L75748 78613
" />
<path d="M75916 78613
L75916 78023
L75860 78107
L75804 78163
L75748 78191
" />
<path d="M76282 78023
L76676 78023
L76422 78613
" />
<path d="M76901 78388
L77350 78388
" />
<path d="M77744 78023
L77800 78023
L77857 78051
L77885 78079
L77913 78135
L77941 78248
L77941 78388
L77913 78501
L77885 78557
L77857 78585
L77800 78613
L77744 78613
L77688 78585
L77660 78557
L77632 78501
L77604 78388
L77604 78248
L77632 78135
L77660 78079
L77688 78051
L77744 78023
" />
<path d="M78138 78023
L78503 78023
L78307 78248
L78391 78248
L78447 78276
L78475 78304
L78503 78360
L78503 78501
L78475 78557
L78447 78585
L78391 78613
L78222 78613
L78166 78585
L78138 78557
" />
<path d="M78757 78388
L79206 78388
" />
<path d="M79600 78023
L79656 78023
L79713 78051
L79741 78079
L79769 78135
L79797 78248
L79797 78388
L79769 78501
L79741 78557
L79713 78585
L79656 78613
L79600 78613
L79544 78585
L79516 78557
L79488 78501
L79460 78388
L79460 78248
L79488 78135
L79516 78079
L79544 78051
L79600 78023
" />
<path d="M79994 78023
L80388 78023
L80134 78613
" />
</g>
<g style="fill:#000000; fill-opacity:0.0; 
stroke:#000000; stroke-width:39.3701; stroke-opacity:1; 
stroke-linecap:round; stroke-linejoin:round;">
</g>
<g style="fill:#000000; fill-opacity:0.0; 
stroke:#000000; stroke-width:59.0551; stroke-opacity:1; 
stroke-linecap:round; stroke-linejoin:round;">
<path d="M62755 78897
L105275 78897
" />
</g>
<g style="fill:#000000; fill-opacity:0.0; 
stroke:#000000; stroke-width:39.3701; stroke-opacity:1; 
stroke-linecap:round; stroke-linejoin:round;">
</g>
<g style="fill:#000000; fill-opacity:0.0; 
stroke:#000000; stroke-width:59.0551; stroke-opacity:1; 
stroke-linecap:round; stroke-linejoin:round;">
<path d="M63290 79715
L63290 79125
" />
<path d="M63627 79715
L63374 79378
" />
<path d="M63627 79125
L63290 79462
" />
<path d="M63880 79715
L63880 79322
" />
<path d="M63880 79125
L63852 79153
L63880 79181
L63908 79153
L63880 79125
L63880 79181
" />
<path d="M64499 79659
L64471 79687
L64386 79715
L64330 79715
L64246 79687
L64190 79631
L64161 79575
L64133 79462
L64133 79378
L64161 79266
L64190 79209
L64246 79153
L64330 79125
L64386 79125
L64471 79153
L64499 79181
" />
<path d="M65005 79715
L65005 79406
L64977 79350
L64921 79322
L64808 79322
L64752 79350
" />
<path d="M65005 79687
L64949 79715
L64808 79715
L64752 79687
L64724 79631
L64724 79575
L64752 79519
L64808 79491
L64949 79491
L65005 79462
" />
<path d="M65539 79715
L65539 79125
" />
<path d="M65539 79687
L65483 79715
L65371 79715
L65314 79687
L65286 79659
L65258 79603
L65258 79434
L65286 79378
L65314 79350
L65371 79322
L65483 79322
L65539 79350
" />
<path d="M66271 79406
L66467 79406
" />
<path d="M66552 79715
L66271 79715
L66271 79125
L66552 79125
" />
<path d="M66805 79659
L66833 79687
L66805 79715
L66777 79687
L66805 79659
L66805 79715
" />
<path d="M67086 79715
L67086 79125
L67227 79125
L67311 79153
L67367 79209
L67395 79266
L67424 79378
L67424 79462
L67395 79575
L67367 79631
L67311 79687
L67227 79715
L67086 79715
" />
<path d="M67677 79659
L67705 79687
L67677 79715
L67649 79687
L67677 79659
L67677 79715
" />
<path d="M67930 79547
L68211 79547
" />
<path d="M67874 79715
L68070 79125
L68267 79715
" />
<path d="M68464 79659
L68492 79687
L68464 79715
L68436 79687
L68464 79659
L68464 79715
" />
<path d="M69645 79715
L69645 79125
" />
<path d="M69701 79491
L69870 79715
" />
<path d="M69870 79322
L69645 79547
" />
<path d="M70123 79715
L70123 79322
" />
<path d="M70123 79125
L70095 79153
L70123 79181
L70151 79153
L70123 79125
L70123 79181
" />
<path d="M70658 79687
L70601 79715
L70489 79715
L70433 79687
L70404 79659
L70376 79603
L70376 79434
L70404 79378
L70433 79350
L70489 79322
L70601 79322
L70658 79350
" />
<path d="M71164 79715
L71164 79406
L71136 79350
L71079 79322
L70967 79322
L70911 79350
" />
<path d="M71164 79687
L71107 79715
L70967 79715
L70911 79687
L70883 79631
L70883 79575
L70911 79519
L70967 79491
L71107 79491
L71164 79462
" />
<path d="M71698 79715
L71698 79125
" />
<path d="M71698 79687
L71642 79715
L71529 79715
L71473 79687
L71445 79659
L71417 79603
L71417 79434
L71445 79378
L71473 79350
L71529 79322
L71642 79322
L71698 79350
" />
<path d="M72682 79322
L72682 79715
" />
<path d="M72542 79097
L72401 79519
L72767 79519
" />
<path d="M72992 79659
L73020 79687
L72992 79715
L72964 79687
L72992 79659
L72992 79715
" />
<path d="M73385 79125
L73442 79125
L73498 79153
L73526 79181
L73554 79237
L73582 79350
L73582 79491
L73554 79603
L73526 79659
L73498 79687
L73442 79715
L73385 79715
L73329 79687
L73301 79659
L73273 79603
L73245 79491
L73245 79350
L73273 79237
L73301 79181
L73329 79153
L73385 79125
" />
<path d="M73835 79659
L73863 79687
L73835 79715
L73807 79687
L73835 79659
L73835 79715
" />
<path d="M74426 79715
L74088 79715
" />
<path d="M74257 79715
L74257 79125
L74201 79209
L74145 79266
L74088 79294
" />
<path d="M74679 79491
L75129 79491
" />
<path d="M75382 79687
L75438 79715
L75551 79715
L75607 79687
L75635 79631
L75635 79603
L75607 79547
L75551 79519
L75466 79519
L75410 79491
L75382 79434
L75382 79406
L75410 79350
L75466 79322
L75551 79322
L75607 79350
" />
<path d="M75804 79322
L76029 79322
" />
<path d="M75888 79125
L75888 79631
L75916 79687
L75973 79715
L76029 79715
" />
<path d="M76479 79715
L76479 79406
L76451 79350
L76394 79322
L76282 79322
L76226 79350
" />
<path d="M76479 79687
L76422 79715
L76282 79715
L76226 79687
L76197 79631
L76197 79575
L76226 79519
L76282 79491
L76422 79491
L76479 79462
" />
<path d="M76760 79715
L76760 79125
" />
<path d="M76760 79350
L76816 79322
L76929 79322
L76985 79350
L77013 79378
L77041 79434
L77041 79603
L77013 79659
L76985 79687
L76929 79715
L76816 79715
L76760 79687
" />
<path d="M77379 79715
L77322 79687
L77294 79631
L77294 79125
" />
<path d="M77829 79687
L77772 79715
L77660 79715
L77604 79687
L77575 79631
L77575 79406
L77604 79350
L77660 79322
L77772 79322
L77829 79350
L77857 79406
L77857 79462
L77575 79519
" />
</g>
<g style="fill:#000000; fill-opacity:0.0; 
stroke:#000000; stroke-width:39.3701; stroke-opacity:1; 
stroke-linecap:round; stroke-linejoin:round;">
</g>
<g style="fill:#000000; fill-opacity:0.0; 
stroke:#000000; stroke-width:59.0551; stroke-opacity:1; 
stroke-linecap:round; stroke-linejoin:round;">
<path d="M62755 77716
L105275 77716
" />
</g>
<g style="fill:#000000; fill-opacity:0.0; 
stroke:#000000; stroke-width:39.3701; stroke-opacity:1; 
stroke-linecap:round; stroke-linejoin:round;">
</g>
<g style="fill:#000000; fill-opacity:0.0; 
stroke:#000000; stroke-width:118.11; stroke-opacity:1; 
stroke-linecap:round; stroke-linejoin:round;">
<path d="M97092 78613
L96895 78332
" />
<path d="M96754 78613
L96754 78023
L96979 78023
L97035 78051
L97064 78079
L97092 78135
L97092 78219
L97064 78276
L97035 78304
L96979 78332
L96754 78332
" />
<path d="M97570 78585
L97514 78613
L97401 78613
L97345 78585
L97317 78529
L97317 78304
L97345 78248
L97401 78219
L97514 78219
L97570 78248
L97598 78304
L97598 78360
L97317 78416
" />
<path d="M97795 78219
L97935 78613
L98076 78219
" />
<path d="M98301 78557
L98329 78585
L98301 78613
L98273 78585
L98301 78557
L98301 78613
" />
<path d="M98301 78248
L98329 78276
L98301 78304
L98273 78276
L98301 78248
L98301 78304
" />
<path d="M98976 78023
L99341 78023
L99145 78248
L99229 78248
L99285 78276
L99313 78304
L99341 78360
L99341 78501
L99313 78557
L99285 78585
L99229 78613
L99060 78613
L99004 78585
L98976 78557
" />
<path d="M99595 78557
L99623 78585
L99595 78613
L99566 78585
L99595 78557
L99595 78613
" />
<path d="M100185 78613
L99848 78613
" />
<path d="M100016 78613
L100016 78023
L99960 78107
L99904 78163
L99848 78191
" />
</g>
<g style="fill:#000000; fill-opacity:0.0; 
stroke:#000000; stroke-width:39.3701; stroke-opacity:1; 
stroke-linecap:round; stroke-linejoin:round;">
</g>
<g style="fill:#000000; fill-opacity:0.0; 
stroke:#000000; stroke-width:59.0551; stroke-opacity:1; 
stroke-linecap:round; stroke-linejoin:round;">
<path d="M63262 78585
L63346 78613
L63487 78613
L63543 78585
L63571 78557
L63599 78501
L63599 78444
L63571 78388
L63543 78360
L63487 78332
L63374 78304
L63318 78276
L63290 78248
L63262 78191
L63262 78135
L63290 78079
L63318 78051
L63374 78023
L63515 78023
L63599 78051
" />
<path d="M63852 78613
L63852 78219
" />
<path d="M63852 78023
L63824 78051
L63852 78079
L63880 78051
L63852 78023
L63852 78079
" />
<path d="M64077 78219
L64386 78219
L64077 78613
L64386 78613
" />
<path d="M64836 78585
L64780 78613
L64668 78613
L64611 78585
L64583 78529
L64583 78304
L64611 78248
L64668 78219
L64780 78219
L64836 78248
L64865 78304
L64865 78360
L64583 78416
" />
<path d="M65118 78557
L65146 78585
L65118 78613
L65089 78585
L65118 78557
L65118 78613
" />
<path d="M65118 78248
L65146 78276
L65118 78304
L65089 78276
L65118 78248
L65118 78304
" />
<path d="M65849 78023
L65849 78501
L65877 78557
L65905 78585
L65961 78613
L66074 78613
L66130 78585
L66158 78557
L66186 78501
L66186 78023
" />
<path d="M66439 78585
L66524 78613
L66664 78613
L66721 78585
L66749 78557
L66777 78501
L66777 78444
L66749 78388
L66721 78360
L66664 78332
L66552 78304
L66496 78276
L66467 78248
L66439 78191
L66439 78135
L66467 78079
L66496 78051
L66552 78023
L66692 78023
L66777 78051
" />
<path d="M67311 78613
L67030 78613
L67030 78023
" />
<path d="M67733 78585
L67677 78613
L67564 78613
L67508 78585
L67480 78529
L67480 78304
L67508 78248
L67564 78219
L67677 78219
L67733 78248
L67761 78304
L67761 78360
L67480 78416
" />
<path d="M67930 78219
L68155 78219
" />
<path d="M68014 78023
L68014 78529
L68042 78585
L68098 78613
L68155 78613
" />
<path d="M68267 78219
L68492 78219
" />
<path d="M68352 78023
L68352 78529
L68380 78585
L68436 78613
L68492 78613
" />
<path d="M68914 78585
L68858 78613
L68745 78613
L68689 78585
L68661 78529
L68661 78304
L68689 78248
L68745 78219
L68858 78219
L68914 78248
L68942 78304
L68942 78360
L68661 78416
" />
<path d="M69195 78613
L69195 78219
" />
<path d="M69195 78332
L69223 78276
L69251 78248
L69308 78219
L69364 78219
" />
</g>
<g style="fill:#000000; fill-opacity:0.0; 
stroke:#000000; stroke-width:39.3701; stroke-opacity:1; 
stroke-linecap:round; stroke-linejoin:round;">
</g>
<g style="fill:#000000; fill-opacity:0.0; 
stroke:#000000; stroke-width:59.0551; stroke-opacity:1; 
stroke-linecap:round; stroke-linejoin:round;">
<path d="M96754 79715
L96754 79125
" />
<path d="M97289 79715
L97289 79125
" />
<path d="M97289 79687
L97232 79715
L97120 79715
L97064 79687
L97035 79659
L97007 79603
L97007 79434
L97035 79378
L97064 79350
L97120 79322
L97232 79322
L97289 79350
" />
<path d="M97570 79659
L97598 79687
L97570 79715
L97542 79687
L97570 79659
L97570 79715
" />
<path d="M97570 79350
L97598 79378
L97570 79406
L97542 79378
L97570 79350
L97570 79406
" />
<path d="M98610 79715
L98273 79715
" />
<path d="M98442 79715
L98442 79125
L98385 79209
L98329 79266
L98273 79294
" />
<path d="M99285 79097
L98779 79856
" />
<path d="M99791 79715
L99454 79715
" />
<path d="M99623 79715
L99623 79125
L99566 79209
L99510 79266
L99454 79294
" />
</g>
<g style="fill:#000000; fill-opacity:0.0; 
stroke:#000000; stroke-width:39.3701; stroke-opacity:1; 
stroke-linecap:round; stroke-linejoin:round;">
</g>
<g style="fill:#000000; fill-opacity:0.0; 
stroke:#000000; stroke-width:59.0551; stroke-opacity:1; 
stroke-linecap:round; stroke-linejoin:round;">
<path d="M62755 76141
L105275 76141
" />
</g>
<g style="fill:#000000; fill-opacity:0.0; 
stroke:#000000; stroke-width:39.3701; stroke-opacity:1; 
stroke-linecap:round; stroke-linejoin:round;">
</g>
<g style="fill:#000000; fill-opacity:0.0; 
stroke:#000000; stroke-width:157.48; stroke-opacity:1; 
stroke-linecap:round; stroke-linejoin:round;">
<path d="M63327 76419
L63777 76419
" />
<path d="M63454 77206
L63552 76419
" />
<path d="M63941 77206
L64007 76681
" />
<path d="M64040 76419
L63997 76456
L64030 76494
L64072 76456
L64040 76419
L64030 76494
" />
<path d="M64269 76681
L64569 76681
" />
<path d="M64415 76419
L64330 77094
L64358 77169
L64429 77206
L64504 77206
" />
<path d="M64879 77206
L64808 77169
L64780 77094
L64865 76419
" />
<path d="M65483 77169
L65404 77206
L65254 77206
L65183 77169
L65155 77094
L65193 76794
L65239 76719
L65319 76681
L65469 76681
L65539 76719
L65568 76794
L65558 76869
L65174 76944
" />
<path d="M65863 77131
L65896 77169
L65853 77206
L65821 77169
L65863 77131
L65853 77206
" />
<path d="M65914 76719
L65947 76756
L65905 76794
L65872 76756
L65914 76719
L65905 76794
" />
<path d="M67231 76681
L67166 77206
" />
<path d="M67081 76381
L66824 76944
L67311 76944
" />
<path d="M67827 76419
L67902 76419
L67972 76456
L68005 76494
L68033 76569
L68052 76719
L68028 76906
L67972 77056
L67925 77131
L67883 77169
L67803 77206
L67728 77206
L67658 77169
L67625 77131
L67597 77056
L67578 76906
L67602 76719
L67658 76569
L67705 76494
L67747 76456
L67827 76419
" />
<path d="M68366 76906
L68966 76906
" />
<path d="M69645 77169
L69565 77206
L69416 77206
L69345 77169
L69312 77131
L69284 77056
L69312 76831
L69359 76756
L69401 76719
L69481 76681
L69631 76681
L69701 76719
" />
<path d="M69978 77206
L70076 76419
" />
<path d="M70315 77206
L70367 76794
L70339 76719
L70269 76681
L70156 76681
L70076 76719
L70034 76756
" />
<path d="M71028 77206
L71079 76794
L71051 76719
L70981 76681
L70831 76681
L70751 76719
" />
<path d="M71032 77169
L70953 77206
L70765 77206
L70695 77169
L70667 77094
L70676 77019
L70723 76944
L70803 76906
L70990 76906
L71070 76869
" />
<path d="M71468 76681
L71403 77206
" />
<path d="M71459 76756
L71501 76719
L71581 76681
L71693 76681
L71764 76719
L71792 76794
L71740 77206
" />
<path d="M72181 76681
L72115 77206
" />
<path d="M72171 76756
L72214 76719
L72293 76681
L72406 76681
L72476 76719
L72504 76794
L72453 77206
" />
<path d="M73132 77169
L73053 77206
L72903 77206
L72832 77169
L72804 77094
L72842 76794
L72889 76719
L72968 76681
L73118 76681
L73188 76719
L73217 76794
L73207 76869
L72823 76944
" />
<path d="M73615 77206
L73545 77169
L73517 77094
L73601 76419
" />
<path d="M74515 77206
L74613 76419
" />
<path d="M74566 76794
L75016 76794
" />
<path d="M74965 77206
L75063 76419
" />
<path d="M75326 76419
L75490 77206
L75851 76419
" />
<path d="M76582 77169
L76652 77206
L76802 77206
L76882 77169
L76929 77094
L76933 77056
L76905 76981
L76835 76944
L76722 76944
L76652 76906
L76624 76831
L76629 76794
L76676 76719
L76755 76681
L76868 76681
L76938 76719
" />
<path d="M77243 76681
L77327 77206
L77524 76831
L77627 77206
L77843 76681
" />
<path d="M78077 77206
L78143 76681
" />
<path d="M78175 76419
L78133 76456
L78166 76494
L78208 76456
L78175 76419
L78166 76494
" />
<path d="M78405 76681
L78705 76681
" />
<path d="M78550 76419
L78466 77094
L78494 77169
L78564 77206
L78639 77206
" />
<path d="M79244 77169
L79164 77206
L79014 77206
L78944 77169
L78911 77131
L78883 77056
L78911 76831
L78958 76756
L79000 76719
L79080 76681
L79230 76681
L79300 76719
" />
<path d="M79577 77206
L79675 76419
" />
<path d="M79914 77206
L79966 76794
L79938 76719
L79867 76681
L79755 76681
L79675 76719
L79633 76756
" />
<path d="M80289 77206
L80355 76681
" />
<path d="M80388 76419
L80345 76456
L80378 76494
L80420 76456
L80388 76419
L80378 76494
" />
<path d="M80730 76681
L80664 77206
" />
<path d="M80720 76756
L80763 76719
L80842 76681
L80955 76681
L81025 76719
L81053 76794
L81002 77206
" />
<path d="M81780 76681
L81700 77319
L81653 77394
L81611 77431
L81531 77469
L81419 77469
L81348 77431
" />
<path d="M81719 77169
L81639 77206
L81489 77206
L81419 77169
L81386 77131
L81358 77056
L81386 76831
L81433 76756
L81475 76719
L81555 76681
L81705 76681
L81775 76719
" />
<path d="M82689 77206
L82787 76419
" />
<path d="M82750 76719
L82829 76681
L82979 76681
L83050 76719
L83083 76756
L83111 76831
L83083 77056
L83036 77131
L82994 77169
L82914 77206
L82764 77206
L82694 77169
" />
<path d="M83514 77206
L83443 77169
L83411 77131
L83383 77056
L83411 76831
L83458 76756
L83500 76719
L83579 76681
L83692 76681
L83762 76719
L83795 76756
L83823 76831
L83795 77056
L83748 77131
L83706 77169
L83626 77206
L83514 77206
" />
<path d="M84451 77206
L84503 76794
L84475 76719
L84404 76681
L84254 76681
L84175 76719
" />
<path d="M84456 77169
L84376 77206
L84189 77206
L84118 77169
L84090 77094
L84100 77019
L84146 76944
L84226 76906
L84414 76906
L84493 76869
" />
<path d="M84826 77206
L84892 76681
" />
<path d="M84873 76831
L84920 76756
L84962 76719
L85042 76681
L85117 76681
" />
<path d="M85651 77206
L85749 76419
" />
<path d="M85656 77169
L85576 77206
L85426 77206
L85356 77169
L85323 77131
L85295 77056
L85323 76831
L85370 76756
L85412 76719
L85492 76681
L85642 76681
L85712 76719
" />
</g>
<g style="fill:#000000; fill-opacity:0.0; 
stroke:#000000; stroke-width:39.3701; stroke-opacity:1; 
stroke-linecap:round; stroke-linejoin:round;">
</g>
<g style="fill:#000000; fill-opacity:0.0; 
stroke:#000000; stroke-width:59.0551; stroke-opacity:1; 
stroke-linecap:round; stroke-linejoin:round;">
<path d="M63487 75390
L63290 75390
" />
<path d="M63290 75700
L63290 75109
L63571 75109
" />
<path d="M63796 75700
L63796 75306
" />
<path d="M63796 75109
L63768 75137
L63796 75165
L63824 75137
L63796 75109
L63796 75165
" />
<path d="M64161 75700
L64105 75672
L64077 75615
L64077 75109
" />
<path d="M64611 75672
L64555 75700
L64443 75700
L64386 75672
L64358 75615
L64358 75390
L64386 75334
L64443 75306
L64555 75306
L64611 75334
L64640 75390
L64640 75447
L64358 75503
" />
<path d="M64893 75643
L64921 75672
L64893 75700
L64865 75672
L64893 75643
L64893 75700
" />
<path d="M64893 75334
L64921 75362
L64893 75390
L64865 75362
L64893 75334
L64893 75390
" />
<path d="M65877 75306
L65877 75700
" />
<path d="M65736 75081
L65596 75503
L65961 75503
" />
<path d="M66299 75109
L66355 75109
L66411 75137
L66439 75165
L66467 75222
L66496 75334
L66496 75475
L66467 75587
L66439 75643
L66411 75672
L66355 75700
L66299 75700
L66242 75672
L66214 75643
L66186 75587
L66158 75475
L66158 75334
L66186 75222
L66214 75165
L66242 75137
L66299 75109
" />
<path d="M66749 75475
L67199 75475
" />
<path d="M67733 75672
L67677 75700
L67564 75700
L67508 75672
L67480 75643
L67452 75587
L67452 75419
L67480 75362
L67508 75334
L67564 75306
L67677 75306
L67733 75334
" />
<path d="M67986 75700
L67986 75109
" />
<path d="M68239 75700
L68239 75390
L68211 75334
L68155 75306
L68070 75306
L68014 75334
L67986 75362
" />
<path d="M68773 75700
L68773 75390
L68745 75334
L68689 75306
L68577 75306
L68520 75334
" />
<path d="M68773 75672
L68717 75700
L68577 75700
L68520 75672
L68492 75615
L68492 75559
L68520 75503
L68577 75475
L68717 75475
L68773 75447
" />
<path d="M69055 75306
L69055 75700
" />
<path d="M69055 75362
L69083 75334
L69139 75306
L69223 75306
L69280 75334
L69308 75390
L69308 75700
" />
<path d="M69589 75306
L69589 75700
" />
<path d="M69589 75362
L69617 75334
L69673 75306
L69758 75306
L69814 75334
L69842 75390
L69842 75700
" />
<path d="M70348 75672
L70292 75700
L70179 75700
L70123 75672
L70095 75615
L70095 75390
L70123 75334
L70179 75306
L70292 75306
L70348 75334
L70376 75390
L70376 75447
L70095 75503
" />
<path d="M70714 75700
L70658 75672
L70629 75615
L70629 75109
" />
<path d="M71389 75700
L71389 75109
" />
<path d="M71389 75390
L71726 75390
" />
<path d="M71726 75700
L71726 75109
" />
<path d="M71923 75109
L72120 75700
L72317 75109
" />
<path d="M72935 75672
L72992 75700
L73104 75700
L73160 75672
L73188 75615
L73188 75587
L73160 75531
L73104 75503
L73020 75503
L72964 75475
L72935 75419
L72935 75390
L72964 75334
L73020 75306
L73104 75306
L73160 75334
" />
<path d="M73385 75306
L73498 75700
L73610 75419
L73723 75700
L73835 75306
" />
<path d="M74060 75700
L74060 75306
" />
<path d="M74060 75109
L74032 75137
L74060 75165
L74088 75137
L74060 75109
L74060 75165
" />
<path d="M74257 75306
L74482 75306
" />
<path d="M74341 75109
L74341 75615
L74370 75672
L74426 75700
L74482 75700
" />
<path d="M74932 75672
L74876 75700
L74763 75700
L74707 75672
L74679 75643
L74651 75587
L74651 75419
L74679 75362
L74707 75334
L74763 75306
L74876 75306
L74932 75334
" />
<path d="M75185 75700
L75185 75109
" />
<path d="M75438 75700
L75438 75390
L75410 75334
L75354 75306
L75269 75306
L75213 75334
L75185 75362
" />
<path d="M75719 75700
L75719 75306
" />
<path d="M75719 75109
L75691 75137
L75719 75165
L75748 75137
L75719 75109
L75719 75165
" />
<path d="M76001 75306
L76001 75700
" />
<path d="M76001 75362
L76029 75334
L76085 75306
L76169 75306
L76226 75334
L76254 75390
L76254 75700
" />
<path d="M76788 75306
L76788 75784
L76760 75840
L76732 75868
L76676 75897
L76591 75897
L76535 75868
" />
<path d="M76788 75672
L76732 75700
L76619 75700
L76563 75672
L76535 75643
L76507 75587
L76507 75419
L76535 75362
L76563 75334
L76619 75306
L76732 75306
L76788 75334
" />
<path d="M77519 75700
L77519 75109
" />
<path d="M77519 75334
L77575 75306
L77688 75306
L77744 75334
L77772 75362
L77800 75419
L77800 75587
L77772 75643
L77744 75672
L77688 75700
L77575 75700
L77519 75672
" />
<path d="M78138 75700
L78082 75672
L78053 75643
L78025 75587
L78025 75419
L78053 75362
L78082 75334
L78138 75306
L78222 75306
L78278 75334
L78307 75362
L78335 75419
L78335 75587
L78307 75643
L78278 75672
L78222 75700
L78138 75700
" />
<path d="M78841 75700
L78841 75390
L78813 75334
L78757 75306
L78644 75306
L78588 75334
" />
<path d="M78841 75672
L78785 75700
L78644 75700
L78588 75672
L78560 75615
L78560 75559
L78588 75503
L78644 75475
L78785 75475
L78841 75447
" />
<path d="M79122 75700
L79122 75306
" />
<path d="M79122 75419
L79150 75362
L79178 75334
L79235 75306
L79291 75306
" />
<path d="M79741 75700
L79741 75109
" />
<path d="M79741 75672
L79685 75700
L79572 75700
L79516 75672
L79488 75643
L79460 75587
L79460 75419
L79488 75362
L79516 75334
L79572 75306
L79685 75306
L79741 75334
" />
<path d="M80022 75643
L80050 75672
L80022 75700
L79994 75672
L80022 75643
L80022 75700
" />
<path d="M80303 75700
L80303 75109
" />
<path d="M80359 75475
L80528 75700
" />
<path d="M80528 75306
L80303 75531
" />
<path d="M80781 75700
L80781 75306
" />
<path d="M80781 75109
L80753 75137
L80781 75165
L80809 75137
L80781 75109
L80781 75165
" />
<path d="M81316 75672
L81259 75700
L81147 75700
L81091 75672
L81062 75643
L81034 75587
L81034 75419
L81062 75362
L81091 75334
L81147 75306
L81259 75306
L81316 75334
" />
<path d="M81822 75700
L81822 75390
L81794 75334
L81737 75306
L81625 75306
L81569 75334
" />
<path d="M81822 75672
L81766 75700
L81625 75700
L81569 75672
L81541 75615
L81541 75559
L81569 75503
L81625 75475
L81766 75475
L81822 75447
" />
<path d="M82356 75700
L82356 75109
" />
<path d="M82356 75672
L82300 75700
L82187 75700
L82131 75672
L82103 75643
L82075 75587
L82075 75419
L82103 75362
L82131 75334
L82187 75306
L82300 75306
L82356 75334
" />
<path d="M82497 75756
L82947 75756
" />
<path d="M83087 75306
L83087 75897
" />
<path d="M83087 75334
L83143 75306
L83256 75306
L83312 75334
L83340 75362
L83368 75419
L83368 75587
L83340 75643
L83312 75672
L83256 75700
L83143 75700
L83087 75672
" />
<path d="M83875 75672
L83818 75700
L83706 75700
L83650 75672
L83622 75643
L83593 75587
L83593 75419
L83622 75362
L83650 75334
L83706 75306
L83818 75306
L83875 75334
" />
<path d="M84128 75700
L84128 75109
" />
<path d="M84128 75334
L84184 75306
L84296 75306
L84353 75334
L84381 75362
L84409 75419
L84409 75587
L84381 75643
L84353 75672
L84296 75700
L84184 75700
L84128 75672
" />
</g>
<g style="fill:#000000; fill-opacity:0.0; 
stroke:#000000; stroke-width:39.3701; stroke-opacity:1; 
stroke-linecap:round; stroke-linejoin:round;">
</g>
<g style="fill:#000000; fill-opacity:0.0; 
stroke:#000000; stroke-width:59.0551; stroke-opacity:1; 
stroke-linecap:round; stroke-linejoin:round;">
<path d="M62755 73779
L105275 73779
" />
</g>
<g style="fill:#000000; fill-opacity:0.0; 
stroke:#000000; stroke-width:39.3701; stroke-opacity:1; 
stroke-linecap:round; stroke-linejoin:round;">
</g>
<g style="fill:#000000; fill-opacity:0.0; 
stroke:#000000; stroke-width:59.0551; stroke-opacity:1; 
stroke-linecap:round; stroke-linejoin:round;">
<path d="M63262 74609
L63346 74637
L63487 74637
L63543 74609
L63571 74580
L63599 74524
L63599 74468
L63571 74412
L63543 74384
L63487 74356
L63374 74327
L63318 74299
L63290 74271
L63262 74215
L63262 74159
L63290 74102
L63318 74074
L63374 74046
L63515 74046
L63599 74074
" />
<path d="M63852 74637
L63852 74046
" />
<path d="M64105 74637
L64105 74327
L64077 74271
L64021 74243
L63937 74243
L63880 74271
L63852 74299
" />
<path d="M64611 74609
L64555 74637
L64443 74637
L64386 74609
L64358 74552
L64358 74327
L64386 74271
L64443 74243
L64555 74243
L64611 74271
L64640 74327
L64640 74384
L64358 74440
" />
<path d="M65118 74609
L65061 74637
L64949 74637
L64893 74609
L64865 74552
L64865 74327
L64893 74271
L64949 74243
L65061 74243
L65118 74271
L65146 74327
L65146 74384
L64865 74440
" />
<path d="M65314 74243
L65539 74243
" />
<path d="M65399 74046
L65399 74552
L65427 74609
L65483 74637
L65539 74637
" />
<path d="M65736 74580
L65764 74609
L65736 74637
L65708 74609
L65736 74580
L65736 74637
" />
<path d="M65736 74271
L65764 74299
L65736 74327
L65708 74299
L65736 74271
L65736 74327
" />
</g>
<g style="fill:#000000; fill-opacity:0.0; 
stroke:#000000; stroke-width:39.3701; stroke-opacity:1; 
stroke-linecap:round; stroke-linejoin:round;">
</g>
<g style="fill:#000000; fill-opacity:0.0; 
stroke:#000000; stroke-width:118.11; stroke-opacity:1; 
stroke-linecap:round; stroke-linejoin:round;">
<path d="M63262 73428
L63346 73456
L63487 73456
L63543 73428
L63571 73399
L63599 73343
L63599 73287
L63571 73231
L63543 73203
L63487 73174
L63374 73146
L63318 73118
L63290 73090
L63262 73034
L63262 72978
L63290 72921
L63318 72893
L63374 72865
L63515 72865
L63599 72893
" />
<path d="M64105 73428
L64049 73456
L63937 73456
L63880 73428
L63852 73399
L63824 73343
L63824 73174
L63852 73118
L63880 73090
L63937 73062
L64049 73062
L64105 73090
" />
<path d="M64358 73456
L64358 73062
" />
<path d="M64358 72865
L64330 72893
L64358 72921
L64386 72893
L64358 72865
L64358 72921
" />
<path d="M64640 73231
L65089 73231
" />
<path d="M65568 73146
L65652 73174
L65680 73203
L65708 73259
L65708 73343
L65680 73399
L65652 73428
L65596 73456
L65371 73456
L65371 72865
L65568 72865
L65624 72893
L65652 72921
L65680 72978
L65680 73034
L65652 73090
L65624 73118
L65568 73146
L65371 73146
" />
<path d="M66046 73456
L65989 73428
L65961 73399
L65933 73343
L65933 73174
L65961 73118
L65989 73090
L66046 73062
L66130 73062
L66186 73090
L66214 73118
L66242 73174
L66242 73343
L66214 73399
L66186 73428
L66130 73456
L66046 73456
" />
<path d="M66411 73062
L66636 73062
" />
<path d="M66496 72865
L66496 73371
L66524 73428
L66580 73456
L66636 73456
" />
<path d="M66805 73428
L66861 73456
L66974 73456
L67030 73428
L67058 73371
L67058 73343
L67030 73287
L66974 73259
L66889 73259
L66833 73231
L66805 73174
L66805 73146
L66833 73090
L66889 73062
L66974 73062
L67030 73090
" />
<path d="M67761 73456
L67761 72865
" />
<path d="M68042 73062
L68042 73456
" />
<path d="M68042 73118
L68070 73090
L68127 73062
L68211 73062
L68267 73090
L68295 73146
L68295 73456
" />
<path d="M68830 73428
L68773 73456
L68661 73456
L68605 73428
L68577 73399
L68548 73343
L68548 73174
L68577 73118
L68605 73090
L68661 73062
L68773 73062
L68830 73090
" />
<path d="M69083 73399
L69111 73428
L69083 73456
L69055 73428
L69083 73399
L69083 73456
" />
</g>
<g style="fill:#000000; fill-opacity:0.0; 
stroke:#000000; stroke-width:39.3701; stroke-opacity:1; 
stroke-linecap:round; stroke-linejoin:round;">
</g>
<g style="fill:#000000; fill-opacity:0.0; 
stroke:#000000; stroke-width:59.0551; stroke-opacity:1; 
stroke-linecap:round; stroke-linejoin:round;">
<path d="M70629 77716
L70629 78897
" />
</g>
<g style="fill:#000000; fill-opacity:0.0; 
stroke:#000000; stroke-width:39.3701; stroke-opacity:1; 
stroke-linecap:round; stroke-linejoin:round;">
</g>
<g style="fill:#000000; fill-opacity:0.0; 
stroke:#000000; stroke-width:59.0551; stroke-opacity:1; 
stroke-linecap:round; stroke-linejoin:round;">
<path d="M95826 77716
L95826 80275
" />
</g>
<g style="fill:#000000; fill-opacity:0.0; 
stroke:#000000; stroke-width:39.3701; stroke-opacity:1; 
stroke-linecap:round; stroke-linejoin:round;">
<path d="M42519 9055
L42519 45275
" />
<path d="M9448 9055
L42519 9055
" />
<path d="M9448 45275
L9448 9055
" />
<path d="M42519 45275
L9448 45275
" />
</g>
<g style="fill:#000000; fill-opacity:0.0; 
stroke:#000000; stroke-width:0; stroke-opacity:1; 
stroke-linecap:round; stroke-linejoin:round;">
</g>
<g style="fill:#000000; fill-opacity:1.0; 
stroke:#000000; stroke-width:0; stroke-opacity:1; 
stroke-linecap:round; stroke-linejoin:round;">
<polyline style="fill-rule:evenodd;"
points="36112,40994
37588,40994
37588,41998
36112,41998
36112,40994
" /> 
<polyline style="fill-rule:evenodd;"
points="36112,43120
37588,43120
37588,44124
36112,44124
36112,43120
" /> 
<polyline style="fill-rule:evenodd;"
points="12594,19112
12594,18312
13194,18312
13194,19112
12594,19112
" /> 
<polyline style="fill-rule:evenodd;"
points="13594,19112
13594,18312
14194,18312
14194,19112
13594,19112
" /> 
<polyline style="fill-rule:evenodd;"
points="14594,19112
14594,18312
15194,18312
15194,19112
14594,19112
" /> 
<polyline style="fill-rule:evenodd;"
points="15594,19112
15594,18312
16194,18312
16194,19112
15594,19112
" /> 
<polyline style="fill-rule:evenodd;"
points="15594,16112
15594,15312
16194,15312
16194,16112
15594,16112
" /> 
<polyline style="fill-rule:evenodd;"
points="14594,16112
14594,15312
15194,15312
15194,16112
14594,16112
" /> 
<polyline style="fill-rule:evenodd;"
points="13594,16112
13594,15312
14194,15312
14194,16112
13594,16112
" /> 
<polyline style="fill-rule:evenodd;"
points="12594,16112
12594,15312
13194,15312
13194,16112
12594,16112
" /> 
<polyline style="fill-rule:evenodd;"
points="12594,24773
12594,23973
13194,23973
13194,24773
12594,24773
" /> 
<polyline style="fill-rule:evenodd;"
points="13594,24773
13594,23973
14194,23973
14194,24773
13594,24773
" /> 
<polyline style="fill-rule:evenodd;"
points="14594,24773
14594,23973
15194,23973
15194,24773
14594,24773
" /> 
<polyline style="fill-rule:evenodd;"
points="15594,24773
15594,23973
16194,23973
16194,24773
15594,24773
" /> 
<polyline style="fill-rule:evenodd;"
points="15594,21773
15594,20973
16194,20973
16194,21773
15594,21773
" /> 
<polyline style="fill-rule:evenodd;"
points="14594,21773
14594,20973
15194,20973
15194,21773
14594,21773
" /> 
<polyline style="fill-rule:evenodd;"
points="13594,21773
13594,20973
14194,20973
14194,21773
13594,21773
" /> 
<polyline style="fill-rule:evenodd;"
points="12594,21773
12594,20973
13194,20973
13194,21773
12594,21773
" /> 
<polyline style="fill-rule:evenodd;"
points="12594,30513
12594,29713
13194,29713
13194,30513
12594,30513
" /> 
<polyline style="fill-rule:evenodd;"
points="13594,30513
13594,29713
14194,29713
14194,30513
13594,30513
" /> 
<polyline style="fill-rule:evenodd;"
points="14594,30513
14594,29713
15194,29713
15194,30513
14594,30513
" /> 
<polyline style="fill-rule:evenodd;"
points="15594,30513
15594,29713
16194,29713
16194,30513
15594,30513
" /> 
<polyline style="fill-rule:evenodd;"
points="15594,27513
15594,26713
16194,26713
16194,27513
15594,27513
" /> 
<polyline style="fill-rule:evenodd;"
points="14594,27513
14594,26713
15194,26713
15194,27513
14594,27513
" /> 
<polyline style="fill-rule:evenodd;"
points="13594,27513
13594,26713
14194,26713
14194,27513
13594,27513
" /> 
<polyline style="fill-rule:evenodd;"
points="12594,27513
12594,26713
13194,26713
13194,27513
12594,27513
" /> 
<polyline style="fill-rule:evenodd;"
points="12594,36214
12594,35414
13194,35414
13194,36214
12594,36214
" /> 
<polyline style="fill-rule:evenodd;"
points="13594,36214
13594,35414
14194,35414
14194,36214
13594,36214
" /> 
<polyline style="fill-rule:evenodd;"
points="14594,36214
14594,35414
15194,35414
15194,36214
14594,36214
" /> 
<polyline style="fill-rule:evenodd;"
points="15594,36214
15594,35414
16194,35414
16194,36214
15594,36214
" /> 
<polyline style="fill-rule:evenodd;"
points="15594,33214
15594,32414
16194,32414
16194,33214
15594,33214
" /> 
<polyline style="fill-rule:evenodd;"
points="14594,33214
14594,32414
15194,32414
15194,33214
14594,33214
" /> 
<polyline style="fill-rule:evenodd;"
points="13594,33214
13594,32414
14194,32414
14194,33214
13594,33214
" /> 
<polyline style="fill-rule:evenodd;"
points="12594,33214
12594,32414
13194,32414
13194,33214
12594,33214
" /> 
<polyline style="fill-rule:evenodd;"
points="18594,19112
18594,18312
19194,18312
19194,19112
18594,19112
" /> 
<polyline style="fill-rule:evenodd;"
points="19594,19112
19594,18312
20194,18312
20194,19112
19594,19112
" /> 
<polyline style="fill-rule:evenodd;"
points="20594,19112
20594,18312
21194,18312
21194,19112
20594,19112
" /> 
<polyline style="fill-rule:evenodd;"
points="21594,19112
21594,18312
22194,18312
22194,19112
21594,19112
" /> 
<polyline style="fill-rule:evenodd;"
points="21594,16112
21594,15312
22194,15312
22194,16112
21594,16112
" /> 
<polyline style="fill-rule:evenodd;"
points="20594,16112
20594,15312
21194,15312
21194,16112
20594,16112
" /> 
<polyline style="fill-rule:evenodd;"
points="19594,16112
19594,15312
20194,15312
20194,16112
19594,16112
" /> 
<polyline style="fill-rule:evenodd;"
points="18594,16112
18594,15312
19194,15312
19194,16112
18594,16112
" /> 
<polyline style="fill-rule:evenodd;"
points="18594,24773
18594,23973
19194,23973
19194,24773
18594,24773
" /> 
<polyline style="fill-rule:evenodd;"
points="19594,24773
19594,23973
20194,23973
20194,24773
19594,24773
" /> 
<polyline style="fill-rule:evenodd;"
points="20594,24773
20594,23973
21194,23973
21194,24773
20594,24773
" /> 
<polyline style="fill-rule:evenodd;"
points="21594,24773
21594,23973
22194,23973
22194,24773
21594,24773
" /> 
<polyline style="fill-rule:evenodd;"
points="21594,21773
21594,20973
22194,20973
22194,21773
21594,21773
" /> 
<polyline style="fill-rule:evenodd;"
points="20594,21773
20594,20973
21194,20973
21194,21773
20594,21773
" /> 
<polyline style="fill-rule:evenodd;"
points="19594,21773
19594,20973
20194,20973
20194,21773
19594,21773
" /> 
<polyline style="fill-rule:evenodd;"
points="18594,21773
18594,20973
19194,20973
19194,21773
18594,21773
" /> 
<polyline style="fill-rule:evenodd;"
points="18594,30513
18594,29713
19194,29713
19194,30513
18594,30513
" /> 
<polyline style="fill-rule:evenodd;"
points="19594,30513
19594,29713
20194,29713
20194,30513
19594,30513
" /> 
<polyline style="fill-rule:evenodd;"
points="20594,30513
20594,29713
21194,29713
21194,30513
20594,30513
" /> 
<polyline style="fill-rule:evenodd;"
points="21594,30513
21594,29713
22194,29713
22194,30513
21594,30513
" /> 
<polyline style="fill-rule:evenodd;"
points="21594,27513
21594,26713
22194,26713
22194,27513
21594,27513
" /> 
<polyline style="fill-rule:evenodd;"
points="20594,27513
20594,26713
21194,26713
21194,27513
20594,27513
" /> 
<polyline style="fill-rule:evenodd;"
points="19594,27513
19594,26713
20194,26713
20194,27513
19594,27513
" /> 
<polyline style="fill-rule:evenodd;"
points="18594,27513
18594,26713
19194,26713
19194,27513
18594,27513
" /> 
<polyline style="fill-rule:evenodd;"
points="18594,36214
18594,35414
19194,35414
19194,36214
18594,36214
" /> 
<polyline style="fill-rule:evenodd;"
points="19594,36214
19594,35414
20194,35414
20194,36214
19594,36214
" /> 
<polyline style="fill-rule:evenodd;"
points="20594,36214
20594,35414
21194,35414
21194,36214
20594,36214
" /> 
<polyline style="fill-rule:evenodd;"
points="21594,36214
21594,35414
22194,35414
22194,36214
21594,36214
" /> 
<polyline style="fill-rule:evenodd;"
points="21594,33214
21594,32414
22194,32414
22194,33214
21594,33214
" /> 
<polyline style="fill-rule:evenodd;"
points="20594,33214
20594,32414
21194,32414
21194,33214
20594,33214
" /> 
<polyline style="fill-rule:evenodd;"
points="19594,33214
19594,32414
20194,32414
20194,33214
19594,33214
" /> 
<polyline style="fill-rule:evenodd;"
points="18594,33214
18594,32414
19194,32414
19194,33214
18594,33214
" /> 
<polyline style="fill-rule:evenodd;"
points="24594,19112
24594,18312
25194,18312
25194,19112
24594,19112
" /> 
<polyline style="fill-rule:evenodd;"
points="25594,19112
25594,18312
26194,18312
26194,19112
25594,19112
" /> 
<polyline style="fill-rule:evenodd;"
points="26594,19112
26594,18312
27194,18312
27194,19112
26594,19112
" /> 
<polyline style="fill-rule:evenodd;"
points="27594,19112
27594,18312
28194,18312
28194,19112
27594,19112
" /> 
<polyline style="fill-rule:evenodd;"
points="27594,16112
27594,15312
28194,15312
28194,16112
27594,16112
" /> 
<polyline style="fill-rule:evenodd;"
points="26594,16112
26594,15312
27194,15312
27194,16112
26594,16112
" /> 
<polyline style="fill-rule:evenodd;"
points="25594,16112
25594,15312
26194,15312
26194,16112
25594,16112
" /> 
<polyline style="fill-rule:evenodd;"
points="24594,16112
24594,15312
25194,15312
25194,16112
24594,16112
" /> 
<polyline style="fill-rule:evenodd;"
points="24594,24773
24594,23973
25194,23973
25194,24773
24594,24773
" /> 
<polyline style="fill-rule:evenodd;"
points="25594,24773
25594,23973
26194,23973
26194,24773
25594,24773
" /> 
<polyline style="fill-rule:evenodd;"
points="26594,24773
26594,23973
27194,23973
27194,24773
26594,24773
" /> 
<polyline style="fill-rule:evenodd;"
points="27594,24773
27594,23973
28194,23973
28194,24773
27594,24773
" /> 
<polyline style="fill-rule:evenodd;"
points="27594,21773
27594,20973
28194,20973
28194,21773
27594,21773
" /> 
<polyline style="fill-rule:evenodd;"
points="26594,21773
26594,20973
27194,20973
27194,21773
26594,21773
" /> 
<polyline style="fill-rule:evenodd;"
points="25594,21773
25594,20973
26194,20973
26194,21773
25594,21773
" /> 
<polyline style="fill-rule:evenodd;"
points="24594,21773
24594,20973
25194,20973
25194,21773
24594,21773
" /> 
<polyline style="fill-rule:evenodd;"
points="24594,30513
24594,29713
25194,29713
25194,30513
24594,30513
" /> 
<polyline style="fill-rule:evenodd;"
points="25594,30513
25594,29713
26194,29713
26194,30513
25594,30513
" /> 
<polyline style="fill-rule:evenodd;"
points="26594,30513
26594,29713
27194,29713
27194,30513
26594,30513
" /> 
<polyline style="fill-rule:evenodd;"
points="27594,30513
27594,29713
28194,29713
28194,30513
27594,30513
" /> 
<polyline style="fill-rule:evenodd;"
points="27594,27513
27594,26713
28194,26713
28194,27513
27594,27513
" /> 
<polyline style="fill-rule:evenodd;"
points="26594,27513
26594,26713
27194,26713
27194,27513
26594,27513
" /> 
<polyline style="fill-rule:evenodd;"
points="25594,27513
25594,26713
26194,26713
26194,27513
25594,27513
" /> 
<polyline style="fill-rule:evenodd;"
points="24594,27513
24594,26713
25194,26713
25194,27513
24594,27513
" /> 
<polyline style="fill-rule:evenodd;"
points="24594,36214
24594,35414
25194,35414
25194,36214
24594,36214
" /> 
<polyline style="fill-rule:evenodd;"
points="25594,36214
25594,35414
26194,35414
26194,36214
25594,36214
" /> 
<polyline style="fill-rule:evenodd;"
points="26594,36214
26594,35414
27194,35414
27194,36214
26594,36214
" /> 
<polyline style="fill-rule:evenodd;"
points="27594,36214
27594,35414
28194,35414
28194,36214
27594,36214
" /> 
<polyline style="fill-rule:evenodd;"
points="27594,33214
27594,32414
28194,32414
28194,33214
27594,33214
" /> 
<polyline style="fill-rule:evenodd;"
points="26594,33214
26594,32414
27194,32414
27194,33214
26594,33214
" /> 
<polyline style="fill-rule:evenodd;"
points="25594,33214
25594,32414
26194,32414
26194,33214
25594,33214
" /> 
<polyline style="fill-rule:evenodd;"
points="24594,33214
24594,32414
25194,32414
25194,33214
24594,33214
" /> 
<polyline style="fill-rule:evenodd;"
points="30594,19112
30594,18312
31194,18312
31194,19112
30594,19112
" /> 
<polyline style="fill-rule:evenodd;"
points="31594,19112
31594,18312
32194,18312
32194,19112
31594,19112
" /> 
<polyline style="fill-rule:evenodd;"
points="32594,19112
32594,18312
33194,18312
33194,19112
32594,19112
" /> 
<polyline style="fill-rule:evenodd;"
points="33594,19112
33594,18312
34194,18312
34194,19112
33594,19112
" /> 
<polyline style="fill-rule:evenodd;"
points="33594,16112
33594,15312
34194,15312
34194,16112
33594,16112
" /> 
<polyline style="fill-rule:evenodd;"
points="32594,16112
32594,15312
33194,15312
33194,16112
32594,16112
" /> 
<polyline style="fill-rule:evenodd;"
points="31594,16112
31594,15312
32194,15312
32194,16112
31594,16112
" /> 
<polyline style="fill-rule:evenodd;"
points="30594,16112
30594,15312
31194,15312
31194,16112
30594,16112
" /> 
<polyline style="fill-rule:evenodd;"
points="30594,24773
30594,23973
31194,23973
31194,24773
30594,24773
" /> 
<polyline style="fill-rule:evenodd;"
points="31594,24773
31594,23973
32194,23973
32194,24773
31594,24773
" /> 
<polyline style="fill-rule:evenodd;"
points="32594,24773
32594,23973
33194,23973
33194,24773
32594,24773
" /> 
<polyline style="fill-rule:evenodd;"
points="33594,24773
33594,23973
34194,23973
34194,24773
33594,24773
" /> 
<polyline style="fill-rule:evenodd;"
points="33594,21773
33594,20973
34194,20973
34194,21773
33594,21773
" /> 
<polyline style="fill-rule:evenodd;"
points="32594,21773
32594,20973
33194,20973
33194,21773
32594,21773
" /> 
<polyline style="fill-rule:evenodd;"
points="31594,21773
31594,20973
32194,20973
32194,21773
31594,21773
" /> 
<polyline style="fill-rule:evenodd;"
points="30594,21773
30594,20973
31194,20973
31194,21773
30594,21773
" /> 
<polyline style="fill-rule:evenodd;"
points="30594,30513
30594,29713
31194,29713
31194,30513
30594,30513
" /> 
<polyline style="fill-rule:evenodd;"
points="31594,30513
31594,29713
32194,29713
32194,30513
31594,30513
" /> 
<polyline style="fill-rule:evenodd;"
points="32594,30513
32594,29713
33194,29713
33194,30513
32594,30513
" /> 
<polyline style="fill-rule:evenodd;"
points="33594,30513
33594,29713
34194,29713
34194,30513
33594,30513
" /> 
<polyline style="fill-rule:evenodd;"
points="33594,27513
33594,26713
34194,26713
34194,27513
33594,27513
" /> 
<polyline style="fill-rule:evenodd;"
points="32594,27513
32594,26713
33194,26713
33194,27513
32594,27513
" /> 
<polyline style="fill-rule:evenodd;"
points="31594,27513
31594,26713
32194,26713
32194,27513
31594,27513
" /> 
<polyline style="fill-rule:evenodd;"
points="30594,27513
30594,26713
31194,26713
31194,27513
30594,27513
" /> 
<polyline style="fill-rule:evenodd;"
points="30594,36214
30594,35414
31194,35414
31194,36214
30594,36214
" /> 
<polyline style="fill-rule:evenodd;"
points="31594,36214
31594,35414
32194,35414
32194,36214
31594,36214
" /> 
<polyline style="fill-rule:evenodd;"
points="32594,36214
32594,35414
33194,35414
33194,36214
32594,36214
" /> 
<polyline style="fill-rule:evenodd;"
points="33594,36214
33594,35414
34194,35414
34194,36214
33594,36214
" /> 
<polyline style="fill-rule:evenodd;"
points="33594,33214
33594,32414
34194,32414
34194,33214
33594,33214
" /> 
<polyline style="fill-rule:evenodd;"
points="32594,33214
32594,32414
33194,32414
33194,33214
32594,33214
" /> 
<polyline style="fill-rule:evenodd;"
points="31594,33214
31594,32414
32194,32414
32194,33214
31594,33214
" /> 
<polyline style="fill-rule:evenodd;"
points="30594,33214
30594,32414
31194,32414
31194,33214
30594,33214
" /> 
<polyline style="fill-rule:evenodd;"
points="36594,19112
36594,18312
37194,18312
37194,19112
36594,19112
" /> 
<polyline style="fill-rule:evenodd;"
points="37594,19112
37594,18312
38194,18312
38194,19112
37594,19112
" /> 
<polyline style="fill-rule:evenodd;"
points="38594,19112
38594,18312
39194,18312
39194,19112
38594,19112
" /> 
<polyline style="fill-rule:evenodd;"
points="39594,19112
39594,18312
40194,18312
40194,19112
39594,19112
" /> 
<polyline style="fill-rule:evenodd;"
points="39594,16112
39594,15312
40194,15312
40194,16112
39594,16112
" /> 
<polyline style="fill-rule:evenodd;"
points="38594,16112
38594,15312
39194,15312
39194,16112
38594,16112
" /> 
<polyline style="fill-rule:evenodd;"
points="37594,16112
37594,15312
38194,15312
38194,16112
37594,16112
" /> 
<polyline style="fill-rule:evenodd;"
points="36594,16112
36594,15312
37194,15312
37194,16112
36594,16112
" /> 
<polyline style="fill-rule:evenodd;"
points="36594,24773
36594,23973
37194,23973
37194,24773
36594,24773
" /> 
<polyline style="fill-rule:evenodd;"
points="37594,24773
37594,23973
38194,23973
38194,24773
37594,24773
" /> 
<polyline style="fill-rule:evenodd;"
points="38594,24773
38594,23973
39194,23973
39194,24773
38594,24773
" /> 
<polyline style="fill-rule:evenodd;"
points="39594,24773
39594,23973
40194,23973
40194,24773
39594,24773
" /> 
<polyline style="fill-rule:evenodd;"
points="39594,21773
39594,20973
40194,20973
40194,21773
39594,21773
" /> 
<polyline style="fill-rule:evenodd;"
points="38594,21773
38594,20973
39194,20973
39194,21773
38594,21773
" /> 
<polyline style="fill-rule:evenodd;"
points="37594,21773
37594,20973
38194,20973
38194,21773
37594,21773
" /> 
<polyline style="fill-rule:evenodd;"
points="36594,21773
36594,20973
37194,20973
37194,21773
36594,21773
" /> 
<polyline style="fill-rule:evenodd;"
points="36594,30513
36594,29713
37194,29713
37194,30513
36594,30513
" /> 
<polyline style="fill-rule:evenodd;"
points="37594,30513
37594,29713
38194,29713
38194,30513
37594,30513
" /> 
<polyline style="fill-rule:evenodd;"
points="38594,30513
38594,29713
39194,29713
39194,30513
38594,30513
" /> 
<polyline style="fill-rule:evenodd;"
points="39594,30513
39594,29713
40194,29713
40194,30513
39594,30513
" /> 
<polyline style="fill-rule:evenodd;"
points="39594,27513
39594,26713
40194,26713
40194,27513
39594,27513
" /> 
<polyline style="fill-rule:evenodd;"
points="38594,27513
38594,26713
39194,26713
39194,27513
38594,27513
" /> 
<polyline style="fill-rule:evenodd;"
points="37594,27513
37594,26713
38194,26713
38194,27513
37594,27513
" /> 
<polyline style="fill-rule:evenodd;"
points="36594,27513
36594,26713
37194,26713
37194,27513
36594,27513
" /> 
<polyline style="fill-rule:evenodd;"
points="36594,36214
36594,35414
37194,35414
37194,36214
36594,36214
" /> 
<polyline style="fill-rule:evenodd;"
points="37594,36214
37594,35414
38194,35414
38194,36214
37594,36214
" /> 
<polyline style="fill-rule:evenodd;"
points="38594,36214
38594,35414
39194,35414
39194,36214
38594,36214
" /> 
<polyline style="fill-rule:evenodd;"
points="39594,36214
39594,35414
40194,35414
40194,36214
39594,36214
" /> 
<polyline style="fill-rule:evenodd;"
points="39594,33214
39594,32414
40194,32414
40194,33214
39594,33214
" /> 
<polyline style="fill-rule:evenodd;"
points="38594,33214
38594,32414
39194,32414
39194,33214
38594,33214
" /> 
<polyline style="fill-rule:evenodd;"
points="37594,33214
37594,32414
38194,32414
38194,33214
37594,33214
" /> 
<polyline style="fill-rule:evenodd;"
points="36594,33214
36594,32414
37194,32414
37194,33214
36594,33214
" /> 
<polyline style="fill-rule:evenodd;"
points="27175,42952
26683,42952
26683,42559
27175,42559
27175,42952
" /> 
<polyline style="fill-rule:evenodd;"
points="27175,42165
26683,42165
26683,41771
27175,41771
27175,42165
" /> 
<polyline style="fill-rule:evenodd;"
points="35344,40984
35836,40984
35836,41377
35344,41377
35344,40984
" /> 
<polyline style="fill-rule:evenodd;"
points="35344,41771
35836,41771
35836,42165
35344,42165
35344,41771
" /> 
<polyline style="fill-rule:evenodd;"
points="34596,40984
35088,40984
35088,41377
34596,41377
34596,40984
" /> 
<polyline style="fill-rule:evenodd;"
points="34596,41771
35088,41771
35088,42165
34596,42165
34596,41771
" /> 
<polyline style="fill-rule:evenodd;"
points="35078,44034
34606,44034
34606,43562
35078,43562
35078,44034
" /> 
<polyline style="fill-rule:evenodd;"
points="35078,43208
34606,43208
34606,42736
35078,42736
35078,43208
" /> 
<polyline style="fill-rule:evenodd;"
points="20915,40610
21131,40610
21131,41240
20915,41240
20915,40610
" /> 
<polyline style="fill-rule:evenodd;"
points="20600,40610
20816,40610
20816,41240
20600,41240
20600,40610
" /> 
<polyline style="fill-rule:evenodd;"
points="20285,40610
20501,40610
20501,41240
20285,41240
20285,40610
" /> 
<polyline style="fill-rule:evenodd;"
points="19970,40610
20187,40610
20187,41240
19970,41240
19970,40610
" /> 
<polyline style="fill-rule:evenodd;"
points="19655,40610
19872,40610
19872,41240
19655,41240
19655,40610
" /> 
<polyline style="fill-rule:evenodd;"
points="19340,40610
19557,40610
19557,41240
19340,41240
19340,40610
" /> 
<polyline style="fill-rule:evenodd;"
points="19025,40610
19242,40610
19242,41240
19025,41240
19025,40610
" /> 
<polyline style="fill-rule:evenodd;"
points="18710,40610
18927,40610
18927,41240
18710,41240
18710,40610
" /> 
<polyline style="fill-rule:evenodd;"
points="17933,41604
17933,41387
18562,41387
18562,41604
17933,41604
" /> 
<polyline style="fill-rule:evenodd;"
points="17933,41919
17933,41702
18562,41702
18562,41919
17933,41919
" /> 
<polyline style="fill-rule:evenodd;"
points="17933,42234
17933,42017
18562,42017
18562,42234
17933,42234
" /> 
<polyline style="fill-rule:evenodd;"
points="17933,42549
17933,42332
18562,42332
18562,42549
17933,42549
" /> 
<polyline style="fill-rule:evenodd;"
points="17933,42864
17933,42647
18562,42647
18562,42864
17933,42864
" /> 
<polyline style="fill-rule:evenodd;"
points="17933,43179
17933,42962
18562,42962
18562,43179
17933,43179
" /> 
<polyline style="fill-rule:evenodd;"
points="17933,43494
17933,43277
18562,43277
18562,43494
17933,43494
" /> 
<polyline style="fill-rule:evenodd;"
points="17933,43809
17933,43592
18562,43592
18562,43809
17933,43809
" /> 
<polyline style="fill-rule:evenodd;"
points="18710,43956
18927,43956
18927,44586
18710,44586
18710,43956
" /> 
<polyline style="fill-rule:evenodd;"
points="19025,43956
19242,43956
19242,44586
19025,44586
19025,43956
" /> 
<polyline style="fill-rule:evenodd;"
points="19340,43956
19557,43956
19557,44586
19340,44586
19340,43956
" /> 
<polyline style="fill-rule:evenodd;"
points="19655,43956
19872,43956
19872,44586
19655,44586
19655,43956
" /> 
<polyline style="fill-rule:evenodd;"
points="19970,43956
20187,43956
20187,44586
19970,44586
19970,43956
" /> 
<polyline style="fill-rule:evenodd;"
points="20285,43956
20501,43956
20501,44586
20285,44586
20285,43956
" /> 
<polyline style="fill-rule:evenodd;"
points="20600,43956
20816,43956
20816,44586
20600,44586
20600,43956
" /> 
<polyline style="fill-rule:evenodd;"
points="20915,43956
21131,43956
21131,44586
20915,44586
20915,43956
" /> 
<polyline style="fill-rule:evenodd;"
points="21279,43809
21279,43592
21909,43592
21909,43809
21279,43809
" /> 
<polyline style="fill-rule:evenodd;"
points="21279,43494
21279,43277
21909,43277
21909,43494
21279,43494
" /> 
<polyline style="fill-rule:evenodd;"
points="21279,43179
21279,42962
21909,42962
21909,43179
21279,43179
" /> 
<polyline style="fill-rule:evenodd;"
points="21279,42864
21279,42647
21909,42647
21909,42864
21279,42864
" /> 
<polyline style="fill-rule:evenodd;"
points="21279,42549
21279,42332
21909,42332
21909,42549
21279,42549
" /> 
<polyline style="fill-rule:evenodd;"
points="21279,42234
21279,42017
21909,42017
21909,42234
21279,42234
" /> 
<polyline style="fill-rule:evenodd;"
points="21279,41919
21279,41702
21909,41702
21909,41919
21279,41919
" /> 
<polyline style="fill-rule:evenodd;"
points="21279,41604
21279,41387
21909,41387
21909,41604
21279,41604
" /> 
<polyline style="fill-rule:evenodd;"
points="12638,37302
13150,37302
13150,37578
12638,37578
12638,37302
" /> 
<polyline style="fill-rule:evenodd;"
points="12638,38050
13150,38050
13150,38326
12638,38326
12638,38050
" /> 
<polyline style="fill-rule:evenodd;"
points="12638,30932
13150,30932
13150,31208
12638,31208
12638,30932
" /> 
<polyline style="fill-rule:evenodd;"
points="12638,31680
13150,31680
13150,31956
12638,31956
12638,31680
" /> 
<polyline style="fill-rule:evenodd;"
points="12638,25231
13150,25231
13150,25507
12638,25507
12638,25231
" /> 
<polyline style="fill-rule:evenodd;"
points="12638,25979
13150,25979
13150,26255
12638,26255
12638,25979
" /> 
<polyline style="fill-rule:evenodd;"
points="12598,19520
13110,19520
13110,19795
12598,19795
12598,19520
" /> 
<polyline style="fill-rule:evenodd;"
points="12598,20268
13110,20268
13110,20543
12598,20543
12598,20268
" /> 
<polyline style="fill-rule:evenodd;"
points="14650,38326
14138,38326
14138,38050
14650,38050
14650,38326
" /> 
<polyline style="fill-rule:evenodd;"
points="14650,37578
14138,37578
14138,37302
14650,37302
14650,37578
" /> 
<polyline style="fill-rule:evenodd;"
points="16150,38326
15638,38326
15638,38050
16150,38050
16150,38326
" /> 
<polyline style="fill-rule:evenodd;"
points="16150,37578
15638,37578
15638,37302
16150,37302
16150,37578
" /> 
<polyline style="fill-rule:evenodd;"
points="16150,31956
15638,31956
15638,31680
16150,31680
16150,31956
" /> 
<polyline style="fill-rule:evenodd;"
points="16150,31208
15638,31208
15638,30932
16150,30932
16150,31208
" /> 
<polyline style="fill-rule:evenodd;"
points="16150,26255
15638,26255
15638,25979
16150,25979
16150,26255
" /> 
<polyline style="fill-rule:evenodd;"
points="16150,25507
15638,25507
15638,25231
16150,25231
16150,25507
" /> 
<polyline style="fill-rule:evenodd;"
points="16150,20543
15638,20543
15638,20268
16150,20268
16150,20543
" /> 
<polyline style="fill-rule:evenodd;"
points="16150,19795
15638,19795
15638,19520
16150,19520
16150,19795
" /> 
<polyline style="fill-rule:evenodd;"
points="14610,20543
14098,20543
14098,20268
14610,20268
14610,20543
" /> 
<polyline style="fill-rule:evenodd;"
points="14610,19795
14098,19795
14098,19520
14610,19520
14610,19795
" /> 
<polyline style="fill-rule:evenodd;"
points="18638,37302
19150,37302
19150,37578
18638,37578
18638,37302
" /> 
<polyline style="fill-rule:evenodd;"
points="18638,38050
19150,38050
19150,38326
18638,38326
18638,38050
" /> 
<polyline style="fill-rule:evenodd;"
points="18638,30932
19150,30932
19150,31208
18638,31208
18638,30932
" /> 
<polyline style="fill-rule:evenodd;"
points="18638,31680
19150,31680
19150,31956
18638,31956
18638,31680
" /> 
<polyline style="fill-rule:evenodd;"
points="18638,25231
19150,25231
19150,25507
18638,25507
18638,25231
" /> 
<polyline style="fill-rule:evenodd;"
points="18638,25979
19150,25979
19150,26255
18638,26255
18638,25979
" /> 
<polyline style="fill-rule:evenodd;"
points="18638,19531
19150,19531
19150,19806
18638,19806
18638,19531
" /> 
<polyline style="fill-rule:evenodd;"
points="18638,20279
19150,20279
19150,20554
18638,20554
18638,20279
" /> 
<polyline style="fill-rule:evenodd;"
points="20650,38326
20138,38326
20138,38050
20650,38050
20650,38326
" /> 
<polyline style="fill-rule:evenodd;"
points="20650,37578
20138,37578
20138,37302
20650,37302
20650,37578
" /> 
<polyline style="fill-rule:evenodd;"
points="22150,38326
21638,38326
21638,38050
22150,38050
22150,38326
" /> 
<polyline style="fill-rule:evenodd;"
points="22150,37578
21638,37578
21638,37302
22150,37302
22150,37578
" /> 
<polyline style="fill-rule:evenodd;"
points="22150,31956
21638,31956
21638,31680
22150,31680
22150,31956
" /> 
<polyline style="fill-rule:evenodd;"
points="22150,31208
21638,31208
21638,30932
22150,30932
22150,31208
" /> 
<polyline style="fill-rule:evenodd;"
points="22150,26255
21638,26255
21638,25979
22150,25979
22150,26255
" /> 
<polyline style="fill-rule:evenodd;"
points="22150,25507
21638,25507
21638,25231
22150,25231
22150,25507
" /> 
<polyline style="fill-rule:evenodd;"
points="22150,20554
21638,20554
21638,20279
22150,20279
22150,20554
" /> 
<polyline style="fill-rule:evenodd;"
points="22150,19806
21638,19806
21638,19531
22150,19531
22150,19806
" /> 
<polyline style="fill-rule:evenodd;"
points="20650,20554
20138,20554
20138,20279
20650,20279
20650,20554
" /> 
<polyline style="fill-rule:evenodd;"
points="20650,19806
20138,19806
20138,19531
20650,19531
20650,19806
" /> 
<polyline style="fill-rule:evenodd;"
points="24638,37302
25150,37302
25150,37578
24638,37578
24638,37302
" /> 
<polyline style="fill-rule:evenodd;"
points="24638,38050
25150,38050
25150,38326
24638,38326
24638,38050
" /> 
<polyline style="fill-rule:evenodd;"
points="24638,30932
25150,30932
25150,31208
24638,31208
24638,30932
" /> 
<polyline style="fill-rule:evenodd;"
points="24638,31680
25150,31680
25150,31956
24638,31956
24638,31680
" /> 
<polyline style="fill-rule:evenodd;"
points="24638,25231
25150,25231
25150,25507
24638,25507
24638,25231
" /> 
<polyline style="fill-rule:evenodd;"
points="24638,25979
25150,25979
25150,26255
24638,26255
24638,25979
" /> 
<polyline style="fill-rule:evenodd;"
points="24638,19531
25150,19531
25150,19806
24638,19806
24638,19531
" /> 
<polyline style="fill-rule:evenodd;"
points="24638,20279
25150,20279
25150,20554
24638,20554
24638,20279
" /> 
<polyline style="fill-rule:evenodd;"
points="26650,38326
26138,38326
26138,38050
26650,38050
26650,38326
" /> 
<polyline style="fill-rule:evenodd;"
points="26650,37578
26138,37578
26138,37302
26650,37302
26650,37578
" /> 
<polyline style="fill-rule:evenodd;"
points="28150,38326
27638,38326
27638,38050
28150,38050
28150,38326
" /> 
<polyline style="fill-rule:evenodd;"
points="28150,37578
27638,37578
27638,37302
28150,37302
28150,37578
" /> 
<polyline style="fill-rule:evenodd;"
points="28150,31956
27638,31956
27638,31680
28150,31680
28150,31956
" /> 
<polyline style="fill-rule:evenodd;"
points="28150,31208
27638,31208
27638,30932
28150,30932
28150,31208
" /> 
<polyline style="fill-rule:evenodd;"
points="28150,26255
27638,26255
27638,25979
28150,25979
28150,26255
" /> 
<polyline style="fill-rule:evenodd;"
points="28150,25507
27638,25507
27638,25231
28150,25231
28150,25507
" /> 
<polyline style="fill-rule:evenodd;"
points="28150,20554
27638,20554
27638,20279
28150,20279
28150,20554
" /> 
<polyline style="fill-rule:evenodd;"
points="28150,19806
27638,19806
27638,19531
28150,19531
28150,19806
" /> 
<polyline style="fill-rule:evenodd;"
points="26650,20554
26138,20554
26138,20279
26650,20279
26650,20554
" /> 
<polyline style="fill-rule:evenodd;"
points="26650,19806
26138,19806
26138,19531
26650,19531
26650,19806
" /> 
<polyline style="fill-rule:evenodd;"
points="30638,37302
31150,37302
31150,37578
30638,37578
30638,37302
" /> 
<polyline style="fill-rule:evenodd;"
points="30638,38050
31150,38050
31150,38326
30638,38326
30638,38050
" /> 
<polyline style="fill-rule:evenodd;"
points="30638,30932
31150,30932
31150,31208
30638,31208
30638,30932
" /> 
<polyline style="fill-rule:evenodd;"
points="30638,31680
31150,31680
31150,31956
30638,31956
30638,31680
" /> 
<polyline style="fill-rule:evenodd;"
points="30638,25231
31150,25231
31150,25507
30638,25507
30638,25231
" /> 
<polyline style="fill-rule:evenodd;"
points="30638,25979
31150,25979
31150,26255
30638,26255
30638,25979
" /> 
<polyline style="fill-rule:evenodd;"
points="30638,19531
31150,19531
31150,19806
30638,19806
30638,19531
" /> 
<polyline style="fill-rule:evenodd;"
points="30638,20279
31150,20279
31150,20554
30638,20554
30638,20279
" /> 
<polyline style="fill-rule:evenodd;"
points="26771,41397
26771,40885
27047,40885
27047,41397
26771,41397
" /> 
<polyline style="fill-rule:evenodd;"
points="27519,41397
27519,40885
27795,40885
27795,41397
27519,41397
" /> 
<polyline style="fill-rule:evenodd;"
points="32650,38326
32138,38326
32138,38050
32650,38050
32650,38326
" /> 
<polyline style="fill-rule:evenodd;"
points="32650,37578
32138,37578
32138,37302
32650,37302
32650,37578
" /> 
<polyline style="fill-rule:evenodd;"
points="34150,38326
33638,38326
33638,38050
34150,38050
34150,38326
" /> 
<polyline style="fill-rule:evenodd;"
points="34150,37578
33638,37578
33638,37302
34150,37302
34150,37578
" /> 
<polyline style="fill-rule:evenodd;"
points="34150,31956
33638,31956
33638,31680
34150,31680
34150,31956
" /> 
<polyline style="fill-rule:evenodd;"
points="34150,31208
33638,31208
33638,30932
34150,30932
34150,31208
" /> 
<polyline style="fill-rule:evenodd;"
points="34150,26255
33638,26255
33638,25979
34150,25979
34150,26255
" /> 
<polyline style="fill-rule:evenodd;"
points="34150,25507
33638,25507
33638,25231
34150,25231
34150,25507
" /> 
<polyline style="fill-rule:evenodd;"
points="34150,20554
33638,20554
33638,20279
34150,20279
34150,20554
" /> 
<polyline style="fill-rule:evenodd;"
points="34150,19806
33638,19806
33638,19531
34150,19531
34150,19806
" /> 
<polyline style="fill-rule:evenodd;"
points="32650,20554
32138,20554
32138,20279
32650,20279
32650,20554
" /> 
<polyline style="fill-rule:evenodd;"
points="32650,19806
32138,19806
32138,19531
32650,19531
32650,19806
" /> 
<polyline style="fill-rule:evenodd;"
points="36638,37302
37150,37302
37150,37578
36638,37578
36638,37302
" /> 
<polyline style="fill-rule:evenodd;"
points="36638,38050
37150,38050
37150,38326
36638,38326
36638,38050
" /> 
<polyline style="fill-rule:evenodd;"
points="36638,30932
37150,30932
37150,31208
36638,31208
36638,30932
" /> 
<polyline style="fill-rule:evenodd;"
points="36638,31680
37150,31680
37150,31956
36638,31956
36638,31680
" /> 
<polyline style="fill-rule:evenodd;"
points="36638,25231
37150,25231
37150,25507
36638,25507
36638,25231
" /> 
<polyline style="fill-rule:evenodd;"
points="36638,25979
37150,25979
37150,26255
36638,26255
36638,25979
" /> 
<polyline style="fill-rule:evenodd;"
points="36638,19531
37150,19531
37150,19806
36638,19806
36638,19531
" /> 
<polyline style="fill-rule:evenodd;"
points="36638,20279
37150,20279
37150,20554
36638,20554
36638,20279
" /> 
<polyline style="fill-rule:evenodd;"
points="38650,38326
38138,38326
38138,38050
38650,38050
38650,38326
" /> 
<polyline style="fill-rule:evenodd;"
points="38650,37578
38138,37578
38138,37302
38650,37302
38650,37578
" /> 
<polyline style="fill-rule:evenodd;"
points="40150,38326
39638,38326
39638,38050
40150,38050
40150,38326
" /> 
<polyline style="fill-rule:evenodd;"
points="40150,37578
39638,37578
39638,37302
40150,37302
40150,37578
" /> 
<polyline style="fill-rule:evenodd;"
points="40150,31956
39638,31956
39638,31680
40150,31680
40150,31956
" /> 
<polyline style="fill-rule:evenodd;"
points="40150,31208
39638,31208
39638,30932
40150,30932
40150,31208
" /> 
<polyline style="fill-rule:evenodd;"
points="40150,26255
39638,26255
39638,25979
40150,25979
40150,26255
" /> 
<polyline style="fill-rule:evenodd;"
points="40150,25507
39638,25507
39638,25231
40150,25231
40150,25507
" /> 
<polyline style="fill-rule:evenodd;"
points="40150,20554
39638,20554
39638,20279
40150,20279
40150,20554
" /> 
<polyline style="fill-rule:evenodd;"
points="40150,19806
39638,19806
39638,19531
40150,19531
40150,19806
" /> 
<polyline style="fill-rule:evenodd;"
points="38650,20554
38138,20554
38138,20279
38650,20279
38650,20554
" /> 
<polyline style="fill-rule:evenodd;"
points="38650,19806
38138,19806
38138,19531
38650,19531
38650,19806
" /> 
<polyline style="fill-rule:evenodd;"
points="14650,31956
14138,31956
14138,31680
14650,31680
14650,31956
" /> 
<polyline style="fill-rule:evenodd;"
points="14650,31208
14138,31208
14138,30932
14650,30932
14650,31208
" /> 
<polyline style="fill-rule:evenodd;"
points="14650,26255
14138,26255
14138,25979
14650,25979
14650,26255
" /> 
<polyline style="fill-rule:evenodd;"
points="14650,25507
14138,25507
14138,25231
14650,25231
14650,25507
" /> 
<polyline style="fill-rule:evenodd;"
points="20650,31956
20138,31956
20138,31680
20650,31680
20650,31956
" /> 
<polyline style="fill-rule:evenodd;"
points="20650,31208
20138,31208
20138,30932
20650,30932
20650,31208
" /> 
<polyline style="fill-rule:evenodd;"
points="20649,26259
20137,26259
20137,25984
20649,25984
20649,26259
" /> 
<polyline style="fill-rule:evenodd;"
points="20649,25511
20137,25511
20137,25236
20649,25236
20649,25511
" /> 
<polyline style="fill-rule:evenodd;"
points="26650,31956
26138,31956
26138,31680
26650,31680
26650,31956
" /> 
<polyline style="fill-rule:evenodd;"
points="26650,31208
26138,31208
26138,30932
26650,30932
26650,31208
" /> 
<polyline style="fill-rule:evenodd;"
points="26650,26255
26138,26255
26138,25979
26650,25979
26650,26255
" /> 
<polyline style="fill-rule:evenodd;"
points="26650,25507
26138,25507
26138,25231
26650,25231
26650,25507
" /> 
<polyline style="fill-rule:evenodd;"
points="32650,31956
32138,31956
32138,31680
32650,31680
32650,31956
" /> 
<polyline style="fill-rule:evenodd;"
points="32650,31208
32138,31208
32138,30932
32650,30932
32650,31208
" /> 
<polyline style="fill-rule:evenodd;"
points="32650,26255
32138,26255
32138,25979
32650,25979
32650,26255
" /> 
<polyline style="fill-rule:evenodd;"
points="32650,25507
32138,25507
32138,25231
32650,25231
32650,25507
" /> 
<polyline style="fill-rule:evenodd;"
points="38650,31956
38138,31956
38138,31680
38650,31680
38650,31956
" /> 
<polyline style="fill-rule:evenodd;"
points="38650,31208
38138,31208
38138,30932
38650,30932
38650,31208
" /> 
<polyline style="fill-rule:evenodd;"
points="38650,26255
38138,26255
38138,25979
38650,25979
38650,26255
" /> 
<polyline style="fill-rule:evenodd;"
points="38650,25507
38138,25507
38138,25231
38650,25231
38650,25507
" /> 
<polyline style="fill-rule:evenodd;"
points="19370,39980
19370,40492
19212,40492
19212,39980
19370,39980
" /> 
<polyline style="fill-rule:evenodd;"
points="18425,39980
18425,40492
18267,40492
18267,39980
18425,39980
" /> 
<polyline style="fill-rule:evenodd;"
points="18897,39980
18897,40492
18740,40492
18740,39980
18897,39980
" /> 
<polyline style="fill-rule:evenodd;"
points="23494,41515
23986,41515
23986,41909
23494,41909
23494,41515
" /> 
<polyline style="fill-rule:evenodd;"
points="23494,42303
23986,42303
23986,42696
23494,42696
23494,42303
" /> 
<polyline style="fill-rule:evenodd;"
points="24386,41356
24386,40906
24586,40906
24586,41356
24386,41356
" /> 
<polyline style="fill-rule:evenodd;"
points="24886,41356
24886,40906
25086,40906
25086,41356
24886,41356
" /> 
<polyline style="fill-rule:evenodd;"
points="25386,41356
25386,40906
25586,40906
25586,41356
25386,41356
" /> 
<polyline style="fill-rule:evenodd;"
points="25886,41356
25886,40906
26086,40906
26086,41356
25886,41356
" /> 
<polyline style="fill-rule:evenodd;"
points="25886,43856
25886,43406
26086,43406
26086,43856
25886,43856
" /> 
<polyline style="fill-rule:evenodd;"
points="25386,43856
25386,43406
25586,43406
25586,43856
25386,43856
" /> 
<polyline style="fill-rule:evenodd;"
points="24886,43856
24886,43406
25086,43406
25086,43856
24886,43856
" /> 
<polyline style="fill-rule:evenodd;"
points="24386,43856
24386,43406
24586,43406
24586,43856
24386,43856
" /> 
<polyline style="fill-rule:evenodd;"
points="27716,43366
27716,43877
27440,43877
27440,43366
27716,43366
" /> 
<polyline style="fill-rule:evenodd;"
points="26968,43366
26968,43877
26692,43877
26692,43366
26968,43366
" /> 
<polyline style="fill-rule:evenodd;"
points="14340,44124
14340,43612
14616,43612
14616,44124
14340,44124
" /> 
<polyline style="fill-rule:evenodd;"
points="15088,44124
15088,43612
15364,43612
15364,44124
15088,44124
" /> 
<polyline style="fill-rule:evenodd;"
points="14350,44931
14350,44419
14625,44419
14625,44931
14350,44931
" /> 
<polyline style="fill-rule:evenodd;"
points="15098,44931
15098,44419
15374,44419
15374,44931
15098,44931
" /> 
<polyline style="fill-rule:evenodd;"
points="13159,44124
13159,43612
13435,43612
13435,44124
13159,44124
" /> 
<polyline style="fill-rule:evenodd;"
points="13907,44124
13907,43612
14183,43612
14183,44124
13907,44124
" /> 
<polyline style="fill-rule:evenodd;"
points="13159,44931
13159,44419
13435,44419
13435,44931
13159,44931
" /> 
<polyline style="fill-rule:evenodd;"
points="13907,44931
13907,44419
14183,44419
14183,44931
13907,44931
" /> 
<polyline style="fill-rule:evenodd;"
points="37744,11920
37744,11470
38034,11470
38034,11920
37744,11920
" /> 
<polyline style="fill-rule:evenodd;"
points="37744,12520
37744,12070
38034,12070
38034,12520
37744,12520
" /> 
<polyline style="fill-rule:evenodd;"
points="37244,11920
37244,11470
37534,11470
37534,11920
37244,11920
" /> 
<polyline style="fill-rule:evenodd;"
points="37244,12520
37244,12070
37534,12070
37534,12520
37244,12520
" /> 
<polyline style="fill-rule:evenodd;"
points="36744,11920
36744,11470
37034,11470
37034,11920
36744,11920
" /> 
<polyline style="fill-rule:evenodd;"
points="36744,12520
36744,12070
37034,12070
37034,12520
36744,12520
" /> 
<polyline style="fill-rule:evenodd;"
points="36244,11920
36244,11470
36534,11470
36534,11920
36244,11920
" /> 
<polyline style="fill-rule:evenodd;"
points="36244,12520
36244,12070
36534,12070
36534,12520
36244,12520
" /> 
<polyline style="fill-rule:evenodd;"
points="35744,11920
35744,11470
36034,11470
36034,11920
35744,11920
" /> 
<polyline style="fill-rule:evenodd;"
points="35744,12520
35744,12070
36034,12070
36034,12520
35744,12520
" /> 
<polyline style="fill-rule:evenodd;"
points="35244,11920
35244,11470
35534,11470
35534,11920
35244,11920
" /> 
<polyline style="fill-rule:evenodd;"
points="35244,12520
35244,12070
35534,12070
35534,12520
35244,12520
" /> 
<polyline style="fill-rule:evenodd;"
points="34744,11920
34744,11470
35034,11470
35034,11920
34744,11920
" /> 
<polyline style="fill-rule:evenodd;"
points="34744,12520
34744,12070
35034,12070
35034,12520
34744,12520
" /> 
<polyline style="fill-rule:evenodd;"
points="34244,11920
34244,11470
34534,11470
34534,11920
34244,11920
" /> 
<polyline style="fill-rule:evenodd;"
points="34244,12520
34244,12070
34534,12070
34534,12520
34244,12520
" /> 
<polyline style="fill-rule:evenodd;"
points="33744,11920
33744,11470
34034,11470
34034,11920
33744,11920
" /> 
<polyline style="fill-rule:evenodd;"
points="33744,12520
33744,12070
34034,12070
34034,12520
33744,12520
" /> 
<polyline style="fill-rule:evenodd;"
points="33244,11920
33244,11470
33534,11470
33534,11920
33244,11920
" /> 
<polyline style="fill-rule:evenodd;"
points="33244,12520
33244,12070
33534,12070
33534,12520
33244,12520
" /> 
<polyline style="fill-rule:evenodd;"
points="32744,11920
32744,11470
33034,11470
33034,11920
32744,11920
" /> 
<polyline style="fill-rule:evenodd;"
points="32744,12520
32744,12070
33034,12070
33034,12520
32744,12520
" /> 
<polyline style="fill-rule:evenodd;"
points="32244,11920
32244,11470
32534,11470
32534,11920
32244,11920
" /> 
<polyline style="fill-rule:evenodd;"
points="32244,12520
32244,12070
32534,12070
32534,12520
32244,12520
" /> 
<polyline style="fill-rule:evenodd;"
points="31744,11920
31744,11470
32034,11470
32034,11920
31744,11920
" /> 
<polyline style="fill-rule:evenodd;"
points="31744,12520
31744,12070
32034,12070
32034,12520
31744,12520
" /> 
<polyline style="fill-rule:evenodd;"
points="31244,11920
31244,11470
31534,11470
31534,11920
31244,11920
" /> 
<polyline style="fill-rule:evenodd;"
points="31244,12520
31244,12070
31534,12070
31534,12520
31244,12520
" /> 
<polyline style="fill-rule:evenodd;"
points="30744,11920
30744,11470
31034,11470
31034,11920
30744,11920
" /> 
<polyline style="fill-rule:evenodd;"
points="30744,12520
30744,12070
31034,12070
31034,12520
30744,12520
" /> 
<polyline style="fill-rule:evenodd;"
points="30244,11920
30244,11470
30534,11470
30534,11920
30244,11920
" /> 
<polyline style="fill-rule:evenodd;"
points="30244,12520
30244,12070
30534,12070
30534,12520
30244,12520
" /> 
<polyline style="fill-rule:evenodd;"
points="29744,11920
29744,11470
30034,11470
30034,11920
29744,11920
" /> 
<polyline style="fill-rule:evenodd;"
points="29744,12520
29744,12070
30034,12070
30034,12520
29744,12520
" /> 
<polyline style="fill-rule:evenodd;"
points="29244,11920
29244,11470
29534,11470
29534,11920
29244,11920
" /> 
<polyline style="fill-rule:evenodd;"
points="29244,12520
29244,12070
29534,12070
29534,12520
29244,12520
" /> 
<polyline style="fill-rule:evenodd;"
points="28744,11920
28744,11470
29034,11470
29034,11920
28744,11920
" /> 
<polyline style="fill-rule:evenodd;"
points="28744,12520
28744,12070
29034,12070
29034,12520
28744,12520
" /> 
<polyline style="fill-rule:evenodd;"
points="28244,11920
28244,11470
28534,11470
28534,11920
28244,11920
" /> 
<polyline style="fill-rule:evenodd;"
points="28244,12520
28244,12070
28534,12070
28534,12520
28244,12520
" /> 
<polyline style="fill-rule:evenodd;"
points="27744,11920
27744,11470
28034,11470
28034,11920
27744,11920
" /> 
<polyline style="fill-rule:evenodd;"
points="27744,12520
27744,12070
28034,12070
28034,12520
27744,12520
" /> 
<polyline style="fill-rule:evenodd;"
points="27244,11920
27244,11470
27534,11470
27534,11920
27244,11920
" /> 
<polyline style="fill-rule:evenodd;"
points="27244,12520
27244,12070
27534,12070
27534,12520
27244,12520
" /> 
<polyline style="fill-rule:evenodd;"
points="26744,11920
26744,11470
27034,11470
27034,11920
26744,11920
" /> 
<polyline style="fill-rule:evenodd;"
points="26744,12520
26744,12070
27034,12070
27034,12520
26744,12520
" /> 
<polyline style="fill-rule:evenodd;"
points="26244,11920
26244,11470
26534,11470
26534,11920
26244,11920
" /> 
<polyline style="fill-rule:evenodd;"
points="26244,12520
26244,12070
26534,12070
26534,12520
26244,12520
" /> 
<polyline style="fill-rule:evenodd;"
points="25744,11920
25744,11470
26034,11470
26034,11920
25744,11920
" /> 
<polyline style="fill-rule:evenodd;"
points="25744,12520
25744,12070
26034,12070
26034,12520
25744,12520
" /> 
<circle cx="38909.8" cy="9635.12" r="250" /> 
</g>
<g style="fill:#000000; fill-opacity:1.0; 
stroke:#000000; stroke-width:39.3701; stroke-opacity:1; 
stroke-linecap:round; stroke-linejoin:round;">
</g>
<g style="fill:#000000; fill-opacity:1.0; 
stroke:#000000; stroke-width:0; stroke-opacity:1; 
stroke-linecap:round; stroke-linejoin:round;">
<circle cx="24869.8" cy="9635.12" r="250" /> 
</g>
<g style="fill:#000000; fill-opacity:1.0; 
stroke:#000000; stroke-width:39.3701; stroke-opacity:1; 
stroke-linecap:round; stroke-linejoin:round;">
</g>
<g style="fill:#000000; fill-opacity:1.0; 
stroke:#000000; stroke-width:0; stroke-opacity:1; 
stroke-linecap:round; stroke-linejoin:round;">
<circle cx="38909.8" cy="10525.1" r="250" /> 
</g>
<g style="fill:#000000; fill-opacity:1.0; 
stroke:#000000; stroke-width:39.3701; stroke-opacity:1; 
stroke-linecap:round; stroke-linejoin:round;">
</g>
<g style="fill:#000000; fill-opacity:1.0; 
stroke:#000000; stroke-width:0; stroke-opacity:1; 
stroke-linecap:round; stroke-linejoin:round;">
<circle cx="24869.8" cy="10525.1" r="250" /> 
</g>
<g style="fill:#000000; fill-opacity:1.0; 
stroke:#000000; stroke-width:39.3701; stroke-opacity:1; 
stroke-linecap:round; stroke-linejoin:round;">
</g>
<g style="fill:#000000; fill-opacity:1.0; 
stroke:#000000; stroke-width:0; stroke-opacity:1; 
stroke-linecap:round; stroke-linejoin:round;">
<polyline style="fill-rule:evenodd;"
points="40393,39084
40905,39084
40905,39360
40393,39360
40393,39084
" /> 
<polyline style="fill-rule:evenodd;"
points="40393,39832
40905,39832
40905,40108
40393,40108
40393,39832
" /> 
</g> 
</svg>
