<?xml version="1.0" standalone="no"?>
 <!DOCTYPE svg PUBLIC "-//W3C//DTD SVG 1.1//EN" 
 "http://www.w3.org/Graphics/SVG/1.1/DTD/svg11.dtd"> 
<svg xmlns="http://www.w3.org/2000/svg" version="1.1" 
    width="27.94cm" height="21.59cm" viewBox="0 0 110000 85000 ">
<title>SVG Picture created as 40-channel HV switching board-B.Mask.svg date 2016/11/30 23:41:24 </title>
  <desc>Picture generated by PCBNEW </desc>
<g style="fill:#000000; fill-opacity:1;stroke:#000000; stroke-opacity:1;
stroke-linecap:round; stroke-linejoin:round; "
 transform="translate(0 0) scale(1 1)">
</g>
<g style="fill:#000000; fill-opacity:0.0; 
stroke:#000000; stroke-width:-0.000393701; stroke-opacity:1; 
stroke-linecap:round; stroke-linejoin:round;">
</g>
<g style="fill:#000000; fill-opacity:0.0; 
stroke:#000000; stroke-width:39.3701; stroke-opacity:1; 
stroke-linecap:round; stroke-linejoin:round;">
</g>
<g style="fill:#000000; fill-opacity:0.0; 
stroke:#000000; stroke-width:59.0551; stroke-opacity:1; 
stroke-linecap:round; stroke-linejoin:round;">
<rect x="62755.9" y="67677.2" width="42519.7" height="12598.4" rx="0" />
</g>
<g style="fill:#000000; fill-opacity:0.0; 
stroke:#000000; stroke-width:39.3701; stroke-opacity:1; 
stroke-linecap:round; stroke-linejoin:round;">
</g>
<g style="fill:#000000; fill-opacity:0.0; 
stroke:#000000; stroke-width:59.0551; stroke-opacity:1; 
stroke-linecap:round; stroke-linejoin:round;">
<rect x="3937.01" y="3937.01" width="102126" height="77126" rx="0" />
</g>
<g style="fill:#000000; fill-opacity:0.0; 
stroke:#000000; stroke-width:39.3701; stroke-opacity:1; 
stroke-linecap:round; stroke-linejoin:round;">
</g>
<g style="fill:#000000; fill-opacity:0.0; 
stroke:#000000; stroke-width:59.0551; stroke-opacity:1; 
stroke-linecap:round; stroke-linejoin:round;">
<rect x="4724.41" y="4724.41" width="100551" height="75551.2" rx="0" />
</g>
<g style="fill:#000000; fill-opacity:0.0; 
stroke:#000000; stroke-width:39.3701; stroke-opacity:1; 
stroke-linecap:round; stroke-linejoin:round;">
</g>
<g style="fill:#000000; fill-opacity:0.0; 
stroke:#000000; stroke-width:59.0551; stroke-opacity:1; 
stroke-linecap:round; stroke-linejoin:round;">
<path d="M23622 4724
L23622 3937
" />
</g>
<g style="fill:#000000; fill-opacity:0.0; 
stroke:#000000; stroke-width:39.3701; stroke-opacity:1; 
stroke-linecap:round; stroke-linejoin:round;">
</g>
<g style="fill:#000000; fill-opacity:0.0; 
stroke:#000000; stroke-width:59.0551; stroke-opacity:1; 
stroke-linecap:round; stroke-linejoin:round;">
<path d="M43307 4724
L43307 3937
" />
</g>
<g style="fill:#000000; fill-opacity:0.0; 
stroke:#000000; stroke-width:39.3701; stroke-opacity:1; 
stroke-linecap:round; stroke-linejoin:round;">
</g>
<g style="fill:#000000; fill-opacity:0.0; 
stroke:#000000; stroke-width:59.0551; stroke-opacity:1; 
stroke-linecap:round; stroke-linejoin:round;">
<path d="M62992 4724
L62992 3937
" />
</g>
<g style="fill:#000000; fill-opacity:0.0; 
stroke:#000000; stroke-width:39.3701; stroke-opacity:1; 
stroke-linecap:round; stroke-linejoin:round;">
</g>
<g style="fill:#000000; fill-opacity:0.0; 
stroke:#000000; stroke-width:59.0551; stroke-opacity:1; 
stroke-linecap:round; stroke-linejoin:round;">
<path d="M82677 4724
L82677 3937
" />
</g>
<g style="fill:#000000; fill-opacity:0.0; 
stroke:#000000; stroke-width:39.3701; stroke-opacity:1; 
stroke-linecap:round; stroke-linejoin:round;">
</g>
<g style="fill:#000000; fill-opacity:0.0; 
stroke:#000000; stroke-width:59.0551; stroke-opacity:1; 
stroke-linecap:round; stroke-linejoin:round;">
<path d="M102362 4724
L102362 3937
" />
</g>
<g style="fill:#000000; fill-opacity:0.0; 
stroke:#000000; stroke-width:39.3701; stroke-opacity:1; 
stroke-linecap:round; stroke-linejoin:round;">
</g>
<g style="fill:#000000; fill-opacity:0.0; 
stroke:#000000; stroke-width:59.0551; stroke-opacity:1; 
stroke-linecap:round; stroke-linejoin:round;">
<path d="M14169 4562
L13877 4562
" />
<path d="M14023 4562
L14023 4050
L13974 4123
L13925 4172
L13877 4196
" />
</g>
<g style="fill:#000000; fill-opacity:0.0; 
stroke:#000000; stroke-width:39.3701; stroke-opacity:1; 
stroke-linecap:round; stroke-linejoin:round;">
</g>
<g style="fill:#000000; fill-opacity:0.0; 
stroke:#000000; stroke-width:59.0551; stroke-opacity:1; 
stroke-linecap:round; stroke-linejoin:round;">
<path d="M33562 4099
L33586 4074
L33635 4050
L33757 4050
L33805 4074
L33830 4099
L33854 4147
L33854 4196
L33830 4269
L33537 4562
L33854 4562
" />
</g>
<g style="fill:#000000; fill-opacity:0.0; 
stroke:#000000; stroke-width:39.3701; stroke-opacity:1; 
stroke-linecap:round; stroke-linejoin:round;">
</g>
<g style="fill:#000000; fill-opacity:0.0; 
stroke:#000000; stroke-width:59.0551; stroke-opacity:1; 
stroke-linecap:round; stroke-linejoin:round;">
<path d="M53222 4050
L53539 4050
L53368 4245
L53442 4245
L53490 4269
L53515 4294
L53539 4342
L53539 4464
L53515 4513
L53490 4537
L53442 4562
L53295 4562
L53247 4537
L53222 4513
" />
</g>
<g style="fill:#000000; fill-opacity:0.0; 
stroke:#000000; stroke-width:39.3701; stroke-opacity:1; 
stroke-linecap:round; stroke-linejoin:round;">
</g>
<g style="fill:#000000; fill-opacity:0.0; 
stroke:#000000; stroke-width:59.0551; stroke-opacity:1; 
stroke-linecap:round; stroke-linejoin:round;">
<path d="M73175 4221
L73175 4562
" />
<path d="M73053 4026
L72932 4391
L73248 4391
" />
</g>
<g style="fill:#000000; fill-opacity:0.0; 
stroke:#000000; stroke-width:39.3701; stroke-opacity:1; 
stroke-linecap:round; stroke-linejoin:round;">
</g>
<g style="fill:#000000; fill-opacity:0.0; 
stroke:#000000; stroke-width:59.0551; stroke-opacity:1; 
stroke-linecap:round; stroke-linejoin:round;">
<path d="M92885 4050
L92641 4050
L92617 4294
L92641 4269
L92690 4245
L92812 4245
L92860 4269
L92885 4294
L92909 4342
L92909 4464
L92885 4513
L92860 4537
L92812 4562
L92690 4562
L92641 4537
L92617 4513
" />
</g>
<g style="fill:#000000; fill-opacity:0.0; 
stroke:#000000; stroke-width:39.3701; stroke-opacity:1; 
stroke-linecap:round; stroke-linejoin:round;">
</g>
<g style="fill:#000000; fill-opacity:0.0; 
stroke:#000000; stroke-width:59.0551; stroke-opacity:1; 
stroke-linecap:round; stroke-linejoin:round;">
<path d="M23622 80275
L23622 81062
" />
</g>
<g style="fill:#000000; fill-opacity:0.0; 
stroke:#000000; stroke-width:39.3701; stroke-opacity:1; 
stroke-linecap:round; stroke-linejoin:round;">
</g>
<g style="fill:#000000; fill-opacity:0.0; 
stroke:#000000; stroke-width:59.0551; stroke-opacity:1; 
stroke-linecap:round; stroke-linejoin:round;">
<path d="M43307 80275
L43307 81062
" />
</g>
<g style="fill:#000000; fill-opacity:0.0; 
stroke:#000000; stroke-width:39.3701; stroke-opacity:1; 
stroke-linecap:round; stroke-linejoin:round;">
</g>
<g style="fill:#000000; fill-opacity:0.0; 
stroke:#000000; stroke-width:59.0551; stroke-opacity:1; 
stroke-linecap:round; stroke-linejoin:round;">
<path d="M62992 80275
L62992 81062
" />
</g>
<g style="fill:#000000; fill-opacity:0.0; 
stroke:#000000; stroke-width:39.3701; stroke-opacity:1; 
stroke-linecap:round; stroke-linejoin:round;">
</g>
<g style="fill:#000000; fill-opacity:0.0; 
stroke:#000000; stroke-width:59.0551; stroke-opacity:1; 
stroke-linecap:round; stroke-linejoin:round;">
<path d="M82677 80275
L82677 81062
" />
</g>
<g style="fill:#000000; fill-opacity:0.0; 
stroke:#000000; stroke-width:39.3701; stroke-opacity:1; 
stroke-linecap:round; stroke-linejoin:round;">
</g>
<g style="fill:#000000; fill-opacity:0.0; 
stroke:#000000; stroke-width:59.0551; stroke-opacity:1; 
stroke-linecap:round; stroke-linejoin:round;">
<path d="M102362 80275
L102362 81062
" />
</g>
<g style="fill:#000000; fill-opacity:0.0; 
stroke:#000000; stroke-width:39.3701; stroke-opacity:1; 
stroke-linecap:round; stroke-linejoin:round;">
</g>
<g style="fill:#000000; fill-opacity:0.0; 
stroke:#000000; stroke-width:59.0551; stroke-opacity:1; 
stroke-linecap:round; stroke-linejoin:round;">
<path d="M14169 80900
L13877 80900
" />
<path d="M14023 80900
L14023 80389
L13974 80462
L13925 80510
L13877 80535
" />
</g>
<g style="fill:#000000; fill-opacity:0.0; 
stroke:#000000; stroke-width:39.3701; stroke-opacity:1; 
stroke-linecap:round; stroke-linejoin:round;">
</g>
<g style="fill:#000000; fill-opacity:0.0; 
stroke:#000000; stroke-width:59.0551; stroke-opacity:1; 
stroke-linecap:round; stroke-linejoin:round;">
<path d="M33562 80437
L33586 80413
L33635 80389
L33757 80389
L33805 80413
L33830 80437
L33854 80486
L33854 80535
L33830 80608
L33537 80900
L33854 80900
" />
</g>
<g style="fill:#000000; fill-opacity:0.0; 
stroke:#000000; stroke-width:39.3701; stroke-opacity:1; 
stroke-linecap:round; stroke-linejoin:round;">
</g>
<g style="fill:#000000; fill-opacity:0.0; 
stroke:#000000; stroke-width:59.0551; stroke-opacity:1; 
stroke-linecap:round; stroke-linejoin:round;">
<path d="M53222 80389
L53539 80389
L53368 80583
L53442 80583
L53490 80608
L53515 80632
L53539 80681
L53539 80803
L53515 80852
L53490 80876
L53442 80900
L53295 80900
L53247 80876
L53222 80852
" />
</g>
<g style="fill:#000000; fill-opacity:0.0; 
stroke:#000000; stroke-width:39.3701; stroke-opacity:1; 
stroke-linecap:round; stroke-linejoin:round;">
</g>
<g style="fill:#000000; fill-opacity:0.0; 
stroke:#000000; stroke-width:59.0551; stroke-opacity:1; 
stroke-linecap:round; stroke-linejoin:round;">
<path d="M73175 80559
L73175 80900
" />
<path d="M73053 80364
L72932 80730
L73248 80730
" />
</g>
<g style="fill:#000000; fill-opacity:0.0; 
stroke:#000000; stroke-width:39.3701; stroke-opacity:1; 
stroke-linecap:round; stroke-linejoin:round;">
</g>
<g style="fill:#000000; fill-opacity:0.0; 
stroke:#000000; stroke-width:59.0551; stroke-opacity:1; 
stroke-linecap:round; stroke-linejoin:round;">
<path d="M92885 80389
L92641 80389
L92617 80632
L92641 80608
L92690 80583
L92812 80583
L92860 80608
L92885 80632
L92909 80681
L92909 80803
L92885 80852
L92860 80876
L92812 80900
L92690 80900
L92641 80876
L92617 80852
" />
</g>
<g style="fill:#000000; fill-opacity:0.0; 
stroke:#000000; stroke-width:39.3701; stroke-opacity:1; 
stroke-linecap:round; stroke-linejoin:round;">
</g>
<g style="fill:#000000; fill-opacity:0.0; 
stroke:#000000; stroke-width:59.0551; stroke-opacity:1; 
stroke-linecap:round; stroke-linejoin:round;">
<path d="M3937 23622
L4724 23622
" />
</g>
<g style="fill:#000000; fill-opacity:0.0; 
stroke:#000000; stroke-width:39.3701; stroke-opacity:1; 
stroke-linecap:round; stroke-linejoin:round;">
</g>
<g style="fill:#000000; fill-opacity:0.0; 
stroke:#000000; stroke-width:59.0551; stroke-opacity:1; 
stroke-linecap:round; stroke-linejoin:round;">
<path d="M3937 43307
L4724 43307
" />
</g>
<g style="fill:#000000; fill-opacity:0.0; 
stroke:#000000; stroke-width:39.3701; stroke-opacity:1; 
stroke-linecap:round; stroke-linejoin:round;">
</g>
<g style="fill:#000000; fill-opacity:0.0; 
stroke:#000000; stroke-width:59.0551; stroke-opacity:1; 
stroke-linecap:round; stroke-linejoin:round;">
<path d="M3937 62992
L4724 62992
" />
</g>
<g style="fill:#000000; fill-opacity:0.0; 
stroke:#000000; stroke-width:39.3701; stroke-opacity:1; 
stroke-linecap:round; stroke-linejoin:round;">
</g>
<g style="fill:#000000; fill-opacity:0.0; 
stroke:#000000; stroke-width:59.0551; stroke-opacity:1; 
stroke-linecap:round; stroke-linejoin:round;">
<path d="M4208 13864
L4452 13864
" />
<path d="M4160 14011
L4330 13499
L4501 14011
" />
</g>
<g style="fill:#000000; fill-opacity:0.0; 
stroke:#000000; stroke-width:39.3701; stroke-opacity:1; 
stroke-linecap:round; stroke-linejoin:round;">
</g>
<g style="fill:#000000; fill-opacity:0.0; 
stroke:#000000; stroke-width:59.0551; stroke-opacity:1; 
stroke-linecap:round; stroke-linejoin:round;">
<path d="M4367 33428
L4440 33452
L4464 33476
L4489 33525
L4489 33598
L4464 33647
L4440 33671
L4391 33696
L4196 33696
L4196 33184
L4367 33184
L4416 33208
L4440 33233
L4464 33281
L4464 33330
L4440 33379
L4416 33403
L4367 33428
L4196 33428
" />
</g>
<g style="fill:#000000; fill-opacity:0.0; 
stroke:#000000; stroke-width:39.3701; stroke-opacity:1; 
stroke-linecap:round; stroke-linejoin:round;">
</g>
<g style="fill:#000000; fill-opacity:0.0; 
stroke:#000000; stroke-width:59.0551; stroke-opacity:1; 
stroke-linecap:round; stroke-linejoin:round;">
<path d="M4489 53332
L4464 53356
L4391 53381
L4342 53381
L4269 53356
L4221 53308
L4196 53259
L4172 53161
L4172 53088
L4196 52991
L4221 52942
L4269 52893
L4342 52869
L4391 52869
L4464 52893
L4489 52918
" />
</g>
<g style="fill:#000000; fill-opacity:0.0; 
stroke:#000000; stroke-width:39.3701; stroke-opacity:1; 
stroke-linecap:round; stroke-linejoin:round;">
</g>
<g style="fill:#000000; fill-opacity:0.0; 
stroke:#000000; stroke-width:59.0551; stroke-opacity:1; 
stroke-linecap:round; stroke-linejoin:round;">
<path d="M4196 73066
L4196 72554
L4318 72554
L4391 72578
L4440 72627
L4464 72676
L4489 72773
L4489 72846
L4464 72944
L4440 72993
L4391 73041
L4318 73066
L4196 73066
" />
</g>
<g style="fill:#000000; fill-opacity:0.0; 
stroke:#000000; stroke-width:39.3701; stroke-opacity:1; 
stroke-linecap:round; stroke-linejoin:round;">
</g>
<g style="fill:#000000; fill-opacity:0.0; 
stroke:#000000; stroke-width:59.0551; stroke-opacity:1; 
stroke-linecap:round; stroke-linejoin:round;">
<path d="M106062 23622
L105275 23622
" />
</g>
<g style="fill:#000000; fill-opacity:0.0; 
stroke:#000000; stroke-width:39.3701; stroke-opacity:1; 
stroke-linecap:round; stroke-linejoin:round;">
</g>
<g style="fill:#000000; fill-opacity:0.0; 
stroke:#000000; stroke-width:59.0551; stroke-opacity:1; 
stroke-linecap:round; stroke-linejoin:round;">
<path d="M106062 43307
L105275 43307
" />
</g>
<g style="fill:#000000; fill-opacity:0.0; 
stroke:#000000; stroke-width:39.3701; stroke-opacity:1; 
stroke-linecap:round; stroke-linejoin:round;">
</g>
<g style="fill:#000000; fill-opacity:0.0; 
stroke:#000000; stroke-width:59.0551; stroke-opacity:1; 
stroke-linecap:round; stroke-linejoin:round;">
<path d="M106062 62992
L105275 62992
" />
</g>
<g style="fill:#000000; fill-opacity:0.0; 
stroke:#000000; stroke-width:39.3701; stroke-opacity:1; 
stroke-linecap:round; stroke-linejoin:round;">
</g>
<g style="fill:#000000; fill-opacity:0.0; 
stroke:#000000; stroke-width:59.0551; stroke-opacity:1; 
stroke-linecap:round; stroke-linejoin:round;">
<path d="M105547 13864
L105791 13864
" />
<path d="M105498 14011
L105669 13499
L105839 14011
" />
</g>
<g style="fill:#000000; fill-opacity:0.0; 
stroke:#000000; stroke-width:39.3701; stroke-opacity:1; 
stroke-linecap:round; stroke-linejoin:round;">
</g>
<g style="fill:#000000; fill-opacity:0.0; 
stroke:#000000; stroke-width:59.0551; stroke-opacity:1; 
stroke-linecap:round; stroke-linejoin:round;">
<path d="M105705 33428
L105778 33452
L105803 33476
L105827 33525
L105827 33598
L105803 33647
L105778 33671
L105730 33696
L105535 33696
L105535 33184
L105705 33184
L105754 33208
L105778 33233
L105803 33281
L105803 33330
L105778 33379
L105754 33403
L105705 33428
L105535 33428
" />
</g>
<g style="fill:#000000; fill-opacity:0.0; 
stroke:#000000; stroke-width:39.3701; stroke-opacity:1; 
stroke-linecap:round; stroke-linejoin:round;">
</g>
<g style="fill:#000000; fill-opacity:0.0; 
stroke:#000000; stroke-width:59.0551; stroke-opacity:1; 
stroke-linecap:round; stroke-linejoin:round;">
<path d="M105827 53332
L105803 53356
L105730 53381
L105681 53381
L105608 53356
L105559 53308
L105535 53259
L105510 53161
L105510 53088
L105535 52991
L105559 52942
L105608 52893
L105681 52869
L105730 52869
L105803 52893
L105827 52918
" />
</g>
<g style="fill:#000000; fill-opacity:0.0; 
stroke:#000000; stroke-width:39.3701; stroke-opacity:1; 
stroke-linecap:round; stroke-linejoin:round;">
</g>
<g style="fill:#000000; fill-opacity:0.0; 
stroke:#000000; stroke-width:59.0551; stroke-opacity:1; 
stroke-linecap:round; stroke-linejoin:round;">
<path d="M105535 73066
L105535 72554
L105657 72554
L105730 72578
L105778 72627
L105803 72676
L105827 72773
L105827 72846
L105803 72944
L105778 72993
L105730 73041
L105657 73066
L105535 73066
" />
</g>
<g style="fill:#000000; fill-opacity:0.0; 
stroke:#000000; stroke-width:39.3701; stroke-opacity:1; 
stroke-linecap:round; stroke-linejoin:round;">
</g>
<g style="fill:#000000; fill-opacity:0.0; 
stroke:#000000; stroke-width:59.0551; stroke-opacity:1; 
stroke-linecap:round; stroke-linejoin:round;">
<path d="M71951 78613
L71951 78023
L72092 78023
L72176 78051
L72232 78107
L72260 78163
L72289 78276
L72289 78360
L72260 78473
L72232 78529
L72176 78585
L72092 78613
L71951 78613
" />
<path d="M72795 78613
L72795 78304
L72767 78248
L72710 78219
L72598 78219
L72542 78248
" />
<path d="M72795 78585
L72739 78613
L72598 78613
L72542 78585
L72514 78529
L72514 78473
L72542 78416
L72598 78388
L72739 78388
L72795 78360
" />
<path d="M72992 78219
L73217 78219
" />
<path d="M73076 78023
L73076 78529
L73104 78585
L73160 78613
L73217 78613
" />
<path d="M73638 78585
L73582 78613
L73470 78613
L73413 78585
L73385 78529
L73385 78304
L73413 78248
L73470 78219
L73582 78219
L73638 78248
L73667 78304
L73667 78360
L73385 78416
" />
<path d="M73920 78557
L73948 78585
L73920 78613
L73892 78585
L73920 78557
L73920 78613
" />
<path d="M73920 78248
L73948 78276
L73920 78304
L73892 78276
L73920 78248
L73920 78304
" />
<path d="M74623 78079
L74651 78051
L74707 78023
L74848 78023
L74904 78051
L74932 78079
L74960 78135
L74960 78191
L74932 78276
L74595 78613
L74960 78613
" />
<path d="M75326 78023
L75382 78023
L75438 78051
L75466 78079
L75494 78135
L75523 78248
L75523 78388
L75494 78501
L75466 78557
L75438 78585
L75382 78613
L75326 78613
L75269 78585
L75241 78557
L75213 78501
L75185 78388
L75185 78248
L75213 78135
L75241 78079
L75269 78051
L75326 78023
" />
<path d="M76085 78613
L75748 78613
" />
<path d="M75916 78613
L75916 78023
L75860 78107
L75804 78163
L75748 78191
" />
<path d="M76591 78023
L76479 78023
L76422 78051
L76394 78079
L76338 78163
L76310 78276
L76310 78501
L76338 78557
L76366 78585
L76422 78613
L76535 78613
L76591 78585
L76619 78557
L76647 78501
L76647 78360
L76619 78304
L76591 78276
L76535 78248
L76422 78248
L76366 78276
L76338 78304
L76310 78360
" />
<path d="M76901 78388
L77350 78388
" />
<path d="M77941 78613
L77604 78613
" />
<path d="M77772 78613
L77772 78023
L77716 78107
L77660 78163
L77604 78191
" />
<path d="M78503 78613
L78166 78613
" />
<path d="M78335 78613
L78335 78023
L78278 78107
L78222 78163
L78166 78191
" />
<path d="M78757 78388
L79206 78388
" />
<path d="M79431 78023
L79797 78023
L79600 78248
L79685 78248
L79741 78276
L79769 78304
L79797 78360
L79797 78501
L79769 78557
L79741 78585
L79685 78613
L79516 78613
L79460 78585
L79431 78557
" />
<path d="M80163 78023
L80219 78023
L80275 78051
L80303 78079
L80331 78135
L80359 78248
L80359 78388
L80331 78501
L80303 78557
L80275 78585
L80219 78613
L80163 78613
L80106 78585
L80078 78557
L80050 78501
L80022 78388
L80022 78248
L80050 78135
L80078 78079
L80106 78051
L80163 78023
" />
</g>
<g style="fill:#000000; fill-opacity:0.0; 
stroke:#000000; stroke-width:39.3701; stroke-opacity:1; 
stroke-linecap:round; stroke-linejoin:round;">
</g>
<g style="fill:#000000; fill-opacity:0.0; 
stroke:#000000; stroke-width:59.0551; stroke-opacity:1; 
stroke-linecap:round; stroke-linejoin:round;">
<path d="M62755 78897
L105275 78897
" />
</g>
<g style="fill:#000000; fill-opacity:0.0; 
stroke:#000000; stroke-width:39.3701; stroke-opacity:1; 
stroke-linecap:round; stroke-linejoin:round;">
</g>
<g style="fill:#000000; fill-opacity:0.0; 
stroke:#000000; stroke-width:59.0551; stroke-opacity:1; 
stroke-linecap:round; stroke-linejoin:round;">
<path d="M63290 79715
L63290 79125
" />
<path d="M63627 79715
L63374 79378
" />
<path d="M63627 79125
L63290 79462
" />
<path d="M63880 79715
L63880 79322
" />
<path d="M63880 79125
L63852 79153
L63880 79181
L63908 79153
L63880 79125
L63880 79181
" />
<path d="M64499 79659
L64471 79687
L64386 79715
L64330 79715
L64246 79687
L64190 79631
L64161 79575
L64133 79462
L64133 79378
L64161 79266
L64190 79209
L64246 79153
L64330 79125
L64386 79125
L64471 79153
L64499 79181
" />
<path d="M65005 79715
L65005 79406
L64977 79350
L64921 79322
L64808 79322
L64752 79350
" />
<path d="M65005 79687
L64949 79715
L64808 79715
L64752 79687
L64724 79631
L64724 79575
L64752 79519
L64808 79491
L64949 79491
L65005 79462
" />
<path d="M65539 79715
L65539 79125
" />
<path d="M65539 79687
L65483 79715
L65371 79715
L65314 79687
L65286 79659
L65258 79603
L65258 79434
L65286 79378
L65314 79350
L65371 79322
L65483 79322
L65539 79350
" />
<path d="M66271 79406
L66467 79406
" />
<path d="M66552 79715
L66271 79715
L66271 79125
L66552 79125
" />
<path d="M66805 79659
L66833 79687
L66805 79715
L66777 79687
L66805 79659
L66805 79715
" />
<path d="M67086 79715
L67086 79125
L67227 79125
L67311 79153
L67367 79209
L67395 79266
L67424 79378
L67424 79462
L67395 79575
L67367 79631
L67311 79687
L67227 79715
L67086 79715
" />
<path d="M67677 79659
L67705 79687
L67677 79715
L67649 79687
L67677 79659
L67677 79715
" />
<path d="M67930 79547
L68211 79547
" />
<path d="M67874 79715
L68070 79125
L68267 79715
" />
<path d="M68464 79659
L68492 79687
L68464 79715
L68436 79687
L68464 79659
L68464 79715
" />
<path d="M69645 79715
L69645 79125
" />
<path d="M69701 79491
L69870 79715
" />
<path d="M69870 79322
L69645 79547
" />
<path d="M70123 79715
L70123 79322
" />
<path d="M70123 79125
L70095 79153
L70123 79181
L70151 79153
L70123 79125
L70123 79181
" />
<path d="M70658 79687
L70601 79715
L70489 79715
L70433 79687
L70404 79659
L70376 79603
L70376 79434
L70404 79378
L70433 79350
L70489 79322
L70601 79322
L70658 79350
" />
<path d="M71164 79715
L71164 79406
L71136 79350
L71079 79322
L70967 79322
L70911 79350
" />
<path d="M71164 79687
L71107 79715
L70967 79715
L70911 79687
L70883 79631
L70883 79575
L70911 79519
L70967 79491
L71107 79491
L71164 79462
" />
<path d="M71698 79715
L71698 79125
" />
<path d="M71698 79687
L71642 79715
L71529 79715
L71473 79687
L71445 79659
L71417 79603
L71417 79434
L71445 79378
L71473 79350
L71529 79322
L71642 79322
L71698 79350
" />
<path d="M72682 79322
L72682 79715
" />
<path d="M72542 79097
L72401 79519
L72767 79519
" />
<path d="M72992 79659
L73020 79687
L72992 79715
L72964 79687
L72992 79659
L72992 79715
" />
<path d="M73385 79125
L73442 79125
L73498 79153
L73526 79181
L73554 79237
L73582 79350
L73582 79491
L73554 79603
L73526 79659
L73498 79687
L73442 79715
L73385 79715
L73329 79687
L73301 79659
L73273 79603
L73245 79491
L73245 79350
L73273 79237
L73301 79181
L73329 79153
L73385 79125
" />
<path d="M73835 79659
L73863 79687
L73835 79715
L73807 79687
L73835 79659
L73835 79715
" />
<path d="M74426 79715
L74088 79715
" />
<path d="M74257 79715
L74257 79125
L74201 79209
L74145 79266
L74088 79294
" />
<path d="M74679 79491
L75129 79491
" />
<path d="M75382 79687
L75438 79715
L75551 79715
L75607 79687
L75635 79631
L75635 79603
L75607 79547
L75551 79519
L75466 79519
L75410 79491
L75382 79434
L75382 79406
L75410 79350
L75466 79322
L75551 79322
L75607 79350
" />
<path d="M75804 79322
L76029 79322
" />
<path d="M75888 79125
L75888 79631
L75916 79687
L75973 79715
L76029 79715
" />
<path d="M76479 79715
L76479 79406
L76451 79350
L76394 79322
L76282 79322
L76226 79350
" />
<path d="M76479 79687
L76422 79715
L76282 79715
L76226 79687
L76197 79631
L76197 79575
L76226 79519
L76282 79491
L76422 79491
L76479 79462
" />
<path d="M76760 79715
L76760 79125
" />
<path d="M76760 79350
L76816 79322
L76929 79322
L76985 79350
L77013 79378
L77041 79434
L77041 79603
L77013 79659
L76985 79687
L76929 79715
L76816 79715
L76760 79687
" />
<path d="M77379 79715
L77322 79687
L77294 79631
L77294 79125
" />
<path d="M77829 79687
L77772 79715
L77660 79715
L77604 79687
L77575 79631
L77575 79406
L77604 79350
L77660 79322
L77772 79322
L77829 79350
L77857 79406
L77857 79462
L77575 79519
" />
</g>
<g style="fill:#000000; fill-opacity:0.0; 
stroke:#000000; stroke-width:39.3701; stroke-opacity:1; 
stroke-linecap:round; stroke-linejoin:round;">
</g>
<g style="fill:#000000; fill-opacity:0.0; 
stroke:#000000; stroke-width:59.0551; stroke-opacity:1; 
stroke-linecap:round; stroke-linejoin:round;">
<path d="M62755 77716
L105275 77716
" />
</g>
<g style="fill:#000000; fill-opacity:0.0; 
stroke:#000000; stroke-width:39.3701; stroke-opacity:1; 
stroke-linecap:round; stroke-linejoin:round;">
</g>
<g style="fill:#000000; fill-opacity:0.0; 
stroke:#000000; stroke-width:118.11; stroke-opacity:1; 
stroke-linecap:round; stroke-linejoin:round;">
<path d="M97092 78613
L96895 78332
" />
<path d="M96754 78613
L96754 78023
L96979 78023
L97035 78051
L97064 78079
L97092 78135
L97092 78219
L97064 78276
L97035 78304
L96979 78332
L96754 78332
" />
<path d="M97570 78585
L97514 78613
L97401 78613
L97345 78585
L97317 78529
L97317 78304
L97345 78248
L97401 78219
L97514 78219
L97570 78248
L97598 78304
L97598 78360
L97317 78416
" />
<path d="M97795 78219
L97935 78613
L98076 78219
" />
<path d="M98301 78557
L98329 78585
L98301 78613
L98273 78585
L98301 78557
L98301 78613
" />
<path d="M98301 78248
L98329 78276
L98301 78304
L98273 78276
L98301 78248
L98301 78304
" />
<path d="M98976 78023
L99341 78023
L99145 78248
L99229 78248
L99285 78276
L99313 78304
L99341 78360
L99341 78501
L99313 78557
L99285 78585
L99229 78613
L99060 78613
L99004 78585
L98976 78557
" />
<path d="M99595 78557
L99623 78585
L99595 78613
L99566 78585
L99595 78557
L99595 78613
" />
<path d="M99988 78023
L100044 78023
L100101 78051
L100129 78079
L100157 78135
L100185 78248
L100185 78388
L100157 78501
L100129 78557
L100101 78585
L100044 78613
L99988 78613
L99932 78585
L99904 78557
L99876 78501
L99848 78388
L99848 78248
L99876 78135
L99904 78079
L99932 78051
L99988 78023
" />
</g>
<g style="fill:#000000; fill-opacity:0.0; 
stroke:#000000; stroke-width:39.3701; stroke-opacity:1; 
stroke-linecap:round; stroke-linejoin:round;">
</g>
<g style="fill:#000000; fill-opacity:0.0; 
stroke:#000000; stroke-width:59.0551; stroke-opacity:1; 
stroke-linecap:round; stroke-linejoin:round;">
<path d="M63262 78585
L63346 78613
L63487 78613
L63543 78585
L63571 78557
L63599 78501
L63599 78444
L63571 78388
L63543 78360
L63487 78332
L63374 78304
L63318 78276
L63290 78248
L63262 78191
L63262 78135
L63290 78079
L63318 78051
L63374 78023
L63515 78023
L63599 78051
" />
<path d="M63852 78613
L63852 78219
" />
<path d="M63852 78023
L63824 78051
L63852 78079
L63880 78051
L63852 78023
L63852 78079
" />
<path d="M64077 78219
L64386 78219
L64077 78613
L64386 78613
" />
<path d="M64836 78585
L64780 78613
L64668 78613
L64611 78585
L64583 78529
L64583 78304
L64611 78248
L64668 78219
L64780 78219
L64836 78248
L64865 78304
L64865 78360
L64583 78416
" />
<path d="M65118 78557
L65146 78585
L65118 78613
L65089 78585
L65118 78557
L65118 78613
" />
<path d="M65118 78248
L65146 78276
L65118 78304
L65089 78276
L65118 78248
L65118 78304
" />
<path d="M65849 78023
L65849 78501
L65877 78557
L65905 78585
L65961 78613
L66074 78613
L66130 78585
L66158 78557
L66186 78501
L66186 78023
" />
<path d="M66439 78585
L66524 78613
L66664 78613
L66721 78585
L66749 78557
L66777 78501
L66777 78444
L66749 78388
L66721 78360
L66664 78332
L66552 78304
L66496 78276
L66467 78248
L66439 78191
L66439 78135
L66467 78079
L66496 78051
L66552 78023
L66692 78023
L66777 78051
" />
<path d="M67311 78613
L67030 78613
L67030 78023
" />
<path d="M67733 78585
L67677 78613
L67564 78613
L67508 78585
L67480 78529
L67480 78304
L67508 78248
L67564 78219
L67677 78219
L67733 78248
L67761 78304
L67761 78360
L67480 78416
" />
<path d="M67930 78219
L68155 78219
" />
<path d="M68014 78023
L68014 78529
L68042 78585
L68098 78613
L68155 78613
" />
<path d="M68267 78219
L68492 78219
" />
<path d="M68352 78023
L68352 78529
L68380 78585
L68436 78613
L68492 78613
" />
<path d="M68914 78585
L68858 78613
L68745 78613
L68689 78585
L68661 78529
L68661 78304
L68689 78248
L68745 78219
L68858 78219
L68914 78248
L68942 78304
L68942 78360
L68661 78416
" />
<path d="M69195 78613
L69195 78219
" />
<path d="M69195 78332
L69223 78276
L69251 78248
L69308 78219
L69364 78219
" />
</g>
<g style="fill:#000000; fill-opacity:0.0; 
stroke:#000000; stroke-width:39.3701; stroke-opacity:1; 
stroke-linecap:round; stroke-linejoin:round;">
</g>
<g style="fill:#000000; fill-opacity:0.0; 
stroke:#000000; stroke-width:59.0551; stroke-opacity:1; 
stroke-linecap:round; stroke-linejoin:round;">
<path d="M96754 79715
L96754 79125
" />
<path d="M97289 79715
L97289 79125
" />
<path d="M97289 79687
L97232 79715
L97120 79715
L97064 79687
L97035 79659
L97007 79603
L97007 79434
L97035 79378
L97064 79350
L97120 79322
L97232 79322
L97289 79350
" />
<path d="M97570 79659
L97598 79687
L97570 79715
L97542 79687
L97570 79659
L97570 79715
" />
<path d="M97570 79350
L97598 79378
L97570 79406
L97542 79378
L97570 79350
L97570 79406
" />
<path d="M98610 79715
L98273 79715
" />
<path d="M98442 79715
L98442 79125
L98385 79209
L98329 79266
L98273 79294
" />
<path d="M99285 79097
L98779 79856
" />
<path d="M99791 79715
L99454 79715
" />
<path d="M99623 79715
L99623 79125
L99566 79209
L99510 79266
L99454 79294
" />
</g>
<g style="fill:#000000; fill-opacity:0.0; 
stroke:#000000; stroke-width:39.3701; stroke-opacity:1; 
stroke-linecap:round; stroke-linejoin:round;">
</g>
<g style="fill:#000000; fill-opacity:0.0; 
stroke:#000000; stroke-width:59.0551; stroke-opacity:1; 
stroke-linecap:round; stroke-linejoin:round;">
<path d="M62755 76141
L105275 76141
" />
</g>
<g style="fill:#000000; fill-opacity:0.0; 
stroke:#000000; stroke-width:39.3701; stroke-opacity:1; 
stroke-linecap:round; stroke-linejoin:round;">
</g>
<g style="fill:#000000; fill-opacity:0.0; 
stroke:#000000; stroke-width:157.48; stroke-opacity:1; 
stroke-linecap:round; stroke-linejoin:round;">
<path d="M63327 76419
L63777 76419
" />
<path d="M63454 77206
L63552 76419
" />
<path d="M63941 77206
L64007 76681
" />
<path d="M64040 76419
L63997 76456
L64030 76494
L64072 76456
L64040 76419
L64030 76494
" />
<path d="M64269 76681
L64569 76681
" />
<path d="M64415 76419
L64330 77094
L64358 77169
L64429 77206
L64504 77206
" />
<path d="M64879 77206
L64808 77169
L64780 77094
L64865 76419
" />
<path d="M65483 77169
L65404 77206
L65254 77206
L65183 77169
L65155 77094
L65193 76794
L65239 76719
L65319 76681
L65469 76681
L65539 76719
L65568 76794
L65558 76869
L65174 76944
" />
<path d="M65863 77131
L65896 77169
L65853 77206
L65821 77169
L65863 77131
L65853 77206
" />
<path d="M65914 76719
L65947 76756
L65905 76794
L65872 76756
L65914 76719
L65905 76794
" />
<path d="M67231 76681
L67166 77206
" />
<path d="M67081 76381
L66824 76944
L67311 76944
" />
<path d="M67827 76419
L67902 76419
L67972 76456
L68005 76494
L68033 76569
L68052 76719
L68028 76906
L67972 77056
L67925 77131
L67883 77169
L67803 77206
L67728 77206
L67658 77169
L67625 77131
L67597 77056
L67578 76906
L67602 76719
L67658 76569
L67705 76494
L67747 76456
L67827 76419
" />
<path d="M68366 76906
L68966 76906
" />
<path d="M69645 77169
L69565 77206
L69416 77206
L69345 77169
L69312 77131
L69284 77056
L69312 76831
L69359 76756
L69401 76719
L69481 76681
L69631 76681
L69701 76719
" />
<path d="M69978 77206
L70076 76419
" />
<path d="M70315 77206
L70367 76794
L70339 76719
L70269 76681
L70156 76681
L70076 76719
L70034 76756
" />
<path d="M71028 77206
L71079 76794
L71051 76719
L70981 76681
L70831 76681
L70751 76719
" />
<path d="M71032 77169
L70953 77206
L70765 77206
L70695 77169
L70667 77094
L70676 77019
L70723 76944
L70803 76906
L70990 76906
L71070 76869
" />
<path d="M71468 76681
L71403 77206
" />
<path d="M71459 76756
L71501 76719
L71581 76681
L71693 76681
L71764 76719
L71792 76794
L71740 77206
" />
<path d="M72181 76681
L72115 77206
" />
<path d="M72171 76756
L72214 76719
L72293 76681
L72406 76681
L72476 76719
L72504 76794
L72453 77206
" />
<path d="M73132 77169
L73053 77206
L72903 77206
L72832 77169
L72804 77094
L72842 76794
L72889 76719
L72968 76681
L73118 76681
L73188 76719
L73217 76794
L73207 76869
L72823 76944
" />
<path d="M73615 77206
L73545 77169
L73517 77094
L73601 76419
" />
<path d="M74515 77206
L74613 76419
" />
<path d="M74566 76794
L75016 76794
" />
<path d="M74965 77206
L75063 76419
" />
<path d="M75326 76419
L75490 77206
L75851 76419
" />
<path d="M76582 77169
L76652 77206
L76802 77206
L76882 77169
L76929 77094
L76933 77056
L76905 76981
L76835 76944
L76722 76944
L76652 76906
L76624 76831
L76629 76794
L76676 76719
L76755 76681
L76868 76681
L76938 76719
" />
<path d="M77243 76681
L77327 77206
L77524 76831
L77627 77206
L77843 76681
" />
<path d="M78077 77206
L78143 76681
" />
<path d="M78175 76419
L78133 76456
L78166 76494
L78208 76456
L78175 76419
L78166 76494
" />
<path d="M78405 76681
L78705 76681
" />
<path d="M78550 76419
L78466 77094
L78494 77169
L78564 77206
L78639 77206
" />
<path d="M79244 77169
L79164 77206
L79014 77206
L78944 77169
L78911 77131
L78883 77056
L78911 76831
L78958 76756
L79000 76719
L79080 76681
L79230 76681
L79300 76719
" />
<path d="M79577 77206
L79675 76419
" />
<path d="M79914 77206
L79966 76794
L79938 76719
L79867 76681
L79755 76681
L79675 76719
L79633 76756
" />
<path d="M80289 77206
L80355 76681
" />
<path d="M80388 76419
L80345 76456
L80378 76494
L80420 76456
L80388 76419
L80378 76494
" />
<path d="M80730 76681
L80664 77206
" />
<path d="M80720 76756
L80763 76719
L80842 76681
L80955 76681
L81025 76719
L81053 76794
L81002 77206
" />
<path d="M81780 76681
L81700 77319
L81653 77394
L81611 77431
L81531 77469
L81419 77469
L81348 77431
" />
<path d="M81719 77169
L81639 77206
L81489 77206
L81419 77169
L81386 77131
L81358 77056
L81386 76831
L81433 76756
L81475 76719
L81555 76681
L81705 76681
L81775 76719
" />
<path d="M82689 77206
L82787 76419
" />
<path d="M82750 76719
L82829 76681
L82979 76681
L83050 76719
L83083 76756
L83111 76831
L83083 77056
L83036 77131
L82994 77169
L82914 77206
L82764 77206
L82694 77169
" />
<path d="M83514 77206
L83443 77169
L83411 77131
L83383 77056
L83411 76831
L83458 76756
L83500 76719
L83579 76681
L83692 76681
L83762 76719
L83795 76756
L83823 76831
L83795 77056
L83748 77131
L83706 77169
L83626 77206
L83514 77206
" />
<path d="M84451 77206
L84503 76794
L84475 76719
L84404 76681
L84254 76681
L84175 76719
" />
<path d="M84456 77169
L84376 77206
L84189 77206
L84118 77169
L84090 77094
L84100 77019
L84146 76944
L84226 76906
L84414 76906
L84493 76869
" />
<path d="M84826 77206
L84892 76681
" />
<path d="M84873 76831
L84920 76756
L84962 76719
L85042 76681
L85117 76681
" />
<path d="M85651 77206
L85749 76419
" />
<path d="M85656 77169
L85576 77206
L85426 77206
L85356 77169
L85323 77131
L85295 77056
L85323 76831
L85370 76756
L85412 76719
L85492 76681
L85642 76681
L85712 76719
" />
</g>
<g style="fill:#000000; fill-opacity:0.0; 
stroke:#000000; stroke-width:39.3701; stroke-opacity:1; 
stroke-linecap:round; stroke-linejoin:round;">
</g>
<g style="fill:#000000; fill-opacity:0.0; 
stroke:#000000; stroke-width:59.0551; stroke-opacity:1; 
stroke-linecap:round; stroke-linejoin:round;">
<path d="M63487 75390
L63290 75390
" />
<path d="M63290 75700
L63290 75109
L63571 75109
" />
<path d="M63796 75700
L63796 75306
" />
<path d="M63796 75109
L63768 75137
L63796 75165
L63824 75137
L63796 75109
L63796 75165
" />
<path d="M64161 75700
L64105 75672
L64077 75615
L64077 75109
" />
<path d="M64611 75672
L64555 75700
L64443 75700
L64386 75672
L64358 75615
L64358 75390
L64386 75334
L64443 75306
L64555 75306
L64611 75334
L64640 75390
L64640 75447
L64358 75503
" />
<path d="M64893 75643
L64921 75672
L64893 75700
L64865 75672
L64893 75643
L64893 75700
" />
<path d="M64893 75334
L64921 75362
L64893 75390
L64865 75362
L64893 75334
L64893 75390
" />
<path d="M65877 75306
L65877 75700
" />
<path d="M65736 75081
L65596 75503
L65961 75503
" />
<path d="M66299 75109
L66355 75109
L66411 75137
L66439 75165
L66467 75222
L66496 75334
L66496 75475
L66467 75587
L66439 75643
L66411 75672
L66355 75700
L66299 75700
L66242 75672
L66214 75643
L66186 75587
L66158 75475
L66158 75334
L66186 75222
L66214 75165
L66242 75137
L66299 75109
" />
<path d="M66749 75475
L67199 75475
" />
<path d="M67733 75672
L67677 75700
L67564 75700
L67508 75672
L67480 75643
L67452 75587
L67452 75419
L67480 75362
L67508 75334
L67564 75306
L67677 75306
L67733 75334
" />
<path d="M67986 75700
L67986 75109
" />
<path d="M68239 75700
L68239 75390
L68211 75334
L68155 75306
L68070 75306
L68014 75334
L67986 75362
" />
<path d="M68773 75700
L68773 75390
L68745 75334
L68689 75306
L68577 75306
L68520 75334
" />
<path d="M68773 75672
L68717 75700
L68577 75700
L68520 75672
L68492 75615
L68492 75559
L68520 75503
L68577 75475
L68717 75475
L68773 75447
" />
<path d="M69055 75306
L69055 75700
" />
<path d="M69055 75362
L69083 75334
L69139 75306
L69223 75306
L69280 75334
L69308 75390
L69308 75700
" />
<path d="M69589 75306
L69589 75700
" />
<path d="M69589 75362
L69617 75334
L69673 75306
L69758 75306
L69814 75334
L69842 75390
L69842 75700
" />
<path d="M70348 75672
L70292 75700
L70179 75700
L70123 75672
L70095 75615
L70095 75390
L70123 75334
L70179 75306
L70292 75306
L70348 75334
L70376 75390
L70376 75447
L70095 75503
" />
<path d="M70714 75700
L70658 75672
L70629 75615
L70629 75109
" />
<path d="M71389 75700
L71389 75109
" />
<path d="M71389 75390
L71726 75390
" />
<path d="M71726 75700
L71726 75109
" />
<path d="M71923 75109
L72120 75700
L72317 75109
" />
<path d="M72935 75672
L72992 75700
L73104 75700
L73160 75672
L73188 75615
L73188 75587
L73160 75531
L73104 75503
L73020 75503
L72964 75475
L72935 75419
L72935 75390
L72964 75334
L73020 75306
L73104 75306
L73160 75334
" />
<path d="M73385 75306
L73498 75700
L73610 75419
L73723 75700
L73835 75306
" />
<path d="M74060 75700
L74060 75306
" />
<path d="M74060 75109
L74032 75137
L74060 75165
L74088 75137
L74060 75109
L74060 75165
" />
<path d="M74257 75306
L74482 75306
" />
<path d="M74341 75109
L74341 75615
L74370 75672
L74426 75700
L74482 75700
" />
<path d="M74932 75672
L74876 75700
L74763 75700
L74707 75672
L74679 75643
L74651 75587
L74651 75419
L74679 75362
L74707 75334
L74763 75306
L74876 75306
L74932 75334
" />
<path d="M75185 75700
L75185 75109
" />
<path d="M75438 75700
L75438 75390
L75410 75334
L75354 75306
L75269 75306
L75213 75334
L75185 75362
" />
<path d="M75719 75700
L75719 75306
" />
<path d="M75719 75109
L75691 75137
L75719 75165
L75748 75137
L75719 75109
L75719 75165
" />
<path d="M76001 75306
L76001 75700
" />
<path d="M76001 75362
L76029 75334
L76085 75306
L76169 75306
L76226 75334
L76254 75390
L76254 75700
" />
<path d="M76788 75306
L76788 75784
L76760 75840
L76732 75868
L76676 75897
L76591 75897
L76535 75868
" />
<path d="M76788 75672
L76732 75700
L76619 75700
L76563 75672
L76535 75643
L76507 75587
L76507 75419
L76535 75362
L76563 75334
L76619 75306
L76732 75306
L76788 75334
" />
<path d="M77519 75700
L77519 75109
" />
<path d="M77519 75334
L77575 75306
L77688 75306
L77744 75334
L77772 75362
L77800 75419
L77800 75587
L77772 75643
L77744 75672
L77688 75700
L77575 75700
L77519 75672
" />
<path d="M78138 75700
L78082 75672
L78053 75643
L78025 75587
L78025 75419
L78053 75362
L78082 75334
L78138 75306
L78222 75306
L78278 75334
L78307 75362
L78335 75419
L78335 75587
L78307 75643
L78278 75672
L78222 75700
L78138 75700
" />
<path d="M78841 75700
L78841 75390
L78813 75334
L78757 75306
L78644 75306
L78588 75334
" />
<path d="M78841 75672
L78785 75700
L78644 75700
L78588 75672
L78560 75615
L78560 75559
L78588 75503
L78644 75475
L78785 75475
L78841 75447
" />
<path d="M79122 75700
L79122 75306
" />
<path d="M79122 75419
L79150 75362
L79178 75334
L79235 75306
L79291 75306
" />
<path d="M79741 75700
L79741 75109
" />
<path d="M79741 75672
L79685 75700
L79572 75700
L79516 75672
L79488 75643
L79460 75587
L79460 75419
L79488 75362
L79516 75334
L79572 75306
L79685 75306
L79741 75334
" />
<path d="M80022 75643
L80050 75672
L80022 75700
L79994 75672
L80022 75643
L80022 75700
" />
<path d="M80303 75700
L80303 75109
" />
<path d="M80359 75475
L80528 75700
" />
<path d="M80528 75306
L80303 75531
" />
<path d="M80781 75700
L80781 75306
" />
<path d="M80781 75109
L80753 75137
L80781 75165
L80809 75137
L80781 75109
L80781 75165
" />
<path d="M81316 75672
L81259 75700
L81147 75700
L81091 75672
L81062 75643
L81034 75587
L81034 75419
L81062 75362
L81091 75334
L81147 75306
L81259 75306
L81316 75334
" />
<path d="M81822 75700
L81822 75390
L81794 75334
L81737 75306
L81625 75306
L81569 75334
" />
<path d="M81822 75672
L81766 75700
L81625 75700
L81569 75672
L81541 75615
L81541 75559
L81569 75503
L81625 75475
L81766 75475
L81822 75447
" />
<path d="M82356 75700
L82356 75109
" />
<path d="M82356 75672
L82300 75700
L82187 75700
L82131 75672
L82103 75643
L82075 75587
L82075 75419
L82103 75362
L82131 75334
L82187 75306
L82300 75306
L82356 75334
" />
<path d="M82497 75756
L82947 75756
" />
<path d="M83087 75306
L83087 75897
" />
<path d="M83087 75334
L83143 75306
L83256 75306
L83312 75334
L83340 75362
L83368 75419
L83368 75587
L83340 75643
L83312 75672
L83256 75700
L83143 75700
L83087 75672
" />
<path d="M83875 75672
L83818 75700
L83706 75700
L83650 75672
L83622 75643
L83593 75587
L83593 75419
L83622 75362
L83650 75334
L83706 75306
L83818 75306
L83875 75334
" />
<path d="M84128 75700
L84128 75109
" />
<path d="M84128 75334
L84184 75306
L84296 75306
L84353 75334
L84381 75362
L84409 75419
L84409 75587
L84381 75643
L84353 75672
L84296 75700
L84184 75700
L84128 75672
" />
</g>
<g style="fill:#000000; fill-opacity:0.0; 
stroke:#000000; stroke-width:39.3701; stroke-opacity:1; 
stroke-linecap:round; stroke-linejoin:round;">
</g>
<g style="fill:#000000; fill-opacity:0.0; 
stroke:#000000; stroke-width:59.0551; stroke-opacity:1; 
stroke-linecap:round; stroke-linejoin:round;">
<path d="M62755 73779
L105275 73779
" />
</g>
<g style="fill:#000000; fill-opacity:0.0; 
stroke:#000000; stroke-width:39.3701; stroke-opacity:1; 
stroke-linecap:round; stroke-linejoin:round;">
</g>
<g style="fill:#000000; fill-opacity:0.0; 
stroke:#000000; stroke-width:59.0551; stroke-opacity:1; 
stroke-linecap:round; stroke-linejoin:round;">
<path d="M63262 74609
L63346 74637
L63487 74637
L63543 74609
L63571 74580
L63599 74524
L63599 74468
L63571 74412
L63543 74384
L63487 74356
L63374 74327
L63318 74299
L63290 74271
L63262 74215
L63262 74159
L63290 74102
L63318 74074
L63374 74046
L63515 74046
L63599 74074
" />
<path d="M63852 74637
L63852 74046
" />
<path d="M64105 74637
L64105 74327
L64077 74271
L64021 74243
L63937 74243
L63880 74271
L63852 74299
" />
<path d="M64611 74609
L64555 74637
L64443 74637
L64386 74609
L64358 74552
L64358 74327
L64386 74271
L64443 74243
L64555 74243
L64611 74271
L64640 74327
L64640 74384
L64358 74440
" />
<path d="M65118 74609
L65061 74637
L64949 74637
L64893 74609
L64865 74552
L64865 74327
L64893 74271
L64949 74243
L65061 74243
L65118 74271
L65146 74327
L65146 74384
L64865 74440
" />
<path d="M65314 74243
L65539 74243
" />
<path d="M65399 74046
L65399 74552
L65427 74609
L65483 74637
L65539 74637
" />
<path d="M65736 74580
L65764 74609
L65736 74637
L65708 74609
L65736 74580
L65736 74637
" />
<path d="M65736 74271
L65764 74299
L65736 74327
L65708 74299
L65736 74271
L65736 74327
" />
</g>
<g style="fill:#000000; fill-opacity:0.0; 
stroke:#000000; stroke-width:39.3701; stroke-opacity:1; 
stroke-linecap:round; stroke-linejoin:round;">
</g>
<g style="fill:#000000; fill-opacity:0.0; 
stroke:#000000; stroke-width:118.11; stroke-opacity:1; 
stroke-linecap:round; stroke-linejoin:round;">
<path d="M63627 73456
L63430 73174
" />
<path d="M63290 73456
L63290 72865
L63515 72865
L63571 72893
L63599 72921
L63627 72978
L63627 73062
L63599 73118
L63571 73146
L63515 73174
L63290 73174
" />
<path d="M63824 73062
L63965 73456
" />
<path d="M64105 73062
L63965 73456
L63908 73596
L63880 73624
L63824 73652
" />
<path d="M64583 73456
L64583 73146
L64555 73090
L64499 73062
L64386 73062
L64330 73090
" />
<path d="M64583 73428
L64527 73456
L64386 73456
L64330 73428
L64302 73371
L64302 73315
L64330 73259
L64386 73231
L64527 73231
L64583 73203
" />
<path d="M64865 73062
L64865 73456
" />
<path d="M64865 73118
L64893 73090
L64949 73062
L65033 73062
L65089 73090
L65118 73146
L65118 73456
" />
<path d="M66046 73146
L65849 73146
" />
<path d="M65849 73456
L65849 72865
L66130 72865
" />
<path d="M66439 73456
L66383 73428
L66355 73399
L66327 73343
L66327 73174
L66355 73118
L66383 73090
L66439 73062
L66524 73062
L66580 73090
L66608 73118
L66636 73174
L66636 73343
L66608 73399
L66580 73428
L66524 73456
L66439 73456
" />
<path d="M66889 73456
L66889 72865
" />
<path d="M66889 73090
L66946 73062
L67058 73062
L67114 73090
L67142 73118
L67170 73174
L67170 73343
L67142 73399
L67114 73428
L67058 73456
L66946 73456
L66889 73428
" />
<path d="M67649 73428
L67592 73456
L67480 73456
L67424 73428
L67395 73371
L67395 73146
L67424 73090
L67480 73062
L67592 73062
L67649 73090
L67677 73146
L67677 73203
L67395 73259
" />
<path d="M68014 73456
L67958 73428
L67930 73371
L67930 72865
" />
</g>
<g style="fill:#000000; fill-opacity:0.0; 
stroke:#000000; stroke-width:39.3701; stroke-opacity:1; 
stroke-linecap:round; stroke-linejoin:round;">
</g>
<g style="fill:#000000; fill-opacity:0.0; 
stroke:#000000; stroke-width:59.0551; stroke-opacity:1; 
stroke-linecap:round; stroke-linejoin:round;">
<path d="M70629 77716
L70629 78897
" />
</g>
<g style="fill:#000000; fill-opacity:0.0; 
stroke:#000000; stroke-width:39.3701; stroke-opacity:1; 
stroke-linecap:round; stroke-linejoin:round;">
</g>
<g style="fill:#000000; fill-opacity:0.0; 
stroke:#000000; stroke-width:59.0551; stroke-opacity:1; 
stroke-linecap:round; stroke-linejoin:round;">
<path d="M95826 77716
L95826 80275
" />
</g>
<g style="fill:#000000; fill-opacity:0.0; 
stroke:#000000; stroke-width:39.3701; stroke-opacity:1; 
stroke-linecap:round; stroke-linejoin:round;">
<path d="M21803 51417
L10039 51417
" />
<path d="M10039 51417
L10039 15984
" />
<path d="M21803 53779
L28188 53779
" />
<path d="M21803 53779
L21803 51417
" />
<path d="M43110 15984
L43110 51417
" />
<path d="M10078 15984
L43110 15984
" />
<path d="M43110 51417
L31417 51417
" />
<path d="M31429 53779
L31429 51413
" />
<path d="M29133 53779
L31429 53779
" />
<path d="M29133 51732
L29133 53779
" />
<path d="M29133.9 51732.3 A472.441 472.441 0.0 0 0 28189 51732.3 " />
<path d="M28188 53779
L28188 51692
" />
</g>
<g style="fill:#000000; fill-opacity:1.0; 
stroke:#000000; stroke-width:0; stroke-opacity:1; 
stroke-linecap:round; stroke-linejoin:round;">
<circle cx="11614.2" cy="49842.5" r="900" /> 
</g>
<g style="fill:#000000; fill-opacity:1.0; 
stroke:#000000; stroke-width:39.3701; stroke-opacity:1; 
stroke-linecap:round; stroke-linejoin:round;">
</g>
<g style="fill:#000000; fill-opacity:1.0; 
stroke:#000000; stroke-width:0; stroke-opacity:1; 
stroke-linecap:round; stroke-linejoin:round;">
<circle cx="41535.4" cy="49842.5" r="900" /> 
</g>
<g style="fill:#000000; fill-opacity:1.0; 
stroke:#000000; stroke-width:39.3701; stroke-opacity:1; 
stroke-linecap:round; stroke-linejoin:round;">
</g>
<g style="fill:#000000; fill-opacity:1.0; 
stroke:#000000; stroke-width:0; stroke-opacity:1; 
stroke-linecap:round; stroke-linejoin:round;">
<circle cx="41535.4" cy="17559.1" r="900" /> 
</g>
<g style="fill:#000000; fill-opacity:1.0; 
stroke:#000000; stroke-width:39.3701; stroke-opacity:1; 
stroke-linecap:round; stroke-linejoin:round;">
</g>
<g style="fill:#000000; fill-opacity:1.0; 
stroke:#000000; stroke-width:0; stroke-opacity:1; 
stroke-linecap:round; stroke-linejoin:round;">
<polyline style="fill-rule:evenodd;"
points="22064,40173
22064,41173
21264,41173
21264,40173
22064,40173
" /> 
<polyline style="fill-rule:evenodd;"
points="21064,40173
21064,41173
20264,41173
20264,40173
21064,40173
" /> 
<polyline style="fill-rule:evenodd;"
points="20064,40173
20064,41173
19264,41173
19264,40173
20064,40173
" /> 
<polyline style="fill-rule:evenodd;"
points="19064,40173
19064,41173
18264,41173
18264,40173
19064,40173
" /> 
<polyline style="fill-rule:evenodd;"
points="19064,37173
19064,38173
18264,38173
18264,37173
19064,37173
" /> 
<polyline style="fill-rule:evenodd;"
points="20064,37173
20064,38173
19264,38173
19264,37173
20064,37173
" /> 
<polyline style="fill-rule:evenodd;"
points="21064,37173
21064,38173
20264,38173
20264,37173
21064,37173
" /> 
<polyline style="fill-rule:evenodd;"
points="22064,37173
22064,38173
21264,38173
21264,37173
22064,37173
" /> 
<polyline style="fill-rule:evenodd;"
points="26520,42616
25808,42616
25808,42140
26520,42140
26520,42616
" /> 
<polyline style="fill-rule:evenodd;"
points="26520,41868
25808,41868
25808,41392
26520,41392
26520,41868
" /> 
<circle cx="11614.2" cy="17559.1" r="900" /> 
</g>
<g style="fill:#000000; fill-opacity:1.0; 
stroke:#000000; stroke-width:39.3701; stroke-opacity:1; 
stroke-linecap:round; stroke-linejoin:round;">
</g>
<g style="fill:#000000; fill-opacity:1.0; 
stroke:#000000; stroke-width:0; stroke-opacity:1; 
stroke-linecap:round; stroke-linejoin:round;">
<polyline style="fill-rule:evenodd;"
points="16546,20287
14870,20287
14870,19083
16546,19083
16546,20287
" /> 
<polyline style="fill-rule:evenodd;"
points="16546,18161
14870,18161
14870,16957
16546,16957
16546,18161
" /> 
<polyline style="fill-rule:evenodd;"
points="40064,45835
40064,46835
39264,46835
39264,45835
40064,45835
" /> 
<polyline style="fill-rule:evenodd;"
points="39064,45835
39064,46835
38264,46835
38264,45835
39064,45835
" /> 
<polyline style="fill-rule:evenodd;"
points="38064,45835
38064,46835
37264,46835
37264,45835
38064,45835
" /> 
<polyline style="fill-rule:evenodd;"
points="37064,45835
37064,46835
36264,46835
36264,45835
37064,45835
" /> 
<polyline style="fill-rule:evenodd;"
points="37064,42835
37064,43835
36264,43835
36264,42835
37064,42835
" /> 
<polyline style="fill-rule:evenodd;"
points="38064,42835
38064,43835
37264,43835
37264,42835
38064,42835
" /> 
<polyline style="fill-rule:evenodd;"
points="39064,42835
39064,43835
38264,43835
38264,42835
39064,42835
" /> 
<polyline style="fill-rule:evenodd;"
points="40064,42835
40064,43835
39264,43835
39264,42835
40064,42835
" /> 
<polyline style="fill-rule:evenodd;"
points="40064,40173
40064,41173
39264,41173
39264,40173
40064,40173
" /> 
<polyline style="fill-rule:evenodd;"
points="39064,40173
39064,41173
38264,41173
38264,40173
39064,40173
" /> 
<polyline style="fill-rule:evenodd;"
points="38064,40173
38064,41173
37264,41173
37264,40173
38064,40173
" /> 
<polyline style="fill-rule:evenodd;"
points="37064,40173
37064,41173
36264,41173
36264,40173
37064,40173
" /> 
<polyline style="fill-rule:evenodd;"
points="37064,37173
37064,38173
36264,38173
36264,37173
37064,37173
" /> 
<polyline style="fill-rule:evenodd;"
points="38064,37173
38064,38173
37264,38173
37264,37173
38064,37173
" /> 
<polyline style="fill-rule:evenodd;"
points="39064,37173
39064,38173
38264,38173
38264,37173
39064,37173
" /> 
<polyline style="fill-rule:evenodd;"
points="40064,37173
40064,38173
39264,38173
39264,37173
40064,37173
" /> 
<polyline style="fill-rule:evenodd;"
points="40064,34433
40064,35433
39264,35433
39264,34433
40064,34433
" /> 
<polyline style="fill-rule:evenodd;"
points="39064,34433
39064,35433
38264,35433
38264,34433
39064,34433
" /> 
<polyline style="fill-rule:evenodd;"
points="38064,34433
38064,35433
37264,35433
37264,34433
38064,34433
" /> 
<polyline style="fill-rule:evenodd;"
points="37064,34433
37064,35433
36264,35433
36264,34433
37064,34433
" /> 
<polyline style="fill-rule:evenodd;"
points="37064,31433
37064,32433
36264,32433
36264,31433
37064,31433
" /> 
<polyline style="fill-rule:evenodd;"
points="38064,31433
38064,32433
37264,32433
37264,31433
38064,31433
" /> 
<polyline style="fill-rule:evenodd;"
points="39064,31433
39064,32433
38264,32433
38264,31433
39064,31433
" /> 
<polyline style="fill-rule:evenodd;"
points="40064,31433
40064,32433
39264,32433
39264,31433
40064,31433
" /> 
<polyline style="fill-rule:evenodd;"
points="40064,28732
40064,29732
39264,29732
39264,28732
40064,28732
" /> 
<polyline style="fill-rule:evenodd;"
points="39064,28732
39064,29732
38264,29732
38264,28732
39064,28732
" /> 
<polyline style="fill-rule:evenodd;"
points="38064,28732
38064,29732
37264,29732
37264,28732
38064,28732
" /> 
<polyline style="fill-rule:evenodd;"
points="37064,28732
37064,29732
36264,29732
36264,28732
37064,28732
" /> 
<polyline style="fill-rule:evenodd;"
points="37064,25732
37064,26732
36264,26732
36264,25732
37064,25732
" /> 
<polyline style="fill-rule:evenodd;"
points="38064,25732
38064,26732
37264,26732
37264,25732
38064,25732
" /> 
<polyline style="fill-rule:evenodd;"
points="39064,25732
39064,26732
38264,26732
38264,25732
39064,25732
" /> 
<polyline style="fill-rule:evenodd;"
points="40064,25732
40064,26732
39264,26732
39264,25732
40064,25732
" /> 
<polyline style="fill-rule:evenodd;"
points="34064,45835
34064,46835
33264,46835
33264,45835
34064,45835
" /> 
<polyline style="fill-rule:evenodd;"
points="33064,45835
33064,46835
32264,46835
32264,45835
33064,45835
" /> 
<polyline style="fill-rule:evenodd;"
points="32064,45835
32064,46835
31264,46835
31264,45835
32064,45835
" /> 
<polyline style="fill-rule:evenodd;"
points="31064,45835
31064,46835
30264,46835
30264,45835
31064,45835
" /> 
<polyline style="fill-rule:evenodd;"
points="31064,42835
31064,43835
30264,43835
30264,42835
31064,42835
" /> 
<polyline style="fill-rule:evenodd;"
points="32064,42835
32064,43835
31264,43835
31264,42835
32064,42835
" /> 
<polyline style="fill-rule:evenodd;"
points="33064,42835
33064,43835
32264,43835
32264,42835
33064,42835
" /> 
<polyline style="fill-rule:evenodd;"
points="34064,42835
34064,43835
33264,43835
33264,42835
34064,42835
" /> 
<polyline style="fill-rule:evenodd;"
points="34064,40173
34064,41173
33264,41173
33264,40173
34064,40173
" /> 
<polyline style="fill-rule:evenodd;"
points="33064,40173
33064,41173
32264,41173
32264,40173
33064,40173
" /> 
<polyline style="fill-rule:evenodd;"
points="32064,40173
32064,41173
31264,41173
31264,40173
32064,40173
" /> 
<polyline style="fill-rule:evenodd;"
points="31064,40173
31064,41173
30264,41173
30264,40173
31064,40173
" /> 
<polyline style="fill-rule:evenodd;"
points="31064,37173
31064,38173
30264,38173
30264,37173
31064,37173
" /> 
<polyline style="fill-rule:evenodd;"
points="32064,37173
32064,38173
31264,38173
31264,37173
32064,37173
" /> 
<polyline style="fill-rule:evenodd;"
points="33064,37173
33064,38173
32264,38173
32264,37173
33064,37173
" /> 
<polyline style="fill-rule:evenodd;"
points="34064,37173
34064,38173
33264,38173
33264,37173
34064,37173
" /> 
<polyline style="fill-rule:evenodd;"
points="34064,34433
34064,35433
33264,35433
33264,34433
34064,34433
" /> 
<polyline style="fill-rule:evenodd;"
points="33064,34433
33064,35433
32264,35433
32264,34433
33064,34433
" /> 
<polyline style="fill-rule:evenodd;"
points="32064,34433
32064,35433
31264,35433
31264,34433
32064,34433
" /> 
<polyline style="fill-rule:evenodd;"
points="31064,34433
31064,35433
30264,35433
30264,34433
31064,34433
" /> 
<polyline style="fill-rule:evenodd;"
points="31064,31433
31064,32433
30264,32433
30264,31433
31064,31433
" /> 
<polyline style="fill-rule:evenodd;"
points="32064,31433
32064,32433
31264,32433
31264,31433
32064,31433
" /> 
<polyline style="fill-rule:evenodd;"
points="33064,31433
33064,32433
32264,32433
32264,31433
33064,31433
" /> 
<polyline style="fill-rule:evenodd;"
points="34064,31433
34064,32433
33264,32433
33264,31433
34064,31433
" /> 
<polyline style="fill-rule:evenodd;"
points="34064,28732
34064,29732
33264,29732
33264,28732
34064,28732
" /> 
<polyline style="fill-rule:evenodd;"
points="33064,28732
33064,29732
32264,29732
32264,28732
33064,28732
" /> 
<polyline style="fill-rule:evenodd;"
points="32064,28732
32064,29732
31264,29732
31264,28732
32064,28732
" /> 
<polyline style="fill-rule:evenodd;"
points="31064,28732
31064,29732
30264,29732
30264,28732
31064,28732
" /> 
<polyline style="fill-rule:evenodd;"
points="31064,25732
31064,26732
30264,26732
30264,25732
31064,25732
" /> 
<polyline style="fill-rule:evenodd;"
points="32064,25732
32064,26732
31264,26732
31264,25732
32064,25732
" /> 
<polyline style="fill-rule:evenodd;"
points="33064,25732
33064,26732
32264,26732
32264,25732
33064,25732
" /> 
<polyline style="fill-rule:evenodd;"
points="34064,25732
34064,26732
33264,26732
33264,25732
34064,25732
" /> 
<polyline style="fill-rule:evenodd;"
points="28064,45835
28064,46835
27264,46835
27264,45835
28064,45835
" /> 
<polyline style="fill-rule:evenodd;"
points="27064,45835
27064,46835
26264,46835
26264,45835
27064,45835
" /> 
<polyline style="fill-rule:evenodd;"
points="26064,45835
26064,46835
25264,46835
25264,45835
26064,45835
" /> 
<polyline style="fill-rule:evenodd;"
points="25064,45835
25064,46835
24264,46835
24264,45835
25064,45835
" /> 
<polyline style="fill-rule:evenodd;"
points="25064,42835
25064,43835
24264,43835
24264,42835
25064,42835
" /> 
<polyline style="fill-rule:evenodd;"
points="26064,42835
26064,43835
25264,43835
25264,42835
26064,42835
" /> 
<polyline style="fill-rule:evenodd;"
points="27064,42835
27064,43835
26264,43835
26264,42835
27064,42835
" /> 
<polyline style="fill-rule:evenodd;"
points="28064,42835
28064,43835
27264,43835
27264,42835
28064,42835
" /> 
<polyline style="fill-rule:evenodd;"
points="28064,40173
28064,41173
27264,41173
27264,40173
28064,40173
" /> 
<polyline style="fill-rule:evenodd;"
points="27064,40173
27064,41173
26264,41173
26264,40173
27064,40173
" /> 
<polyline style="fill-rule:evenodd;"
points="26064,40173
26064,41173
25264,41173
25264,40173
26064,40173
" /> 
<polyline style="fill-rule:evenodd;"
points="25064,40173
25064,41173
24264,41173
24264,40173
25064,40173
" /> 
<polyline style="fill-rule:evenodd;"
points="25064,37173
25064,38173
24264,38173
24264,37173
25064,37173
" /> 
<polyline style="fill-rule:evenodd;"
points="26064,37173
26064,38173
25264,38173
25264,37173
26064,37173
" /> 
<polyline style="fill-rule:evenodd;"
points="27064,37173
27064,38173
26264,38173
26264,37173
27064,37173
" /> 
<polyline style="fill-rule:evenodd;"
points="28064,37173
28064,38173
27264,38173
27264,37173
28064,37173
" /> 
<polyline style="fill-rule:evenodd;"
points="28064,34433
28064,35433
27264,35433
27264,34433
28064,34433
" /> 
<polyline style="fill-rule:evenodd;"
points="27064,34433
27064,35433
26264,35433
26264,34433
27064,34433
" /> 
<polyline style="fill-rule:evenodd;"
points="26064,34433
26064,35433
25264,35433
25264,34433
26064,34433
" /> 
<polyline style="fill-rule:evenodd;"
points="25064,34433
25064,35433
24264,35433
24264,34433
25064,34433
" /> 
<polyline style="fill-rule:evenodd;"
points="25064,31433
25064,32433
24264,32433
24264,31433
25064,31433
" /> 
<polyline style="fill-rule:evenodd;"
points="26064,31433
26064,32433
25264,32433
25264,31433
26064,31433
" /> 
<polyline style="fill-rule:evenodd;"
points="27064,31433
27064,32433
26264,32433
26264,31433
27064,31433
" /> 
<polyline style="fill-rule:evenodd;"
points="28064,31433
28064,32433
27264,32433
27264,31433
28064,31433
" /> 
<polyline style="fill-rule:evenodd;"
points="28064,28732
28064,29732
27264,29732
27264,28732
28064,28732
" /> 
<polyline style="fill-rule:evenodd;"
points="27064,28732
27064,29732
26264,29732
26264,28732
27064,28732
" /> 
<polyline style="fill-rule:evenodd;"
points="26064,28732
26064,29732
25264,29732
25264,28732
26064,28732
" /> 
<polyline style="fill-rule:evenodd;"
points="25064,28732
25064,29732
24264,29732
24264,28732
25064,28732
" /> 
<polyline style="fill-rule:evenodd;"
points="25064,25732
25064,26732
24264,26732
24264,25732
25064,25732
" /> 
<polyline style="fill-rule:evenodd;"
points="26064,25732
26064,26732
25264,26732
25264,25732
26064,25732
" /> 
<polyline style="fill-rule:evenodd;"
points="27064,25732
27064,26732
26264,26732
26264,25732
27064,25732
" /> 
<polyline style="fill-rule:evenodd;"
points="28064,25732
28064,26732
27264,26732
27264,25732
28064,25732
" /> 
<polyline style="fill-rule:evenodd;"
points="22064,45835
22064,46835
21264,46835
21264,45835
22064,45835
" /> 
<polyline style="fill-rule:evenodd;"
points="21064,45835
21064,46835
20264,46835
20264,45835
21064,45835
" /> 
<polyline style="fill-rule:evenodd;"
points="20064,45835
20064,46835
19264,46835
19264,45835
20064,45835
" /> 
<polyline style="fill-rule:evenodd;"
points="19064,45835
19064,46835
18264,46835
18264,45835
19064,45835
" /> 
<polyline style="fill-rule:evenodd;"
points="19064,42835
19064,43835
18264,43835
18264,42835
19064,42835
" /> 
<polyline style="fill-rule:evenodd;"
points="20064,42835
20064,43835
19264,43835
19264,42835
20064,42835
" /> 
<polyline style="fill-rule:evenodd;"
points="21064,42835
21064,43835
20264,43835
20264,42835
21064,42835
" /> 
<polyline style="fill-rule:evenodd;"
points="22064,42835
22064,43835
21264,43835
21264,42835
22064,42835
" /> 
<polyline style="fill-rule:evenodd;"
points="22064,34433
22064,35433
21264,35433
21264,34433
22064,34433
" /> 
<polyline style="fill-rule:evenodd;"
points="21064,34433
21064,35433
20264,35433
20264,34433
21064,34433
" /> 
<polyline style="fill-rule:evenodd;"
points="20064,34433
20064,35433
19264,35433
19264,34433
20064,34433
" /> 
<polyline style="fill-rule:evenodd;"
points="19064,34433
19064,35433
18264,35433
18264,34433
19064,34433
" /> 
<polyline style="fill-rule:evenodd;"
points="19064,31433
19064,32433
18264,32433
18264,31433
19064,31433
" /> 
<polyline style="fill-rule:evenodd;"
points="20064,31433
20064,32433
19264,32433
19264,31433
20064,31433
" /> 
<polyline style="fill-rule:evenodd;"
points="21064,31433
21064,32433
20264,32433
20264,31433
21064,31433
" /> 
<polyline style="fill-rule:evenodd;"
points="22064,31433
22064,32433
21264,32433
21264,31433
22064,31433
" /> 
<polyline style="fill-rule:evenodd;"
points="22064,28732
22064,29732
21264,29732
21264,28732
22064,28732
" /> 
<polyline style="fill-rule:evenodd;"
points="21064,28732
21064,29732
20264,29732
20264,28732
21064,28732
" /> 
<polyline style="fill-rule:evenodd;"
points="20064,28732
20064,29732
19264,29732
19264,28732
20064,28732
" /> 
<polyline style="fill-rule:evenodd;"
points="19064,28732
19064,29732
18264,29732
18264,28732
19064,28732
" /> 
<polyline style="fill-rule:evenodd;"
points="19064,25732
19064,26732
18264,26732
18264,25732
19064,25732
" /> 
<polyline style="fill-rule:evenodd;"
points="20064,25732
20064,26732
19264,26732
19264,25732
20064,25732
" /> 
<polyline style="fill-rule:evenodd;"
points="21064,25732
21064,26732
20264,26732
20264,25732
21064,25732
" /> 
<polyline style="fill-rule:evenodd;"
points="22064,25732
22064,26732
21264,26732
21264,25732
22064,25732
" /> 
<polyline style="fill-rule:evenodd;"
points="16064,45835
16064,46835
15264,46835
15264,45835
16064,45835
" /> 
<polyline style="fill-rule:evenodd;"
points="15064,45835
15064,46835
14264,46835
14264,45835
15064,45835
" /> 
<polyline style="fill-rule:evenodd;"
points="14064,45835
14064,46835
13264,46835
13264,45835
14064,45835
" /> 
<polyline style="fill-rule:evenodd;"
points="13064,45835
13064,46835
12264,46835
12264,45835
13064,45835
" /> 
<polyline style="fill-rule:evenodd;"
points="13064,42835
13064,43835
12264,43835
12264,42835
13064,42835
" /> 
<polyline style="fill-rule:evenodd;"
points="14064,42835
14064,43835
13264,43835
13264,42835
14064,42835
" /> 
<polyline style="fill-rule:evenodd;"
points="15064,42835
15064,43835
14264,43835
14264,42835
15064,42835
" /> 
<polyline style="fill-rule:evenodd;"
points="16064,42835
16064,43835
15264,43835
15264,42835
16064,42835
" /> 
<polyline style="fill-rule:evenodd;"
points="16064,40173
16064,41173
15264,41173
15264,40173
16064,40173
" /> 
<polyline style="fill-rule:evenodd;"
points="15064,40173
15064,41173
14264,41173
14264,40173
15064,40173
" /> 
<polyline style="fill-rule:evenodd;"
points="14064,40173
14064,41173
13264,41173
13264,40173
14064,40173
" /> 
<polyline style="fill-rule:evenodd;"
points="13064,40173
13064,41173
12264,41173
12264,40173
13064,40173
" /> 
<polyline style="fill-rule:evenodd;"
points="13064,37173
13064,38173
12264,38173
12264,37173
13064,37173
" /> 
<polyline style="fill-rule:evenodd;"
points="14064,37173
14064,38173
13264,38173
13264,37173
14064,37173
" /> 
<polyline style="fill-rule:evenodd;"
points="15064,37173
15064,38173
14264,38173
14264,37173
15064,37173
" /> 
<polyline style="fill-rule:evenodd;"
points="16064,37173
16064,38173
15264,38173
15264,37173
16064,37173
" /> 
<polyline style="fill-rule:evenodd;"
points="16064,34433
16064,35433
15264,35433
15264,34433
16064,34433
" /> 
<polyline style="fill-rule:evenodd;"
points="15064,34433
15064,35433
14264,35433
14264,34433
15064,34433
" /> 
<polyline style="fill-rule:evenodd;"
points="14064,34433
14064,35433
13264,35433
13264,34433
14064,34433
" /> 
<polyline style="fill-rule:evenodd;"
points="13064,34433
13064,35433
12264,35433
12264,34433
13064,34433
" /> 
<polyline style="fill-rule:evenodd;"
points="13064,31433
13064,32433
12264,32433
12264,31433
13064,31433
" /> 
<polyline style="fill-rule:evenodd;"
points="14064,31433
14064,32433
13264,32433
13264,31433
14064,31433
" /> 
<polyline style="fill-rule:evenodd;"
points="15064,31433
15064,32433
14264,32433
14264,31433
15064,31433
" /> 
<polyline style="fill-rule:evenodd;"
points="16064,31433
16064,32433
15264,32433
15264,31433
16064,31433
" /> 
<polyline style="fill-rule:evenodd;"
points="16064,28732
16064,29732
15264,29732
15264,28732
16064,28732
" /> 
<polyline style="fill-rule:evenodd;"
points="15064,28732
15064,29732
14264,29732
14264,28732
15064,28732
" /> 
<polyline style="fill-rule:evenodd;"
points="14064,28732
14064,29732
13264,29732
13264,28732
14064,28732
" /> 
<polyline style="fill-rule:evenodd;"
points="13064,28732
13064,29732
12264,29732
12264,28732
13064,28732
" /> 
<polyline style="fill-rule:evenodd;"
points="13064,25732
13064,26732
12264,26732
12264,25732
13064,25732
" /> 
<polyline style="fill-rule:evenodd;"
points="14064,25732
14064,26732
13264,26732
13264,25732
14064,25732
" /> 
<polyline style="fill-rule:evenodd;"
points="15064,25732
15064,26732
14264,26732
14264,25732
15064,25732
" /> 
<polyline style="fill-rule:evenodd;"
points="16064,25732
16064,26732
15264,26732
15264,25732
16064,25732
" /> 
<polyline style="fill-rule:evenodd;"
points="18471,18255
17591,18255
17591,17255
18471,17255
18471,18255
" /> 
</g>
<g style="fill:#000000; fill-opacity:1.0; 
stroke:#000000; stroke-width:880; stroke-opacity:1; 
stroke-linecap:round; stroke-linejoin:round;">
</g>
<g style="fill:#000000; fill-opacity:0.0; 
stroke:#000000; stroke-width:880; stroke-opacity:1; 
stroke-linecap:round; stroke-linejoin:round;">
<path d="M19031 17815
L19031 17695
" />
<path d="M20031 17815
L20031 17695
" />
<path d="M21031 17815
L21031 17695
" />
<path d="M22031 17815
L22031 17695
" />
<path d="M23031 17815
L23031 17695
" />
</g>
<g style="fill:#000000; fill-opacity:0.0; 
stroke:#000000; stroke-width:0; stroke-opacity:1; 
stroke-linecap:round; stroke-linejoin:round;">
</g>
<g style="fill:#000000; fill-opacity:1.0; 
stroke:#000000; stroke-width:0; stroke-opacity:1; 
stroke-linecap:round; stroke-linejoin:round;">
<polyline style="fill-rule:evenodd;"
points="39126,18654
40006,18654
40006,19534
39126,19534
39126,18654
" /> 
</g>
<g style="fill:#000000; fill-opacity:1.0; 
stroke:#000000; stroke-width:880; stroke-opacity:1; 
stroke-linecap:round; stroke-linejoin:round;">
</g>
<g style="fill:#000000; fill-opacity:0.0; 
stroke:#000000; stroke-width:880; stroke-opacity:1; 
stroke-linecap:round; stroke-linejoin:round;">
<path d="M39566 20094
L39566 20094
" />
<path d="M38566 19094
L38566 19094
" />
<path d="M38566 20094
L38566 20094
" />
<path d="M37566 19094
L37566 19094
" />
<path d="M37566 20094
L37566 20094
" />
</g>
<g style="fill:#000000; fill-opacity:1.0; 
stroke:#000000; stroke-width:0; stroke-opacity:1; 
stroke-linecap:round; stroke-linejoin:round;">
<circle cx="26299.3" cy="20334.8" r="375" /> 
</g>
<g style="fill:#000000; fill-opacity:1.0; 
stroke:#000000; stroke-width:39.3701; stroke-opacity:1; 
stroke-linecap:round; stroke-linejoin:round;">
</g>
<g style="fill:#000000; fill-opacity:1.0; 
stroke:#000000; stroke-width:0; stroke-opacity:1; 
stroke-linecap:round; stroke-linejoin:round;">
<circle cx="26299.3" cy="18562.8" r="375" /> 
</g>
<g style="fill:#000000; fill-opacity:1.0; 
stroke:#000000; stroke-width:39.3701; stroke-opacity:1; 
stroke-linecap:round; stroke-linejoin:round;">
</g>
<g style="fill:#000000; fill-opacity:1.0; 
stroke:#000000; stroke-width:0; stroke-opacity:1; 
stroke-linecap:round; stroke-linejoin:round;">
<circle cx="28661.3" cy="20334.8" r="375" /> 
</g>
<g style="fill:#000000; fill-opacity:1.0; 
stroke:#000000; stroke-width:39.3701; stroke-opacity:1; 
stroke-linecap:round; stroke-linejoin:round;">
</g>
<g style="fill:#000000; fill-opacity:1.0; 
stroke:#000000; stroke-width:0; stroke-opacity:1; 
stroke-linecap:round; stroke-linejoin:round;">
<circle cx="28661.3" cy="18562.8" r="375" /> 
</g>
<g style="fill:#000000; fill-opacity:1.0; 
stroke:#000000; stroke-width:39.3701; stroke-opacity:1; 
stroke-linecap:round; stroke-linejoin:round;">
</g>
<g style="fill:#000000; fill-opacity:1.0; 
stroke:#000000; stroke-width:0; stroke-opacity:1; 
stroke-linecap:round; stroke-linejoin:round;">
<polyline style="fill-rule:evenodd;"
points="40114,24457
40114,25107
39714,25107
39714,24457
40114,24457
" /> 
<polyline style="fill-rule:evenodd;"
points="39614,24457
39614,25107
39214,25107
39214,24457
39614,24457
" /> 
<polyline style="fill-rule:evenodd;"
points="39114,24457
39114,25107
38714,25107
38714,24457
39114,24457
" /> 
<polyline style="fill-rule:evenodd;"
points="38614,24457
38614,25107
38214,25107
38214,24457
38614,24457
" /> 
<polyline style="fill-rule:evenodd;"
points="38114,24457
38114,25107
37714,25107
37714,24457
38114,24457
" /> 
<polyline style="fill-rule:evenodd;"
points="37614,24457
37614,25107
37214,25107
37214,24457
37614,24457
" /> 
<polyline style="fill-rule:evenodd;"
points="37114,24457
37114,25107
36714,25107
36714,24457
37114,24457
" /> 
<polyline style="fill-rule:evenodd;"
points="36614,24457
36614,25107
36214,25107
36214,24457
36614,24457
" /> 
<polyline style="fill-rule:evenodd;"
points="36614,22457
36614,23107
36214,23107
36214,22457
36614,22457
" /> 
<polyline style="fill-rule:evenodd;"
points="37114,22457
37114,23107
36714,23107
36714,22457
37114,22457
" /> 
<polyline style="fill-rule:evenodd;"
points="37614,22457
37614,23107
37214,23107
37214,22457
37614,22457
" /> 
<polyline style="fill-rule:evenodd;"
points="38114,22457
38114,23107
37714,23107
37714,22457
38114,22457
" /> 
<polyline style="fill-rule:evenodd;"
points="38614,22457
38614,23107
38214,23107
38214,22457
38614,22457
" /> 
<polyline style="fill-rule:evenodd;"
points="39114,22457
39114,23107
38714,23107
38714,22457
39114,22457
" /> 
<polyline style="fill-rule:evenodd;"
points="39614,22457
39614,23107
39214,23107
39214,22457
39614,22457
" /> 
<polyline style="fill-rule:evenodd;"
points="40114,22457
40114,23107
39714,23107
39714,22457
40114,22457
" /> 
<polyline style="fill-rule:evenodd;"
points="34114,24507
34114,25157
33714,25157
33714,24507
34114,24507
" /> 
<polyline style="fill-rule:evenodd;"
points="33614,24507
33614,25157
33214,25157
33214,24507
33614,24507
" /> 
<polyline style="fill-rule:evenodd;"
points="33114,24507
33114,25157
32714,25157
32714,24507
33114,24507
" /> 
<polyline style="fill-rule:evenodd;"
points="32614,24507
32614,25157
32214,25157
32214,24507
32614,24507
" /> 
<polyline style="fill-rule:evenodd;"
points="32114,24507
32114,25157
31714,25157
31714,24507
32114,24507
" /> 
<polyline style="fill-rule:evenodd;"
points="31614,24507
31614,25157
31214,25157
31214,24507
31614,24507
" /> 
<polyline style="fill-rule:evenodd;"
points="31114,24507
31114,25157
30714,25157
30714,24507
31114,24507
" /> 
<polyline style="fill-rule:evenodd;"
points="30614,24507
30614,25157
30214,25157
30214,24507
30614,24507
" /> 
<polyline style="fill-rule:evenodd;"
points="30614,22507
30614,23157
30214,23157
30214,22507
30614,22507
" /> 
<polyline style="fill-rule:evenodd;"
points="31114,22507
31114,23157
30714,23157
30714,22507
31114,22507
" /> 
<polyline style="fill-rule:evenodd;"
points="31614,22507
31614,23157
31214,23157
31214,22507
31614,22507
" /> 
<polyline style="fill-rule:evenodd;"
points="32114,22507
32114,23157
31714,23157
31714,22507
32114,22507
" /> 
<polyline style="fill-rule:evenodd;"
points="32614,22507
32614,23157
32214,23157
32214,22507
32614,22507
" /> 
<polyline style="fill-rule:evenodd;"
points="33114,22507
33114,23157
32714,23157
32714,22507
33114,22507
" /> 
<polyline style="fill-rule:evenodd;"
points="33614,22507
33614,23157
33214,23157
33214,22507
33614,22507
" /> 
<polyline style="fill-rule:evenodd;"
points="34114,22507
34114,23157
33714,23157
33714,22507
34114,22507
" /> 
<polyline style="fill-rule:evenodd;"
points="28114,24507
28114,25157
27714,25157
27714,24507
28114,24507
" /> 
<polyline style="fill-rule:evenodd;"
points="27614,24507
27614,25157
27214,25157
27214,24507
27614,24507
" /> 
<polyline style="fill-rule:evenodd;"
points="27114,24507
27114,25157
26714,25157
26714,24507
27114,24507
" /> 
<polyline style="fill-rule:evenodd;"
points="26614,24507
26614,25157
26214,25157
26214,24507
26614,24507
" /> 
<polyline style="fill-rule:evenodd;"
points="26114,24507
26114,25157
25714,25157
25714,24507
26114,24507
" /> 
<polyline style="fill-rule:evenodd;"
points="25614,24507
25614,25157
25214,25157
25214,24507
25614,24507
" /> 
<polyline style="fill-rule:evenodd;"
points="25114,24507
25114,25157
24714,25157
24714,24507
25114,24507
" /> 
<polyline style="fill-rule:evenodd;"
points="24614,24507
24614,25157
24214,25157
24214,24507
24614,24507
" /> 
<polyline style="fill-rule:evenodd;"
points="24614,22507
24614,23157
24214,23157
24214,22507
24614,22507
" /> 
<polyline style="fill-rule:evenodd;"
points="25114,22507
25114,23157
24714,23157
24714,22507
25114,22507
" /> 
<polyline style="fill-rule:evenodd;"
points="25614,22507
25614,23157
25214,23157
25214,22507
25614,22507
" /> 
<polyline style="fill-rule:evenodd;"
points="26114,22507
26114,23157
25714,23157
25714,22507
26114,22507
" /> 
<polyline style="fill-rule:evenodd;"
points="26614,22507
26614,23157
26214,23157
26214,22507
26614,22507
" /> 
<polyline style="fill-rule:evenodd;"
points="27114,22507
27114,23157
26714,23157
26714,22507
27114,22507
" /> 
<polyline style="fill-rule:evenodd;"
points="27614,22507
27614,23157
27214,23157
27214,22507
27614,22507
" /> 
<polyline style="fill-rule:evenodd;"
points="28114,22507
28114,23157
27714,23157
27714,22507
28114,22507
" /> 
<polyline style="fill-rule:evenodd;"
points="22114,24507
22114,25157
21714,25157
21714,24507
22114,24507
" /> 
<polyline style="fill-rule:evenodd;"
points="21614,24507
21614,25157
21214,25157
21214,24507
21614,24507
" /> 
<polyline style="fill-rule:evenodd;"
points="21114,24507
21114,25157
20714,25157
20714,24507
21114,24507
" /> 
<polyline style="fill-rule:evenodd;"
points="20614,24507
20614,25157
20214,25157
20214,24507
20614,24507
" /> 
<polyline style="fill-rule:evenodd;"
points="20114,24507
20114,25157
19714,25157
19714,24507
20114,24507
" /> 
<polyline style="fill-rule:evenodd;"
points="19614,24507
19614,25157
19214,25157
19214,24507
19614,24507
" /> 
<polyline style="fill-rule:evenodd;"
points="19114,24507
19114,25157
18714,25157
18714,24507
19114,24507
" /> 
<polyline style="fill-rule:evenodd;"
points="18614,24507
18614,25157
18214,25157
18214,24507
18614,24507
" /> 
<polyline style="fill-rule:evenodd;"
points="18614,22507
18614,23157
18214,23157
18214,22507
18614,22507
" /> 
<polyline style="fill-rule:evenodd;"
points="19114,22507
19114,23157
18714,23157
18714,22507
19114,22507
" /> 
<polyline style="fill-rule:evenodd;"
points="19614,22507
19614,23157
19214,23157
19214,22507
19614,22507
" /> 
<polyline style="fill-rule:evenodd;"
points="20114,22507
20114,23157
19714,23157
19714,22507
20114,22507
" /> 
<polyline style="fill-rule:evenodd;"
points="20614,22507
20614,23157
20214,23157
20214,22507
20614,22507
" /> 
<polyline style="fill-rule:evenodd;"
points="21114,22507
21114,23157
20714,23157
20714,22507
21114,22507
" /> 
<polyline style="fill-rule:evenodd;"
points="21614,22507
21614,23157
21214,23157
21214,22507
21614,22507
" /> 
<polyline style="fill-rule:evenodd;"
points="22114,22507
22114,23157
21714,23157
21714,22507
22114,22507
" /> 
<polyline style="fill-rule:evenodd;"
points="16114,24507
16114,25157
15714,25157
15714,24507
16114,24507
" /> 
<polyline style="fill-rule:evenodd;"
points="15614,24507
15614,25157
15214,25157
15214,24507
15614,24507
" /> 
<polyline style="fill-rule:evenodd;"
points="15114,24507
15114,25157
14714,25157
14714,24507
15114,24507
" /> 
<polyline style="fill-rule:evenodd;"
points="14614,24507
14614,25157
14214,25157
14214,24507
14614,24507
" /> 
<polyline style="fill-rule:evenodd;"
points="14114,24507
14114,25157
13714,25157
13714,24507
14114,24507
" /> 
<polyline style="fill-rule:evenodd;"
points="13614,24507
13614,25157
13214,25157
13214,24507
13614,24507
" /> 
<polyline style="fill-rule:evenodd;"
points="13114,24507
13114,25157
12714,25157
12714,24507
13114,24507
" /> 
<polyline style="fill-rule:evenodd;"
points="12614,24507
12614,25157
12214,25157
12214,24507
12614,24507
" /> 
<polyline style="fill-rule:evenodd;"
points="12614,22507
12614,23157
12214,23157
12214,22507
12614,22507
" /> 
<polyline style="fill-rule:evenodd;"
points="13114,22507
13114,23157
12714,23157
12714,22507
13114,22507
" /> 
<polyline style="fill-rule:evenodd;"
points="13614,22507
13614,23157
13214,23157
13214,22507
13614,22507
" /> 
<polyline style="fill-rule:evenodd;"
points="14114,22507
14114,23157
13714,23157
13714,22507
14114,22507
" /> 
<polyline style="fill-rule:evenodd;"
points="14614,22507
14614,23157
14214,23157
14214,22507
14614,22507
" /> 
<polyline style="fill-rule:evenodd;"
points="15114,22507
15114,23157
14714,23157
14714,22507
15114,22507
" /> 
<polyline style="fill-rule:evenodd;"
points="15614,22507
15614,23157
15214,23157
15214,22507
15614,22507
" /> 
<polyline style="fill-rule:evenodd;"
points="16114,22507
16114,23157
15714,23157
15714,22507
16114,22507
" /> 
<polyline style="fill-rule:evenodd;"
points="40333,23101
40333,22409
40926,22409
40926,23101
40333,23101
" /> 
<polyline style="fill-rule:evenodd;"
points="41120,23101
41120,22409
41714,22409
41714,23101
41120,23101
" /> 
<polyline style="fill-rule:evenodd;"
points="22380,23180
22380,22488
22974,22488
22974,23180
22380,23180
" /> 
<polyline style="fill-rule:evenodd;"
points="23167,23180
23167,22488
23761,22488
23761,23180
23167,23180
" /> 
<polyline style="fill-rule:evenodd;"
points="34309,23220
34309,22527
34903,22527
34903,23220
34309,23220
" /> 
<polyline style="fill-rule:evenodd;"
points="35096,23220
35096,22527
35690,22527
35690,23220
35096,23220
" /> 
<polyline style="fill-rule:evenodd;"
points="16356,23141
16356,22449
16950,22449
16950,23141
16356,23141
" /> 
<polyline style="fill-rule:evenodd;"
points="17144,23141
17144,22449
17737,22449
17737,23141
17144,23141
" /> 
<polyline style="fill-rule:evenodd;"
points="28364,23180
28364,22488
28958,22488
28958,23180
28364,23180
" /> 
<polyline style="fill-rule:evenodd;"
points="29151,23180
29151,22488
29745,22488
29745,23180
29151,23180
" /> 
<polyline style="fill-rule:evenodd;"
points="33840,18236
33840,18928
33246,18928
33246,18236
33840,18236
" /> 
<polyline style="fill-rule:evenodd;"
points="33052,18236
33052,18928
32459,18928
32459,18236
33052,18236
" /> 
<polyline style="fill-rule:evenodd;"
points="38560,42626
37848,42626
37848,42151
38560,42151
38560,42626
" /> 
<polyline style="fill-rule:evenodd;"
points="38560,41878
37848,41878
37848,41403
38560,41403
38560,41878
" /> 
<polyline style="fill-rule:evenodd;"
points="38520,36915
37808,36915
37808,36439
38520,36439
38520,36915
" /> 
<polyline style="fill-rule:evenodd;"
points="38520,36167
37808,36167
37808,35691
38520,35691
38520,36167
" /> 
<polyline style="fill-rule:evenodd;"
points="32520,42616
31808,42616
31808,42140
32520,42140
32520,42616
" /> 
<polyline style="fill-rule:evenodd;"
points="32520,41868
31808,41868
31808,41392
32520,41392
32520,41868
" /> 
<polyline style="fill-rule:evenodd;"
points="32520,36915
31808,36915
31808,36439
32520,36439
32520,36915
" /> 
<polyline style="fill-rule:evenodd;"
points="32520,36167
31808,36167
31808,35691
32520,35691
32520,36167
" /> 
<polyline style="fill-rule:evenodd;"
points="26520,36915
25808,36915
25808,36439
26520,36439
26520,36915
" /> 
<polyline style="fill-rule:evenodd;"
points="26520,36167
25808,36167
25808,35691
26520,35691
26520,36167
" /> 
<polyline style="fill-rule:evenodd;"
points="20520,42616
19808,42616
19808,42140
20520,42140
20520,42616
" /> 
<polyline style="fill-rule:evenodd;"
points="20520,41868
19808,41868
19808,41392
20520,41392
20520,41868
" /> 
<polyline style="fill-rule:evenodd;"
points="20520,36915
19808,36915
19808,36439
20520,36439
20520,36915
" /> 
<polyline style="fill-rule:evenodd;"
points="20520,36167
19808,36167
19808,35691
20520,35691
20520,36167
" /> 
<polyline style="fill-rule:evenodd;"
points="14725,20375
14014,20375
14014,19900
14725,19900
14725,20375
" /> 
<polyline style="fill-rule:evenodd;"
points="14725,19627
14014,19627
14014,19151
14725,19151
14725,19627
" /> 
<polyline style="fill-rule:evenodd;"
points="14520,42616
13808,42616
13808,42140
14520,42140
14520,42616
" /> 
<polyline style="fill-rule:evenodd;"
points="14520,41868
13808,41868
13808,41392
14520,41392
14520,41868
" /> 
<polyline style="fill-rule:evenodd;"
points="14520,36915
13808,36915
13808,36439
14520,36439
14520,36915
" /> 
<polyline style="fill-rule:evenodd;"
points="14520,36167
13808,36167
13808,35691
14520,35691
14520,36167
" /> 
<polyline style="fill-rule:evenodd;"
points="39308,47093
40020,47093
40020,47568
39308,47568
39308,47093
" /> 
<polyline style="fill-rule:evenodd;"
points="39308,47841
40020,47841
40020,48317
39308,48317
39308,47841
" /> 
<polyline style="fill-rule:evenodd;"
points="38520,48317
37808,48317
37808,47841
38520,47841
38520,48317
" /> 
<polyline style="fill-rule:evenodd;"
points="38520,47568
37808,47568
37808,47093
38520,47093
38520,47568
" /> 
<polyline style="fill-rule:evenodd;"
points="39348,41403
40060,41403
40060,41878
39348,41878
39348,41403
" /> 
<polyline style="fill-rule:evenodd;"
points="39348,42151
40060,42151
40060,42626
39348,42626
39348,42151
" /> 
<polyline style="fill-rule:evenodd;"
points="39308,35691
40020,35691
40020,36167
39308,36167
39308,35691
" /> 
<polyline style="fill-rule:evenodd;"
points="39308,36439
40020,36439
40020,36915
39308,36915
39308,36439
" /> 
<polyline style="fill-rule:evenodd;"
points="39308,29991
40020,29991
40020,30466
39308,30466
39308,29991
" /> 
<polyline style="fill-rule:evenodd;"
points="39308,30739
40020,30739
40020,31214
39308,31214
39308,30739
" /> 
<polyline style="fill-rule:evenodd;"
points="38520,31214
37808,31214
37808,30739
38520,30739
38520,31214
" /> 
<polyline style="fill-rule:evenodd;"
points="38520,30466
37808,30466
37808,29991
38520,29991
38520,30466
" /> 
<polyline style="fill-rule:evenodd;"
points="37020,48317
36308,48317
36308,47841
37020,47841
37020,48317
" /> 
<polyline style="fill-rule:evenodd;"
points="37020,47568
36308,47568
36308,47093
37020,47093
37020,47568
" /> 
<polyline style="fill-rule:evenodd;"
points="37020,42626
36308,42626
36308,42151
37020,42151
37020,42626
" /> 
<polyline style="fill-rule:evenodd;"
points="37020,41878
36308,41878
36308,41403
37020,41403
37020,41878
" /> 
<polyline style="fill-rule:evenodd;"
points="37020,36915
36308,36915
36308,36439
37020,36439
37020,36915
" /> 
<polyline style="fill-rule:evenodd;"
points="37020,36167
36308,36167
36308,35691
37020,35691
37020,36167
" /> 
<polyline style="fill-rule:evenodd;"
points="37020,31214
36308,31214
36308,30739
37020,30739
37020,31214
" /> 
<polyline style="fill-rule:evenodd;"
points="37020,30466
36308,30466
36308,29991
37020,29991
37020,30466
" /> 
<polyline style="fill-rule:evenodd;"
points="32520,48317
31808,48317
31808,47841
32520,47841
32520,48317
" /> 
<polyline style="fill-rule:evenodd;"
points="32520,47568
31808,47568
31808,47093
32520,47093
32520,47568
" /> 
<polyline style="fill-rule:evenodd;"
points="33308,47093
34020,47093
34020,47568
33308,47568
33308,47093
" /> 
<polyline style="fill-rule:evenodd;"
points="33308,47841
34020,47841
34020,48317
33308,48317
33308,47841
" /> 
<polyline style="fill-rule:evenodd;"
points="33308,41392
34020,41392
34020,41868
33308,41868
33308,41392
" /> 
<polyline style="fill-rule:evenodd;"
points="33308,42140
34020,42140
34020,42616
33308,42616
33308,42140
" /> 
<polyline style="fill-rule:evenodd;"
points="33308,35691
34020,35691
34020,36167
33308,36167
33308,35691
" /> 
<polyline style="fill-rule:evenodd;"
points="33308,36439
34020,36439
34020,36915
33308,36915
33308,36439
" /> 
<polyline style="fill-rule:evenodd;"
points="33308,29991
34020,29991
34020,30466
33308,30466
33308,29991
" /> 
<polyline style="fill-rule:evenodd;"
points="33308,30739
34020,30739
34020,31214
33308,31214
33308,30739
" /> 
<polyline style="fill-rule:evenodd;"
points="32520,31214
31808,31214
31808,30739
32520,30739
32520,31214
" /> 
<polyline style="fill-rule:evenodd;"
points="32520,30466
31808,30466
31808,29991
32520,29991
32520,30466
" /> 
<polyline style="fill-rule:evenodd;"
points="31020,48317
30308,48317
30308,47841
31020,47841
31020,48317
" /> 
<polyline style="fill-rule:evenodd;"
points="31020,47568
30308,47568
30308,47093
31020,47093
31020,47568
" /> 
<polyline style="fill-rule:evenodd;"
points="31020,42616
30308,42616
30308,42140
31020,42140
31020,42616
" /> 
<polyline style="fill-rule:evenodd;"
points="31020,41868
30308,41868
30308,41392
31020,41392
31020,41868
" /> 
<polyline style="fill-rule:evenodd;"
points="31020,36915
30308,36915
30308,36439
31020,36439
31020,36915
" /> 
<polyline style="fill-rule:evenodd;"
points="31020,36167
30308,36167
30308,35691
31020,35691
31020,36167
" /> 
<polyline style="fill-rule:evenodd;"
points="31020,31214
30308,31214
30308,30739
31020,30739
31020,31214
" /> 
<polyline style="fill-rule:evenodd;"
points="31020,30466
30308,30466
30308,29991
31020,29991
31020,30466
" /> 
<polyline style="fill-rule:evenodd;"
points="26520,48317
25808,48317
25808,47841
26520,47841
26520,48317
" /> 
<polyline style="fill-rule:evenodd;"
points="26520,47568
25808,47568
25808,47093
26520,47093
26520,47568
" /> 
<polyline style="fill-rule:evenodd;"
points="27308,47093
28020,47093
28020,47568
27308,47568
27308,47093
" /> 
<polyline style="fill-rule:evenodd;"
points="27308,47841
28020,47841
28020,48317
27308,48317
27308,47841
" /> 
<polyline style="fill-rule:evenodd;"
points="27308,41392
28020,41392
28020,41868
27308,41868
27308,41392
" /> 
<polyline style="fill-rule:evenodd;"
points="27308,42140
28020,42140
28020,42616
27308,42616
27308,42140
" /> 
<polyline style="fill-rule:evenodd;"
points="27308,35691
28020,35691
28020,36167
27308,36167
27308,35691
" /> 
<polyline style="fill-rule:evenodd;"
points="27308,36439
28020,36439
28020,36915
27308,36915
27308,36439
" /> 
<polyline style="fill-rule:evenodd;"
points="27308,29991
28020,29991
28020,30466
27308,30466
27308,29991
" /> 
<polyline style="fill-rule:evenodd;"
points="27308,30739
28020,30739
28020,31214
27308,31214
27308,30739
" /> 
<polyline style="fill-rule:evenodd;"
points="26520,31214
25808,31214
25808,30739
26520,30739
26520,31214
" /> 
<polyline style="fill-rule:evenodd;"
points="26520,30466
25808,30466
25808,29991
26520,29991
26520,30466
" /> 
<polyline style="fill-rule:evenodd;"
points="25020,48317
24308,48317
24308,47841
25020,47841
25020,48317
" /> 
<polyline style="fill-rule:evenodd;"
points="25020,47568
24308,47568
24308,47093
25020,47093
25020,47568
" /> 
<polyline style="fill-rule:evenodd;"
points="25020,42616
24308,42616
24308,42140
25020,42140
25020,42616
" /> 
<polyline style="fill-rule:evenodd;"
points="25020,41868
24308,41868
24308,41392
25020,41392
25020,41868
" /> 
<polyline style="fill-rule:evenodd;"
points="25020,36915
24308,36915
24308,36439
25020,36439
25020,36915
" /> 
<polyline style="fill-rule:evenodd;"
points="25020,36167
24308,36167
24308,35691
25020,35691
25020,36167
" /> 
<polyline style="fill-rule:evenodd;"
points="25020,31214
24308,31214
24308,30739
25020,30739
25020,31214
" /> 
<polyline style="fill-rule:evenodd;"
points="25020,30466
24308,30466
24308,29991
25020,29991
25020,30466
" /> 
<polyline style="fill-rule:evenodd;"
points="20520,48317
19808,48317
19808,47841
20520,47841
20520,48317
" /> 
<polyline style="fill-rule:evenodd;"
points="20520,47568
19808,47568
19808,47093
20520,47093
20520,47568
" /> 
<polyline style="fill-rule:evenodd;"
points="21308,47093
22020,47093
22020,47568
21308,47568
21308,47093
" /> 
<polyline style="fill-rule:evenodd;"
points="21308,47841
22020,47841
22020,48317
21308,48317
21308,47841
" /> 
<polyline style="fill-rule:evenodd;"
points="21308,41392
22020,41392
22020,41868
21308,41868
21308,41392
" /> 
<polyline style="fill-rule:evenodd;"
points="21308,42140
22020,42140
22020,42616
21308,42616
21308,42140
" /> 
<polyline style="fill-rule:evenodd;"
points="21308,35691
22020,35691
22020,36167
21308,36167
21308,35691
" /> 
<polyline style="fill-rule:evenodd;"
points="21308,36439
22020,36439
22020,36915
21308,36915
21308,36439
" /> 
<polyline style="fill-rule:evenodd;"
points="21308,29991
22020,29991
22020,30466
21308,30466
21308,29991
" /> 
<polyline style="fill-rule:evenodd;"
points="21308,30739
22020,30739
22020,31214
21308,31214
21308,30739
" /> 
<polyline style="fill-rule:evenodd;"
points="20520,31214
19808,31214
19808,30739
20520,30739
20520,31214
" /> 
<polyline style="fill-rule:evenodd;"
points="20520,30466
19808,30466
19808,29991
20520,29991
20520,30466
" /> 
<polyline style="fill-rule:evenodd;"
points="19020,48317
18308,48317
18308,47841
19020,47841
19020,48317
" /> 
<polyline style="fill-rule:evenodd;"
points="19020,47568
18308,47568
18308,47093
19020,47093
19020,47568
" /> 
<polyline style="fill-rule:evenodd;"
points="19020,42616
18308,42616
18308,42140
19020,42140
19020,42616
" /> 
<polyline style="fill-rule:evenodd;"
points="19020,41868
18308,41868
18308,41392
19020,41392
19020,41868
" /> 
<polyline style="fill-rule:evenodd;"
points="19020,36915
18308,36915
18308,36439
19020,36439
19020,36915
" /> 
<polyline style="fill-rule:evenodd;"
points="19020,36167
18308,36167
18308,35691
19020,35691
19020,36167
" /> 
<polyline style="fill-rule:evenodd;"
points="19020,31214
18308,31214
18308,30739
19020,30739
19020,31214
" /> 
<polyline style="fill-rule:evenodd;"
points="19020,30466
18308,30466
18308,29991
19020,29991
19020,30466
" /> 
<polyline style="fill-rule:evenodd;"
points="15308,47093
16020,47093
16020,47568
15308,47568
15308,47093
" /> 
<polyline style="fill-rule:evenodd;"
points="15308,47841
16020,47841
16020,48317
15308,48317
15308,47841
" /> 
<polyline style="fill-rule:evenodd;"
points="14520,48317
13808,48317
13808,47841
14520,47841
14520,48317
" /> 
<polyline style="fill-rule:evenodd;"
points="14520,47568
13808,47568
13808,47093
14520,47093
14520,47568
" /> 
<polyline style="fill-rule:evenodd;"
points="15308,41392
16020,41392
16020,41868
15308,41868
15308,41392
" /> 
<polyline style="fill-rule:evenodd;"
points="15308,42140
16020,42140
16020,42616
15308,42616
15308,42140
" /> 
<polyline style="fill-rule:evenodd;"
points="15308,35691
16020,35691
16020,36167
15308,36167
15308,35691
" /> 
<polyline style="fill-rule:evenodd;"
points="15308,36439
16020,36439
16020,36915
15308,36915
15308,36439
" /> 
<polyline style="fill-rule:evenodd;"
points="15308,29991
16020,29991
16020,30466
15308,30466
15308,29991
" /> 
<polyline style="fill-rule:evenodd;"
points="15308,30739
16020,30739
16020,31214
15308,31214
15308,30739
" /> 
<polyline style="fill-rule:evenodd;"
points="14520,31214
13808,31214
13808,30739
14520,30739
14520,31214
" /> 
<polyline style="fill-rule:evenodd;"
points="14520,30466
13808,30466
13808,29991
14520,29991
14520,30466
" /> 
<polyline style="fill-rule:evenodd;"
points="13020,48317
12308,48317
12308,47841
13020,47841
13020,48317
" /> 
<polyline style="fill-rule:evenodd;"
points="13020,47568
12308,47568
12308,47093
13020,47093
13020,47568
" /> 
<polyline style="fill-rule:evenodd;"
points="13020,42616
12308,42616
12308,42140
13020,42140
13020,42616
" /> 
<polyline style="fill-rule:evenodd;"
points="13020,41868
12308,41868
12308,41392
13020,41392
13020,41868
" /> 
<polyline style="fill-rule:evenodd;"
points="13020,36915
12308,36915
12308,36439
13020,36439
13020,36915
" /> 
<polyline style="fill-rule:evenodd;"
points="13020,36167
12308,36167
12308,35691
13020,35691
13020,36167
" /> 
<polyline style="fill-rule:evenodd;"
points="13020,31214
12308,31214
12308,30739
13020,30739
13020,31214
" /> 
<polyline style="fill-rule:evenodd;"
points="13020,30466
12308,30466
12308,29991
13020,29991
13020,30466
" /> 
<polyline style="fill-rule:evenodd;"
points="20518,19520
20518,20400
19638,20400
19638,19520
20518,19520
" /> 
</g>
<g style="fill:#000000; fill-opacity:1.0; 
stroke:#000000; stroke-width:880; stroke-opacity:1; 
stroke-linecap:round; stroke-linejoin:round;">
</g>
<g style="fill:#000000; fill-opacity:0.0; 
stroke:#000000; stroke-width:880; stroke-opacity:1; 
stroke-linecap:round; stroke-linejoin:round;">
<path d="M19078 19960
L19078 19960
" />
</g>
<g style="fill:#000000; fill-opacity:0.0; 
stroke:#000000; stroke-width:0; stroke-opacity:1; 
stroke-linecap:round; stroke-linejoin:round;">
</g>
<g style="fill:#000000; fill-opacity:1.0; 
stroke:#000000; stroke-width:0; stroke-opacity:1; 
stroke-linecap:round; stroke-linejoin:round;">
<polyline style="fill-rule:evenodd;"
points="24607,52183
24607,53485
24211,53485
24211,52183
24607,52183
" /> 
<polyline style="fill-rule:evenodd;"
points="24292,52183
24292,53485
23896,53485
23896,52183
24292,52183
" /> 
<polyline style="fill-rule:evenodd;"
points="23662,52183
23662,53485
23266,53485
23266,52183
23662,52183
" /> 
<polyline style="fill-rule:evenodd;"
points="23977,52183
23977,53485
23581,53485
23581,52183
23977,52183
" /> 
<polyline style="fill-rule:evenodd;"
points="22718,52183
22718,53485
22321,53485
22321,52183
22718,52183
" /> 
<polyline style="fill-rule:evenodd;"
points="22403,52183
22403,53485
22006,53485
22006,52183
22403,52183
" /> 
<polyline style="fill-rule:evenodd;"
points="23033,52183
23033,53485
22636,53485
22636,52183
23033,52183
" /> 
<polyline style="fill-rule:evenodd;"
points="23348,52183
23348,53485
22951,53485
22951,52183
23348,52183
" /> 
<polyline style="fill-rule:evenodd;"
points="27127,52183
27127,53485
26730,53485
26730,52183
27127,52183
" /> 
<polyline style="fill-rule:evenodd;"
points="26812,52183
26812,53485
26415,53485
26415,52183
26812,52183
" /> 
<polyline style="fill-rule:evenodd;"
points="26182,52183
26182,53485
25785,53485
25785,52183
26182,52183
" /> 
<polyline style="fill-rule:evenodd;"
points="26497,52183
26497,53485
26100,53485
26100,52183
26497,52183
" /> 
<polyline style="fill-rule:evenodd;"
points="25237,52183
25237,53485
24840,53485
24840,52183
25237,52183
" /> 
<polyline style="fill-rule:evenodd;"
points="24922,52183
24922,53485
24525,53485
24525,52183
24922,52183
" /> 
<polyline style="fill-rule:evenodd;"
points="25552,52183
25552,53485
25155,53485
25155,52183
25552,52183
" /> 
<polyline style="fill-rule:evenodd;"
points="25867,52183
25867,53485
25470,53485
25470,52183
25867,52183
" /> 
<polyline style="fill-rule:evenodd;"
points="29647,52183
29647,53485
29250,53485
29250,52183
29647,52183
" /> 
<polyline style="fill-rule:evenodd;"
points="28072,52183
28072,53485
27675,53485
27675,52183
28072,52183
" /> 
<polyline style="fill-rule:evenodd;"
points="27442,52183
27442,53485
27045,53485
27045,52183
27442,52183
" /> 
<polyline style="fill-rule:evenodd;"
points="27757,52183
27757,53485
27360,53485
27360,52183
27757,52183
" /> 
<polyline style="fill-rule:evenodd;"
points="30277,52183
30277,53485
29880,53485
29880,52183
30277,52183
" /> 
<polyline style="fill-rule:evenodd;"
points="29962,52183
29962,53485
29565,53485
29565,52183
29962,52183
" /> 
<polyline style="fill-rule:evenodd;"
points="30592,52183
30592,53485
30195,53485
30195,52183
30592,52183
" /> 
<polyline style="fill-rule:evenodd;"
points="31222,52183
31222,53485
30825,53485
30825,52183
31222,52183
" /> 
<polyline style="fill-rule:evenodd;"
points="30907,52183
30907,53485
30510,53485
30510,52183
30907,52183
" /> 
</g> 
</svg>
