<?xml version="1.0" standalone="no"?>
 <!DOCTYPE svg PUBLIC "-//W3C//DTD SVG 1.1//EN" 
 "http://www.w3.org/Graphics/SVG/1.1/DTD/svg11.dtd"> 
<svg xmlns="http://www.w3.org/2000/svg" version="1.1" 
    width="27.94cm" height="21.59cm" viewBox="0 0 110000 85000 ">
<title>SVG Picture created as 40-channel HV switching board-F.Paste.svg date 2016/09/28 11:01:13 </title>
  <desc>Picture generated by PCBNEW </desc>
<g style="fill:#000000; fill-opacity:1;stroke:#000000; stroke-opacity:1;
stroke-linecap:round; stroke-linejoin:round; "
 transform="translate(0 0) scale(1 1)">
</g>
<g style="fill:#000000; fill-opacity:0.0; 
stroke:#000000; stroke-width:-0.000393701; stroke-opacity:1; 
stroke-linecap:round; stroke-linejoin:round;">
</g>
<g style="fill:#000000; fill-opacity:0.0; 
stroke:#000000; stroke-width:39.3701; stroke-opacity:1; 
stroke-linecap:round; stroke-linejoin:round;">
</g>
<g style="fill:#000000; fill-opacity:0.0; 
stroke:#000000; stroke-width:59.0551; stroke-opacity:1; 
stroke-linecap:round; stroke-linejoin:round;">
<rect x="62755.9" y="67677.2" width="42519.7" height="12598.4" rx="0" />
</g>
<g style="fill:#000000; fill-opacity:0.0; 
stroke:#000000; stroke-width:39.3701; stroke-opacity:1; 
stroke-linecap:round; stroke-linejoin:round;">
</g>
<g style="fill:#000000; fill-opacity:0.0; 
stroke:#000000; stroke-width:59.0551; stroke-opacity:1; 
stroke-linecap:round; stroke-linejoin:round;">
<rect x="3937.01" y="3937.01" width="102126" height="77126" rx="0" />
</g>
<g style="fill:#000000; fill-opacity:0.0; 
stroke:#000000; stroke-width:39.3701; stroke-opacity:1; 
stroke-linecap:round; stroke-linejoin:round;">
</g>
<g style="fill:#000000; fill-opacity:0.0; 
stroke:#000000; stroke-width:59.0551; stroke-opacity:1; 
stroke-linecap:round; stroke-linejoin:round;">
<rect x="4724.41" y="4724.41" width="100551" height="75551.2" rx="0" />
</g>
<g style="fill:#000000; fill-opacity:0.0; 
stroke:#000000; stroke-width:39.3701; stroke-opacity:1; 
stroke-linecap:round; stroke-linejoin:round;">
</g>
<g style="fill:#000000; fill-opacity:0.0; 
stroke:#000000; stroke-width:59.0551; stroke-opacity:1; 
stroke-linecap:round; stroke-linejoin:round;">
<path d="M23622 4724
L23622 3937
" />
</g>
<g style="fill:#000000; fill-opacity:0.0; 
stroke:#000000; stroke-width:39.3701; stroke-opacity:1; 
stroke-linecap:round; stroke-linejoin:round;">
</g>
<g style="fill:#000000; fill-opacity:0.0; 
stroke:#000000; stroke-width:59.0551; stroke-opacity:1; 
stroke-linecap:round; stroke-linejoin:round;">
<path d="M43307 4724
L43307 3937
" />
</g>
<g style="fill:#000000; fill-opacity:0.0; 
stroke:#000000; stroke-width:39.3701; stroke-opacity:1; 
stroke-linecap:round; stroke-linejoin:round;">
</g>
<g style="fill:#000000; fill-opacity:0.0; 
stroke:#000000; stroke-width:59.0551; stroke-opacity:1; 
stroke-linecap:round; stroke-linejoin:round;">
<path d="M62992 4724
L62992 3937
" />
</g>
<g style="fill:#000000; fill-opacity:0.0; 
stroke:#000000; stroke-width:39.3701; stroke-opacity:1; 
stroke-linecap:round; stroke-linejoin:round;">
</g>
<g style="fill:#000000; fill-opacity:0.0; 
stroke:#000000; stroke-width:59.0551; stroke-opacity:1; 
stroke-linecap:round; stroke-linejoin:round;">
<path d="M82677 4724
L82677 3937
" />
</g>
<g style="fill:#000000; fill-opacity:0.0; 
stroke:#000000; stroke-width:39.3701; stroke-opacity:1; 
stroke-linecap:round; stroke-linejoin:round;">
</g>
<g style="fill:#000000; fill-opacity:0.0; 
stroke:#000000; stroke-width:59.0551; stroke-opacity:1; 
stroke-linecap:round; stroke-linejoin:round;">
<path d="M102362 4724
L102362 3937
" />
</g>
<g style="fill:#000000; fill-opacity:0.0; 
stroke:#000000; stroke-width:39.3701; stroke-opacity:1; 
stroke-linecap:round; stroke-linejoin:round;">
</g>
<g style="fill:#000000; fill-opacity:0.0; 
stroke:#000000; stroke-width:59.0551; stroke-opacity:1; 
stroke-linecap:round; stroke-linejoin:round;">
<path d="M14169 4562
L13877 4562
" />
<path d="M14023 4562
L14023 4050
L13974 4123
L13925 4172
L13877 4196
" />
</g>
<g style="fill:#000000; fill-opacity:0.0; 
stroke:#000000; stroke-width:39.3701; stroke-opacity:1; 
stroke-linecap:round; stroke-linejoin:round;">
</g>
<g style="fill:#000000; fill-opacity:0.0; 
stroke:#000000; stroke-width:59.0551; stroke-opacity:1; 
stroke-linecap:round; stroke-linejoin:round;">
<path d="M33562 4099
L33586 4074
L33635 4050
L33757 4050
L33805 4074
L33830 4099
L33854 4147
L33854 4196
L33830 4269
L33537 4562
L33854 4562
" />
</g>
<g style="fill:#000000; fill-opacity:0.0; 
stroke:#000000; stroke-width:39.3701; stroke-opacity:1; 
stroke-linecap:round; stroke-linejoin:round;">
</g>
<g style="fill:#000000; fill-opacity:0.0; 
stroke:#000000; stroke-width:59.0551; stroke-opacity:1; 
stroke-linecap:round; stroke-linejoin:round;">
<path d="M53222 4050
L53539 4050
L53368 4245
L53442 4245
L53490 4269
L53515 4294
L53539 4342
L53539 4464
L53515 4513
L53490 4537
L53442 4562
L53295 4562
L53247 4537
L53222 4513
" />
</g>
<g style="fill:#000000; fill-opacity:0.0; 
stroke:#000000; stroke-width:39.3701; stroke-opacity:1; 
stroke-linecap:round; stroke-linejoin:round;">
</g>
<g style="fill:#000000; fill-opacity:0.0; 
stroke:#000000; stroke-width:59.0551; stroke-opacity:1; 
stroke-linecap:round; stroke-linejoin:round;">
<path d="M73175 4221
L73175 4562
" />
<path d="M73053 4026
L72932 4391
L73248 4391
" />
</g>
<g style="fill:#000000; fill-opacity:0.0; 
stroke:#000000; stroke-width:39.3701; stroke-opacity:1; 
stroke-linecap:round; stroke-linejoin:round;">
</g>
<g style="fill:#000000; fill-opacity:0.0; 
stroke:#000000; stroke-width:59.0551; stroke-opacity:1; 
stroke-linecap:round; stroke-linejoin:round;">
<path d="M92885 4050
L92641 4050
L92617 4294
L92641 4269
L92690 4245
L92812 4245
L92860 4269
L92885 4294
L92909 4342
L92909 4464
L92885 4513
L92860 4537
L92812 4562
L92690 4562
L92641 4537
L92617 4513
" />
</g>
<g style="fill:#000000; fill-opacity:0.0; 
stroke:#000000; stroke-width:39.3701; stroke-opacity:1; 
stroke-linecap:round; stroke-linejoin:round;">
</g>
<g style="fill:#000000; fill-opacity:0.0; 
stroke:#000000; stroke-width:59.0551; stroke-opacity:1; 
stroke-linecap:round; stroke-linejoin:round;">
<path d="M23622 80275
L23622 81062
" />
</g>
<g style="fill:#000000; fill-opacity:0.0; 
stroke:#000000; stroke-width:39.3701; stroke-opacity:1; 
stroke-linecap:round; stroke-linejoin:round;">
</g>
<g style="fill:#000000; fill-opacity:0.0; 
stroke:#000000; stroke-width:59.0551; stroke-opacity:1; 
stroke-linecap:round; stroke-linejoin:round;">
<path d="M43307 80275
L43307 81062
" />
</g>
<g style="fill:#000000; fill-opacity:0.0; 
stroke:#000000; stroke-width:39.3701; stroke-opacity:1; 
stroke-linecap:round; stroke-linejoin:round;">
</g>
<g style="fill:#000000; fill-opacity:0.0; 
stroke:#000000; stroke-width:59.0551; stroke-opacity:1; 
stroke-linecap:round; stroke-linejoin:round;">
<path d="M62992 80275
L62992 81062
" />
</g>
<g style="fill:#000000; fill-opacity:0.0; 
stroke:#000000; stroke-width:39.3701; stroke-opacity:1; 
stroke-linecap:round; stroke-linejoin:round;">
</g>
<g style="fill:#000000; fill-opacity:0.0; 
stroke:#000000; stroke-width:59.0551; stroke-opacity:1; 
stroke-linecap:round; stroke-linejoin:round;">
<path d="M82677 80275
L82677 81062
" />
</g>
<g style="fill:#000000; fill-opacity:0.0; 
stroke:#000000; stroke-width:39.3701; stroke-opacity:1; 
stroke-linecap:round; stroke-linejoin:round;">
</g>
<g style="fill:#000000; fill-opacity:0.0; 
stroke:#000000; stroke-width:59.0551; stroke-opacity:1; 
stroke-linecap:round; stroke-linejoin:round;">
<path d="M102362 80275
L102362 81062
" />
</g>
<g style="fill:#000000; fill-opacity:0.0; 
stroke:#000000; stroke-width:39.3701; stroke-opacity:1; 
stroke-linecap:round; stroke-linejoin:round;">
</g>
<g style="fill:#000000; fill-opacity:0.0; 
stroke:#000000; stroke-width:59.0551; stroke-opacity:1; 
stroke-linecap:round; stroke-linejoin:round;">
<path d="M14169 80900
L13877 80900
" />
<path d="M14023 80900
L14023 80389
L13974 80462
L13925 80510
L13877 80535
" />
</g>
<g style="fill:#000000; fill-opacity:0.0; 
stroke:#000000; stroke-width:39.3701; stroke-opacity:1; 
stroke-linecap:round; stroke-linejoin:round;">
</g>
<g style="fill:#000000; fill-opacity:0.0; 
stroke:#000000; stroke-width:59.0551; stroke-opacity:1; 
stroke-linecap:round; stroke-linejoin:round;">
<path d="M33562 80437
L33586 80413
L33635 80389
L33757 80389
L33805 80413
L33830 80437
L33854 80486
L33854 80535
L33830 80608
L33537 80900
L33854 80900
" />
</g>
<g style="fill:#000000; fill-opacity:0.0; 
stroke:#000000; stroke-width:39.3701; stroke-opacity:1; 
stroke-linecap:round; stroke-linejoin:round;">
</g>
<g style="fill:#000000; fill-opacity:0.0; 
stroke:#000000; stroke-width:59.0551; stroke-opacity:1; 
stroke-linecap:round; stroke-linejoin:round;">
<path d="M53222 80389
L53539 80389
L53368 80583
L53442 80583
L53490 80608
L53515 80632
L53539 80681
L53539 80803
L53515 80852
L53490 80876
L53442 80900
L53295 80900
L53247 80876
L53222 80852
" />
</g>
<g style="fill:#000000; fill-opacity:0.0; 
stroke:#000000; stroke-width:39.3701; stroke-opacity:1; 
stroke-linecap:round; stroke-linejoin:round;">
</g>
<g style="fill:#000000; fill-opacity:0.0; 
stroke:#000000; stroke-width:59.0551; stroke-opacity:1; 
stroke-linecap:round; stroke-linejoin:round;">
<path d="M73175 80559
L73175 80900
" />
<path d="M73053 80364
L72932 80730
L73248 80730
" />
</g>
<g style="fill:#000000; fill-opacity:0.0; 
stroke:#000000; stroke-width:39.3701; stroke-opacity:1; 
stroke-linecap:round; stroke-linejoin:round;">
</g>
<g style="fill:#000000; fill-opacity:0.0; 
stroke:#000000; stroke-width:59.0551; stroke-opacity:1; 
stroke-linecap:round; stroke-linejoin:round;">
<path d="M92885 80389
L92641 80389
L92617 80632
L92641 80608
L92690 80583
L92812 80583
L92860 80608
L92885 80632
L92909 80681
L92909 80803
L92885 80852
L92860 80876
L92812 80900
L92690 80900
L92641 80876
L92617 80852
" />
</g>
<g style="fill:#000000; fill-opacity:0.0; 
stroke:#000000; stroke-width:39.3701; stroke-opacity:1; 
stroke-linecap:round; stroke-linejoin:round;">
</g>
<g style="fill:#000000; fill-opacity:0.0; 
stroke:#000000; stroke-width:59.0551; stroke-opacity:1; 
stroke-linecap:round; stroke-linejoin:round;">
<path d="M3937 23622
L4724 23622
" />
</g>
<g style="fill:#000000; fill-opacity:0.0; 
stroke:#000000; stroke-width:39.3701; stroke-opacity:1; 
stroke-linecap:round; stroke-linejoin:round;">
</g>
<g style="fill:#000000; fill-opacity:0.0; 
stroke:#000000; stroke-width:59.0551; stroke-opacity:1; 
stroke-linecap:round; stroke-linejoin:round;">
<path d="M3937 43307
L4724 43307
" />
</g>
<g style="fill:#000000; fill-opacity:0.0; 
stroke:#000000; stroke-width:39.3701; stroke-opacity:1; 
stroke-linecap:round; stroke-linejoin:round;">
</g>
<g style="fill:#000000; fill-opacity:0.0; 
stroke:#000000; stroke-width:59.0551; stroke-opacity:1; 
stroke-linecap:round; stroke-linejoin:round;">
<path d="M3937 62992
L4724 62992
" />
</g>
<g style="fill:#000000; fill-opacity:0.0; 
stroke:#000000; stroke-width:39.3701; stroke-opacity:1; 
stroke-linecap:round; stroke-linejoin:round;">
</g>
<g style="fill:#000000; fill-opacity:0.0; 
stroke:#000000; stroke-width:59.0551; stroke-opacity:1; 
stroke-linecap:round; stroke-linejoin:round;">
<path d="M4208 13864
L4452 13864
" />
<path d="M4160 14011
L4330 13499
L4501 14011
" />
</g>
<g style="fill:#000000; fill-opacity:0.0; 
stroke:#000000; stroke-width:39.3701; stroke-opacity:1; 
stroke-linecap:round; stroke-linejoin:round;">
</g>
<g style="fill:#000000; fill-opacity:0.0; 
stroke:#000000; stroke-width:59.0551; stroke-opacity:1; 
stroke-linecap:round; stroke-linejoin:round;">
<path d="M4367 33428
L4440 33452
L4464 33476
L4489 33525
L4489 33598
L4464 33647
L4440 33671
L4391 33696
L4196 33696
L4196 33184
L4367 33184
L4416 33208
L4440 33233
L4464 33281
L4464 33330
L4440 33379
L4416 33403
L4367 33428
L4196 33428
" />
</g>
<g style="fill:#000000; fill-opacity:0.0; 
stroke:#000000; stroke-width:39.3701; stroke-opacity:1; 
stroke-linecap:round; stroke-linejoin:round;">
</g>
<g style="fill:#000000; fill-opacity:0.0; 
stroke:#000000; stroke-width:59.0551; stroke-opacity:1; 
stroke-linecap:round; stroke-linejoin:round;">
<path d="M4489 53332
L4464 53356
L4391 53381
L4342 53381
L4269 53356
L4221 53308
L4196 53259
L4172 53161
L4172 53088
L4196 52991
L4221 52942
L4269 52893
L4342 52869
L4391 52869
L4464 52893
L4489 52918
" />
</g>
<g style="fill:#000000; fill-opacity:0.0; 
stroke:#000000; stroke-width:39.3701; stroke-opacity:1; 
stroke-linecap:round; stroke-linejoin:round;">
</g>
<g style="fill:#000000; fill-opacity:0.0; 
stroke:#000000; stroke-width:59.0551; stroke-opacity:1; 
stroke-linecap:round; stroke-linejoin:round;">
<path d="M4196 73066
L4196 72554
L4318 72554
L4391 72578
L4440 72627
L4464 72676
L4489 72773
L4489 72846
L4464 72944
L4440 72993
L4391 73041
L4318 73066
L4196 73066
" />
</g>
<g style="fill:#000000; fill-opacity:0.0; 
stroke:#000000; stroke-width:39.3701; stroke-opacity:1; 
stroke-linecap:round; stroke-linejoin:round;">
</g>
<g style="fill:#000000; fill-opacity:0.0; 
stroke:#000000; stroke-width:59.0551; stroke-opacity:1; 
stroke-linecap:round; stroke-linejoin:round;">
<path d="M106062 23622
L105275 23622
" />
</g>
<g style="fill:#000000; fill-opacity:0.0; 
stroke:#000000; stroke-width:39.3701; stroke-opacity:1; 
stroke-linecap:round; stroke-linejoin:round;">
</g>
<g style="fill:#000000; fill-opacity:0.0; 
stroke:#000000; stroke-width:59.0551; stroke-opacity:1; 
stroke-linecap:round; stroke-linejoin:round;">
<path d="M106062 43307
L105275 43307
" />
</g>
<g style="fill:#000000; fill-opacity:0.0; 
stroke:#000000; stroke-width:39.3701; stroke-opacity:1; 
stroke-linecap:round; stroke-linejoin:round;">
</g>
<g style="fill:#000000; fill-opacity:0.0; 
stroke:#000000; stroke-width:59.0551; stroke-opacity:1; 
stroke-linecap:round; stroke-linejoin:round;">
<path d="M106062 62992
L105275 62992
" />
</g>
<g style="fill:#000000; fill-opacity:0.0; 
stroke:#000000; stroke-width:39.3701; stroke-opacity:1; 
stroke-linecap:round; stroke-linejoin:round;">
</g>
<g style="fill:#000000; fill-opacity:0.0; 
stroke:#000000; stroke-width:59.0551; stroke-opacity:1; 
stroke-linecap:round; stroke-linejoin:round;">
<path d="M105547 13864
L105791 13864
" />
<path d="M105498 14011
L105669 13499
L105839 14011
" />
</g>
<g style="fill:#000000; fill-opacity:0.0; 
stroke:#000000; stroke-width:39.3701; stroke-opacity:1; 
stroke-linecap:round; stroke-linejoin:round;">
</g>
<g style="fill:#000000; fill-opacity:0.0; 
stroke:#000000; stroke-width:59.0551; stroke-opacity:1; 
stroke-linecap:round; stroke-linejoin:round;">
<path d="M105705 33428
L105778 33452
L105803 33476
L105827 33525
L105827 33598
L105803 33647
L105778 33671
L105730 33696
L105535 33696
L105535 33184
L105705 33184
L105754 33208
L105778 33233
L105803 33281
L105803 33330
L105778 33379
L105754 33403
L105705 33428
L105535 33428
" />
</g>
<g style="fill:#000000; fill-opacity:0.0; 
stroke:#000000; stroke-width:39.3701; stroke-opacity:1; 
stroke-linecap:round; stroke-linejoin:round;">
</g>
<g style="fill:#000000; fill-opacity:0.0; 
stroke:#000000; stroke-width:59.0551; stroke-opacity:1; 
stroke-linecap:round; stroke-linejoin:round;">
<path d="M105827 53332
L105803 53356
L105730 53381
L105681 53381
L105608 53356
L105559 53308
L105535 53259
L105510 53161
L105510 53088
L105535 52991
L105559 52942
L105608 52893
L105681 52869
L105730 52869
L105803 52893
L105827 52918
" />
</g>
<g style="fill:#000000; fill-opacity:0.0; 
stroke:#000000; stroke-width:39.3701; stroke-opacity:1; 
stroke-linecap:round; stroke-linejoin:round;">
</g>
<g style="fill:#000000; fill-opacity:0.0; 
stroke:#000000; stroke-width:59.0551; stroke-opacity:1; 
stroke-linecap:round; stroke-linejoin:round;">
<path d="M105535 73066
L105535 72554
L105657 72554
L105730 72578
L105778 72627
L105803 72676
L105827 72773
L105827 72846
L105803 72944
L105778 72993
L105730 73041
L105657 73066
L105535 73066
" />
</g>
<g style="fill:#000000; fill-opacity:0.0; 
stroke:#000000; stroke-width:39.3701; stroke-opacity:1; 
stroke-linecap:round; stroke-linejoin:round;">
</g>
<g style="fill:#000000; fill-opacity:0.0; 
stroke:#000000; stroke-width:59.0551; stroke-opacity:1; 
stroke-linecap:round; stroke-linejoin:round;">
<path d="M71951 78613
L71951 78023
L72092 78023
L72176 78051
L72232 78107
L72260 78163
L72289 78276
L72289 78360
L72260 78473
L72232 78529
L72176 78585
L72092 78613
L71951 78613
" />
<path d="M72795 78613
L72795 78304
L72767 78248
L72710 78219
L72598 78219
L72542 78248
" />
<path d="M72795 78585
L72739 78613
L72598 78613
L72542 78585
L72514 78529
L72514 78473
L72542 78416
L72598 78388
L72739 78388
L72795 78360
" />
<path d="M72992 78219
L73217 78219
" />
<path d="M73076 78023
L73076 78529
L73104 78585
L73160 78613
L73217 78613
" />
<path d="M73638 78585
L73582 78613
L73470 78613
L73413 78585
L73385 78529
L73385 78304
L73413 78248
L73470 78219
L73582 78219
L73638 78248
L73667 78304
L73667 78360
L73385 78416
" />
<path d="M73920 78557
L73948 78585
L73920 78613
L73892 78585
L73920 78557
L73920 78613
" />
<path d="M73920 78248
L73948 78276
L73920 78304
L73892 78276
L73920 78248
L73920 78304
" />
<path d="M74623 78079
L74651 78051
L74707 78023
L74848 78023
L74904 78051
L74932 78079
L74960 78135
L74960 78191
L74932 78276
L74595 78613
L74960 78613
" />
<path d="M75326 78023
L75382 78023
L75438 78051
L75466 78079
L75494 78135
L75523 78248
L75523 78388
L75494 78501
L75466 78557
L75438 78585
L75382 78613
L75326 78613
L75269 78585
L75241 78557
L75213 78501
L75185 78388
L75185 78248
L75213 78135
L75241 78079
L75269 78051
L75326 78023
" />
<path d="M76085 78613
L75748 78613
" />
<path d="M75916 78613
L75916 78023
L75860 78107
L75804 78163
L75748 78191
" />
<path d="M76591 78023
L76479 78023
L76422 78051
L76394 78079
L76338 78163
L76310 78276
L76310 78501
L76338 78557
L76366 78585
L76422 78613
L76535 78613
L76591 78585
L76619 78557
L76647 78501
L76647 78360
L76619 78304
L76591 78276
L76535 78248
L76422 78248
L76366 78276
L76338 78304
L76310 78360
" />
<path d="M76901 78388
L77350 78388
" />
<path d="M77744 78023
L77800 78023
L77857 78051
L77885 78079
L77913 78135
L77941 78248
L77941 78388
L77913 78501
L77885 78557
L77857 78585
L77800 78613
L77744 78613
L77688 78585
L77660 78557
L77632 78501
L77604 78388
L77604 78248
L77632 78135
L77660 78079
L77688 78051
L77744 78023
" />
<path d="M78222 78613
L78335 78613
L78391 78585
L78419 78557
L78475 78473
L78503 78360
L78503 78135
L78475 78079
L78447 78051
L78391 78023
L78278 78023
L78222 78051
L78194 78079
L78166 78135
L78166 78276
L78194 78332
L78222 78360
L78278 78388
L78391 78388
L78447 78360
L78475 78332
L78503 78276
" />
<path d="M78757 78388
L79206 78388
" />
<path d="M79460 78079
L79488 78051
L79544 78023
L79685 78023
L79741 78051
L79769 78079
L79797 78135
L79797 78191
L79769 78276
L79431 78613
L79797 78613
" />
<path d="M80134 78276
L80078 78248
L80050 78219
L80022 78163
L80022 78135
L80050 78079
L80078 78051
L80134 78023
L80247 78023
L80303 78051
L80331 78079
L80359 78135
L80359 78163
L80331 78219
L80303 78248
L80247 78276
L80134 78276
L80078 78304
L80050 78332
L80022 78388
L80022 78501
L80050 78557
L80078 78585
L80134 78613
L80247 78613
L80303 78585
L80331 78557
L80359 78501
L80359 78388
L80331 78332
L80303 78304
L80247 78276
" />
</g>
<g style="fill:#000000; fill-opacity:0.0; 
stroke:#000000; stroke-width:39.3701; stroke-opacity:1; 
stroke-linecap:round; stroke-linejoin:round;">
</g>
<g style="fill:#000000; fill-opacity:0.0; 
stroke:#000000; stroke-width:59.0551; stroke-opacity:1; 
stroke-linecap:round; stroke-linejoin:round;">
<path d="M62755 78897
L105275 78897
" />
</g>
<g style="fill:#000000; fill-opacity:0.0; 
stroke:#000000; stroke-width:39.3701; stroke-opacity:1; 
stroke-linecap:round; stroke-linejoin:round;">
</g>
<g style="fill:#000000; fill-opacity:0.0; 
stroke:#000000; stroke-width:59.0551; stroke-opacity:1; 
stroke-linecap:round; stroke-linejoin:round;">
<path d="M63290 79715
L63290 79125
" />
<path d="M63627 79715
L63374 79378
" />
<path d="M63627 79125
L63290 79462
" />
<path d="M63880 79715
L63880 79322
" />
<path d="M63880 79125
L63852 79153
L63880 79181
L63908 79153
L63880 79125
L63880 79181
" />
<path d="M64499 79659
L64471 79687
L64386 79715
L64330 79715
L64246 79687
L64190 79631
L64161 79575
L64133 79462
L64133 79378
L64161 79266
L64190 79209
L64246 79153
L64330 79125
L64386 79125
L64471 79153
L64499 79181
" />
<path d="M65005 79715
L65005 79406
L64977 79350
L64921 79322
L64808 79322
L64752 79350
" />
<path d="M65005 79687
L64949 79715
L64808 79715
L64752 79687
L64724 79631
L64724 79575
L64752 79519
L64808 79491
L64949 79491
L65005 79462
" />
<path d="M65539 79715
L65539 79125
" />
<path d="M65539 79687
L65483 79715
L65371 79715
L65314 79687
L65286 79659
L65258 79603
L65258 79434
L65286 79378
L65314 79350
L65371 79322
L65483 79322
L65539 79350
" />
<path d="M66271 79406
L66467 79406
" />
<path d="M66552 79715
L66271 79715
L66271 79125
L66552 79125
" />
<path d="M66805 79659
L66833 79687
L66805 79715
L66777 79687
L66805 79659
L66805 79715
" />
<path d="M67086 79715
L67086 79125
L67227 79125
L67311 79153
L67367 79209
L67395 79266
L67424 79378
L67424 79462
L67395 79575
L67367 79631
L67311 79687
L67227 79715
L67086 79715
" />
<path d="M67677 79659
L67705 79687
L67677 79715
L67649 79687
L67677 79659
L67677 79715
" />
<path d="M67930 79547
L68211 79547
" />
<path d="M67874 79715
L68070 79125
L68267 79715
" />
<path d="M68464 79659
L68492 79687
L68464 79715
L68436 79687
L68464 79659
L68464 79715
" />
<path d="M69645 79715
L69645 79125
" />
<path d="M69701 79491
L69870 79715
" />
<path d="M69870 79322
L69645 79547
" />
<path d="M70123 79715
L70123 79322
" />
<path d="M70123 79125
L70095 79153
L70123 79181
L70151 79153
L70123 79125
L70123 79181
" />
<path d="M70658 79687
L70601 79715
L70489 79715
L70433 79687
L70404 79659
L70376 79603
L70376 79434
L70404 79378
L70433 79350
L70489 79322
L70601 79322
L70658 79350
" />
<path d="M71164 79715
L71164 79406
L71136 79350
L71079 79322
L70967 79322
L70911 79350
" />
<path d="M71164 79687
L71107 79715
L70967 79715
L70911 79687
L70883 79631
L70883 79575
L70911 79519
L70967 79491
L71107 79491
L71164 79462
" />
<path d="M71698 79715
L71698 79125
" />
<path d="M71698 79687
L71642 79715
L71529 79715
L71473 79687
L71445 79659
L71417 79603
L71417 79434
L71445 79378
L71473 79350
L71529 79322
L71642 79322
L71698 79350
" />
<path d="M72682 79322
L72682 79715
" />
<path d="M72542 79097
L72401 79519
L72767 79519
" />
<path d="M72992 79659
L73020 79687
L72992 79715
L72964 79687
L72992 79659
L72992 79715
" />
<path d="M73385 79125
L73442 79125
L73498 79153
L73526 79181
L73554 79237
L73582 79350
L73582 79491
L73554 79603
L73526 79659
L73498 79687
L73442 79715
L73385 79715
L73329 79687
L73301 79659
L73273 79603
L73245 79491
L73245 79350
L73273 79237
L73301 79181
L73329 79153
L73385 79125
" />
<path d="M73835 79659
L73863 79687
L73835 79715
L73807 79687
L73835 79659
L73835 79715
" />
<path d="M74426 79715
L74088 79715
" />
<path d="M74257 79715
L74257 79125
L74201 79209
L74145 79266
L74088 79294
" />
<path d="M74679 79491
L75129 79491
" />
<path d="M75382 79687
L75438 79715
L75551 79715
L75607 79687
L75635 79631
L75635 79603
L75607 79547
L75551 79519
L75466 79519
L75410 79491
L75382 79434
L75382 79406
L75410 79350
L75466 79322
L75551 79322
L75607 79350
" />
<path d="M75804 79322
L76029 79322
" />
<path d="M75888 79125
L75888 79631
L75916 79687
L75973 79715
L76029 79715
" />
<path d="M76479 79715
L76479 79406
L76451 79350
L76394 79322
L76282 79322
L76226 79350
" />
<path d="M76479 79687
L76422 79715
L76282 79715
L76226 79687
L76197 79631
L76197 79575
L76226 79519
L76282 79491
L76422 79491
L76479 79462
" />
<path d="M76760 79715
L76760 79125
" />
<path d="M76760 79350
L76816 79322
L76929 79322
L76985 79350
L77013 79378
L77041 79434
L77041 79603
L77013 79659
L76985 79687
L76929 79715
L76816 79715
L76760 79687
" />
<path d="M77379 79715
L77322 79687
L77294 79631
L77294 79125
" />
<path d="M77829 79687
L77772 79715
L77660 79715
L77604 79687
L77575 79631
L77575 79406
L77604 79350
L77660 79322
L77772 79322
L77829 79350
L77857 79406
L77857 79462
L77575 79519
" />
</g>
<g style="fill:#000000; fill-opacity:0.0; 
stroke:#000000; stroke-width:39.3701; stroke-opacity:1; 
stroke-linecap:round; stroke-linejoin:round;">
</g>
<g style="fill:#000000; fill-opacity:0.0; 
stroke:#000000; stroke-width:59.0551; stroke-opacity:1; 
stroke-linecap:round; stroke-linejoin:round;">
<path d="M62755 77716
L105275 77716
" />
</g>
<g style="fill:#000000; fill-opacity:0.0; 
stroke:#000000; stroke-width:39.3701; stroke-opacity:1; 
stroke-linecap:round; stroke-linejoin:round;">
</g>
<g style="fill:#000000; fill-opacity:0.0; 
stroke:#000000; stroke-width:118.11; stroke-opacity:1; 
stroke-linecap:round; stroke-linejoin:round;">
<path d="M97092 78613
L96895 78332
" />
<path d="M96754 78613
L96754 78023
L96979 78023
L97035 78051
L97064 78079
L97092 78135
L97092 78219
L97064 78276
L97035 78304
L96979 78332
L96754 78332
" />
<path d="M97570 78585
L97514 78613
L97401 78613
L97345 78585
L97317 78529
L97317 78304
L97345 78248
L97401 78219
L97514 78219
L97570 78248
L97598 78304
L97598 78360
L97317 78416
" />
<path d="M97795 78219
L97935 78613
L98076 78219
" />
<path d="M98301 78557
L98329 78585
L98301 78613
L98273 78585
L98301 78557
L98301 78613
" />
<path d="M98301 78248
L98329 78276
L98301 78304
L98273 78276
L98301 78248
L98301 78304
" />
<path d="M99004 78079
L99032 78051
L99088 78023
L99229 78023
L99285 78051
L99313 78079
L99341 78135
L99341 78191
L99313 78276
L98976 78613
L99341 78613
" />
<path d="M99595 78557
L99623 78585
L99595 78613
L99566 78585
L99595 78557
L99595 78613
" />
<path d="M100185 78613
L99848 78613
" />
<path d="M100016 78613
L100016 78023
L99960 78107
L99904 78163
L99848 78191
" />
</g>
<g style="fill:#000000; fill-opacity:0.0; 
stroke:#000000; stroke-width:39.3701; stroke-opacity:1; 
stroke-linecap:round; stroke-linejoin:round;">
</g>
<g style="fill:#000000; fill-opacity:0.0; 
stroke:#000000; stroke-width:59.0551; stroke-opacity:1; 
stroke-linecap:round; stroke-linejoin:round;">
<path d="M63262 78585
L63346 78613
L63487 78613
L63543 78585
L63571 78557
L63599 78501
L63599 78444
L63571 78388
L63543 78360
L63487 78332
L63374 78304
L63318 78276
L63290 78248
L63262 78191
L63262 78135
L63290 78079
L63318 78051
L63374 78023
L63515 78023
L63599 78051
" />
<path d="M63852 78613
L63852 78219
" />
<path d="M63852 78023
L63824 78051
L63852 78079
L63880 78051
L63852 78023
L63852 78079
" />
<path d="M64077 78219
L64386 78219
L64077 78613
L64386 78613
" />
<path d="M64836 78585
L64780 78613
L64668 78613
L64611 78585
L64583 78529
L64583 78304
L64611 78248
L64668 78219
L64780 78219
L64836 78248
L64865 78304
L64865 78360
L64583 78416
" />
<path d="M65118 78557
L65146 78585
L65118 78613
L65089 78585
L65118 78557
L65118 78613
" />
<path d="M65118 78248
L65146 78276
L65118 78304
L65089 78276
L65118 78248
L65118 78304
" />
<path d="M65849 78023
L65849 78501
L65877 78557
L65905 78585
L65961 78613
L66074 78613
L66130 78585
L66158 78557
L66186 78501
L66186 78023
" />
<path d="M66439 78585
L66524 78613
L66664 78613
L66721 78585
L66749 78557
L66777 78501
L66777 78444
L66749 78388
L66721 78360
L66664 78332
L66552 78304
L66496 78276
L66467 78248
L66439 78191
L66439 78135
L66467 78079
L66496 78051
L66552 78023
L66692 78023
L66777 78051
" />
<path d="M67311 78613
L67030 78613
L67030 78023
" />
<path d="M67733 78585
L67677 78613
L67564 78613
L67508 78585
L67480 78529
L67480 78304
L67508 78248
L67564 78219
L67677 78219
L67733 78248
L67761 78304
L67761 78360
L67480 78416
" />
<path d="M67930 78219
L68155 78219
" />
<path d="M68014 78023
L68014 78529
L68042 78585
L68098 78613
L68155 78613
" />
<path d="M68267 78219
L68492 78219
" />
<path d="M68352 78023
L68352 78529
L68380 78585
L68436 78613
L68492 78613
" />
<path d="M68914 78585
L68858 78613
L68745 78613
L68689 78585
L68661 78529
L68661 78304
L68689 78248
L68745 78219
L68858 78219
L68914 78248
L68942 78304
L68942 78360
L68661 78416
" />
<path d="M69195 78613
L69195 78219
" />
<path d="M69195 78332
L69223 78276
L69251 78248
L69308 78219
L69364 78219
" />
</g>
<g style="fill:#000000; fill-opacity:0.0; 
stroke:#000000; stroke-width:39.3701; stroke-opacity:1; 
stroke-linecap:round; stroke-linejoin:round;">
</g>
<g style="fill:#000000; fill-opacity:0.0; 
stroke:#000000; stroke-width:59.0551; stroke-opacity:1; 
stroke-linecap:round; stroke-linejoin:round;">
<path d="M96754 79715
L96754 79125
" />
<path d="M97289 79715
L97289 79125
" />
<path d="M97289 79687
L97232 79715
L97120 79715
L97064 79687
L97035 79659
L97007 79603
L97007 79434
L97035 79378
L97064 79350
L97120 79322
L97232 79322
L97289 79350
" />
<path d="M97570 79659
L97598 79687
L97570 79715
L97542 79687
L97570 79659
L97570 79715
" />
<path d="M97570 79350
L97598 79378
L97570 79406
L97542 79378
L97570 79350
L97570 79406
" />
<path d="M98610 79715
L98273 79715
" />
<path d="M98442 79715
L98442 79125
L98385 79209
L98329 79266
L98273 79294
" />
<path d="M99285 79097
L98779 79856
" />
<path d="M99791 79715
L99454 79715
" />
<path d="M99623 79715
L99623 79125
L99566 79209
L99510 79266
L99454 79294
" />
</g>
<g style="fill:#000000; fill-opacity:0.0; 
stroke:#000000; stroke-width:39.3701; stroke-opacity:1; 
stroke-linecap:round; stroke-linejoin:round;">
</g>
<g style="fill:#000000; fill-opacity:0.0; 
stroke:#000000; stroke-width:59.0551; stroke-opacity:1; 
stroke-linecap:round; stroke-linejoin:round;">
<path d="M62755 76141
L105275 76141
" />
</g>
<g style="fill:#000000; fill-opacity:0.0; 
stroke:#000000; stroke-width:39.3701; stroke-opacity:1; 
stroke-linecap:round; stroke-linejoin:round;">
</g>
<g style="fill:#000000; fill-opacity:0.0; 
stroke:#000000; stroke-width:157.48; stroke-opacity:1; 
stroke-linecap:round; stroke-linejoin:round;">
<path d="M63327 76419
L63777 76419
" />
<path d="M63454 77206
L63552 76419
" />
<path d="M63941 77206
L64007 76681
" />
<path d="M64040 76419
L63997 76456
L64030 76494
L64072 76456
L64040 76419
L64030 76494
" />
<path d="M64269 76681
L64569 76681
" />
<path d="M64415 76419
L64330 77094
L64358 77169
L64429 77206
L64504 77206
" />
<path d="M64879 77206
L64808 77169
L64780 77094
L64865 76419
" />
<path d="M65483 77169
L65404 77206
L65254 77206
L65183 77169
L65155 77094
L65193 76794
L65239 76719
L65319 76681
L65469 76681
L65539 76719
L65568 76794
L65558 76869
L65174 76944
" />
<path d="M65863 77131
L65896 77169
L65853 77206
L65821 77169
L65863 77131
L65853 77206
" />
<path d="M65914 76719
L65947 76756
L65905 76794
L65872 76756
L65914 76719
L65905 76794
" />
<path d="M67231 76681
L67166 77206
" />
<path d="M67081 76381
L66824 76944
L67311 76944
" />
<path d="M67827 76419
L67902 76419
L67972 76456
L68005 76494
L68033 76569
L68052 76719
L68028 76906
L67972 77056
L67925 77131
L67883 77169
L67803 77206
L67728 77206
L67658 77169
L67625 77131
L67597 77056
L67578 76906
L67602 76719
L67658 76569
L67705 76494
L67747 76456
L67827 76419
" />
<path d="M68366 76906
L68966 76906
" />
<path d="M69645 77169
L69565 77206
L69416 77206
L69345 77169
L69312 77131
L69284 77056
L69312 76831
L69359 76756
L69401 76719
L69481 76681
L69631 76681
L69701 76719
" />
<path d="M69978 77206
L70076 76419
" />
<path d="M70315 77206
L70367 76794
L70339 76719
L70269 76681
L70156 76681
L70076 76719
L70034 76756
" />
<path d="M71028 77206
L71079 76794
L71051 76719
L70981 76681
L70831 76681
L70751 76719
" />
<path d="M71032 77169
L70953 77206
L70765 77206
L70695 77169
L70667 77094
L70676 77019
L70723 76944
L70803 76906
L70990 76906
L71070 76869
" />
<path d="M71468 76681
L71403 77206
" />
<path d="M71459 76756
L71501 76719
L71581 76681
L71693 76681
L71764 76719
L71792 76794
L71740 77206
" />
<path d="M72181 76681
L72115 77206
" />
<path d="M72171 76756
L72214 76719
L72293 76681
L72406 76681
L72476 76719
L72504 76794
L72453 77206
" />
<path d="M73132 77169
L73053 77206
L72903 77206
L72832 77169
L72804 77094
L72842 76794
L72889 76719
L72968 76681
L73118 76681
L73188 76719
L73217 76794
L73207 76869
L72823 76944
" />
<path d="M73615 77206
L73545 77169
L73517 77094
L73601 76419
" />
<path d="M74515 77206
L74613 76419
" />
<path d="M74566 76794
L75016 76794
" />
<path d="M74965 77206
L75063 76419
" />
<path d="M75326 76419
L75490 77206
L75851 76419
" />
<path d="M76582 77169
L76652 77206
L76802 77206
L76882 77169
L76929 77094
L76933 77056
L76905 76981
L76835 76944
L76722 76944
L76652 76906
L76624 76831
L76629 76794
L76676 76719
L76755 76681
L76868 76681
L76938 76719
" />
<path d="M77243 76681
L77327 77206
L77524 76831
L77627 77206
L77843 76681
" />
<path d="M78077 77206
L78143 76681
" />
<path d="M78175 76419
L78133 76456
L78166 76494
L78208 76456
L78175 76419
L78166 76494
" />
<path d="M78405 76681
L78705 76681
" />
<path d="M78550 76419
L78466 77094
L78494 77169
L78564 77206
L78639 77206
" />
<path d="M79244 77169
L79164 77206
L79014 77206
L78944 77169
L78911 77131
L78883 77056
L78911 76831
L78958 76756
L79000 76719
L79080 76681
L79230 76681
L79300 76719
" />
<path d="M79577 77206
L79675 76419
" />
<path d="M79914 77206
L79966 76794
L79938 76719
L79867 76681
L79755 76681
L79675 76719
L79633 76756
" />
<path d="M80289 77206
L80355 76681
" />
<path d="M80388 76419
L80345 76456
L80378 76494
L80420 76456
L80388 76419
L80378 76494
" />
<path d="M80730 76681
L80664 77206
" />
<path d="M80720 76756
L80763 76719
L80842 76681
L80955 76681
L81025 76719
L81053 76794
L81002 77206
" />
<path d="M81780 76681
L81700 77319
L81653 77394
L81611 77431
L81531 77469
L81419 77469
L81348 77431
" />
<path d="M81719 77169
L81639 77206
L81489 77206
L81419 77169
L81386 77131
L81358 77056
L81386 76831
L81433 76756
L81475 76719
L81555 76681
L81705 76681
L81775 76719
" />
<path d="M82689 77206
L82787 76419
" />
<path d="M82750 76719
L82829 76681
L82979 76681
L83050 76719
L83083 76756
L83111 76831
L83083 77056
L83036 77131
L82994 77169
L82914 77206
L82764 77206
L82694 77169
" />
<path d="M83514 77206
L83443 77169
L83411 77131
L83383 77056
L83411 76831
L83458 76756
L83500 76719
L83579 76681
L83692 76681
L83762 76719
L83795 76756
L83823 76831
L83795 77056
L83748 77131
L83706 77169
L83626 77206
L83514 77206
" />
<path d="M84451 77206
L84503 76794
L84475 76719
L84404 76681
L84254 76681
L84175 76719
" />
<path d="M84456 77169
L84376 77206
L84189 77206
L84118 77169
L84090 77094
L84100 77019
L84146 76944
L84226 76906
L84414 76906
L84493 76869
" />
<path d="M84826 77206
L84892 76681
" />
<path d="M84873 76831
L84920 76756
L84962 76719
L85042 76681
L85117 76681
" />
<path d="M85651 77206
L85749 76419
" />
<path d="M85656 77169
L85576 77206
L85426 77206
L85356 77169
L85323 77131
L85295 77056
L85323 76831
L85370 76756
L85412 76719
L85492 76681
L85642 76681
L85712 76719
" />
</g>
<g style="fill:#000000; fill-opacity:0.0; 
stroke:#000000; stroke-width:39.3701; stroke-opacity:1; 
stroke-linecap:round; stroke-linejoin:round;">
</g>
<g style="fill:#000000; fill-opacity:0.0; 
stroke:#000000; stroke-width:59.0551; stroke-opacity:1; 
stroke-linecap:round; stroke-linejoin:round;">
<path d="M63487 75390
L63290 75390
" />
<path d="M63290 75700
L63290 75109
L63571 75109
" />
<path d="M63796 75700
L63796 75306
" />
<path d="M63796 75109
L63768 75137
L63796 75165
L63824 75137
L63796 75109
L63796 75165
" />
<path d="M64161 75700
L64105 75672
L64077 75615
L64077 75109
" />
<path d="M64611 75672
L64555 75700
L64443 75700
L64386 75672
L64358 75615
L64358 75390
L64386 75334
L64443 75306
L64555 75306
L64611 75334
L64640 75390
L64640 75447
L64358 75503
" />
<path d="M64893 75643
L64921 75672
L64893 75700
L64865 75672
L64893 75643
L64893 75700
" />
<path d="M64893 75334
L64921 75362
L64893 75390
L64865 75362
L64893 75334
L64893 75390
" />
<path d="M65877 75306
L65877 75700
" />
<path d="M65736 75081
L65596 75503
L65961 75503
" />
<path d="M66299 75109
L66355 75109
L66411 75137
L66439 75165
L66467 75222
L66496 75334
L66496 75475
L66467 75587
L66439 75643
L66411 75672
L66355 75700
L66299 75700
L66242 75672
L66214 75643
L66186 75587
L66158 75475
L66158 75334
L66186 75222
L66214 75165
L66242 75137
L66299 75109
" />
<path d="M66749 75475
L67199 75475
" />
<path d="M67733 75672
L67677 75700
L67564 75700
L67508 75672
L67480 75643
L67452 75587
L67452 75419
L67480 75362
L67508 75334
L67564 75306
L67677 75306
L67733 75334
" />
<path d="M67986 75700
L67986 75109
" />
<path d="M68239 75700
L68239 75390
L68211 75334
L68155 75306
L68070 75306
L68014 75334
L67986 75362
" />
<path d="M68773 75700
L68773 75390
L68745 75334
L68689 75306
L68577 75306
L68520 75334
" />
<path d="M68773 75672
L68717 75700
L68577 75700
L68520 75672
L68492 75615
L68492 75559
L68520 75503
L68577 75475
L68717 75475
L68773 75447
" />
<path d="M69055 75306
L69055 75700
" />
<path d="M69055 75362
L69083 75334
L69139 75306
L69223 75306
L69280 75334
L69308 75390
L69308 75700
" />
<path d="M69589 75306
L69589 75700
" />
<path d="M69589 75362
L69617 75334
L69673 75306
L69758 75306
L69814 75334
L69842 75390
L69842 75700
" />
<path d="M70348 75672
L70292 75700
L70179 75700
L70123 75672
L70095 75615
L70095 75390
L70123 75334
L70179 75306
L70292 75306
L70348 75334
L70376 75390
L70376 75447
L70095 75503
" />
<path d="M70714 75700
L70658 75672
L70629 75615
L70629 75109
" />
<path d="M71389 75700
L71389 75109
" />
<path d="M71389 75390
L71726 75390
" />
<path d="M71726 75700
L71726 75109
" />
<path d="M71923 75109
L72120 75700
L72317 75109
" />
<path d="M72935 75672
L72992 75700
L73104 75700
L73160 75672
L73188 75615
L73188 75587
L73160 75531
L73104 75503
L73020 75503
L72964 75475
L72935 75419
L72935 75390
L72964 75334
L73020 75306
L73104 75306
L73160 75334
" />
<path d="M73385 75306
L73498 75700
L73610 75419
L73723 75700
L73835 75306
" />
<path d="M74060 75700
L74060 75306
" />
<path d="M74060 75109
L74032 75137
L74060 75165
L74088 75137
L74060 75109
L74060 75165
" />
<path d="M74257 75306
L74482 75306
" />
<path d="M74341 75109
L74341 75615
L74370 75672
L74426 75700
L74482 75700
" />
<path d="M74932 75672
L74876 75700
L74763 75700
L74707 75672
L74679 75643
L74651 75587
L74651 75419
L74679 75362
L74707 75334
L74763 75306
L74876 75306
L74932 75334
" />
<path d="M75185 75700
L75185 75109
" />
<path d="M75438 75700
L75438 75390
L75410 75334
L75354 75306
L75269 75306
L75213 75334
L75185 75362
" />
<path d="M75719 75700
L75719 75306
" />
<path d="M75719 75109
L75691 75137
L75719 75165
L75748 75137
L75719 75109
L75719 75165
" />
<path d="M76001 75306
L76001 75700
" />
<path d="M76001 75362
L76029 75334
L76085 75306
L76169 75306
L76226 75334
L76254 75390
L76254 75700
" />
<path d="M76788 75306
L76788 75784
L76760 75840
L76732 75868
L76676 75897
L76591 75897
L76535 75868
" />
<path d="M76788 75672
L76732 75700
L76619 75700
L76563 75672
L76535 75643
L76507 75587
L76507 75419
L76535 75362
L76563 75334
L76619 75306
L76732 75306
L76788 75334
" />
<path d="M77519 75700
L77519 75109
" />
<path d="M77519 75334
L77575 75306
L77688 75306
L77744 75334
L77772 75362
L77800 75419
L77800 75587
L77772 75643
L77744 75672
L77688 75700
L77575 75700
L77519 75672
" />
<path d="M78138 75700
L78082 75672
L78053 75643
L78025 75587
L78025 75419
L78053 75362
L78082 75334
L78138 75306
L78222 75306
L78278 75334
L78307 75362
L78335 75419
L78335 75587
L78307 75643
L78278 75672
L78222 75700
L78138 75700
" />
<path d="M78841 75700
L78841 75390
L78813 75334
L78757 75306
L78644 75306
L78588 75334
" />
<path d="M78841 75672
L78785 75700
L78644 75700
L78588 75672
L78560 75615
L78560 75559
L78588 75503
L78644 75475
L78785 75475
L78841 75447
" />
<path d="M79122 75700
L79122 75306
" />
<path d="M79122 75419
L79150 75362
L79178 75334
L79235 75306
L79291 75306
" />
<path d="M79741 75700
L79741 75109
" />
<path d="M79741 75672
L79685 75700
L79572 75700
L79516 75672
L79488 75643
L79460 75587
L79460 75419
L79488 75362
L79516 75334
L79572 75306
L79685 75306
L79741 75334
" />
<path d="M80022 75643
L80050 75672
L80022 75700
L79994 75672
L80022 75643
L80022 75700
" />
<path d="M80303 75700
L80303 75109
" />
<path d="M80359 75475
L80528 75700
" />
<path d="M80528 75306
L80303 75531
" />
<path d="M80781 75700
L80781 75306
" />
<path d="M80781 75109
L80753 75137
L80781 75165
L80809 75137
L80781 75109
L80781 75165
" />
<path d="M81316 75672
L81259 75700
L81147 75700
L81091 75672
L81062 75643
L81034 75587
L81034 75419
L81062 75362
L81091 75334
L81147 75306
L81259 75306
L81316 75334
" />
<path d="M81822 75700
L81822 75390
L81794 75334
L81737 75306
L81625 75306
L81569 75334
" />
<path d="M81822 75672
L81766 75700
L81625 75700
L81569 75672
L81541 75615
L81541 75559
L81569 75503
L81625 75475
L81766 75475
L81822 75447
" />
<path d="M82356 75700
L82356 75109
" />
<path d="M82356 75672
L82300 75700
L82187 75700
L82131 75672
L82103 75643
L82075 75587
L82075 75419
L82103 75362
L82131 75334
L82187 75306
L82300 75306
L82356 75334
" />
<path d="M82497 75756
L82947 75756
" />
<path d="M83087 75306
L83087 75897
" />
<path d="M83087 75334
L83143 75306
L83256 75306
L83312 75334
L83340 75362
L83368 75419
L83368 75587
L83340 75643
L83312 75672
L83256 75700
L83143 75700
L83087 75672
" />
<path d="M83875 75672
L83818 75700
L83706 75700
L83650 75672
L83622 75643
L83593 75587
L83593 75419
L83622 75362
L83650 75334
L83706 75306
L83818 75306
L83875 75334
" />
<path d="M84128 75700
L84128 75109
" />
<path d="M84128 75334
L84184 75306
L84296 75306
L84353 75334
L84381 75362
L84409 75419
L84409 75587
L84381 75643
L84353 75672
L84296 75700
L84184 75700
L84128 75672
" />
</g>
<g style="fill:#000000; fill-opacity:0.0; 
stroke:#000000; stroke-width:39.3701; stroke-opacity:1; 
stroke-linecap:round; stroke-linejoin:round;">
</g>
<g style="fill:#000000; fill-opacity:0.0; 
stroke:#000000; stroke-width:59.0551; stroke-opacity:1; 
stroke-linecap:round; stroke-linejoin:round;">
<path d="M62755 73779
L105275 73779
" />
</g>
<g style="fill:#000000; fill-opacity:0.0; 
stroke:#000000; stroke-width:39.3701; stroke-opacity:1; 
stroke-linecap:round; stroke-linejoin:round;">
</g>
<g style="fill:#000000; fill-opacity:0.0; 
stroke:#000000; stroke-width:59.0551; stroke-opacity:1; 
stroke-linecap:round; stroke-linejoin:round;">
<path d="M63262 74609
L63346 74637
L63487 74637
L63543 74609
L63571 74580
L63599 74524
L63599 74468
L63571 74412
L63543 74384
L63487 74356
L63374 74327
L63318 74299
L63290 74271
L63262 74215
L63262 74159
L63290 74102
L63318 74074
L63374 74046
L63515 74046
L63599 74074
" />
<path d="M63852 74637
L63852 74046
" />
<path d="M64105 74637
L64105 74327
L64077 74271
L64021 74243
L63937 74243
L63880 74271
L63852 74299
" />
<path d="M64611 74609
L64555 74637
L64443 74637
L64386 74609
L64358 74552
L64358 74327
L64386 74271
L64443 74243
L64555 74243
L64611 74271
L64640 74327
L64640 74384
L64358 74440
" />
<path d="M65118 74609
L65061 74637
L64949 74637
L64893 74609
L64865 74552
L64865 74327
L64893 74271
L64949 74243
L65061 74243
L65118 74271
L65146 74327
L65146 74384
L64865 74440
" />
<path d="M65314 74243
L65539 74243
" />
<path d="M65399 74046
L65399 74552
L65427 74609
L65483 74637
L65539 74637
" />
<path d="M65736 74580
L65764 74609
L65736 74637
L65708 74609
L65736 74580
L65736 74637
" />
<path d="M65736 74271
L65764 74299
L65736 74327
L65708 74299
L65736 74271
L65736 74327
" />
</g>
<g style="fill:#000000; fill-opacity:0.0; 
stroke:#000000; stroke-width:39.3701; stroke-opacity:1; 
stroke-linecap:round; stroke-linejoin:round;">
</g>
<g style="fill:#000000; fill-opacity:0.0; 
stroke:#000000; stroke-width:118.11; stroke-opacity:1; 
stroke-linecap:round; stroke-linejoin:round;">
<path d="M63627 73456
L63430 73174
" />
<path d="M63290 73456
L63290 72865
L63515 72865
L63571 72893
L63599 72921
L63627 72978
L63627 73062
L63599 73118
L63571 73146
L63515 73174
L63290 73174
" />
<path d="M63824 73062
L63965 73456
" />
<path d="M64105 73062
L63965 73456
L63908 73596
L63880 73624
L63824 73652
" />
<path d="M64583 73456
L64583 73146
L64555 73090
L64499 73062
L64386 73062
L64330 73090
" />
<path d="M64583 73428
L64527 73456
L64386 73456
L64330 73428
L64302 73371
L64302 73315
L64330 73259
L64386 73231
L64527 73231
L64583 73203
" />
<path d="M64865 73062
L64865 73456
" />
<path d="M64865 73118
L64893 73090
L64949 73062
L65033 73062
L65089 73090
L65118 73146
L65118 73456
" />
<path d="M66046 73146
L65849 73146
" />
<path d="M65849 73456
L65849 72865
L66130 72865
" />
<path d="M66439 73456
L66383 73428
L66355 73399
L66327 73343
L66327 73174
L66355 73118
L66383 73090
L66439 73062
L66524 73062
L66580 73090
L66608 73118
L66636 73174
L66636 73343
L66608 73399
L66580 73428
L66524 73456
L66439 73456
" />
<path d="M66889 73456
L66889 72865
" />
<path d="M66889 73090
L66946 73062
L67058 73062
L67114 73090
L67142 73118
L67170 73174
L67170 73343
L67142 73399
L67114 73428
L67058 73456
L66946 73456
L66889 73428
" />
<path d="M67649 73428
L67592 73456
L67480 73456
L67424 73428
L67395 73371
L67395 73146
L67424 73090
L67480 73062
L67592 73062
L67649 73090
L67677 73146
L67677 73203
L67395 73259
" />
<path d="M68014 73456
L67958 73428
L67930 73371
L67930 72865
" />
</g>
<g style="fill:#000000; fill-opacity:0.0; 
stroke:#000000; stroke-width:39.3701; stroke-opacity:1; 
stroke-linecap:round; stroke-linejoin:round;">
</g>
<g style="fill:#000000; fill-opacity:0.0; 
stroke:#000000; stroke-width:59.0551; stroke-opacity:1; 
stroke-linecap:round; stroke-linejoin:round;">
<path d="M70629 77716
L70629 78897
" />
</g>
<g style="fill:#000000; fill-opacity:0.0; 
stroke:#000000; stroke-width:39.3701; stroke-opacity:1; 
stroke-linecap:round; stroke-linejoin:round;">
</g>
<g style="fill:#000000; fill-opacity:0.0; 
stroke:#000000; stroke-width:59.0551; stroke-opacity:1; 
stroke-linecap:round; stroke-linejoin:round;">
<path d="M95826 77716
L95826 80275
" />
</g>
<g style="fill:#000000; fill-opacity:0.0; 
stroke:#000000; stroke-width:150; stroke-opacity:1; 
stroke-linecap:round; stroke-linejoin:round;">
<path d="M39500 6000
L6500 6000
" />
<path d="M39500 54000
L39500 6000
" />
<path d="M6500 54000
L39500 54000
" />
<path d="M6500 6000
L6500 54000
" />
</g>
<g style="fill:#000000; fill-opacity:0.0; 
stroke:#000000; stroke-width:0; stroke-opacity:1; 
stroke-linecap:round; stroke-linejoin:round;">
</g>
<g style="fill:#000000; fill-opacity:1.0; 
stroke:#000000; stroke-width:0; stroke-opacity:1; 
stroke-linecap:round; stroke-linejoin:round;">
<polyline style="fill-rule:evenodd;"
points="8324,14347
9800,14347
9800,15351
8324,15351
8324,14347
" /> 
<polyline style="fill-rule:evenodd;"
points="8324,16473
9800,16473
9800,17477
8324,17477
8324,16473
" /> 
<polyline style="fill-rule:evenodd;"
points="36362,42787
36362,43587
35762,43587
35762,42787
36362,42787
" /> 
<polyline style="fill-rule:evenodd;"
points="35362,42787
35362,43587
34762,43587
34762,42787
35362,42787
" /> 
<polyline style="fill-rule:evenodd;"
points="34362,42787
34362,43587
33762,43587
33762,42787
34362,42787
" /> 
<polyline style="fill-rule:evenodd;"
points="33362,42787
33362,43587
32762,43587
32762,42787
33362,42787
" /> 
<polyline style="fill-rule:evenodd;"
points="33362,45787
33362,46587
32762,46587
32762,45787
33362,45787
" /> 
<polyline style="fill-rule:evenodd;"
points="34362,45787
34362,46587
33762,46587
33762,45787
34362,45787
" /> 
<polyline style="fill-rule:evenodd;"
points="35362,45787
35362,46587
34762,46587
34762,45787
35362,45787
" /> 
<polyline style="fill-rule:evenodd;"
points="36362,45787
36362,46587
35762,46587
35762,45787
36362,45787
" /> 
<polyline style="fill-rule:evenodd;"
points="36362,35787
36362,36587
35762,36587
35762,35787
36362,35787
" /> 
<polyline style="fill-rule:evenodd;"
points="35362,35787
35362,36587
34762,36587
34762,35787
35362,35787
" /> 
<polyline style="fill-rule:evenodd;"
points="34362,35787
34362,36587
33762,36587
33762,35787
34362,35787
" /> 
<polyline style="fill-rule:evenodd;"
points="33362,35787
33362,36587
32762,36587
32762,35787
33362,35787
" /> 
<polyline style="fill-rule:evenodd;"
points="33362,38787
33362,39587
32762,39587
32762,38787
33362,38787
" /> 
<polyline style="fill-rule:evenodd;"
points="34362,38787
34362,39587
33762,39587
33762,38787
34362,38787
" /> 
<polyline style="fill-rule:evenodd;"
points="35362,38787
35362,39587
34762,39587
34762,38787
35362,38787
" /> 
<polyline style="fill-rule:evenodd;"
points="36362,38787
36362,39587
35762,39587
35762,38787
36362,38787
" /> 
<polyline style="fill-rule:evenodd;"
points="36362,28787
36362,29587
35762,29587
35762,28787
36362,28787
" /> 
<polyline style="fill-rule:evenodd;"
points="35362,28787
35362,29587
34762,29587
34762,28787
35362,28787
" /> 
<polyline style="fill-rule:evenodd;"
points="34362,28787
34362,29587
33762,29587
33762,28787
34362,28787
" /> 
<polyline style="fill-rule:evenodd;"
points="33362,28787
33362,29587
32762,29587
32762,28787
33362,28787
" /> 
<polyline style="fill-rule:evenodd;"
points="33362,31787
33362,32587
32762,32587
32762,31787
33362,31787
" /> 
<polyline style="fill-rule:evenodd;"
points="34362,31787
34362,32587
33762,32587
33762,31787
34362,31787
" /> 
<polyline style="fill-rule:evenodd;"
points="35362,31787
35362,32587
34762,32587
34762,31787
35362,31787
" /> 
<polyline style="fill-rule:evenodd;"
points="36362,31787
36362,32587
35762,32587
35762,31787
36362,31787
" /> 
<polyline style="fill-rule:evenodd;"
points="36362,21787
36362,22587
35762,22587
35762,21787
36362,21787
" /> 
<polyline style="fill-rule:evenodd;"
points="35362,21787
35362,22587
34762,22587
34762,21787
35362,21787
" /> 
<polyline style="fill-rule:evenodd;"
points="34362,21787
34362,22587
33762,22587
33762,21787
34362,21787
" /> 
<polyline style="fill-rule:evenodd;"
points="33362,21787
33362,22587
32762,22587
32762,21787
33362,21787
" /> 
<polyline style="fill-rule:evenodd;"
points="33362,24787
33362,25587
32762,25587
32762,24787
33362,24787
" /> 
<polyline style="fill-rule:evenodd;"
points="34362,24787
34362,25587
33762,25587
33762,24787
34362,24787
" /> 
<polyline style="fill-rule:evenodd;"
points="35362,24787
35362,25587
34762,25587
34762,24787
35362,24787
" /> 
<polyline style="fill-rule:evenodd;"
points="36362,24787
36362,25587
35762,25587
35762,24787
36362,24787
" /> 
<polyline style="fill-rule:evenodd;"
points="30362,42787
30362,43587
29762,43587
29762,42787
30362,42787
" /> 
<polyline style="fill-rule:evenodd;"
points="29362,42787
29362,43587
28762,43587
28762,42787
29362,42787
" /> 
<polyline style="fill-rule:evenodd;"
points="28362,42787
28362,43587
27762,43587
27762,42787
28362,42787
" /> 
<polyline style="fill-rule:evenodd;"
points="27362,42787
27362,43587
26762,43587
26762,42787
27362,42787
" /> 
<polyline style="fill-rule:evenodd;"
points="27362,45787
27362,46587
26762,46587
26762,45787
27362,45787
" /> 
<polyline style="fill-rule:evenodd;"
points="28362,45787
28362,46587
27762,46587
27762,45787
28362,45787
" /> 
<polyline style="fill-rule:evenodd;"
points="29362,45787
29362,46587
28762,46587
28762,45787
29362,45787
" /> 
<polyline style="fill-rule:evenodd;"
points="30362,45787
30362,46587
29762,46587
29762,45787
30362,45787
" /> 
<polyline style="fill-rule:evenodd;"
points="30362,35787
30362,36587
29762,36587
29762,35787
30362,35787
" /> 
<polyline style="fill-rule:evenodd;"
points="29362,35787
29362,36587
28762,36587
28762,35787
29362,35787
" /> 
<polyline style="fill-rule:evenodd;"
points="28362,35787
28362,36587
27762,36587
27762,35787
28362,35787
" /> 
<polyline style="fill-rule:evenodd;"
points="27362,35787
27362,36587
26762,36587
26762,35787
27362,35787
" /> 
<polyline style="fill-rule:evenodd;"
points="27362,38787
27362,39587
26762,39587
26762,38787
27362,38787
" /> 
<polyline style="fill-rule:evenodd;"
points="28362,38787
28362,39587
27762,39587
27762,38787
28362,38787
" /> 
<polyline style="fill-rule:evenodd;"
points="29362,38787
29362,39587
28762,39587
28762,38787
29362,38787
" /> 
<polyline style="fill-rule:evenodd;"
points="30362,38787
30362,39587
29762,39587
29762,38787
30362,38787
" /> 
<polyline style="fill-rule:evenodd;"
points="30362,28787
30362,29587
29762,29587
29762,28787
30362,28787
" /> 
<polyline style="fill-rule:evenodd;"
points="29362,28787
29362,29587
28762,29587
28762,28787
29362,28787
" /> 
<polyline style="fill-rule:evenodd;"
points="28362,28787
28362,29587
27762,29587
27762,28787
28362,28787
" /> 
<polyline style="fill-rule:evenodd;"
points="27362,28787
27362,29587
26762,29587
26762,28787
27362,28787
" /> 
<polyline style="fill-rule:evenodd;"
points="27362,31787
27362,32587
26762,32587
26762,31787
27362,31787
" /> 
<polyline style="fill-rule:evenodd;"
points="28362,31787
28362,32587
27762,32587
27762,31787
28362,31787
" /> 
<polyline style="fill-rule:evenodd;"
points="29362,31787
29362,32587
28762,32587
28762,31787
29362,31787
" /> 
<polyline style="fill-rule:evenodd;"
points="30362,31787
30362,32587
29762,32587
29762,31787
30362,31787
" /> 
<polyline style="fill-rule:evenodd;"
points="30362,21787
30362,22587
29762,22587
29762,21787
30362,21787
" /> 
<polyline style="fill-rule:evenodd;"
points="29362,21787
29362,22587
28762,22587
28762,21787
29362,21787
" /> 
<polyline style="fill-rule:evenodd;"
points="28362,21787
28362,22587
27762,22587
27762,21787
28362,21787
" /> 
<polyline style="fill-rule:evenodd;"
points="27362,21787
27362,22587
26762,22587
26762,21787
27362,21787
" /> 
<polyline style="fill-rule:evenodd;"
points="27362,24787
27362,25587
26762,25587
26762,24787
27362,24787
" /> 
<polyline style="fill-rule:evenodd;"
points="28362,24787
28362,25587
27762,25587
27762,24787
28362,24787
" /> 
<polyline style="fill-rule:evenodd;"
points="29362,24787
29362,25587
28762,25587
28762,24787
29362,24787
" /> 
<polyline style="fill-rule:evenodd;"
points="30362,24787
30362,25587
29762,25587
29762,24787
30362,24787
" /> 
<polyline style="fill-rule:evenodd;"
points="24362,42787
24362,43587
23762,43587
23762,42787
24362,42787
" /> 
<polyline style="fill-rule:evenodd;"
points="23362,42787
23362,43587
22762,43587
22762,42787
23362,42787
" /> 
<polyline style="fill-rule:evenodd;"
points="22362,42787
22362,43587
21762,43587
21762,42787
22362,42787
" /> 
<polyline style="fill-rule:evenodd;"
points="21362,42787
21362,43587
20762,43587
20762,42787
21362,42787
" /> 
<polyline style="fill-rule:evenodd;"
points="21362,45787
21362,46587
20762,46587
20762,45787
21362,45787
" /> 
<polyline style="fill-rule:evenodd;"
points="22362,45787
22362,46587
21762,46587
21762,45787
22362,45787
" /> 
<polyline style="fill-rule:evenodd;"
points="23362,45787
23362,46587
22762,46587
22762,45787
23362,45787
" /> 
<polyline style="fill-rule:evenodd;"
points="24362,45787
24362,46587
23762,46587
23762,45787
24362,45787
" /> 
<polyline style="fill-rule:evenodd;"
points="24362,35787
24362,36587
23762,36587
23762,35787
24362,35787
" /> 
<polyline style="fill-rule:evenodd;"
points="23362,35787
23362,36587
22762,36587
22762,35787
23362,35787
" /> 
<polyline style="fill-rule:evenodd;"
points="22362,35787
22362,36587
21762,36587
21762,35787
22362,35787
" /> 
<polyline style="fill-rule:evenodd;"
points="21362,35787
21362,36587
20762,36587
20762,35787
21362,35787
" /> 
<polyline style="fill-rule:evenodd;"
points="21362,38787
21362,39587
20762,39587
20762,38787
21362,38787
" /> 
<polyline style="fill-rule:evenodd;"
points="22362,38787
22362,39587
21762,39587
21762,38787
22362,38787
" /> 
<polyline style="fill-rule:evenodd;"
points="23362,38787
23362,39587
22762,39587
22762,38787
23362,38787
" /> 
<polyline style="fill-rule:evenodd;"
points="24362,38787
24362,39587
23762,39587
23762,38787
24362,38787
" /> 
<polyline style="fill-rule:evenodd;"
points="24362,28787
24362,29587
23762,29587
23762,28787
24362,28787
" /> 
<polyline style="fill-rule:evenodd;"
points="23362,28787
23362,29587
22762,29587
22762,28787
23362,28787
" /> 
<polyline style="fill-rule:evenodd;"
points="22362,28787
22362,29587
21762,29587
21762,28787
22362,28787
" /> 
<polyline style="fill-rule:evenodd;"
points="21362,28787
21362,29587
20762,29587
20762,28787
21362,28787
" /> 
<polyline style="fill-rule:evenodd;"
points="21362,31787
21362,32587
20762,32587
20762,31787
21362,31787
" /> 
<polyline style="fill-rule:evenodd;"
points="22362,31787
22362,32587
21762,32587
21762,31787
22362,31787
" /> 
<polyline style="fill-rule:evenodd;"
points="23362,31787
23362,32587
22762,32587
22762,31787
23362,31787
" /> 
<polyline style="fill-rule:evenodd;"
points="24362,31787
24362,32587
23762,32587
23762,31787
24362,31787
" /> 
<polyline style="fill-rule:evenodd;"
points="24362,21787
24362,22587
23762,22587
23762,21787
24362,21787
" /> 
<polyline style="fill-rule:evenodd;"
points="23362,21787
23362,22587
22762,22587
22762,21787
23362,21787
" /> 
<polyline style="fill-rule:evenodd;"
points="22362,21787
22362,22587
21762,22587
21762,21787
22362,21787
" /> 
<polyline style="fill-rule:evenodd;"
points="21362,21787
21362,22587
20762,22587
20762,21787
21362,21787
" /> 
<polyline style="fill-rule:evenodd;"
points="21362,24787
21362,25587
20762,25587
20762,24787
21362,24787
" /> 
<polyline style="fill-rule:evenodd;"
points="22362,24787
22362,25587
21762,25587
21762,24787
22362,24787
" /> 
<polyline style="fill-rule:evenodd;"
points="23362,24787
23362,25587
22762,25587
22762,24787
23362,24787
" /> 
<polyline style="fill-rule:evenodd;"
points="24362,24787
24362,25587
23762,25587
23762,24787
24362,24787
" /> 
<polyline style="fill-rule:evenodd;"
points="18362,42787
18362,43587
17762,43587
17762,42787
18362,42787
" /> 
<polyline style="fill-rule:evenodd;"
points="17362,42787
17362,43587
16762,43587
16762,42787
17362,42787
" /> 
<polyline style="fill-rule:evenodd;"
points="16362,42787
16362,43587
15762,43587
15762,42787
16362,42787
" /> 
<polyline style="fill-rule:evenodd;"
points="15362,42787
15362,43587
14762,43587
14762,42787
15362,42787
" /> 
<polyline style="fill-rule:evenodd;"
points="15362,45787
15362,46587
14762,46587
14762,45787
15362,45787
" /> 
<polyline style="fill-rule:evenodd;"
points="16362,45787
16362,46587
15762,46587
15762,45787
16362,45787
" /> 
<polyline style="fill-rule:evenodd;"
points="17362,45787
17362,46587
16762,46587
16762,45787
17362,45787
" /> 
<polyline style="fill-rule:evenodd;"
points="18362,45787
18362,46587
17762,46587
17762,45787
18362,45787
" /> 
<polyline style="fill-rule:evenodd;"
points="18362,35787
18362,36587
17762,36587
17762,35787
18362,35787
" /> 
<polyline style="fill-rule:evenodd;"
points="17362,35787
17362,36587
16762,36587
16762,35787
17362,35787
" /> 
<polyline style="fill-rule:evenodd;"
points="16362,35787
16362,36587
15762,36587
15762,35787
16362,35787
" /> 
<polyline style="fill-rule:evenodd;"
points="15362,35787
15362,36587
14762,36587
14762,35787
15362,35787
" /> 
<polyline style="fill-rule:evenodd;"
points="15362,38787
15362,39587
14762,39587
14762,38787
15362,38787
" /> 
<polyline style="fill-rule:evenodd;"
points="16362,38787
16362,39587
15762,39587
15762,38787
16362,38787
" /> 
<polyline style="fill-rule:evenodd;"
points="17362,38787
17362,39587
16762,39587
16762,38787
17362,38787
" /> 
<polyline style="fill-rule:evenodd;"
points="18362,38787
18362,39587
17762,39587
17762,38787
18362,38787
" /> 
<polyline style="fill-rule:evenodd;"
points="18362,28787
18362,29587
17762,29587
17762,28787
18362,28787
" /> 
<polyline style="fill-rule:evenodd;"
points="17362,28787
17362,29587
16762,29587
16762,28787
17362,28787
" /> 
<polyline style="fill-rule:evenodd;"
points="16362,28787
16362,29587
15762,29587
15762,28787
16362,28787
" /> 
<polyline style="fill-rule:evenodd;"
points="15362,28787
15362,29587
14762,29587
14762,28787
15362,28787
" /> 
<polyline style="fill-rule:evenodd;"
points="15362,31787
15362,32587
14762,32587
14762,31787
15362,31787
" /> 
<polyline style="fill-rule:evenodd;"
points="16362,31787
16362,32587
15762,32587
15762,31787
16362,31787
" /> 
<polyline style="fill-rule:evenodd;"
points="17362,31787
17362,32587
16762,32587
16762,31787
17362,31787
" /> 
<polyline style="fill-rule:evenodd;"
points="18362,31787
18362,32587
17762,32587
17762,31787
18362,31787
" /> 
<polyline style="fill-rule:evenodd;"
points="18362,21787
18362,22587
17762,22587
17762,21787
18362,21787
" /> 
<polyline style="fill-rule:evenodd;"
points="17362,21787
17362,22587
16762,22587
16762,21787
17362,21787
" /> 
<polyline style="fill-rule:evenodd;"
points="16362,21787
16362,22587
15762,22587
15762,21787
16362,21787
" /> 
<polyline style="fill-rule:evenodd;"
points="15362,21787
15362,22587
14762,22587
14762,21787
15362,21787
" /> 
<polyline style="fill-rule:evenodd;"
points="15362,24787
15362,25587
14762,25587
14762,24787
15362,24787
" /> 
<polyline style="fill-rule:evenodd;"
points="16362,24787
16362,25587
15762,25587
15762,24787
16362,24787
" /> 
<polyline style="fill-rule:evenodd;"
points="17362,24787
17362,25587
16762,25587
16762,24787
17362,24787
" /> 
<polyline style="fill-rule:evenodd;"
points="18362,24787
18362,25587
17762,25587
17762,24787
18362,24787
" /> 
<polyline style="fill-rule:evenodd;"
points="12362,42787
12362,43587
11762,43587
11762,42787
12362,42787
" /> 
<polyline style="fill-rule:evenodd;"
points="11362,42787
11362,43587
10762,43587
10762,42787
11362,42787
" /> 
<polyline style="fill-rule:evenodd;"
points="10362,42787
10362,43587
9762,43587
9762,42787
10362,42787
" /> 
<polyline style="fill-rule:evenodd;"
points="9362,42787
9362,43587
8762,43587
8762,42787
9362,42787
" /> 
<polyline style="fill-rule:evenodd;"
points="9362,45787
9362,46587
8762,46587
8762,45787
9362,45787
" /> 
<polyline style="fill-rule:evenodd;"
points="10362,45787
10362,46587
9762,46587
9762,45787
10362,45787
" /> 
<polyline style="fill-rule:evenodd;"
points="11362,45787
11362,46587
10762,46587
10762,45787
11362,45787
" /> 
<polyline style="fill-rule:evenodd;"
points="12362,45787
12362,46587
11762,46587
11762,45787
12362,45787
" /> 
<polyline style="fill-rule:evenodd;"
points="12362,35787
12362,36587
11762,36587
11762,35787
12362,35787
" /> 
<polyline style="fill-rule:evenodd;"
points="11362,35787
11362,36587
10762,36587
10762,35787
11362,35787
" /> 
<polyline style="fill-rule:evenodd;"
points="10362,35787
10362,36587
9762,36587
9762,35787
10362,35787
" /> 
<polyline style="fill-rule:evenodd;"
points="9362,35787
9362,36587
8762,36587
8762,35787
9362,35787
" /> 
<polyline style="fill-rule:evenodd;"
points="9362,38787
9362,39587
8762,39587
8762,38787
9362,38787
" /> 
<polyline style="fill-rule:evenodd;"
points="10362,38787
10362,39587
9762,39587
9762,38787
10362,38787
" /> 
<polyline style="fill-rule:evenodd;"
points="11362,38787
11362,39587
10762,39587
10762,38787
11362,38787
" /> 
<polyline style="fill-rule:evenodd;"
points="12362,38787
12362,39587
11762,39587
11762,38787
12362,38787
" /> 
<polyline style="fill-rule:evenodd;"
points="12362,28787
12362,29587
11762,29587
11762,28787
12362,28787
" /> 
<polyline style="fill-rule:evenodd;"
points="11362,28787
11362,29587
10762,29587
10762,28787
11362,28787
" /> 
<polyline style="fill-rule:evenodd;"
points="10362,28787
10362,29587
9762,29587
9762,28787
10362,28787
" /> 
<polyline style="fill-rule:evenodd;"
points="9362,28787
9362,29587
8762,29587
8762,28787
9362,28787
" /> 
<polyline style="fill-rule:evenodd;"
points="9362,31787
9362,32587
8762,32587
8762,31787
9362,31787
" /> 
<polyline style="fill-rule:evenodd;"
points="10362,31787
10362,32587
9762,32587
9762,31787
10362,31787
" /> 
<polyline style="fill-rule:evenodd;"
points="11362,31787
11362,32587
10762,32587
10762,31787
11362,31787
" /> 
<polyline style="fill-rule:evenodd;"
points="12362,31787
12362,32587
11762,32587
11762,31787
12362,31787
" /> 
<polyline style="fill-rule:evenodd;"
points="12362,21787
12362,22587
11762,22587
11762,21787
12362,21787
" /> 
<polyline style="fill-rule:evenodd;"
points="11362,21787
11362,22587
10762,22587
10762,21787
11362,21787
" /> 
<polyline style="fill-rule:evenodd;"
points="10362,21787
10362,22587
9762,22587
9762,21787
10362,21787
" /> 
<polyline style="fill-rule:evenodd;"
points="9362,21787
9362,22587
8762,22587
8762,21787
9362,21787
" /> 
<polyline style="fill-rule:evenodd;"
points="9362,24787
9362,25587
8762,25587
8762,24787
9362,24787
" /> 
<polyline style="fill-rule:evenodd;"
points="10362,24787
10362,25587
9762,25587
9762,24787
10362,24787
" /> 
<polyline style="fill-rule:evenodd;"
points="11362,24787
11362,25587
10762,25587
10762,24787
11362,24787
" /> 
<polyline style="fill-rule:evenodd;"
points="12362,24787
12362,25587
11762,25587
11762,24787
12362,24787
" /> 
<polyline style="fill-rule:evenodd;"
points="32700,10075
32700,10525
32500,10525
32500,10075
32700,10075
" /> 
<polyline style="fill-rule:evenodd;"
points="32200,10075
32200,10525
32000,10525
32000,10075
32200,10075
" /> 
<polyline style="fill-rule:evenodd;"
points="31700,10075
31700,10525
31500,10525
31500,10075
31700,10075
" /> 
<polyline style="fill-rule:evenodd;"
points="31200,10075
31200,10525
31000,10525
31000,10075
31200,10075
" /> 
<polyline style="fill-rule:evenodd;"
points="30700,10075
30700,10525
30500,10525
30500,10075
30700,10075
" /> 
<polyline style="fill-rule:evenodd;"
points="30200,10075
30200,10525
30000,10525
30000,10075
30200,10075
" /> 
<polyline style="fill-rule:evenodd;"
points="29700,10075
29700,10525
29500,10525
29500,10075
29700,10075
" /> 
<polyline style="fill-rule:evenodd;"
points="29700,12175
29700,12625
29500,12625
29500,12175
29700,12175
" /> 
<polyline style="fill-rule:evenodd;"
points="30200,12175
30200,12625
30000,12625
30000,12175
30200,12175
" /> 
<polyline style="fill-rule:evenodd;"
points="30700,12175
30700,12625
30500,12625
30500,12175
30700,12175
" /> 
<polyline style="fill-rule:evenodd;"
points="31200,12175
31200,12625
31000,12625
31000,12175
31200,12175
" /> 
<polyline style="fill-rule:evenodd;"
points="31700,12175
31700,12625
31500,12625
31500,12175
31700,12175
" /> 
<polyline style="fill-rule:evenodd;"
points="32200,12175
32200,12625
32000,12625
32000,12175
32200,12175
" /> 
<polyline style="fill-rule:evenodd;"
points="32700,12175
32700,12625
32500,12625
32500,12175
32700,12175
" /> 
<polyline style="fill-rule:evenodd;"
points="36397,20935
35727,20935
35727,20581
36397,20581
36397,20935
" /> 
<polyline style="fill-rule:evenodd;"
points="36397,19793
35727,19793
35727,19439
36397,19439
36397,19793
" /> 
<polyline style="fill-rule:evenodd;"
points="36397,27935
35727,27935
35727,27581
36397,27581
36397,27935
" /> 
<polyline style="fill-rule:evenodd;"
points="36397,26793
35727,26793
35727,26439
36397,26439
36397,26793
" /> 
<polyline style="fill-rule:evenodd;"
points="36397,34935
35727,34935
35727,34581
36397,34581
36397,34935
" /> 
<polyline style="fill-rule:evenodd;"
points="36397,33793
35727,33793
35727,33439
36397,33439
36397,33793
" /> 
<polyline style="fill-rule:evenodd;"
points="36397,41985
35727,41985
35727,41631
36397,41631
36397,41985
" /> 
<polyline style="fill-rule:evenodd;"
points="36397,40843
35727,40843
35727,40489
36397,40489
36397,40843
" /> 
<polyline style="fill-rule:evenodd;"
points="34227,19439
34897,19439
34897,19793
34227,19793
34227,19439
" /> 
<polyline style="fill-rule:evenodd;"
points="34227,20581
34897,20581
34897,20935
34227,20935
34227,20581
" /> 
<polyline style="fill-rule:evenodd;"
points="32727,19439
33397,19439
33397,19793
32727,19793
32727,19439
" /> 
<polyline style="fill-rule:evenodd;"
points="32727,20581
33397,20581
33397,20935
32727,20935
32727,20581
" /> 
<polyline style="fill-rule:evenodd;"
points="32727,26439
33397,26439
33397,26793
32727,26793
32727,26439
" /> 
<polyline style="fill-rule:evenodd;"
points="32727,27581
33397,27581
33397,27935
32727,27935
32727,27581
" /> 
<polyline style="fill-rule:evenodd;"
points="32727,33439
33397,33439
33397,33793
32727,33793
32727,33439
" /> 
<polyline style="fill-rule:evenodd;"
points="32727,34581
33397,34581
33397,34935
32727,34935
32727,34581
" /> 
<polyline style="fill-rule:evenodd;"
points="32727,40489
33397,40489
33397,40843
32727,40843
32727,40489
" /> 
<polyline style="fill-rule:evenodd;"
points="32727,41631
33397,41631
33397,41985
32727,41985
32727,41631
" /> 
<polyline style="fill-rule:evenodd;"
points="34227,40489
34897,40489
34897,40843
34227,40843
34227,40489
" /> 
<polyline style="fill-rule:evenodd;"
points="34227,41631
34897,41631
34897,41985
34227,41985
34227,41631
" /> 
<polyline style="fill-rule:evenodd;"
points="30397,20935
29727,20935
29727,20581
30397,20581
30397,20935
" /> 
<polyline style="fill-rule:evenodd;"
points="30397,19793
29727,19793
29727,19439
30397,19439
30397,19793
" /> 
<polyline style="fill-rule:evenodd;"
points="30397,27935
29727,27935
29727,27581
30397,27581
30397,27935
" /> 
<polyline style="fill-rule:evenodd;"
points="30397,26793
29727,26793
29727,26439
30397,26439
30397,26793
" /> 
<polyline style="fill-rule:evenodd;"
points="30397,34935
29727,34935
29727,34581
30397,34581
30397,34935
" /> 
<polyline style="fill-rule:evenodd;"
points="30397,33793
29727,33793
29727,33439
30397,33439
30397,33793
" /> 
<polyline style="fill-rule:evenodd;"
points="30397,41935
29727,41935
29727,41581
30397,41581
30397,41935
" /> 
<polyline style="fill-rule:evenodd;"
points="30397,40793
29727,40793
29727,40439
30397,40439
30397,40793
" /> 
<polyline style="fill-rule:evenodd;"
points="28227,19439
28897,19439
28897,19793
28227,19793
28227,19439
" /> 
<polyline style="fill-rule:evenodd;"
points="28227,20581
28897,20581
28897,20935
28227,20935
28227,20581
" /> 
<polyline style="fill-rule:evenodd;"
points="26727,19439
27397,19439
27397,19793
26727,19793
26727,19439
" /> 
<polyline style="fill-rule:evenodd;"
points="26727,20581
27397,20581
27397,20935
26727,20935
26727,20581
" /> 
<polyline style="fill-rule:evenodd;"
points="26727,26439
27397,26439
27397,26793
26727,26793
26727,26439
" /> 
<polyline style="fill-rule:evenodd;"
points="26727,27581
27397,27581
27397,27935
26727,27935
26727,27581
" /> 
<polyline style="fill-rule:evenodd;"
points="26727,33439
27397,33439
27397,33793
26727,33793
26727,33439
" /> 
<polyline style="fill-rule:evenodd;"
points="26727,34581
27397,34581
27397,34935
26727,34935
26727,34581
" /> 
<polyline style="fill-rule:evenodd;"
points="26727,40439
27397,40439
27397,40793
26727,40793
26727,40439
" /> 
<polyline style="fill-rule:evenodd;"
points="26727,41581
27397,41581
27397,41935
26727,41935
26727,41581
" /> 
<polyline style="fill-rule:evenodd;"
points="28227,40439
28897,40439
28897,40793
28227,40793
28227,40439
" /> 
<polyline style="fill-rule:evenodd;"
points="28227,41581
28897,41581
28897,41935
28227,41935
28227,41581
" /> 
<polyline style="fill-rule:evenodd;"
points="24397,20935
23727,20935
23727,20581
24397,20581
24397,20935
" /> 
<polyline style="fill-rule:evenodd;"
points="24397,19793
23727,19793
23727,19439
24397,19439
24397,19793
" /> 
<polyline style="fill-rule:evenodd;"
points="24397,27935
23727,27935
23727,27581
24397,27581
24397,27935
" /> 
<polyline style="fill-rule:evenodd;"
points="24397,26793
23727,26793
23727,26439
24397,26439
24397,26793
" /> 
<polyline style="fill-rule:evenodd;"
points="24397,34935
23727,34935
23727,34581
24397,34581
24397,34935
" /> 
<polyline style="fill-rule:evenodd;"
points="24397,33793
23727,33793
23727,33439
24397,33439
24397,33793
" /> 
<polyline style="fill-rule:evenodd;"
points="24397,41935
23727,41935
23727,41581
24397,41581
24397,41935
" /> 
<polyline style="fill-rule:evenodd;"
points="24397,40793
23727,40793
23727,40439
24397,40439
24397,40793
" /> 
<polyline style="fill-rule:evenodd;"
points="22227,19439
22897,19439
22897,19793
22227,19793
22227,19439
" /> 
<polyline style="fill-rule:evenodd;"
points="22227,20581
22897,20581
22897,20935
22227,20935
22227,20581
" /> 
<polyline style="fill-rule:evenodd;"
points="20727,19439
21397,19439
21397,19793
20727,19793
20727,19439
" /> 
<polyline style="fill-rule:evenodd;"
points="20727,20581
21397,20581
21397,20935
20727,20935
20727,20581
" /> 
<polyline style="fill-rule:evenodd;"
points="20727,26439
21397,26439
21397,26793
20727,26793
20727,26439
" /> 
<polyline style="fill-rule:evenodd;"
points="20727,27581
21397,27581
21397,27935
20727,27935
20727,27581
" /> 
<polyline style="fill-rule:evenodd;"
points="20727,33439
21397,33439
21397,33793
20727,33793
20727,33439
" /> 
<polyline style="fill-rule:evenodd;"
points="20727,34581
21397,34581
21397,34935
20727,34935
20727,34581
" /> 
<polyline style="fill-rule:evenodd;"
points="20727,40439
21397,40439
21397,40793
20727,40793
20727,40439
" /> 
<polyline style="fill-rule:evenodd;"
points="20727,41581
21397,41581
21397,41935
20727,41935
20727,41581
" /> 
<polyline style="fill-rule:evenodd;"
points="22227,40439
22897,40439
22897,40793
22227,40793
22227,40439
" /> 
<polyline style="fill-rule:evenodd;"
points="22227,41581
22897,41581
22897,41935
22227,41935
22227,41581
" /> 
<polyline style="fill-rule:evenodd;"
points="18397,20935
17727,20935
17727,20581
18397,20581
18397,20935
" /> 
<polyline style="fill-rule:evenodd;"
points="18397,19793
17727,19793
17727,19439
18397,19439
18397,19793
" /> 
<polyline style="fill-rule:evenodd;"
points="18397,27935
17727,27935
17727,27581
18397,27581
18397,27935
" /> 
<polyline style="fill-rule:evenodd;"
points="18397,26793
17727,26793
17727,26439
18397,26439
18397,26793
" /> 
<polyline style="fill-rule:evenodd;"
points="18397,34935
17727,34935
17727,34581
18397,34581
18397,34935
" /> 
<polyline style="fill-rule:evenodd;"
points="18397,33793
17727,33793
17727,33439
18397,33439
18397,33793
" /> 
<polyline style="fill-rule:evenodd;"
points="18397,41935
17727,41935
17727,41581
18397,41581
18397,41935
" /> 
<polyline style="fill-rule:evenodd;"
points="18397,40793
17727,40793
17727,40439
18397,40439
18397,40793
" /> 
<polyline style="fill-rule:evenodd;"
points="35176,17534
35176,16865
35531,16865
35531,17534
35176,17534
" /> 
<polyline style="fill-rule:evenodd;"
points="36318,17534
36318,16865
36673,16865
36673,17534
36318,17534
" /> 
<polyline style="fill-rule:evenodd;"
points="16227,19439
16897,19439
16897,19793
16227,19793
16227,19439
" /> 
<polyline style="fill-rule:evenodd;"
points="16227,20581
16897,20581
16897,20935
16227,20935
16227,20581
" /> 
<polyline style="fill-rule:evenodd;"
points="14727,19439
15397,19439
15397,19793
14727,19793
14727,19439
" /> 
<polyline style="fill-rule:evenodd;"
points="14727,20581
15397,20581
15397,20935
14727,20935
14727,20581
" /> 
<polyline style="fill-rule:evenodd;"
points="14727,26439
15397,26439
15397,26793
14727,26793
14727,26439
" /> 
<polyline style="fill-rule:evenodd;"
points="14727,27581
15397,27581
15397,27935
14727,27935
14727,27581
" /> 
<polyline style="fill-rule:evenodd;"
points="14727,33439
15397,33439
15397,33793
14727,33793
14727,33439
" /> 
<polyline style="fill-rule:evenodd;"
points="14727,34581
15397,34581
15397,34935
14727,34935
14727,34581
" /> 
<polyline style="fill-rule:evenodd;"
points="14727,40439
15397,40439
15397,40793
14727,40793
14727,40439
" /> 
<polyline style="fill-rule:evenodd;"
points="14727,41581
15397,41581
15397,41935
14727,41935
14727,41581
" /> 
<polyline style="fill-rule:evenodd;"
points="16227,40439
16897,40439
16897,40793
16227,40793
16227,40439
" /> 
<polyline style="fill-rule:evenodd;"
points="16227,41581
16897,41581
16897,41935
16227,41935
16227,41581
" /> 
<polyline style="fill-rule:evenodd;"
points="12397,20935
11727,20935
11727,20581
12397,20581
12397,20935
" /> 
<polyline style="fill-rule:evenodd;"
points="12397,19793
11727,19793
11727,19439
12397,19439
12397,19793
" /> 
<polyline style="fill-rule:evenodd;"
points="12397,27935
11727,27935
11727,27581
12397,27581
12397,27935
" /> 
<polyline style="fill-rule:evenodd;"
points="12397,26793
11727,26793
11727,26439
12397,26439
12397,26793
" /> 
<polyline style="fill-rule:evenodd;"
points="12397,34935
11727,34935
11727,34581
12397,34581
12397,34935
" /> 
<polyline style="fill-rule:evenodd;"
points="12397,33793
11727,33793
11727,33439
12397,33439
12397,33793
" /> 
<polyline style="fill-rule:evenodd;"
points="12397,41935
11727,41935
11727,41581
12397,41581
12397,41935
" /> 
<polyline style="fill-rule:evenodd;"
points="12397,40793
11727,40793
11727,40439
12397,40439
12397,40793
" /> 
<polyline style="fill-rule:evenodd;"
points="10227,19439
10897,19439
10897,19793
10227,19793
10227,19439
" /> 
<polyline style="fill-rule:evenodd;"
points="10227,20581
10897,20581
10897,20935
10227,20935
10227,20581
" /> 
<polyline style="fill-rule:evenodd;"
points="8727,19439
9397,19439
9397,19793
8727,19793
8727,19439
" /> 
<polyline style="fill-rule:evenodd;"
points="8727,20581
9397,20581
9397,20935
8727,20935
8727,20581
" /> 
<polyline style="fill-rule:evenodd;"
points="8727,26439
9397,26439
9397,26793
8727,26793
8727,26439
" /> 
<polyline style="fill-rule:evenodd;"
points="8727,27581
9397,27581
9397,27935
8727,27935
8727,27581
" /> 
<polyline style="fill-rule:evenodd;"
points="8727,33439
9397,33439
9397,33793
8727,33793
8727,33439
" /> 
<polyline style="fill-rule:evenodd;"
points="8727,34581
9397,34581
9397,34935
8727,34935
8727,34581
" /> 
<polyline style="fill-rule:evenodd;"
points="8727,40439
9397,40439
9397,40793
8727,40793
8727,40439
" /> 
<polyline style="fill-rule:evenodd;"
points="8727,41581
9397,41581
9397,41935
8727,41935
8727,41581
" /> 
<polyline style="fill-rule:evenodd;"
points="10227,40439
10897,40439
10897,40793
10227,40793
10227,40439
" /> 
<polyline style="fill-rule:evenodd;"
points="10227,41581
10897,41581
10897,41935
10227,41935
10227,41581
" /> 
<polyline style="fill-rule:evenodd;"
points="34227,26439
34897,26439
34897,26793
34227,26793
34227,26439
" /> 
<polyline style="fill-rule:evenodd;"
points="34227,27581
34897,27581
34897,27935
34227,27935
34227,27581
" /> 
<polyline style="fill-rule:evenodd;"
points="34227,33439
34897,33439
34897,33793
34227,33793
34227,33439
" /> 
<polyline style="fill-rule:evenodd;"
points="34227,34581
34897,34581
34897,34935
34227,34935
34227,34581
" /> 
<polyline style="fill-rule:evenodd;"
points="28227,26439
28897,26439
28897,26793
28227,26793
28227,26439
" /> 
<polyline style="fill-rule:evenodd;"
points="28227,27581
28897,27581
28897,27935
28227,27935
28227,27581
" /> 
<polyline style="fill-rule:evenodd;"
points="28228,33435
28897,33435
28897,33789
28228,33789
28228,33435
" /> 
<polyline style="fill-rule:evenodd;"
points="28228,34576
28897,34576
28897,34931
28228,34931
28228,34576
" /> 
<polyline style="fill-rule:evenodd;"
points="22227,26439
22897,26439
22897,26793
22227,26793
22227,26439
" /> 
<polyline style="fill-rule:evenodd;"
points="22227,27581
22897,27581
22897,27935
22227,27935
22227,27581
" /> 
<polyline style="fill-rule:evenodd;"
points="22227,33439
22897,33439
22897,33793
22227,33793
22227,33439
" /> 
<polyline style="fill-rule:evenodd;"
points="22227,34581
22897,34581
22897,34935
22227,34935
22227,34581
" /> 
<polyline style="fill-rule:evenodd;"
points="15660,10152
15660,10822
15306,10822
15306,10152
15660,10152
" /> 
<polyline style="fill-rule:evenodd;"
points="14518,10152
14518,10822
14164,10822
14164,10152
14518,10152
" /> 
<polyline style="fill-rule:evenodd;"
points="28934,12698
28265,12698
28265,12343
28934,12343
28934,12698
" /> 
<polyline style="fill-rule:evenodd;"
points="28934,11556
28265,11556
28265,11201
28934,11201
28934,11556
" /> 
<polyline style="fill-rule:evenodd;"
points="16227,26439
16897,26439
16897,26793
16227,26793
16227,26439
" /> 
<polyline style="fill-rule:evenodd;"
points="16227,27581
16897,27581
16897,27935
16227,27935
16227,27581
" /> 
<polyline style="fill-rule:evenodd;"
points="16227,33439
16897,33439
16897,33793
16227,33793
16227,33439
" /> 
<polyline style="fill-rule:evenodd;"
points="16227,34581
16897,34581
16897,34935
16227,34935
16227,34581
" /> 
<polyline style="fill-rule:evenodd;"
points="10227,26439
10897,26439
10897,26793
10227,26793
10227,26439
" /> 
<polyline style="fill-rule:evenodd;"
points="10227,27581
10897,27581
10897,27935
10227,27935
10227,27581
" /> 
<polyline style="fill-rule:evenodd;"
points="10227,33439
10897,33439
10897,33793
10227,33793
10227,33439
" /> 
<polyline style="fill-rule:evenodd;"
points="10227,34581
10897,34581
10897,34935
10227,34935
10227,34581
" /> 
<polyline style="fill-rule:evenodd;"
points="36968,18592
36968,18100
37362,18100
37362,18592
36968,18592
" /> 
<polyline style="fill-rule:evenodd;"
points="37755,18592
37755,18100
38149,18100
38149,18592
37755,18592
" /> 
<polyline style="fill-rule:evenodd;"
points="19340,20196
19832,20196
19832,20590
19340,20590
19340,20196
" /> 
<polyline style="fill-rule:evenodd;"
points="19340,20984
19832,20984
19832,21377
19340,21377
19340,20984
" /> 
<polyline style="fill-rule:evenodd;"
points="10409,15546
10409,15053
10803,15053
10803,15546
10409,15546
" /> 
<polyline style="fill-rule:evenodd;"
points="11196,15546
11196,15053
11590,15053
11590,15546
11196,15546
" /> 
<polyline style="fill-rule:evenodd;"
points="10409,16896
10409,16403
10803,16403
10803,16896
10409,16896
" /> 
<polyline style="fill-rule:evenodd;"
points="11196,16896
11196,16403
11590,16403
11590,16896
11196,16896
" /> 
<polyline style="fill-rule:evenodd;"
points="31338,20196
31830,20196
31830,20590
31338,20590
31338,20196
" /> 
<polyline style="fill-rule:evenodd;"
points="31338,20984
31830,20984
31830,21377
31338,21377
31338,20984
" /> 
<polyline style="fill-rule:evenodd;"
points="13356,20196
13848,20196
13848,20590
13356,20590
13356,20196
" /> 
<polyline style="fill-rule:evenodd;"
points="13356,20984
13848,20984
13848,21377
13356,21377
13356,20984
" /> 
<polyline style="fill-rule:evenodd;"
points="16483,9249
16976,9249
16976,9643
16483,9643
16483,9249
" /> 
<polyline style="fill-rule:evenodd;"
points="16483,10036
16976,10036
16976,10430
16483,10430
16483,10036
" /> 
<polyline style="fill-rule:evenodd;"
points="12046,13240
11553,13240
11553,12846
12046,12846
12046,13240
" /> 
<polyline style="fill-rule:evenodd;"
points="12046,12453
11553,12453
11553,12059
12046,12059
12046,12453
" /> 
<polyline style="fill-rule:evenodd;"
points="25295,20206
25787,20206
25787,20600
25295,20600
25295,20206
" /> 
<polyline style="fill-rule:evenodd;"
points="25295,20994
25787,20994
25787,21387
25295,21387
25295,20994
" /> 
<polyline style="fill-rule:evenodd;"
points="35051,10486
35051,10014
35523,10014
35523,10486
35051,10486
" /> 
<polyline style="fill-rule:evenodd;"
points="35877,10486
35877,10014
36349,10014
36349,10486
35877,10486
" /> 
<polyline style="fill-rule:evenodd;"
points="35051,11486
35051,11014
35523,11014
35523,11486
35051,11486
" /> 
<polyline style="fill-rule:evenodd;"
points="35877,11486
35877,11014
36349,11014
36349,11486
35877,11486
" /> 
<polyline style="fill-rule:evenodd;"
points="35051,12486
35051,12014
35523,12014
35523,12486
35051,12486
" /> 
<polyline style="fill-rule:evenodd;"
points="35877,12486
35877,12014
36349,12014
36349,12486
35877,12486
" /> 
<polyline style="fill-rule:evenodd;"
points="35051,13486
35051,13014
35523,13014
35523,13486
35051,13486
" /> 
<polyline style="fill-rule:evenodd;"
points="35877,13486
35877,13014
36349,13014
36349,13486
35877,13486
" /> 
</g> 
</svg>
