G04 (created by PCBNEW-RS274X (2011-11-27 BZR 3249)-stable) date 22/02/2012 12:04:41 PM*
G01*
G70*
G90*
%MOIN*%
G04 Gerber Fmt 3.4, Leading zero omitted, Abs format*
%FSLAX34Y34*%
G04 APERTURE LIST*
%ADD10C,0.006000*%
%ADD11C,0.005000*%
%ADD12C,0.015000*%
%ADD13C,0.012000*%
%ADD14C,0.010000*%
%ADD15C,0.004500*%
%ADD16C,0.008000*%
G04 APERTURE END LIST*
G54D10*
G54D11*
X52900Y-11600D02*
X52900Y-10700D01*
X52900Y-10700D02*
X53550Y-10700D01*
X54250Y-11600D02*
X54900Y-11600D01*
X54900Y-11600D02*
X54900Y-10700D01*
X54900Y-10700D02*
X54250Y-10700D01*
X53550Y-11600D02*
X52900Y-11600D01*
X15400Y-11100D02*
X15400Y-10200D01*
X15400Y-10200D02*
X16050Y-10200D01*
X16750Y-11100D02*
X17400Y-11100D01*
X17400Y-11100D02*
X17400Y-10200D01*
X17400Y-10200D02*
X16750Y-10200D01*
X16050Y-11100D02*
X15400Y-11100D01*
X31900Y-13600D02*
X31900Y-12700D01*
X31900Y-12700D02*
X32550Y-12700D01*
X33250Y-13600D02*
X33900Y-13600D01*
X33900Y-13600D02*
X33900Y-12700D01*
X33900Y-12700D02*
X33250Y-12700D01*
X32550Y-13600D02*
X31900Y-13600D01*
X45900Y-20600D02*
X45900Y-19700D01*
X45900Y-19700D02*
X46550Y-19700D01*
X47250Y-20600D02*
X47900Y-20600D01*
X47900Y-20600D02*
X47900Y-19700D01*
X47900Y-19700D02*
X47250Y-19700D01*
X46550Y-20600D02*
X45900Y-20600D01*
X31900Y-18600D02*
X31900Y-17700D01*
X31900Y-17700D02*
X32550Y-17700D01*
X33250Y-18600D02*
X33900Y-18600D01*
X33900Y-18600D02*
X33900Y-17700D01*
X33900Y-17700D02*
X33250Y-17700D01*
X32550Y-18600D02*
X31900Y-18600D01*
X38900Y-18600D02*
X38900Y-17700D01*
X38900Y-17700D02*
X39550Y-17700D01*
X40250Y-18600D02*
X40900Y-18600D01*
X40900Y-18600D02*
X40900Y-17700D01*
X40900Y-17700D02*
X40250Y-17700D01*
X39550Y-18600D02*
X38900Y-18600D01*
X52900Y-20600D02*
X52900Y-19700D01*
X52900Y-19700D02*
X53550Y-19700D01*
X54250Y-20600D02*
X54900Y-20600D01*
X54900Y-20600D02*
X54900Y-19700D01*
X54900Y-19700D02*
X54250Y-19700D01*
X53550Y-20600D02*
X52900Y-20600D01*
X31900Y-25600D02*
X31900Y-24700D01*
X31900Y-24700D02*
X32550Y-24700D01*
X33250Y-25600D02*
X33900Y-25600D01*
X33900Y-25600D02*
X33900Y-24700D01*
X33900Y-24700D02*
X33250Y-24700D01*
X32550Y-25600D02*
X31900Y-25600D01*
X45900Y-25600D02*
X45900Y-24700D01*
X45900Y-24700D02*
X46550Y-24700D01*
X47250Y-25600D02*
X47900Y-25600D01*
X47900Y-25600D02*
X47900Y-24700D01*
X47900Y-24700D02*
X47250Y-24700D01*
X46550Y-25600D02*
X45900Y-25600D01*
X38900Y-25600D02*
X38900Y-24700D01*
X38900Y-24700D02*
X39550Y-24700D01*
X40250Y-25600D02*
X40900Y-25600D01*
X40900Y-25600D02*
X40900Y-24700D01*
X40900Y-24700D02*
X40250Y-24700D01*
X39550Y-25600D02*
X38900Y-25600D01*
X15400Y-26100D02*
X15400Y-25200D01*
X15400Y-25200D02*
X16050Y-25200D01*
X16750Y-26100D02*
X17400Y-26100D01*
X17400Y-26100D02*
X17400Y-25200D01*
X17400Y-25200D02*
X16750Y-25200D01*
X16050Y-26100D02*
X15400Y-26100D01*
X06800Y-28650D02*
X05900Y-28650D01*
X05900Y-28650D02*
X05900Y-28000D01*
X06800Y-27300D02*
X06800Y-26650D01*
X06800Y-26650D02*
X05900Y-26650D01*
X05900Y-26650D02*
X05900Y-27300D01*
X06800Y-28000D02*
X06800Y-28650D01*
X31900Y-11600D02*
X31900Y-10700D01*
X31900Y-10700D02*
X32550Y-10700D01*
X33250Y-11600D02*
X33900Y-11600D01*
X33900Y-11600D02*
X33900Y-10700D01*
X33900Y-10700D02*
X33250Y-10700D01*
X32550Y-11600D02*
X31900Y-11600D01*
X45900Y-11600D02*
X45900Y-10700D01*
X45900Y-10700D02*
X46550Y-10700D01*
X47250Y-11600D02*
X47900Y-11600D01*
X47900Y-11600D02*
X47900Y-10700D01*
X47900Y-10700D02*
X47250Y-10700D01*
X46550Y-11600D02*
X45900Y-11600D01*
X38900Y-11600D02*
X38900Y-10700D01*
X38900Y-10700D02*
X39550Y-10700D01*
X40250Y-11600D02*
X40900Y-11600D01*
X40900Y-11600D02*
X40900Y-10700D01*
X40900Y-10700D02*
X40250Y-10700D01*
X39550Y-11600D02*
X38900Y-11600D01*
X15400Y-12100D02*
X15400Y-11200D01*
X15400Y-11200D02*
X16050Y-11200D01*
X16750Y-12100D02*
X17400Y-12100D01*
X17400Y-12100D02*
X17400Y-11200D01*
X17400Y-11200D02*
X16750Y-11200D01*
X16050Y-12100D02*
X15400Y-12100D01*
X15400Y-18100D02*
X15400Y-17200D01*
X15400Y-17200D02*
X16050Y-17200D01*
X16750Y-18100D02*
X17400Y-18100D01*
X17400Y-18100D02*
X17400Y-17200D01*
X17400Y-17200D02*
X16750Y-17200D01*
X16050Y-18100D02*
X15400Y-18100D01*
X45900Y-13600D02*
X45900Y-12700D01*
X45900Y-12700D02*
X46550Y-12700D01*
X47250Y-13600D02*
X47900Y-13600D01*
X47900Y-13600D02*
X47900Y-12700D01*
X47900Y-12700D02*
X47250Y-12700D01*
X46550Y-13600D02*
X45900Y-13600D01*
X38900Y-13600D02*
X38900Y-12700D01*
X38900Y-12700D02*
X39550Y-12700D01*
X40250Y-13600D02*
X40900Y-13600D01*
X40900Y-13600D02*
X40900Y-12700D01*
X40900Y-12700D02*
X40250Y-12700D01*
X39550Y-13600D02*
X38900Y-13600D01*
X52900Y-18600D02*
X52900Y-17700D01*
X52900Y-17700D02*
X53550Y-17700D01*
X54250Y-18600D02*
X54900Y-18600D01*
X54900Y-18600D02*
X54900Y-17700D01*
X54900Y-17700D02*
X54250Y-17700D01*
X53550Y-18600D02*
X52900Y-18600D01*
X15400Y-14100D02*
X15400Y-13200D01*
X15400Y-13200D02*
X16050Y-13200D01*
X16750Y-14100D02*
X17400Y-14100D01*
X17400Y-14100D02*
X17400Y-13200D01*
X17400Y-13200D02*
X16750Y-13200D01*
X16050Y-14100D02*
X15400Y-14100D01*
X15400Y-13100D02*
X15400Y-12200D01*
X15400Y-12200D02*
X16050Y-12200D01*
X16750Y-13100D02*
X17400Y-13100D01*
X17400Y-13100D02*
X17400Y-12200D01*
X17400Y-12200D02*
X16750Y-12200D01*
X16050Y-13100D02*
X15400Y-13100D01*
X52900Y-13600D02*
X52900Y-12700D01*
X52900Y-12700D02*
X53550Y-12700D01*
X54250Y-13600D02*
X54900Y-13600D01*
X54900Y-13600D02*
X54900Y-12700D01*
X54900Y-12700D02*
X54250Y-12700D01*
X53550Y-13600D02*
X52900Y-13600D01*
X52900Y-39600D02*
X52900Y-38700D01*
X52900Y-38700D02*
X53550Y-38700D01*
X54250Y-39600D02*
X54900Y-39600D01*
X54900Y-39600D02*
X54900Y-38700D01*
X54900Y-38700D02*
X54250Y-38700D01*
X53550Y-39600D02*
X52900Y-39600D01*
X15400Y-39100D02*
X15400Y-38200D01*
X15400Y-38200D02*
X16050Y-38200D01*
X16750Y-39100D02*
X17400Y-39100D01*
X17400Y-39100D02*
X17400Y-38200D01*
X17400Y-38200D02*
X16750Y-38200D01*
X16050Y-39100D02*
X15400Y-39100D01*
X38900Y-39600D02*
X38900Y-38700D01*
X38900Y-38700D02*
X39550Y-38700D01*
X40250Y-39600D02*
X40900Y-39600D01*
X40900Y-39600D02*
X40900Y-38700D01*
X40900Y-38700D02*
X40250Y-38700D01*
X39550Y-39600D02*
X38900Y-39600D01*
X31900Y-41600D02*
X31900Y-40700D01*
X31900Y-40700D02*
X32550Y-40700D01*
X33250Y-41600D02*
X33900Y-41600D01*
X33900Y-41600D02*
X33900Y-40700D01*
X33900Y-40700D02*
X33250Y-40700D01*
X32550Y-41600D02*
X31900Y-41600D01*
X52900Y-41600D02*
X52900Y-40700D01*
X52900Y-40700D02*
X53550Y-40700D01*
X54250Y-41600D02*
X54900Y-41600D01*
X54900Y-41600D02*
X54900Y-40700D01*
X54900Y-40700D02*
X54250Y-40700D01*
X53550Y-41600D02*
X52900Y-41600D01*
X15400Y-41100D02*
X15400Y-40200D01*
X15400Y-40200D02*
X16050Y-40200D01*
X16750Y-41100D02*
X17400Y-41100D01*
X17400Y-41100D02*
X17400Y-40200D01*
X17400Y-40200D02*
X16750Y-40200D01*
X16050Y-41100D02*
X15400Y-41100D01*
X15400Y-42100D02*
X15400Y-41200D01*
X15400Y-41200D02*
X16050Y-41200D01*
X16750Y-42100D02*
X17400Y-42100D01*
X17400Y-42100D02*
X17400Y-41200D01*
X17400Y-41200D02*
X16750Y-41200D01*
X16050Y-42100D02*
X15400Y-42100D01*
X38900Y-41600D02*
X38900Y-40700D01*
X38900Y-40700D02*
X39550Y-40700D01*
X40250Y-41600D02*
X40900Y-41600D01*
X40900Y-41600D02*
X40900Y-40700D01*
X40900Y-40700D02*
X40250Y-40700D01*
X39550Y-41600D02*
X38900Y-41600D01*
X15400Y-40100D02*
X15400Y-39200D01*
X15400Y-39200D02*
X16050Y-39200D01*
X16750Y-40100D02*
X17400Y-40100D01*
X17400Y-40100D02*
X17400Y-39200D01*
X17400Y-39200D02*
X16750Y-39200D01*
X16050Y-40100D02*
X15400Y-40100D01*
X31900Y-39600D02*
X31900Y-38700D01*
X31900Y-38700D02*
X32550Y-38700D01*
X33250Y-39600D02*
X33900Y-39600D01*
X33900Y-39600D02*
X33900Y-38700D01*
X33900Y-38700D02*
X33250Y-38700D01*
X32550Y-39600D02*
X31900Y-39600D01*
X52900Y-34600D02*
X52900Y-33700D01*
X52900Y-33700D02*
X53550Y-33700D01*
X54250Y-34600D02*
X54900Y-34600D01*
X54900Y-34600D02*
X54900Y-33700D01*
X54900Y-33700D02*
X54250Y-33700D01*
X53550Y-34600D02*
X52900Y-34600D01*
X31900Y-32600D02*
X31900Y-31700D01*
X31900Y-31700D02*
X32550Y-31700D01*
X33250Y-32600D02*
X33900Y-32600D01*
X33900Y-32600D02*
X33900Y-31700D01*
X33900Y-31700D02*
X33250Y-31700D01*
X32550Y-32600D02*
X31900Y-32600D01*
X15400Y-32100D02*
X15400Y-31200D01*
X15400Y-31200D02*
X16050Y-31200D01*
X16750Y-32100D02*
X17400Y-32100D01*
X17400Y-32100D02*
X17400Y-31200D01*
X17400Y-31200D02*
X16750Y-31200D01*
X16050Y-32100D02*
X15400Y-32100D01*
X38900Y-32600D02*
X38900Y-31700D01*
X38900Y-31700D02*
X39550Y-31700D01*
X40250Y-32600D02*
X40900Y-32600D01*
X40900Y-32600D02*
X40900Y-31700D01*
X40900Y-31700D02*
X40250Y-31700D01*
X39550Y-32600D02*
X38900Y-32600D01*
X38900Y-34600D02*
X38900Y-33700D01*
X38900Y-33700D02*
X39550Y-33700D01*
X40250Y-34600D02*
X40900Y-34600D01*
X40900Y-34600D02*
X40900Y-33700D01*
X40900Y-33700D02*
X40250Y-33700D01*
X39550Y-34600D02*
X38900Y-34600D01*
X45900Y-34600D02*
X45900Y-33700D01*
X45900Y-33700D02*
X46550Y-33700D01*
X47250Y-34600D02*
X47900Y-34600D01*
X47900Y-34600D02*
X47900Y-33700D01*
X47900Y-33700D02*
X47250Y-33700D01*
X46550Y-34600D02*
X45900Y-34600D01*
X31900Y-34600D02*
X31900Y-33700D01*
X31900Y-33700D02*
X32550Y-33700D01*
X33250Y-34600D02*
X33900Y-34600D01*
X33900Y-34600D02*
X33900Y-33700D01*
X33900Y-33700D02*
X33250Y-33700D01*
X32550Y-34600D02*
X31900Y-34600D01*
X15400Y-35100D02*
X15400Y-34200D01*
X15400Y-34200D02*
X16050Y-34200D01*
X16750Y-35100D02*
X17400Y-35100D01*
X17400Y-35100D02*
X17400Y-34200D01*
X17400Y-34200D02*
X16750Y-34200D01*
X16050Y-35100D02*
X15400Y-35100D01*
X45900Y-41600D02*
X45900Y-40700D01*
X45900Y-40700D02*
X46550Y-40700D01*
X47250Y-41600D02*
X47900Y-41600D01*
X47900Y-41600D02*
X47900Y-40700D01*
X47900Y-40700D02*
X47250Y-40700D01*
X46550Y-41600D02*
X45900Y-41600D01*
X45900Y-27600D02*
X45900Y-26700D01*
X45900Y-26700D02*
X46550Y-26700D01*
X47250Y-27600D02*
X47900Y-27600D01*
X47900Y-27600D02*
X47900Y-26700D01*
X47900Y-26700D02*
X47250Y-26700D01*
X46550Y-27600D02*
X45900Y-27600D01*
X38900Y-27600D02*
X38900Y-26700D01*
X38900Y-26700D02*
X39550Y-26700D01*
X40250Y-27600D02*
X40900Y-27600D01*
X40900Y-27600D02*
X40900Y-26700D01*
X40900Y-26700D02*
X40250Y-26700D01*
X39550Y-27600D02*
X38900Y-27600D01*
X07800Y-28650D02*
X06900Y-28650D01*
X06900Y-28650D02*
X06900Y-28000D01*
X07800Y-27300D02*
X07800Y-26650D01*
X07800Y-26650D02*
X06900Y-26650D01*
X06900Y-26650D02*
X06900Y-27300D01*
X07800Y-28000D02*
X07800Y-28650D01*
X15400Y-28100D02*
X15400Y-27200D01*
X15400Y-27200D02*
X16050Y-27200D01*
X16750Y-28100D02*
X17400Y-28100D01*
X17400Y-28100D02*
X17400Y-27200D01*
X17400Y-27200D02*
X16750Y-27200D01*
X16050Y-28100D02*
X15400Y-28100D01*
X52900Y-27600D02*
X52900Y-26700D01*
X52900Y-26700D02*
X53550Y-26700D01*
X54250Y-27600D02*
X54900Y-27600D01*
X54900Y-27600D02*
X54900Y-26700D01*
X54900Y-26700D02*
X54250Y-26700D01*
X53550Y-27600D02*
X52900Y-27600D01*
X15400Y-27100D02*
X15400Y-26200D01*
X15400Y-26200D02*
X16050Y-26200D01*
X16750Y-27100D02*
X17400Y-27100D01*
X17400Y-27100D02*
X17400Y-26200D01*
X17400Y-26200D02*
X16750Y-26200D01*
X16050Y-27100D02*
X15400Y-27100D01*
X38900Y-20600D02*
X38900Y-19700D01*
X38900Y-19700D02*
X39550Y-19700D01*
X40250Y-20600D02*
X40900Y-20600D01*
X40900Y-20600D02*
X40900Y-19700D01*
X40900Y-19700D02*
X40250Y-19700D01*
X39550Y-20600D02*
X38900Y-20600D01*
X15400Y-20100D02*
X15400Y-19200D01*
X15400Y-19200D02*
X16050Y-19200D01*
X16750Y-20100D02*
X17400Y-20100D01*
X17400Y-20100D02*
X17400Y-19200D01*
X17400Y-19200D02*
X16750Y-19200D01*
X16050Y-20100D02*
X15400Y-20100D01*
X45900Y-18600D02*
X45900Y-17700D01*
X45900Y-17700D02*
X46550Y-17700D01*
X47250Y-18600D02*
X47900Y-18600D01*
X47900Y-18600D02*
X47900Y-17700D01*
X47900Y-17700D02*
X47250Y-17700D01*
X46550Y-18600D02*
X45900Y-18600D01*
X15400Y-19100D02*
X15400Y-18200D01*
X15400Y-18200D02*
X16050Y-18200D01*
X16750Y-19100D02*
X17400Y-19100D01*
X17400Y-19100D02*
X17400Y-18200D01*
X17400Y-18200D02*
X16750Y-18200D01*
X16050Y-19100D02*
X15400Y-19100D01*
X15400Y-21100D02*
X15400Y-20200D01*
X15400Y-20200D02*
X16050Y-20200D01*
X16750Y-21100D02*
X17400Y-21100D01*
X17400Y-21100D02*
X17400Y-20200D01*
X17400Y-20200D02*
X16750Y-20200D01*
X16050Y-21100D02*
X15400Y-21100D01*
X31900Y-20600D02*
X31900Y-19700D01*
X31900Y-19700D02*
X32550Y-19700D01*
X33250Y-20600D02*
X33900Y-20600D01*
X33900Y-20600D02*
X33900Y-19700D01*
X33900Y-19700D02*
X33250Y-19700D01*
X32550Y-20600D02*
X31900Y-20600D01*
X15400Y-25100D02*
X15400Y-24200D01*
X15400Y-24200D02*
X16050Y-24200D01*
X16750Y-25100D02*
X17400Y-25100D01*
X17400Y-25100D02*
X17400Y-24200D01*
X17400Y-24200D02*
X16750Y-24200D01*
X16050Y-25100D02*
X15400Y-25100D01*
X52900Y-25600D02*
X52900Y-24700D01*
X52900Y-24700D02*
X53550Y-24700D01*
X54250Y-25600D02*
X54900Y-25600D01*
X54900Y-25600D02*
X54900Y-24700D01*
X54900Y-24700D02*
X54250Y-24700D01*
X53550Y-25600D02*
X52900Y-25600D01*
X31900Y-27600D02*
X31900Y-26700D01*
X31900Y-26700D02*
X32550Y-26700D01*
X33250Y-27600D02*
X33900Y-27600D01*
X33900Y-27600D02*
X33900Y-26700D01*
X33900Y-26700D02*
X33250Y-26700D01*
X32550Y-27600D02*
X31900Y-27600D01*
X15400Y-34100D02*
X15400Y-33200D01*
X15400Y-33200D02*
X16050Y-33200D01*
X16750Y-34100D02*
X17400Y-34100D01*
X17400Y-34100D02*
X17400Y-33200D01*
X17400Y-33200D02*
X16750Y-33200D01*
X16050Y-34100D02*
X15400Y-34100D01*
X45900Y-32600D02*
X45900Y-31700D01*
X45900Y-31700D02*
X46550Y-31700D01*
X47250Y-32600D02*
X47900Y-32600D01*
X47900Y-32600D02*
X47900Y-31700D01*
X47900Y-31700D02*
X47250Y-31700D01*
X46550Y-32600D02*
X45900Y-32600D01*
X52900Y-32600D02*
X52900Y-31700D01*
X52900Y-31700D02*
X53550Y-31700D01*
X54250Y-32600D02*
X54900Y-32600D01*
X54900Y-32600D02*
X54900Y-31700D01*
X54900Y-31700D02*
X54250Y-31700D01*
X53550Y-32600D02*
X52900Y-32600D01*
X15400Y-33100D02*
X15400Y-32200D01*
X15400Y-32200D02*
X16050Y-32200D01*
X16750Y-33100D02*
X17400Y-33100D01*
X17400Y-33100D02*
X17400Y-32200D01*
X17400Y-32200D02*
X16750Y-32200D01*
X16050Y-33100D02*
X15400Y-33100D01*
X45900Y-39600D02*
X45900Y-38700D01*
X45900Y-38700D02*
X46550Y-38700D01*
X47250Y-39600D02*
X47900Y-39600D01*
X47900Y-39600D02*
X47900Y-38700D01*
X47900Y-38700D02*
X47250Y-38700D01*
X46550Y-39600D02*
X45900Y-39600D01*
X11900Y-26600D02*
X11000Y-26600D01*
X11000Y-26600D02*
X11000Y-27100D01*
X11000Y-27100D02*
X11900Y-27100D01*
X11900Y-27100D02*
X11900Y-26600D01*
X10950Y-25150D02*
X11850Y-25150D01*
X11850Y-25150D02*
X11850Y-24650D01*
X11850Y-24650D02*
X10950Y-24650D01*
X10950Y-24650D02*
X10950Y-25150D01*
G54D12*
X35150Y-24650D02*
X37650Y-24650D01*
X37650Y-24650D02*
X37650Y-28650D01*
X37650Y-28650D02*
X35150Y-28650D01*
X35150Y-28650D02*
X35150Y-24650D01*
G54D13*
X35900Y-24650D02*
X35900Y-25150D01*
X35900Y-25150D02*
X36900Y-25150D01*
X36900Y-25150D02*
X36900Y-24650D01*
G54D12*
X42150Y-10650D02*
X44650Y-10650D01*
X44650Y-10650D02*
X44650Y-14650D01*
X44650Y-14650D02*
X42150Y-14650D01*
X42150Y-14650D02*
X42150Y-10650D01*
G54D13*
X42900Y-10650D02*
X42900Y-11150D01*
X42900Y-11150D02*
X43900Y-11150D01*
X43900Y-11150D02*
X43900Y-10650D01*
G54D12*
X28150Y-38650D02*
X30650Y-38650D01*
X30650Y-38650D02*
X30650Y-42650D01*
X30650Y-42650D02*
X28150Y-42650D01*
X28150Y-42650D02*
X28150Y-38650D01*
G54D13*
X28900Y-38650D02*
X28900Y-39150D01*
X28900Y-39150D02*
X29900Y-39150D01*
X29900Y-39150D02*
X29900Y-38650D01*
G54D12*
X42150Y-24650D02*
X44650Y-24650D01*
X44650Y-24650D02*
X44650Y-28650D01*
X44650Y-28650D02*
X42150Y-28650D01*
X42150Y-28650D02*
X42150Y-24650D01*
G54D13*
X42900Y-24650D02*
X42900Y-25150D01*
X42900Y-25150D02*
X43900Y-25150D01*
X43900Y-25150D02*
X43900Y-24650D01*
G54D12*
X42150Y-38650D02*
X44650Y-38650D01*
X44650Y-38650D02*
X44650Y-42650D01*
X44650Y-42650D02*
X42150Y-42650D01*
X42150Y-42650D02*
X42150Y-38650D01*
G54D13*
X42900Y-38650D02*
X42900Y-39150D01*
X42900Y-39150D02*
X43900Y-39150D01*
X43900Y-39150D02*
X43900Y-38650D01*
G54D12*
X35150Y-17650D02*
X37650Y-17650D01*
X37650Y-17650D02*
X37650Y-21650D01*
X37650Y-21650D02*
X35150Y-21650D01*
X35150Y-21650D02*
X35150Y-17650D01*
G54D13*
X35900Y-17650D02*
X35900Y-18150D01*
X35900Y-18150D02*
X36900Y-18150D01*
X36900Y-18150D02*
X36900Y-17650D01*
G54D12*
X42150Y-17650D02*
X44650Y-17650D01*
X44650Y-17650D02*
X44650Y-21650D01*
X44650Y-21650D02*
X42150Y-21650D01*
X42150Y-21650D02*
X42150Y-17650D01*
G54D13*
X42900Y-17650D02*
X42900Y-18150D01*
X42900Y-18150D02*
X43900Y-18150D01*
X43900Y-18150D02*
X43900Y-17650D01*
G54D12*
X35150Y-10650D02*
X37650Y-10650D01*
X37650Y-10650D02*
X37650Y-14650D01*
X37650Y-14650D02*
X35150Y-14650D01*
X35150Y-14650D02*
X35150Y-10650D01*
G54D13*
X35900Y-10650D02*
X35900Y-11150D01*
X35900Y-11150D02*
X36900Y-11150D01*
X36900Y-11150D02*
X36900Y-10650D01*
G54D12*
X28150Y-10650D02*
X30650Y-10650D01*
X30650Y-10650D02*
X30650Y-14650D01*
X30650Y-14650D02*
X28150Y-14650D01*
X28150Y-14650D02*
X28150Y-10650D01*
G54D13*
X28900Y-10650D02*
X28900Y-11150D01*
X28900Y-11150D02*
X29900Y-11150D01*
X29900Y-11150D02*
X29900Y-10650D01*
G54D12*
X49150Y-38650D02*
X51650Y-38650D01*
X51650Y-38650D02*
X51650Y-42650D01*
X51650Y-42650D02*
X49150Y-42650D01*
X49150Y-42650D02*
X49150Y-38650D01*
G54D13*
X49900Y-38650D02*
X49900Y-39150D01*
X49900Y-39150D02*
X50900Y-39150D01*
X50900Y-39150D02*
X50900Y-38650D01*
G54D12*
X28150Y-17650D02*
X30650Y-17650D01*
X30650Y-17650D02*
X30650Y-21650D01*
X30650Y-21650D02*
X28150Y-21650D01*
X28150Y-21650D02*
X28150Y-17650D01*
G54D13*
X28900Y-17650D02*
X28900Y-18150D01*
X28900Y-18150D02*
X29900Y-18150D01*
X29900Y-18150D02*
X29900Y-17650D01*
G54D12*
X49150Y-10650D02*
X51650Y-10650D01*
X51650Y-10650D02*
X51650Y-14650D01*
X51650Y-14650D02*
X49150Y-14650D01*
X49150Y-14650D02*
X49150Y-10650D01*
G54D13*
X49900Y-10650D02*
X49900Y-11150D01*
X49900Y-11150D02*
X50900Y-11150D01*
X50900Y-11150D02*
X50900Y-10650D01*
G54D12*
X49150Y-31650D02*
X51650Y-31650D01*
X51650Y-31650D02*
X51650Y-35650D01*
X51650Y-35650D02*
X49150Y-35650D01*
X49150Y-35650D02*
X49150Y-31650D01*
G54D13*
X49900Y-31650D02*
X49900Y-32150D01*
X49900Y-32150D02*
X50900Y-32150D01*
X50900Y-32150D02*
X50900Y-31650D01*
G54D12*
X28150Y-24650D02*
X30650Y-24650D01*
X30650Y-24650D02*
X30650Y-28650D01*
X30650Y-28650D02*
X28150Y-28650D01*
X28150Y-28650D02*
X28150Y-24650D01*
G54D13*
X28900Y-24650D02*
X28900Y-25150D01*
X28900Y-25150D02*
X29900Y-25150D01*
X29900Y-25150D02*
X29900Y-24650D01*
G54D12*
X35150Y-31650D02*
X37650Y-31650D01*
X37650Y-31650D02*
X37650Y-35650D01*
X37650Y-35650D02*
X35150Y-35650D01*
X35150Y-35650D02*
X35150Y-31650D01*
G54D13*
X35900Y-31650D02*
X35900Y-32150D01*
X35900Y-32150D02*
X36900Y-32150D01*
X36900Y-32150D02*
X36900Y-31650D01*
G54D12*
X49150Y-24650D02*
X51650Y-24650D01*
X51650Y-24650D02*
X51650Y-28650D01*
X51650Y-28650D02*
X49150Y-28650D01*
X49150Y-28650D02*
X49150Y-24650D01*
G54D13*
X49900Y-24650D02*
X49900Y-25150D01*
X49900Y-25150D02*
X50900Y-25150D01*
X50900Y-25150D02*
X50900Y-24650D01*
G54D12*
X35150Y-38650D02*
X37650Y-38650D01*
X37650Y-38650D02*
X37650Y-42650D01*
X37650Y-42650D02*
X35150Y-42650D01*
X35150Y-42650D02*
X35150Y-38650D01*
G54D13*
X35900Y-38650D02*
X35900Y-39150D01*
X35900Y-39150D02*
X36900Y-39150D01*
X36900Y-39150D02*
X36900Y-38650D01*
G54D12*
X28150Y-31650D02*
X30650Y-31650D01*
X30650Y-31650D02*
X30650Y-35650D01*
X30650Y-35650D02*
X28150Y-35650D01*
X28150Y-35650D02*
X28150Y-31650D01*
G54D13*
X28900Y-31650D02*
X28900Y-32150D01*
X28900Y-32150D02*
X29900Y-32150D01*
X29900Y-32150D02*
X29900Y-31650D01*
G54D12*
X49150Y-17650D02*
X51650Y-17650D01*
X51650Y-17650D02*
X51650Y-21650D01*
X51650Y-21650D02*
X49150Y-21650D01*
X49150Y-21650D02*
X49150Y-17650D01*
G54D13*
X49900Y-17650D02*
X49900Y-18150D01*
X49900Y-18150D02*
X50900Y-18150D01*
X50900Y-18150D02*
X50900Y-17650D01*
G54D12*
X42150Y-31650D02*
X44650Y-31650D01*
X44650Y-31650D02*
X44650Y-35650D01*
X44650Y-35650D02*
X42150Y-35650D01*
X42150Y-35650D02*
X42150Y-31650D01*
G54D13*
X42900Y-31650D02*
X42900Y-32150D01*
X42900Y-32150D02*
X43900Y-32150D01*
X43900Y-32150D02*
X43900Y-31650D01*
G54D14*
X09750Y-11100D02*
X09750Y-09950D01*
X09750Y-09950D02*
X11350Y-09950D01*
X11350Y-09950D02*
X11350Y-11100D01*
X09750Y-12100D02*
X09750Y-13250D01*
X09750Y-13250D02*
X11350Y-13250D01*
X11350Y-13250D02*
X11350Y-12100D01*
G54D11*
X54093Y-10571D02*
X54193Y-10429D01*
X54265Y-10571D02*
X54265Y-10271D01*
X54150Y-10271D01*
X54122Y-10286D01*
X54107Y-10300D01*
X54093Y-10329D01*
X54093Y-10371D01*
X54107Y-10400D01*
X54122Y-10414D01*
X54150Y-10429D01*
X54265Y-10429D01*
X53836Y-10271D02*
X53893Y-10271D01*
X53922Y-10286D01*
X53936Y-10300D01*
X53965Y-10343D01*
X53979Y-10400D01*
X53979Y-10514D01*
X53965Y-10543D01*
X53950Y-10557D01*
X53922Y-10571D01*
X53865Y-10571D01*
X53836Y-10557D01*
X53822Y-10543D01*
X53807Y-10514D01*
X53807Y-10443D01*
X53822Y-10414D01*
X53836Y-10400D01*
X53865Y-10386D01*
X53922Y-10386D01*
X53950Y-10400D01*
X53965Y-10414D01*
X53979Y-10443D01*
X53707Y-10271D02*
X53521Y-10271D01*
X53621Y-10386D01*
X53579Y-10386D01*
X53550Y-10400D01*
X53536Y-10414D01*
X53521Y-10443D01*
X53521Y-10514D01*
X53536Y-10543D01*
X53550Y-10557D01*
X53579Y-10571D01*
X53664Y-10571D01*
X53693Y-10557D01*
X53707Y-10543D01*
X15093Y-10771D02*
X15193Y-10629D01*
X15265Y-10771D02*
X15265Y-10471D01*
X15150Y-10471D01*
X15122Y-10486D01*
X15107Y-10500D01*
X15093Y-10529D01*
X15093Y-10571D01*
X15107Y-10600D01*
X15122Y-10614D01*
X15150Y-10629D01*
X15265Y-10629D01*
X14836Y-10471D02*
X14893Y-10471D01*
X14922Y-10486D01*
X14936Y-10500D01*
X14965Y-10543D01*
X14979Y-10600D01*
X14979Y-10714D01*
X14965Y-10743D01*
X14950Y-10757D01*
X14922Y-10771D01*
X14865Y-10771D01*
X14836Y-10757D01*
X14822Y-10743D01*
X14807Y-10714D01*
X14807Y-10643D01*
X14822Y-10614D01*
X14836Y-10600D01*
X14865Y-10586D01*
X14922Y-10586D01*
X14950Y-10600D01*
X14965Y-10614D01*
X14979Y-10643D01*
X14550Y-10571D02*
X14550Y-10771D01*
X14621Y-10457D02*
X14693Y-10671D01*
X14507Y-10671D01*
X33093Y-12571D02*
X33193Y-12429D01*
X33265Y-12571D02*
X33265Y-12271D01*
X33150Y-12271D01*
X33122Y-12286D01*
X33107Y-12300D01*
X33093Y-12329D01*
X33093Y-12371D01*
X33107Y-12400D01*
X33122Y-12414D01*
X33150Y-12429D01*
X33265Y-12429D01*
X32993Y-12271D02*
X32793Y-12271D01*
X32922Y-12571D01*
X32707Y-12271D02*
X32521Y-12271D01*
X32621Y-12386D01*
X32579Y-12386D01*
X32550Y-12400D01*
X32536Y-12414D01*
X32521Y-12443D01*
X32521Y-12514D01*
X32536Y-12543D01*
X32550Y-12557D01*
X32579Y-12571D01*
X32664Y-12571D01*
X32693Y-12557D01*
X32707Y-12543D01*
X47093Y-19621D02*
X47193Y-19479D01*
X47265Y-19621D02*
X47265Y-19321D01*
X47150Y-19321D01*
X47122Y-19336D01*
X47107Y-19350D01*
X47093Y-19379D01*
X47093Y-19421D01*
X47107Y-19450D01*
X47122Y-19464D01*
X47150Y-19479D01*
X47265Y-19479D01*
X46922Y-19450D02*
X46950Y-19436D01*
X46965Y-19421D01*
X46979Y-19393D01*
X46979Y-19379D01*
X46965Y-19350D01*
X46950Y-19336D01*
X46922Y-19321D01*
X46865Y-19321D01*
X46836Y-19336D01*
X46822Y-19350D01*
X46807Y-19379D01*
X46807Y-19393D01*
X46822Y-19421D01*
X46836Y-19436D01*
X46865Y-19450D01*
X46922Y-19450D01*
X46950Y-19464D01*
X46965Y-19479D01*
X46979Y-19507D01*
X46979Y-19564D01*
X46965Y-19593D01*
X46950Y-19607D01*
X46922Y-19621D01*
X46865Y-19621D01*
X46836Y-19607D01*
X46822Y-19593D01*
X46807Y-19564D01*
X46807Y-19507D01*
X46822Y-19479D01*
X46836Y-19464D01*
X46865Y-19450D01*
X46707Y-19321D02*
X46521Y-19321D01*
X46621Y-19436D01*
X46579Y-19436D01*
X46550Y-19450D01*
X46536Y-19464D01*
X46521Y-19493D01*
X46521Y-19564D01*
X46536Y-19593D01*
X46550Y-19607D01*
X46579Y-19621D01*
X46664Y-19621D01*
X46693Y-19607D01*
X46707Y-19593D01*
X33093Y-17571D02*
X33193Y-17429D01*
X33265Y-17571D02*
X33265Y-17271D01*
X33150Y-17271D01*
X33122Y-17286D01*
X33107Y-17300D01*
X33093Y-17329D01*
X33093Y-17371D01*
X33107Y-17400D01*
X33122Y-17414D01*
X33150Y-17429D01*
X33265Y-17429D01*
X32993Y-17271D02*
X32793Y-17271D01*
X32922Y-17571D01*
X32664Y-17571D02*
X32607Y-17571D01*
X32579Y-17557D01*
X32564Y-17543D01*
X32536Y-17500D01*
X32521Y-17443D01*
X32521Y-17329D01*
X32536Y-17300D01*
X32550Y-17286D01*
X32579Y-17271D01*
X32636Y-17271D01*
X32664Y-17286D01*
X32679Y-17300D01*
X32693Y-17329D01*
X32693Y-17400D01*
X32679Y-17429D01*
X32664Y-17443D01*
X32636Y-17457D01*
X32579Y-17457D01*
X32550Y-17443D01*
X32536Y-17429D01*
X32521Y-17400D01*
X40093Y-17571D02*
X40193Y-17429D01*
X40265Y-17571D02*
X40265Y-17271D01*
X40150Y-17271D01*
X40122Y-17286D01*
X40107Y-17300D01*
X40093Y-17329D01*
X40093Y-17371D01*
X40107Y-17400D01*
X40122Y-17414D01*
X40150Y-17429D01*
X40265Y-17429D01*
X39993Y-17271D02*
X39793Y-17271D01*
X39922Y-17571D01*
X39636Y-17400D02*
X39664Y-17386D01*
X39679Y-17371D01*
X39693Y-17343D01*
X39693Y-17329D01*
X39679Y-17300D01*
X39664Y-17286D01*
X39636Y-17271D01*
X39579Y-17271D01*
X39550Y-17286D01*
X39536Y-17300D01*
X39521Y-17329D01*
X39521Y-17343D01*
X39536Y-17371D01*
X39550Y-17386D01*
X39579Y-17400D01*
X39636Y-17400D01*
X39664Y-17414D01*
X39679Y-17429D01*
X39693Y-17457D01*
X39693Y-17514D01*
X39679Y-17543D01*
X39664Y-17557D01*
X39636Y-17571D01*
X39579Y-17571D01*
X39550Y-17557D01*
X39536Y-17543D01*
X39521Y-17514D01*
X39521Y-17457D01*
X39536Y-17429D01*
X39550Y-17414D01*
X39579Y-17400D01*
X54093Y-19571D02*
X54193Y-19429D01*
X54265Y-19571D02*
X54265Y-19271D01*
X54150Y-19271D01*
X54122Y-19286D01*
X54107Y-19300D01*
X54093Y-19329D01*
X54093Y-19371D01*
X54107Y-19400D01*
X54122Y-19414D01*
X54150Y-19429D01*
X54265Y-19429D01*
X53922Y-19400D02*
X53950Y-19386D01*
X53965Y-19371D01*
X53979Y-19343D01*
X53979Y-19329D01*
X53965Y-19300D01*
X53950Y-19286D01*
X53922Y-19271D01*
X53865Y-19271D01*
X53836Y-19286D01*
X53822Y-19300D01*
X53807Y-19329D01*
X53807Y-19343D01*
X53822Y-19371D01*
X53836Y-19386D01*
X53865Y-19400D01*
X53922Y-19400D01*
X53950Y-19414D01*
X53965Y-19429D01*
X53979Y-19457D01*
X53979Y-19514D01*
X53965Y-19543D01*
X53950Y-19557D01*
X53922Y-19571D01*
X53865Y-19571D01*
X53836Y-19557D01*
X53822Y-19543D01*
X53807Y-19514D01*
X53807Y-19457D01*
X53822Y-19429D01*
X53836Y-19414D01*
X53865Y-19400D01*
X53693Y-19300D02*
X53679Y-19286D01*
X53650Y-19271D01*
X53579Y-19271D01*
X53550Y-19286D01*
X53536Y-19300D01*
X53521Y-19329D01*
X53521Y-19357D01*
X53536Y-19400D01*
X53707Y-19571D01*
X53521Y-19571D01*
X33093Y-24571D02*
X33193Y-24429D01*
X33265Y-24571D02*
X33265Y-24271D01*
X33150Y-24271D01*
X33122Y-24286D01*
X33107Y-24300D01*
X33093Y-24329D01*
X33093Y-24371D01*
X33107Y-24400D01*
X33122Y-24414D01*
X33150Y-24429D01*
X33265Y-24429D01*
X32950Y-24571D02*
X32893Y-24571D01*
X32865Y-24557D01*
X32850Y-24543D01*
X32822Y-24500D01*
X32807Y-24443D01*
X32807Y-24329D01*
X32822Y-24300D01*
X32836Y-24286D01*
X32865Y-24271D01*
X32922Y-24271D01*
X32950Y-24286D01*
X32965Y-24300D01*
X32979Y-24329D01*
X32979Y-24400D01*
X32965Y-24429D01*
X32950Y-24443D01*
X32922Y-24457D01*
X32865Y-24457D01*
X32836Y-24443D01*
X32822Y-24429D01*
X32807Y-24400D01*
X32521Y-24571D02*
X32693Y-24571D01*
X32607Y-24571D02*
X32607Y-24271D01*
X32636Y-24314D01*
X32664Y-24343D01*
X32693Y-24357D01*
X47093Y-24571D02*
X47193Y-24429D01*
X47265Y-24571D02*
X47265Y-24271D01*
X47150Y-24271D01*
X47122Y-24286D01*
X47107Y-24300D01*
X47093Y-24329D01*
X47093Y-24371D01*
X47107Y-24400D01*
X47122Y-24414D01*
X47150Y-24429D01*
X47265Y-24429D01*
X46922Y-24400D02*
X46950Y-24386D01*
X46965Y-24371D01*
X46979Y-24343D01*
X46979Y-24329D01*
X46965Y-24300D01*
X46950Y-24286D01*
X46922Y-24271D01*
X46865Y-24271D01*
X46836Y-24286D01*
X46822Y-24300D01*
X46807Y-24329D01*
X46807Y-24343D01*
X46822Y-24371D01*
X46836Y-24386D01*
X46865Y-24400D01*
X46922Y-24400D01*
X46950Y-24414D01*
X46965Y-24429D01*
X46979Y-24457D01*
X46979Y-24514D01*
X46965Y-24543D01*
X46950Y-24557D01*
X46922Y-24571D01*
X46865Y-24571D01*
X46836Y-24557D01*
X46822Y-24543D01*
X46807Y-24514D01*
X46807Y-24457D01*
X46822Y-24429D01*
X46836Y-24414D01*
X46865Y-24400D01*
X46664Y-24571D02*
X46607Y-24571D01*
X46579Y-24557D01*
X46564Y-24543D01*
X46536Y-24500D01*
X46521Y-24443D01*
X46521Y-24329D01*
X46536Y-24300D01*
X46550Y-24286D01*
X46579Y-24271D01*
X46636Y-24271D01*
X46664Y-24286D01*
X46679Y-24300D01*
X46693Y-24329D01*
X46693Y-24400D01*
X46679Y-24429D01*
X46664Y-24443D01*
X46636Y-24457D01*
X46579Y-24457D01*
X46550Y-24443D01*
X46536Y-24429D01*
X46521Y-24400D01*
X40093Y-24621D02*
X40193Y-24479D01*
X40265Y-24621D02*
X40265Y-24321D01*
X40150Y-24321D01*
X40122Y-24336D01*
X40107Y-24350D01*
X40093Y-24379D01*
X40093Y-24421D01*
X40107Y-24450D01*
X40122Y-24464D01*
X40150Y-24479D01*
X40265Y-24479D01*
X39950Y-24621D02*
X39893Y-24621D01*
X39865Y-24607D01*
X39850Y-24593D01*
X39822Y-24550D01*
X39807Y-24493D01*
X39807Y-24379D01*
X39822Y-24350D01*
X39836Y-24336D01*
X39865Y-24321D01*
X39922Y-24321D01*
X39950Y-24336D01*
X39965Y-24350D01*
X39979Y-24379D01*
X39979Y-24450D01*
X39965Y-24479D01*
X39950Y-24493D01*
X39922Y-24507D01*
X39865Y-24507D01*
X39836Y-24493D01*
X39822Y-24479D01*
X39807Y-24450D01*
X39621Y-24321D02*
X39593Y-24321D01*
X39564Y-24336D01*
X39550Y-24350D01*
X39536Y-24379D01*
X39521Y-24436D01*
X39521Y-24507D01*
X39536Y-24564D01*
X39550Y-24593D01*
X39564Y-24607D01*
X39593Y-24621D01*
X39621Y-24621D01*
X39650Y-24607D01*
X39664Y-24593D01*
X39679Y-24564D01*
X39693Y-24507D01*
X39693Y-24436D01*
X39679Y-24379D01*
X39664Y-24350D01*
X39650Y-24336D01*
X39621Y-24321D01*
X15093Y-25771D02*
X15193Y-25629D01*
X15265Y-25771D02*
X15265Y-25471D01*
X15150Y-25471D01*
X15122Y-25486D01*
X15107Y-25500D01*
X15093Y-25529D01*
X15093Y-25571D01*
X15107Y-25600D01*
X15122Y-25614D01*
X15150Y-25629D01*
X15265Y-25629D01*
X14950Y-25771D02*
X14893Y-25771D01*
X14865Y-25757D01*
X14850Y-25743D01*
X14822Y-25700D01*
X14807Y-25643D01*
X14807Y-25529D01*
X14822Y-25500D01*
X14836Y-25486D01*
X14865Y-25471D01*
X14922Y-25471D01*
X14950Y-25486D01*
X14965Y-25500D01*
X14979Y-25529D01*
X14979Y-25600D01*
X14965Y-25629D01*
X14950Y-25643D01*
X14922Y-25657D01*
X14865Y-25657D01*
X14836Y-25643D01*
X14822Y-25629D01*
X14807Y-25600D01*
X14693Y-25500D02*
X14679Y-25486D01*
X14650Y-25471D01*
X14579Y-25471D01*
X14550Y-25486D01*
X14536Y-25500D01*
X14521Y-25529D01*
X14521Y-25557D01*
X14536Y-25600D01*
X14707Y-25771D01*
X14521Y-25771D01*
X05821Y-27457D02*
X05679Y-27357D01*
X05821Y-27285D02*
X05521Y-27285D01*
X05521Y-27400D01*
X05536Y-27428D01*
X05550Y-27443D01*
X05579Y-27457D01*
X05621Y-27457D01*
X05650Y-27443D01*
X05664Y-27428D01*
X05679Y-27400D01*
X05679Y-27285D01*
X05821Y-27600D02*
X05821Y-27657D01*
X05807Y-27685D01*
X05793Y-27700D01*
X05750Y-27728D01*
X05693Y-27743D01*
X05579Y-27743D01*
X05550Y-27728D01*
X05536Y-27714D01*
X05521Y-27685D01*
X05521Y-27628D01*
X05536Y-27600D01*
X05550Y-27585D01*
X05579Y-27571D01*
X05650Y-27571D01*
X05679Y-27585D01*
X05693Y-27600D01*
X05707Y-27628D01*
X05707Y-27685D01*
X05693Y-27714D01*
X05679Y-27728D01*
X05650Y-27743D01*
X05821Y-27886D02*
X05821Y-27943D01*
X05807Y-27971D01*
X05793Y-27986D01*
X05750Y-28014D01*
X05693Y-28029D01*
X05579Y-28029D01*
X05550Y-28014D01*
X05536Y-28000D01*
X05521Y-27971D01*
X05521Y-27914D01*
X05536Y-27886D01*
X05550Y-27871D01*
X05579Y-27857D01*
X05650Y-27857D01*
X05679Y-27871D01*
X05693Y-27886D01*
X05707Y-27914D01*
X05707Y-27971D01*
X05693Y-28000D01*
X05679Y-28014D01*
X05650Y-28029D01*
X33093Y-10521D02*
X33193Y-10379D01*
X33265Y-10521D02*
X33265Y-10221D01*
X33150Y-10221D01*
X33122Y-10236D01*
X33107Y-10250D01*
X33093Y-10279D01*
X33093Y-10321D01*
X33107Y-10350D01*
X33122Y-10364D01*
X33150Y-10379D01*
X33265Y-10379D01*
X32836Y-10221D02*
X32893Y-10221D01*
X32922Y-10236D01*
X32936Y-10250D01*
X32965Y-10293D01*
X32979Y-10350D01*
X32979Y-10464D01*
X32965Y-10493D01*
X32950Y-10507D01*
X32922Y-10521D01*
X32865Y-10521D01*
X32836Y-10507D01*
X32822Y-10493D01*
X32807Y-10464D01*
X32807Y-10393D01*
X32822Y-10364D01*
X32836Y-10350D01*
X32865Y-10336D01*
X32922Y-10336D01*
X32950Y-10350D01*
X32965Y-10364D01*
X32979Y-10393D01*
X32707Y-10221D02*
X32507Y-10221D01*
X32636Y-10521D01*
X47093Y-10571D02*
X47193Y-10429D01*
X47265Y-10571D02*
X47265Y-10271D01*
X47150Y-10271D01*
X47122Y-10286D01*
X47107Y-10300D01*
X47093Y-10329D01*
X47093Y-10371D01*
X47107Y-10400D01*
X47122Y-10414D01*
X47150Y-10429D01*
X47265Y-10429D01*
X46836Y-10271D02*
X46893Y-10271D01*
X46922Y-10286D01*
X46936Y-10300D01*
X46965Y-10343D01*
X46979Y-10400D01*
X46979Y-10514D01*
X46965Y-10543D01*
X46950Y-10557D01*
X46922Y-10571D01*
X46865Y-10571D01*
X46836Y-10557D01*
X46822Y-10543D01*
X46807Y-10514D01*
X46807Y-10443D01*
X46822Y-10414D01*
X46836Y-10400D01*
X46865Y-10386D01*
X46922Y-10386D01*
X46950Y-10400D01*
X46965Y-10414D01*
X46979Y-10443D01*
X46536Y-10271D02*
X46679Y-10271D01*
X46693Y-10414D01*
X46679Y-10400D01*
X46650Y-10386D01*
X46579Y-10386D01*
X46550Y-10400D01*
X46536Y-10414D01*
X46521Y-10443D01*
X46521Y-10514D01*
X46536Y-10543D01*
X46550Y-10557D01*
X46579Y-10571D01*
X46650Y-10571D01*
X46679Y-10557D01*
X46693Y-10543D01*
X40093Y-10571D02*
X40193Y-10429D01*
X40265Y-10571D02*
X40265Y-10271D01*
X40150Y-10271D01*
X40122Y-10286D01*
X40107Y-10300D01*
X40093Y-10329D01*
X40093Y-10371D01*
X40107Y-10400D01*
X40122Y-10414D01*
X40150Y-10429D01*
X40265Y-10429D01*
X39836Y-10271D02*
X39893Y-10271D01*
X39922Y-10286D01*
X39936Y-10300D01*
X39965Y-10343D01*
X39979Y-10400D01*
X39979Y-10514D01*
X39965Y-10543D01*
X39950Y-10557D01*
X39922Y-10571D01*
X39865Y-10571D01*
X39836Y-10557D01*
X39822Y-10543D01*
X39807Y-10514D01*
X39807Y-10443D01*
X39822Y-10414D01*
X39836Y-10400D01*
X39865Y-10386D01*
X39922Y-10386D01*
X39950Y-10400D01*
X39965Y-10414D01*
X39979Y-10443D01*
X39550Y-10271D02*
X39607Y-10271D01*
X39636Y-10286D01*
X39650Y-10300D01*
X39679Y-10343D01*
X39693Y-10400D01*
X39693Y-10514D01*
X39679Y-10543D01*
X39664Y-10557D01*
X39636Y-10571D01*
X39579Y-10571D01*
X39550Y-10557D01*
X39536Y-10543D01*
X39521Y-10514D01*
X39521Y-10443D01*
X39536Y-10414D01*
X39550Y-10400D01*
X39579Y-10386D01*
X39636Y-10386D01*
X39664Y-10400D01*
X39679Y-10414D01*
X39693Y-10443D01*
X15093Y-11771D02*
X15193Y-11629D01*
X15265Y-11771D02*
X15265Y-11471D01*
X15150Y-11471D01*
X15122Y-11486D01*
X15107Y-11500D01*
X15093Y-11529D01*
X15093Y-11571D01*
X15107Y-11600D01*
X15122Y-11614D01*
X15150Y-11629D01*
X15265Y-11629D01*
X14836Y-11471D02*
X14893Y-11471D01*
X14922Y-11486D01*
X14936Y-11500D01*
X14965Y-11543D01*
X14979Y-11600D01*
X14979Y-11714D01*
X14965Y-11743D01*
X14950Y-11757D01*
X14922Y-11771D01*
X14865Y-11771D01*
X14836Y-11757D01*
X14822Y-11743D01*
X14807Y-11714D01*
X14807Y-11643D01*
X14822Y-11614D01*
X14836Y-11600D01*
X14865Y-11586D01*
X14922Y-11586D01*
X14950Y-11600D01*
X14965Y-11614D01*
X14979Y-11643D01*
X14636Y-11600D02*
X14664Y-11586D01*
X14679Y-11571D01*
X14693Y-11543D01*
X14693Y-11529D01*
X14679Y-11500D01*
X14664Y-11486D01*
X14636Y-11471D01*
X14579Y-11471D01*
X14550Y-11486D01*
X14536Y-11500D01*
X14521Y-11529D01*
X14521Y-11543D01*
X14536Y-11571D01*
X14550Y-11586D01*
X14579Y-11600D01*
X14636Y-11600D01*
X14664Y-11614D01*
X14679Y-11629D01*
X14693Y-11657D01*
X14693Y-11714D01*
X14679Y-11743D01*
X14664Y-11757D01*
X14636Y-11771D01*
X14579Y-11771D01*
X14550Y-11757D01*
X14536Y-11743D01*
X14521Y-11714D01*
X14521Y-11657D01*
X14536Y-11629D01*
X14550Y-11614D01*
X14579Y-11600D01*
X15093Y-17771D02*
X15193Y-17629D01*
X15265Y-17771D02*
X15265Y-17471D01*
X15150Y-17471D01*
X15122Y-17486D01*
X15107Y-17500D01*
X15093Y-17529D01*
X15093Y-17571D01*
X15107Y-17600D01*
X15122Y-17614D01*
X15150Y-17629D01*
X15265Y-17629D01*
X14993Y-17471D02*
X14793Y-17471D01*
X14922Y-17771D01*
X14536Y-17471D02*
X14679Y-17471D01*
X14693Y-17614D01*
X14679Y-17600D01*
X14650Y-17586D01*
X14579Y-17586D01*
X14550Y-17600D01*
X14536Y-17614D01*
X14521Y-17643D01*
X14521Y-17714D01*
X14536Y-17743D01*
X14550Y-17757D01*
X14579Y-17771D01*
X14650Y-17771D01*
X14679Y-17757D01*
X14693Y-17743D01*
X47093Y-12571D02*
X47193Y-12429D01*
X47265Y-12571D02*
X47265Y-12271D01*
X47150Y-12271D01*
X47122Y-12286D01*
X47107Y-12300D01*
X47093Y-12329D01*
X47093Y-12371D01*
X47107Y-12400D01*
X47122Y-12414D01*
X47150Y-12429D01*
X47265Y-12429D01*
X46993Y-12271D02*
X46793Y-12271D01*
X46922Y-12571D01*
X46521Y-12571D02*
X46693Y-12571D01*
X46607Y-12571D02*
X46607Y-12271D01*
X46636Y-12314D01*
X46664Y-12343D01*
X46693Y-12357D01*
X40093Y-12571D02*
X40193Y-12429D01*
X40265Y-12571D02*
X40265Y-12271D01*
X40150Y-12271D01*
X40122Y-12286D01*
X40107Y-12300D01*
X40093Y-12329D01*
X40093Y-12371D01*
X40107Y-12400D01*
X40122Y-12414D01*
X40150Y-12429D01*
X40265Y-12429D01*
X39993Y-12271D02*
X39793Y-12271D01*
X39922Y-12571D01*
X39693Y-12300D02*
X39679Y-12286D01*
X39650Y-12271D01*
X39579Y-12271D01*
X39550Y-12286D01*
X39536Y-12300D01*
X39521Y-12329D01*
X39521Y-12357D01*
X39536Y-12400D01*
X39707Y-12571D01*
X39521Y-12571D01*
X54093Y-17571D02*
X54193Y-17429D01*
X54265Y-17571D02*
X54265Y-17271D01*
X54150Y-17271D01*
X54122Y-17286D01*
X54107Y-17300D01*
X54093Y-17329D01*
X54093Y-17371D01*
X54107Y-17400D01*
X54122Y-17414D01*
X54150Y-17429D01*
X54265Y-17429D01*
X53993Y-17271D02*
X53793Y-17271D01*
X53922Y-17571D01*
X53550Y-17271D02*
X53607Y-17271D01*
X53636Y-17286D01*
X53650Y-17300D01*
X53679Y-17343D01*
X53693Y-17400D01*
X53693Y-17514D01*
X53679Y-17543D01*
X53664Y-17557D01*
X53636Y-17571D01*
X53579Y-17571D01*
X53550Y-17557D01*
X53536Y-17543D01*
X53521Y-17514D01*
X53521Y-17443D01*
X53536Y-17414D01*
X53550Y-17400D01*
X53579Y-17386D01*
X53636Y-17386D01*
X53664Y-17400D01*
X53679Y-17414D01*
X53693Y-17443D01*
X15143Y-13771D02*
X15243Y-13629D01*
X15315Y-13771D02*
X15315Y-13471D01*
X15200Y-13471D01*
X15172Y-13486D01*
X15157Y-13500D01*
X15143Y-13529D01*
X15143Y-13571D01*
X15157Y-13600D01*
X15172Y-13614D01*
X15200Y-13629D01*
X15315Y-13629D01*
X15043Y-13471D02*
X14843Y-13471D01*
X14972Y-13771D01*
X14600Y-13571D02*
X14600Y-13771D01*
X14671Y-13457D02*
X14743Y-13671D01*
X14557Y-13671D01*
X15093Y-12821D02*
X15193Y-12679D01*
X15265Y-12821D02*
X15265Y-12521D01*
X15150Y-12521D01*
X15122Y-12536D01*
X15107Y-12550D01*
X15093Y-12579D01*
X15093Y-12621D01*
X15107Y-12650D01*
X15122Y-12664D01*
X15150Y-12679D01*
X15265Y-12679D01*
X14993Y-12521D02*
X14793Y-12521D01*
X14922Y-12821D01*
X14621Y-12521D02*
X14593Y-12521D01*
X14564Y-12536D01*
X14550Y-12550D01*
X14536Y-12579D01*
X14521Y-12636D01*
X14521Y-12707D01*
X14536Y-12764D01*
X14550Y-12793D01*
X14564Y-12807D01*
X14593Y-12821D01*
X14621Y-12821D01*
X14650Y-12807D01*
X14664Y-12793D01*
X14679Y-12764D01*
X14693Y-12707D01*
X14693Y-12636D01*
X14679Y-12579D01*
X14664Y-12550D01*
X14650Y-12536D01*
X14621Y-12521D01*
X54093Y-12571D02*
X54193Y-12429D01*
X54265Y-12571D02*
X54265Y-12271D01*
X54150Y-12271D01*
X54122Y-12286D01*
X54107Y-12300D01*
X54093Y-12329D01*
X54093Y-12371D01*
X54107Y-12400D01*
X54122Y-12414D01*
X54150Y-12429D01*
X54265Y-12429D01*
X53836Y-12271D02*
X53893Y-12271D01*
X53922Y-12286D01*
X53936Y-12300D01*
X53965Y-12343D01*
X53979Y-12400D01*
X53979Y-12514D01*
X53965Y-12543D01*
X53950Y-12557D01*
X53922Y-12571D01*
X53865Y-12571D01*
X53836Y-12557D01*
X53822Y-12543D01*
X53807Y-12514D01*
X53807Y-12443D01*
X53822Y-12414D01*
X53836Y-12400D01*
X53865Y-12386D01*
X53922Y-12386D01*
X53950Y-12400D01*
X53965Y-12414D01*
X53979Y-12443D01*
X53664Y-12571D02*
X53607Y-12571D01*
X53579Y-12557D01*
X53564Y-12543D01*
X53536Y-12500D01*
X53521Y-12443D01*
X53521Y-12329D01*
X53536Y-12300D01*
X53550Y-12286D01*
X53579Y-12271D01*
X53636Y-12271D01*
X53664Y-12286D01*
X53679Y-12300D01*
X53693Y-12329D01*
X53693Y-12400D01*
X53679Y-12429D01*
X53664Y-12443D01*
X53636Y-12457D01*
X53579Y-12457D01*
X53550Y-12443D01*
X53536Y-12429D01*
X53521Y-12400D01*
X54236Y-38571D02*
X54336Y-38429D01*
X54408Y-38571D02*
X54408Y-38271D01*
X54293Y-38271D01*
X54265Y-38286D01*
X54250Y-38300D01*
X54236Y-38329D01*
X54236Y-38371D01*
X54250Y-38400D01*
X54265Y-38414D01*
X54293Y-38429D01*
X54408Y-38429D01*
X53950Y-38571D02*
X54122Y-38571D01*
X54036Y-38571D02*
X54036Y-38271D01*
X54065Y-38314D01*
X54093Y-38343D01*
X54122Y-38357D01*
X53664Y-38571D02*
X53836Y-38571D01*
X53750Y-38571D02*
X53750Y-38271D01*
X53779Y-38314D01*
X53807Y-38343D01*
X53836Y-38357D01*
X53564Y-38271D02*
X53378Y-38271D01*
X53478Y-38386D01*
X53436Y-38386D01*
X53407Y-38400D01*
X53393Y-38414D01*
X53378Y-38443D01*
X53378Y-38514D01*
X53393Y-38543D01*
X53407Y-38557D01*
X53436Y-38571D01*
X53521Y-38571D01*
X53550Y-38557D01*
X53564Y-38543D01*
X15086Y-38771D02*
X15186Y-38629D01*
X15258Y-38771D02*
X15258Y-38471D01*
X15143Y-38471D01*
X15115Y-38486D01*
X15100Y-38500D01*
X15086Y-38529D01*
X15086Y-38571D01*
X15100Y-38600D01*
X15115Y-38614D01*
X15143Y-38629D01*
X15258Y-38629D01*
X14800Y-38771D02*
X14972Y-38771D01*
X14886Y-38771D02*
X14886Y-38471D01*
X14915Y-38514D01*
X14943Y-38543D01*
X14972Y-38557D01*
X14514Y-38771D02*
X14686Y-38771D01*
X14600Y-38771D02*
X14600Y-38471D01*
X14629Y-38514D01*
X14657Y-38543D01*
X14686Y-38557D01*
X14257Y-38571D02*
X14257Y-38771D01*
X14328Y-38457D02*
X14400Y-38671D01*
X14214Y-38671D01*
X40236Y-38571D02*
X40336Y-38429D01*
X40408Y-38571D02*
X40408Y-38271D01*
X40293Y-38271D01*
X40265Y-38286D01*
X40250Y-38300D01*
X40236Y-38329D01*
X40236Y-38371D01*
X40250Y-38400D01*
X40265Y-38414D01*
X40293Y-38429D01*
X40408Y-38429D01*
X39950Y-38571D02*
X40122Y-38571D01*
X40036Y-38571D02*
X40036Y-38271D01*
X40065Y-38314D01*
X40093Y-38343D01*
X40122Y-38357D01*
X39664Y-38571D02*
X39836Y-38571D01*
X39750Y-38571D02*
X39750Y-38271D01*
X39779Y-38314D01*
X39807Y-38343D01*
X39836Y-38357D01*
X39407Y-38271D02*
X39464Y-38271D01*
X39493Y-38286D01*
X39507Y-38300D01*
X39536Y-38343D01*
X39550Y-38400D01*
X39550Y-38514D01*
X39536Y-38543D01*
X39521Y-38557D01*
X39493Y-38571D01*
X39436Y-38571D01*
X39407Y-38557D01*
X39393Y-38543D01*
X39378Y-38514D01*
X39378Y-38443D01*
X39393Y-38414D01*
X39407Y-38400D01*
X39436Y-38386D01*
X39493Y-38386D01*
X39521Y-38400D01*
X39536Y-38414D01*
X39550Y-38443D01*
X33236Y-40571D02*
X33336Y-40429D01*
X33408Y-40571D02*
X33408Y-40271D01*
X33293Y-40271D01*
X33265Y-40286D01*
X33250Y-40300D01*
X33236Y-40329D01*
X33236Y-40371D01*
X33250Y-40400D01*
X33265Y-40414D01*
X33293Y-40429D01*
X33408Y-40429D01*
X32950Y-40571D02*
X33122Y-40571D01*
X33036Y-40571D02*
X33036Y-40271D01*
X33065Y-40314D01*
X33093Y-40343D01*
X33122Y-40357D01*
X32836Y-40300D02*
X32822Y-40286D01*
X32793Y-40271D01*
X32722Y-40271D01*
X32693Y-40286D01*
X32679Y-40300D01*
X32664Y-40329D01*
X32664Y-40357D01*
X32679Y-40400D01*
X32850Y-40571D01*
X32664Y-40571D01*
X32564Y-40271D02*
X32378Y-40271D01*
X32478Y-40386D01*
X32436Y-40386D01*
X32407Y-40400D01*
X32393Y-40414D01*
X32378Y-40443D01*
X32378Y-40514D01*
X32393Y-40543D01*
X32407Y-40557D01*
X32436Y-40571D01*
X32521Y-40571D01*
X32550Y-40557D01*
X32564Y-40543D01*
X54286Y-40571D02*
X54386Y-40429D01*
X54458Y-40571D02*
X54458Y-40271D01*
X54343Y-40271D01*
X54315Y-40286D01*
X54300Y-40300D01*
X54286Y-40329D01*
X54286Y-40371D01*
X54300Y-40400D01*
X54315Y-40414D01*
X54343Y-40429D01*
X54458Y-40429D01*
X54000Y-40571D02*
X54172Y-40571D01*
X54086Y-40571D02*
X54086Y-40271D01*
X54115Y-40314D01*
X54143Y-40343D01*
X54172Y-40357D01*
X53714Y-40571D02*
X53886Y-40571D01*
X53800Y-40571D02*
X53800Y-40271D01*
X53829Y-40314D01*
X53857Y-40343D01*
X53886Y-40357D01*
X53571Y-40571D02*
X53514Y-40571D01*
X53486Y-40557D01*
X53471Y-40543D01*
X53443Y-40500D01*
X53428Y-40443D01*
X53428Y-40329D01*
X53443Y-40300D01*
X53457Y-40286D01*
X53486Y-40271D01*
X53543Y-40271D01*
X53571Y-40286D01*
X53586Y-40300D01*
X53600Y-40329D01*
X53600Y-40400D01*
X53586Y-40429D01*
X53571Y-40443D01*
X53543Y-40457D01*
X53486Y-40457D01*
X53457Y-40443D01*
X53443Y-40429D01*
X53428Y-40400D01*
X15086Y-40821D02*
X15186Y-40679D01*
X15258Y-40821D02*
X15258Y-40521D01*
X15143Y-40521D01*
X15115Y-40536D01*
X15100Y-40550D01*
X15086Y-40579D01*
X15086Y-40621D01*
X15100Y-40650D01*
X15115Y-40664D01*
X15143Y-40679D01*
X15258Y-40679D01*
X14800Y-40821D02*
X14972Y-40821D01*
X14886Y-40821D02*
X14886Y-40521D01*
X14915Y-40564D01*
X14943Y-40593D01*
X14972Y-40607D01*
X14686Y-40550D02*
X14672Y-40536D01*
X14643Y-40521D01*
X14572Y-40521D01*
X14543Y-40536D01*
X14529Y-40550D01*
X14514Y-40579D01*
X14514Y-40607D01*
X14529Y-40650D01*
X14700Y-40821D01*
X14514Y-40821D01*
X14328Y-40521D02*
X14300Y-40521D01*
X14271Y-40536D01*
X14257Y-40550D01*
X14243Y-40579D01*
X14228Y-40636D01*
X14228Y-40707D01*
X14243Y-40764D01*
X14257Y-40793D01*
X14271Y-40807D01*
X14300Y-40821D01*
X14328Y-40821D01*
X14357Y-40807D01*
X14371Y-40793D01*
X14386Y-40764D01*
X14400Y-40707D01*
X14400Y-40636D01*
X14386Y-40579D01*
X14371Y-40550D01*
X14357Y-40536D01*
X14328Y-40521D01*
X15086Y-41771D02*
X15186Y-41629D01*
X15258Y-41771D02*
X15258Y-41471D01*
X15143Y-41471D01*
X15115Y-41486D01*
X15100Y-41500D01*
X15086Y-41529D01*
X15086Y-41571D01*
X15100Y-41600D01*
X15115Y-41614D01*
X15143Y-41629D01*
X15258Y-41629D01*
X14800Y-41771D02*
X14972Y-41771D01*
X14886Y-41771D02*
X14886Y-41471D01*
X14915Y-41514D01*
X14943Y-41543D01*
X14972Y-41557D01*
X14686Y-41500D02*
X14672Y-41486D01*
X14643Y-41471D01*
X14572Y-41471D01*
X14543Y-41486D01*
X14529Y-41500D01*
X14514Y-41529D01*
X14514Y-41557D01*
X14529Y-41600D01*
X14700Y-41771D01*
X14514Y-41771D01*
X14257Y-41571D02*
X14257Y-41771D01*
X14328Y-41457D02*
X14400Y-41671D01*
X14214Y-41671D01*
X40236Y-40571D02*
X40336Y-40429D01*
X40408Y-40571D02*
X40408Y-40271D01*
X40293Y-40271D01*
X40265Y-40286D01*
X40250Y-40300D01*
X40236Y-40329D01*
X40236Y-40371D01*
X40250Y-40400D01*
X40265Y-40414D01*
X40293Y-40429D01*
X40408Y-40429D01*
X39950Y-40571D02*
X40122Y-40571D01*
X40036Y-40571D02*
X40036Y-40271D01*
X40065Y-40314D01*
X40093Y-40343D01*
X40122Y-40357D01*
X39836Y-40300D02*
X39822Y-40286D01*
X39793Y-40271D01*
X39722Y-40271D01*
X39693Y-40286D01*
X39679Y-40300D01*
X39664Y-40329D01*
X39664Y-40357D01*
X39679Y-40400D01*
X39850Y-40571D01*
X39664Y-40571D01*
X39550Y-40300D02*
X39536Y-40286D01*
X39507Y-40271D01*
X39436Y-40271D01*
X39407Y-40286D01*
X39393Y-40300D01*
X39378Y-40329D01*
X39378Y-40357D01*
X39393Y-40400D01*
X39564Y-40571D01*
X39378Y-40571D01*
X15086Y-39771D02*
X15186Y-39629D01*
X15258Y-39771D02*
X15258Y-39471D01*
X15143Y-39471D01*
X15115Y-39486D01*
X15100Y-39500D01*
X15086Y-39529D01*
X15086Y-39571D01*
X15100Y-39600D01*
X15115Y-39614D01*
X15143Y-39629D01*
X15258Y-39629D01*
X14800Y-39771D02*
X14972Y-39771D01*
X14886Y-39771D02*
X14886Y-39471D01*
X14915Y-39514D01*
X14943Y-39543D01*
X14972Y-39557D01*
X14514Y-39771D02*
X14686Y-39771D01*
X14600Y-39771D02*
X14600Y-39471D01*
X14629Y-39514D01*
X14657Y-39543D01*
X14686Y-39557D01*
X14343Y-39600D02*
X14371Y-39586D01*
X14386Y-39571D01*
X14400Y-39543D01*
X14400Y-39529D01*
X14386Y-39500D01*
X14371Y-39486D01*
X14343Y-39471D01*
X14286Y-39471D01*
X14257Y-39486D01*
X14243Y-39500D01*
X14228Y-39529D01*
X14228Y-39543D01*
X14243Y-39571D01*
X14257Y-39586D01*
X14286Y-39600D01*
X14343Y-39600D01*
X14371Y-39614D01*
X14386Y-39629D01*
X14400Y-39657D01*
X14400Y-39714D01*
X14386Y-39743D01*
X14371Y-39757D01*
X14343Y-39771D01*
X14286Y-39771D01*
X14257Y-39757D01*
X14243Y-39743D01*
X14228Y-39714D01*
X14228Y-39657D01*
X14243Y-39629D01*
X14257Y-39614D01*
X14286Y-39600D01*
X33236Y-38571D02*
X33336Y-38429D01*
X33408Y-38571D02*
X33408Y-38271D01*
X33293Y-38271D01*
X33265Y-38286D01*
X33250Y-38300D01*
X33236Y-38329D01*
X33236Y-38371D01*
X33250Y-38400D01*
X33265Y-38414D01*
X33293Y-38429D01*
X33408Y-38429D01*
X32950Y-38571D02*
X33122Y-38571D01*
X33036Y-38571D02*
X33036Y-38271D01*
X33065Y-38314D01*
X33093Y-38343D01*
X33122Y-38357D01*
X32664Y-38571D02*
X32836Y-38571D01*
X32750Y-38571D02*
X32750Y-38271D01*
X32779Y-38314D01*
X32807Y-38343D01*
X32836Y-38357D01*
X32564Y-38271D02*
X32364Y-38271D01*
X32493Y-38571D01*
X54236Y-33571D02*
X54336Y-33429D01*
X54408Y-33571D02*
X54408Y-33271D01*
X54293Y-33271D01*
X54265Y-33286D01*
X54250Y-33300D01*
X54236Y-33329D01*
X54236Y-33371D01*
X54250Y-33400D01*
X54265Y-33414D01*
X54293Y-33429D01*
X54408Y-33429D01*
X53950Y-33571D02*
X54122Y-33571D01*
X54036Y-33571D02*
X54036Y-33271D01*
X54065Y-33314D01*
X54093Y-33343D01*
X54122Y-33357D01*
X53764Y-33271D02*
X53736Y-33271D01*
X53707Y-33286D01*
X53693Y-33300D01*
X53679Y-33329D01*
X53664Y-33386D01*
X53664Y-33457D01*
X53679Y-33514D01*
X53693Y-33543D01*
X53707Y-33557D01*
X53736Y-33571D01*
X53764Y-33571D01*
X53793Y-33557D01*
X53807Y-33543D01*
X53822Y-33514D01*
X53836Y-33457D01*
X53836Y-33386D01*
X53822Y-33329D01*
X53807Y-33300D01*
X53793Y-33286D01*
X53764Y-33271D01*
X53493Y-33400D02*
X53521Y-33386D01*
X53536Y-33371D01*
X53550Y-33343D01*
X53550Y-33329D01*
X53536Y-33300D01*
X53521Y-33286D01*
X53493Y-33271D01*
X53436Y-33271D01*
X53407Y-33286D01*
X53393Y-33300D01*
X53378Y-33329D01*
X53378Y-33343D01*
X53393Y-33371D01*
X53407Y-33386D01*
X53436Y-33400D01*
X53493Y-33400D01*
X53521Y-33414D01*
X53536Y-33429D01*
X53550Y-33457D01*
X53550Y-33514D01*
X53536Y-33543D01*
X53521Y-33557D01*
X53493Y-33571D01*
X53436Y-33571D01*
X53407Y-33557D01*
X53393Y-33543D01*
X53378Y-33514D01*
X53378Y-33457D01*
X53393Y-33429D01*
X53407Y-33414D01*
X53436Y-33400D01*
X33236Y-31571D02*
X33336Y-31429D01*
X33408Y-31571D02*
X33408Y-31271D01*
X33293Y-31271D01*
X33265Y-31286D01*
X33250Y-31300D01*
X33236Y-31329D01*
X33236Y-31371D01*
X33250Y-31400D01*
X33265Y-31414D01*
X33293Y-31429D01*
X33408Y-31429D01*
X32950Y-31571D02*
X33122Y-31571D01*
X33036Y-31571D02*
X33036Y-31271D01*
X33065Y-31314D01*
X33093Y-31343D01*
X33122Y-31357D01*
X32764Y-31271D02*
X32736Y-31271D01*
X32707Y-31286D01*
X32693Y-31300D01*
X32679Y-31329D01*
X32664Y-31386D01*
X32664Y-31457D01*
X32679Y-31514D01*
X32693Y-31543D01*
X32707Y-31557D01*
X32736Y-31571D01*
X32764Y-31571D01*
X32793Y-31557D01*
X32807Y-31543D01*
X32822Y-31514D01*
X32836Y-31457D01*
X32836Y-31386D01*
X32822Y-31329D01*
X32807Y-31300D01*
X32793Y-31286D01*
X32764Y-31271D01*
X32393Y-31271D02*
X32536Y-31271D01*
X32550Y-31414D01*
X32536Y-31400D01*
X32507Y-31386D01*
X32436Y-31386D01*
X32407Y-31400D01*
X32393Y-31414D01*
X32378Y-31443D01*
X32378Y-31514D01*
X32393Y-31543D01*
X32407Y-31557D01*
X32436Y-31571D01*
X32507Y-31571D01*
X32536Y-31557D01*
X32550Y-31543D01*
X15086Y-31771D02*
X15186Y-31629D01*
X15258Y-31771D02*
X15258Y-31471D01*
X15143Y-31471D01*
X15115Y-31486D01*
X15100Y-31500D01*
X15086Y-31529D01*
X15086Y-31571D01*
X15100Y-31600D01*
X15115Y-31614D01*
X15143Y-31629D01*
X15258Y-31629D01*
X14800Y-31771D02*
X14972Y-31771D01*
X14886Y-31771D02*
X14886Y-31471D01*
X14915Y-31514D01*
X14943Y-31543D01*
X14972Y-31557D01*
X14614Y-31471D02*
X14586Y-31471D01*
X14557Y-31486D01*
X14543Y-31500D01*
X14529Y-31529D01*
X14514Y-31586D01*
X14514Y-31657D01*
X14529Y-31714D01*
X14543Y-31743D01*
X14557Y-31757D01*
X14586Y-31771D01*
X14614Y-31771D01*
X14643Y-31757D01*
X14657Y-31743D01*
X14672Y-31714D01*
X14686Y-31657D01*
X14686Y-31586D01*
X14672Y-31529D01*
X14657Y-31500D01*
X14643Y-31486D01*
X14614Y-31471D01*
X14228Y-31771D02*
X14400Y-31771D01*
X14314Y-31771D02*
X14314Y-31471D01*
X14343Y-31514D01*
X14371Y-31543D01*
X14400Y-31557D01*
X40236Y-31571D02*
X40336Y-31429D01*
X40408Y-31571D02*
X40408Y-31271D01*
X40293Y-31271D01*
X40265Y-31286D01*
X40250Y-31300D01*
X40236Y-31329D01*
X40236Y-31371D01*
X40250Y-31400D01*
X40265Y-31414D01*
X40293Y-31429D01*
X40408Y-31429D01*
X39950Y-31571D02*
X40122Y-31571D01*
X40036Y-31571D02*
X40036Y-31271D01*
X40065Y-31314D01*
X40093Y-31343D01*
X40122Y-31357D01*
X39764Y-31271D02*
X39736Y-31271D01*
X39707Y-31286D01*
X39693Y-31300D01*
X39679Y-31329D01*
X39664Y-31386D01*
X39664Y-31457D01*
X39679Y-31514D01*
X39693Y-31543D01*
X39707Y-31557D01*
X39736Y-31571D01*
X39764Y-31571D01*
X39793Y-31557D01*
X39807Y-31543D01*
X39822Y-31514D01*
X39836Y-31457D01*
X39836Y-31386D01*
X39822Y-31329D01*
X39807Y-31300D01*
X39793Y-31286D01*
X39764Y-31271D01*
X39407Y-31371D02*
X39407Y-31571D01*
X39478Y-31257D02*
X39550Y-31471D01*
X39364Y-31471D01*
X40236Y-33571D02*
X40336Y-33429D01*
X40408Y-33571D02*
X40408Y-33271D01*
X40293Y-33271D01*
X40265Y-33286D01*
X40250Y-33300D01*
X40236Y-33329D01*
X40236Y-33371D01*
X40250Y-33400D01*
X40265Y-33414D01*
X40293Y-33429D01*
X40408Y-33429D01*
X39950Y-33571D02*
X40122Y-33571D01*
X40036Y-33571D02*
X40036Y-33271D01*
X40065Y-33314D01*
X40093Y-33343D01*
X40122Y-33357D01*
X39664Y-33571D02*
X39836Y-33571D01*
X39750Y-33571D02*
X39750Y-33271D01*
X39779Y-33314D01*
X39807Y-33343D01*
X39836Y-33357D01*
X39478Y-33271D02*
X39450Y-33271D01*
X39421Y-33286D01*
X39407Y-33300D01*
X39393Y-33329D01*
X39378Y-33386D01*
X39378Y-33457D01*
X39393Y-33514D01*
X39407Y-33543D01*
X39421Y-33557D01*
X39450Y-33571D01*
X39478Y-33571D01*
X39507Y-33557D01*
X39521Y-33543D01*
X39536Y-33514D01*
X39550Y-33457D01*
X39550Y-33386D01*
X39536Y-33329D01*
X39521Y-33300D01*
X39507Y-33286D01*
X39478Y-33271D01*
X47236Y-33571D02*
X47336Y-33429D01*
X47408Y-33571D02*
X47408Y-33271D01*
X47293Y-33271D01*
X47265Y-33286D01*
X47250Y-33300D01*
X47236Y-33329D01*
X47236Y-33371D01*
X47250Y-33400D01*
X47265Y-33414D01*
X47293Y-33429D01*
X47408Y-33429D01*
X46950Y-33571D02*
X47122Y-33571D01*
X47036Y-33571D02*
X47036Y-33271D01*
X47065Y-33314D01*
X47093Y-33343D01*
X47122Y-33357D01*
X46764Y-33271D02*
X46736Y-33271D01*
X46707Y-33286D01*
X46693Y-33300D01*
X46679Y-33329D01*
X46664Y-33386D01*
X46664Y-33457D01*
X46679Y-33514D01*
X46693Y-33543D01*
X46707Y-33557D01*
X46736Y-33571D01*
X46764Y-33571D01*
X46793Y-33557D01*
X46807Y-33543D01*
X46822Y-33514D01*
X46836Y-33457D01*
X46836Y-33386D01*
X46822Y-33329D01*
X46807Y-33300D01*
X46793Y-33286D01*
X46764Y-33271D01*
X46521Y-33571D02*
X46464Y-33571D01*
X46436Y-33557D01*
X46421Y-33543D01*
X46393Y-33500D01*
X46378Y-33443D01*
X46378Y-33329D01*
X46393Y-33300D01*
X46407Y-33286D01*
X46436Y-33271D01*
X46493Y-33271D01*
X46521Y-33286D01*
X46536Y-33300D01*
X46550Y-33329D01*
X46550Y-33400D01*
X46536Y-33429D01*
X46521Y-33443D01*
X46493Y-33457D01*
X46436Y-33457D01*
X46407Y-33443D01*
X46393Y-33429D01*
X46378Y-33400D01*
X33236Y-33571D02*
X33336Y-33429D01*
X33408Y-33571D02*
X33408Y-33271D01*
X33293Y-33271D01*
X33265Y-33286D01*
X33250Y-33300D01*
X33236Y-33329D01*
X33236Y-33371D01*
X33250Y-33400D01*
X33265Y-33414D01*
X33293Y-33429D01*
X33408Y-33429D01*
X32950Y-33571D02*
X33122Y-33571D01*
X33036Y-33571D02*
X33036Y-33271D01*
X33065Y-33314D01*
X33093Y-33343D01*
X33122Y-33357D01*
X32664Y-33571D02*
X32836Y-33571D01*
X32750Y-33571D02*
X32750Y-33271D01*
X32779Y-33314D01*
X32807Y-33343D01*
X32836Y-33357D01*
X32378Y-33571D02*
X32550Y-33571D01*
X32464Y-33571D02*
X32464Y-33271D01*
X32493Y-33314D01*
X32521Y-33343D01*
X32550Y-33357D01*
X15086Y-34771D02*
X15186Y-34629D01*
X15258Y-34771D02*
X15258Y-34471D01*
X15143Y-34471D01*
X15115Y-34486D01*
X15100Y-34500D01*
X15086Y-34529D01*
X15086Y-34571D01*
X15100Y-34600D01*
X15115Y-34614D01*
X15143Y-34629D01*
X15258Y-34629D01*
X14800Y-34771D02*
X14972Y-34771D01*
X14886Y-34771D02*
X14886Y-34471D01*
X14915Y-34514D01*
X14943Y-34543D01*
X14972Y-34557D01*
X14514Y-34771D02*
X14686Y-34771D01*
X14600Y-34771D02*
X14600Y-34471D01*
X14629Y-34514D01*
X14657Y-34543D01*
X14686Y-34557D01*
X14400Y-34500D02*
X14386Y-34486D01*
X14357Y-34471D01*
X14286Y-34471D01*
X14257Y-34486D01*
X14243Y-34500D01*
X14228Y-34529D01*
X14228Y-34557D01*
X14243Y-34600D01*
X14414Y-34771D01*
X14228Y-34771D01*
X47236Y-40571D02*
X47336Y-40429D01*
X47408Y-40571D02*
X47408Y-40271D01*
X47293Y-40271D01*
X47265Y-40286D01*
X47250Y-40300D01*
X47236Y-40329D01*
X47236Y-40371D01*
X47250Y-40400D01*
X47265Y-40414D01*
X47293Y-40429D01*
X47408Y-40429D01*
X46950Y-40571D02*
X47122Y-40571D01*
X47036Y-40571D02*
X47036Y-40271D01*
X47065Y-40314D01*
X47093Y-40343D01*
X47122Y-40357D01*
X46836Y-40300D02*
X46822Y-40286D01*
X46793Y-40271D01*
X46722Y-40271D01*
X46693Y-40286D01*
X46679Y-40300D01*
X46664Y-40329D01*
X46664Y-40357D01*
X46679Y-40400D01*
X46850Y-40571D01*
X46664Y-40571D01*
X46378Y-40571D02*
X46550Y-40571D01*
X46464Y-40571D02*
X46464Y-40271D01*
X46493Y-40314D01*
X46521Y-40343D01*
X46550Y-40357D01*
X47093Y-26571D02*
X47193Y-26429D01*
X47265Y-26571D02*
X47265Y-26271D01*
X47150Y-26271D01*
X47122Y-26286D01*
X47107Y-26300D01*
X47093Y-26329D01*
X47093Y-26371D01*
X47107Y-26400D01*
X47122Y-26414D01*
X47150Y-26429D01*
X47265Y-26429D01*
X46950Y-26571D02*
X46893Y-26571D01*
X46865Y-26557D01*
X46850Y-26543D01*
X46822Y-26500D01*
X46807Y-26443D01*
X46807Y-26329D01*
X46822Y-26300D01*
X46836Y-26286D01*
X46865Y-26271D01*
X46922Y-26271D01*
X46950Y-26286D01*
X46965Y-26300D01*
X46979Y-26329D01*
X46979Y-26400D01*
X46965Y-26429D01*
X46950Y-26443D01*
X46922Y-26457D01*
X46865Y-26457D01*
X46836Y-26443D01*
X46822Y-26429D01*
X46807Y-26400D01*
X46536Y-26271D02*
X46679Y-26271D01*
X46693Y-26414D01*
X46679Y-26400D01*
X46650Y-26386D01*
X46579Y-26386D01*
X46550Y-26400D01*
X46536Y-26414D01*
X46521Y-26443D01*
X46521Y-26514D01*
X46536Y-26543D01*
X46550Y-26557D01*
X46579Y-26571D01*
X46650Y-26571D01*
X46679Y-26557D01*
X46693Y-26543D01*
X40093Y-26621D02*
X40193Y-26479D01*
X40265Y-26621D02*
X40265Y-26321D01*
X40150Y-26321D01*
X40122Y-26336D01*
X40107Y-26350D01*
X40093Y-26379D01*
X40093Y-26421D01*
X40107Y-26450D01*
X40122Y-26464D01*
X40150Y-26479D01*
X40265Y-26479D01*
X39950Y-26621D02*
X39893Y-26621D01*
X39865Y-26607D01*
X39850Y-26593D01*
X39822Y-26550D01*
X39807Y-26493D01*
X39807Y-26379D01*
X39822Y-26350D01*
X39836Y-26336D01*
X39865Y-26321D01*
X39922Y-26321D01*
X39950Y-26336D01*
X39965Y-26350D01*
X39979Y-26379D01*
X39979Y-26450D01*
X39965Y-26479D01*
X39950Y-26493D01*
X39922Y-26507D01*
X39865Y-26507D01*
X39836Y-26493D01*
X39822Y-26479D01*
X39807Y-26450D01*
X39550Y-26321D02*
X39607Y-26321D01*
X39636Y-26336D01*
X39650Y-26350D01*
X39679Y-26393D01*
X39693Y-26450D01*
X39693Y-26564D01*
X39679Y-26593D01*
X39664Y-26607D01*
X39636Y-26621D01*
X39579Y-26621D01*
X39550Y-26607D01*
X39536Y-26593D01*
X39521Y-26564D01*
X39521Y-26493D01*
X39536Y-26464D01*
X39550Y-26450D01*
X39579Y-26436D01*
X39636Y-26436D01*
X39664Y-26450D01*
X39679Y-26464D01*
X39693Y-26493D01*
X08171Y-27264D02*
X08029Y-27164D01*
X08171Y-27092D02*
X07871Y-27092D01*
X07871Y-27207D01*
X07886Y-27235D01*
X07900Y-27250D01*
X07929Y-27264D01*
X07971Y-27264D01*
X08000Y-27250D01*
X08014Y-27235D01*
X08029Y-27207D01*
X08029Y-27092D01*
X08171Y-27550D02*
X08171Y-27378D01*
X08171Y-27464D02*
X07871Y-27464D01*
X07914Y-27435D01*
X07943Y-27407D01*
X07957Y-27378D01*
X07871Y-27736D02*
X07871Y-27764D01*
X07886Y-27793D01*
X07900Y-27807D01*
X07929Y-27821D01*
X07986Y-27836D01*
X08057Y-27836D01*
X08114Y-27821D01*
X08143Y-27807D01*
X08157Y-27793D01*
X08171Y-27764D01*
X08171Y-27736D01*
X08157Y-27707D01*
X08143Y-27693D01*
X08114Y-27678D01*
X08057Y-27664D01*
X07986Y-27664D01*
X07929Y-27678D01*
X07900Y-27693D01*
X07886Y-27707D01*
X07871Y-27736D01*
X07871Y-28022D02*
X07871Y-28050D01*
X07886Y-28079D01*
X07900Y-28093D01*
X07929Y-28107D01*
X07986Y-28122D01*
X08057Y-28122D01*
X08114Y-28107D01*
X08143Y-28093D01*
X08157Y-28079D01*
X08171Y-28050D01*
X08171Y-28022D01*
X08157Y-27993D01*
X08143Y-27979D01*
X08114Y-27964D01*
X08057Y-27950D01*
X07986Y-27950D01*
X07929Y-27964D01*
X07900Y-27979D01*
X07886Y-27993D01*
X07871Y-28022D01*
X15093Y-27771D02*
X15193Y-27629D01*
X15265Y-27771D02*
X15265Y-27471D01*
X15150Y-27471D01*
X15122Y-27486D01*
X15107Y-27500D01*
X15093Y-27529D01*
X15093Y-27571D01*
X15107Y-27600D01*
X15122Y-27614D01*
X15150Y-27629D01*
X15265Y-27629D01*
X14950Y-27771D02*
X14893Y-27771D01*
X14865Y-27757D01*
X14850Y-27743D01*
X14822Y-27700D01*
X14807Y-27643D01*
X14807Y-27529D01*
X14822Y-27500D01*
X14836Y-27486D01*
X14865Y-27471D01*
X14922Y-27471D01*
X14950Y-27486D01*
X14965Y-27500D01*
X14979Y-27529D01*
X14979Y-27600D01*
X14965Y-27629D01*
X14950Y-27643D01*
X14922Y-27657D01*
X14865Y-27657D01*
X14836Y-27643D01*
X14822Y-27629D01*
X14807Y-27600D01*
X14636Y-27600D02*
X14664Y-27586D01*
X14679Y-27571D01*
X14693Y-27543D01*
X14693Y-27529D01*
X14679Y-27500D01*
X14664Y-27486D01*
X14636Y-27471D01*
X14579Y-27471D01*
X14550Y-27486D01*
X14536Y-27500D01*
X14521Y-27529D01*
X14521Y-27543D01*
X14536Y-27571D01*
X14550Y-27586D01*
X14579Y-27600D01*
X14636Y-27600D01*
X14664Y-27614D01*
X14679Y-27629D01*
X14693Y-27657D01*
X14693Y-27714D01*
X14679Y-27743D01*
X14664Y-27757D01*
X14636Y-27771D01*
X14579Y-27771D01*
X14550Y-27757D01*
X14536Y-27743D01*
X14521Y-27714D01*
X14521Y-27657D01*
X14536Y-27629D01*
X14550Y-27614D01*
X14579Y-27600D01*
X54093Y-26571D02*
X54193Y-26429D01*
X54265Y-26571D02*
X54265Y-26271D01*
X54150Y-26271D01*
X54122Y-26286D01*
X54107Y-26300D01*
X54093Y-26329D01*
X54093Y-26371D01*
X54107Y-26400D01*
X54122Y-26414D01*
X54150Y-26429D01*
X54265Y-26429D01*
X53950Y-26571D02*
X53893Y-26571D01*
X53865Y-26557D01*
X53850Y-26543D01*
X53822Y-26500D01*
X53807Y-26443D01*
X53807Y-26329D01*
X53822Y-26300D01*
X53836Y-26286D01*
X53865Y-26271D01*
X53922Y-26271D01*
X53950Y-26286D01*
X53965Y-26300D01*
X53979Y-26329D01*
X53979Y-26400D01*
X53965Y-26429D01*
X53950Y-26443D01*
X53922Y-26457D01*
X53865Y-26457D01*
X53836Y-26443D01*
X53822Y-26429D01*
X53807Y-26400D01*
X53550Y-26371D02*
X53550Y-26571D01*
X53621Y-26257D02*
X53693Y-26471D01*
X53507Y-26471D01*
X15093Y-26771D02*
X15193Y-26629D01*
X15265Y-26771D02*
X15265Y-26471D01*
X15150Y-26471D01*
X15122Y-26486D01*
X15107Y-26500D01*
X15093Y-26529D01*
X15093Y-26571D01*
X15107Y-26600D01*
X15122Y-26614D01*
X15150Y-26629D01*
X15265Y-26629D01*
X14950Y-26771D02*
X14893Y-26771D01*
X14865Y-26757D01*
X14850Y-26743D01*
X14822Y-26700D01*
X14807Y-26643D01*
X14807Y-26529D01*
X14822Y-26500D01*
X14836Y-26486D01*
X14865Y-26471D01*
X14922Y-26471D01*
X14950Y-26486D01*
X14965Y-26500D01*
X14979Y-26529D01*
X14979Y-26600D01*
X14965Y-26629D01*
X14950Y-26643D01*
X14922Y-26657D01*
X14865Y-26657D01*
X14836Y-26643D01*
X14822Y-26629D01*
X14807Y-26600D01*
X14707Y-26471D02*
X14521Y-26471D01*
X14621Y-26586D01*
X14579Y-26586D01*
X14550Y-26600D01*
X14536Y-26614D01*
X14521Y-26643D01*
X14521Y-26714D01*
X14536Y-26743D01*
X14550Y-26757D01*
X14579Y-26771D01*
X14664Y-26771D01*
X14693Y-26757D01*
X14707Y-26743D01*
X40093Y-19571D02*
X40193Y-19429D01*
X40265Y-19571D02*
X40265Y-19271D01*
X40150Y-19271D01*
X40122Y-19286D01*
X40107Y-19300D01*
X40093Y-19329D01*
X40093Y-19371D01*
X40107Y-19400D01*
X40122Y-19414D01*
X40150Y-19429D01*
X40265Y-19429D01*
X39922Y-19400D02*
X39950Y-19386D01*
X39965Y-19371D01*
X39979Y-19343D01*
X39979Y-19329D01*
X39965Y-19300D01*
X39950Y-19286D01*
X39922Y-19271D01*
X39865Y-19271D01*
X39836Y-19286D01*
X39822Y-19300D01*
X39807Y-19329D01*
X39807Y-19343D01*
X39822Y-19371D01*
X39836Y-19386D01*
X39865Y-19400D01*
X39922Y-19400D01*
X39950Y-19414D01*
X39965Y-19429D01*
X39979Y-19457D01*
X39979Y-19514D01*
X39965Y-19543D01*
X39950Y-19557D01*
X39922Y-19571D01*
X39865Y-19571D01*
X39836Y-19557D01*
X39822Y-19543D01*
X39807Y-19514D01*
X39807Y-19457D01*
X39822Y-19429D01*
X39836Y-19414D01*
X39865Y-19400D01*
X39550Y-19371D02*
X39550Y-19571D01*
X39621Y-19257D02*
X39693Y-19471D01*
X39507Y-19471D01*
X15093Y-19821D02*
X15193Y-19679D01*
X15265Y-19821D02*
X15265Y-19521D01*
X15150Y-19521D01*
X15122Y-19536D01*
X15107Y-19550D01*
X15093Y-19579D01*
X15093Y-19621D01*
X15107Y-19650D01*
X15122Y-19664D01*
X15150Y-19679D01*
X15265Y-19679D01*
X14922Y-19650D02*
X14950Y-19636D01*
X14965Y-19621D01*
X14979Y-19593D01*
X14979Y-19579D01*
X14965Y-19550D01*
X14950Y-19536D01*
X14922Y-19521D01*
X14865Y-19521D01*
X14836Y-19536D01*
X14822Y-19550D01*
X14807Y-19579D01*
X14807Y-19593D01*
X14822Y-19621D01*
X14836Y-19636D01*
X14865Y-19650D01*
X14922Y-19650D01*
X14950Y-19664D01*
X14965Y-19679D01*
X14979Y-19707D01*
X14979Y-19764D01*
X14965Y-19793D01*
X14950Y-19807D01*
X14922Y-19821D01*
X14865Y-19821D01*
X14836Y-19807D01*
X14822Y-19793D01*
X14807Y-19764D01*
X14807Y-19707D01*
X14822Y-19679D01*
X14836Y-19664D01*
X14865Y-19650D01*
X14521Y-19821D02*
X14693Y-19821D01*
X14607Y-19821D02*
X14607Y-19521D01*
X14636Y-19564D01*
X14664Y-19593D01*
X14693Y-19607D01*
X47093Y-17571D02*
X47193Y-17429D01*
X47265Y-17571D02*
X47265Y-17271D01*
X47150Y-17271D01*
X47122Y-17286D01*
X47107Y-17300D01*
X47093Y-17329D01*
X47093Y-17371D01*
X47107Y-17400D01*
X47122Y-17414D01*
X47150Y-17429D01*
X47265Y-17429D01*
X46993Y-17271D02*
X46793Y-17271D01*
X46922Y-17571D01*
X46707Y-17271D02*
X46507Y-17271D01*
X46636Y-17571D01*
X15093Y-18821D02*
X15193Y-18679D01*
X15265Y-18821D02*
X15265Y-18521D01*
X15150Y-18521D01*
X15122Y-18536D01*
X15107Y-18550D01*
X15093Y-18579D01*
X15093Y-18621D01*
X15107Y-18650D01*
X15122Y-18664D01*
X15150Y-18679D01*
X15265Y-18679D01*
X14922Y-18650D02*
X14950Y-18636D01*
X14965Y-18621D01*
X14979Y-18593D01*
X14979Y-18579D01*
X14965Y-18550D01*
X14950Y-18536D01*
X14922Y-18521D01*
X14865Y-18521D01*
X14836Y-18536D01*
X14822Y-18550D01*
X14807Y-18579D01*
X14807Y-18593D01*
X14822Y-18621D01*
X14836Y-18636D01*
X14865Y-18650D01*
X14922Y-18650D01*
X14950Y-18664D01*
X14965Y-18679D01*
X14979Y-18707D01*
X14979Y-18764D01*
X14965Y-18793D01*
X14950Y-18807D01*
X14922Y-18821D01*
X14865Y-18821D01*
X14836Y-18807D01*
X14822Y-18793D01*
X14807Y-18764D01*
X14807Y-18707D01*
X14822Y-18679D01*
X14836Y-18664D01*
X14865Y-18650D01*
X14621Y-18521D02*
X14593Y-18521D01*
X14564Y-18536D01*
X14550Y-18550D01*
X14536Y-18579D01*
X14521Y-18636D01*
X14521Y-18707D01*
X14536Y-18764D01*
X14550Y-18793D01*
X14564Y-18807D01*
X14593Y-18821D01*
X14621Y-18821D01*
X14650Y-18807D01*
X14664Y-18793D01*
X14679Y-18764D01*
X14693Y-18707D01*
X14693Y-18636D01*
X14679Y-18579D01*
X14664Y-18550D01*
X14650Y-18536D01*
X14621Y-18521D01*
X15093Y-20771D02*
X15193Y-20629D01*
X15265Y-20771D02*
X15265Y-20471D01*
X15150Y-20471D01*
X15122Y-20486D01*
X15107Y-20500D01*
X15093Y-20529D01*
X15093Y-20571D01*
X15107Y-20600D01*
X15122Y-20614D01*
X15150Y-20629D01*
X15265Y-20629D01*
X14922Y-20600D02*
X14950Y-20586D01*
X14965Y-20571D01*
X14979Y-20543D01*
X14979Y-20529D01*
X14965Y-20500D01*
X14950Y-20486D01*
X14922Y-20471D01*
X14865Y-20471D01*
X14836Y-20486D01*
X14822Y-20500D01*
X14807Y-20529D01*
X14807Y-20543D01*
X14822Y-20571D01*
X14836Y-20586D01*
X14865Y-20600D01*
X14922Y-20600D01*
X14950Y-20614D01*
X14965Y-20629D01*
X14979Y-20657D01*
X14979Y-20714D01*
X14965Y-20743D01*
X14950Y-20757D01*
X14922Y-20771D01*
X14865Y-20771D01*
X14836Y-20757D01*
X14822Y-20743D01*
X14807Y-20714D01*
X14807Y-20657D01*
X14822Y-20629D01*
X14836Y-20614D01*
X14865Y-20600D01*
X14550Y-20471D02*
X14607Y-20471D01*
X14636Y-20486D01*
X14650Y-20500D01*
X14679Y-20543D01*
X14693Y-20600D01*
X14693Y-20714D01*
X14679Y-20743D01*
X14664Y-20757D01*
X14636Y-20771D01*
X14579Y-20771D01*
X14550Y-20757D01*
X14536Y-20743D01*
X14521Y-20714D01*
X14521Y-20643D01*
X14536Y-20614D01*
X14550Y-20600D01*
X14579Y-20586D01*
X14636Y-20586D01*
X14664Y-20600D01*
X14679Y-20614D01*
X14693Y-20643D01*
X33093Y-19621D02*
X33193Y-19479D01*
X33265Y-19621D02*
X33265Y-19321D01*
X33150Y-19321D01*
X33122Y-19336D01*
X33107Y-19350D01*
X33093Y-19379D01*
X33093Y-19421D01*
X33107Y-19450D01*
X33122Y-19464D01*
X33150Y-19479D01*
X33265Y-19479D01*
X32922Y-19450D02*
X32950Y-19436D01*
X32965Y-19421D01*
X32979Y-19393D01*
X32979Y-19379D01*
X32965Y-19350D01*
X32950Y-19336D01*
X32922Y-19321D01*
X32865Y-19321D01*
X32836Y-19336D01*
X32822Y-19350D01*
X32807Y-19379D01*
X32807Y-19393D01*
X32822Y-19421D01*
X32836Y-19436D01*
X32865Y-19450D01*
X32922Y-19450D01*
X32950Y-19464D01*
X32965Y-19479D01*
X32979Y-19507D01*
X32979Y-19564D01*
X32965Y-19593D01*
X32950Y-19607D01*
X32922Y-19621D01*
X32865Y-19621D01*
X32836Y-19607D01*
X32822Y-19593D01*
X32807Y-19564D01*
X32807Y-19507D01*
X32822Y-19479D01*
X32836Y-19464D01*
X32865Y-19450D01*
X32536Y-19321D02*
X32679Y-19321D01*
X32693Y-19464D01*
X32679Y-19450D01*
X32650Y-19436D01*
X32579Y-19436D01*
X32550Y-19450D01*
X32536Y-19464D01*
X32521Y-19493D01*
X32521Y-19564D01*
X32536Y-19593D01*
X32550Y-19607D01*
X32579Y-19621D01*
X32650Y-19621D01*
X32679Y-19607D01*
X32693Y-19593D01*
X15093Y-24821D02*
X15193Y-24679D01*
X15265Y-24821D02*
X15265Y-24521D01*
X15150Y-24521D01*
X15122Y-24536D01*
X15107Y-24550D01*
X15093Y-24579D01*
X15093Y-24621D01*
X15107Y-24650D01*
X15122Y-24664D01*
X15150Y-24679D01*
X15265Y-24679D01*
X14922Y-24650D02*
X14950Y-24636D01*
X14965Y-24621D01*
X14979Y-24593D01*
X14979Y-24579D01*
X14965Y-24550D01*
X14950Y-24536D01*
X14922Y-24521D01*
X14865Y-24521D01*
X14836Y-24536D01*
X14822Y-24550D01*
X14807Y-24579D01*
X14807Y-24593D01*
X14822Y-24621D01*
X14836Y-24636D01*
X14865Y-24650D01*
X14922Y-24650D01*
X14950Y-24664D01*
X14965Y-24679D01*
X14979Y-24707D01*
X14979Y-24764D01*
X14965Y-24793D01*
X14950Y-24807D01*
X14922Y-24821D01*
X14865Y-24821D01*
X14836Y-24807D01*
X14822Y-24793D01*
X14807Y-24764D01*
X14807Y-24707D01*
X14822Y-24679D01*
X14836Y-24664D01*
X14865Y-24650D01*
X14707Y-24521D02*
X14507Y-24521D01*
X14636Y-24821D01*
X54093Y-24571D02*
X54193Y-24429D01*
X54265Y-24571D02*
X54265Y-24271D01*
X54150Y-24271D01*
X54122Y-24286D01*
X54107Y-24300D01*
X54093Y-24329D01*
X54093Y-24371D01*
X54107Y-24400D01*
X54122Y-24414D01*
X54150Y-24429D01*
X54265Y-24429D01*
X53922Y-24400D02*
X53950Y-24386D01*
X53965Y-24371D01*
X53979Y-24343D01*
X53979Y-24329D01*
X53965Y-24300D01*
X53950Y-24286D01*
X53922Y-24271D01*
X53865Y-24271D01*
X53836Y-24286D01*
X53822Y-24300D01*
X53807Y-24329D01*
X53807Y-24343D01*
X53822Y-24371D01*
X53836Y-24386D01*
X53865Y-24400D01*
X53922Y-24400D01*
X53950Y-24414D01*
X53965Y-24429D01*
X53979Y-24457D01*
X53979Y-24514D01*
X53965Y-24543D01*
X53950Y-24557D01*
X53922Y-24571D01*
X53865Y-24571D01*
X53836Y-24557D01*
X53822Y-24543D01*
X53807Y-24514D01*
X53807Y-24457D01*
X53822Y-24429D01*
X53836Y-24414D01*
X53865Y-24400D01*
X53636Y-24400D02*
X53664Y-24386D01*
X53679Y-24371D01*
X53693Y-24343D01*
X53693Y-24329D01*
X53679Y-24300D01*
X53664Y-24286D01*
X53636Y-24271D01*
X53579Y-24271D01*
X53550Y-24286D01*
X53536Y-24300D01*
X53521Y-24329D01*
X53521Y-24343D01*
X53536Y-24371D01*
X53550Y-24386D01*
X53579Y-24400D01*
X53636Y-24400D01*
X53664Y-24414D01*
X53679Y-24429D01*
X53693Y-24457D01*
X53693Y-24514D01*
X53679Y-24543D01*
X53664Y-24557D01*
X53636Y-24571D01*
X53579Y-24571D01*
X53550Y-24557D01*
X53536Y-24543D01*
X53521Y-24514D01*
X53521Y-24457D01*
X53536Y-24429D01*
X53550Y-24414D01*
X53579Y-24400D01*
X33093Y-26571D02*
X33193Y-26429D01*
X33265Y-26571D02*
X33265Y-26271D01*
X33150Y-26271D01*
X33122Y-26286D01*
X33107Y-26300D01*
X33093Y-26329D01*
X33093Y-26371D01*
X33107Y-26400D01*
X33122Y-26414D01*
X33150Y-26429D01*
X33265Y-26429D01*
X32950Y-26571D02*
X32893Y-26571D01*
X32865Y-26557D01*
X32850Y-26543D01*
X32822Y-26500D01*
X32807Y-26443D01*
X32807Y-26329D01*
X32822Y-26300D01*
X32836Y-26286D01*
X32865Y-26271D01*
X32922Y-26271D01*
X32950Y-26286D01*
X32965Y-26300D01*
X32979Y-26329D01*
X32979Y-26400D01*
X32965Y-26429D01*
X32950Y-26443D01*
X32922Y-26457D01*
X32865Y-26457D01*
X32836Y-26443D01*
X32822Y-26429D01*
X32807Y-26400D01*
X32707Y-26271D02*
X32507Y-26271D01*
X32636Y-26571D01*
X15086Y-33771D02*
X15186Y-33629D01*
X15258Y-33771D02*
X15258Y-33471D01*
X15143Y-33471D01*
X15115Y-33486D01*
X15100Y-33500D01*
X15086Y-33529D01*
X15086Y-33571D01*
X15100Y-33600D01*
X15115Y-33614D01*
X15143Y-33629D01*
X15258Y-33629D01*
X14800Y-33771D02*
X14972Y-33771D01*
X14886Y-33771D02*
X14886Y-33471D01*
X14915Y-33514D01*
X14943Y-33543D01*
X14972Y-33557D01*
X14614Y-33471D02*
X14586Y-33471D01*
X14557Y-33486D01*
X14543Y-33500D01*
X14529Y-33529D01*
X14514Y-33586D01*
X14514Y-33657D01*
X14529Y-33714D01*
X14543Y-33743D01*
X14557Y-33757D01*
X14586Y-33771D01*
X14614Y-33771D01*
X14643Y-33757D01*
X14657Y-33743D01*
X14672Y-33714D01*
X14686Y-33657D01*
X14686Y-33586D01*
X14672Y-33529D01*
X14657Y-33500D01*
X14643Y-33486D01*
X14614Y-33471D01*
X14414Y-33471D02*
X14214Y-33471D01*
X14343Y-33771D01*
X47236Y-31571D02*
X47336Y-31429D01*
X47408Y-31571D02*
X47408Y-31271D01*
X47293Y-31271D01*
X47265Y-31286D01*
X47250Y-31300D01*
X47236Y-31329D01*
X47236Y-31371D01*
X47250Y-31400D01*
X47265Y-31414D01*
X47293Y-31429D01*
X47408Y-31429D01*
X46950Y-31571D02*
X47122Y-31571D01*
X47036Y-31571D02*
X47036Y-31271D01*
X47065Y-31314D01*
X47093Y-31343D01*
X47122Y-31357D01*
X46764Y-31271D02*
X46736Y-31271D01*
X46707Y-31286D01*
X46693Y-31300D01*
X46679Y-31329D01*
X46664Y-31386D01*
X46664Y-31457D01*
X46679Y-31514D01*
X46693Y-31543D01*
X46707Y-31557D01*
X46736Y-31571D01*
X46764Y-31571D01*
X46793Y-31557D01*
X46807Y-31543D01*
X46822Y-31514D01*
X46836Y-31457D01*
X46836Y-31386D01*
X46822Y-31329D01*
X46807Y-31300D01*
X46793Y-31286D01*
X46764Y-31271D01*
X46564Y-31271D02*
X46378Y-31271D01*
X46478Y-31386D01*
X46436Y-31386D01*
X46407Y-31400D01*
X46393Y-31414D01*
X46378Y-31443D01*
X46378Y-31514D01*
X46393Y-31543D01*
X46407Y-31557D01*
X46436Y-31571D01*
X46521Y-31571D01*
X46550Y-31557D01*
X46564Y-31543D01*
X54236Y-31571D02*
X54336Y-31429D01*
X54408Y-31571D02*
X54408Y-31271D01*
X54293Y-31271D01*
X54265Y-31286D01*
X54250Y-31300D01*
X54236Y-31329D01*
X54236Y-31371D01*
X54250Y-31400D01*
X54265Y-31414D01*
X54293Y-31429D01*
X54408Y-31429D01*
X53950Y-31571D02*
X54122Y-31571D01*
X54036Y-31571D02*
X54036Y-31271D01*
X54065Y-31314D01*
X54093Y-31343D01*
X54122Y-31357D01*
X53764Y-31271D02*
X53736Y-31271D01*
X53707Y-31286D01*
X53693Y-31300D01*
X53679Y-31329D01*
X53664Y-31386D01*
X53664Y-31457D01*
X53679Y-31514D01*
X53693Y-31543D01*
X53707Y-31557D01*
X53736Y-31571D01*
X53764Y-31571D01*
X53793Y-31557D01*
X53807Y-31543D01*
X53822Y-31514D01*
X53836Y-31457D01*
X53836Y-31386D01*
X53822Y-31329D01*
X53807Y-31300D01*
X53793Y-31286D01*
X53764Y-31271D01*
X53550Y-31300D02*
X53536Y-31286D01*
X53507Y-31271D01*
X53436Y-31271D01*
X53407Y-31286D01*
X53393Y-31300D01*
X53378Y-31329D01*
X53378Y-31357D01*
X53393Y-31400D01*
X53564Y-31571D01*
X53378Y-31571D01*
X15086Y-32771D02*
X15186Y-32629D01*
X15258Y-32771D02*
X15258Y-32471D01*
X15143Y-32471D01*
X15115Y-32486D01*
X15100Y-32500D01*
X15086Y-32529D01*
X15086Y-32571D01*
X15100Y-32600D01*
X15115Y-32614D01*
X15143Y-32629D01*
X15258Y-32629D01*
X14800Y-32771D02*
X14972Y-32771D01*
X14886Y-32771D02*
X14886Y-32471D01*
X14915Y-32514D01*
X14943Y-32543D01*
X14972Y-32557D01*
X14614Y-32471D02*
X14586Y-32471D01*
X14557Y-32486D01*
X14543Y-32500D01*
X14529Y-32529D01*
X14514Y-32586D01*
X14514Y-32657D01*
X14529Y-32714D01*
X14543Y-32743D01*
X14557Y-32757D01*
X14586Y-32771D01*
X14614Y-32771D01*
X14643Y-32757D01*
X14657Y-32743D01*
X14672Y-32714D01*
X14686Y-32657D01*
X14686Y-32586D01*
X14672Y-32529D01*
X14657Y-32500D01*
X14643Y-32486D01*
X14614Y-32471D01*
X14257Y-32471D02*
X14314Y-32471D01*
X14343Y-32486D01*
X14357Y-32500D01*
X14386Y-32543D01*
X14400Y-32600D01*
X14400Y-32714D01*
X14386Y-32743D01*
X14371Y-32757D01*
X14343Y-32771D01*
X14286Y-32771D01*
X14257Y-32757D01*
X14243Y-32743D01*
X14228Y-32714D01*
X14228Y-32643D01*
X14243Y-32614D01*
X14257Y-32600D01*
X14286Y-32586D01*
X14343Y-32586D01*
X14371Y-32600D01*
X14386Y-32614D01*
X14400Y-32643D01*
X47236Y-38571D02*
X47336Y-38429D01*
X47408Y-38571D02*
X47408Y-38271D01*
X47293Y-38271D01*
X47265Y-38286D01*
X47250Y-38300D01*
X47236Y-38329D01*
X47236Y-38371D01*
X47250Y-38400D01*
X47265Y-38414D01*
X47293Y-38429D01*
X47408Y-38429D01*
X46950Y-38571D02*
X47122Y-38571D01*
X47036Y-38571D02*
X47036Y-38271D01*
X47065Y-38314D01*
X47093Y-38343D01*
X47122Y-38357D01*
X46664Y-38571D02*
X46836Y-38571D01*
X46750Y-38571D02*
X46750Y-38271D01*
X46779Y-38314D01*
X46807Y-38343D01*
X46836Y-38357D01*
X46393Y-38271D02*
X46536Y-38271D01*
X46550Y-38414D01*
X46536Y-38400D01*
X46507Y-38386D01*
X46436Y-38386D01*
X46407Y-38400D01*
X46393Y-38414D01*
X46378Y-38443D01*
X46378Y-38514D01*
X46393Y-38543D01*
X46407Y-38557D01*
X46436Y-38571D01*
X46507Y-38571D01*
X46536Y-38557D01*
X46550Y-38543D01*
G54D15*
X11565Y-26487D02*
X11574Y-26500D01*
X11600Y-26513D01*
X11617Y-26513D01*
X11642Y-26500D01*
X11660Y-26473D01*
X11668Y-26447D01*
X11677Y-26393D01*
X11677Y-26353D01*
X11668Y-26300D01*
X11660Y-26273D01*
X11642Y-26247D01*
X11617Y-26233D01*
X11600Y-26233D01*
X11574Y-26247D01*
X11565Y-26260D01*
X11394Y-26513D02*
X11497Y-26513D01*
X11445Y-26513D02*
X11445Y-26233D01*
X11462Y-26273D01*
X11480Y-26300D01*
X11497Y-26313D01*
X11283Y-26233D02*
X11266Y-26233D01*
X11249Y-26247D01*
X11240Y-26260D01*
X11231Y-26287D01*
X11223Y-26340D01*
X11223Y-26407D01*
X11231Y-26460D01*
X11240Y-26487D01*
X11249Y-26500D01*
X11266Y-26513D01*
X11283Y-26513D01*
X11300Y-26500D01*
X11309Y-26487D01*
X11317Y-26460D01*
X11326Y-26407D01*
X11326Y-26340D01*
X11317Y-26287D01*
X11309Y-26260D01*
X11300Y-26247D01*
X11283Y-26233D01*
X11515Y-25487D02*
X11524Y-25500D01*
X11550Y-25513D01*
X11567Y-25513D01*
X11592Y-25500D01*
X11610Y-25473D01*
X11618Y-25447D01*
X11627Y-25393D01*
X11627Y-25353D01*
X11618Y-25300D01*
X11610Y-25273D01*
X11592Y-25247D01*
X11567Y-25233D01*
X11550Y-25233D01*
X11524Y-25247D01*
X11515Y-25260D01*
X11344Y-25513D02*
X11447Y-25513D01*
X11395Y-25513D02*
X11395Y-25233D01*
X11412Y-25273D01*
X11430Y-25300D01*
X11447Y-25313D01*
X11173Y-25513D02*
X11276Y-25513D01*
X11224Y-25513D02*
X11224Y-25233D01*
X11241Y-25273D01*
X11259Y-25300D01*
X11276Y-25313D01*
G54D16*
X36895Y-24062D02*
X36895Y-24386D01*
X36876Y-24424D01*
X36857Y-24443D01*
X36819Y-24462D01*
X36742Y-24462D01*
X36704Y-24443D01*
X36685Y-24424D01*
X36666Y-24386D01*
X36666Y-24062D01*
X36514Y-24062D02*
X36266Y-24062D01*
X36400Y-24214D01*
X36342Y-24214D01*
X36304Y-24233D01*
X36285Y-24252D01*
X36266Y-24290D01*
X36266Y-24386D01*
X36285Y-24424D01*
X36304Y-24443D01*
X36342Y-24462D01*
X36457Y-24462D01*
X36495Y-24443D01*
X36514Y-24424D01*
X36133Y-24062D02*
X35866Y-24062D01*
X36038Y-24462D01*
X43795Y-10062D02*
X43795Y-10386D01*
X43776Y-10424D01*
X43757Y-10443D01*
X43719Y-10462D01*
X43642Y-10462D01*
X43604Y-10443D01*
X43585Y-10424D01*
X43566Y-10386D01*
X43566Y-10062D01*
X43395Y-10100D02*
X43376Y-10081D01*
X43338Y-10062D01*
X43242Y-10062D01*
X43204Y-10081D01*
X43185Y-10100D01*
X43166Y-10138D01*
X43166Y-10176D01*
X43185Y-10233D01*
X43414Y-10462D01*
X43166Y-10462D01*
X42938Y-10233D02*
X42976Y-10214D01*
X42995Y-10195D01*
X43014Y-10157D01*
X43014Y-10138D01*
X42995Y-10100D01*
X42976Y-10081D01*
X42938Y-10062D01*
X42861Y-10062D01*
X42823Y-10081D01*
X42804Y-10100D01*
X42785Y-10138D01*
X42785Y-10157D01*
X42804Y-10195D01*
X42823Y-10214D01*
X42861Y-10233D01*
X42938Y-10233D01*
X42976Y-10252D01*
X42995Y-10271D01*
X43014Y-10310D01*
X43014Y-10386D01*
X42995Y-10424D01*
X42976Y-10443D01*
X42938Y-10462D01*
X42861Y-10462D01*
X42823Y-10443D01*
X42804Y-10424D01*
X42785Y-10386D01*
X42785Y-10310D01*
X42804Y-10271D01*
X42823Y-10252D01*
X42861Y-10233D01*
X29845Y-38062D02*
X29845Y-38386D01*
X29826Y-38424D01*
X29807Y-38443D01*
X29769Y-38462D01*
X29692Y-38462D01*
X29654Y-38443D01*
X29635Y-38424D01*
X29616Y-38386D01*
X29616Y-38062D01*
X29254Y-38195D02*
X29254Y-38462D01*
X29350Y-38043D02*
X29445Y-38329D01*
X29197Y-38329D01*
X28873Y-38062D02*
X28950Y-38062D01*
X28988Y-38081D01*
X29007Y-38100D01*
X29045Y-38157D01*
X29064Y-38233D01*
X29064Y-38386D01*
X29045Y-38424D01*
X29026Y-38443D01*
X28988Y-38462D01*
X28911Y-38462D01*
X28873Y-38443D01*
X28854Y-38424D01*
X28835Y-38386D01*
X28835Y-38290D01*
X28854Y-38252D01*
X28873Y-38233D01*
X28911Y-38214D01*
X28988Y-38214D01*
X29026Y-38233D01*
X29045Y-38252D01*
X29064Y-38290D01*
X43895Y-24062D02*
X43895Y-24386D01*
X43876Y-24424D01*
X43857Y-24443D01*
X43819Y-24462D01*
X43742Y-24462D01*
X43704Y-24443D01*
X43685Y-24424D01*
X43666Y-24386D01*
X43666Y-24062D01*
X43514Y-24062D02*
X43266Y-24062D01*
X43400Y-24214D01*
X43342Y-24214D01*
X43304Y-24233D01*
X43285Y-24252D01*
X43266Y-24290D01*
X43266Y-24386D01*
X43285Y-24424D01*
X43304Y-24443D01*
X43342Y-24462D01*
X43457Y-24462D01*
X43495Y-24443D01*
X43514Y-24424D01*
X42923Y-24062D02*
X43000Y-24062D01*
X43038Y-24081D01*
X43057Y-24100D01*
X43095Y-24157D01*
X43114Y-24233D01*
X43114Y-24386D01*
X43095Y-24424D01*
X43076Y-24443D01*
X43038Y-24462D01*
X42961Y-24462D01*
X42923Y-24443D01*
X42904Y-24424D01*
X42885Y-24386D01*
X42885Y-24290D01*
X42904Y-24252D01*
X42923Y-24233D01*
X42961Y-24214D01*
X43038Y-24214D01*
X43076Y-24233D01*
X43095Y-24252D01*
X43114Y-24290D01*
X43895Y-38062D02*
X43895Y-38386D01*
X43876Y-38424D01*
X43857Y-38443D01*
X43819Y-38462D01*
X43742Y-38462D01*
X43704Y-38443D01*
X43685Y-38424D01*
X43666Y-38386D01*
X43666Y-38062D01*
X43304Y-38195D02*
X43304Y-38462D01*
X43400Y-38043D02*
X43495Y-38329D01*
X43247Y-38329D01*
X42923Y-38195D02*
X42923Y-38462D01*
X43019Y-38043D02*
X43114Y-38329D01*
X42866Y-38329D01*
X36845Y-17062D02*
X36845Y-17386D01*
X36826Y-17424D01*
X36807Y-17443D01*
X36769Y-17462D01*
X36692Y-17462D01*
X36654Y-17443D01*
X36635Y-17424D01*
X36616Y-17386D01*
X36616Y-17062D01*
X36464Y-17062D02*
X36216Y-17062D01*
X36350Y-17214D01*
X36292Y-17214D01*
X36254Y-17233D01*
X36235Y-17252D01*
X36216Y-17290D01*
X36216Y-17386D01*
X36235Y-17424D01*
X36254Y-17443D01*
X36292Y-17462D01*
X36407Y-17462D01*
X36445Y-17443D01*
X36464Y-17424D01*
X36083Y-17062D02*
X35835Y-17062D01*
X35969Y-17214D01*
X35911Y-17214D01*
X35873Y-17233D01*
X35854Y-17252D01*
X35835Y-17290D01*
X35835Y-17386D01*
X35854Y-17424D01*
X35873Y-17443D01*
X35911Y-17462D01*
X36026Y-17462D01*
X36064Y-17443D01*
X36083Y-17424D01*
X43845Y-17062D02*
X43845Y-17386D01*
X43826Y-17424D01*
X43807Y-17443D01*
X43769Y-17462D01*
X43692Y-17462D01*
X43654Y-17443D01*
X43635Y-17424D01*
X43616Y-17386D01*
X43616Y-17062D01*
X43464Y-17062D02*
X43216Y-17062D01*
X43350Y-17214D01*
X43292Y-17214D01*
X43254Y-17233D01*
X43235Y-17252D01*
X43216Y-17290D01*
X43216Y-17386D01*
X43235Y-17424D01*
X43254Y-17443D01*
X43292Y-17462D01*
X43407Y-17462D01*
X43445Y-17443D01*
X43464Y-17424D01*
X43064Y-17100D02*
X43045Y-17081D01*
X43007Y-17062D01*
X42911Y-17062D01*
X42873Y-17081D01*
X42854Y-17100D01*
X42835Y-17138D01*
X42835Y-17176D01*
X42854Y-17233D01*
X43083Y-17462D01*
X42835Y-17462D01*
X36895Y-10062D02*
X36895Y-10386D01*
X36876Y-10424D01*
X36857Y-10443D01*
X36819Y-10462D01*
X36742Y-10462D01*
X36704Y-10443D01*
X36685Y-10424D01*
X36666Y-10386D01*
X36666Y-10062D01*
X36495Y-10100D02*
X36476Y-10081D01*
X36438Y-10062D01*
X36342Y-10062D01*
X36304Y-10081D01*
X36285Y-10100D01*
X36266Y-10138D01*
X36266Y-10176D01*
X36285Y-10233D01*
X36514Y-10462D01*
X36266Y-10462D01*
X36076Y-10462D02*
X36000Y-10462D01*
X35961Y-10443D01*
X35942Y-10424D01*
X35904Y-10367D01*
X35885Y-10290D01*
X35885Y-10138D01*
X35904Y-10100D01*
X35923Y-10081D01*
X35961Y-10062D01*
X36038Y-10062D01*
X36076Y-10081D01*
X36095Y-10100D01*
X36114Y-10138D01*
X36114Y-10233D01*
X36095Y-10271D01*
X36076Y-10290D01*
X36038Y-10310D01*
X35961Y-10310D01*
X35923Y-10290D01*
X35904Y-10271D01*
X35885Y-10233D01*
X29845Y-10062D02*
X29845Y-10386D01*
X29826Y-10424D01*
X29807Y-10443D01*
X29769Y-10462D01*
X29692Y-10462D01*
X29654Y-10443D01*
X29635Y-10424D01*
X29616Y-10386D01*
X29616Y-10062D01*
X29464Y-10062D02*
X29216Y-10062D01*
X29350Y-10214D01*
X29292Y-10214D01*
X29254Y-10233D01*
X29235Y-10252D01*
X29216Y-10290D01*
X29216Y-10386D01*
X29235Y-10424D01*
X29254Y-10443D01*
X29292Y-10462D01*
X29407Y-10462D01*
X29445Y-10443D01*
X29464Y-10424D01*
X28969Y-10062D02*
X28930Y-10062D01*
X28892Y-10081D01*
X28873Y-10100D01*
X28854Y-10138D01*
X28835Y-10214D01*
X28835Y-10310D01*
X28854Y-10386D01*
X28873Y-10424D01*
X28892Y-10443D01*
X28930Y-10462D01*
X28969Y-10462D01*
X29007Y-10443D01*
X29026Y-10424D01*
X29045Y-10386D01*
X29064Y-10310D01*
X29064Y-10214D01*
X29045Y-10138D01*
X29026Y-10100D01*
X29007Y-10081D01*
X28969Y-10062D01*
X50895Y-38062D02*
X50895Y-38386D01*
X50876Y-38424D01*
X50857Y-38443D01*
X50819Y-38462D01*
X50742Y-38462D01*
X50704Y-38443D01*
X50685Y-38424D01*
X50666Y-38386D01*
X50666Y-38062D01*
X50304Y-38195D02*
X50304Y-38462D01*
X50400Y-38043D02*
X50495Y-38329D01*
X50247Y-38329D01*
X50133Y-38062D02*
X49885Y-38062D01*
X50019Y-38214D01*
X49961Y-38214D01*
X49923Y-38233D01*
X49904Y-38252D01*
X49885Y-38290D01*
X49885Y-38386D01*
X49904Y-38424D01*
X49923Y-38443D01*
X49961Y-38462D01*
X50076Y-38462D01*
X50114Y-38443D01*
X50133Y-38424D01*
X29895Y-17062D02*
X29895Y-17386D01*
X29876Y-17424D01*
X29857Y-17443D01*
X29819Y-17462D01*
X29742Y-17462D01*
X29704Y-17443D01*
X29685Y-17424D01*
X29666Y-17386D01*
X29666Y-17062D01*
X29514Y-17062D02*
X29266Y-17062D01*
X29400Y-17214D01*
X29342Y-17214D01*
X29304Y-17233D01*
X29285Y-17252D01*
X29266Y-17290D01*
X29266Y-17386D01*
X29285Y-17424D01*
X29304Y-17443D01*
X29342Y-17462D01*
X29457Y-17462D01*
X29495Y-17443D01*
X29514Y-17424D01*
X28923Y-17195D02*
X28923Y-17462D01*
X29019Y-17043D02*
X29114Y-17329D01*
X28866Y-17329D01*
X50845Y-10062D02*
X50845Y-10386D01*
X50826Y-10424D01*
X50807Y-10443D01*
X50769Y-10462D01*
X50692Y-10462D01*
X50654Y-10443D01*
X50635Y-10424D01*
X50616Y-10386D01*
X50616Y-10062D01*
X50445Y-10100D02*
X50426Y-10081D01*
X50388Y-10062D01*
X50292Y-10062D01*
X50254Y-10081D01*
X50235Y-10100D01*
X50216Y-10138D01*
X50216Y-10176D01*
X50235Y-10233D01*
X50464Y-10462D01*
X50216Y-10462D01*
X50083Y-10062D02*
X49816Y-10062D01*
X49988Y-10462D01*
X50895Y-31062D02*
X50895Y-31386D01*
X50876Y-31424D01*
X50857Y-31443D01*
X50819Y-31462D01*
X50742Y-31462D01*
X50704Y-31443D01*
X50685Y-31424D01*
X50666Y-31386D01*
X50666Y-31062D01*
X50514Y-31062D02*
X50266Y-31062D01*
X50400Y-31214D01*
X50342Y-31214D01*
X50304Y-31233D01*
X50285Y-31252D01*
X50266Y-31290D01*
X50266Y-31386D01*
X50285Y-31424D01*
X50304Y-31443D01*
X50342Y-31462D01*
X50457Y-31462D01*
X50495Y-31443D01*
X50514Y-31424D01*
X50076Y-31462D02*
X50000Y-31462D01*
X49961Y-31443D01*
X49942Y-31424D01*
X49904Y-31367D01*
X49885Y-31290D01*
X49885Y-31138D01*
X49904Y-31100D01*
X49923Y-31081D01*
X49961Y-31062D01*
X50038Y-31062D01*
X50076Y-31081D01*
X50095Y-31100D01*
X50114Y-31138D01*
X50114Y-31233D01*
X50095Y-31271D01*
X50076Y-31290D01*
X50038Y-31310D01*
X49961Y-31310D01*
X49923Y-31290D01*
X49904Y-31271D01*
X49885Y-31233D01*
X29895Y-24062D02*
X29895Y-24386D01*
X29876Y-24424D01*
X29857Y-24443D01*
X29819Y-24462D01*
X29742Y-24462D01*
X29704Y-24443D01*
X29685Y-24424D01*
X29666Y-24386D01*
X29666Y-24062D01*
X29514Y-24062D02*
X29266Y-24062D01*
X29400Y-24214D01*
X29342Y-24214D01*
X29304Y-24233D01*
X29285Y-24252D01*
X29266Y-24290D01*
X29266Y-24386D01*
X29285Y-24424D01*
X29304Y-24443D01*
X29342Y-24462D01*
X29457Y-24462D01*
X29495Y-24443D01*
X29514Y-24424D01*
X29038Y-24233D02*
X29076Y-24214D01*
X29095Y-24195D01*
X29114Y-24157D01*
X29114Y-24138D01*
X29095Y-24100D01*
X29076Y-24081D01*
X29038Y-24062D01*
X28961Y-24062D01*
X28923Y-24081D01*
X28904Y-24100D01*
X28885Y-24138D01*
X28885Y-24157D01*
X28904Y-24195D01*
X28923Y-24214D01*
X28961Y-24233D01*
X29038Y-24233D01*
X29076Y-24252D01*
X29095Y-24271D01*
X29114Y-24310D01*
X29114Y-24386D01*
X29095Y-24424D01*
X29076Y-24443D01*
X29038Y-24462D01*
X28961Y-24462D01*
X28923Y-24443D01*
X28904Y-24424D01*
X28885Y-24386D01*
X28885Y-24310D01*
X28904Y-24271D01*
X28923Y-24252D01*
X28961Y-24233D01*
X36895Y-31062D02*
X36895Y-31386D01*
X36876Y-31424D01*
X36857Y-31443D01*
X36819Y-31462D01*
X36742Y-31462D01*
X36704Y-31443D01*
X36685Y-31424D01*
X36666Y-31386D01*
X36666Y-31062D01*
X36304Y-31195D02*
X36304Y-31462D01*
X36400Y-31043D02*
X36495Y-31329D01*
X36247Y-31329D01*
X35885Y-31462D02*
X36114Y-31462D01*
X36000Y-31462D02*
X36000Y-31062D01*
X36038Y-31119D01*
X36076Y-31157D01*
X36114Y-31176D01*
X50895Y-24062D02*
X50895Y-24386D01*
X50876Y-24424D01*
X50857Y-24443D01*
X50819Y-24462D01*
X50742Y-24462D01*
X50704Y-24443D01*
X50685Y-24424D01*
X50666Y-24386D01*
X50666Y-24062D01*
X50514Y-24062D02*
X50266Y-24062D01*
X50400Y-24214D01*
X50342Y-24214D01*
X50304Y-24233D01*
X50285Y-24252D01*
X50266Y-24290D01*
X50266Y-24386D01*
X50285Y-24424D01*
X50304Y-24443D01*
X50342Y-24462D01*
X50457Y-24462D01*
X50495Y-24443D01*
X50514Y-24424D01*
X49904Y-24062D02*
X50095Y-24062D01*
X50114Y-24252D01*
X50095Y-24233D01*
X50057Y-24214D01*
X49961Y-24214D01*
X49923Y-24233D01*
X49904Y-24252D01*
X49885Y-24290D01*
X49885Y-24386D01*
X49904Y-24424D01*
X49923Y-24443D01*
X49961Y-24462D01*
X50057Y-24462D01*
X50095Y-24443D01*
X50114Y-24424D01*
X36895Y-38062D02*
X36895Y-38386D01*
X36876Y-38424D01*
X36857Y-38443D01*
X36819Y-38462D01*
X36742Y-38462D01*
X36704Y-38443D01*
X36685Y-38424D01*
X36666Y-38386D01*
X36666Y-38062D01*
X36304Y-38195D02*
X36304Y-38462D01*
X36400Y-38043D02*
X36495Y-38329D01*
X36247Y-38329D01*
X35904Y-38062D02*
X36095Y-38062D01*
X36114Y-38252D01*
X36095Y-38233D01*
X36057Y-38214D01*
X35961Y-38214D01*
X35923Y-38233D01*
X35904Y-38252D01*
X35885Y-38290D01*
X35885Y-38386D01*
X35904Y-38424D01*
X35923Y-38443D01*
X35961Y-38462D01*
X36057Y-38462D01*
X36095Y-38443D01*
X36114Y-38424D01*
X29895Y-31062D02*
X29895Y-31386D01*
X29876Y-31424D01*
X29857Y-31443D01*
X29819Y-31462D01*
X29742Y-31462D01*
X29704Y-31443D01*
X29685Y-31424D01*
X29666Y-31386D01*
X29666Y-31062D01*
X29304Y-31195D02*
X29304Y-31462D01*
X29400Y-31043D02*
X29495Y-31329D01*
X29247Y-31329D01*
X29114Y-31100D02*
X29095Y-31081D01*
X29057Y-31062D01*
X28961Y-31062D01*
X28923Y-31081D01*
X28904Y-31100D01*
X28885Y-31138D01*
X28885Y-31176D01*
X28904Y-31233D01*
X29133Y-31462D01*
X28885Y-31462D01*
X50895Y-17062D02*
X50895Y-17386D01*
X50876Y-17424D01*
X50857Y-17443D01*
X50819Y-17462D01*
X50742Y-17462D01*
X50704Y-17443D01*
X50685Y-17424D01*
X50666Y-17386D01*
X50666Y-17062D01*
X50514Y-17062D02*
X50266Y-17062D01*
X50400Y-17214D01*
X50342Y-17214D01*
X50304Y-17233D01*
X50285Y-17252D01*
X50266Y-17290D01*
X50266Y-17386D01*
X50285Y-17424D01*
X50304Y-17443D01*
X50342Y-17462D01*
X50457Y-17462D01*
X50495Y-17443D01*
X50514Y-17424D01*
X49885Y-17462D02*
X50114Y-17462D01*
X50000Y-17462D02*
X50000Y-17062D01*
X50038Y-17119D01*
X50076Y-17157D01*
X50114Y-17176D01*
X43895Y-31062D02*
X43895Y-31386D01*
X43876Y-31424D01*
X43857Y-31443D01*
X43819Y-31462D01*
X43742Y-31462D01*
X43704Y-31443D01*
X43685Y-31424D01*
X43666Y-31386D01*
X43666Y-31062D01*
X43304Y-31195D02*
X43304Y-31462D01*
X43400Y-31043D02*
X43495Y-31329D01*
X43247Y-31329D01*
X43019Y-31062D02*
X42980Y-31062D01*
X42942Y-31081D01*
X42923Y-31100D01*
X42904Y-31138D01*
X42885Y-31214D01*
X42885Y-31310D01*
X42904Y-31386D01*
X42923Y-31424D01*
X42942Y-31443D01*
X42980Y-31462D01*
X43019Y-31462D01*
X43057Y-31443D01*
X43076Y-31424D01*
X43095Y-31386D01*
X43114Y-31310D01*
X43114Y-31214D01*
X43095Y-31138D01*
X43076Y-31100D01*
X43057Y-31081D01*
X43019Y-31062D01*
G54D10*
X11858Y-10608D02*
X11874Y-10625D01*
X11924Y-10642D01*
X11958Y-10642D01*
X12008Y-10625D01*
X12041Y-10592D01*
X12058Y-10558D01*
X12074Y-10492D01*
X12074Y-10442D01*
X12058Y-10375D01*
X12041Y-10342D01*
X12008Y-10308D01*
X11958Y-10292D01*
X11924Y-10292D01*
X11874Y-10308D01*
X11858Y-10325D01*
X11691Y-10642D02*
X11624Y-10642D01*
X11591Y-10625D01*
X11574Y-10608D01*
X11541Y-10558D01*
X11524Y-10492D01*
X11524Y-10358D01*
X11541Y-10325D01*
X11558Y-10308D01*
X11591Y-10292D01*
X11658Y-10292D01*
X11691Y-10308D01*
X11708Y-10325D01*
X11724Y-10358D01*
X11724Y-10442D01*
X11708Y-10475D01*
X11691Y-10492D01*
X11658Y-10508D01*
X11591Y-10508D01*
X11558Y-10492D01*
X11541Y-10475D01*
X11524Y-10442D01*
M02*
