G04 (created by PCBNEW (2013-03-31 BZR 4008)-stable) date 12/04/2013 5:07:08 PM*
%MOIN*%
G04 Gerber Fmt 3.4, Leading zero omitted, Abs format*
%FSLAX34Y34*%
G01*
G70*
G90*
G04 APERTURE LIST*
%ADD10C,2.3622e-006*%
%ADD11C,0.00590551*%
%ADD12C,0.012*%
%ADD13C,0.00984252*%
%ADD14C,0.015*%
%ADD15C,0.005*%
%ADD16C,0.0026*%
%ADD17C,0.004*%
%ADD18C,0.01*%
%ADD19C,0.0039*%
%ADD20C,0.0001*%
%ADD21C,0.0045*%
%ADD22C,0.0035*%
%ADD23C,0.008*%
%ADD24C,0.006*%
%ADD25C,0.01125*%
%ADD26C,0.0113*%
G04 APERTURE END LIST*
G54D10*
G54D11*
X28468Y-43052D02*
X28356Y-43052D01*
X28356Y-42737D01*
X28547Y-43052D02*
X28547Y-42842D01*
X28547Y-42737D02*
X28536Y-42752D01*
X28547Y-42767D01*
X28558Y-42752D01*
X28547Y-42737D01*
X28547Y-42767D01*
X28761Y-43037D02*
X28738Y-43052D01*
X28693Y-43052D01*
X28671Y-43037D01*
X28659Y-43022D01*
X28648Y-42992D01*
X28648Y-42902D01*
X28659Y-42872D01*
X28671Y-42857D01*
X28693Y-42842D01*
X28738Y-42842D01*
X28761Y-42857D01*
X28952Y-43037D02*
X28929Y-43052D01*
X28884Y-43052D01*
X28862Y-43037D01*
X28851Y-43007D01*
X28851Y-42887D01*
X28862Y-42857D01*
X28884Y-42842D01*
X28929Y-42842D01*
X28952Y-42857D01*
X28963Y-42887D01*
X28963Y-42917D01*
X28851Y-42947D01*
X29064Y-42842D02*
X29064Y-43052D01*
X29064Y-42872D02*
X29076Y-42857D01*
X29098Y-42842D01*
X29132Y-42842D01*
X29154Y-42857D01*
X29166Y-42887D01*
X29166Y-43052D01*
X29267Y-43037D02*
X29289Y-43052D01*
X29334Y-43052D01*
X29357Y-43037D01*
X29368Y-43007D01*
X29368Y-42992D01*
X29357Y-42962D01*
X29334Y-42947D01*
X29301Y-42947D01*
X29278Y-42932D01*
X29267Y-42902D01*
X29267Y-42887D01*
X29278Y-42857D01*
X29301Y-42842D01*
X29334Y-42842D01*
X29357Y-42857D01*
X29559Y-43037D02*
X29537Y-43052D01*
X29492Y-43052D01*
X29469Y-43037D01*
X29458Y-43007D01*
X29458Y-42887D01*
X29469Y-42857D01*
X29492Y-42842D01*
X29537Y-42842D01*
X29559Y-42857D01*
X29571Y-42887D01*
X29571Y-42917D01*
X29458Y-42947D01*
X29773Y-43052D02*
X29773Y-42737D01*
X29773Y-43037D02*
X29751Y-43052D01*
X29706Y-43052D01*
X29683Y-43037D01*
X29672Y-43022D01*
X29661Y-42992D01*
X29661Y-42902D01*
X29672Y-42872D01*
X29683Y-42857D01*
X29706Y-42842D01*
X29751Y-42842D01*
X29773Y-42857D01*
X30167Y-42842D02*
X30167Y-43052D01*
X30066Y-42842D02*
X30066Y-43007D01*
X30077Y-43037D01*
X30099Y-43052D01*
X30133Y-43052D01*
X30156Y-43037D01*
X30167Y-43022D01*
X30279Y-42842D02*
X30279Y-43052D01*
X30279Y-42872D02*
X30291Y-42857D01*
X30313Y-42842D01*
X30347Y-42842D01*
X30369Y-42857D01*
X30380Y-42887D01*
X30380Y-43052D01*
X30594Y-43052D02*
X30594Y-42737D01*
X30594Y-43037D02*
X30572Y-43052D01*
X30527Y-43052D01*
X30504Y-43037D01*
X30493Y-43022D01*
X30482Y-42992D01*
X30482Y-42902D01*
X30493Y-42872D01*
X30504Y-42857D01*
X30527Y-42842D01*
X30572Y-42842D01*
X30594Y-42857D01*
X30797Y-43037D02*
X30774Y-43052D01*
X30729Y-43052D01*
X30707Y-43037D01*
X30695Y-43007D01*
X30695Y-42887D01*
X30707Y-42857D01*
X30729Y-42842D01*
X30774Y-42842D01*
X30797Y-42857D01*
X30808Y-42887D01*
X30808Y-42917D01*
X30695Y-42947D01*
X30909Y-43052D02*
X30909Y-42842D01*
X30909Y-42902D02*
X30920Y-42872D01*
X30932Y-42857D01*
X30954Y-42842D01*
X30977Y-42842D01*
X31337Y-43052D02*
X31337Y-42887D01*
X31325Y-42857D01*
X31303Y-42842D01*
X31258Y-42842D01*
X31235Y-42857D01*
X31337Y-43037D02*
X31314Y-43052D01*
X31258Y-43052D01*
X31235Y-43037D01*
X31224Y-43007D01*
X31224Y-42977D01*
X31235Y-42947D01*
X31258Y-42932D01*
X31314Y-42932D01*
X31337Y-42917D01*
X31764Y-43022D02*
X31753Y-43037D01*
X31719Y-43052D01*
X31697Y-43052D01*
X31663Y-43037D01*
X31640Y-43007D01*
X31629Y-42977D01*
X31618Y-42917D01*
X31618Y-42872D01*
X31629Y-42812D01*
X31640Y-42782D01*
X31663Y-42752D01*
X31697Y-42737D01*
X31719Y-42737D01*
X31753Y-42752D01*
X31764Y-42767D01*
X31865Y-43052D02*
X31865Y-42842D01*
X31865Y-42902D02*
X31877Y-42872D01*
X31888Y-42857D01*
X31910Y-42842D01*
X31933Y-42842D01*
X32102Y-43037D02*
X32079Y-43052D01*
X32034Y-43052D01*
X32012Y-43037D01*
X32000Y-43007D01*
X32000Y-42887D01*
X32012Y-42857D01*
X32034Y-42842D01*
X32079Y-42842D01*
X32102Y-42857D01*
X32113Y-42887D01*
X32113Y-42917D01*
X32000Y-42947D01*
X32315Y-43052D02*
X32315Y-42887D01*
X32304Y-42857D01*
X32282Y-42842D01*
X32237Y-42842D01*
X32214Y-42857D01*
X32315Y-43037D02*
X32293Y-43052D01*
X32237Y-43052D01*
X32214Y-43037D01*
X32203Y-43007D01*
X32203Y-42977D01*
X32214Y-42947D01*
X32237Y-42932D01*
X32293Y-42932D01*
X32315Y-42917D01*
X32394Y-42842D02*
X32484Y-42842D01*
X32428Y-42737D02*
X32428Y-43007D01*
X32439Y-43037D01*
X32461Y-43052D01*
X32484Y-43052D01*
X32563Y-43052D02*
X32563Y-42842D01*
X32563Y-42737D02*
X32551Y-42752D01*
X32563Y-42767D01*
X32574Y-42752D01*
X32563Y-42737D01*
X32563Y-42767D01*
X32653Y-42842D02*
X32709Y-43052D01*
X32765Y-42842D01*
X32945Y-43037D02*
X32923Y-43052D01*
X32878Y-43052D01*
X32855Y-43037D01*
X32844Y-43007D01*
X32844Y-42887D01*
X32855Y-42857D01*
X32878Y-42842D01*
X32923Y-42842D01*
X32945Y-42857D01*
X32956Y-42887D01*
X32956Y-42917D01*
X32844Y-42947D01*
X33373Y-43022D02*
X33361Y-43037D01*
X33328Y-43052D01*
X33305Y-43052D01*
X33271Y-43037D01*
X33249Y-43007D01*
X33238Y-42977D01*
X33226Y-42917D01*
X33226Y-42872D01*
X33238Y-42812D01*
X33249Y-42782D01*
X33271Y-42752D01*
X33305Y-42737D01*
X33328Y-42737D01*
X33361Y-42752D01*
X33373Y-42767D01*
X33508Y-43052D02*
X33485Y-43037D01*
X33474Y-43022D01*
X33463Y-42992D01*
X33463Y-42902D01*
X33474Y-42872D01*
X33485Y-42857D01*
X33508Y-42842D01*
X33541Y-42842D01*
X33564Y-42857D01*
X33575Y-42872D01*
X33586Y-42902D01*
X33586Y-42992D01*
X33575Y-43022D01*
X33564Y-43037D01*
X33541Y-43052D01*
X33508Y-43052D01*
X33688Y-43052D02*
X33688Y-42842D01*
X33688Y-42872D02*
X33699Y-42857D01*
X33721Y-42842D01*
X33755Y-42842D01*
X33778Y-42857D01*
X33789Y-42887D01*
X33789Y-43052D01*
X33789Y-42887D02*
X33800Y-42857D01*
X33823Y-42842D01*
X33856Y-42842D01*
X33879Y-42857D01*
X33890Y-42887D01*
X33890Y-43052D01*
X34003Y-43052D02*
X34003Y-42842D01*
X34003Y-42872D02*
X34014Y-42857D01*
X34036Y-42842D01*
X34070Y-42842D01*
X34093Y-42857D01*
X34104Y-42887D01*
X34104Y-43052D01*
X34104Y-42887D02*
X34115Y-42857D01*
X34138Y-42842D01*
X34171Y-42842D01*
X34194Y-42857D01*
X34205Y-42887D01*
X34205Y-43052D01*
X34351Y-43052D02*
X34329Y-43037D01*
X34317Y-43022D01*
X34306Y-42992D01*
X34306Y-42902D01*
X34317Y-42872D01*
X34329Y-42857D01*
X34351Y-42842D01*
X34385Y-42842D01*
X34407Y-42857D01*
X34419Y-42872D01*
X34430Y-42902D01*
X34430Y-42992D01*
X34419Y-43022D01*
X34407Y-43037D01*
X34385Y-43052D01*
X34351Y-43052D01*
X34531Y-42842D02*
X34531Y-43052D01*
X34531Y-42872D02*
X34542Y-42857D01*
X34565Y-42842D01*
X34599Y-42842D01*
X34621Y-42857D01*
X34632Y-42887D01*
X34632Y-43052D01*
X34734Y-43037D02*
X34756Y-43052D01*
X34801Y-43052D01*
X34824Y-43037D01*
X34835Y-43007D01*
X34835Y-42992D01*
X34824Y-42962D01*
X34801Y-42947D01*
X34767Y-42947D01*
X34745Y-42932D01*
X34734Y-42902D01*
X34734Y-42887D01*
X34745Y-42857D01*
X34767Y-42842D01*
X34801Y-42842D01*
X34824Y-42857D01*
X28344Y-43462D02*
X28457Y-43462D01*
X28322Y-43552D02*
X28401Y-43237D01*
X28479Y-43552D01*
X28524Y-43342D02*
X28614Y-43342D01*
X28558Y-43237D02*
X28558Y-43507D01*
X28569Y-43537D01*
X28592Y-43552D01*
X28614Y-43552D01*
X28659Y-43342D02*
X28749Y-43342D01*
X28693Y-43237D02*
X28693Y-43507D01*
X28704Y-43537D01*
X28727Y-43552D01*
X28749Y-43552D01*
X28828Y-43552D02*
X28828Y-43342D01*
X28828Y-43402D02*
X28839Y-43372D01*
X28851Y-43357D01*
X28873Y-43342D01*
X28896Y-43342D01*
X28974Y-43552D02*
X28974Y-43342D01*
X28974Y-43237D02*
X28963Y-43252D01*
X28974Y-43267D01*
X28986Y-43252D01*
X28974Y-43237D01*
X28974Y-43267D01*
X29087Y-43552D02*
X29087Y-43237D01*
X29087Y-43357D02*
X29109Y-43342D01*
X29154Y-43342D01*
X29177Y-43357D01*
X29188Y-43372D01*
X29199Y-43402D01*
X29199Y-43492D01*
X29188Y-43522D01*
X29177Y-43537D01*
X29154Y-43552D01*
X29109Y-43552D01*
X29087Y-43537D01*
X29402Y-43342D02*
X29402Y-43552D01*
X29301Y-43342D02*
X29301Y-43507D01*
X29312Y-43537D01*
X29334Y-43552D01*
X29368Y-43552D01*
X29391Y-43537D01*
X29402Y-43522D01*
X29481Y-43342D02*
X29571Y-43342D01*
X29514Y-43237D02*
X29514Y-43507D01*
X29526Y-43537D01*
X29548Y-43552D01*
X29571Y-43552D01*
X29649Y-43552D02*
X29649Y-43342D01*
X29649Y-43237D02*
X29638Y-43252D01*
X29649Y-43267D01*
X29661Y-43252D01*
X29649Y-43237D01*
X29649Y-43267D01*
X29796Y-43552D02*
X29773Y-43537D01*
X29762Y-43522D01*
X29751Y-43492D01*
X29751Y-43402D01*
X29762Y-43372D01*
X29773Y-43357D01*
X29796Y-43342D01*
X29829Y-43342D01*
X29852Y-43357D01*
X29863Y-43372D01*
X29874Y-43402D01*
X29874Y-43492D01*
X29863Y-43522D01*
X29852Y-43537D01*
X29829Y-43552D01*
X29796Y-43552D01*
X29976Y-43342D02*
X29976Y-43552D01*
X29976Y-43372D02*
X29987Y-43357D01*
X30009Y-43342D01*
X30043Y-43342D01*
X30066Y-43357D01*
X30077Y-43387D01*
X30077Y-43552D01*
X30189Y-43432D02*
X30369Y-43432D01*
X30470Y-43537D02*
X30504Y-43552D01*
X30560Y-43552D01*
X30583Y-43537D01*
X30594Y-43522D01*
X30605Y-43492D01*
X30605Y-43462D01*
X30594Y-43432D01*
X30583Y-43417D01*
X30560Y-43402D01*
X30515Y-43387D01*
X30493Y-43372D01*
X30482Y-43357D01*
X30470Y-43327D01*
X30470Y-43297D01*
X30482Y-43267D01*
X30493Y-43252D01*
X30515Y-43237D01*
X30572Y-43237D01*
X30605Y-43252D01*
X30707Y-43552D02*
X30707Y-43237D01*
X30808Y-43552D02*
X30808Y-43387D01*
X30797Y-43357D01*
X30774Y-43342D01*
X30740Y-43342D01*
X30718Y-43357D01*
X30707Y-43372D01*
X31022Y-43552D02*
X31022Y-43387D01*
X31010Y-43357D01*
X30988Y-43342D01*
X30943Y-43342D01*
X30920Y-43357D01*
X31022Y-43537D02*
X30999Y-43552D01*
X30943Y-43552D01*
X30920Y-43537D01*
X30909Y-43507D01*
X30909Y-43477D01*
X30920Y-43447D01*
X30943Y-43432D01*
X30999Y-43432D01*
X31022Y-43417D01*
X31134Y-43552D02*
X31134Y-43342D01*
X31134Y-43402D02*
X31145Y-43372D01*
X31157Y-43357D01*
X31179Y-43342D01*
X31202Y-43342D01*
X31370Y-43537D02*
X31348Y-43552D01*
X31303Y-43552D01*
X31280Y-43537D01*
X31269Y-43507D01*
X31269Y-43387D01*
X31280Y-43357D01*
X31303Y-43342D01*
X31348Y-43342D01*
X31370Y-43357D01*
X31382Y-43387D01*
X31382Y-43417D01*
X31269Y-43447D01*
X31472Y-43462D02*
X31584Y-43462D01*
X31449Y-43552D02*
X31528Y-43237D01*
X31607Y-43552D01*
X31719Y-43552D02*
X31697Y-43537D01*
X31685Y-43507D01*
X31685Y-43237D01*
X31809Y-43552D02*
X31809Y-43342D01*
X31809Y-43237D02*
X31798Y-43252D01*
X31809Y-43267D01*
X31820Y-43252D01*
X31809Y-43237D01*
X31809Y-43267D01*
X31922Y-43552D02*
X31922Y-43237D01*
X31944Y-43432D02*
X32012Y-43552D01*
X32012Y-43342D02*
X31922Y-43462D01*
X32203Y-43537D02*
X32180Y-43552D01*
X32135Y-43552D01*
X32113Y-43537D01*
X32102Y-43507D01*
X32102Y-43387D01*
X32113Y-43357D01*
X32135Y-43342D01*
X32180Y-43342D01*
X32203Y-43357D01*
X32214Y-43387D01*
X32214Y-43417D01*
X32102Y-43447D01*
X32473Y-43237D02*
X32619Y-43237D01*
X32540Y-43357D01*
X32574Y-43357D01*
X32596Y-43372D01*
X32608Y-43387D01*
X32619Y-43417D01*
X32619Y-43492D01*
X32608Y-43522D01*
X32596Y-43537D01*
X32574Y-43552D01*
X32506Y-43552D01*
X32484Y-43537D01*
X32473Y-43522D01*
X32720Y-43522D02*
X32731Y-43537D01*
X32720Y-43552D01*
X32709Y-43537D01*
X32720Y-43522D01*
X32720Y-43552D01*
X32878Y-43237D02*
X32900Y-43237D01*
X32923Y-43252D01*
X32934Y-43267D01*
X32945Y-43297D01*
X32956Y-43357D01*
X32956Y-43432D01*
X32945Y-43492D01*
X32934Y-43522D01*
X32923Y-43537D01*
X32900Y-43552D01*
X32878Y-43552D01*
X32855Y-43537D01*
X32844Y-43522D01*
X32833Y-43492D01*
X32821Y-43432D01*
X32821Y-43357D01*
X32833Y-43297D01*
X32844Y-43267D01*
X32855Y-43252D01*
X32878Y-43237D01*
X33238Y-43237D02*
X33238Y-43492D01*
X33249Y-43522D01*
X33260Y-43537D01*
X33283Y-43552D01*
X33328Y-43552D01*
X33350Y-43537D01*
X33361Y-43522D01*
X33373Y-43492D01*
X33373Y-43237D01*
X33485Y-43342D02*
X33485Y-43552D01*
X33485Y-43372D02*
X33496Y-43357D01*
X33519Y-43342D01*
X33553Y-43342D01*
X33575Y-43357D01*
X33586Y-43387D01*
X33586Y-43552D01*
X33699Y-43342D02*
X33699Y-43657D01*
X33699Y-43357D02*
X33721Y-43342D01*
X33766Y-43342D01*
X33789Y-43357D01*
X33800Y-43372D01*
X33811Y-43402D01*
X33811Y-43492D01*
X33800Y-43522D01*
X33789Y-43537D01*
X33766Y-43552D01*
X33721Y-43552D01*
X33699Y-43537D01*
X33946Y-43552D02*
X33924Y-43537D01*
X33913Y-43522D01*
X33901Y-43492D01*
X33901Y-43402D01*
X33913Y-43372D01*
X33924Y-43357D01*
X33946Y-43342D01*
X33980Y-43342D01*
X34003Y-43357D01*
X34014Y-43372D01*
X34025Y-43402D01*
X34025Y-43492D01*
X34014Y-43522D01*
X34003Y-43537D01*
X33980Y-43552D01*
X33946Y-43552D01*
X34126Y-43552D02*
X34126Y-43342D01*
X34126Y-43402D02*
X34138Y-43372D01*
X34149Y-43357D01*
X34171Y-43342D01*
X34194Y-43342D01*
X34239Y-43342D02*
X34329Y-43342D01*
X34273Y-43237D02*
X34273Y-43507D01*
X34284Y-43537D01*
X34306Y-43552D01*
X34329Y-43552D01*
X34497Y-43537D02*
X34475Y-43552D01*
X34430Y-43552D01*
X34407Y-43537D01*
X34396Y-43507D01*
X34396Y-43387D01*
X34407Y-43357D01*
X34430Y-43342D01*
X34475Y-43342D01*
X34497Y-43357D01*
X34509Y-43387D01*
X34509Y-43417D01*
X34396Y-43447D01*
X34711Y-43552D02*
X34711Y-43237D01*
X34711Y-43537D02*
X34689Y-43552D01*
X34644Y-43552D01*
X34621Y-43537D01*
X34610Y-43522D01*
X34599Y-43492D01*
X34599Y-43402D01*
X34610Y-43372D01*
X34621Y-43357D01*
X34644Y-43342D01*
X34689Y-43342D01*
X34711Y-43357D01*
X35116Y-43552D02*
X35004Y-43552D01*
X35004Y-43237D01*
X35195Y-43552D02*
X35195Y-43342D01*
X35195Y-43237D02*
X35184Y-43252D01*
X35195Y-43267D01*
X35206Y-43252D01*
X35195Y-43237D01*
X35195Y-43267D01*
X35409Y-43537D02*
X35386Y-43552D01*
X35341Y-43552D01*
X35319Y-43537D01*
X35307Y-43522D01*
X35296Y-43492D01*
X35296Y-43402D01*
X35307Y-43372D01*
X35319Y-43357D01*
X35341Y-43342D01*
X35386Y-43342D01*
X35409Y-43357D01*
X35600Y-43537D02*
X35577Y-43552D01*
X35532Y-43552D01*
X35510Y-43537D01*
X35499Y-43507D01*
X35499Y-43387D01*
X35510Y-43357D01*
X35532Y-43342D01*
X35577Y-43342D01*
X35600Y-43357D01*
X35611Y-43387D01*
X35611Y-43417D01*
X35499Y-43447D01*
X35712Y-43342D02*
X35712Y-43552D01*
X35712Y-43372D02*
X35724Y-43357D01*
X35746Y-43342D01*
X35780Y-43342D01*
X35802Y-43357D01*
X35814Y-43387D01*
X35814Y-43552D01*
X35915Y-43537D02*
X35937Y-43552D01*
X35982Y-43552D01*
X36005Y-43537D01*
X36016Y-43507D01*
X36016Y-43492D01*
X36005Y-43462D01*
X35982Y-43447D01*
X35949Y-43447D01*
X35926Y-43432D01*
X35915Y-43402D01*
X35915Y-43387D01*
X35926Y-43357D01*
X35949Y-43342D01*
X35982Y-43342D01*
X36005Y-43357D01*
X36207Y-43537D02*
X36185Y-43552D01*
X36140Y-43552D01*
X36117Y-43537D01*
X36106Y-43507D01*
X36106Y-43387D01*
X36117Y-43357D01*
X36140Y-43342D01*
X36185Y-43342D01*
X36207Y-43357D01*
X36219Y-43387D01*
X36219Y-43417D01*
X36106Y-43447D01*
G54D12*
X15728Y-7769D02*
X15271Y-7769D01*
X15499Y-8073D02*
X15499Y-7464D01*
G54D13*
X49364Y-42510D02*
X49364Y-42929D01*
X49252Y-42270D02*
X49139Y-42719D01*
X49432Y-42719D01*
X49702Y-42300D02*
X49747Y-42300D01*
X49792Y-42330D01*
X49814Y-42360D01*
X49837Y-42420D01*
X49859Y-42540D01*
X49859Y-42689D01*
X49837Y-42809D01*
X49814Y-42869D01*
X49792Y-42899D01*
X49747Y-42929D01*
X49702Y-42929D01*
X49657Y-42899D01*
X49634Y-42869D01*
X49612Y-42809D01*
X49589Y-42689D01*
X49589Y-42540D01*
X49612Y-42420D01*
X49634Y-42360D01*
X49657Y-42330D01*
X49702Y-42300D01*
X50062Y-42689D02*
X50422Y-42689D01*
X50849Y-42899D02*
X50804Y-42929D01*
X50714Y-42929D01*
X50669Y-42899D01*
X50647Y-42869D01*
X50624Y-42809D01*
X50624Y-42630D01*
X50647Y-42570D01*
X50669Y-42540D01*
X50714Y-42510D01*
X50804Y-42510D01*
X50849Y-42540D01*
X51052Y-42929D02*
X51052Y-42300D01*
X51254Y-42929D02*
X51254Y-42600D01*
X51232Y-42540D01*
X51187Y-42510D01*
X51119Y-42510D01*
X51074Y-42540D01*
X51052Y-42570D01*
X51682Y-42929D02*
X51682Y-42600D01*
X51659Y-42540D01*
X51614Y-42510D01*
X51524Y-42510D01*
X51479Y-42540D01*
X51682Y-42899D02*
X51637Y-42929D01*
X51524Y-42929D01*
X51479Y-42899D01*
X51457Y-42839D01*
X51457Y-42779D01*
X51479Y-42719D01*
X51524Y-42689D01*
X51637Y-42689D01*
X51682Y-42660D01*
X51907Y-42510D02*
X51907Y-42929D01*
X51907Y-42570D02*
X51929Y-42540D01*
X51974Y-42510D01*
X52042Y-42510D01*
X52087Y-42540D01*
X52109Y-42600D01*
X52109Y-42929D01*
X52334Y-42510D02*
X52334Y-42929D01*
X52334Y-42570D02*
X52357Y-42540D01*
X52402Y-42510D01*
X52469Y-42510D01*
X52514Y-42540D01*
X52537Y-42600D01*
X52537Y-42929D01*
X52942Y-42899D02*
X52897Y-42929D01*
X52807Y-42929D01*
X52762Y-42899D01*
X52739Y-42839D01*
X52739Y-42600D01*
X52762Y-42540D01*
X52807Y-42510D01*
X52897Y-42510D01*
X52942Y-42540D01*
X52964Y-42600D01*
X52964Y-42660D01*
X52739Y-42719D01*
X53234Y-42929D02*
X53189Y-42899D01*
X53166Y-42839D01*
X53166Y-42300D01*
X53774Y-42929D02*
X53774Y-42300D01*
X53774Y-42600D02*
X54044Y-42600D01*
X54044Y-42929D02*
X54044Y-42300D01*
X54201Y-42300D02*
X54359Y-42929D01*
X54516Y-42300D01*
X55011Y-42899D02*
X55079Y-42929D01*
X55191Y-42929D01*
X55236Y-42899D01*
X55259Y-42869D01*
X55281Y-42809D01*
X55281Y-42749D01*
X55259Y-42689D01*
X55236Y-42660D01*
X55191Y-42630D01*
X55101Y-42600D01*
X55056Y-42570D01*
X55034Y-42540D01*
X55011Y-42480D01*
X55011Y-42420D01*
X55034Y-42360D01*
X55056Y-42330D01*
X55101Y-42300D01*
X55214Y-42300D01*
X55281Y-42330D01*
X55439Y-42510D02*
X55529Y-42929D01*
X55619Y-42630D01*
X55709Y-42929D01*
X55799Y-42510D01*
X55979Y-42929D02*
X55979Y-42510D01*
X55979Y-42300D02*
X55956Y-42330D01*
X55979Y-42360D01*
X56001Y-42330D01*
X55979Y-42300D01*
X55979Y-42360D01*
X56136Y-42510D02*
X56316Y-42510D01*
X56204Y-42300D02*
X56204Y-42839D01*
X56226Y-42899D01*
X56271Y-42929D01*
X56316Y-42929D01*
X56676Y-42899D02*
X56631Y-42929D01*
X56541Y-42929D01*
X56496Y-42899D01*
X56474Y-42869D01*
X56451Y-42809D01*
X56451Y-42630D01*
X56474Y-42570D01*
X56496Y-42540D01*
X56541Y-42510D01*
X56631Y-42510D01*
X56676Y-42540D01*
X56879Y-42929D02*
X56879Y-42300D01*
X57081Y-42929D02*
X57081Y-42600D01*
X57058Y-42540D01*
X57014Y-42510D01*
X56946Y-42510D01*
X56901Y-42540D01*
X56879Y-42570D01*
X57306Y-42929D02*
X57306Y-42510D01*
X57306Y-42300D02*
X57283Y-42330D01*
X57306Y-42360D01*
X57328Y-42330D01*
X57306Y-42300D01*
X57306Y-42360D01*
X57531Y-42510D02*
X57531Y-42929D01*
X57531Y-42570D02*
X57553Y-42540D01*
X57598Y-42510D01*
X57666Y-42510D01*
X57711Y-42540D01*
X57733Y-42600D01*
X57733Y-42929D01*
X58161Y-42510D02*
X58161Y-43019D01*
X58138Y-43079D01*
X58116Y-43109D01*
X58071Y-43139D01*
X58003Y-43139D01*
X57958Y-43109D01*
X58161Y-42899D02*
X58116Y-42929D01*
X58026Y-42929D01*
X57981Y-42899D01*
X57958Y-42869D01*
X57936Y-42809D01*
X57936Y-42630D01*
X57958Y-42570D01*
X57981Y-42540D01*
X58026Y-42510D01*
X58116Y-42510D01*
X58161Y-42540D01*
X58903Y-42600D02*
X58971Y-42630D01*
X58993Y-42660D01*
X59016Y-42719D01*
X59016Y-42809D01*
X58993Y-42869D01*
X58971Y-42899D01*
X58926Y-42929D01*
X58746Y-42929D01*
X58746Y-42300D01*
X58903Y-42300D01*
X58948Y-42330D01*
X58971Y-42360D01*
X58993Y-42420D01*
X58993Y-42480D01*
X58971Y-42540D01*
X58948Y-42570D01*
X58903Y-42600D01*
X58746Y-42600D01*
X59286Y-42929D02*
X59241Y-42899D01*
X59218Y-42869D01*
X59196Y-42809D01*
X59196Y-42630D01*
X59218Y-42570D01*
X59241Y-42540D01*
X59286Y-42510D01*
X59353Y-42510D01*
X59398Y-42540D01*
X59421Y-42570D01*
X59443Y-42630D01*
X59443Y-42809D01*
X59421Y-42869D01*
X59398Y-42899D01*
X59353Y-42929D01*
X59286Y-42929D01*
X59848Y-42929D02*
X59848Y-42600D01*
X59826Y-42540D01*
X59781Y-42510D01*
X59691Y-42510D01*
X59646Y-42540D01*
X59848Y-42899D02*
X59803Y-42929D01*
X59691Y-42929D01*
X59646Y-42899D01*
X59623Y-42839D01*
X59623Y-42779D01*
X59646Y-42719D01*
X59691Y-42689D01*
X59803Y-42689D01*
X59848Y-42660D01*
X60073Y-42929D02*
X60073Y-42510D01*
X60073Y-42630D02*
X60096Y-42570D01*
X60118Y-42540D01*
X60163Y-42510D01*
X60208Y-42510D01*
X60568Y-42929D02*
X60568Y-42300D01*
X60568Y-42899D02*
X60523Y-42929D01*
X60433Y-42929D01*
X60388Y-42899D01*
X60366Y-42869D01*
X60343Y-42809D01*
X60343Y-42630D01*
X60366Y-42570D01*
X60388Y-42540D01*
X60433Y-42510D01*
X60523Y-42510D01*
X60568Y-42540D01*
X61108Y-42510D02*
X61220Y-42929D01*
X61333Y-42510D01*
X61490Y-42360D02*
X61513Y-42330D01*
X61558Y-42300D01*
X61670Y-42300D01*
X61715Y-42330D01*
X61738Y-42360D01*
X61760Y-42420D01*
X61760Y-42480D01*
X61738Y-42570D01*
X61468Y-42929D01*
X61760Y-42929D01*
X61963Y-42869D02*
X61985Y-42899D01*
X61963Y-42929D01*
X61940Y-42899D01*
X61963Y-42869D01*
X61963Y-42929D01*
X62278Y-42300D02*
X62323Y-42300D01*
X62368Y-42330D01*
X62390Y-42360D01*
X62413Y-42420D01*
X62435Y-42540D01*
X62435Y-42689D01*
X62413Y-42809D01*
X62390Y-42869D01*
X62368Y-42899D01*
X62323Y-42929D01*
X62278Y-42929D01*
X62233Y-42899D01*
X62210Y-42869D01*
X62188Y-42809D01*
X62165Y-42689D01*
X62165Y-42540D01*
X62188Y-42420D01*
X62210Y-42360D01*
X62233Y-42330D01*
X62278Y-42300D01*
X49162Y-43910D02*
X49162Y-43280D01*
X49364Y-43910D02*
X49364Y-43580D01*
X49342Y-43520D01*
X49297Y-43490D01*
X49229Y-43490D01*
X49184Y-43520D01*
X49162Y-43550D01*
X49522Y-43490D02*
X49702Y-43490D01*
X49589Y-43280D02*
X49589Y-43820D01*
X49612Y-43880D01*
X49657Y-43910D01*
X49702Y-43910D01*
X49792Y-43490D02*
X49972Y-43490D01*
X49859Y-43280D02*
X49859Y-43820D01*
X49882Y-43880D01*
X49927Y-43910D01*
X49972Y-43910D01*
X50129Y-43490D02*
X50129Y-44120D01*
X50129Y-43520D02*
X50174Y-43490D01*
X50264Y-43490D01*
X50309Y-43520D01*
X50332Y-43550D01*
X50354Y-43610D01*
X50354Y-43790D01*
X50332Y-43850D01*
X50309Y-43880D01*
X50264Y-43910D01*
X50174Y-43910D01*
X50129Y-43880D01*
X50557Y-43850D02*
X50579Y-43880D01*
X50557Y-43910D01*
X50534Y-43880D01*
X50557Y-43850D01*
X50557Y-43910D01*
X50557Y-43520D02*
X50579Y-43550D01*
X50557Y-43580D01*
X50534Y-43550D01*
X50557Y-43520D01*
X50557Y-43580D01*
X51119Y-43250D02*
X50714Y-44060D01*
X51614Y-43250D02*
X51209Y-44060D01*
X51772Y-43910D02*
X51772Y-43490D01*
X51772Y-43550D02*
X51794Y-43520D01*
X51839Y-43490D01*
X51907Y-43490D01*
X51952Y-43520D01*
X51974Y-43580D01*
X51974Y-43910D01*
X51974Y-43580D02*
X51997Y-43520D01*
X52042Y-43490D01*
X52109Y-43490D01*
X52154Y-43520D01*
X52177Y-43580D01*
X52177Y-43910D01*
X52402Y-43910D02*
X52402Y-43490D01*
X52402Y-43280D02*
X52379Y-43310D01*
X52402Y-43340D01*
X52424Y-43310D01*
X52402Y-43280D01*
X52402Y-43340D01*
X52829Y-43880D02*
X52784Y-43910D01*
X52694Y-43910D01*
X52649Y-43880D01*
X52627Y-43850D01*
X52604Y-43790D01*
X52604Y-43610D01*
X52627Y-43550D01*
X52649Y-43520D01*
X52694Y-43490D01*
X52784Y-43490D01*
X52829Y-43520D01*
X53032Y-43910D02*
X53032Y-43490D01*
X53032Y-43610D02*
X53054Y-43550D01*
X53076Y-43520D01*
X53121Y-43490D01*
X53166Y-43490D01*
X53391Y-43910D02*
X53346Y-43880D01*
X53324Y-43850D01*
X53301Y-43790D01*
X53301Y-43610D01*
X53324Y-43550D01*
X53346Y-43520D01*
X53391Y-43490D01*
X53459Y-43490D01*
X53504Y-43520D01*
X53526Y-43550D01*
X53549Y-43610D01*
X53549Y-43790D01*
X53526Y-43850D01*
X53504Y-43880D01*
X53459Y-43910D01*
X53391Y-43910D01*
X53684Y-43490D02*
X53864Y-43490D01*
X53751Y-43910D02*
X53751Y-43370D01*
X53774Y-43310D01*
X53819Y-43280D01*
X53864Y-43280D01*
X54089Y-43910D02*
X54044Y-43880D01*
X54021Y-43820D01*
X54021Y-43280D01*
X54471Y-43490D02*
X54471Y-43910D01*
X54269Y-43490D02*
X54269Y-43820D01*
X54291Y-43880D01*
X54336Y-43910D01*
X54404Y-43910D01*
X54449Y-43880D01*
X54471Y-43850D01*
X54696Y-43910D02*
X54696Y-43490D01*
X54696Y-43280D02*
X54674Y-43310D01*
X54696Y-43340D01*
X54719Y-43310D01*
X54696Y-43280D01*
X54696Y-43340D01*
X55124Y-43910D02*
X55124Y-43280D01*
X55124Y-43880D02*
X55079Y-43910D01*
X54989Y-43910D01*
X54944Y-43880D01*
X54921Y-43850D01*
X54899Y-43790D01*
X54899Y-43610D01*
X54921Y-43550D01*
X54944Y-43520D01*
X54989Y-43490D01*
X55079Y-43490D01*
X55124Y-43520D01*
X55349Y-43910D02*
X55349Y-43490D01*
X55349Y-43280D02*
X55326Y-43310D01*
X55349Y-43340D01*
X55371Y-43310D01*
X55349Y-43280D01*
X55349Y-43340D01*
X55776Y-43880D02*
X55731Y-43910D01*
X55641Y-43910D01*
X55596Y-43880D01*
X55574Y-43850D01*
X55551Y-43790D01*
X55551Y-43610D01*
X55574Y-43550D01*
X55596Y-43520D01*
X55641Y-43490D01*
X55731Y-43490D01*
X55776Y-43520D01*
X55956Y-43880D02*
X56001Y-43910D01*
X56091Y-43910D01*
X56136Y-43880D01*
X56159Y-43820D01*
X56159Y-43790D01*
X56136Y-43730D01*
X56091Y-43700D01*
X56024Y-43700D01*
X55979Y-43670D01*
X55956Y-43610D01*
X55956Y-43580D01*
X55979Y-43520D01*
X56024Y-43490D01*
X56091Y-43490D01*
X56136Y-43520D01*
X56361Y-43850D02*
X56384Y-43880D01*
X56361Y-43910D01*
X56339Y-43880D01*
X56361Y-43850D01*
X56361Y-43910D01*
X56789Y-43490D02*
X56789Y-43910D01*
X56586Y-43490D02*
X56586Y-43820D01*
X56609Y-43880D01*
X56654Y-43910D01*
X56721Y-43910D01*
X56766Y-43880D01*
X56789Y-43850D01*
X56946Y-43490D02*
X57126Y-43490D01*
X57014Y-43280D02*
X57014Y-43820D01*
X57036Y-43880D01*
X57081Y-43910D01*
X57126Y-43910D01*
X57351Y-43910D02*
X57306Y-43880D01*
X57283Y-43850D01*
X57261Y-43790D01*
X57261Y-43610D01*
X57283Y-43550D01*
X57306Y-43520D01*
X57351Y-43490D01*
X57418Y-43490D01*
X57463Y-43520D01*
X57486Y-43550D01*
X57508Y-43610D01*
X57508Y-43790D01*
X57486Y-43850D01*
X57463Y-43880D01*
X57418Y-43910D01*
X57351Y-43910D01*
X57711Y-43910D02*
X57711Y-43490D01*
X57711Y-43610D02*
X57733Y-43550D01*
X57756Y-43520D01*
X57801Y-43490D01*
X57846Y-43490D01*
X58071Y-43910D02*
X58026Y-43880D01*
X58003Y-43850D01*
X57981Y-43790D01*
X57981Y-43610D01*
X58003Y-43550D01*
X58026Y-43520D01*
X58071Y-43490D01*
X58138Y-43490D01*
X58183Y-43520D01*
X58206Y-43550D01*
X58228Y-43610D01*
X58228Y-43790D01*
X58206Y-43850D01*
X58183Y-43880D01*
X58138Y-43910D01*
X58071Y-43910D01*
X58431Y-43490D02*
X58431Y-43910D01*
X58431Y-43550D02*
X58453Y-43520D01*
X58498Y-43490D01*
X58566Y-43490D01*
X58611Y-43520D01*
X58633Y-43580D01*
X58633Y-43910D01*
X58791Y-43490D02*
X58971Y-43490D01*
X58858Y-43280D02*
X58858Y-43820D01*
X58881Y-43880D01*
X58926Y-43910D01*
X58971Y-43910D01*
X59196Y-43910D02*
X59151Y-43880D01*
X59128Y-43850D01*
X59106Y-43790D01*
X59106Y-43610D01*
X59128Y-43550D01*
X59151Y-43520D01*
X59196Y-43490D01*
X59263Y-43490D01*
X59308Y-43520D01*
X59331Y-43550D01*
X59353Y-43610D01*
X59353Y-43790D01*
X59331Y-43850D01*
X59308Y-43880D01*
X59263Y-43910D01*
X59196Y-43910D01*
X59556Y-43850D02*
X59578Y-43880D01*
X59556Y-43910D01*
X59533Y-43880D01*
X59556Y-43850D01*
X59556Y-43910D01*
X59983Y-43880D02*
X59938Y-43910D01*
X59848Y-43910D01*
X59803Y-43880D01*
X59781Y-43850D01*
X59758Y-43790D01*
X59758Y-43610D01*
X59781Y-43550D01*
X59803Y-43520D01*
X59848Y-43490D01*
X59938Y-43490D01*
X59983Y-43520D01*
X60388Y-43910D02*
X60388Y-43580D01*
X60366Y-43520D01*
X60321Y-43490D01*
X60231Y-43490D01*
X60186Y-43520D01*
X60388Y-43880D02*
X60343Y-43910D01*
X60231Y-43910D01*
X60186Y-43880D01*
X60163Y-43820D01*
X60163Y-43760D01*
X60186Y-43700D01*
X60231Y-43670D01*
X60343Y-43670D01*
X60388Y-43640D01*
X60951Y-43250D02*
X60546Y-44060D01*
X61310Y-43910D02*
X61310Y-43280D01*
X61310Y-43880D02*
X61265Y-43910D01*
X61175Y-43910D01*
X61130Y-43880D01*
X61108Y-43850D01*
X61085Y-43790D01*
X61085Y-43610D01*
X61108Y-43550D01*
X61130Y-43520D01*
X61175Y-43490D01*
X61265Y-43490D01*
X61310Y-43520D01*
X61535Y-43910D02*
X61535Y-43490D01*
X61535Y-43610D02*
X61558Y-43550D01*
X61580Y-43520D01*
X61625Y-43490D01*
X61670Y-43490D01*
X61895Y-43910D02*
X61850Y-43880D01*
X61828Y-43850D01*
X61805Y-43790D01*
X61805Y-43610D01*
X61828Y-43550D01*
X61850Y-43520D01*
X61895Y-43490D01*
X61963Y-43490D01*
X62008Y-43520D01*
X62030Y-43550D01*
X62053Y-43610D01*
X62053Y-43790D01*
X62030Y-43850D01*
X62008Y-43880D01*
X61963Y-43910D01*
X61895Y-43910D01*
X62255Y-43490D02*
X62255Y-44120D01*
X62255Y-43520D02*
X62300Y-43490D01*
X62390Y-43490D01*
X62435Y-43520D01*
X62458Y-43550D01*
X62480Y-43610D01*
X62480Y-43790D01*
X62458Y-43850D01*
X62435Y-43880D01*
X62390Y-43910D01*
X62300Y-43910D01*
X62255Y-43880D01*
X62683Y-43910D02*
X62683Y-43280D01*
X62683Y-43520D02*
X62728Y-43490D01*
X62818Y-43490D01*
X62863Y-43520D01*
X62885Y-43550D01*
X62908Y-43610D01*
X62908Y-43790D01*
X62885Y-43850D01*
X62863Y-43880D01*
X62818Y-43910D01*
X62728Y-43910D01*
X62683Y-43880D01*
X63178Y-43910D02*
X63133Y-43880D01*
X63110Y-43850D01*
X63088Y-43790D01*
X63088Y-43610D01*
X63110Y-43550D01*
X63133Y-43520D01*
X63178Y-43490D01*
X63245Y-43490D01*
X63290Y-43520D01*
X63313Y-43550D01*
X63335Y-43610D01*
X63335Y-43790D01*
X63313Y-43850D01*
X63290Y-43880D01*
X63245Y-43910D01*
X63178Y-43910D01*
X63470Y-43490D02*
X63650Y-43490D01*
X63538Y-43280D02*
X63538Y-43820D01*
X63560Y-43880D01*
X63605Y-43910D01*
X63650Y-43910D01*
G54D14*
X13100Y-36700D02*
X13100Y-30700D01*
X13100Y-30700D02*
X7100Y-30700D01*
X7100Y-30700D02*
X7100Y-36700D01*
X7100Y-36700D02*
X13100Y-36700D01*
G54D15*
X20200Y-39400D02*
X20200Y-40300D01*
X20200Y-40300D02*
X20850Y-40300D01*
X21550Y-39400D02*
X22200Y-39400D01*
X22200Y-39400D02*
X22200Y-40300D01*
X22200Y-40300D02*
X21550Y-40300D01*
X20850Y-39400D02*
X20200Y-39400D01*
X38700Y-38800D02*
X38700Y-37900D01*
X38700Y-37900D02*
X38050Y-37900D01*
X37350Y-38800D02*
X36700Y-38800D01*
X36700Y-38800D02*
X36700Y-37900D01*
X36700Y-37900D02*
X37350Y-37900D01*
X38050Y-38800D02*
X38700Y-38800D01*
X20200Y-38400D02*
X20200Y-39300D01*
X20200Y-39300D02*
X20850Y-39300D01*
X21550Y-38400D02*
X22200Y-38400D01*
X22200Y-38400D02*
X22200Y-39300D01*
X22200Y-39300D02*
X21550Y-39300D01*
X20850Y-38400D02*
X20200Y-38400D01*
X20200Y-40400D02*
X20200Y-41300D01*
X20200Y-41300D02*
X20850Y-41300D01*
X21550Y-40400D02*
X22200Y-40400D01*
X22200Y-40400D02*
X22200Y-41300D01*
X22200Y-41300D02*
X21550Y-41300D01*
X20850Y-40400D02*
X20200Y-40400D01*
X52700Y-40800D02*
X52700Y-39900D01*
X52700Y-39900D02*
X52050Y-39900D01*
X51350Y-40800D02*
X50700Y-40800D01*
X50700Y-40800D02*
X50700Y-39900D01*
X50700Y-39900D02*
X51350Y-39900D01*
X52050Y-40800D02*
X52700Y-40800D01*
X38700Y-31800D02*
X38700Y-30900D01*
X38700Y-30900D02*
X38050Y-30900D01*
X37350Y-31800D02*
X36700Y-31800D01*
X36700Y-31800D02*
X36700Y-30900D01*
X36700Y-30900D02*
X37350Y-30900D01*
X38050Y-31800D02*
X38700Y-31800D01*
X45700Y-31800D02*
X45700Y-30900D01*
X45700Y-30900D02*
X45050Y-30900D01*
X44350Y-31800D02*
X43700Y-31800D01*
X43700Y-31800D02*
X43700Y-30900D01*
X43700Y-30900D02*
X44350Y-30900D01*
X45050Y-31800D02*
X45700Y-31800D01*
X52700Y-33800D02*
X52700Y-32900D01*
X52700Y-32900D02*
X52050Y-32900D01*
X51350Y-33800D02*
X50700Y-33800D01*
X50700Y-33800D02*
X50700Y-32900D01*
X50700Y-32900D02*
X51350Y-32900D01*
X52050Y-33800D02*
X52700Y-33800D01*
X38700Y-40800D02*
X38700Y-39900D01*
X38700Y-39900D02*
X38050Y-39900D01*
X37350Y-40800D02*
X36700Y-40800D01*
X36700Y-40800D02*
X36700Y-39900D01*
X36700Y-39900D02*
X37350Y-39900D01*
X38050Y-40800D02*
X38700Y-40800D01*
X52700Y-38800D02*
X52700Y-37900D01*
X52700Y-37900D02*
X52050Y-37900D01*
X51350Y-38800D02*
X50700Y-38800D01*
X50700Y-38800D02*
X50700Y-37900D01*
X50700Y-37900D02*
X51350Y-37900D01*
X52050Y-38800D02*
X52700Y-38800D01*
X45700Y-38800D02*
X45700Y-37900D01*
X45700Y-37900D02*
X45050Y-37900D01*
X44350Y-38800D02*
X43700Y-38800D01*
X43700Y-38800D02*
X43700Y-37900D01*
X43700Y-37900D02*
X44350Y-37900D01*
X45050Y-38800D02*
X45700Y-38800D01*
X31700Y-40800D02*
X31700Y-39900D01*
X31700Y-39900D02*
X31050Y-39900D01*
X30350Y-40800D02*
X29700Y-40800D01*
X29700Y-40800D02*
X29700Y-39900D01*
X29700Y-39900D02*
X30350Y-39900D01*
X31050Y-40800D02*
X31700Y-40800D01*
X45700Y-40800D02*
X45700Y-39900D01*
X45700Y-39900D02*
X45050Y-39900D01*
X44350Y-40800D02*
X43700Y-40800D01*
X43700Y-40800D02*
X43700Y-39900D01*
X43700Y-39900D02*
X44350Y-39900D01*
X45050Y-40800D02*
X45700Y-40800D01*
X20200Y-24400D02*
X20200Y-25300D01*
X20200Y-25300D02*
X20850Y-25300D01*
X21550Y-24400D02*
X22200Y-24400D01*
X22200Y-24400D02*
X22200Y-25300D01*
X22200Y-25300D02*
X21550Y-25300D01*
X20850Y-24400D02*
X20200Y-24400D01*
X20200Y-25400D02*
X20200Y-26300D01*
X20200Y-26300D02*
X20850Y-26300D01*
X21550Y-25400D02*
X22200Y-25400D01*
X22200Y-25400D02*
X22200Y-26300D01*
X22200Y-26300D02*
X21550Y-26300D01*
X20850Y-25400D02*
X20200Y-25400D01*
X52700Y-26800D02*
X52700Y-25900D01*
X52700Y-25900D02*
X52050Y-25900D01*
X51350Y-26800D02*
X50700Y-26800D01*
X50700Y-26800D02*
X50700Y-25900D01*
X50700Y-25900D02*
X51350Y-25900D01*
X52050Y-26800D02*
X52700Y-26800D01*
X20200Y-23400D02*
X20200Y-24300D01*
X20200Y-24300D02*
X20850Y-24300D01*
X21550Y-23400D02*
X22200Y-23400D01*
X22200Y-23400D02*
X22200Y-24300D01*
X22200Y-24300D02*
X21550Y-24300D01*
X20850Y-23400D02*
X20200Y-23400D01*
X45700Y-17800D02*
X45700Y-16900D01*
X45700Y-16900D02*
X45050Y-16900D01*
X44350Y-17800D02*
X43700Y-17800D01*
X43700Y-17800D02*
X43700Y-16900D01*
X43700Y-16900D02*
X44350Y-16900D01*
X45050Y-17800D02*
X45700Y-17800D01*
X38700Y-17800D02*
X38700Y-16900D01*
X38700Y-16900D02*
X38050Y-16900D01*
X37350Y-17800D02*
X36700Y-17800D01*
X36700Y-17800D02*
X36700Y-16900D01*
X36700Y-16900D02*
X37350Y-16900D01*
X38050Y-17800D02*
X38700Y-17800D01*
X20200Y-16400D02*
X20200Y-17300D01*
X20200Y-17300D02*
X20850Y-17300D01*
X21550Y-16400D02*
X22200Y-16400D01*
X22200Y-16400D02*
X22200Y-17300D01*
X22200Y-17300D02*
X21550Y-17300D01*
X20850Y-16400D02*
X20200Y-16400D01*
X31700Y-17800D02*
X31700Y-16900D01*
X31700Y-16900D02*
X31050Y-16900D01*
X30350Y-17800D02*
X29700Y-17800D01*
X29700Y-17800D02*
X29700Y-16900D01*
X29700Y-16900D02*
X30350Y-16900D01*
X31050Y-17800D02*
X31700Y-17800D01*
X31700Y-12800D02*
X31700Y-11900D01*
X31700Y-11900D02*
X31050Y-11900D01*
X30350Y-12800D02*
X29700Y-12800D01*
X29700Y-12800D02*
X29700Y-11900D01*
X29700Y-11900D02*
X30350Y-11900D01*
X31050Y-12800D02*
X31700Y-12800D01*
X52700Y-10800D02*
X52700Y-9900D01*
X52700Y-9900D02*
X52050Y-9900D01*
X51350Y-10800D02*
X50700Y-10800D01*
X50700Y-10800D02*
X50700Y-9900D01*
X50700Y-9900D02*
X51350Y-9900D01*
X52050Y-10800D02*
X52700Y-10800D01*
X38700Y-12800D02*
X38700Y-11900D01*
X38700Y-11900D02*
X38050Y-11900D01*
X37350Y-12800D02*
X36700Y-12800D01*
X36700Y-12800D02*
X36700Y-11900D01*
X36700Y-11900D02*
X37350Y-11900D01*
X38050Y-12800D02*
X38700Y-12800D01*
X20200Y-12400D02*
X20200Y-13300D01*
X20200Y-13300D02*
X20850Y-13300D01*
X21550Y-12400D02*
X22200Y-12400D01*
X22200Y-12400D02*
X22200Y-13300D01*
X22200Y-13300D02*
X21550Y-13300D01*
X20850Y-12400D02*
X20200Y-12400D01*
X38700Y-19800D02*
X38700Y-18900D01*
X38700Y-18900D02*
X38050Y-18900D01*
X37350Y-19800D02*
X36700Y-19800D01*
X36700Y-19800D02*
X36700Y-18900D01*
X36700Y-18900D02*
X37350Y-18900D01*
X38050Y-19800D02*
X38700Y-19800D01*
X45700Y-19800D02*
X45700Y-18900D01*
X45700Y-18900D02*
X45050Y-18900D01*
X44350Y-19800D02*
X43700Y-19800D01*
X43700Y-19800D02*
X43700Y-18900D01*
X43700Y-18900D02*
X44350Y-18900D01*
X45050Y-19800D02*
X45700Y-19800D01*
X31700Y-24800D02*
X31700Y-23900D01*
X31700Y-23900D02*
X31050Y-23900D01*
X30350Y-24800D02*
X29700Y-24800D01*
X29700Y-24800D02*
X29700Y-23900D01*
X29700Y-23900D02*
X30350Y-23900D01*
X31050Y-24800D02*
X31700Y-24800D01*
X45700Y-24800D02*
X45700Y-23900D01*
X45700Y-23900D02*
X45050Y-23900D01*
X44350Y-24800D02*
X43700Y-24800D01*
X43700Y-24800D02*
X43700Y-23900D01*
X43700Y-23900D02*
X44350Y-23900D01*
X45050Y-24800D02*
X45700Y-24800D01*
X20200Y-19400D02*
X20200Y-20300D01*
X20200Y-20300D02*
X20850Y-20300D01*
X21550Y-19400D02*
X22200Y-19400D01*
X22200Y-19400D02*
X22200Y-20300D01*
X22200Y-20300D02*
X21550Y-20300D01*
X20850Y-19400D02*
X20200Y-19400D01*
X52700Y-19800D02*
X52700Y-18900D01*
X52700Y-18900D02*
X52050Y-18900D01*
X51350Y-19800D02*
X50700Y-19800D01*
X50700Y-19800D02*
X50700Y-18900D01*
X50700Y-18900D02*
X51350Y-18900D01*
X52050Y-19800D02*
X52700Y-19800D01*
X38700Y-24800D02*
X38700Y-23900D01*
X38700Y-23900D02*
X38050Y-23900D01*
X37350Y-24800D02*
X36700Y-24800D01*
X36700Y-24800D02*
X36700Y-23900D01*
X36700Y-23900D02*
X37350Y-23900D01*
X38050Y-24800D02*
X38700Y-24800D01*
X31700Y-19800D02*
X31700Y-18900D01*
X31700Y-18900D02*
X31050Y-18900D01*
X30350Y-19800D02*
X29700Y-19800D01*
X29700Y-19800D02*
X29700Y-18900D01*
X29700Y-18900D02*
X30350Y-18900D01*
X31050Y-19800D02*
X31700Y-19800D01*
X20200Y-17400D02*
X20200Y-18300D01*
X20200Y-18300D02*
X20850Y-18300D01*
X21550Y-17400D02*
X22200Y-17400D01*
X22200Y-17400D02*
X22200Y-18300D01*
X22200Y-18300D02*
X21550Y-18300D01*
X20850Y-17400D02*
X20200Y-17400D01*
X52700Y-17800D02*
X52700Y-16900D01*
X52700Y-16900D02*
X52050Y-16900D01*
X51350Y-17800D02*
X50700Y-17800D01*
X50700Y-17800D02*
X50700Y-16900D01*
X50700Y-16900D02*
X51350Y-16900D01*
X52050Y-17800D02*
X52700Y-17800D01*
X20200Y-18400D02*
X20200Y-19300D01*
X20200Y-19300D02*
X20850Y-19300D01*
X21550Y-18400D02*
X22200Y-18400D01*
X22200Y-18400D02*
X22200Y-19300D01*
X22200Y-19300D02*
X21550Y-19300D01*
X20850Y-18400D02*
X20200Y-18400D01*
X45700Y-12800D02*
X45700Y-11900D01*
X45700Y-11900D02*
X45050Y-11900D01*
X44350Y-12800D02*
X43700Y-12800D01*
X43700Y-12800D02*
X43700Y-11900D01*
X43700Y-11900D02*
X44350Y-11900D01*
X45050Y-12800D02*
X45700Y-12800D01*
X20200Y-10400D02*
X20200Y-11300D01*
X20200Y-11300D02*
X20850Y-11300D01*
X21550Y-10400D02*
X22200Y-10400D01*
X22200Y-10400D02*
X22200Y-11300D01*
X22200Y-11300D02*
X21550Y-11300D01*
X20850Y-10400D02*
X20200Y-10400D01*
X20200Y-11400D02*
X20200Y-12300D01*
X20200Y-12300D02*
X20850Y-12300D01*
X21550Y-11400D02*
X22200Y-11400D01*
X22200Y-11400D02*
X22200Y-12300D01*
X22200Y-12300D02*
X21550Y-12300D01*
X20850Y-11400D02*
X20200Y-11400D01*
X52700Y-12800D02*
X52700Y-11900D01*
X52700Y-11900D02*
X52050Y-11900D01*
X51350Y-12800D02*
X50700Y-12800D01*
X50700Y-12800D02*
X50700Y-11900D01*
X50700Y-11900D02*
X51350Y-11900D01*
X52050Y-12800D02*
X52700Y-12800D01*
X45700Y-10800D02*
X45700Y-9900D01*
X45700Y-9900D02*
X45050Y-9900D01*
X44350Y-10800D02*
X43700Y-10800D01*
X43700Y-10800D02*
X43700Y-9900D01*
X43700Y-9900D02*
X44350Y-9900D01*
X45050Y-10800D02*
X45700Y-10800D01*
X20200Y-9400D02*
X20200Y-10300D01*
X20200Y-10300D02*
X20850Y-10300D01*
X21550Y-9400D02*
X22200Y-9400D01*
X22200Y-9400D02*
X22200Y-10300D01*
X22200Y-10300D02*
X21550Y-10300D01*
X20850Y-9400D02*
X20200Y-9400D01*
X31700Y-10800D02*
X31700Y-9900D01*
X31700Y-9900D02*
X31050Y-9900D01*
X30350Y-10800D02*
X29700Y-10800D01*
X29700Y-10800D02*
X29700Y-9900D01*
X29700Y-9900D02*
X30350Y-9900D01*
X31050Y-10800D02*
X31700Y-10800D01*
X38700Y-10800D02*
X38700Y-9900D01*
X38700Y-9900D02*
X38050Y-9900D01*
X37350Y-10800D02*
X36700Y-10800D01*
X36700Y-10800D02*
X36700Y-9900D01*
X36700Y-9900D02*
X37350Y-9900D01*
X38050Y-10800D02*
X38700Y-10800D01*
X20200Y-33400D02*
X20200Y-34300D01*
X20200Y-34300D02*
X20850Y-34300D01*
X21550Y-33400D02*
X22200Y-33400D01*
X22200Y-33400D02*
X22200Y-34300D01*
X22200Y-34300D02*
X21550Y-34300D01*
X20850Y-33400D02*
X20200Y-33400D01*
X31700Y-33800D02*
X31700Y-32900D01*
X31700Y-32900D02*
X31050Y-32900D01*
X30350Y-33800D02*
X29700Y-33800D01*
X29700Y-33800D02*
X29700Y-32900D01*
X29700Y-32900D02*
X30350Y-32900D01*
X31050Y-33800D02*
X31700Y-33800D01*
X31700Y-38800D02*
X31700Y-37900D01*
X31700Y-37900D02*
X31050Y-37900D01*
X30350Y-38800D02*
X29700Y-38800D01*
X29700Y-38800D02*
X29700Y-37900D01*
X29700Y-37900D02*
X30350Y-37900D01*
X31050Y-38800D02*
X31700Y-38800D01*
X14100Y-16400D02*
X13200Y-16400D01*
X13200Y-16400D02*
X13200Y-17050D01*
X14100Y-17750D02*
X14100Y-18400D01*
X14100Y-18400D02*
X13200Y-18400D01*
X13200Y-18400D02*
X13200Y-17750D01*
X14100Y-17050D02*
X14100Y-16400D01*
X20200Y-26400D02*
X20200Y-27300D01*
X20200Y-27300D02*
X20850Y-27300D01*
X21550Y-26400D02*
X22200Y-26400D01*
X22200Y-26400D02*
X22200Y-27300D01*
X22200Y-27300D02*
X21550Y-27300D01*
X20850Y-26400D02*
X20200Y-26400D01*
X38700Y-26800D02*
X38700Y-25900D01*
X38700Y-25900D02*
X38050Y-25900D01*
X37350Y-26800D02*
X36700Y-26800D01*
X36700Y-26800D02*
X36700Y-25900D01*
X36700Y-25900D02*
X37350Y-25900D01*
X38050Y-26800D02*
X38700Y-26800D01*
X45700Y-33800D02*
X45700Y-32900D01*
X45700Y-32900D02*
X45050Y-32900D01*
X44350Y-33800D02*
X43700Y-33800D01*
X43700Y-33800D02*
X43700Y-32900D01*
X43700Y-32900D02*
X44350Y-32900D01*
X45050Y-33800D02*
X45700Y-33800D01*
X38700Y-33800D02*
X38700Y-32900D01*
X38700Y-32900D02*
X38050Y-32900D01*
X37350Y-33800D02*
X36700Y-33800D01*
X36700Y-33800D02*
X36700Y-32900D01*
X36700Y-32900D02*
X37350Y-32900D01*
X38050Y-33800D02*
X38700Y-33800D01*
X20200Y-37400D02*
X20200Y-38300D01*
X20200Y-38300D02*
X20850Y-38300D01*
X21550Y-37400D02*
X22200Y-37400D01*
X22200Y-37400D02*
X22200Y-38300D01*
X22200Y-38300D02*
X21550Y-38300D01*
X20850Y-37400D02*
X20200Y-37400D01*
X20200Y-32400D02*
X20200Y-33300D01*
X20200Y-33300D02*
X20850Y-33300D01*
X21550Y-32400D02*
X22200Y-32400D01*
X22200Y-32400D02*
X22200Y-33300D01*
X22200Y-33300D02*
X21550Y-33300D01*
X20850Y-32400D02*
X20200Y-32400D01*
X52700Y-24800D02*
X52700Y-23900D01*
X52700Y-23900D02*
X52050Y-23900D01*
X51350Y-24800D02*
X50700Y-24800D01*
X50700Y-24800D02*
X50700Y-23900D01*
X50700Y-23900D02*
X51350Y-23900D01*
X52050Y-24800D02*
X52700Y-24800D01*
X45700Y-26800D02*
X45700Y-25900D01*
X45700Y-25900D02*
X45050Y-25900D01*
X44350Y-26800D02*
X43700Y-26800D01*
X43700Y-26800D02*
X43700Y-25900D01*
X43700Y-25900D02*
X44350Y-25900D01*
X45050Y-26800D02*
X45700Y-26800D01*
X31700Y-26800D02*
X31700Y-25900D01*
X31700Y-25900D02*
X31050Y-25900D01*
X30350Y-26800D02*
X29700Y-26800D01*
X29700Y-26800D02*
X29700Y-25900D01*
X29700Y-25900D02*
X30350Y-25900D01*
X31050Y-26800D02*
X31700Y-26800D01*
X20200Y-31400D02*
X20200Y-32300D01*
X20200Y-32300D02*
X20850Y-32300D01*
X21550Y-31400D02*
X22200Y-31400D01*
X22200Y-31400D02*
X22200Y-32300D01*
X22200Y-32300D02*
X21550Y-32300D01*
X20850Y-31400D02*
X20200Y-31400D01*
X20200Y-30400D02*
X20200Y-31300D01*
X20200Y-31300D02*
X20850Y-31300D01*
X21550Y-30400D02*
X22200Y-30400D01*
X22200Y-30400D02*
X22200Y-31300D01*
X22200Y-31300D02*
X21550Y-31300D01*
X20850Y-30400D02*
X20200Y-30400D01*
X31700Y-31800D02*
X31700Y-30900D01*
X31700Y-30900D02*
X31050Y-30900D01*
X30350Y-31800D02*
X29700Y-31800D01*
X29700Y-31800D02*
X29700Y-30900D01*
X29700Y-30900D02*
X30350Y-30900D01*
X31050Y-31800D02*
X31700Y-31800D01*
X52700Y-31800D02*
X52700Y-30900D01*
X52700Y-30900D02*
X52050Y-30900D01*
X51350Y-31800D02*
X50700Y-31800D01*
X50700Y-31800D02*
X50700Y-30900D01*
X50700Y-30900D02*
X51350Y-30900D01*
X52050Y-31800D02*
X52700Y-31800D01*
X26000Y-22100D02*
X26900Y-22100D01*
X26900Y-22100D02*
X26900Y-22600D01*
X26900Y-22600D02*
X26000Y-22600D01*
X26000Y-22600D02*
X26000Y-22100D01*
X26000Y-36100D02*
X26900Y-36100D01*
X26900Y-36100D02*
X26900Y-36600D01*
X26900Y-36600D02*
X26000Y-36600D01*
X26000Y-36600D02*
X26000Y-36100D01*
X13707Y-8640D02*
X13707Y-9540D01*
X13707Y-9540D02*
X13207Y-9540D01*
X13207Y-9540D02*
X13207Y-8640D01*
X13207Y-8640D02*
X13707Y-8640D01*
X26000Y-29100D02*
X26900Y-29100D01*
X26900Y-29100D02*
X26900Y-29600D01*
X26900Y-29600D02*
X26000Y-29600D01*
X26000Y-29600D02*
X26000Y-29100D01*
X26000Y-15100D02*
X26900Y-15100D01*
X26900Y-15100D02*
X26900Y-15600D01*
X26900Y-15600D02*
X26000Y-15600D01*
X26000Y-15600D02*
X26000Y-15100D01*
X14607Y-8640D02*
X14607Y-9540D01*
X14607Y-9540D02*
X14107Y-9540D01*
X14107Y-9540D02*
X14107Y-8640D01*
X14107Y-8640D02*
X14607Y-8640D01*
G54D16*
X13611Y-19511D02*
X13611Y-19589D01*
X13611Y-19589D02*
X13689Y-19589D01*
X13689Y-19511D02*
X13689Y-19589D01*
X13611Y-19511D02*
X13689Y-19511D01*
X13375Y-19727D02*
X13375Y-19864D01*
X13375Y-19864D02*
X13473Y-19864D01*
X13473Y-19727D02*
X13473Y-19864D01*
X13375Y-19727D02*
X13473Y-19727D01*
X13375Y-19864D02*
X13375Y-19904D01*
X13375Y-19904D02*
X13846Y-19904D01*
X13846Y-19864D02*
X13846Y-19904D01*
X13375Y-19864D02*
X13846Y-19864D01*
X13866Y-19864D02*
X13866Y-19904D01*
X13866Y-19904D02*
X13925Y-19904D01*
X13925Y-19864D02*
X13925Y-19904D01*
X13866Y-19864D02*
X13925Y-19864D01*
X13375Y-19196D02*
X13375Y-19236D01*
X13375Y-19236D02*
X13846Y-19236D01*
X13846Y-19196D02*
X13846Y-19236D01*
X13375Y-19196D02*
X13846Y-19196D01*
X13866Y-19196D02*
X13866Y-19236D01*
X13866Y-19236D02*
X13925Y-19236D01*
X13925Y-19196D02*
X13925Y-19236D01*
X13866Y-19196D02*
X13925Y-19196D01*
X13375Y-19727D02*
X13375Y-19786D01*
X13375Y-19786D02*
X13473Y-19786D01*
X13473Y-19727D02*
X13473Y-19786D01*
X13375Y-19727D02*
X13473Y-19727D01*
G54D17*
X13355Y-20160D02*
X13355Y-18940D01*
X13355Y-18940D02*
X13945Y-18940D01*
X13945Y-18940D02*
X13945Y-20160D01*
X13945Y-20160D02*
X13355Y-20160D01*
X13453Y-19334D02*
G75*
G03X13454Y-19766I196J-215D01*
G74*
G01*
X13846Y-19334D02*
G75*
G03X13454Y-19333I-196J-215D01*
G74*
G01*
X13846Y-19765D02*
G75*
G03X13845Y-19333I-196J215D01*
G74*
G01*
X13453Y-19765D02*
G75*
G03X13845Y-19766I196J215D01*
G74*
G01*
G54D14*
X35450Y-30850D02*
X32950Y-30850D01*
X32950Y-30850D02*
X32950Y-34850D01*
X32950Y-34850D02*
X35450Y-34850D01*
X35450Y-34850D02*
X35450Y-30850D01*
G54D12*
X34700Y-30850D02*
X34700Y-31350D01*
X34700Y-31350D02*
X33700Y-31350D01*
X33700Y-31350D02*
X33700Y-30850D01*
G54D14*
X49450Y-37850D02*
X46950Y-37850D01*
X46950Y-37850D02*
X46950Y-41850D01*
X46950Y-41850D02*
X49450Y-41850D01*
X49450Y-41850D02*
X49450Y-37850D01*
G54D12*
X48700Y-37850D02*
X48700Y-38350D01*
X48700Y-38350D02*
X47700Y-38350D01*
X47700Y-38350D02*
X47700Y-37850D01*
G54D14*
X56450Y-23850D02*
X53950Y-23850D01*
X53950Y-23850D02*
X53950Y-27850D01*
X53950Y-27850D02*
X56450Y-27850D01*
X56450Y-27850D02*
X56450Y-23850D01*
G54D12*
X55700Y-23850D02*
X55700Y-24350D01*
X55700Y-24350D02*
X54700Y-24350D01*
X54700Y-24350D02*
X54700Y-23850D01*
G54D14*
X35450Y-16850D02*
X32950Y-16850D01*
X32950Y-16850D02*
X32950Y-20850D01*
X32950Y-20850D02*
X35450Y-20850D01*
X35450Y-20850D02*
X35450Y-16850D01*
G54D12*
X34700Y-16850D02*
X34700Y-17350D01*
X34700Y-17350D02*
X33700Y-17350D01*
X33700Y-17350D02*
X33700Y-16850D01*
G54D14*
X35450Y-23850D02*
X32950Y-23850D01*
X32950Y-23850D02*
X32950Y-27850D01*
X32950Y-27850D02*
X35450Y-27850D01*
X35450Y-27850D02*
X35450Y-23850D01*
G54D12*
X34700Y-23850D02*
X34700Y-24350D01*
X34700Y-24350D02*
X33700Y-24350D01*
X33700Y-24350D02*
X33700Y-23850D01*
G54D14*
X42450Y-37850D02*
X39950Y-37850D01*
X39950Y-37850D02*
X39950Y-41850D01*
X39950Y-41850D02*
X42450Y-41850D01*
X42450Y-41850D02*
X42450Y-37850D01*
G54D12*
X41700Y-37850D02*
X41700Y-38350D01*
X41700Y-38350D02*
X40700Y-38350D01*
X40700Y-38350D02*
X40700Y-37850D01*
G54D14*
X49450Y-23850D02*
X46950Y-23850D01*
X46950Y-23850D02*
X46950Y-27850D01*
X46950Y-27850D02*
X49450Y-27850D01*
X49450Y-27850D02*
X49450Y-23850D01*
G54D12*
X48700Y-23850D02*
X48700Y-24350D01*
X48700Y-24350D02*
X47700Y-24350D01*
X47700Y-24350D02*
X47700Y-23850D01*
G54D14*
X35450Y-37850D02*
X32950Y-37850D01*
X32950Y-37850D02*
X32950Y-41850D01*
X32950Y-41850D02*
X35450Y-41850D01*
X35450Y-41850D02*
X35450Y-37850D01*
G54D12*
X34700Y-37850D02*
X34700Y-38350D01*
X34700Y-38350D02*
X33700Y-38350D01*
X33700Y-38350D02*
X33700Y-37850D01*
G54D14*
X49450Y-16850D02*
X46950Y-16850D01*
X46950Y-16850D02*
X46950Y-20850D01*
X46950Y-20850D02*
X49450Y-20850D01*
X49450Y-20850D02*
X49450Y-16850D01*
G54D12*
X48700Y-16850D02*
X48700Y-17350D01*
X48700Y-17350D02*
X47700Y-17350D01*
X47700Y-17350D02*
X47700Y-16850D01*
G54D14*
X56450Y-16850D02*
X53950Y-16850D01*
X53950Y-16850D02*
X53950Y-20850D01*
X53950Y-20850D02*
X56450Y-20850D01*
X56450Y-20850D02*
X56450Y-16850D01*
G54D12*
X55700Y-16850D02*
X55700Y-17350D01*
X55700Y-17350D02*
X54700Y-17350D01*
X54700Y-17350D02*
X54700Y-16850D01*
G54D14*
X56450Y-9850D02*
X53950Y-9850D01*
X53950Y-9850D02*
X53950Y-13850D01*
X53950Y-13850D02*
X56450Y-13850D01*
X56450Y-13850D02*
X56450Y-9850D01*
G54D12*
X55700Y-9850D02*
X55700Y-10350D01*
X55700Y-10350D02*
X54700Y-10350D01*
X54700Y-10350D02*
X54700Y-9850D01*
G54D14*
X42450Y-16850D02*
X39950Y-16850D01*
X39950Y-16850D02*
X39950Y-20850D01*
X39950Y-20850D02*
X42450Y-20850D01*
X42450Y-20850D02*
X42450Y-16850D01*
G54D12*
X41700Y-16850D02*
X41700Y-17350D01*
X41700Y-17350D02*
X40700Y-17350D01*
X40700Y-17350D02*
X40700Y-16850D01*
G54D14*
X49450Y-30850D02*
X46950Y-30850D01*
X46950Y-30850D02*
X46950Y-34850D01*
X46950Y-34850D02*
X49450Y-34850D01*
X49450Y-34850D02*
X49450Y-30850D01*
G54D12*
X48700Y-30850D02*
X48700Y-31350D01*
X48700Y-31350D02*
X47700Y-31350D01*
X47700Y-31350D02*
X47700Y-30850D01*
G54D14*
X35450Y-9850D02*
X32950Y-9850D01*
X32950Y-9850D02*
X32950Y-13850D01*
X32950Y-13850D02*
X35450Y-13850D01*
X35450Y-13850D02*
X35450Y-9850D01*
G54D12*
X34700Y-9850D02*
X34700Y-10350D01*
X34700Y-10350D02*
X33700Y-10350D01*
X33700Y-10350D02*
X33700Y-9850D01*
G54D14*
X42450Y-30850D02*
X39950Y-30850D01*
X39950Y-30850D02*
X39950Y-34850D01*
X39950Y-34850D02*
X42450Y-34850D01*
X42450Y-34850D02*
X42450Y-30850D01*
G54D12*
X41700Y-30850D02*
X41700Y-31350D01*
X41700Y-31350D02*
X40700Y-31350D01*
X40700Y-31350D02*
X40700Y-30850D01*
G54D14*
X42450Y-9850D02*
X39950Y-9850D01*
X39950Y-9850D02*
X39950Y-13850D01*
X39950Y-13850D02*
X42450Y-13850D01*
X42450Y-13850D02*
X42450Y-9850D01*
G54D12*
X41700Y-9850D02*
X41700Y-10350D01*
X41700Y-10350D02*
X40700Y-10350D01*
X40700Y-10350D02*
X40700Y-9850D01*
G54D14*
X56450Y-30850D02*
X53950Y-30850D01*
X53950Y-30850D02*
X53950Y-34850D01*
X53950Y-34850D02*
X56450Y-34850D01*
X56450Y-34850D02*
X56450Y-30850D01*
G54D12*
X55700Y-30850D02*
X55700Y-31350D01*
X55700Y-31350D02*
X54700Y-31350D01*
X54700Y-31350D02*
X54700Y-30850D01*
G54D14*
X13100Y-43600D02*
X13100Y-37600D01*
X13100Y-37600D02*
X7100Y-37600D01*
X7100Y-37600D02*
X7100Y-43600D01*
X7100Y-43600D02*
X13100Y-43600D01*
G54D18*
X16100Y-8350D02*
X14950Y-8350D01*
X14950Y-8350D02*
X14950Y-9950D01*
X14950Y-9950D02*
X16100Y-9950D01*
X17100Y-8350D02*
X18250Y-8350D01*
X18250Y-8350D02*
X18250Y-9950D01*
X18250Y-9950D02*
X17100Y-9950D01*
G54D15*
X23250Y-13850D02*
X26150Y-13850D01*
X26150Y-8850D02*
X23250Y-8850D01*
X23250Y-13850D02*
X23250Y-8850D01*
X26150Y-8850D02*
X26150Y-13850D01*
X24950Y-8850D02*
X24950Y-9350D01*
X24950Y-9350D02*
X24450Y-9350D01*
X24450Y-9350D02*
X24450Y-8850D01*
G54D14*
X49450Y-9850D02*
X46950Y-9850D01*
X46950Y-9850D02*
X46950Y-13850D01*
X46950Y-13850D02*
X49450Y-13850D01*
X49450Y-13850D02*
X49450Y-9850D01*
G54D12*
X48700Y-9850D02*
X48700Y-10350D01*
X48700Y-10350D02*
X47700Y-10350D01*
X47700Y-10350D02*
X47700Y-9850D01*
G54D15*
X23250Y-20850D02*
X26150Y-20850D01*
X26150Y-15850D02*
X23250Y-15850D01*
X23250Y-20850D02*
X23250Y-15850D01*
X26150Y-15850D02*
X26150Y-20850D01*
X24950Y-15850D02*
X24950Y-16350D01*
X24950Y-16350D02*
X24450Y-16350D01*
X24450Y-16350D02*
X24450Y-15850D01*
X23250Y-27850D02*
X26150Y-27850D01*
X26150Y-22850D02*
X23250Y-22850D01*
X23250Y-27850D02*
X23250Y-22850D01*
X26150Y-22850D02*
X26150Y-27850D01*
X24950Y-22850D02*
X24950Y-23350D01*
X24950Y-23350D02*
X24450Y-23350D01*
X24450Y-23350D02*
X24450Y-22850D01*
G54D14*
X42450Y-23850D02*
X39950Y-23850D01*
X39950Y-23850D02*
X39950Y-27850D01*
X39950Y-27850D02*
X42450Y-27850D01*
X42450Y-27850D02*
X42450Y-23850D01*
G54D12*
X41700Y-23850D02*
X41700Y-24350D01*
X41700Y-24350D02*
X40700Y-24350D01*
X40700Y-24350D02*
X40700Y-23850D01*
G54D14*
X13444Y-24850D02*
X13444Y-26031D01*
X13444Y-26031D02*
X18956Y-26031D01*
X18956Y-26031D02*
X18956Y-23669D01*
X18956Y-23669D02*
X13444Y-23669D01*
X13444Y-23669D02*
X13444Y-24850D01*
G54D18*
X18715Y-24094D02*
G75*
G03X18715Y-24094I-200J0D01*
G74*
G01*
G54D15*
X23250Y-34850D02*
X26150Y-34850D01*
X26150Y-29850D02*
X23250Y-29850D01*
X23250Y-34850D02*
X23250Y-29850D01*
X26150Y-29850D02*
X26150Y-34850D01*
X24950Y-29850D02*
X24950Y-30350D01*
X24950Y-30350D02*
X24450Y-30350D01*
X24450Y-30350D02*
X24450Y-29850D01*
G54D14*
X56450Y-37850D02*
X53950Y-37850D01*
X53950Y-37850D02*
X53950Y-41850D01*
X53950Y-41850D02*
X56450Y-41850D01*
X56450Y-41850D02*
X56450Y-37850D01*
G54D12*
X55700Y-37850D02*
X55700Y-38350D01*
X55700Y-38350D02*
X54700Y-38350D01*
X54700Y-38350D02*
X54700Y-37850D01*
G54D15*
X23250Y-41850D02*
X26150Y-41850D01*
X26150Y-36850D02*
X23250Y-36850D01*
X23250Y-41850D02*
X23250Y-36850D01*
X26150Y-36850D02*
X26150Y-41850D01*
X24950Y-36850D02*
X24950Y-37350D01*
X24950Y-37350D02*
X24450Y-37350D01*
X24450Y-37350D02*
X24450Y-36850D01*
X26000Y-8100D02*
X26900Y-8100D01*
X26900Y-8100D02*
X26900Y-8600D01*
X26900Y-8600D02*
X26000Y-8600D01*
X26000Y-8600D02*
X26000Y-8100D01*
G54D19*
X17250Y-10350D02*
X17250Y-16350D01*
X15050Y-16350D02*
X15050Y-10350D01*
G54D15*
X15050Y-10350D02*
X17250Y-10350D01*
X15050Y-16350D02*
X17250Y-16350D01*
X15850Y-16350D02*
X15850Y-16150D01*
X15850Y-16150D02*
X16350Y-16150D01*
X16350Y-16150D02*
X16350Y-16350D01*
G54D12*
X12600Y-10150D02*
X10800Y-10150D01*
X10800Y-10150D02*
X10300Y-9650D01*
X10300Y-9650D02*
X10300Y-8850D01*
X10300Y-8850D02*
X10800Y-8350D01*
X10800Y-8350D02*
X12600Y-8350D01*
X12600Y-18750D02*
X10800Y-18750D01*
X10800Y-18750D02*
X10300Y-18250D01*
X10300Y-18250D02*
X10300Y-17350D01*
X10300Y-17350D02*
X10800Y-16850D01*
X10800Y-16850D02*
X12600Y-16850D01*
X12600Y-19550D02*
X9850Y-19550D01*
X9850Y-19550D02*
X5850Y-18300D01*
X5850Y-18300D02*
X5850Y-16800D01*
X12600Y-19550D02*
X12600Y-7550D01*
X12600Y-7550D02*
X9850Y-7550D01*
X9850Y-7550D02*
X5850Y-8800D01*
X5850Y-8800D02*
X5850Y-10300D01*
X5850Y-10300D02*
X7600Y-11050D01*
X7600Y-11050D02*
X7600Y-16050D01*
X5850Y-16800D02*
X7600Y-16050D01*
X7600Y-15400D02*
X8400Y-15000D01*
X8400Y-15000D02*
X7600Y-14600D01*
G54D20*
G36*
X14784Y-43700D02*
X14684Y-43700D01*
X14584Y-43700D01*
X14584Y-43467D01*
X14580Y-43339D01*
X14569Y-43262D01*
X14545Y-43219D01*
X14522Y-43202D01*
X14458Y-43187D01*
X14415Y-43225D01*
X14391Y-43319D01*
X14384Y-43473D01*
X14384Y-43700D01*
X14283Y-43700D01*
X14182Y-43700D01*
X14191Y-42841D01*
X14200Y-41983D01*
X14406Y-41975D01*
X14565Y-41979D01*
X14671Y-42011D01*
X14733Y-42081D01*
X14761Y-42197D01*
X14766Y-42309D01*
X14755Y-42473D01*
X14716Y-42582D01*
X14644Y-42644D01*
X14567Y-42659D01*
X14567Y-42316D01*
X14564Y-42217D01*
X14550Y-42168D01*
X14517Y-42151D01*
X14484Y-42150D01*
X14428Y-42158D01*
X14401Y-42198D01*
X14390Y-42278D01*
X14388Y-42403D01*
X14412Y-42472D01*
X14465Y-42495D01*
X14492Y-42494D01*
X14537Y-42479D01*
X14559Y-42441D01*
X14566Y-42362D01*
X14567Y-42316D01*
X14567Y-42659D01*
X14533Y-42666D01*
X14512Y-42666D01*
X14384Y-42666D01*
X14384Y-42846D01*
X14384Y-43026D01*
X14504Y-43023D01*
X14609Y-43036D01*
X14690Y-43095D01*
X14704Y-43111D01*
X14747Y-43170D01*
X14771Y-43236D01*
X14781Y-43332D01*
X14784Y-43451D01*
X14784Y-43700D01*
X14784Y-43700D01*
X14784Y-43700D01*
G37*
G36*
X15384Y-43700D02*
X15211Y-43700D01*
X15211Y-43491D01*
X15203Y-43449D01*
X15149Y-43434D01*
X15121Y-43433D01*
X15031Y-43448D01*
X14991Y-43488D01*
X15001Y-43535D01*
X15051Y-43561D01*
X15124Y-43556D01*
X15188Y-43526D01*
X15211Y-43491D01*
X15211Y-43700D01*
X15155Y-43700D01*
X15021Y-43695D01*
X14936Y-43680D01*
X14883Y-43649D01*
X14872Y-43639D01*
X14822Y-43540D01*
X14836Y-43431D01*
X14869Y-43374D01*
X14922Y-43323D01*
X15003Y-43302D01*
X15069Y-43300D01*
X15166Y-43293D01*
X15211Y-43271D01*
X15217Y-43248D01*
X15190Y-43193D01*
X15123Y-43172D01*
X15038Y-43191D01*
X14963Y-43204D01*
X14899Y-43184D01*
X14865Y-43141D01*
X14879Y-43088D01*
X14955Y-43041D01*
X15065Y-43020D01*
X15185Y-43026D01*
X15291Y-43056D01*
X15356Y-43107D01*
X15368Y-43159D01*
X15378Y-43258D01*
X15383Y-43386D01*
X15383Y-43425D01*
X15384Y-43700D01*
X15384Y-43700D01*
X15384Y-43700D01*
G37*
G36*
X16517Y-43700D02*
X16345Y-43700D01*
X16345Y-43360D01*
X16329Y-43264D01*
X16286Y-43198D01*
X16268Y-43188D01*
X16204Y-43194D01*
X16149Y-43247D01*
X16118Y-43330D01*
X16117Y-43354D01*
X16134Y-43462D01*
X16176Y-43532D01*
X16232Y-43557D01*
X16289Y-43532D01*
X16329Y-43462D01*
X16345Y-43360D01*
X16345Y-43700D01*
X16284Y-43700D01*
X16159Y-43697D01*
X16082Y-43687D01*
X16035Y-43663D01*
X16000Y-43621D01*
X15998Y-43617D01*
X15963Y-43531D01*
X15953Y-43406D01*
X15955Y-43337D01*
X15959Y-43226D01*
X15951Y-43172D01*
X15932Y-43168D01*
X15927Y-43171D01*
X15862Y-43195D01*
X15827Y-43194D01*
X15758Y-43195D01*
X15714Y-43231D01*
X15691Y-43312D01*
X15684Y-43448D01*
X15684Y-43468D01*
X15684Y-43700D01*
X15584Y-43700D01*
X15484Y-43700D01*
X15484Y-43370D01*
X15484Y-43041D01*
X15675Y-43024D01*
X15821Y-43021D01*
X15918Y-43040D01*
X15931Y-43047D01*
X15995Y-43071D01*
X16068Y-43052D01*
X16086Y-43043D01*
X16188Y-43016D01*
X16263Y-43031D01*
X16317Y-43048D01*
X16342Y-43035D01*
X16350Y-42978D01*
X16350Y-42915D01*
X16354Y-42823D01*
X16371Y-42780D01*
X16412Y-42767D01*
X16434Y-42766D01*
X16517Y-42766D01*
X16517Y-43233D01*
X16517Y-43700D01*
X16517Y-43700D01*
X16517Y-43700D01*
G37*
G36*
X18084Y-43700D02*
X17877Y-43700D01*
X17877Y-43491D01*
X17868Y-43446D01*
X17807Y-43433D01*
X17805Y-43433D01*
X17724Y-43450D01*
X17690Y-43493D01*
X17701Y-43535D01*
X17750Y-43561D01*
X17817Y-43552D01*
X17868Y-43513D01*
X17877Y-43491D01*
X17877Y-43700D01*
X17835Y-43700D01*
X17704Y-43697D01*
X17622Y-43687D01*
X17573Y-43666D01*
X17537Y-43628D01*
X17535Y-43625D01*
X17490Y-43517D01*
X17505Y-43421D01*
X17572Y-43346D01*
X17684Y-43305D01*
X17750Y-43300D01*
X17842Y-43292D01*
X17881Y-43265D01*
X17884Y-43248D01*
X17857Y-43194D01*
X17793Y-43171D01*
X17719Y-43191D01*
X17717Y-43192D01*
X17653Y-43209D01*
X17585Y-43177D01*
X17529Y-43143D01*
X17503Y-43138D01*
X17490Y-43173D01*
X17462Y-43256D01*
X17426Y-43372D01*
X17413Y-43416D01*
X17371Y-43548D01*
X17337Y-43629D01*
X17305Y-43672D01*
X17265Y-43690D01*
X17242Y-43693D01*
X17191Y-43694D01*
X17157Y-43671D01*
X17128Y-43610D01*
X17096Y-43510D01*
X17039Y-43316D01*
X16985Y-43500D01*
X16949Y-43606D01*
X16914Y-43664D01*
X16869Y-43689D01*
X16843Y-43693D01*
X16799Y-43694D01*
X16766Y-43677D01*
X16737Y-43629D01*
X16704Y-43540D01*
X16668Y-43427D01*
X16626Y-43293D01*
X16591Y-43180D01*
X16568Y-43105D01*
X16563Y-43091D01*
X16564Y-43049D01*
X16611Y-43034D01*
X16644Y-43033D01*
X16701Y-43038D01*
X16737Y-43063D01*
X16764Y-43124D01*
X16791Y-43225D01*
X16839Y-43416D01*
X16901Y-43225D01*
X16940Y-43115D01*
X16976Y-43056D01*
X17017Y-43034D01*
X17038Y-43033D01*
X17085Y-43044D01*
X17121Y-43086D01*
X17157Y-43173D01*
X17173Y-43222D01*
X17233Y-43411D01*
X17287Y-43230D01*
X17323Y-43124D01*
X17359Y-43067D01*
X17406Y-43043D01*
X17429Y-43039D01*
X17493Y-43042D01*
X17517Y-43062D01*
X17544Y-43074D01*
X17614Y-43055D01*
X17635Y-43047D01*
X17768Y-43015D01*
X17897Y-43026D01*
X18001Y-43075D01*
X18034Y-43111D01*
X18066Y-43197D01*
X18082Y-43345D01*
X18084Y-43440D01*
X18084Y-43700D01*
X18084Y-43700D01*
X18084Y-43700D01*
G37*
G36*
X18649Y-43091D02*
X18612Y-43141D01*
X18550Y-43178D01*
X18510Y-43186D01*
X18431Y-43196D01*
X18383Y-43229D01*
X18359Y-43296D01*
X18351Y-43411D01*
X18350Y-43468D01*
X18349Y-43589D01*
X18342Y-43659D01*
X18323Y-43690D01*
X18288Y-43699D01*
X18267Y-43700D01*
X18184Y-43700D01*
X18184Y-43365D01*
X18184Y-43031D01*
X18292Y-43030D01*
X18410Y-43028D01*
X18509Y-43026D01*
X18591Y-43031D01*
X18640Y-43045D01*
X18641Y-43046D01*
X18649Y-43091D01*
X18649Y-43091D01*
X18649Y-43091D01*
G37*
G36*
X19217Y-43433D02*
X19017Y-43433D01*
X19017Y-43253D01*
X18990Y-43202D01*
X18930Y-43181D01*
X18866Y-43201D01*
X18863Y-43203D01*
X18820Y-43256D01*
X18840Y-43289D01*
X18917Y-43300D01*
X18994Y-43286D01*
X19017Y-43253D01*
X19017Y-43433D01*
X19014Y-43433D01*
X18889Y-43440D01*
X18829Y-43462D01*
X18833Y-43498D01*
X18894Y-43547D01*
X18961Y-43563D01*
X19021Y-43538D01*
X19082Y-43511D01*
X19129Y-43532D01*
X19143Y-43545D01*
X19176Y-43606D01*
X19149Y-43654D01*
X19067Y-43687D01*
X18935Y-43699D01*
X18929Y-43700D01*
X18822Y-43696D01*
X18758Y-43679D01*
X18714Y-43638D01*
X18683Y-43591D01*
X18629Y-43453D01*
X18623Y-43311D01*
X18662Y-43182D01*
X18742Y-43082D01*
X18825Y-43035D01*
X18965Y-43019D01*
X19084Y-43060D01*
X19171Y-43150D01*
X19214Y-43279D01*
X19217Y-43324D01*
X19217Y-43433D01*
X19217Y-43433D01*
X19217Y-43433D01*
G37*
G36*
X14117Y-42304D02*
X14104Y-42433D01*
X14070Y-42543D01*
X14048Y-42578D01*
X13955Y-42647D01*
X13947Y-42648D01*
X13947Y-42295D01*
X13918Y-42197D01*
X13878Y-42155D01*
X13809Y-42141D01*
X13754Y-42183D01*
X13721Y-42272D01*
X13717Y-42331D01*
X13723Y-42432D01*
X13751Y-42482D01*
X13811Y-42499D01*
X13838Y-42500D01*
X13908Y-42475D01*
X13936Y-42420D01*
X13947Y-42295D01*
X13947Y-42648D01*
X13837Y-42671D01*
X13716Y-42651D01*
X13623Y-42589D01*
X13567Y-42487D01*
X13544Y-42354D01*
X13555Y-42214D01*
X13597Y-42094D01*
X13632Y-42048D01*
X13740Y-41983D01*
X13863Y-41973D01*
X13984Y-42015D01*
X14074Y-42097D01*
X14108Y-42183D01*
X14117Y-42304D01*
X14117Y-42304D01*
X14117Y-42304D01*
G37*
G36*
X15426Y-42400D02*
X15209Y-42400D01*
X15209Y-42191D01*
X15168Y-42159D01*
X15117Y-42150D01*
X15051Y-42165D01*
X15025Y-42191D01*
X15043Y-42223D01*
X15117Y-42233D01*
X15193Y-42222D01*
X15209Y-42191D01*
X15209Y-42400D01*
X15206Y-42400D01*
X15086Y-42402D01*
X15022Y-42412D01*
X15001Y-42432D01*
X15004Y-42447D01*
X15057Y-42505D01*
X15143Y-42512D01*
X15202Y-42493D01*
X15273Y-42472D01*
X15327Y-42497D01*
X15343Y-42512D01*
X15381Y-42559D01*
X15367Y-42593D01*
X15335Y-42618D01*
X15239Y-42656D01*
X15114Y-42665D01*
X14992Y-42644D01*
X14915Y-42605D01*
X14866Y-42546D01*
X14837Y-42456D01*
X14824Y-42356D01*
X14818Y-42245D01*
X14829Y-42174D01*
X14864Y-42116D01*
X14910Y-42068D01*
X15027Y-41989D01*
X15147Y-41970D01*
X15257Y-42005D01*
X15346Y-42091D01*
X15400Y-42222D01*
X15407Y-42258D01*
X15426Y-42400D01*
X15426Y-42400D01*
X15426Y-42400D01*
G37*
G36*
X16050Y-42398D02*
X16049Y-42531D01*
X16044Y-42610D01*
X16030Y-42650D01*
X16002Y-42664D01*
X15967Y-42666D01*
X15922Y-42662D01*
X15897Y-42640D01*
X15886Y-42585D01*
X15884Y-42481D01*
X15884Y-42456D01*
X15873Y-42296D01*
X15842Y-42190D01*
X15793Y-42141D01*
X15728Y-42153D01*
X15727Y-42153D01*
X15693Y-42189D01*
X15672Y-42255D01*
X15660Y-42367D01*
X15657Y-42428D01*
X15651Y-42552D01*
X15640Y-42623D01*
X15621Y-42656D01*
X15586Y-42666D01*
X15565Y-42666D01*
X15529Y-42664D01*
X15505Y-42650D01*
X15492Y-42612D01*
X15485Y-42538D01*
X15484Y-42416D01*
X15484Y-42320D01*
X15484Y-41973D01*
X15688Y-41973D01*
X15812Y-41977D01*
X15892Y-41995D01*
X15952Y-42033D01*
X15972Y-42051D01*
X16012Y-42099D01*
X16035Y-42155D01*
X16047Y-42237D01*
X16050Y-42363D01*
X16050Y-42398D01*
X16050Y-42398D01*
X16050Y-42398D01*
G37*
G36*
X16977Y-42444D02*
X16960Y-42540D01*
X16917Y-42600D01*
X16830Y-42646D01*
X16707Y-42665D01*
X16573Y-42656D01*
X16450Y-42618D01*
X16438Y-42612D01*
X16374Y-42574D01*
X16364Y-42544D01*
X16400Y-42501D01*
X16406Y-42495D01*
X16455Y-42455D01*
X16502Y-42452D01*
X16573Y-42483D01*
X16670Y-42514D01*
X16746Y-42505D01*
X16782Y-42460D01*
X16784Y-42446D01*
X16753Y-42410D01*
X16674Y-42400D01*
X16542Y-42376D01*
X16454Y-42309D01*
X16418Y-42203D01*
X16417Y-42183D01*
X16444Y-42072D01*
X16519Y-41999D01*
X16634Y-41968D01*
X16781Y-41984D01*
X16845Y-42003D01*
X16928Y-42049D01*
X16946Y-42104D01*
X16900Y-42166D01*
X16846Y-42191D01*
X16802Y-42168D01*
X16742Y-42143D01*
X16670Y-42140D01*
X16614Y-42158D01*
X16600Y-42182D01*
X16630Y-42208D01*
X16703Y-42231D01*
X16731Y-42236D01*
X16857Y-42279D01*
X16941Y-42353D01*
X16977Y-42444D01*
X16977Y-42444D01*
X16977Y-42444D01*
G37*
G36*
X17584Y-42326D02*
X17579Y-42447D01*
X17559Y-42524D01*
X17519Y-42581D01*
X17506Y-42594D01*
X17418Y-42642D01*
X17418Y-42341D01*
X17407Y-42245D01*
X17370Y-42173D01*
X17315Y-42140D01*
X17256Y-42155D01*
X17202Y-42225D01*
X17186Y-42334D01*
X17198Y-42420D01*
X17239Y-42478D01*
X17304Y-42501D01*
X17368Y-42484D01*
X17397Y-42447D01*
X17418Y-42341D01*
X17418Y-42642D01*
X17400Y-42653D01*
X17275Y-42668D01*
X17156Y-42637D01*
X17089Y-42589D01*
X17044Y-42524D01*
X17022Y-42438D01*
X17017Y-42321D01*
X17037Y-42155D01*
X17099Y-42041D01*
X17202Y-41979D01*
X17300Y-41966D01*
X17432Y-41991D01*
X17523Y-42067D01*
X17572Y-42195D01*
X17584Y-42326D01*
X17584Y-42326D01*
X17584Y-42326D01*
G37*
G36*
X18250Y-42666D02*
X18022Y-42666D01*
X17892Y-42663D01*
X17810Y-42649D01*
X17755Y-42620D01*
X17730Y-42596D01*
X17697Y-42546D01*
X17677Y-42476D01*
X17668Y-42369D01*
X17667Y-42254D01*
X17668Y-42121D01*
X17673Y-42039D01*
X17687Y-41997D01*
X17715Y-41979D01*
X17757Y-41972D01*
X17847Y-41962D01*
X17857Y-42222D01*
X17863Y-42353D01*
X17872Y-42430D01*
X17889Y-42469D01*
X17919Y-42482D01*
X17950Y-42483D01*
X17993Y-42479D01*
X18019Y-42458D01*
X18034Y-42407D01*
X18045Y-42310D01*
X18050Y-42233D01*
X18060Y-42106D01*
X18072Y-42030D01*
X18092Y-41992D01*
X18127Y-41977D01*
X18159Y-41972D01*
X18250Y-41962D01*
X18250Y-42314D01*
X18250Y-42666D01*
X18250Y-42666D01*
X18250Y-42666D01*
G37*
G36*
X18813Y-42039D02*
X18795Y-42090D01*
X18733Y-42136D01*
X18683Y-42141D01*
X18604Y-42145D01*
X18553Y-42187D01*
X18526Y-42275D01*
X18517Y-42418D01*
X18517Y-42437D01*
X18516Y-42558D01*
X18508Y-42626D01*
X18489Y-42657D01*
X18454Y-42666D01*
X18434Y-42666D01*
X18350Y-42666D01*
X18350Y-42320D01*
X18350Y-41973D01*
X18545Y-41973D01*
X18694Y-41979D01*
X18782Y-42001D01*
X18813Y-42039D01*
X18813Y-42039D01*
X18813Y-42039D01*
G37*
G36*
X19347Y-42093D02*
X19330Y-42133D01*
X19311Y-42153D01*
X19253Y-42188D01*
X19190Y-42169D01*
X19106Y-42136D01*
X19044Y-42150D01*
X19003Y-42185D01*
X18961Y-42263D01*
X18953Y-42361D01*
X18978Y-42444D01*
X18990Y-42460D01*
X19055Y-42492D01*
X19134Y-42497D01*
X19194Y-42473D01*
X19202Y-42464D01*
X19240Y-42454D01*
X19287Y-42486D01*
X19330Y-42533D01*
X19323Y-42572D01*
X19295Y-42605D01*
X19209Y-42655D01*
X19094Y-42669D01*
X18973Y-42648D01*
X18874Y-42592D01*
X18865Y-42584D01*
X18813Y-42516D01*
X18788Y-42431D01*
X18784Y-42332D01*
X18790Y-42219D01*
X18817Y-42141D01*
X18876Y-42068D01*
X18885Y-42059D01*
X18960Y-41994D01*
X19028Y-41971D01*
X19123Y-41976D01*
X19223Y-42000D01*
X19300Y-42037D01*
X19312Y-42047D01*
X19347Y-42093D01*
X19347Y-42093D01*
X19347Y-42093D01*
G37*
G36*
X19917Y-42400D02*
X19743Y-42400D01*
X19743Y-42196D01*
X19742Y-42191D01*
X19699Y-42149D01*
X19629Y-42142D01*
X19562Y-42170D01*
X19552Y-42181D01*
X19532Y-42215D01*
X19556Y-42230D01*
X19632Y-42233D01*
X19719Y-42224D01*
X19743Y-42196D01*
X19743Y-42400D01*
X19718Y-42400D01*
X19606Y-42403D01*
X19548Y-42414D01*
X19534Y-42437D01*
X19537Y-42447D01*
X19590Y-42505D01*
X19676Y-42512D01*
X19735Y-42493D01*
X19807Y-42472D01*
X19860Y-42497D01*
X19876Y-42512D01*
X19914Y-42559D01*
X19900Y-42593D01*
X19869Y-42618D01*
X19762Y-42661D01*
X19632Y-42666D01*
X19508Y-42634D01*
X19432Y-42584D01*
X19379Y-42516D01*
X19355Y-42431D01*
X19350Y-42332D01*
X19357Y-42218D01*
X19384Y-42140D01*
X19443Y-42068D01*
X19448Y-42064D01*
X19562Y-41987D01*
X19679Y-41969D01*
X19786Y-42003D01*
X19868Y-42085D01*
X19913Y-42207D01*
X19917Y-42265D01*
X19917Y-42400D01*
X19917Y-42400D01*
X19917Y-42400D01*
G37*
G36*
X19217Y-39863D02*
X19092Y-39885D01*
X18987Y-39905D01*
X18854Y-39930D01*
X18771Y-39946D01*
X18576Y-39984D01*
X18478Y-40229D01*
X18381Y-40473D01*
X18566Y-40744D01*
X18751Y-41014D01*
X18510Y-41257D01*
X18407Y-41358D01*
X18319Y-41439D01*
X18260Y-41488D01*
X18240Y-41500D01*
X18202Y-41482D01*
X18123Y-41433D01*
X18018Y-41364D01*
X17963Y-41326D01*
X17846Y-41245D01*
X17768Y-41197D01*
X17716Y-41177D01*
X17675Y-41181D01*
X17631Y-41203D01*
X17619Y-41209D01*
X17539Y-41249D01*
X17476Y-41266D01*
X17475Y-41266D01*
X17443Y-41235D01*
X17390Y-41144D01*
X17320Y-40997D01*
X17232Y-40797D01*
X17205Y-40732D01*
X17133Y-40556D01*
X17070Y-40401D01*
X17022Y-40278D01*
X16992Y-40196D01*
X16984Y-40168D01*
X17009Y-40134D01*
X17074Y-40083D01*
X17100Y-40066D01*
X17241Y-39943D01*
X17335Y-39786D01*
X17381Y-39608D01*
X17379Y-39422D01*
X17330Y-39242D01*
X17233Y-39080D01*
X17113Y-38967D01*
X16936Y-38876D01*
X16753Y-38843D01*
X16572Y-38864D01*
X16406Y-38933D01*
X16264Y-39045D01*
X16157Y-39194D01*
X16095Y-39375D01*
X16084Y-39499D01*
X16102Y-39682D01*
X16162Y-39833D01*
X16275Y-39972D01*
X16329Y-40022D01*
X16410Y-40097D01*
X16466Y-40155D01*
X16484Y-40181D01*
X16471Y-40232D01*
X16436Y-40327D01*
X16384Y-40455D01*
X16320Y-40604D01*
X16251Y-40762D01*
X16180Y-40917D01*
X16114Y-41057D01*
X16058Y-41169D01*
X16018Y-41243D01*
X15999Y-41266D01*
X15942Y-41251D01*
X15862Y-41213D01*
X15857Y-41209D01*
X15758Y-41153D01*
X15507Y-41326D01*
X15393Y-41402D01*
X15300Y-41462D01*
X15240Y-41495D01*
X15227Y-41500D01*
X15193Y-41477D01*
X15124Y-41417D01*
X15032Y-41331D01*
X14974Y-41274D01*
X14877Y-41172D01*
X14801Y-41084D01*
X14757Y-41022D01*
X14750Y-41004D01*
X14768Y-40959D01*
X14817Y-40875D01*
X14886Y-40767D01*
X14919Y-40720D01*
X15087Y-40478D01*
X14989Y-40231D01*
X14891Y-39984D01*
X14696Y-39946D01*
X14563Y-39920D01*
X14435Y-39896D01*
X14374Y-39885D01*
X14248Y-39863D01*
X14257Y-39507D01*
X14267Y-39151D01*
X14588Y-39088D01*
X14910Y-39026D01*
X14997Y-38821D01*
X15041Y-38709D01*
X15073Y-38618D01*
X15084Y-38570D01*
X15065Y-38523D01*
X15017Y-38439D01*
X14947Y-38334D01*
X14933Y-38314D01*
X14858Y-38206D01*
X14798Y-38113D01*
X14764Y-38054D01*
X14762Y-38049D01*
X14770Y-38001D01*
X14822Y-37924D01*
X14921Y-37813D01*
X14970Y-37763D01*
X15072Y-37665D01*
X15159Y-37587D01*
X15220Y-37541D01*
X15239Y-37533D01*
X15282Y-37551D01*
X15365Y-37599D01*
X15474Y-37669D01*
X15537Y-37711D01*
X15796Y-37890D01*
X15998Y-37808D01*
X16106Y-37763D01*
X16189Y-37724D01*
X16226Y-37702D01*
X16243Y-37660D01*
X16268Y-37569D01*
X16295Y-37443D01*
X16310Y-37363D01*
X16369Y-37050D01*
X16733Y-37050D01*
X17097Y-37050D01*
X17165Y-37381D01*
X17234Y-37712D01*
X17450Y-37801D01*
X17667Y-37890D01*
X17928Y-37711D01*
X18045Y-37634D01*
X18144Y-37574D01*
X18210Y-37539D01*
X18228Y-37534D01*
X18273Y-37558D01*
X18348Y-37617D01*
X18441Y-37700D01*
X18537Y-37793D01*
X18624Y-37884D01*
X18689Y-37958D01*
X18717Y-38005D01*
X18717Y-38007D01*
X18699Y-38055D01*
X18650Y-38141D01*
X18580Y-38250D01*
X18550Y-38293D01*
X18475Y-38404D01*
X18417Y-38496D01*
X18386Y-38554D01*
X18384Y-38564D01*
X18395Y-38610D01*
X18427Y-38699D01*
X18471Y-38811D01*
X18472Y-38814D01*
X18560Y-39029D01*
X18889Y-39089D01*
X19217Y-39148D01*
X19217Y-39506D01*
X19217Y-39863D01*
X19217Y-39863D01*
X19217Y-39863D01*
G37*
G36*
X22893Y-43117D02*
X22874Y-43355D01*
X22815Y-43567D01*
X22803Y-43595D01*
X22701Y-43763D01*
X22701Y-43045D01*
X22654Y-42792D01*
X22554Y-42570D01*
X22406Y-42386D01*
X22217Y-42246D01*
X21995Y-42157D01*
X21745Y-42125D01*
X21739Y-42125D01*
X21472Y-42154D01*
X21238Y-42240D01*
X21039Y-42381D01*
X20879Y-42576D01*
X20818Y-42684D01*
X20747Y-42890D01*
X20720Y-43113D01*
X20738Y-43330D01*
X20802Y-43520D01*
X20804Y-43525D01*
X20953Y-43747D01*
X21137Y-43919D01*
X21348Y-44038D01*
X21579Y-44102D01*
X21820Y-44106D01*
X22064Y-44049D01*
X22165Y-44006D01*
X22377Y-43868D01*
X22539Y-43688D01*
X22647Y-43472D01*
X22699Y-43226D01*
X22701Y-43045D01*
X22701Y-43763D01*
X22655Y-43839D01*
X22459Y-44036D01*
X22218Y-44186D01*
X21963Y-44278D01*
X21785Y-44314D01*
X21627Y-44315D01*
X21455Y-44281D01*
X21442Y-44277D01*
X21249Y-44209D01*
X21082Y-44114D01*
X20914Y-43976D01*
X20900Y-43963D01*
X20725Y-43762D01*
X20603Y-43528D01*
X20542Y-43332D01*
X20518Y-43088D01*
X20553Y-42842D01*
X20643Y-42606D01*
X20783Y-42389D01*
X20966Y-42203D01*
X21188Y-42057D01*
X21200Y-42051D01*
X21317Y-41997D01*
X21412Y-41964D01*
X21511Y-41948D01*
X21640Y-41942D01*
X21724Y-41942D01*
X21884Y-41945D01*
X22002Y-41958D01*
X22103Y-41984D01*
X22211Y-42029D01*
X22217Y-42032D01*
X22422Y-42157D01*
X22604Y-42325D01*
X22748Y-42519D01*
X22812Y-42649D01*
X22873Y-42874D01*
X22893Y-43117D01*
X22893Y-43117D01*
X22893Y-43117D01*
G37*
G36*
X25442Y-43117D02*
X25425Y-43363D01*
X25369Y-43569D01*
X25267Y-43753D01*
X25267Y-43153D01*
X25245Y-42904D01*
X25161Y-42670D01*
X25021Y-42461D01*
X24925Y-42365D01*
X24720Y-42226D01*
X24493Y-42145D01*
X24255Y-42120D01*
X24018Y-42152D01*
X23793Y-42240D01*
X23591Y-42384D01*
X23562Y-42412D01*
X23408Y-42610D01*
X23312Y-42832D01*
X23273Y-43069D01*
X23291Y-43309D01*
X23368Y-43543D01*
X23503Y-43760D01*
X23521Y-43781D01*
X23694Y-43937D01*
X23903Y-44045D01*
X24134Y-44103D01*
X24373Y-44108D01*
X24606Y-44057D01*
X24686Y-44024D01*
X24858Y-43914D01*
X25017Y-43762D01*
X25145Y-43587D01*
X25226Y-43408D01*
X25227Y-43406D01*
X25267Y-43153D01*
X25267Y-43753D01*
X25162Y-43882D01*
X24954Y-44074D01*
X24731Y-44207D01*
X24534Y-44277D01*
X24370Y-44312D01*
X24228Y-44318D01*
X24074Y-44295D01*
X23976Y-44271D01*
X23719Y-44169D01*
X23492Y-44010D01*
X23303Y-43803D01*
X23168Y-43572D01*
X23128Y-43467D01*
X23105Y-43356D01*
X23094Y-43215D01*
X23092Y-43108D01*
X23095Y-42953D01*
X23105Y-42841D01*
X23129Y-42747D01*
X23171Y-42647D01*
X23189Y-42610D01*
X23336Y-42378D01*
X23527Y-42184D01*
X23750Y-42040D01*
X23768Y-42031D01*
X23883Y-41984D01*
X23991Y-41957D01*
X24120Y-41945D01*
X24242Y-41942D01*
X24483Y-41955D01*
X24682Y-41998D01*
X24857Y-42081D01*
X25026Y-42210D01*
X25094Y-42275D01*
X25256Y-42459D01*
X25363Y-42647D01*
X25423Y-42858D01*
X25442Y-43108D01*
X25442Y-43117D01*
X25442Y-43117D01*
X25442Y-43117D01*
G37*
G36*
X27988Y-43108D02*
X27969Y-43358D01*
X27900Y-43578D01*
X27798Y-43746D01*
X27798Y-43166D01*
X27778Y-42927D01*
X27706Y-42701D01*
X27586Y-42498D01*
X27424Y-42330D01*
X27226Y-42207D01*
X27150Y-42177D01*
X26944Y-42132D01*
X26722Y-42127D01*
X26512Y-42160D01*
X26392Y-42203D01*
X26232Y-42304D01*
X26075Y-42447D01*
X25943Y-42612D01*
X25873Y-42735D01*
X25832Y-42875D01*
X25811Y-43051D01*
X25812Y-43233D01*
X25836Y-43392D01*
X25847Y-43428D01*
X25955Y-43650D01*
X26110Y-43834D01*
X26300Y-43976D01*
X26516Y-44070D01*
X26748Y-44112D01*
X26985Y-44099D01*
X27217Y-44024D01*
X27220Y-44024D01*
X27392Y-43914D01*
X27550Y-43762D01*
X27679Y-43587D01*
X27760Y-43408D01*
X27760Y-43406D01*
X27798Y-43166D01*
X27798Y-43746D01*
X27776Y-43783D01*
X27678Y-43900D01*
X27503Y-44065D01*
X27323Y-44182D01*
X27114Y-44263D01*
X27058Y-44279D01*
X26898Y-44313D01*
X26756Y-44318D01*
X26599Y-44294D01*
X26509Y-44271D01*
X26256Y-44171D01*
X26038Y-44022D01*
X25859Y-43832D01*
X25725Y-43611D01*
X25642Y-43367D01*
X25613Y-43109D01*
X25645Y-42846D01*
X25656Y-42806D01*
X25731Y-42613D01*
X25840Y-42424D01*
X25967Y-42261D01*
X26062Y-42174D01*
X26237Y-42059D01*
X26412Y-41987D01*
X26610Y-41950D01*
X26792Y-41942D01*
X26945Y-41944D01*
X27056Y-41954D01*
X27150Y-41978D01*
X27251Y-42020D01*
X27315Y-42051D01*
X27557Y-42204D01*
X27748Y-42399D01*
X27886Y-42630D01*
X27967Y-42892D01*
X27988Y-43108D01*
X27988Y-43108D01*
X27988Y-43108D01*
G37*
G36*
X21688Y-42916D02*
X21611Y-42940D01*
X21535Y-42945D01*
X21498Y-42928D01*
X21425Y-42894D01*
X21340Y-42903D01*
X21278Y-42952D01*
X21276Y-42956D01*
X21249Y-43045D01*
X21243Y-43151D01*
X21259Y-43244D01*
X21282Y-43285D01*
X21350Y-43317D01*
X21441Y-43322D01*
X21517Y-43300D01*
X21529Y-43290D01*
X21580Y-43273D01*
X21639Y-43285D01*
X21674Y-43317D01*
X21675Y-43324D01*
X21645Y-43378D01*
X21569Y-43424D01*
X21466Y-43455D01*
X21359Y-43464D01*
X21296Y-43454D01*
X21164Y-43388D01*
X21080Y-43281D01*
X21048Y-43142D01*
X21073Y-42981D01*
X21074Y-42976D01*
X21144Y-42861D01*
X21251Y-42787D01*
X21378Y-42759D01*
X21508Y-42783D01*
X21596Y-42837D01*
X21688Y-42916D01*
X21688Y-42916D01*
X21688Y-42916D01*
G37*
G36*
X22388Y-42916D02*
X22311Y-42940D01*
X22235Y-42945D01*
X22198Y-42928D01*
X22124Y-42894D01*
X22035Y-42903D01*
X21972Y-42944D01*
X21941Y-43014D01*
X21928Y-43108D01*
X21941Y-43201D01*
X21972Y-43271D01*
X22042Y-43313D01*
X22135Y-43323D01*
X22216Y-43300D01*
X22232Y-43288D01*
X22291Y-43270D01*
X22325Y-43283D01*
X22361Y-43310D01*
X22350Y-43342D01*
X22309Y-43383D01*
X22203Y-43450D01*
X22069Y-43469D01*
X22001Y-43464D01*
X21891Y-43421D01*
X21807Y-43330D01*
X21757Y-43208D01*
X21747Y-43070D01*
X21781Y-42940D01*
X21861Y-42839D01*
X21976Y-42778D01*
X22107Y-42763D01*
X22235Y-42796D01*
X22296Y-42837D01*
X22388Y-42916D01*
X22388Y-42916D01*
X22388Y-42916D01*
G37*
G36*
X24572Y-43163D02*
X24568Y-43240D01*
X24555Y-43278D01*
X24528Y-43290D01*
X24510Y-43291D01*
X24476Y-43296D01*
X24456Y-43320D01*
X24446Y-43375D01*
X24442Y-43475D01*
X24442Y-43575D01*
X24442Y-43858D01*
X24275Y-43858D01*
X24108Y-43858D01*
X24108Y-43588D01*
X24107Y-43453D01*
X24099Y-43370D01*
X24084Y-43326D01*
X24056Y-43305D01*
X24042Y-43301D01*
X24008Y-43285D01*
X23988Y-43251D01*
X23978Y-43183D01*
X23975Y-43067D01*
X23975Y-43019D01*
X23975Y-42755D01*
X24267Y-42765D01*
X24558Y-42775D01*
X24568Y-43033D01*
X24572Y-43163D01*
X24572Y-43163D01*
X24572Y-43163D01*
G37*
G36*
X24402Y-42468D02*
X24391Y-42575D01*
X24331Y-42641D01*
X24253Y-42658D01*
X24172Y-42628D01*
X24137Y-42579D01*
X24119Y-42478D01*
X24155Y-42402D01*
X24237Y-42365D01*
X24285Y-42364D01*
X24362Y-42382D01*
X24395Y-42428D01*
X24402Y-42468D01*
X24402Y-42468D01*
X24402Y-42468D01*
G37*
G36*
X27394Y-43132D02*
X27371Y-43308D01*
X27305Y-43470D01*
X27197Y-43605D01*
X27061Y-43694D01*
X26875Y-43748D01*
X26688Y-43746D01*
X26542Y-43699D01*
X26453Y-43636D01*
X26367Y-43547D01*
X26302Y-43452D01*
X26275Y-43373D01*
X26275Y-43370D01*
X26305Y-43337D01*
X26397Y-43325D01*
X26408Y-43325D01*
X26492Y-43332D01*
X26538Y-43350D01*
X26542Y-43358D01*
X26571Y-43425D01*
X26646Y-43483D01*
X26746Y-43519D01*
X26800Y-43524D01*
X26906Y-43516D01*
X26976Y-43484D01*
X27039Y-43411D01*
X27052Y-43392D01*
X27095Y-43288D01*
X27110Y-43157D01*
X27099Y-43017D01*
X27067Y-42889D01*
X27014Y-42791D01*
X26957Y-42745D01*
X26843Y-42724D01*
X26730Y-42740D01*
X26633Y-42785D01*
X26568Y-42851D01*
X26551Y-42930D01*
X26555Y-42949D01*
X26546Y-43024D01*
X26492Y-43091D01*
X26408Y-43170D01*
X26308Y-43074D01*
X26252Y-43011D01*
X26230Y-42968D01*
X26233Y-42960D01*
X26261Y-42921D01*
X26306Y-42843D01*
X26337Y-42784D01*
X26445Y-42636D01*
X26589Y-42539D01*
X26758Y-42497D01*
X26942Y-42513D01*
X27061Y-42555D01*
X27208Y-42655D01*
X27313Y-42793D01*
X27375Y-42956D01*
X27394Y-43132D01*
X27394Y-43132D01*
X27394Y-43132D01*
G37*
G54D19*
X65317Y-31569D02*
X65317Y-20231D01*
X62049Y-31569D02*
X65317Y-31569D01*
X62049Y-20231D02*
X65317Y-20231D01*
X63151Y-31569D02*
X63151Y-20231D01*
X62049Y-20231D02*
X62049Y-31569D01*
G54D14*
X7650Y-29500D02*
X12850Y-29500D01*
X12850Y-29500D02*
X12850Y-20800D01*
X12850Y-20800D02*
X7650Y-20800D01*
X7650Y-29500D02*
X7650Y-20800D01*
G54D18*
X13616Y-33511D02*
X13616Y-33797D01*
X13597Y-33854D01*
X13559Y-33892D01*
X13502Y-33911D01*
X13464Y-33911D01*
X13978Y-33645D02*
X13978Y-33911D01*
X13883Y-33492D02*
X13788Y-33778D01*
X14035Y-33778D01*
G54D15*
X19507Y-40021D02*
X19407Y-39878D01*
X19335Y-40021D02*
X19335Y-39721D01*
X19450Y-39721D01*
X19478Y-39735D01*
X19492Y-39750D01*
X19507Y-39778D01*
X19507Y-39821D01*
X19492Y-39850D01*
X19478Y-39864D01*
X19450Y-39878D01*
X19335Y-39878D01*
X19778Y-39721D02*
X19635Y-39721D01*
X19621Y-39864D01*
X19635Y-39850D01*
X19664Y-39835D01*
X19735Y-39835D01*
X19764Y-39850D01*
X19778Y-39864D01*
X19792Y-39892D01*
X19792Y-39964D01*
X19778Y-39992D01*
X19764Y-40007D01*
X19735Y-40021D01*
X19664Y-40021D01*
X19635Y-40007D01*
X19621Y-39992D01*
X19892Y-39721D02*
X20092Y-39721D01*
X19964Y-40021D01*
X37507Y-37771D02*
X37407Y-37628D01*
X37335Y-37771D02*
X37335Y-37471D01*
X37450Y-37471D01*
X37478Y-37485D01*
X37492Y-37500D01*
X37507Y-37528D01*
X37507Y-37571D01*
X37492Y-37600D01*
X37478Y-37614D01*
X37450Y-37628D01*
X37335Y-37628D01*
X37778Y-37471D02*
X37635Y-37471D01*
X37621Y-37614D01*
X37635Y-37600D01*
X37664Y-37585D01*
X37735Y-37585D01*
X37764Y-37600D01*
X37778Y-37614D01*
X37792Y-37642D01*
X37792Y-37714D01*
X37778Y-37742D01*
X37764Y-37757D01*
X37735Y-37771D01*
X37664Y-37771D01*
X37635Y-37757D01*
X37621Y-37742D01*
X37892Y-37471D02*
X38078Y-37471D01*
X37978Y-37585D01*
X38021Y-37585D01*
X38050Y-37600D01*
X38064Y-37614D01*
X38078Y-37642D01*
X38078Y-37714D01*
X38064Y-37742D01*
X38050Y-37757D01*
X38021Y-37771D01*
X37935Y-37771D01*
X37907Y-37757D01*
X37892Y-37742D01*
X19507Y-38971D02*
X19407Y-38828D01*
X19335Y-38971D02*
X19335Y-38671D01*
X19450Y-38671D01*
X19478Y-38685D01*
X19492Y-38700D01*
X19507Y-38728D01*
X19507Y-38771D01*
X19492Y-38800D01*
X19478Y-38814D01*
X19450Y-38828D01*
X19335Y-38828D01*
X19778Y-38671D02*
X19635Y-38671D01*
X19621Y-38814D01*
X19635Y-38800D01*
X19664Y-38785D01*
X19735Y-38785D01*
X19764Y-38800D01*
X19778Y-38814D01*
X19792Y-38842D01*
X19792Y-38914D01*
X19778Y-38942D01*
X19764Y-38957D01*
X19735Y-38971D01*
X19664Y-38971D01*
X19635Y-38957D01*
X19621Y-38942D01*
X20050Y-38671D02*
X19992Y-38671D01*
X19964Y-38685D01*
X19950Y-38700D01*
X19921Y-38742D01*
X19907Y-38800D01*
X19907Y-38914D01*
X19921Y-38942D01*
X19935Y-38957D01*
X19964Y-38971D01*
X20021Y-38971D01*
X20050Y-38957D01*
X20064Y-38942D01*
X20078Y-38914D01*
X20078Y-38842D01*
X20064Y-38814D01*
X20050Y-38800D01*
X20021Y-38785D01*
X19964Y-38785D01*
X19935Y-38800D01*
X19921Y-38814D01*
X19907Y-38842D01*
X19507Y-40971D02*
X19407Y-40828D01*
X19335Y-40971D02*
X19335Y-40671D01*
X19450Y-40671D01*
X19478Y-40685D01*
X19492Y-40700D01*
X19507Y-40728D01*
X19507Y-40771D01*
X19492Y-40800D01*
X19478Y-40814D01*
X19450Y-40828D01*
X19335Y-40828D01*
X19764Y-40671D02*
X19707Y-40671D01*
X19678Y-40685D01*
X19664Y-40700D01*
X19635Y-40742D01*
X19621Y-40800D01*
X19621Y-40914D01*
X19635Y-40942D01*
X19650Y-40957D01*
X19678Y-40971D01*
X19735Y-40971D01*
X19764Y-40957D01*
X19778Y-40942D01*
X19792Y-40914D01*
X19792Y-40842D01*
X19778Y-40814D01*
X19764Y-40800D01*
X19735Y-40785D01*
X19678Y-40785D01*
X19650Y-40800D01*
X19635Y-40814D01*
X19621Y-40842D01*
X19907Y-40700D02*
X19921Y-40685D01*
X19950Y-40671D01*
X20021Y-40671D01*
X20050Y-40685D01*
X20064Y-40700D01*
X20078Y-40728D01*
X20078Y-40757D01*
X20064Y-40800D01*
X19892Y-40971D01*
X20078Y-40971D01*
X51507Y-39771D02*
X51407Y-39628D01*
X51335Y-39771D02*
X51335Y-39471D01*
X51450Y-39471D01*
X51478Y-39485D01*
X51492Y-39500D01*
X51507Y-39528D01*
X51507Y-39571D01*
X51492Y-39600D01*
X51478Y-39614D01*
X51450Y-39628D01*
X51335Y-39628D01*
X51764Y-39471D02*
X51707Y-39471D01*
X51678Y-39485D01*
X51664Y-39500D01*
X51635Y-39542D01*
X51621Y-39600D01*
X51621Y-39714D01*
X51635Y-39742D01*
X51650Y-39757D01*
X51678Y-39771D01*
X51735Y-39771D01*
X51764Y-39757D01*
X51778Y-39742D01*
X51792Y-39714D01*
X51792Y-39642D01*
X51778Y-39614D01*
X51764Y-39600D01*
X51735Y-39585D01*
X51678Y-39585D01*
X51650Y-39600D01*
X51635Y-39614D01*
X51621Y-39642D01*
X52078Y-39771D02*
X51907Y-39771D01*
X51992Y-39771D02*
X51992Y-39471D01*
X51964Y-39514D01*
X51935Y-39542D01*
X51907Y-39557D01*
X37507Y-30771D02*
X37407Y-30628D01*
X37335Y-30771D02*
X37335Y-30471D01*
X37450Y-30471D01*
X37478Y-30485D01*
X37492Y-30500D01*
X37507Y-30528D01*
X37507Y-30571D01*
X37492Y-30600D01*
X37478Y-30614D01*
X37450Y-30628D01*
X37335Y-30628D01*
X37607Y-30471D02*
X37792Y-30471D01*
X37692Y-30585D01*
X37735Y-30585D01*
X37764Y-30600D01*
X37778Y-30614D01*
X37792Y-30642D01*
X37792Y-30714D01*
X37778Y-30742D01*
X37764Y-30757D01*
X37735Y-30771D01*
X37650Y-30771D01*
X37621Y-30757D01*
X37607Y-30742D01*
X37935Y-30771D02*
X37992Y-30771D01*
X38021Y-30757D01*
X38035Y-30742D01*
X38064Y-30700D01*
X38078Y-30642D01*
X38078Y-30528D01*
X38064Y-30500D01*
X38050Y-30485D01*
X38021Y-30471D01*
X37964Y-30471D01*
X37935Y-30485D01*
X37921Y-30500D01*
X37907Y-30528D01*
X37907Y-30600D01*
X37921Y-30628D01*
X37935Y-30642D01*
X37964Y-30657D01*
X38021Y-30657D01*
X38050Y-30642D01*
X38064Y-30628D01*
X38078Y-30600D01*
X44507Y-30771D02*
X44407Y-30628D01*
X44335Y-30771D02*
X44335Y-30471D01*
X44450Y-30471D01*
X44478Y-30485D01*
X44492Y-30500D01*
X44507Y-30528D01*
X44507Y-30571D01*
X44492Y-30600D01*
X44478Y-30614D01*
X44450Y-30628D01*
X44335Y-30628D01*
X44764Y-30571D02*
X44764Y-30771D01*
X44692Y-30457D02*
X44621Y-30671D01*
X44807Y-30671D01*
X44978Y-30471D02*
X45007Y-30471D01*
X45035Y-30485D01*
X45050Y-30500D01*
X45064Y-30528D01*
X45078Y-30585D01*
X45078Y-30657D01*
X45064Y-30714D01*
X45050Y-30742D01*
X45035Y-30757D01*
X45007Y-30771D01*
X44978Y-30771D01*
X44950Y-30757D01*
X44935Y-30742D01*
X44921Y-30714D01*
X44907Y-30657D01*
X44907Y-30585D01*
X44921Y-30528D01*
X44935Y-30500D01*
X44950Y-30485D01*
X44978Y-30471D01*
X51507Y-32771D02*
X51407Y-32628D01*
X51335Y-32771D02*
X51335Y-32471D01*
X51450Y-32471D01*
X51478Y-32485D01*
X51492Y-32500D01*
X51507Y-32528D01*
X51507Y-32571D01*
X51492Y-32600D01*
X51478Y-32614D01*
X51450Y-32628D01*
X51335Y-32628D01*
X51764Y-32571D02*
X51764Y-32771D01*
X51692Y-32457D02*
X51621Y-32671D01*
X51807Y-32671D01*
X51935Y-32771D02*
X51992Y-32771D01*
X52021Y-32757D01*
X52035Y-32742D01*
X52064Y-32700D01*
X52078Y-32642D01*
X52078Y-32528D01*
X52064Y-32500D01*
X52050Y-32485D01*
X52021Y-32471D01*
X51964Y-32471D01*
X51935Y-32485D01*
X51921Y-32500D01*
X51907Y-32528D01*
X51907Y-32600D01*
X51921Y-32628D01*
X51935Y-32642D01*
X51964Y-32657D01*
X52021Y-32657D01*
X52050Y-32642D01*
X52064Y-32628D01*
X52078Y-32600D01*
X37507Y-39771D02*
X37407Y-39628D01*
X37335Y-39771D02*
X37335Y-39471D01*
X37450Y-39471D01*
X37478Y-39485D01*
X37492Y-39500D01*
X37507Y-39528D01*
X37507Y-39571D01*
X37492Y-39600D01*
X37478Y-39614D01*
X37450Y-39628D01*
X37335Y-39628D01*
X37778Y-39471D02*
X37635Y-39471D01*
X37621Y-39614D01*
X37635Y-39600D01*
X37664Y-39585D01*
X37735Y-39585D01*
X37764Y-39600D01*
X37778Y-39614D01*
X37792Y-39642D01*
X37792Y-39714D01*
X37778Y-39742D01*
X37764Y-39757D01*
X37735Y-39771D01*
X37664Y-39771D01*
X37635Y-39757D01*
X37621Y-39742D01*
X37935Y-39771D02*
X37992Y-39771D01*
X38021Y-39757D01*
X38035Y-39742D01*
X38064Y-39700D01*
X38078Y-39642D01*
X38078Y-39528D01*
X38064Y-39500D01*
X38050Y-39485D01*
X38021Y-39471D01*
X37964Y-39471D01*
X37935Y-39485D01*
X37921Y-39500D01*
X37907Y-39528D01*
X37907Y-39600D01*
X37921Y-39628D01*
X37935Y-39642D01*
X37964Y-39657D01*
X38021Y-39657D01*
X38050Y-39642D01*
X38064Y-39628D01*
X38078Y-39600D01*
X51507Y-37771D02*
X51407Y-37628D01*
X51335Y-37771D02*
X51335Y-37471D01*
X51450Y-37471D01*
X51478Y-37485D01*
X51492Y-37500D01*
X51507Y-37528D01*
X51507Y-37571D01*
X51492Y-37600D01*
X51478Y-37614D01*
X51450Y-37628D01*
X51335Y-37628D01*
X51778Y-37471D02*
X51635Y-37471D01*
X51621Y-37614D01*
X51635Y-37600D01*
X51664Y-37585D01*
X51735Y-37585D01*
X51764Y-37600D01*
X51778Y-37614D01*
X51792Y-37642D01*
X51792Y-37714D01*
X51778Y-37742D01*
X51764Y-37757D01*
X51735Y-37771D01*
X51664Y-37771D01*
X51635Y-37757D01*
X51621Y-37742D01*
X52064Y-37471D02*
X51921Y-37471D01*
X51907Y-37614D01*
X51921Y-37600D01*
X51950Y-37585D01*
X52021Y-37585D01*
X52050Y-37600D01*
X52064Y-37614D01*
X52078Y-37642D01*
X52078Y-37714D01*
X52064Y-37742D01*
X52050Y-37757D01*
X52021Y-37771D01*
X51950Y-37771D01*
X51921Y-37757D01*
X51907Y-37742D01*
X44507Y-37771D02*
X44407Y-37628D01*
X44335Y-37771D02*
X44335Y-37471D01*
X44450Y-37471D01*
X44478Y-37485D01*
X44492Y-37500D01*
X44507Y-37528D01*
X44507Y-37571D01*
X44492Y-37600D01*
X44478Y-37614D01*
X44450Y-37628D01*
X44335Y-37628D01*
X44778Y-37471D02*
X44635Y-37471D01*
X44621Y-37614D01*
X44635Y-37600D01*
X44664Y-37585D01*
X44735Y-37585D01*
X44764Y-37600D01*
X44778Y-37614D01*
X44792Y-37642D01*
X44792Y-37714D01*
X44778Y-37742D01*
X44764Y-37757D01*
X44735Y-37771D01*
X44664Y-37771D01*
X44635Y-37757D01*
X44621Y-37742D01*
X45050Y-37571D02*
X45050Y-37771D01*
X44978Y-37457D02*
X44907Y-37671D01*
X45092Y-37671D01*
X30507Y-39771D02*
X30407Y-39628D01*
X30335Y-39771D02*
X30335Y-39471D01*
X30450Y-39471D01*
X30478Y-39485D01*
X30492Y-39500D01*
X30507Y-39528D01*
X30507Y-39571D01*
X30492Y-39600D01*
X30478Y-39614D01*
X30450Y-39628D01*
X30335Y-39628D01*
X30778Y-39471D02*
X30635Y-39471D01*
X30621Y-39614D01*
X30635Y-39600D01*
X30664Y-39585D01*
X30735Y-39585D01*
X30764Y-39600D01*
X30778Y-39614D01*
X30792Y-39642D01*
X30792Y-39714D01*
X30778Y-39742D01*
X30764Y-39757D01*
X30735Y-39771D01*
X30664Y-39771D01*
X30635Y-39757D01*
X30621Y-39742D01*
X30964Y-39600D02*
X30935Y-39585D01*
X30921Y-39571D01*
X30907Y-39542D01*
X30907Y-39528D01*
X30921Y-39500D01*
X30935Y-39485D01*
X30964Y-39471D01*
X31021Y-39471D01*
X31050Y-39485D01*
X31064Y-39500D01*
X31078Y-39528D01*
X31078Y-39542D01*
X31064Y-39571D01*
X31050Y-39585D01*
X31021Y-39600D01*
X30964Y-39600D01*
X30935Y-39614D01*
X30921Y-39628D01*
X30907Y-39657D01*
X30907Y-39714D01*
X30921Y-39742D01*
X30935Y-39757D01*
X30964Y-39771D01*
X31021Y-39771D01*
X31050Y-39757D01*
X31064Y-39742D01*
X31078Y-39714D01*
X31078Y-39657D01*
X31064Y-39628D01*
X31050Y-39614D01*
X31021Y-39600D01*
X44507Y-39771D02*
X44407Y-39628D01*
X44335Y-39771D02*
X44335Y-39471D01*
X44450Y-39471D01*
X44478Y-39485D01*
X44492Y-39500D01*
X44507Y-39528D01*
X44507Y-39571D01*
X44492Y-39600D01*
X44478Y-39614D01*
X44450Y-39628D01*
X44335Y-39628D01*
X44764Y-39471D02*
X44707Y-39471D01*
X44678Y-39485D01*
X44664Y-39500D01*
X44635Y-39542D01*
X44621Y-39600D01*
X44621Y-39714D01*
X44635Y-39742D01*
X44650Y-39757D01*
X44678Y-39771D01*
X44735Y-39771D01*
X44764Y-39757D01*
X44778Y-39742D01*
X44792Y-39714D01*
X44792Y-39642D01*
X44778Y-39614D01*
X44764Y-39600D01*
X44735Y-39585D01*
X44678Y-39585D01*
X44650Y-39600D01*
X44635Y-39614D01*
X44621Y-39642D01*
X44978Y-39471D02*
X45007Y-39471D01*
X45035Y-39485D01*
X45050Y-39500D01*
X45064Y-39528D01*
X45078Y-39585D01*
X45078Y-39657D01*
X45064Y-39714D01*
X45050Y-39742D01*
X45035Y-39757D01*
X45007Y-39771D01*
X44978Y-39771D01*
X44950Y-39757D01*
X44935Y-39742D01*
X44921Y-39714D01*
X44907Y-39657D01*
X44907Y-39585D01*
X44921Y-39528D01*
X44935Y-39500D01*
X44950Y-39485D01*
X44978Y-39471D01*
X19507Y-24971D02*
X19407Y-24828D01*
X19335Y-24971D02*
X19335Y-24671D01*
X19450Y-24671D01*
X19478Y-24685D01*
X19492Y-24700D01*
X19507Y-24728D01*
X19507Y-24771D01*
X19492Y-24800D01*
X19478Y-24814D01*
X19450Y-24828D01*
X19335Y-24828D01*
X19607Y-24671D02*
X19792Y-24671D01*
X19692Y-24785D01*
X19735Y-24785D01*
X19764Y-24800D01*
X19778Y-24814D01*
X19792Y-24842D01*
X19792Y-24914D01*
X19778Y-24942D01*
X19764Y-24957D01*
X19735Y-24971D01*
X19650Y-24971D01*
X19621Y-24957D01*
X19607Y-24942D01*
X19978Y-24671D02*
X20007Y-24671D01*
X20035Y-24685D01*
X20050Y-24700D01*
X20064Y-24728D01*
X20078Y-24785D01*
X20078Y-24857D01*
X20064Y-24914D01*
X20050Y-24942D01*
X20035Y-24957D01*
X20007Y-24971D01*
X19978Y-24971D01*
X19950Y-24957D01*
X19935Y-24942D01*
X19921Y-24914D01*
X19907Y-24857D01*
X19907Y-24785D01*
X19921Y-24728D01*
X19935Y-24700D01*
X19950Y-24685D01*
X19978Y-24671D01*
X19507Y-25971D02*
X19407Y-25828D01*
X19335Y-25971D02*
X19335Y-25671D01*
X19450Y-25671D01*
X19478Y-25685D01*
X19492Y-25700D01*
X19507Y-25728D01*
X19507Y-25771D01*
X19492Y-25800D01*
X19478Y-25814D01*
X19450Y-25828D01*
X19335Y-25828D01*
X19607Y-25671D02*
X19792Y-25671D01*
X19692Y-25785D01*
X19735Y-25785D01*
X19764Y-25800D01*
X19778Y-25814D01*
X19792Y-25842D01*
X19792Y-25914D01*
X19778Y-25942D01*
X19764Y-25957D01*
X19735Y-25971D01*
X19650Y-25971D01*
X19621Y-25957D01*
X19607Y-25942D01*
X20078Y-25971D02*
X19907Y-25971D01*
X19992Y-25971D02*
X19992Y-25671D01*
X19964Y-25714D01*
X19935Y-25742D01*
X19907Y-25757D01*
X51507Y-25771D02*
X51407Y-25628D01*
X51335Y-25771D02*
X51335Y-25471D01*
X51450Y-25471D01*
X51478Y-25485D01*
X51492Y-25500D01*
X51507Y-25528D01*
X51507Y-25571D01*
X51492Y-25600D01*
X51478Y-25614D01*
X51450Y-25628D01*
X51335Y-25628D01*
X51607Y-25471D02*
X51792Y-25471D01*
X51692Y-25585D01*
X51735Y-25585D01*
X51764Y-25600D01*
X51778Y-25614D01*
X51792Y-25642D01*
X51792Y-25714D01*
X51778Y-25742D01*
X51764Y-25757D01*
X51735Y-25771D01*
X51650Y-25771D01*
X51621Y-25757D01*
X51607Y-25742D01*
X52064Y-25471D02*
X51921Y-25471D01*
X51907Y-25614D01*
X51921Y-25600D01*
X51950Y-25585D01*
X52021Y-25585D01*
X52050Y-25600D01*
X52064Y-25614D01*
X52078Y-25642D01*
X52078Y-25714D01*
X52064Y-25742D01*
X52050Y-25757D01*
X52021Y-25771D01*
X51950Y-25771D01*
X51921Y-25757D01*
X51907Y-25742D01*
X19507Y-24021D02*
X19407Y-23878D01*
X19335Y-24021D02*
X19335Y-23721D01*
X19450Y-23721D01*
X19478Y-23735D01*
X19492Y-23750D01*
X19507Y-23778D01*
X19507Y-23821D01*
X19492Y-23850D01*
X19478Y-23864D01*
X19450Y-23878D01*
X19335Y-23878D01*
X19621Y-23750D02*
X19635Y-23735D01*
X19664Y-23721D01*
X19735Y-23721D01*
X19764Y-23735D01*
X19778Y-23750D01*
X19792Y-23778D01*
X19792Y-23807D01*
X19778Y-23850D01*
X19607Y-24021D01*
X19792Y-24021D01*
X20064Y-23721D02*
X19921Y-23721D01*
X19907Y-23864D01*
X19921Y-23850D01*
X19950Y-23835D01*
X20021Y-23835D01*
X20050Y-23850D01*
X20064Y-23864D01*
X20078Y-23892D01*
X20078Y-23964D01*
X20064Y-23992D01*
X20050Y-24007D01*
X20021Y-24021D01*
X19950Y-24021D01*
X19921Y-24007D01*
X19907Y-23992D01*
X44507Y-16771D02*
X44407Y-16628D01*
X44335Y-16771D02*
X44335Y-16471D01*
X44450Y-16471D01*
X44478Y-16485D01*
X44492Y-16500D01*
X44507Y-16528D01*
X44507Y-16571D01*
X44492Y-16600D01*
X44478Y-16614D01*
X44450Y-16628D01*
X44335Y-16628D01*
X44792Y-16771D02*
X44621Y-16771D01*
X44707Y-16771D02*
X44707Y-16471D01*
X44678Y-16514D01*
X44650Y-16542D01*
X44621Y-16557D01*
X45050Y-16471D02*
X44992Y-16471D01*
X44964Y-16485D01*
X44950Y-16500D01*
X44921Y-16542D01*
X44907Y-16600D01*
X44907Y-16714D01*
X44921Y-16742D01*
X44935Y-16757D01*
X44964Y-16771D01*
X45021Y-16771D01*
X45050Y-16757D01*
X45064Y-16742D01*
X45078Y-16714D01*
X45078Y-16642D01*
X45064Y-16614D01*
X45050Y-16600D01*
X45021Y-16585D01*
X44964Y-16585D01*
X44935Y-16600D01*
X44921Y-16614D01*
X44907Y-16642D01*
X37507Y-16771D02*
X37407Y-16628D01*
X37335Y-16771D02*
X37335Y-16471D01*
X37450Y-16471D01*
X37478Y-16485D01*
X37492Y-16500D01*
X37507Y-16528D01*
X37507Y-16571D01*
X37492Y-16600D01*
X37478Y-16614D01*
X37450Y-16628D01*
X37335Y-16628D01*
X37792Y-16771D02*
X37621Y-16771D01*
X37707Y-16771D02*
X37707Y-16471D01*
X37678Y-16514D01*
X37650Y-16542D01*
X37621Y-16557D01*
X38064Y-16471D02*
X37921Y-16471D01*
X37907Y-16614D01*
X37921Y-16600D01*
X37950Y-16585D01*
X38021Y-16585D01*
X38050Y-16600D01*
X38064Y-16614D01*
X38078Y-16642D01*
X38078Y-16714D01*
X38064Y-16742D01*
X38050Y-16757D01*
X38021Y-16771D01*
X37950Y-16771D01*
X37921Y-16757D01*
X37907Y-16742D01*
X19507Y-16971D02*
X19407Y-16828D01*
X19335Y-16971D02*
X19335Y-16671D01*
X19450Y-16671D01*
X19478Y-16685D01*
X19492Y-16700D01*
X19507Y-16728D01*
X19507Y-16771D01*
X19492Y-16800D01*
X19478Y-16814D01*
X19450Y-16828D01*
X19335Y-16828D01*
X19792Y-16971D02*
X19621Y-16971D01*
X19707Y-16971D02*
X19707Y-16671D01*
X19678Y-16714D01*
X19650Y-16742D01*
X19621Y-16757D01*
X19892Y-16671D02*
X20078Y-16671D01*
X19978Y-16785D01*
X20021Y-16785D01*
X20050Y-16800D01*
X20064Y-16814D01*
X20078Y-16842D01*
X20078Y-16914D01*
X20064Y-16942D01*
X20050Y-16957D01*
X20021Y-16971D01*
X19935Y-16971D01*
X19907Y-16957D01*
X19892Y-16942D01*
X30507Y-16771D02*
X30407Y-16628D01*
X30335Y-16771D02*
X30335Y-16471D01*
X30450Y-16471D01*
X30478Y-16485D01*
X30492Y-16500D01*
X30507Y-16528D01*
X30507Y-16571D01*
X30492Y-16600D01*
X30478Y-16614D01*
X30450Y-16628D01*
X30335Y-16628D01*
X30792Y-16771D02*
X30621Y-16771D01*
X30707Y-16771D02*
X30707Y-16471D01*
X30678Y-16514D01*
X30650Y-16542D01*
X30621Y-16557D01*
X31050Y-16571D02*
X31050Y-16771D01*
X30978Y-16457D02*
X30907Y-16671D01*
X31092Y-16671D01*
X30650Y-11771D02*
X30550Y-11628D01*
X30478Y-11771D02*
X30478Y-11471D01*
X30592Y-11471D01*
X30621Y-11485D01*
X30635Y-11500D01*
X30650Y-11528D01*
X30650Y-11571D01*
X30635Y-11600D01*
X30621Y-11614D01*
X30592Y-11628D01*
X30478Y-11628D01*
X30821Y-11600D02*
X30792Y-11585D01*
X30778Y-11571D01*
X30764Y-11542D01*
X30764Y-11528D01*
X30778Y-11500D01*
X30792Y-11485D01*
X30821Y-11471D01*
X30878Y-11471D01*
X30907Y-11485D01*
X30921Y-11500D01*
X30935Y-11528D01*
X30935Y-11542D01*
X30921Y-11571D01*
X30907Y-11585D01*
X30878Y-11600D01*
X30821Y-11600D01*
X30792Y-11614D01*
X30778Y-11628D01*
X30764Y-11657D01*
X30764Y-11714D01*
X30778Y-11742D01*
X30792Y-11757D01*
X30821Y-11771D01*
X30878Y-11771D01*
X30907Y-11757D01*
X30921Y-11742D01*
X30935Y-11714D01*
X30935Y-11657D01*
X30921Y-11628D01*
X30907Y-11614D01*
X30878Y-11600D01*
X51650Y-9771D02*
X51550Y-9628D01*
X51478Y-9771D02*
X51478Y-9471D01*
X51592Y-9471D01*
X51621Y-9485D01*
X51635Y-9500D01*
X51650Y-9528D01*
X51650Y-9571D01*
X51635Y-9600D01*
X51621Y-9614D01*
X51592Y-9628D01*
X51478Y-9628D01*
X51921Y-9471D02*
X51778Y-9471D01*
X51764Y-9614D01*
X51778Y-9600D01*
X51807Y-9585D01*
X51878Y-9585D01*
X51907Y-9600D01*
X51921Y-9614D01*
X51935Y-9642D01*
X51935Y-9714D01*
X51921Y-9742D01*
X51907Y-9757D01*
X51878Y-9771D01*
X51807Y-9771D01*
X51778Y-9757D01*
X51764Y-9742D01*
X37650Y-11771D02*
X37550Y-11628D01*
X37478Y-11771D02*
X37478Y-11471D01*
X37592Y-11471D01*
X37621Y-11485D01*
X37635Y-11500D01*
X37650Y-11528D01*
X37650Y-11571D01*
X37635Y-11600D01*
X37621Y-11614D01*
X37592Y-11628D01*
X37478Y-11628D01*
X37792Y-11771D02*
X37850Y-11771D01*
X37878Y-11757D01*
X37892Y-11742D01*
X37921Y-11700D01*
X37935Y-11642D01*
X37935Y-11528D01*
X37921Y-11500D01*
X37907Y-11485D01*
X37878Y-11471D01*
X37821Y-11471D01*
X37792Y-11485D01*
X37778Y-11500D01*
X37764Y-11528D01*
X37764Y-11600D01*
X37778Y-11628D01*
X37792Y-11642D01*
X37821Y-11657D01*
X37878Y-11657D01*
X37907Y-11642D01*
X37921Y-11628D01*
X37935Y-11600D01*
X19507Y-12971D02*
X19407Y-12828D01*
X19335Y-12971D02*
X19335Y-12671D01*
X19450Y-12671D01*
X19478Y-12685D01*
X19492Y-12700D01*
X19507Y-12728D01*
X19507Y-12771D01*
X19492Y-12800D01*
X19478Y-12814D01*
X19450Y-12828D01*
X19335Y-12828D01*
X19792Y-12971D02*
X19621Y-12971D01*
X19707Y-12971D02*
X19707Y-12671D01*
X19678Y-12714D01*
X19650Y-12742D01*
X19621Y-12757D01*
X19907Y-12700D02*
X19921Y-12685D01*
X19950Y-12671D01*
X20021Y-12671D01*
X20050Y-12685D01*
X20064Y-12700D01*
X20078Y-12728D01*
X20078Y-12757D01*
X20064Y-12800D01*
X19892Y-12971D01*
X20078Y-12971D01*
X37507Y-18821D02*
X37407Y-18678D01*
X37335Y-18821D02*
X37335Y-18521D01*
X37450Y-18521D01*
X37478Y-18535D01*
X37492Y-18550D01*
X37507Y-18578D01*
X37507Y-18621D01*
X37492Y-18650D01*
X37478Y-18664D01*
X37450Y-18678D01*
X37335Y-18678D01*
X37621Y-18550D02*
X37635Y-18535D01*
X37664Y-18521D01*
X37735Y-18521D01*
X37764Y-18535D01*
X37778Y-18550D01*
X37792Y-18578D01*
X37792Y-18607D01*
X37778Y-18650D01*
X37607Y-18821D01*
X37792Y-18821D01*
X38078Y-18821D02*
X37907Y-18821D01*
X37992Y-18821D02*
X37992Y-18521D01*
X37964Y-18564D01*
X37935Y-18592D01*
X37907Y-18607D01*
X44507Y-18771D02*
X44407Y-18628D01*
X44335Y-18771D02*
X44335Y-18471D01*
X44450Y-18471D01*
X44478Y-18485D01*
X44492Y-18500D01*
X44507Y-18528D01*
X44507Y-18571D01*
X44492Y-18600D01*
X44478Y-18614D01*
X44450Y-18628D01*
X44335Y-18628D01*
X44621Y-18500D02*
X44635Y-18485D01*
X44664Y-18471D01*
X44735Y-18471D01*
X44764Y-18485D01*
X44778Y-18500D01*
X44792Y-18528D01*
X44792Y-18557D01*
X44778Y-18600D01*
X44607Y-18771D01*
X44792Y-18771D01*
X44907Y-18500D02*
X44921Y-18485D01*
X44950Y-18471D01*
X45021Y-18471D01*
X45050Y-18485D01*
X45064Y-18500D01*
X45078Y-18528D01*
X45078Y-18557D01*
X45064Y-18600D01*
X44892Y-18771D01*
X45078Y-18771D01*
X30507Y-23771D02*
X30407Y-23628D01*
X30335Y-23771D02*
X30335Y-23471D01*
X30450Y-23471D01*
X30478Y-23485D01*
X30492Y-23500D01*
X30507Y-23528D01*
X30507Y-23571D01*
X30492Y-23600D01*
X30478Y-23614D01*
X30450Y-23628D01*
X30335Y-23628D01*
X30621Y-23500D02*
X30635Y-23485D01*
X30664Y-23471D01*
X30735Y-23471D01*
X30764Y-23485D01*
X30778Y-23500D01*
X30792Y-23528D01*
X30792Y-23557D01*
X30778Y-23600D01*
X30607Y-23771D01*
X30792Y-23771D01*
X31050Y-23471D02*
X30992Y-23471D01*
X30964Y-23485D01*
X30950Y-23500D01*
X30921Y-23542D01*
X30907Y-23600D01*
X30907Y-23714D01*
X30921Y-23742D01*
X30935Y-23757D01*
X30964Y-23771D01*
X31021Y-23771D01*
X31050Y-23757D01*
X31064Y-23742D01*
X31078Y-23714D01*
X31078Y-23642D01*
X31064Y-23614D01*
X31050Y-23600D01*
X31021Y-23585D01*
X30964Y-23585D01*
X30935Y-23600D01*
X30921Y-23614D01*
X30907Y-23642D01*
X44507Y-23821D02*
X44407Y-23678D01*
X44335Y-23821D02*
X44335Y-23521D01*
X44450Y-23521D01*
X44478Y-23535D01*
X44492Y-23550D01*
X44507Y-23578D01*
X44507Y-23621D01*
X44492Y-23650D01*
X44478Y-23664D01*
X44450Y-23678D01*
X44335Y-23678D01*
X44621Y-23550D02*
X44635Y-23535D01*
X44664Y-23521D01*
X44735Y-23521D01*
X44764Y-23535D01*
X44778Y-23550D01*
X44792Y-23578D01*
X44792Y-23607D01*
X44778Y-23650D01*
X44607Y-23821D01*
X44792Y-23821D01*
X44964Y-23650D02*
X44935Y-23635D01*
X44921Y-23621D01*
X44907Y-23592D01*
X44907Y-23578D01*
X44921Y-23550D01*
X44935Y-23535D01*
X44964Y-23521D01*
X45021Y-23521D01*
X45050Y-23535D01*
X45064Y-23550D01*
X45078Y-23578D01*
X45078Y-23592D01*
X45064Y-23621D01*
X45050Y-23635D01*
X45021Y-23650D01*
X44964Y-23650D01*
X44935Y-23664D01*
X44921Y-23678D01*
X44907Y-23707D01*
X44907Y-23764D01*
X44921Y-23792D01*
X44935Y-23807D01*
X44964Y-23821D01*
X45021Y-23821D01*
X45050Y-23807D01*
X45064Y-23792D01*
X45078Y-23764D01*
X45078Y-23707D01*
X45064Y-23678D01*
X45050Y-23664D01*
X45021Y-23650D01*
X19507Y-19971D02*
X19407Y-19828D01*
X19335Y-19971D02*
X19335Y-19671D01*
X19450Y-19671D01*
X19478Y-19685D01*
X19492Y-19700D01*
X19507Y-19728D01*
X19507Y-19771D01*
X19492Y-19800D01*
X19478Y-19814D01*
X19450Y-19828D01*
X19335Y-19828D01*
X19621Y-19700D02*
X19635Y-19685D01*
X19664Y-19671D01*
X19735Y-19671D01*
X19764Y-19685D01*
X19778Y-19700D01*
X19792Y-19728D01*
X19792Y-19757D01*
X19778Y-19800D01*
X19607Y-19971D01*
X19792Y-19971D01*
X20050Y-19771D02*
X20050Y-19971D01*
X19978Y-19657D02*
X19907Y-19871D01*
X20092Y-19871D01*
X51507Y-18821D02*
X51407Y-18678D01*
X51335Y-18821D02*
X51335Y-18521D01*
X51450Y-18521D01*
X51478Y-18535D01*
X51492Y-18550D01*
X51507Y-18578D01*
X51507Y-18621D01*
X51492Y-18650D01*
X51478Y-18664D01*
X51450Y-18678D01*
X51335Y-18678D01*
X51621Y-18550D02*
X51635Y-18535D01*
X51664Y-18521D01*
X51735Y-18521D01*
X51764Y-18535D01*
X51778Y-18550D01*
X51792Y-18578D01*
X51792Y-18607D01*
X51778Y-18650D01*
X51607Y-18821D01*
X51792Y-18821D01*
X51892Y-18521D02*
X52078Y-18521D01*
X51978Y-18635D01*
X52021Y-18635D01*
X52050Y-18650D01*
X52064Y-18664D01*
X52078Y-18692D01*
X52078Y-18764D01*
X52064Y-18792D01*
X52050Y-18807D01*
X52021Y-18821D01*
X51935Y-18821D01*
X51907Y-18807D01*
X51892Y-18792D01*
X37507Y-23771D02*
X37407Y-23628D01*
X37335Y-23771D02*
X37335Y-23471D01*
X37450Y-23471D01*
X37478Y-23485D01*
X37492Y-23500D01*
X37507Y-23528D01*
X37507Y-23571D01*
X37492Y-23600D01*
X37478Y-23614D01*
X37450Y-23628D01*
X37335Y-23628D01*
X37621Y-23500D02*
X37635Y-23485D01*
X37664Y-23471D01*
X37735Y-23471D01*
X37764Y-23485D01*
X37778Y-23500D01*
X37792Y-23528D01*
X37792Y-23557D01*
X37778Y-23600D01*
X37607Y-23771D01*
X37792Y-23771D01*
X37892Y-23471D02*
X38092Y-23471D01*
X37964Y-23771D01*
X30507Y-18771D02*
X30407Y-18628D01*
X30335Y-18771D02*
X30335Y-18471D01*
X30450Y-18471D01*
X30478Y-18485D01*
X30492Y-18500D01*
X30507Y-18528D01*
X30507Y-18571D01*
X30492Y-18600D01*
X30478Y-18614D01*
X30450Y-18628D01*
X30335Y-18628D01*
X30621Y-18500D02*
X30635Y-18485D01*
X30664Y-18471D01*
X30735Y-18471D01*
X30764Y-18485D01*
X30778Y-18500D01*
X30792Y-18528D01*
X30792Y-18557D01*
X30778Y-18600D01*
X30607Y-18771D01*
X30792Y-18771D01*
X30978Y-18471D02*
X31007Y-18471D01*
X31035Y-18485D01*
X31050Y-18500D01*
X31064Y-18528D01*
X31078Y-18585D01*
X31078Y-18657D01*
X31064Y-18714D01*
X31050Y-18742D01*
X31035Y-18757D01*
X31007Y-18771D01*
X30978Y-18771D01*
X30950Y-18757D01*
X30935Y-18742D01*
X30921Y-18714D01*
X30907Y-18657D01*
X30907Y-18585D01*
X30921Y-18528D01*
X30935Y-18500D01*
X30950Y-18485D01*
X30978Y-18471D01*
X19507Y-18021D02*
X19407Y-17878D01*
X19335Y-18021D02*
X19335Y-17721D01*
X19450Y-17721D01*
X19478Y-17735D01*
X19492Y-17750D01*
X19507Y-17778D01*
X19507Y-17821D01*
X19492Y-17850D01*
X19478Y-17864D01*
X19450Y-17878D01*
X19335Y-17878D01*
X19792Y-18021D02*
X19621Y-18021D01*
X19707Y-18021D02*
X19707Y-17721D01*
X19678Y-17764D01*
X19650Y-17792D01*
X19621Y-17807D01*
X19964Y-17850D02*
X19935Y-17835D01*
X19921Y-17821D01*
X19907Y-17792D01*
X19907Y-17778D01*
X19921Y-17750D01*
X19935Y-17735D01*
X19964Y-17721D01*
X20021Y-17721D01*
X20050Y-17735D01*
X20064Y-17750D01*
X20078Y-17778D01*
X20078Y-17792D01*
X20064Y-17821D01*
X20050Y-17835D01*
X20021Y-17850D01*
X19964Y-17850D01*
X19935Y-17864D01*
X19921Y-17878D01*
X19907Y-17907D01*
X19907Y-17964D01*
X19921Y-17992D01*
X19935Y-18007D01*
X19964Y-18021D01*
X20021Y-18021D01*
X20050Y-18007D01*
X20064Y-17992D01*
X20078Y-17964D01*
X20078Y-17907D01*
X20064Y-17878D01*
X20050Y-17864D01*
X20021Y-17850D01*
X51507Y-16771D02*
X51407Y-16628D01*
X51335Y-16771D02*
X51335Y-16471D01*
X51450Y-16471D01*
X51478Y-16485D01*
X51492Y-16500D01*
X51507Y-16528D01*
X51507Y-16571D01*
X51492Y-16600D01*
X51478Y-16614D01*
X51450Y-16628D01*
X51335Y-16628D01*
X51792Y-16771D02*
X51621Y-16771D01*
X51707Y-16771D02*
X51707Y-16471D01*
X51678Y-16514D01*
X51650Y-16542D01*
X51621Y-16557D01*
X51892Y-16471D02*
X52092Y-16471D01*
X51964Y-16771D01*
X19507Y-19021D02*
X19407Y-18878D01*
X19335Y-19021D02*
X19335Y-18721D01*
X19450Y-18721D01*
X19478Y-18735D01*
X19492Y-18750D01*
X19507Y-18778D01*
X19507Y-18821D01*
X19492Y-18850D01*
X19478Y-18864D01*
X19450Y-18878D01*
X19335Y-18878D01*
X19792Y-19021D02*
X19621Y-19021D01*
X19707Y-19021D02*
X19707Y-18721D01*
X19678Y-18764D01*
X19650Y-18792D01*
X19621Y-18807D01*
X19935Y-19021D02*
X19992Y-19021D01*
X20021Y-19007D01*
X20035Y-18992D01*
X20064Y-18950D01*
X20078Y-18892D01*
X20078Y-18778D01*
X20064Y-18750D01*
X20050Y-18735D01*
X20021Y-18721D01*
X19964Y-18721D01*
X19935Y-18735D01*
X19921Y-18750D01*
X19907Y-18778D01*
X19907Y-18850D01*
X19921Y-18878D01*
X19935Y-18892D01*
X19964Y-18907D01*
X20021Y-18907D01*
X20050Y-18892D01*
X20064Y-18878D01*
X20078Y-18850D01*
X44507Y-11771D02*
X44407Y-11628D01*
X44335Y-11771D02*
X44335Y-11471D01*
X44450Y-11471D01*
X44478Y-11485D01*
X44492Y-11500D01*
X44507Y-11528D01*
X44507Y-11571D01*
X44492Y-11600D01*
X44478Y-11614D01*
X44450Y-11628D01*
X44335Y-11628D01*
X44792Y-11771D02*
X44621Y-11771D01*
X44707Y-11771D02*
X44707Y-11471D01*
X44678Y-11514D01*
X44650Y-11542D01*
X44621Y-11557D01*
X44978Y-11471D02*
X45007Y-11471D01*
X45035Y-11485D01*
X45050Y-11500D01*
X45064Y-11528D01*
X45078Y-11585D01*
X45078Y-11657D01*
X45064Y-11714D01*
X45050Y-11742D01*
X45035Y-11757D01*
X45007Y-11771D01*
X44978Y-11771D01*
X44950Y-11757D01*
X44935Y-11742D01*
X44921Y-11714D01*
X44907Y-11657D01*
X44907Y-11585D01*
X44921Y-11528D01*
X44935Y-11500D01*
X44950Y-11485D01*
X44978Y-11471D01*
X19800Y-10971D02*
X19700Y-10828D01*
X19628Y-10971D02*
X19628Y-10671D01*
X19742Y-10671D01*
X19771Y-10685D01*
X19785Y-10700D01*
X19800Y-10728D01*
X19800Y-10771D01*
X19785Y-10800D01*
X19771Y-10814D01*
X19742Y-10828D01*
X19628Y-10828D01*
X20057Y-10671D02*
X20000Y-10671D01*
X19971Y-10685D01*
X19957Y-10700D01*
X19928Y-10742D01*
X19914Y-10800D01*
X19914Y-10914D01*
X19928Y-10942D01*
X19942Y-10957D01*
X19971Y-10971D01*
X20028Y-10971D01*
X20057Y-10957D01*
X20071Y-10942D01*
X20085Y-10914D01*
X20085Y-10842D01*
X20071Y-10814D01*
X20057Y-10800D01*
X20028Y-10785D01*
X19971Y-10785D01*
X19942Y-10800D01*
X19928Y-10814D01*
X19914Y-10842D01*
X19800Y-12021D02*
X19700Y-11878D01*
X19628Y-12021D02*
X19628Y-11721D01*
X19742Y-11721D01*
X19771Y-11735D01*
X19785Y-11750D01*
X19800Y-11778D01*
X19800Y-11821D01*
X19785Y-11850D01*
X19771Y-11864D01*
X19742Y-11878D01*
X19628Y-11878D01*
X19900Y-11721D02*
X20100Y-11721D01*
X19971Y-12021D01*
X51507Y-11771D02*
X51407Y-11628D01*
X51335Y-11771D02*
X51335Y-11471D01*
X51450Y-11471D01*
X51478Y-11485D01*
X51492Y-11500D01*
X51507Y-11528D01*
X51507Y-11571D01*
X51492Y-11600D01*
X51478Y-11614D01*
X51450Y-11628D01*
X51335Y-11628D01*
X51792Y-11771D02*
X51621Y-11771D01*
X51707Y-11771D02*
X51707Y-11471D01*
X51678Y-11514D01*
X51650Y-11542D01*
X51621Y-11557D01*
X52078Y-11771D02*
X51907Y-11771D01*
X51992Y-11771D02*
X51992Y-11471D01*
X51964Y-11514D01*
X51935Y-11542D01*
X51907Y-11557D01*
X44650Y-9771D02*
X44550Y-9628D01*
X44478Y-9771D02*
X44478Y-9471D01*
X44592Y-9471D01*
X44621Y-9485D01*
X44635Y-9500D01*
X44650Y-9528D01*
X44650Y-9571D01*
X44635Y-9600D01*
X44621Y-9614D01*
X44592Y-9628D01*
X44478Y-9628D01*
X44907Y-9571D02*
X44907Y-9771D01*
X44835Y-9457D02*
X44764Y-9671D01*
X44950Y-9671D01*
X19800Y-9971D02*
X19700Y-9828D01*
X19628Y-9971D02*
X19628Y-9671D01*
X19742Y-9671D01*
X19771Y-9685D01*
X19785Y-9700D01*
X19800Y-9728D01*
X19800Y-9771D01*
X19785Y-9800D01*
X19771Y-9814D01*
X19742Y-9828D01*
X19628Y-9828D01*
X20085Y-9971D02*
X19914Y-9971D01*
X20000Y-9971D02*
X20000Y-9671D01*
X19971Y-9714D01*
X19942Y-9742D01*
X19914Y-9757D01*
X30650Y-9771D02*
X30550Y-9628D01*
X30478Y-9771D02*
X30478Y-9471D01*
X30592Y-9471D01*
X30621Y-9485D01*
X30635Y-9500D01*
X30650Y-9528D01*
X30650Y-9571D01*
X30635Y-9600D01*
X30621Y-9614D01*
X30592Y-9628D01*
X30478Y-9628D01*
X30764Y-9500D02*
X30778Y-9485D01*
X30807Y-9471D01*
X30878Y-9471D01*
X30907Y-9485D01*
X30921Y-9500D01*
X30935Y-9528D01*
X30935Y-9557D01*
X30921Y-9600D01*
X30750Y-9771D01*
X30935Y-9771D01*
X37650Y-9721D02*
X37550Y-9578D01*
X37478Y-9721D02*
X37478Y-9421D01*
X37592Y-9421D01*
X37621Y-9435D01*
X37635Y-9450D01*
X37650Y-9478D01*
X37650Y-9521D01*
X37635Y-9550D01*
X37621Y-9564D01*
X37592Y-9578D01*
X37478Y-9578D01*
X37750Y-9421D02*
X37935Y-9421D01*
X37835Y-9535D01*
X37878Y-9535D01*
X37907Y-9550D01*
X37921Y-9564D01*
X37935Y-9592D01*
X37935Y-9664D01*
X37921Y-9692D01*
X37907Y-9707D01*
X37878Y-9721D01*
X37792Y-9721D01*
X37764Y-9707D01*
X37750Y-9692D01*
X19507Y-33971D02*
X19407Y-33828D01*
X19335Y-33971D02*
X19335Y-33671D01*
X19450Y-33671D01*
X19478Y-33685D01*
X19492Y-33700D01*
X19507Y-33728D01*
X19507Y-33771D01*
X19492Y-33800D01*
X19478Y-33814D01*
X19450Y-33828D01*
X19335Y-33828D01*
X19778Y-33671D02*
X19635Y-33671D01*
X19621Y-33814D01*
X19635Y-33800D01*
X19664Y-33785D01*
X19735Y-33785D01*
X19764Y-33800D01*
X19778Y-33814D01*
X19792Y-33842D01*
X19792Y-33914D01*
X19778Y-33942D01*
X19764Y-33957D01*
X19735Y-33971D01*
X19664Y-33971D01*
X19635Y-33957D01*
X19621Y-33942D01*
X19978Y-33671D02*
X20007Y-33671D01*
X20035Y-33685D01*
X20050Y-33700D01*
X20064Y-33728D01*
X20078Y-33785D01*
X20078Y-33857D01*
X20064Y-33914D01*
X20050Y-33942D01*
X20035Y-33957D01*
X20007Y-33971D01*
X19978Y-33971D01*
X19950Y-33957D01*
X19935Y-33942D01*
X19921Y-33914D01*
X19907Y-33857D01*
X19907Y-33785D01*
X19921Y-33728D01*
X19935Y-33700D01*
X19950Y-33685D01*
X19978Y-33671D01*
X30507Y-33471D02*
X30407Y-33328D01*
X30335Y-33471D02*
X30335Y-33171D01*
X30450Y-33171D01*
X30478Y-33185D01*
X30492Y-33200D01*
X30507Y-33228D01*
X30507Y-33271D01*
X30492Y-33300D01*
X30478Y-33314D01*
X30450Y-33328D01*
X30335Y-33328D01*
X30764Y-33271D02*
X30764Y-33471D01*
X30692Y-33157D02*
X30621Y-33371D01*
X30807Y-33371D01*
X31050Y-33171D02*
X30992Y-33171D01*
X30964Y-33185D01*
X30950Y-33200D01*
X30921Y-33242D01*
X30907Y-33300D01*
X30907Y-33414D01*
X30921Y-33442D01*
X30935Y-33457D01*
X30964Y-33471D01*
X31021Y-33471D01*
X31050Y-33457D01*
X31064Y-33442D01*
X31078Y-33414D01*
X31078Y-33342D01*
X31064Y-33314D01*
X31050Y-33300D01*
X31021Y-33285D01*
X30964Y-33285D01*
X30935Y-33300D01*
X30921Y-33314D01*
X30907Y-33342D01*
X30507Y-37771D02*
X30407Y-37628D01*
X30335Y-37771D02*
X30335Y-37471D01*
X30450Y-37471D01*
X30478Y-37485D01*
X30492Y-37500D01*
X30507Y-37528D01*
X30507Y-37571D01*
X30492Y-37600D01*
X30478Y-37614D01*
X30450Y-37628D01*
X30335Y-37628D01*
X30778Y-37471D02*
X30635Y-37471D01*
X30621Y-37614D01*
X30635Y-37600D01*
X30664Y-37585D01*
X30735Y-37585D01*
X30764Y-37600D01*
X30778Y-37614D01*
X30792Y-37642D01*
X30792Y-37714D01*
X30778Y-37742D01*
X30764Y-37757D01*
X30735Y-37771D01*
X30664Y-37771D01*
X30635Y-37757D01*
X30621Y-37742D01*
X30907Y-37500D02*
X30921Y-37485D01*
X30950Y-37471D01*
X31021Y-37471D01*
X31050Y-37485D01*
X31064Y-37500D01*
X31078Y-37528D01*
X31078Y-37557D01*
X31064Y-37600D01*
X30892Y-37771D01*
X31078Y-37771D01*
X13171Y-17592D02*
X13028Y-17692D01*
X13171Y-17764D02*
X12871Y-17764D01*
X12871Y-17650D01*
X12885Y-17621D01*
X12900Y-17607D01*
X12928Y-17592D01*
X12971Y-17592D01*
X13000Y-17607D01*
X13014Y-17621D01*
X13028Y-17650D01*
X13028Y-17764D01*
X12971Y-17335D02*
X13171Y-17335D01*
X12857Y-17407D02*
X13071Y-17478D01*
X13071Y-17292D01*
X12871Y-17035D02*
X12871Y-17178D01*
X13014Y-17192D01*
X13000Y-17178D01*
X12985Y-17150D01*
X12985Y-17078D01*
X13000Y-17050D01*
X13014Y-17035D01*
X13042Y-17021D01*
X13114Y-17021D01*
X13142Y-17035D01*
X13157Y-17050D01*
X13171Y-17078D01*
X13171Y-17150D01*
X13157Y-17178D01*
X13142Y-17192D01*
X19507Y-26971D02*
X19407Y-26828D01*
X19335Y-26971D02*
X19335Y-26671D01*
X19450Y-26671D01*
X19478Y-26685D01*
X19492Y-26700D01*
X19507Y-26728D01*
X19507Y-26771D01*
X19492Y-26800D01*
X19478Y-26814D01*
X19450Y-26828D01*
X19335Y-26828D01*
X19607Y-26671D02*
X19792Y-26671D01*
X19692Y-26785D01*
X19735Y-26785D01*
X19764Y-26800D01*
X19778Y-26814D01*
X19792Y-26842D01*
X19792Y-26914D01*
X19778Y-26942D01*
X19764Y-26957D01*
X19735Y-26971D01*
X19650Y-26971D01*
X19621Y-26957D01*
X19607Y-26942D01*
X20050Y-26671D02*
X19992Y-26671D01*
X19964Y-26685D01*
X19950Y-26700D01*
X19921Y-26742D01*
X19907Y-26800D01*
X19907Y-26914D01*
X19921Y-26942D01*
X19935Y-26957D01*
X19964Y-26971D01*
X20021Y-26971D01*
X20050Y-26957D01*
X20064Y-26942D01*
X20078Y-26914D01*
X20078Y-26842D01*
X20064Y-26814D01*
X20050Y-26800D01*
X20021Y-26785D01*
X19964Y-26785D01*
X19935Y-26800D01*
X19921Y-26814D01*
X19907Y-26842D01*
X37507Y-25771D02*
X37407Y-25628D01*
X37335Y-25771D02*
X37335Y-25471D01*
X37450Y-25471D01*
X37478Y-25485D01*
X37492Y-25500D01*
X37507Y-25528D01*
X37507Y-25571D01*
X37492Y-25600D01*
X37478Y-25614D01*
X37450Y-25628D01*
X37335Y-25628D01*
X37607Y-25471D02*
X37792Y-25471D01*
X37692Y-25585D01*
X37735Y-25585D01*
X37764Y-25600D01*
X37778Y-25614D01*
X37792Y-25642D01*
X37792Y-25714D01*
X37778Y-25742D01*
X37764Y-25757D01*
X37735Y-25771D01*
X37650Y-25771D01*
X37621Y-25757D01*
X37607Y-25742D01*
X37892Y-25471D02*
X38078Y-25471D01*
X37978Y-25585D01*
X38021Y-25585D01*
X38050Y-25600D01*
X38064Y-25614D01*
X38078Y-25642D01*
X38078Y-25714D01*
X38064Y-25742D01*
X38050Y-25757D01*
X38021Y-25771D01*
X37935Y-25771D01*
X37907Y-25757D01*
X37892Y-25742D01*
X44507Y-32771D02*
X44407Y-32628D01*
X44335Y-32771D02*
X44335Y-32471D01*
X44450Y-32471D01*
X44478Y-32485D01*
X44492Y-32500D01*
X44507Y-32528D01*
X44507Y-32571D01*
X44492Y-32600D01*
X44478Y-32614D01*
X44450Y-32628D01*
X44335Y-32628D01*
X44764Y-32571D02*
X44764Y-32771D01*
X44692Y-32457D02*
X44621Y-32671D01*
X44807Y-32671D01*
X44964Y-32600D02*
X44935Y-32585D01*
X44921Y-32571D01*
X44907Y-32542D01*
X44907Y-32528D01*
X44921Y-32500D01*
X44935Y-32485D01*
X44964Y-32471D01*
X45021Y-32471D01*
X45050Y-32485D01*
X45064Y-32500D01*
X45078Y-32528D01*
X45078Y-32542D01*
X45064Y-32571D01*
X45050Y-32585D01*
X45021Y-32600D01*
X44964Y-32600D01*
X44935Y-32614D01*
X44921Y-32628D01*
X44907Y-32657D01*
X44907Y-32714D01*
X44921Y-32742D01*
X44935Y-32757D01*
X44964Y-32771D01*
X45021Y-32771D01*
X45050Y-32757D01*
X45064Y-32742D01*
X45078Y-32714D01*
X45078Y-32657D01*
X45064Y-32628D01*
X45050Y-32614D01*
X45021Y-32600D01*
X37507Y-32771D02*
X37407Y-32628D01*
X37335Y-32771D02*
X37335Y-32471D01*
X37450Y-32471D01*
X37478Y-32485D01*
X37492Y-32500D01*
X37507Y-32528D01*
X37507Y-32571D01*
X37492Y-32600D01*
X37478Y-32614D01*
X37450Y-32628D01*
X37335Y-32628D01*
X37764Y-32571D02*
X37764Y-32771D01*
X37692Y-32457D02*
X37621Y-32671D01*
X37807Y-32671D01*
X37892Y-32471D02*
X38092Y-32471D01*
X37964Y-32771D01*
X19507Y-37971D02*
X19407Y-37828D01*
X19335Y-37971D02*
X19335Y-37671D01*
X19450Y-37671D01*
X19478Y-37685D01*
X19492Y-37700D01*
X19507Y-37728D01*
X19507Y-37771D01*
X19492Y-37800D01*
X19478Y-37814D01*
X19450Y-37828D01*
X19335Y-37828D01*
X19778Y-37671D02*
X19635Y-37671D01*
X19621Y-37814D01*
X19635Y-37800D01*
X19664Y-37785D01*
X19735Y-37785D01*
X19764Y-37800D01*
X19778Y-37814D01*
X19792Y-37842D01*
X19792Y-37914D01*
X19778Y-37942D01*
X19764Y-37957D01*
X19735Y-37971D01*
X19664Y-37971D01*
X19635Y-37957D01*
X19621Y-37942D01*
X20078Y-37971D02*
X19907Y-37971D01*
X19992Y-37971D02*
X19992Y-37671D01*
X19964Y-37714D01*
X19935Y-37742D01*
X19907Y-37757D01*
X19507Y-32971D02*
X19407Y-32828D01*
X19335Y-32971D02*
X19335Y-32671D01*
X19450Y-32671D01*
X19478Y-32685D01*
X19492Y-32700D01*
X19507Y-32728D01*
X19507Y-32771D01*
X19492Y-32800D01*
X19478Y-32814D01*
X19450Y-32828D01*
X19335Y-32828D01*
X19764Y-32771D02*
X19764Y-32971D01*
X19692Y-32657D02*
X19621Y-32871D01*
X19807Y-32871D01*
X20050Y-32771D02*
X20050Y-32971D01*
X19978Y-32657D02*
X19907Y-32871D01*
X20092Y-32871D01*
X51507Y-23771D02*
X51407Y-23628D01*
X51335Y-23771D02*
X51335Y-23471D01*
X51450Y-23471D01*
X51478Y-23485D01*
X51492Y-23500D01*
X51507Y-23528D01*
X51507Y-23571D01*
X51492Y-23600D01*
X51478Y-23614D01*
X51450Y-23628D01*
X51335Y-23628D01*
X51621Y-23500D02*
X51635Y-23485D01*
X51664Y-23471D01*
X51735Y-23471D01*
X51764Y-23485D01*
X51778Y-23500D01*
X51792Y-23528D01*
X51792Y-23557D01*
X51778Y-23600D01*
X51607Y-23771D01*
X51792Y-23771D01*
X51935Y-23771D02*
X51992Y-23771D01*
X52021Y-23757D01*
X52035Y-23742D01*
X52064Y-23700D01*
X52078Y-23642D01*
X52078Y-23528D01*
X52064Y-23500D01*
X52050Y-23485D01*
X52021Y-23471D01*
X51964Y-23471D01*
X51935Y-23485D01*
X51921Y-23500D01*
X51907Y-23528D01*
X51907Y-23600D01*
X51921Y-23628D01*
X51935Y-23642D01*
X51964Y-23657D01*
X52021Y-23657D01*
X52050Y-23642D01*
X52064Y-23628D01*
X52078Y-23600D01*
X44507Y-25821D02*
X44407Y-25678D01*
X44335Y-25821D02*
X44335Y-25521D01*
X44450Y-25521D01*
X44478Y-25535D01*
X44492Y-25550D01*
X44507Y-25578D01*
X44507Y-25621D01*
X44492Y-25650D01*
X44478Y-25664D01*
X44450Y-25678D01*
X44335Y-25678D01*
X44607Y-25521D02*
X44792Y-25521D01*
X44692Y-25635D01*
X44735Y-25635D01*
X44764Y-25650D01*
X44778Y-25664D01*
X44792Y-25692D01*
X44792Y-25764D01*
X44778Y-25792D01*
X44764Y-25807D01*
X44735Y-25821D01*
X44650Y-25821D01*
X44621Y-25807D01*
X44607Y-25792D01*
X45050Y-25621D02*
X45050Y-25821D01*
X44978Y-25507D02*
X44907Y-25721D01*
X45092Y-25721D01*
X30507Y-25771D02*
X30407Y-25628D01*
X30335Y-25771D02*
X30335Y-25471D01*
X30450Y-25471D01*
X30478Y-25485D01*
X30492Y-25500D01*
X30507Y-25528D01*
X30507Y-25571D01*
X30492Y-25600D01*
X30478Y-25614D01*
X30450Y-25628D01*
X30335Y-25628D01*
X30607Y-25471D02*
X30792Y-25471D01*
X30692Y-25585D01*
X30735Y-25585D01*
X30764Y-25600D01*
X30778Y-25614D01*
X30792Y-25642D01*
X30792Y-25714D01*
X30778Y-25742D01*
X30764Y-25757D01*
X30735Y-25771D01*
X30650Y-25771D01*
X30621Y-25757D01*
X30607Y-25742D01*
X30907Y-25500D02*
X30921Y-25485D01*
X30950Y-25471D01*
X31021Y-25471D01*
X31050Y-25485D01*
X31064Y-25500D01*
X31078Y-25528D01*
X31078Y-25557D01*
X31064Y-25600D01*
X30892Y-25771D01*
X31078Y-25771D01*
X19507Y-31971D02*
X19407Y-31828D01*
X19335Y-31971D02*
X19335Y-31671D01*
X19450Y-31671D01*
X19478Y-31685D01*
X19492Y-31700D01*
X19507Y-31728D01*
X19507Y-31771D01*
X19492Y-31800D01*
X19478Y-31814D01*
X19450Y-31828D01*
X19335Y-31828D01*
X19764Y-31771D02*
X19764Y-31971D01*
X19692Y-31657D02*
X19621Y-31871D01*
X19807Y-31871D01*
X19907Y-31700D02*
X19921Y-31685D01*
X19950Y-31671D01*
X20021Y-31671D01*
X20050Y-31685D01*
X20064Y-31700D01*
X20078Y-31728D01*
X20078Y-31757D01*
X20064Y-31800D01*
X19892Y-31971D01*
X20078Y-31971D01*
X19507Y-30971D02*
X19407Y-30828D01*
X19335Y-30971D02*
X19335Y-30671D01*
X19450Y-30671D01*
X19478Y-30685D01*
X19492Y-30700D01*
X19507Y-30728D01*
X19507Y-30771D01*
X19492Y-30800D01*
X19478Y-30814D01*
X19450Y-30828D01*
X19335Y-30828D01*
X19607Y-30671D02*
X19792Y-30671D01*
X19692Y-30785D01*
X19735Y-30785D01*
X19764Y-30800D01*
X19778Y-30814D01*
X19792Y-30842D01*
X19792Y-30914D01*
X19778Y-30942D01*
X19764Y-30957D01*
X19735Y-30971D01*
X19650Y-30971D01*
X19621Y-30957D01*
X19607Y-30942D01*
X19892Y-30671D02*
X20092Y-30671D01*
X19964Y-30971D01*
X30507Y-31471D02*
X30407Y-31328D01*
X30335Y-31471D02*
X30335Y-31171D01*
X30450Y-31171D01*
X30478Y-31185D01*
X30492Y-31200D01*
X30507Y-31228D01*
X30507Y-31271D01*
X30492Y-31300D01*
X30478Y-31314D01*
X30450Y-31328D01*
X30335Y-31328D01*
X30607Y-31171D02*
X30792Y-31171D01*
X30692Y-31285D01*
X30735Y-31285D01*
X30764Y-31300D01*
X30778Y-31314D01*
X30792Y-31342D01*
X30792Y-31414D01*
X30778Y-31442D01*
X30764Y-31457D01*
X30735Y-31471D01*
X30650Y-31471D01*
X30621Y-31457D01*
X30607Y-31442D01*
X30964Y-31300D02*
X30935Y-31285D01*
X30921Y-31271D01*
X30907Y-31242D01*
X30907Y-31228D01*
X30921Y-31200D01*
X30935Y-31185D01*
X30964Y-31171D01*
X31021Y-31171D01*
X31050Y-31185D01*
X31064Y-31200D01*
X31078Y-31228D01*
X31078Y-31242D01*
X31064Y-31271D01*
X31050Y-31285D01*
X31021Y-31300D01*
X30964Y-31300D01*
X30935Y-31314D01*
X30921Y-31328D01*
X30907Y-31357D01*
X30907Y-31414D01*
X30921Y-31442D01*
X30935Y-31457D01*
X30964Y-31471D01*
X31021Y-31471D01*
X31050Y-31457D01*
X31064Y-31442D01*
X31078Y-31414D01*
X31078Y-31357D01*
X31064Y-31328D01*
X31050Y-31314D01*
X31021Y-31300D01*
X51507Y-30771D02*
X51407Y-30628D01*
X51335Y-30771D02*
X51335Y-30471D01*
X51450Y-30471D01*
X51478Y-30485D01*
X51492Y-30500D01*
X51507Y-30528D01*
X51507Y-30571D01*
X51492Y-30600D01*
X51478Y-30614D01*
X51450Y-30628D01*
X51335Y-30628D01*
X51764Y-30571D02*
X51764Y-30771D01*
X51692Y-30457D02*
X51621Y-30671D01*
X51807Y-30671D01*
X52078Y-30771D02*
X51907Y-30771D01*
X51992Y-30771D02*
X51992Y-30471D01*
X51964Y-30514D01*
X51935Y-30542D01*
X51907Y-30557D01*
G54D21*
X26420Y-21986D02*
X26411Y-22000D01*
X26385Y-22013D01*
X26368Y-22013D01*
X26342Y-22000D01*
X26325Y-21973D01*
X26317Y-21946D01*
X26308Y-21893D01*
X26308Y-21853D01*
X26317Y-21800D01*
X26325Y-21773D01*
X26342Y-21746D01*
X26368Y-21733D01*
X26385Y-21733D01*
X26411Y-21746D01*
X26420Y-21760D01*
X26574Y-21733D02*
X26540Y-21733D01*
X26522Y-21746D01*
X26514Y-21760D01*
X26497Y-21800D01*
X26488Y-21853D01*
X26488Y-21960D01*
X26497Y-21986D01*
X26505Y-22000D01*
X26522Y-22013D01*
X26557Y-22013D01*
X26574Y-22000D01*
X26582Y-21986D01*
X26591Y-21960D01*
X26591Y-21893D01*
X26582Y-21866D01*
X26574Y-21853D01*
X26557Y-21840D01*
X26522Y-21840D01*
X26505Y-21853D01*
X26497Y-21866D01*
X26488Y-21893D01*
X26420Y-35986D02*
X26411Y-36000D01*
X26385Y-36013D01*
X26368Y-36013D01*
X26342Y-36000D01*
X26325Y-35973D01*
X26317Y-35946D01*
X26308Y-35893D01*
X26308Y-35853D01*
X26317Y-35800D01*
X26325Y-35773D01*
X26342Y-35746D01*
X26368Y-35733D01*
X26385Y-35733D01*
X26411Y-35746D01*
X26420Y-35760D01*
X26522Y-35853D02*
X26505Y-35840D01*
X26497Y-35826D01*
X26488Y-35800D01*
X26488Y-35786D01*
X26497Y-35760D01*
X26505Y-35746D01*
X26522Y-35733D01*
X26557Y-35733D01*
X26574Y-35746D01*
X26582Y-35760D01*
X26591Y-35786D01*
X26591Y-35800D01*
X26582Y-35826D01*
X26574Y-35840D01*
X26557Y-35853D01*
X26522Y-35853D01*
X26505Y-35866D01*
X26497Y-35880D01*
X26488Y-35906D01*
X26488Y-35960D01*
X26497Y-35986D01*
X26505Y-36000D01*
X26522Y-36013D01*
X26557Y-36013D01*
X26574Y-36000D01*
X26582Y-35986D01*
X26591Y-35960D01*
X26591Y-35906D01*
X26582Y-35880D01*
X26574Y-35866D01*
X26557Y-35853D01*
X13420Y-8486D02*
X13411Y-8500D01*
X13385Y-8513D01*
X13368Y-8513D01*
X13342Y-8500D01*
X13325Y-8473D01*
X13317Y-8446D01*
X13308Y-8393D01*
X13308Y-8353D01*
X13317Y-8300D01*
X13325Y-8273D01*
X13342Y-8246D01*
X13368Y-8233D01*
X13385Y-8233D01*
X13411Y-8246D01*
X13420Y-8260D01*
X13574Y-8326D02*
X13574Y-8513D01*
X13531Y-8220D02*
X13488Y-8420D01*
X13600Y-8420D01*
X26420Y-28986D02*
X26411Y-29000D01*
X26385Y-29013D01*
X26368Y-29013D01*
X26342Y-29000D01*
X26325Y-28973D01*
X26317Y-28946D01*
X26308Y-28893D01*
X26308Y-28853D01*
X26317Y-28800D01*
X26325Y-28773D01*
X26342Y-28746D01*
X26368Y-28733D01*
X26385Y-28733D01*
X26411Y-28746D01*
X26420Y-28760D01*
X26480Y-28733D02*
X26600Y-28733D01*
X26522Y-29013D01*
X26420Y-14986D02*
X26411Y-15000D01*
X26385Y-15013D01*
X26368Y-15013D01*
X26342Y-15000D01*
X26325Y-14973D01*
X26317Y-14946D01*
X26308Y-14893D01*
X26308Y-14853D01*
X26317Y-14800D01*
X26325Y-14773D01*
X26342Y-14746D01*
X26368Y-14733D01*
X26385Y-14733D01*
X26411Y-14746D01*
X26420Y-14760D01*
X26480Y-14733D02*
X26591Y-14733D01*
X26531Y-14840D01*
X26557Y-14840D01*
X26574Y-14853D01*
X26582Y-14866D01*
X26591Y-14893D01*
X26591Y-14960D01*
X26582Y-14986D01*
X26574Y-15000D01*
X26557Y-15013D01*
X26505Y-15013D01*
X26488Y-15000D01*
X26480Y-14986D01*
X14320Y-8436D02*
X14311Y-8450D01*
X14285Y-8463D01*
X14268Y-8463D01*
X14242Y-8450D01*
X14225Y-8423D01*
X14217Y-8396D01*
X14208Y-8343D01*
X14208Y-8303D01*
X14217Y-8250D01*
X14225Y-8223D01*
X14242Y-8196D01*
X14268Y-8183D01*
X14285Y-8183D01*
X14311Y-8196D01*
X14320Y-8210D01*
X14482Y-8183D02*
X14397Y-8183D01*
X14388Y-8316D01*
X14397Y-8303D01*
X14414Y-8290D01*
X14457Y-8290D01*
X14474Y-8303D01*
X14482Y-8316D01*
X14491Y-8343D01*
X14491Y-8410D01*
X14482Y-8436D01*
X14474Y-8450D01*
X14457Y-8463D01*
X14414Y-8463D01*
X14397Y-8450D01*
X14388Y-8436D01*
G54D22*
X14471Y-19914D02*
X14171Y-19914D01*
X14171Y-19842D01*
X14185Y-19800D01*
X14214Y-19771D01*
X14242Y-19757D01*
X14300Y-19742D01*
X14342Y-19742D01*
X14400Y-19757D01*
X14428Y-19771D01*
X14457Y-19800D01*
X14471Y-19842D01*
X14471Y-19914D01*
X14457Y-19628D02*
X14471Y-19585D01*
X14471Y-19514D01*
X14457Y-19485D01*
X14442Y-19471D01*
X14414Y-19457D01*
X14385Y-19457D01*
X14357Y-19471D01*
X14342Y-19485D01*
X14328Y-19514D01*
X14314Y-19571D01*
X14300Y-19600D01*
X14285Y-19614D01*
X14257Y-19628D01*
X14228Y-19628D01*
X14200Y-19614D01*
X14185Y-19600D01*
X14171Y-19571D01*
X14171Y-19500D01*
X14185Y-19457D01*
X14471Y-19171D02*
X14471Y-19342D01*
X14471Y-19257D02*
X14171Y-19257D01*
X14214Y-19285D01*
X14242Y-19314D01*
X14257Y-19342D01*
G54D23*
X33704Y-30261D02*
X33704Y-30585D01*
X33723Y-30623D01*
X33742Y-30642D01*
X33780Y-30661D01*
X33857Y-30661D01*
X33895Y-30642D01*
X33914Y-30623D01*
X33933Y-30585D01*
X33933Y-30261D01*
X34333Y-30661D02*
X34104Y-30661D01*
X34219Y-30661D02*
X34219Y-30261D01*
X34180Y-30319D01*
X34142Y-30357D01*
X34104Y-30376D01*
X34561Y-30433D02*
X34523Y-30414D01*
X34504Y-30395D01*
X34485Y-30357D01*
X34485Y-30338D01*
X34504Y-30300D01*
X34523Y-30280D01*
X34561Y-30261D01*
X34638Y-30261D01*
X34676Y-30280D01*
X34695Y-30300D01*
X34714Y-30338D01*
X34714Y-30357D01*
X34695Y-30395D01*
X34676Y-30414D01*
X34638Y-30433D01*
X34561Y-30433D01*
X34523Y-30452D01*
X34504Y-30471D01*
X34485Y-30509D01*
X34485Y-30585D01*
X34504Y-30623D01*
X34523Y-30642D01*
X34561Y-30661D01*
X34638Y-30661D01*
X34676Y-30642D01*
X34695Y-30623D01*
X34714Y-30585D01*
X34714Y-30509D01*
X34695Y-30471D01*
X34676Y-30452D01*
X34638Y-30433D01*
X47704Y-37261D02*
X47704Y-37585D01*
X47723Y-37623D01*
X47742Y-37642D01*
X47780Y-37661D01*
X47857Y-37661D01*
X47895Y-37642D01*
X47914Y-37623D01*
X47933Y-37585D01*
X47933Y-37261D01*
X48104Y-37300D02*
X48123Y-37280D01*
X48161Y-37261D01*
X48257Y-37261D01*
X48295Y-37280D01*
X48314Y-37300D01*
X48333Y-37338D01*
X48333Y-37376D01*
X48314Y-37433D01*
X48085Y-37661D01*
X48333Y-37661D01*
X48676Y-37261D02*
X48600Y-37261D01*
X48561Y-37280D01*
X48542Y-37300D01*
X48504Y-37357D01*
X48485Y-37433D01*
X48485Y-37585D01*
X48504Y-37623D01*
X48523Y-37642D01*
X48561Y-37661D01*
X48638Y-37661D01*
X48676Y-37642D01*
X48695Y-37623D01*
X48714Y-37585D01*
X48714Y-37490D01*
X48695Y-37452D01*
X48676Y-37433D01*
X48638Y-37414D01*
X48561Y-37414D01*
X48523Y-37433D01*
X48504Y-37452D01*
X48485Y-37490D01*
X54704Y-23261D02*
X54704Y-23585D01*
X54723Y-23623D01*
X54742Y-23642D01*
X54780Y-23661D01*
X54857Y-23661D01*
X54895Y-23642D01*
X54914Y-23623D01*
X54933Y-23585D01*
X54933Y-23261D01*
X55333Y-23661D02*
X55104Y-23661D01*
X55219Y-23661D02*
X55219Y-23261D01*
X55180Y-23319D01*
X55142Y-23357D01*
X55104Y-23376D01*
X55695Y-23261D02*
X55504Y-23261D01*
X55485Y-23452D01*
X55504Y-23433D01*
X55542Y-23414D01*
X55638Y-23414D01*
X55676Y-23433D01*
X55695Y-23452D01*
X55714Y-23490D01*
X55714Y-23585D01*
X55695Y-23623D01*
X55676Y-23642D01*
X55638Y-23661D01*
X55542Y-23661D01*
X55504Y-23642D01*
X55485Y-23623D01*
X33895Y-16261D02*
X33895Y-16585D01*
X33914Y-16623D01*
X33933Y-16642D01*
X33971Y-16661D01*
X34047Y-16661D01*
X34085Y-16642D01*
X34104Y-16623D01*
X34123Y-16585D01*
X34123Y-16261D01*
X34276Y-16261D02*
X34542Y-16261D01*
X34371Y-16661D01*
X33704Y-23261D02*
X33704Y-23585D01*
X33723Y-23623D01*
X33742Y-23642D01*
X33780Y-23661D01*
X33857Y-23661D01*
X33895Y-23642D01*
X33914Y-23623D01*
X33933Y-23585D01*
X33933Y-23261D01*
X34333Y-23661D02*
X34104Y-23661D01*
X34219Y-23661D02*
X34219Y-23261D01*
X34180Y-23319D01*
X34142Y-23357D01*
X34104Y-23376D01*
X34485Y-23300D02*
X34504Y-23280D01*
X34542Y-23261D01*
X34638Y-23261D01*
X34676Y-23280D01*
X34695Y-23300D01*
X34714Y-23338D01*
X34714Y-23376D01*
X34695Y-23433D01*
X34466Y-23661D01*
X34714Y-23661D01*
X40654Y-37261D02*
X40654Y-37585D01*
X40673Y-37623D01*
X40692Y-37642D01*
X40730Y-37661D01*
X40807Y-37661D01*
X40845Y-37642D01*
X40864Y-37623D01*
X40883Y-37585D01*
X40883Y-37261D01*
X41054Y-37300D02*
X41073Y-37280D01*
X41111Y-37261D01*
X41207Y-37261D01*
X41245Y-37280D01*
X41264Y-37300D01*
X41283Y-37338D01*
X41283Y-37376D01*
X41264Y-37433D01*
X41035Y-37661D01*
X41283Y-37661D01*
X41645Y-37261D02*
X41454Y-37261D01*
X41435Y-37452D01*
X41454Y-37433D01*
X41492Y-37414D01*
X41588Y-37414D01*
X41626Y-37433D01*
X41645Y-37452D01*
X41664Y-37490D01*
X41664Y-37585D01*
X41645Y-37623D01*
X41626Y-37642D01*
X41588Y-37661D01*
X41492Y-37661D01*
X41454Y-37642D01*
X41435Y-37623D01*
X47704Y-23261D02*
X47704Y-23585D01*
X47723Y-23623D01*
X47742Y-23642D01*
X47780Y-23661D01*
X47857Y-23661D01*
X47895Y-23642D01*
X47914Y-23623D01*
X47933Y-23585D01*
X47933Y-23261D01*
X48333Y-23661D02*
X48104Y-23661D01*
X48219Y-23661D02*
X48219Y-23261D01*
X48180Y-23319D01*
X48142Y-23357D01*
X48104Y-23376D01*
X48676Y-23395D02*
X48676Y-23661D01*
X48580Y-23242D02*
X48485Y-23528D01*
X48733Y-23528D01*
X33704Y-37261D02*
X33704Y-37585D01*
X33723Y-37623D01*
X33742Y-37642D01*
X33780Y-37661D01*
X33857Y-37661D01*
X33895Y-37642D01*
X33914Y-37623D01*
X33933Y-37585D01*
X33933Y-37261D01*
X34104Y-37300D02*
X34123Y-37280D01*
X34161Y-37261D01*
X34257Y-37261D01*
X34295Y-37280D01*
X34314Y-37300D01*
X34333Y-37338D01*
X34333Y-37376D01*
X34314Y-37433D01*
X34085Y-37661D01*
X34333Y-37661D01*
X34676Y-37395D02*
X34676Y-37661D01*
X34580Y-37242D02*
X34485Y-37528D01*
X34733Y-37528D01*
X47895Y-16261D02*
X47895Y-16585D01*
X47914Y-16623D01*
X47933Y-16642D01*
X47971Y-16661D01*
X48047Y-16661D01*
X48085Y-16642D01*
X48104Y-16623D01*
X48123Y-16585D01*
X48123Y-16261D01*
X48333Y-16661D02*
X48409Y-16661D01*
X48447Y-16642D01*
X48466Y-16623D01*
X48504Y-16566D01*
X48523Y-16490D01*
X48523Y-16338D01*
X48504Y-16300D01*
X48485Y-16280D01*
X48447Y-16261D01*
X48371Y-16261D01*
X48333Y-16280D01*
X48314Y-16300D01*
X48295Y-16338D01*
X48295Y-16433D01*
X48314Y-16471D01*
X48333Y-16490D01*
X48371Y-16509D01*
X48447Y-16509D01*
X48485Y-16490D01*
X48504Y-16471D01*
X48523Y-16433D01*
X54754Y-16261D02*
X54754Y-16585D01*
X54773Y-16623D01*
X54792Y-16642D01*
X54830Y-16661D01*
X54907Y-16661D01*
X54945Y-16642D01*
X54964Y-16623D01*
X54983Y-16585D01*
X54983Y-16261D01*
X55383Y-16661D02*
X55154Y-16661D01*
X55269Y-16661D02*
X55269Y-16261D01*
X55230Y-16319D01*
X55192Y-16357D01*
X55154Y-16376D01*
X55630Y-16261D02*
X55669Y-16261D01*
X55707Y-16280D01*
X55726Y-16300D01*
X55745Y-16338D01*
X55764Y-16414D01*
X55764Y-16509D01*
X55745Y-16585D01*
X55726Y-16623D01*
X55707Y-16642D01*
X55669Y-16661D01*
X55630Y-16661D01*
X55592Y-16642D01*
X55573Y-16623D01*
X55554Y-16585D01*
X55535Y-16509D01*
X55535Y-16414D01*
X55554Y-16338D01*
X55573Y-16300D01*
X55592Y-16280D01*
X55630Y-16261D01*
X54845Y-9261D02*
X54845Y-9585D01*
X54864Y-9623D01*
X54883Y-9642D01*
X54921Y-9661D01*
X54997Y-9661D01*
X55035Y-9642D01*
X55054Y-9623D01*
X55073Y-9585D01*
X55073Y-9261D01*
X55454Y-9261D02*
X55264Y-9261D01*
X55245Y-9452D01*
X55264Y-9433D01*
X55302Y-9414D01*
X55397Y-9414D01*
X55435Y-9433D01*
X55454Y-9452D01*
X55473Y-9490D01*
X55473Y-9585D01*
X55454Y-9623D01*
X55435Y-9642D01*
X55397Y-9661D01*
X55302Y-9661D01*
X55264Y-9642D01*
X55245Y-9623D01*
X40845Y-16261D02*
X40845Y-16585D01*
X40864Y-16623D01*
X40883Y-16642D01*
X40921Y-16661D01*
X40997Y-16661D01*
X41035Y-16642D01*
X41054Y-16623D01*
X41073Y-16585D01*
X41073Y-16261D01*
X41321Y-16433D02*
X41283Y-16414D01*
X41264Y-16395D01*
X41245Y-16357D01*
X41245Y-16338D01*
X41264Y-16300D01*
X41283Y-16280D01*
X41321Y-16261D01*
X41397Y-16261D01*
X41435Y-16280D01*
X41454Y-16300D01*
X41473Y-16338D01*
X41473Y-16357D01*
X41454Y-16395D01*
X41435Y-16414D01*
X41397Y-16433D01*
X41321Y-16433D01*
X41283Y-16452D01*
X41264Y-16471D01*
X41245Y-16509D01*
X41245Y-16585D01*
X41264Y-16623D01*
X41283Y-16642D01*
X41321Y-16661D01*
X41397Y-16661D01*
X41435Y-16642D01*
X41454Y-16623D01*
X41473Y-16585D01*
X41473Y-16509D01*
X41454Y-16471D01*
X41435Y-16452D01*
X41397Y-16433D01*
X47704Y-30261D02*
X47704Y-30585D01*
X47723Y-30623D01*
X47742Y-30642D01*
X47780Y-30661D01*
X47857Y-30661D01*
X47895Y-30642D01*
X47914Y-30623D01*
X47933Y-30585D01*
X47933Y-30261D01*
X48104Y-30300D02*
X48123Y-30280D01*
X48161Y-30261D01*
X48257Y-30261D01*
X48295Y-30280D01*
X48314Y-30300D01*
X48333Y-30338D01*
X48333Y-30376D01*
X48314Y-30433D01*
X48085Y-30661D01*
X48333Y-30661D01*
X48580Y-30261D02*
X48619Y-30261D01*
X48657Y-30280D01*
X48676Y-30300D01*
X48695Y-30338D01*
X48714Y-30414D01*
X48714Y-30509D01*
X48695Y-30585D01*
X48676Y-30623D01*
X48657Y-30642D01*
X48619Y-30661D01*
X48580Y-30661D01*
X48542Y-30642D01*
X48523Y-30623D01*
X48504Y-30585D01*
X48485Y-30509D01*
X48485Y-30414D01*
X48504Y-30338D01*
X48523Y-30300D01*
X48542Y-30280D01*
X48580Y-30261D01*
X33845Y-9261D02*
X33845Y-9585D01*
X33864Y-9623D01*
X33883Y-9642D01*
X33921Y-9661D01*
X33997Y-9661D01*
X34035Y-9642D01*
X34054Y-9623D01*
X34073Y-9585D01*
X34073Y-9261D01*
X34245Y-9300D02*
X34264Y-9280D01*
X34302Y-9261D01*
X34397Y-9261D01*
X34435Y-9280D01*
X34454Y-9300D01*
X34473Y-9338D01*
X34473Y-9376D01*
X34454Y-9433D01*
X34226Y-9661D01*
X34473Y-9661D01*
X40704Y-30261D02*
X40704Y-30585D01*
X40723Y-30623D01*
X40742Y-30642D01*
X40780Y-30661D01*
X40857Y-30661D01*
X40895Y-30642D01*
X40914Y-30623D01*
X40933Y-30585D01*
X40933Y-30261D01*
X41333Y-30661D02*
X41104Y-30661D01*
X41219Y-30661D02*
X41219Y-30261D01*
X41180Y-30319D01*
X41142Y-30357D01*
X41104Y-30376D01*
X41523Y-30661D02*
X41600Y-30661D01*
X41638Y-30642D01*
X41657Y-30623D01*
X41695Y-30566D01*
X41714Y-30490D01*
X41714Y-30338D01*
X41695Y-30300D01*
X41676Y-30280D01*
X41638Y-30261D01*
X41561Y-30261D01*
X41523Y-30280D01*
X41504Y-30300D01*
X41485Y-30338D01*
X41485Y-30433D01*
X41504Y-30471D01*
X41523Y-30490D01*
X41561Y-30509D01*
X41638Y-30509D01*
X41676Y-30490D01*
X41695Y-30471D01*
X41714Y-30433D01*
X40895Y-9261D02*
X40895Y-9585D01*
X40914Y-9623D01*
X40933Y-9642D01*
X40971Y-9661D01*
X41047Y-9661D01*
X41085Y-9642D01*
X41104Y-9623D01*
X41123Y-9585D01*
X41123Y-9261D01*
X41276Y-9261D02*
X41523Y-9261D01*
X41390Y-9414D01*
X41447Y-9414D01*
X41485Y-9433D01*
X41504Y-9452D01*
X41523Y-9490D01*
X41523Y-9585D01*
X41504Y-9623D01*
X41485Y-9642D01*
X41447Y-9661D01*
X41333Y-9661D01*
X41295Y-9642D01*
X41276Y-9623D01*
X54704Y-30261D02*
X54704Y-30585D01*
X54723Y-30623D01*
X54742Y-30642D01*
X54780Y-30661D01*
X54857Y-30661D01*
X54895Y-30642D01*
X54914Y-30623D01*
X54933Y-30585D01*
X54933Y-30261D01*
X55104Y-30300D02*
X55123Y-30280D01*
X55161Y-30261D01*
X55257Y-30261D01*
X55295Y-30280D01*
X55314Y-30300D01*
X55333Y-30338D01*
X55333Y-30376D01*
X55314Y-30433D01*
X55085Y-30661D01*
X55333Y-30661D01*
X55714Y-30661D02*
X55485Y-30661D01*
X55600Y-30661D02*
X55600Y-30261D01*
X55561Y-30319D01*
X55523Y-30357D01*
X55485Y-30376D01*
G54D18*
X13466Y-40511D02*
X13466Y-40797D01*
X13447Y-40854D01*
X13409Y-40892D01*
X13352Y-40911D01*
X13314Y-40911D01*
X13619Y-40511D02*
X13866Y-40511D01*
X13733Y-40664D01*
X13790Y-40664D01*
X13828Y-40683D01*
X13847Y-40702D01*
X13866Y-40740D01*
X13866Y-40835D01*
X13847Y-40873D01*
X13828Y-40892D01*
X13790Y-40911D01*
X13676Y-40911D01*
X13638Y-40892D01*
X13619Y-40873D01*
G54D24*
X16541Y-8158D02*
X16525Y-8175D01*
X16475Y-8191D01*
X16441Y-8191D01*
X16391Y-8175D01*
X16358Y-8141D01*
X16341Y-8108D01*
X16325Y-8041D01*
X16325Y-7991D01*
X16341Y-7925D01*
X16358Y-7891D01*
X16391Y-7858D01*
X16441Y-7841D01*
X16475Y-7841D01*
X16525Y-7858D01*
X16541Y-7875D01*
X16675Y-7875D02*
X16691Y-7858D01*
X16725Y-7841D01*
X16808Y-7841D01*
X16841Y-7858D01*
X16858Y-7875D01*
X16875Y-7908D01*
X16875Y-7941D01*
X16858Y-7991D01*
X16658Y-8191D01*
X16875Y-8191D01*
G54D23*
X24395Y-8211D02*
X24395Y-8535D01*
X24414Y-8573D01*
X24433Y-8592D01*
X24471Y-8611D01*
X24547Y-8611D01*
X24585Y-8592D01*
X24604Y-8573D01*
X24623Y-8535D01*
X24623Y-8211D01*
X25023Y-8611D02*
X24795Y-8611D01*
X24909Y-8611D02*
X24909Y-8211D01*
X24871Y-8269D01*
X24833Y-8307D01*
X24795Y-8326D01*
X47845Y-9261D02*
X47845Y-9585D01*
X47864Y-9623D01*
X47883Y-9642D01*
X47921Y-9661D01*
X47997Y-9661D01*
X48035Y-9642D01*
X48054Y-9623D01*
X48073Y-9585D01*
X48073Y-9261D01*
X48435Y-9395D02*
X48435Y-9661D01*
X48340Y-9242D02*
X48245Y-9528D01*
X48492Y-9528D01*
X24395Y-15261D02*
X24395Y-15585D01*
X24414Y-15623D01*
X24433Y-15642D01*
X24471Y-15661D01*
X24547Y-15661D01*
X24585Y-15642D01*
X24604Y-15623D01*
X24623Y-15585D01*
X24623Y-15261D01*
X24985Y-15261D02*
X24909Y-15261D01*
X24871Y-15280D01*
X24852Y-15300D01*
X24814Y-15357D01*
X24795Y-15433D01*
X24795Y-15585D01*
X24814Y-15623D01*
X24833Y-15642D01*
X24871Y-15661D01*
X24947Y-15661D01*
X24985Y-15642D01*
X25004Y-15623D01*
X25023Y-15585D01*
X25023Y-15490D01*
X25004Y-15452D01*
X24985Y-15433D01*
X24947Y-15414D01*
X24871Y-15414D01*
X24833Y-15433D01*
X24814Y-15452D01*
X24795Y-15490D01*
X24204Y-22261D02*
X24204Y-22585D01*
X24223Y-22623D01*
X24242Y-22642D01*
X24280Y-22661D01*
X24357Y-22661D01*
X24395Y-22642D01*
X24414Y-22623D01*
X24433Y-22585D01*
X24433Y-22261D01*
X24833Y-22661D02*
X24604Y-22661D01*
X24719Y-22661D02*
X24719Y-22261D01*
X24680Y-22319D01*
X24642Y-22357D01*
X24604Y-22376D01*
X25214Y-22661D02*
X24985Y-22661D01*
X25100Y-22661D02*
X25100Y-22261D01*
X25061Y-22319D01*
X25023Y-22357D01*
X24985Y-22376D01*
X40704Y-23261D02*
X40704Y-23585D01*
X40723Y-23623D01*
X40742Y-23642D01*
X40780Y-23661D01*
X40857Y-23661D01*
X40895Y-23642D01*
X40914Y-23623D01*
X40933Y-23585D01*
X40933Y-23261D01*
X41333Y-23661D02*
X41104Y-23661D01*
X41219Y-23661D02*
X41219Y-23261D01*
X41180Y-23319D01*
X41142Y-23357D01*
X41104Y-23376D01*
X41466Y-23261D02*
X41714Y-23261D01*
X41580Y-23414D01*
X41638Y-23414D01*
X41676Y-23433D01*
X41695Y-23452D01*
X41714Y-23490D01*
X41714Y-23585D01*
X41695Y-23623D01*
X41676Y-23642D01*
X41638Y-23661D01*
X41523Y-23661D01*
X41485Y-23642D01*
X41466Y-23623D01*
G54D25*
X15742Y-26832D02*
X15742Y-27196D01*
X15764Y-27239D01*
X15785Y-27260D01*
X15828Y-27282D01*
X15914Y-27282D01*
X15957Y-27260D01*
X15978Y-27239D01*
X16000Y-27196D01*
X16000Y-26832D01*
X16450Y-27282D02*
X16192Y-27282D01*
X16321Y-27282D02*
X16321Y-26832D01*
X16278Y-26896D01*
X16235Y-26939D01*
X16192Y-26960D01*
X16835Y-26832D02*
X16750Y-26832D01*
X16707Y-26853D01*
X16685Y-26875D01*
X16642Y-26939D01*
X16621Y-27025D01*
X16621Y-27196D01*
X16642Y-27239D01*
X16664Y-27260D01*
X16707Y-27282D01*
X16792Y-27282D01*
X16835Y-27260D01*
X16857Y-27239D01*
X16878Y-27196D01*
X16878Y-27089D01*
X16857Y-27046D01*
X16835Y-27025D01*
X16792Y-27003D01*
X16707Y-27003D01*
X16664Y-27025D01*
X16642Y-27046D01*
X16621Y-27089D01*
G54D26*
G54D23*
X24204Y-29261D02*
X24204Y-29585D01*
X24223Y-29623D01*
X24242Y-29642D01*
X24280Y-29661D01*
X24357Y-29661D01*
X24395Y-29642D01*
X24414Y-29623D01*
X24433Y-29585D01*
X24433Y-29261D01*
X24833Y-29661D02*
X24604Y-29661D01*
X24719Y-29661D02*
X24719Y-29261D01*
X24680Y-29319D01*
X24642Y-29357D01*
X24604Y-29376D01*
X24966Y-29261D02*
X25233Y-29261D01*
X25061Y-29661D01*
X54704Y-37261D02*
X54704Y-37585D01*
X54723Y-37623D01*
X54742Y-37642D01*
X54780Y-37661D01*
X54857Y-37661D01*
X54895Y-37642D01*
X54914Y-37623D01*
X54933Y-37585D01*
X54933Y-37261D01*
X55104Y-37300D02*
X55123Y-37280D01*
X55161Y-37261D01*
X55257Y-37261D01*
X55295Y-37280D01*
X55314Y-37300D01*
X55333Y-37338D01*
X55333Y-37376D01*
X55314Y-37433D01*
X55085Y-37661D01*
X55333Y-37661D01*
X55485Y-37300D02*
X55504Y-37280D01*
X55542Y-37261D01*
X55638Y-37261D01*
X55676Y-37280D01*
X55695Y-37300D01*
X55714Y-37338D01*
X55714Y-37376D01*
X55695Y-37433D01*
X55466Y-37661D01*
X55714Y-37661D01*
X24204Y-36261D02*
X24204Y-36585D01*
X24223Y-36623D01*
X24242Y-36642D01*
X24280Y-36661D01*
X24357Y-36661D01*
X24395Y-36642D01*
X24414Y-36623D01*
X24433Y-36585D01*
X24433Y-36261D01*
X24604Y-36300D02*
X24623Y-36280D01*
X24661Y-36261D01*
X24757Y-36261D01*
X24795Y-36280D01*
X24814Y-36300D01*
X24833Y-36338D01*
X24833Y-36376D01*
X24814Y-36433D01*
X24585Y-36661D01*
X24833Y-36661D01*
X24966Y-36261D02*
X25214Y-36261D01*
X25080Y-36414D01*
X25138Y-36414D01*
X25176Y-36433D01*
X25195Y-36452D01*
X25214Y-36490D01*
X25214Y-36585D01*
X25195Y-36623D01*
X25176Y-36642D01*
X25138Y-36661D01*
X25023Y-36661D01*
X24985Y-36642D01*
X24966Y-36623D01*
G54D21*
X26420Y-7986D02*
X26411Y-8000D01*
X26385Y-8013D01*
X26368Y-8013D01*
X26342Y-8000D01*
X26325Y-7973D01*
X26317Y-7946D01*
X26308Y-7893D01*
X26308Y-7853D01*
X26317Y-7800D01*
X26325Y-7773D01*
X26342Y-7746D01*
X26368Y-7733D01*
X26385Y-7733D01*
X26411Y-7746D01*
X26420Y-7760D01*
X26591Y-8013D02*
X26488Y-8013D01*
X26540Y-8013D02*
X26540Y-7733D01*
X26522Y-7773D01*
X26505Y-7800D01*
X26488Y-7813D01*
G54D15*
X15616Y-16960D02*
X15673Y-16982D01*
X15769Y-16982D01*
X15807Y-16960D01*
X15826Y-16939D01*
X15845Y-16896D01*
X15845Y-16853D01*
X15826Y-16810D01*
X15807Y-16789D01*
X15769Y-16767D01*
X15692Y-16746D01*
X15654Y-16725D01*
X15635Y-16703D01*
X15616Y-16660D01*
X15616Y-16617D01*
X15635Y-16575D01*
X15654Y-16553D01*
X15692Y-16532D01*
X15788Y-16532D01*
X15845Y-16553D01*
X15978Y-16532D02*
X16073Y-16982D01*
X16150Y-16660D01*
X16226Y-16982D01*
X16321Y-16532D01*
X16683Y-16982D02*
X16454Y-16982D01*
X16569Y-16982D02*
X16569Y-16532D01*
X16530Y-16596D01*
X16492Y-16639D01*
X16454Y-16660D01*
X16411Y-14447D02*
X16411Y-14676D01*
X16411Y-14561D02*
X16011Y-14561D01*
X16069Y-14599D01*
X16107Y-14638D01*
X16126Y-14676D01*
X16050Y-14295D02*
X16030Y-14276D01*
X16011Y-14238D01*
X16011Y-14142D01*
X16030Y-14104D01*
X16050Y-14085D01*
X16088Y-14066D01*
X16126Y-14066D01*
X16183Y-14085D01*
X16411Y-14314D01*
X16411Y-14066D01*
X16411Y-13895D02*
X16011Y-13895D01*
X16011Y-13742D01*
X16030Y-13704D01*
X16050Y-13685D01*
X16088Y-13666D01*
X16145Y-13666D01*
X16183Y-13685D01*
X16202Y-13704D01*
X16221Y-13742D01*
X16221Y-13895D01*
X16011Y-13419D02*
X16011Y-13342D01*
X16030Y-13304D01*
X16069Y-13266D01*
X16145Y-13247D01*
X16278Y-13247D01*
X16354Y-13266D01*
X16392Y-13304D01*
X16411Y-13342D01*
X16411Y-13419D01*
X16392Y-13457D01*
X16354Y-13495D01*
X16278Y-13514D01*
X16145Y-13514D01*
X16069Y-13495D01*
X16030Y-13457D01*
X16011Y-13419D01*
X16392Y-13095D02*
X16411Y-13038D01*
X16411Y-12942D01*
X16392Y-12904D01*
X16373Y-12885D01*
X16335Y-12866D01*
X16297Y-12866D01*
X16259Y-12885D01*
X16240Y-12904D01*
X16221Y-12942D01*
X16202Y-13019D01*
X16183Y-13057D01*
X16164Y-13076D01*
X16126Y-13095D01*
X16088Y-13095D01*
X16050Y-13076D01*
X16030Y-13057D01*
X16011Y-13019D01*
X16011Y-12923D01*
X16030Y-12866D01*
X16450Y-12790D02*
X16450Y-12485D01*
X16392Y-12409D02*
X16411Y-12352D01*
X16411Y-12257D01*
X16392Y-12219D01*
X16373Y-12200D01*
X16335Y-12180D01*
X16297Y-12180D01*
X16259Y-12200D01*
X16240Y-12219D01*
X16221Y-12257D01*
X16202Y-12333D01*
X16183Y-12371D01*
X16164Y-12390D01*
X16126Y-12409D01*
X16088Y-12409D01*
X16050Y-12390D01*
X16030Y-12371D01*
X16011Y-12333D01*
X16011Y-12238D01*
X16030Y-12180D01*
X16011Y-12047D02*
X16411Y-11952D01*
X16126Y-11876D01*
X16411Y-11800D01*
X16011Y-11704D01*
G54D12*
X13041Y-15258D02*
X13041Y-15758D01*
X13011Y-15858D01*
X12952Y-15924D01*
X12863Y-15957D01*
X12803Y-15957D01*
X13309Y-15325D02*
X13339Y-15292D01*
X13398Y-15258D01*
X13547Y-15258D01*
X13607Y-15292D01*
X13636Y-15325D01*
X13666Y-15392D01*
X13666Y-15458D01*
X13636Y-15558D01*
X13279Y-15957D01*
X13666Y-15957D01*
G54D23*
X63211Y-26033D02*
X63497Y-26033D01*
X63554Y-26052D01*
X63592Y-26090D01*
X63611Y-26147D01*
X63611Y-26185D01*
X63211Y-25652D02*
X63211Y-25842D01*
X63402Y-25861D01*
X63383Y-25842D01*
X63364Y-25804D01*
X63364Y-25709D01*
X63383Y-25671D01*
X63402Y-25652D01*
X63440Y-25633D01*
X63535Y-25633D01*
X63573Y-25652D01*
X63592Y-25671D01*
X63611Y-25709D01*
X63611Y-25804D01*
X63592Y-25842D01*
X63573Y-25861D01*
G54D12*
X10086Y-25359D02*
X10822Y-25359D01*
X10969Y-25389D01*
X11067Y-25449D01*
X11116Y-25539D01*
X11116Y-25599D01*
X11116Y-24730D02*
X11116Y-25090D01*
X11116Y-24910D02*
X10086Y-24910D01*
X10234Y-24970D01*
X10332Y-25030D01*
X10381Y-25090D01*
M02*
