M48
;DRILL file {Pcbnew (2011-11-27 BZR 3249)-stable} date 22/02/2012 12:04:38 PM
;FORMAT={-:-/ absolute / inch / decimal}
FMAT,2
INCH,TZ
T1C0.015
T2C0.032
T3C0.035
T4C0.079
T5C0.100
T6C0.120
%
G90
G05
M72
T1
X0.635Y2.890
X0.710Y2.620
X0.735Y2.895
X0.830Y2.350
X0.840Y2.420
X0.870Y2.580
X0.905Y2.485
X0.905Y2.610
X0.910Y3.330
X0.915Y2.230
X0.945Y1.055
X0.945Y1.270
X0.945Y1.460
X0.945Y1.520
X0.960Y3.435
X0.965Y2.470
X0.965Y2.625
X0.970Y2.320
X0.975Y2.845
X0.990Y1.890
X0.990Y3.325
X0.995Y3.540
X1.015Y2.490
X1.035Y3.270
X1.040Y1.890
X1.040Y2.040
X1.050Y3.625
X1.055Y3.675
X1.065Y2.490
X1.085Y2.645
X1.090Y1.840
X1.090Y2.140
X1.115Y1.790
X1.115Y3.940
X1.135Y3.010
X1.165Y3.940
X1.200Y1.695
X1.210Y2.645
X1.215Y2.490
X1.240Y1.865
X1.240Y4.090
X1.265Y1.490
X1.270Y3.715
X1.290Y2.490
X1.305Y2.655
X1.315Y4.150
X1.370Y2.480
X1.385Y4.185
X1.395Y4.365
X1.405Y2.770
X1.415Y2.315
X1.425Y2.475
X1.430Y4.330
X1.450Y2.745
X1.465Y2.290
X1.465Y2.890
X1.465Y3.020
X1.470Y2.960
X1.475Y4.210
X1.485Y3.625
X1.485Y3.670
X1.485Y4.310
X1.490Y0.990
X1.490Y2.615
X1.500Y3.315
X1.505Y2.515
X1.505Y4.015
X1.510Y1.215
X1.510Y1.915
X1.510Y3.045
X1.515Y2.265
X1.515Y3.725
X1.530Y3.600
X1.540Y4.285
X1.555Y3.750
X1.560Y3.075
X1.565Y2.240
X1.570Y3.560
X1.595Y3.780
X1.615Y2.215
X1.640Y2.390
X1.665Y2.190
X1.715Y2.165
X1.720Y2.380
X1.865Y0.990
X1.865Y1.040
X1.865Y1.090
X1.865Y1.140
X1.865Y1.190
X1.865Y1.240
X1.865Y1.290
X1.865Y1.340
X1.865Y1.390
X1.865Y1.440
X1.865Y1.690
X1.865Y1.740
X1.865Y1.790
X1.865Y1.840
X1.865Y1.890
X1.865Y1.940
X1.865Y1.990
X1.865Y2.040
X1.865Y2.090
X1.865Y2.140
X1.865Y2.390
X1.865Y2.440
X1.865Y2.490
X1.865Y2.540
X1.865Y2.590
X1.865Y2.640
X1.865Y2.690
X1.865Y2.740
X1.865Y2.790
X1.865Y2.840
X1.865Y3.090
X1.865Y3.140
X1.865Y3.190
X1.865Y3.240
X1.865Y3.290
X1.865Y3.340
X1.865Y3.390
X1.865Y3.440
X1.865Y3.490
X1.865Y3.540
X1.865Y3.790
X1.865Y3.840
X1.865Y3.890
X1.865Y3.940
X1.865Y3.990
X1.865Y4.040
X1.865Y4.090
X1.865Y4.140
X1.865Y4.190
X1.865Y4.240
X1.940Y1.390
X1.990Y1.140
X1.990Y1.340
X2.040Y1.240
X2.040Y1.315
X2.065Y2.890
X2.110Y1.690
X2.110Y2.400
X2.115Y3.090
X2.115Y3.785
X2.120Y0.990
X2.240Y0.990
X2.240Y1.090
X2.240Y1.140
X2.240Y1.190
X2.240Y1.240
X2.240Y1.290
X2.240Y1.340
X2.240Y1.390
X2.240Y1.440
X2.240Y1.690
X2.240Y1.790
X2.240Y1.840
X2.240Y1.890
X2.240Y1.940
X2.240Y1.990
X2.240Y2.040
X2.240Y2.090
X2.240Y2.140
X2.240Y2.390
X2.240Y2.490
X2.240Y2.540
X2.240Y2.590
X2.240Y2.640
X2.240Y2.690
X2.240Y2.740
X2.240Y2.790
X2.240Y2.840
X2.240Y3.090
X2.240Y3.190
X2.240Y3.240
X2.240Y3.290
X2.240Y3.340
X2.240Y3.390
X2.240Y3.440
X2.240Y3.490
X2.240Y3.540
X2.240Y3.790
X2.240Y3.890
X2.240Y3.940
X2.240Y3.990
X2.240Y4.040
X2.240Y4.090
X2.240Y4.140
X2.240Y4.190
X2.240Y4.240
X2.525Y1.185
X2.525Y1.890
X2.525Y2.590
X2.525Y3.290
X2.525Y3.985
X2.715Y1.220
X2.715Y1.415
X2.715Y2.615
X2.715Y2.815
X2.715Y4.010
X2.720Y1.915
X2.720Y2.115
X2.720Y3.315
X2.720Y3.515
X2.720Y4.215
X2.855Y1.115
X2.860Y1.360
X2.860Y1.815
X2.860Y2.130
X2.860Y2.530
X2.860Y2.760
X2.860Y2.825
X2.860Y3.235
X2.860Y3.530
X2.860Y3.935
X2.860Y4.185
X2.860Y4.230
X2.865Y1.430
X2.865Y3.465
X2.890Y2.090
X3.020Y1.100
X3.020Y1.415
X3.020Y1.805
X3.020Y2.495
X3.020Y3.195
X3.020Y3.900
X3.020Y4.215
X3.025Y2.115
X3.025Y2.815
X3.025Y3.515
X3.225Y1.220
X3.225Y1.920
X3.225Y2.615
X3.225Y3.315
X3.225Y4.015
X3.355Y1.215
X3.355Y1.915
X3.355Y2.615
X3.355Y3.320
X3.355Y4.015
X3.555Y2.525
X3.555Y2.715
X3.560Y1.215
X3.560Y1.315
X3.560Y1.415
X3.560Y1.820
X3.560Y2.015
X3.560Y2.095
X3.560Y2.620
X3.560Y2.790
X3.560Y3.235
X3.560Y3.315
X3.560Y3.415
X3.560Y3.500
X3.560Y3.925
X3.560Y4.015
X3.560Y4.115
X3.565Y1.105
X3.565Y1.915
X3.565Y4.195
X3.585Y4.260
X3.595Y1.465
X3.595Y2.850
X3.595Y3.560
X3.600Y2.170
X3.715Y1.095
X3.720Y1.415
X3.720Y1.800
X3.720Y2.115
X3.720Y2.495
X3.720Y3.200
X3.720Y3.900
X3.720Y4.215
X3.725Y2.815
X3.725Y3.520
X3.925Y1.215
X3.925Y1.915
X3.925Y2.615
X3.925Y3.315
X3.925Y4.015
X4.055Y1.215
X4.055Y1.915
X4.055Y2.615
X4.055Y3.315
X4.055Y4.015
X4.255Y1.815
X4.255Y1.915
X4.255Y2.615
X4.255Y2.715
X4.255Y2.810
X4.255Y3.505
X4.260Y1.315
X4.260Y1.415
X4.260Y2.015
X4.260Y2.085
X4.260Y2.530
X4.260Y3.235
X4.260Y3.315
X4.260Y3.415
X4.260Y3.940
X4.260Y4.015
X4.260Y4.115
X4.260Y4.200
X4.265Y1.215
X4.265Y2.890
X4.265Y3.590
X4.265Y4.290
X4.270Y1.135
X4.285Y1.510
X4.300Y2.155
X4.415Y1.090
X4.420Y1.415
X4.420Y2.490
X4.420Y3.200
X4.420Y3.900
X4.425Y1.800
X4.425Y2.115
X4.425Y2.815
X4.425Y3.525
X4.425Y4.215
X4.625Y1.220
X4.625Y1.910
X4.625Y2.615
X4.625Y3.315
X4.625Y4.015
X4.755Y1.220
X4.755Y1.910
X4.755Y2.610
X4.755Y3.310
X4.755Y4.010
X4.955Y1.315
X4.955Y2.805
X4.955Y4.015
X4.955Y4.195
X4.960Y1.215
X4.960Y1.415
X4.960Y1.815
X4.960Y1.915
X4.960Y2.090
X4.960Y2.525
X4.960Y2.715
X4.960Y3.230
X4.960Y3.325
X4.960Y3.500
X4.960Y3.585
X4.960Y3.940
X4.960Y4.115
X4.960Y4.285
X4.965Y1.130
X4.965Y2.645
X4.965Y2.890
X4.970Y2.020
X4.970Y3.420
X4.985Y2.160
X5.035Y1.485
X5.115Y1.090
X5.120Y1.415
X5.120Y1.800
X5.120Y2.115
X5.120Y2.500
X5.120Y2.815
X5.120Y3.200
X5.120Y3.515
X5.120Y3.900
X5.125Y4.215
X5.455Y1.210
X5.455Y1.940
X5.455Y2.635
X5.455Y3.285
X5.455Y3.830
T2
X0.625Y1.250
X0.625Y1.350
X0.625Y1.450
X0.625Y1.550
X0.625Y1.650
X0.725Y1.250
X0.725Y1.350
X0.725Y1.450
X0.725Y1.550
X0.725Y1.650
X6.040Y1.790
X6.040Y1.890
X6.040Y1.990
X6.040Y2.090
X6.040Y2.190
X6.040Y2.290
X6.040Y2.390
X6.040Y2.490
X6.040Y2.590
X6.040Y2.690
X6.040Y2.790
X6.040Y2.890
X6.040Y2.990
X6.040Y3.090
X6.040Y3.190
X6.040Y3.290
X6.040Y3.390
X6.040Y3.490
X6.040Y3.590
X6.040Y3.690
X6.040Y3.790
X6.040Y3.890
X6.040Y3.990
X6.040Y4.090
X6.040Y4.190
X6.140Y1.790
X6.140Y1.890
X6.140Y1.990
X6.140Y2.090
X6.140Y2.190
X6.140Y2.290
X6.140Y2.390
X6.140Y2.490
X6.140Y2.590
X6.140Y2.690
X6.140Y2.790
X6.140Y2.890
X6.140Y2.990
X6.140Y3.090
X6.140Y3.190
X6.140Y3.290
X6.140Y3.390
X6.140Y3.490
X6.140Y3.590
X6.140Y3.690
X6.140Y3.790
X6.140Y3.890
X6.140Y3.990
X6.140Y4.090
X6.140Y4.190
T3
X1.000Y3.735
X1.000Y3.835
X1.000Y4.465
X1.000Y4.565
T4
X0.800Y3.535
X0.800Y3.935
X0.800Y4.265
X0.800Y4.665
T5
X0.655Y1.020
X0.655Y1.880
X6.110Y1.560
X6.110Y4.420
T6
X0.700Y0.700
X1.300Y4.800
X1.600Y1.550
X5.800Y1.550
X5.800Y4.150
X6.065Y0.700
X6.065Y4.800
T0
M30
