M48
INCH,TZ
T1C0.015
T2C0.025
T3C0.032
T4C0.035
T5C0.050
T6C0.060
T7C0.079
T8C0.100
T9C0.157
%
G90
G05
T1
X13100Y-20100
X13500Y-25000
X13850Y-24050
X13850Y-25300
X13857Y-8790
X13857Y-9390
X14050Y-11600
X14050Y-12100
X14100Y-13600
X14100Y-14050
X14150Y-15600
X14200Y-21500
X14450Y-23900
X14450Y-25450
X14500Y-22400
X14550Y-27650
X14950Y-24100
X15050Y-32900
X15050Y-33250
X15200Y-16100
X15350Y-32450
X15350Y-34000
X15400Y-18850
X15450Y-24100
X15550Y-30650
X15550Y-35300
X15650Y-18500
X15650Y-19900
X15650Y-25650
X15700Y-20750
X15800Y-35700
X15950Y-38600
X16150Y-17750
X16150Y-29300
X16250Y-30350
X16450Y-38600
X16600Y-17700
X16900Y-25650
X16950Y-24100
X17200Y-17850
X17200Y-40100
X17500Y-36350
X17700Y-24100
X17850Y-25750
X17950Y-40700
X18000Y-16650
X18200Y-14000
X18650Y-41050
X18750Y-42850
X18850Y-23900
X18850Y-26900
X18950Y-22350
X19100Y-42500
X19200Y-23150
X19250Y-33350
X19300Y-26650
X19450Y-22100
X19450Y-28100
X19450Y-29400
X19500Y-28800
X19550Y-41300
X19650Y-35450
X19650Y-35900
X19650Y-42300
X19700Y-9100
X19700Y-25350
X19800Y-32350
X19850Y-24350
X19850Y-39350
X19900Y-11350
X19900Y-18350
X19900Y-29650
X19950Y-21850
X19950Y-36450
X20100Y-35200
X20200Y-42050
X20350Y-36700
X20400Y-29950
X20450Y-21600
X20500Y-34800
X20750Y-37000
X20950Y-21350
X21200Y-23100
X21450Y-21100
X21950Y-20850
X22000Y-23000
X23450Y-9100
X23450Y-9600
X23450Y-10100
X23450Y-10600
X23450Y-11100
X23450Y-11600
X23450Y-12100
X23450Y-12600
X23450Y-13100
X23450Y-13600
X23450Y-16100
X23450Y-16600
X23450Y-17100
X23450Y-17600
X23450Y-18100
X23450Y-18600
X23450Y-19100
X23450Y-19600
X23450Y-20100
X23450Y-20600
X23450Y-23100
X23450Y-23600
X23450Y-24100
X23450Y-24600
X23450Y-25100
X23450Y-25600
X23450Y-26100
X23450Y-26600
X23450Y-27100
X23450Y-27600
X23450Y-30100
X23450Y-30600
X23450Y-31100
X23450Y-31600
X23450Y-32100
X23450Y-32600
X23450Y-33100
X23450Y-33600
X23450Y-34100
X23450Y-34600
X23450Y-37100
X23450Y-37600
X23450Y-38100
X23450Y-38600
X23450Y-39100
X23450Y-39600
X23450Y-40100
X23450Y-40600
X23450Y-41100
X23450Y-41600
X24200Y-13100
X24700Y-10600
X24700Y-12600
X25200Y-11600
X25200Y-12350
X25450Y-28100
X25900Y-16100
X25900Y-23200
X25950Y-30100
X25950Y-37050
X26000Y-9100
X27200Y-9100
X27200Y-10100
X27200Y-10600
X27200Y-11100
X27200Y-11600
X27200Y-12100
X27200Y-12600
X27200Y-13100
X27200Y-13600
X27200Y-16100
X27200Y-17100
X27200Y-17600
X27200Y-18100
X27200Y-18600
X27200Y-19100
X27200Y-19600
X27200Y-20100
X27200Y-20600
X27200Y-23100
X27200Y-24100
X27200Y-24600
X27200Y-25100
X27200Y-25600
X27200Y-26100
X27200Y-26600
X27200Y-27100
X27200Y-27600
X27200Y-30100
X27200Y-31100
X27200Y-31600
X27200Y-32100
X27200Y-32600
X27200Y-33100
X27200Y-33600
X27200Y-34100
X27200Y-34600
X27200Y-37100
X27200Y-38100
X27200Y-38600
X27200Y-39100
X27200Y-39600
X27200Y-40100
X27200Y-40600
X27200Y-41100
X27200Y-41600
X30050Y-11050
X30050Y-18100
X30050Y-25100
X30050Y-32100
X30050Y-39050
X31350Y-32350
X31350Y-34350
X31350Y-39300
X31350Y-41350
X31375Y-25350
X31375Y-27350
X31525Y-11400
X31525Y-13350
X31550Y-18350
X31550Y-20350
X33350Y-10350
X33400Y-12800
X33400Y-17350
X33400Y-20500
X33400Y-24500
X33400Y-26800
X33400Y-27450
X33400Y-31550
X33400Y-34500
X33400Y-38550
X33400Y-41050
X33400Y-41500
X33450Y-13500
X33450Y-33850
X33700Y-20100
X35000Y-10200
X35000Y-13350
X35000Y-17250
X35000Y-24150
X35000Y-31150
X35000Y-38200
X35000Y-41350
X35050Y-20350
X35050Y-27350
X35050Y-34350
X37050Y-11600
X37050Y-18600
X37050Y-25625
X37050Y-32650
X37050Y-39350
X37700Y-13150
X38350Y-11600
X38350Y-18600
X38350Y-25625
X38350Y-32650
X38350Y-39350
X40350Y-24450
X40350Y-26350
X40400Y-11350
X40400Y-12350
X40400Y-13350
X40400Y-17400
X40400Y-19350
X40400Y-20150
X40400Y-25400
X40400Y-27100
X40400Y-31550
X40400Y-32350
X40400Y-33350
X40400Y-34200
X40400Y-38450
X40400Y-39350
X40400Y-40350
X40450Y-10250
X40450Y-18350
X40450Y-41150
X40650Y-41800
X40750Y-13850
X40750Y-27700
X40750Y-34800
X40800Y-20900
X41950Y-10150
X42000Y-13350
X42000Y-17200
X42000Y-20350
X42000Y-24150
X42000Y-31200
X42000Y-38200
X42000Y-41350
X42050Y-27350
X42050Y-34400
X44025Y-18600
X44050Y-11625
X44050Y-25650
X44050Y-32625
X44050Y-39350
X45350Y-18600
X45350Y-25650
X45350Y-32600
X45350Y-39350
X45375Y-11625
X47350Y-17350
X47350Y-18350
X47350Y-25350
X47350Y-26350
X47350Y-27300
X47350Y-34250
X47400Y-12350
X47400Y-13350
X47400Y-19350
X47400Y-20050
X47400Y-24500
X47400Y-31550
X47400Y-32350
X47400Y-33350
X47400Y-38600
X47400Y-39350
X47400Y-40350
X47400Y-41200
X47450Y-11350
X47450Y-28100
X47450Y-35100
X47450Y-42100
X47500Y-10550
X47650Y-14300
X47800Y-20750
X48950Y-10100
X49000Y-13350
X49000Y-24100
X49000Y-31200
X49000Y-38200
X49050Y-17200
X49050Y-20350
X49050Y-27350
X49050Y-34450
X49050Y-41350
X51050Y-11675
X51050Y-18600
X51050Y-25675
X51050Y-32650
X51050Y-39350
X52350Y-11650
X52350Y-18625
X52350Y-25675
X52350Y-32650
X52350Y-39300
X54350Y-12350
X54350Y-27250
X54350Y-39350
X54350Y-41150
X54400Y-11350
X54400Y-13350
X54400Y-17350
X54400Y-18350
X54400Y-20100
X54400Y-24450
X54400Y-26350
X54400Y-31500
X54400Y-32450
X54400Y-34200
X54400Y-35050
X54400Y-38600
X54400Y-40350
X54400Y-42050
X54450Y-10500
X54450Y-25650
X54450Y-28100
X54500Y-19400
X54500Y-33400
X54650Y-20800
X55150Y-14050
X55950Y-10100
X56000Y-13350
X56000Y-17200
X56000Y-20350
X56000Y-24200
X56000Y-27350
X56000Y-31200
X56000Y-34350
X56000Y-38200
X56050Y-41350
X57700Y-29700
X58000Y-35500
X58400Y-35800
X58700Y-28650
X58700Y-34650
X58800Y-36300
X59350Y-11300
X59350Y-18600
X59350Y-25700
X59350Y-32050
X59350Y-37500
X59600Y-36300
X59950Y-23575
X60200Y-36000
X60450Y-25450
X60675Y-23100
X60700Y-23825
X60800Y-35700
X60850Y-22500
X61150Y-21600
X61300Y-35400
X61350Y-21050
X61550Y-20550
X61750Y-20050
X61900Y-35100
X62300Y-19900
X62550Y-17250
X62550Y-17600
X62550Y-17950
X62550Y-18300
X62550Y-18650
X63300Y-36200
X63300Y-36600
X63300Y-37000
X63300Y-37400
T2
X62350Y-21150
X62350Y-21650
X62350Y-22150
X62350Y-22650
X62350Y-23150
X62350Y-23650
X62350Y-24150
X62350Y-24650
X62350Y-25150
X62350Y-25650
X62350Y-26150
X62350Y-26650
X62350Y-27150
X62350Y-27650
X62350Y-28150
X62350Y-28650
X62350Y-29150
X62350Y-29650
X62350Y-30150
X62350Y-30650
X62850Y-21150
X62850Y-21650
X62850Y-22150
X62850Y-22650
X62850Y-23150
X62850Y-23650
X62850Y-24150
X62850Y-24650
X62850Y-25150
X62850Y-25650
X62850Y-26150
X62850Y-26650
X62850Y-27150
X62850Y-27650
X62850Y-28150
X62850Y-28650
X62850Y-29150
X62850Y-29650
X62850Y-30150
X62850Y-30650
T3
X11100Y-11550
X11100Y-12550
X11100Y-13550
X11100Y-14550
X11100Y-15550
X12100Y-11550
X12100Y-12550
X12100Y-13550
X12100Y-14550
X12100Y-15550
T4
X12100Y-33700
X12100Y-34700
X12100Y-40600
X12100Y-41600
T5
X62600Y-20525
X62600Y-31275
T6
X12500Y-22150
X12500Y-24150
X12500Y-26150
X12500Y-28150
T7
X10100Y-31700
X10100Y-35700
X10100Y-38600
X10100Y-42600
T8
X11400Y-9250
X11400Y-17850
X11500Y-21150
X11500Y-29150
T9
X8500Y-23150
X8500Y-27150
T0
M30
