G04 (created by PCBNEW-RS274X (2011-11-27 BZR 3249)-stable) date 27/04/2012 12:24:41 PM*
G01*
G70*
G90*
%MOIN*%
G04 Gerber Fmt 3.4, Leading zero omitted, Abs format*
%FSLAX34Y34*%
G04 APERTURE LIST*
%ADD10C,0.006000*%
%ADD11C,0.120000*%
%ADD12R,0.060000X0.060000*%
%ADD13C,0.060000*%
%ADD14C,0.160000*%
%ADD15C,0.137800*%
%ADD16R,0.060000X0.080000*%
%ADD17R,0.080000X0.060000*%
%ADD18R,0.025000X0.045000*%
%ADD19R,0.147600X0.100400*%
%ADD20C,0.025000*%
%ADD21C,0.008000*%
G04 APERTURE END LIST*
G54D10*
G54D11*
X61100Y-15600D03*
X61100Y-44200D03*
G54D12*
X60400Y-17900D03*
G54D13*
X61400Y-17900D03*
X60400Y-18900D03*
X61400Y-18900D03*
X60400Y-19900D03*
X61400Y-19900D03*
X60400Y-20900D03*
X61400Y-20900D03*
X60400Y-21900D03*
X61400Y-21900D03*
X60400Y-22900D03*
X61400Y-22900D03*
X60400Y-23900D03*
X61400Y-23900D03*
X60400Y-24900D03*
X61400Y-24900D03*
X60400Y-25900D03*
X61400Y-25900D03*
X60400Y-26900D03*
X61400Y-26900D03*
X60400Y-27900D03*
X61400Y-27900D03*
X60400Y-28900D03*
X61400Y-28900D03*
X60400Y-29900D03*
X61400Y-29900D03*
X60400Y-30900D03*
X61400Y-30900D03*
X60400Y-31900D03*
X61400Y-31900D03*
X60400Y-32900D03*
X61400Y-32900D03*
X60400Y-33900D03*
X61400Y-33900D03*
X60400Y-34900D03*
X61400Y-34900D03*
X60400Y-35900D03*
X61400Y-35900D03*
X60400Y-36900D03*
X61400Y-36900D03*
X60400Y-37900D03*
X61400Y-37900D03*
X60400Y-38900D03*
X61400Y-38900D03*
X60400Y-39900D03*
X61400Y-39900D03*
X60400Y-40900D03*
X61400Y-40900D03*
X60400Y-41900D03*
X61400Y-41900D03*
G54D14*
X58000Y-41500D03*
G54D15*
X08000Y-35350D03*
X08000Y-39350D03*
G54D13*
X10000Y-38350D03*
X10000Y-37350D03*
G54D11*
X06550Y-10200D03*
X06550Y-18800D03*
G54D12*
X07250Y-16500D03*
G54D13*
X06250Y-16500D03*
X07250Y-15500D03*
X06250Y-15500D03*
X07250Y-14500D03*
X06250Y-14500D03*
X07250Y-13500D03*
X06250Y-13500D03*
X07250Y-12500D03*
X06250Y-12500D03*
G54D14*
X16000Y-15500D03*
X58000Y-15500D03*
X13000Y-48000D03*
X60650Y-48000D03*
X07000Y-07000D03*
G54D16*
X53250Y-11150D03*
X54550Y-11150D03*
X15750Y-10650D03*
X17050Y-10650D03*
X32250Y-13150D03*
X33550Y-13150D03*
X46250Y-20150D03*
X47550Y-20150D03*
X32250Y-18150D03*
X33550Y-18150D03*
X39250Y-18150D03*
X40550Y-18150D03*
X53250Y-20150D03*
X54550Y-20150D03*
X32250Y-25150D03*
X33550Y-25150D03*
X46250Y-25150D03*
X47550Y-25150D03*
X39250Y-25150D03*
X40550Y-25150D03*
X15750Y-25650D03*
X17050Y-25650D03*
G54D17*
X06350Y-28300D03*
X06350Y-27000D03*
G54D16*
X32250Y-11150D03*
X33550Y-11150D03*
X46250Y-11150D03*
X47550Y-11150D03*
X39250Y-11150D03*
X40550Y-11150D03*
X15750Y-11650D03*
X17050Y-11650D03*
X15750Y-17650D03*
X17050Y-17650D03*
X46250Y-13150D03*
X47550Y-13150D03*
X39250Y-13150D03*
X40550Y-13150D03*
X53250Y-18150D03*
X54550Y-18150D03*
X15750Y-13650D03*
X17050Y-13650D03*
X15750Y-12650D03*
X17050Y-12650D03*
X53250Y-13150D03*
X54550Y-13150D03*
X53250Y-39150D03*
X54550Y-39150D03*
X15750Y-38650D03*
X17050Y-38650D03*
X39250Y-39150D03*
X40550Y-39150D03*
X32250Y-41150D03*
X33550Y-41150D03*
X53250Y-41150D03*
X54550Y-41150D03*
X15750Y-40650D03*
X17050Y-40650D03*
X15750Y-41650D03*
X17050Y-41650D03*
X39250Y-41150D03*
X40550Y-41150D03*
X15750Y-39650D03*
X17050Y-39650D03*
X32250Y-39150D03*
X33550Y-39150D03*
X53250Y-34150D03*
X54550Y-34150D03*
X32250Y-32150D03*
X33550Y-32150D03*
X15750Y-31650D03*
X17050Y-31650D03*
X39250Y-32150D03*
X40550Y-32150D03*
X39250Y-34150D03*
X40550Y-34150D03*
X46250Y-34150D03*
X47550Y-34150D03*
X32250Y-34150D03*
X33550Y-34150D03*
X15750Y-34650D03*
X17050Y-34650D03*
X46250Y-41150D03*
X47550Y-41150D03*
X46250Y-27150D03*
X47550Y-27150D03*
X39250Y-27150D03*
X40550Y-27150D03*
G54D17*
X07350Y-28300D03*
X07350Y-27000D03*
G54D16*
X15750Y-27650D03*
X17050Y-27650D03*
X53250Y-27150D03*
X54550Y-27150D03*
X15750Y-26650D03*
X17050Y-26650D03*
X39250Y-20150D03*
X40550Y-20150D03*
X15750Y-19650D03*
X17050Y-19650D03*
X46250Y-18150D03*
X47550Y-18150D03*
X15750Y-18650D03*
X17050Y-18650D03*
X15750Y-20650D03*
X17050Y-20650D03*
X32250Y-20150D03*
X33550Y-20150D03*
X15750Y-24650D03*
X17050Y-24650D03*
X53250Y-25150D03*
X54550Y-25150D03*
X32250Y-27150D03*
X33550Y-27150D03*
X15750Y-33650D03*
X17050Y-33650D03*
X46250Y-32150D03*
X47550Y-32150D03*
X53250Y-32150D03*
X54550Y-32150D03*
X15750Y-32650D03*
X17050Y-32650D03*
X46250Y-39150D03*
X47550Y-39150D03*
G54D18*
X11750Y-26850D03*
X11150Y-26850D03*
X11100Y-24900D03*
X11700Y-24900D03*
G54D17*
X37900Y-25150D03*
X37900Y-26150D03*
X37900Y-27150D03*
X37900Y-28150D03*
X34900Y-28150D03*
X34900Y-27150D03*
X34900Y-26150D03*
X34900Y-25150D03*
X44900Y-11150D03*
X44900Y-12150D03*
X44900Y-13150D03*
X44900Y-14150D03*
X41900Y-14150D03*
X41900Y-13150D03*
X41900Y-12150D03*
X41900Y-11150D03*
X30900Y-39150D03*
X30900Y-40150D03*
X30900Y-41150D03*
X30900Y-42150D03*
X27900Y-42150D03*
X27900Y-41150D03*
X27900Y-40150D03*
X27900Y-39150D03*
X44900Y-25150D03*
X44900Y-26150D03*
X44900Y-27150D03*
X44900Y-28150D03*
X41900Y-28150D03*
X41900Y-27150D03*
X41900Y-26150D03*
X41900Y-25150D03*
X44900Y-39150D03*
X44900Y-40150D03*
X44900Y-41150D03*
X44900Y-42150D03*
X41900Y-42150D03*
X41900Y-41150D03*
X41900Y-40150D03*
X41900Y-39150D03*
X37900Y-18150D03*
X37900Y-19150D03*
X37900Y-20150D03*
X37900Y-21150D03*
X34900Y-21150D03*
X34900Y-20150D03*
X34900Y-19150D03*
X34900Y-18150D03*
X44900Y-18150D03*
X44900Y-19150D03*
X44900Y-20150D03*
X44900Y-21150D03*
X41900Y-21150D03*
X41900Y-20150D03*
X41900Y-19150D03*
X41900Y-18150D03*
X37900Y-11150D03*
X37900Y-12150D03*
X37900Y-13150D03*
X37900Y-14150D03*
X34900Y-14150D03*
X34900Y-13150D03*
X34900Y-12150D03*
X34900Y-11150D03*
X30900Y-11150D03*
X30900Y-12150D03*
X30900Y-13150D03*
X30900Y-14150D03*
X27900Y-14150D03*
X27900Y-13150D03*
X27900Y-12150D03*
X27900Y-11150D03*
X51900Y-39150D03*
X51900Y-40150D03*
X51900Y-41150D03*
X51900Y-42150D03*
X48900Y-42150D03*
X48900Y-41150D03*
X48900Y-40150D03*
X48900Y-39150D03*
X30900Y-18150D03*
X30900Y-19150D03*
X30900Y-20150D03*
X30900Y-21150D03*
X27900Y-21150D03*
X27900Y-20150D03*
X27900Y-19150D03*
X27900Y-18150D03*
X51900Y-11150D03*
X51900Y-12150D03*
X51900Y-13150D03*
X51900Y-14150D03*
X48900Y-14150D03*
X48900Y-13150D03*
X48900Y-12150D03*
X48900Y-11150D03*
X51900Y-32150D03*
X51900Y-33150D03*
X51900Y-34150D03*
X51900Y-35150D03*
X48900Y-35150D03*
X48900Y-34150D03*
X48900Y-33150D03*
X48900Y-32150D03*
X30900Y-25150D03*
X30900Y-26150D03*
X30900Y-27150D03*
X30900Y-28150D03*
X27900Y-28150D03*
X27900Y-27150D03*
X27900Y-26150D03*
X27900Y-25150D03*
X37900Y-32150D03*
X37900Y-33150D03*
X37900Y-34150D03*
X37900Y-35150D03*
X34900Y-35150D03*
X34900Y-34150D03*
X34900Y-33150D03*
X34900Y-32150D03*
X51900Y-25150D03*
X51900Y-26150D03*
X51900Y-27150D03*
X51900Y-28150D03*
X48900Y-28150D03*
X48900Y-27150D03*
X48900Y-26150D03*
X48900Y-25150D03*
X37900Y-39150D03*
X37900Y-40150D03*
X37900Y-41150D03*
X37900Y-42150D03*
X34900Y-42150D03*
X34900Y-41150D03*
X34900Y-40150D03*
X34900Y-39150D03*
G54D15*
X08000Y-42650D03*
X08000Y-46650D03*
G54D13*
X10000Y-45650D03*
X10000Y-44650D03*
G54D17*
X30900Y-32150D03*
X30900Y-33150D03*
X30900Y-34150D03*
X30900Y-35150D03*
X27900Y-35150D03*
X27900Y-34150D03*
X27900Y-33150D03*
X27900Y-32150D03*
X51900Y-18150D03*
X51900Y-19150D03*
X51900Y-20150D03*
X51900Y-21150D03*
X48900Y-21150D03*
X48900Y-20150D03*
X48900Y-19150D03*
X48900Y-18150D03*
X44900Y-32150D03*
X44900Y-33150D03*
X44900Y-34150D03*
X44900Y-35150D03*
X41900Y-35150D03*
X41900Y-34150D03*
X41900Y-33150D03*
X41900Y-32150D03*
G54D19*
X10550Y-10537D03*
X10550Y-12663D03*
G54D14*
X60650Y-07000D03*
G54D20*
X40550Y-26150D03*
X40550Y-19150D03*
X40550Y-12150D03*
X47550Y-33100D03*
X47550Y-40100D03*
X54550Y-38300D03*
X54550Y-32850D03*
X54550Y-26350D03*
X46250Y-12200D03*
X47550Y-26100D03*
X47550Y-19100D03*
X47550Y-12200D03*
X33550Y-12150D03*
X33550Y-19150D03*
X33550Y-26150D03*
X33550Y-33200D03*
X33550Y-40150D03*
X40550Y-40150D03*
X40550Y-33150D03*
X22400Y-30900D03*
X22400Y-37900D03*
X54550Y-19400D03*
X54550Y-12100D03*
X12100Y-26450D03*
X10650Y-24900D03*
X22400Y-23900D03*
X22400Y-16900D03*
X22400Y-09900D03*
X15100Y-19150D03*
X15100Y-12150D03*
X15050Y-25150D03*
X09450Y-14600D03*
X09450Y-10550D03*
X07350Y-28950D03*
X14050Y-27700D03*
X15000Y-33150D03*
X15050Y-40150D03*
X39250Y-12150D03*
X39250Y-19150D03*
X39250Y-26150D03*
X39250Y-33150D03*
X39250Y-40150D03*
X46250Y-40150D03*
X46250Y-33150D03*
X46250Y-26150D03*
X46250Y-19100D03*
X25250Y-11850D03*
X25250Y-18900D03*
X25250Y-25900D03*
X25250Y-32900D03*
X25250Y-39850D03*
X32250Y-12200D03*
X32250Y-19200D03*
X32250Y-26150D03*
X32250Y-33150D03*
X32250Y-40150D03*
X08300Y-23500D03*
X08400Y-24200D03*
X12900Y-24900D03*
X10850Y-26450D03*
X09450Y-12700D03*
X18650Y-09900D03*
X18650Y-42400D03*
X18650Y-21400D03*
X18650Y-14400D03*
X18650Y-23900D03*
X18650Y-28400D03*
X18650Y-30900D03*
X18650Y-35400D03*
X07100Y-26200D03*
X21200Y-09900D03*
X12150Y-24900D03*
X21100Y-16900D03*
X21100Y-24000D03*
X21150Y-30900D03*
X21150Y-37850D03*
X18650Y-16900D03*
X09450Y-15200D03*
X09650Y-24700D03*
X06350Y-28900D03*
X18650Y-37900D03*
X13050Y-26550D03*
X51200Y-21150D03*
X49600Y-20900D03*
X44250Y-21150D03*
X42600Y-20850D03*
X37200Y-21150D03*
X28600Y-28250D03*
X30250Y-28150D03*
X35600Y-27900D03*
X37250Y-28150D03*
X51250Y-42150D03*
X28650Y-14300D03*
X30200Y-14150D03*
X35600Y-14150D03*
X37200Y-14150D03*
X42600Y-14150D03*
X44200Y-14150D03*
X28600Y-21300D03*
X30250Y-21150D03*
X35600Y-20950D03*
X30250Y-35150D03*
X28600Y-35300D03*
X49600Y-35000D03*
X51200Y-35150D03*
X28600Y-42300D03*
X30200Y-42150D03*
X35650Y-41950D03*
X37200Y-42150D03*
X42600Y-42000D03*
X44250Y-42150D03*
X49550Y-41950D03*
X42550Y-28100D03*
X51200Y-14150D03*
X49600Y-14150D03*
X44250Y-28150D03*
X49550Y-28050D03*
X51200Y-28150D03*
X44250Y-35250D03*
X42550Y-35050D03*
X37250Y-35200D03*
X35600Y-35000D03*
X51200Y-18000D03*
X49600Y-18150D03*
X44250Y-18000D03*
X42550Y-18150D03*
X37200Y-18000D03*
X35600Y-18200D03*
X28600Y-25300D03*
X30200Y-24950D03*
X35550Y-25250D03*
X37200Y-24950D03*
X42600Y-25300D03*
X28550Y-11150D03*
X30200Y-11000D03*
X35650Y-11050D03*
X37150Y-10950D03*
X42700Y-11350D03*
X44150Y-10900D03*
X49650Y-11300D03*
X51150Y-10900D03*
X28600Y-18150D03*
X30200Y-18050D03*
X49600Y-32300D03*
X51200Y-32000D03*
X28600Y-39350D03*
X30200Y-39000D03*
X35600Y-39250D03*
X37200Y-39000D03*
X42600Y-39400D03*
X44200Y-39000D03*
X49600Y-39400D03*
X51200Y-39000D03*
X44200Y-24900D03*
X49600Y-25250D03*
X51200Y-25000D03*
X28600Y-32350D03*
X44200Y-32000D03*
X42600Y-32350D03*
X37200Y-32000D03*
X35600Y-32350D03*
X30200Y-31950D03*
X49700Y-20200D03*
X42600Y-20150D03*
X35600Y-20150D03*
X28900Y-20900D03*
X49600Y-27150D03*
X49550Y-13150D03*
X42550Y-27150D03*
X35550Y-27150D03*
X28600Y-27600D03*
X49700Y-34200D03*
X42600Y-34150D03*
X35600Y-34150D03*
X28650Y-34650D03*
X49600Y-41150D03*
X42600Y-41150D03*
X35600Y-41150D03*
X42600Y-13150D03*
X28600Y-41850D03*
X35600Y-13150D03*
X28600Y-13600D03*
X42650Y-12150D03*
X22400Y-13900D03*
X22400Y-10900D03*
X27150Y-12200D03*
X22400Y-12900D03*
X49600Y-12150D03*
X22400Y-14400D03*
X35600Y-12150D03*
X22400Y-13400D03*
X22400Y-12400D03*
X22400Y-11900D03*
X22400Y-11400D03*
X42550Y-19150D03*
X22400Y-20900D03*
X22400Y-17900D03*
X27200Y-19150D03*
X22400Y-19900D03*
X22400Y-21400D03*
X49600Y-19150D03*
X22400Y-20400D03*
X35650Y-19150D03*
X22400Y-19400D03*
X22400Y-18900D03*
X22400Y-18400D03*
X49650Y-26450D03*
X22400Y-28400D03*
X22400Y-24900D03*
X22400Y-25400D03*
X35600Y-26200D03*
X22400Y-27400D03*
X22400Y-25900D03*
X22400Y-26400D03*
X22400Y-26900D03*
X27150Y-26150D03*
X22400Y-27900D03*
X42550Y-26150D03*
X22400Y-31900D03*
X22400Y-35400D03*
X49600Y-33250D03*
X22400Y-32400D03*
X35600Y-33150D03*
X22400Y-34400D03*
X22400Y-32900D03*
X27200Y-33150D03*
X22400Y-33900D03*
X22400Y-33400D03*
X22400Y-34900D03*
X42600Y-33150D03*
X22400Y-39400D03*
X27150Y-40100D03*
X22400Y-40900D03*
X49550Y-40150D03*
X22400Y-42400D03*
X42600Y-40150D03*
X22400Y-41900D03*
X22400Y-41400D03*
X35600Y-40150D03*
X22400Y-38900D03*
X22400Y-39900D03*
X22400Y-40400D03*
X50350Y-14850D03*
X18650Y-13900D03*
X18650Y-17400D03*
X12000Y-16950D03*
X18650Y-20400D03*
X16650Y-21900D03*
X11150Y-17900D03*
X43000Y-21550D03*
X10900Y-21400D03*
X18650Y-17900D03*
X14150Y-23150D03*
X10900Y-18400D03*
X18650Y-19900D03*
X36000Y-21700D03*
X16150Y-22150D03*
X14650Y-22900D03*
X10400Y-20400D03*
X18650Y-18400D03*
X15650Y-22400D03*
X18650Y-19400D03*
X27200Y-21150D03*
X10400Y-18900D03*
X18650Y-18900D03*
X15150Y-22650D03*
X09900Y-18900D03*
X10150Y-24900D03*
X16400Y-23900D03*
X18650Y-27900D03*
X49650Y-28900D03*
X18650Y-24400D03*
X09700Y-23200D03*
X09050Y-24850D03*
X18650Y-27400D03*
X42650Y-28900D03*
X14900Y-26150D03*
X18650Y-10400D03*
X14900Y-09900D03*
X18650Y-24900D03*
X09150Y-22300D03*
X17200Y-23800D03*
X08700Y-25800D03*
X18650Y-26900D03*
X35950Y-28500D03*
X20650Y-28900D03*
X18650Y-25400D03*
X09050Y-26100D03*
X14500Y-27450D03*
X18650Y-26400D03*
X27150Y-28150D03*
X09650Y-26250D03*
X14650Y-28900D03*
X09750Y-28450D03*
X18650Y-25900D03*
X09600Y-34350D03*
X18650Y-34900D03*
X49600Y-35850D03*
X15700Y-35600D03*
X09100Y-33300D03*
X18650Y-31400D03*
X15600Y-30750D03*
X15300Y-36000D03*
X42650Y-35900D03*
X09950Y-35400D03*
X18650Y-34400D03*
X09900Y-33250D03*
X18650Y-31900D03*
X15100Y-30450D03*
X14850Y-36250D03*
X18650Y-33900D03*
X35950Y-35600D03*
X10500Y-36250D03*
X18650Y-13400D03*
X42850Y-15100D03*
X19400Y-13900D03*
X10350Y-32700D03*
X18650Y-32400D03*
X14650Y-30200D03*
X10550Y-36750D03*
X18650Y-33400D03*
X27200Y-35150D03*
X14850Y-36700D03*
X14700Y-29600D03*
X11350Y-30100D03*
X18650Y-32900D03*
X18650Y-41900D03*
X49600Y-42850D03*
X11150Y-39400D03*
X18650Y-38400D03*
X15950Y-37800D03*
X42650Y-42900D03*
X14750Y-42100D03*
X15400Y-42850D03*
X18650Y-41400D03*
X18650Y-38900D03*
X15550Y-37500D03*
X11650Y-39400D03*
X13850Y-41850D03*
X14850Y-43100D03*
X18650Y-40900D03*
X35850Y-42600D03*
X15150Y-37250D03*
X12700Y-37150D03*
X18650Y-39400D03*
X13150Y-41500D03*
X14300Y-43300D03*
X18650Y-40400D03*
X27200Y-42150D03*
X19900Y-11400D03*
X18650Y-10900D03*
X12400Y-40900D03*
X13950Y-43650D03*
X18650Y-39900D03*
X19900Y-13400D03*
X35950Y-14650D03*
X18650Y-12900D03*
X20400Y-12400D03*
X18650Y-11400D03*
X27150Y-14150D03*
X18650Y-12400D03*
X20400Y-13150D03*
X12650Y-14900D03*
X18650Y-11900D03*
X49850Y-21600D03*
X17150Y-21650D03*
X12400Y-18650D03*
X18650Y-20900D03*
X13700Y-24800D03*
X14250Y-24750D03*
G54D21*
X09400Y-24900D02*
X09400Y-24900D01*
X40550Y-26150D02*
X40550Y-25150D01*
X40550Y-20150D02*
X40550Y-19150D01*
X40550Y-19150D02*
X40550Y-18150D01*
X40550Y-13150D02*
X40550Y-12150D01*
X40550Y-12150D02*
X40550Y-11150D01*
X47550Y-13150D02*
X47550Y-12200D01*
X47550Y-12200D02*
X47550Y-11150D01*
X47550Y-20150D02*
X47550Y-19100D01*
X47550Y-19100D02*
X47550Y-18150D01*
X47550Y-27150D02*
X47550Y-26100D01*
X47550Y-26100D02*
X47550Y-25150D01*
X47550Y-34150D02*
X47550Y-33100D01*
X47550Y-33100D02*
X47550Y-32150D01*
X47550Y-41150D02*
X47550Y-40100D01*
X47550Y-40100D02*
X47550Y-39150D01*
X54550Y-39150D02*
X54550Y-38300D01*
X54550Y-39150D02*
X54550Y-41150D01*
X54550Y-34150D02*
X54550Y-32850D01*
X54550Y-32850D02*
X54550Y-32150D01*
X54550Y-27150D02*
X54550Y-26350D01*
X33550Y-13150D02*
X33550Y-12150D01*
X33550Y-12150D02*
X33550Y-11150D01*
X33550Y-20150D02*
X33550Y-19150D01*
X33550Y-19150D02*
X33550Y-18150D01*
X33550Y-27150D02*
X33550Y-26150D01*
X33550Y-26150D02*
X33550Y-25150D01*
X33550Y-34150D02*
X33550Y-33200D01*
X33550Y-33200D02*
X33550Y-32150D01*
X33550Y-41150D02*
X33550Y-40150D01*
X33550Y-40150D02*
X33550Y-39150D01*
X40550Y-41150D02*
X40550Y-40150D01*
X40550Y-40150D02*
X40550Y-39150D01*
X40550Y-34150D02*
X40550Y-33150D01*
X40550Y-33150D02*
X40550Y-32150D01*
X40550Y-27150D02*
X40550Y-26150D01*
X15750Y-40650D02*
X15750Y-41650D01*
X15750Y-10650D02*
X15750Y-11650D01*
X15750Y-38650D02*
X15750Y-39650D01*
X15750Y-12650D02*
X15750Y-13650D01*
X15750Y-11650D02*
X15750Y-12150D01*
X15750Y-12150D02*
X15750Y-12650D01*
X15750Y-17650D02*
X15750Y-18650D01*
X15750Y-18650D02*
X15750Y-19150D01*
X15750Y-19150D02*
X15750Y-19650D01*
X15750Y-19650D02*
X15750Y-20650D01*
X15750Y-24650D02*
X15750Y-25150D01*
X15750Y-25150D02*
X15750Y-25650D01*
X15750Y-25650D02*
X15750Y-26650D01*
X15750Y-26650D02*
X15750Y-27650D01*
X15750Y-31650D02*
X15750Y-32650D01*
X15750Y-32650D02*
X15750Y-33150D01*
X15750Y-33150D02*
X15750Y-33650D01*
X15750Y-33650D02*
X15750Y-34650D01*
X54550Y-26350D02*
X54550Y-25150D01*
X54550Y-20150D02*
X54550Y-19400D01*
X54550Y-19350D02*
X54550Y-19400D01*
X54550Y-19350D02*
X54550Y-18150D01*
X54550Y-13150D02*
X54550Y-12100D01*
X54550Y-12100D02*
X54550Y-11150D01*
X11750Y-26800D02*
X12100Y-26450D01*
X11100Y-24900D02*
X10650Y-24900D01*
X15750Y-39650D02*
X15750Y-40150D01*
X15750Y-40150D02*
X15750Y-40650D01*
X15100Y-19150D02*
X15750Y-19150D01*
X15100Y-12150D02*
X15750Y-12150D01*
X15050Y-25150D02*
X15750Y-25150D01*
X10550Y-10537D02*
X09463Y-10537D01*
X09463Y-10537D02*
X09450Y-10550D01*
X07350Y-28950D02*
X07350Y-28300D01*
X11750Y-26850D02*
X11750Y-26800D01*
X07350Y-28300D02*
X06350Y-28300D01*
X15000Y-33150D02*
X15750Y-33150D01*
X15050Y-40150D02*
X15750Y-40150D01*
X06350Y-25450D02*
X08300Y-23500D01*
X06350Y-27000D02*
X06350Y-25450D01*
X07350Y-27000D02*
X07350Y-25250D01*
X07350Y-25250D02*
X08400Y-24200D01*
X10850Y-26450D02*
X10850Y-26550D01*
X12150Y-24900D02*
X12900Y-24900D01*
X10850Y-26550D02*
X11150Y-26850D01*
X09450Y-12700D02*
X09487Y-12663D01*
X09487Y-12663D02*
X10550Y-12663D01*
X11700Y-24900D02*
X12150Y-24900D01*
X21200Y-09900D02*
X21150Y-09900D01*
X48900Y-21150D02*
X49350Y-21150D01*
X49350Y-21150D02*
X49600Y-20900D01*
X41900Y-21150D02*
X42300Y-21150D01*
X42300Y-21150D02*
X42600Y-20850D01*
X28500Y-28150D02*
X28600Y-28250D01*
X27900Y-28150D02*
X28500Y-28150D01*
X35350Y-28150D02*
X35600Y-27900D01*
X34900Y-28150D02*
X35350Y-28150D01*
X42500Y-28150D02*
X42550Y-28100D01*
X28500Y-14150D02*
X28650Y-14300D01*
X27900Y-14150D02*
X28500Y-14150D01*
X41900Y-14150D02*
X42600Y-14150D01*
X28450Y-21150D02*
X28600Y-21300D01*
X27900Y-21150D02*
X28450Y-21150D01*
X35400Y-21150D02*
X35600Y-20950D01*
X34900Y-21150D02*
X35400Y-21150D01*
X49450Y-35150D02*
X49600Y-35000D01*
X27900Y-35150D02*
X28450Y-35150D01*
X48900Y-35150D02*
X49450Y-35150D01*
X28450Y-42150D02*
X28600Y-42300D01*
X27900Y-42150D02*
X28450Y-42150D01*
X35450Y-42150D02*
X35650Y-41950D01*
X34900Y-42150D02*
X35450Y-42150D01*
X42450Y-42150D02*
X42600Y-42000D01*
X41900Y-42150D02*
X42450Y-42150D01*
X49350Y-42150D02*
X49550Y-41950D01*
X48900Y-42150D02*
X49350Y-42150D01*
X48900Y-14150D02*
X49600Y-14150D01*
X34900Y-14150D02*
X35600Y-14150D01*
X41900Y-28150D02*
X42500Y-28150D01*
X49450Y-28150D02*
X49550Y-28050D01*
X48900Y-28150D02*
X49450Y-28150D01*
X41900Y-35150D02*
X42450Y-35150D01*
X42450Y-35150D02*
X42550Y-35050D01*
X34900Y-35150D02*
X35450Y-35150D01*
X35450Y-35150D02*
X35600Y-35000D01*
X28450Y-35150D02*
X28600Y-35300D01*
X48900Y-18150D02*
X49600Y-18150D01*
X41900Y-18150D02*
X42550Y-18150D01*
X34900Y-18150D02*
X35550Y-18150D01*
X28450Y-25150D02*
X28600Y-25300D01*
X27900Y-25150D02*
X28450Y-25150D01*
X35450Y-25150D02*
X35550Y-25250D01*
X34900Y-25150D02*
X35450Y-25150D01*
X42450Y-25150D02*
X42600Y-25300D01*
X27900Y-11150D02*
X28550Y-11150D01*
X35550Y-11150D02*
X35650Y-11050D01*
X34900Y-11150D02*
X35550Y-11150D01*
X42500Y-11150D02*
X42700Y-11350D01*
X41900Y-11150D02*
X42500Y-11150D01*
X49500Y-11150D02*
X49650Y-11300D01*
X48900Y-11150D02*
X49500Y-11150D01*
X27900Y-18150D02*
X28600Y-18150D01*
X35550Y-18150D02*
X35600Y-18200D01*
X48900Y-32150D02*
X49450Y-32150D01*
X28400Y-39150D02*
X28600Y-39350D01*
X27900Y-39150D02*
X28400Y-39150D01*
X35500Y-39150D02*
X35600Y-39250D01*
X34900Y-39150D02*
X35500Y-39150D01*
X42350Y-39150D02*
X42600Y-39400D01*
X41900Y-39150D02*
X42350Y-39150D01*
X49350Y-39150D02*
X49600Y-39400D01*
X48900Y-39150D02*
X49350Y-39150D01*
X41900Y-25150D02*
X42450Y-25150D01*
X49500Y-25150D02*
X49600Y-25250D01*
X48900Y-25150D02*
X49500Y-25150D01*
X28400Y-32150D02*
X28600Y-32350D01*
X27900Y-32150D02*
X28400Y-32150D01*
X49450Y-32150D02*
X49600Y-32300D01*
X41900Y-32150D02*
X42400Y-32150D01*
X42400Y-32150D02*
X42600Y-32350D01*
X34900Y-32150D02*
X35400Y-32150D01*
X35400Y-32150D02*
X35600Y-32350D01*
X48900Y-19150D02*
X48900Y-20150D01*
X48950Y-20200D02*
X48900Y-20150D01*
X49700Y-20200D02*
X48950Y-20200D01*
X41900Y-20150D02*
X42600Y-20150D01*
X42150Y-20150D02*
X41900Y-20150D01*
X41900Y-19150D02*
X41900Y-20150D01*
X34900Y-20150D02*
X35600Y-20150D01*
X34900Y-19150D02*
X34900Y-20150D01*
X27900Y-19150D02*
X27900Y-20150D01*
X28150Y-20150D02*
X27900Y-20150D01*
X28900Y-20900D02*
X28150Y-20150D01*
X48900Y-26150D02*
X48900Y-27150D01*
X49600Y-27150D02*
X48900Y-27150D01*
X48900Y-12150D02*
X48900Y-13150D01*
X48900Y-13150D02*
X49550Y-13150D01*
X41900Y-27150D02*
X42150Y-27150D01*
X42250Y-27500D02*
X41900Y-27150D01*
X41900Y-27150D02*
X42550Y-27150D01*
X41900Y-26150D02*
X41900Y-27150D01*
X34900Y-26150D02*
X34900Y-27150D01*
X34900Y-27150D02*
X35150Y-27150D01*
X35350Y-27350D02*
X35100Y-27350D01*
X35100Y-27350D02*
X34900Y-27150D01*
X34900Y-27150D02*
X35550Y-27150D01*
X27900Y-27150D02*
X28150Y-27150D01*
X27900Y-26150D02*
X27900Y-27150D01*
X28600Y-27600D02*
X28300Y-27300D01*
X28300Y-27300D02*
X28050Y-27300D01*
X28050Y-27300D02*
X27900Y-27150D01*
X48950Y-34200D02*
X48900Y-34150D01*
X49700Y-34200D02*
X48950Y-34200D01*
X48900Y-33150D02*
X48900Y-34150D01*
X41900Y-33150D02*
X41900Y-34150D01*
X41900Y-34150D02*
X42600Y-34150D01*
X34900Y-33150D02*
X34900Y-34150D01*
X34900Y-34150D02*
X35600Y-34150D01*
X28150Y-34150D02*
X27900Y-34150D01*
X27900Y-33150D02*
X27900Y-34150D01*
X28400Y-34650D02*
X27900Y-34150D01*
X28650Y-34650D02*
X28400Y-34650D01*
X48900Y-40150D02*
X48900Y-41150D01*
X49150Y-41150D02*
X48900Y-41150D01*
X48900Y-41150D02*
X49600Y-41150D01*
X42150Y-41150D02*
X41900Y-41150D01*
X41900Y-40150D02*
X41900Y-41150D01*
X41900Y-41150D02*
X42600Y-41150D01*
X35150Y-41150D02*
X34900Y-41150D01*
X34900Y-41150D02*
X35600Y-41150D01*
X34900Y-40150D02*
X34900Y-41150D01*
X41900Y-12150D02*
X41900Y-13150D01*
X41900Y-13150D02*
X42600Y-13150D01*
X27900Y-40150D02*
X27900Y-41150D01*
X28600Y-41850D02*
X27900Y-41150D01*
X34900Y-12150D02*
X34900Y-13150D01*
X34900Y-13150D02*
X35600Y-13150D01*
X27900Y-12150D02*
X27900Y-13150D01*
X28200Y-13150D02*
X27900Y-13150D01*
X28600Y-13600D02*
X28350Y-13600D01*
X28350Y-13600D02*
X27900Y-13150D01*
X42950Y-12450D02*
X42650Y-12150D01*
X42400Y-15050D02*
X42950Y-14500D01*
X22400Y-13900D02*
X23550Y-13900D01*
X23550Y-13900D02*
X24700Y-15050D01*
X24700Y-15050D02*
X42400Y-15050D01*
X42950Y-14500D02*
X42950Y-13150D01*
X42950Y-13150D02*
X42950Y-12450D01*
X39250Y-11150D02*
X37900Y-11150D01*
X37900Y-13150D02*
X39250Y-13150D01*
X46250Y-13150D02*
X44900Y-13150D01*
X32250Y-13150D02*
X30900Y-13150D01*
X53250Y-13150D02*
X51900Y-13150D01*
X24450Y-09050D02*
X48800Y-09050D01*
X22550Y-10900D02*
X22600Y-10900D01*
X48800Y-09050D02*
X51900Y-12150D01*
X22400Y-10900D02*
X22550Y-10900D01*
X22600Y-10900D02*
X24450Y-09050D01*
X53250Y-11150D02*
X51900Y-11150D01*
X44900Y-11150D02*
X46250Y-11150D01*
X22850Y-12900D02*
X22400Y-12900D01*
X22400Y-12900D02*
X22400Y-12900D01*
X23550Y-12200D02*
X22850Y-12900D01*
X27150Y-12200D02*
X23550Y-12200D01*
X49900Y-12450D02*
X49600Y-12150D01*
X24200Y-15450D02*
X49450Y-15450D01*
X23150Y-14400D02*
X24200Y-15450D01*
X49450Y-15450D02*
X49900Y-15000D01*
X22400Y-14400D02*
X23150Y-14400D01*
X49900Y-15000D02*
X49900Y-12450D01*
X22400Y-13400D02*
X23950Y-13400D01*
X35900Y-14250D02*
X35900Y-12450D01*
X35500Y-14650D02*
X35900Y-14250D01*
X25200Y-14650D02*
X35500Y-14650D01*
X23950Y-13400D02*
X25200Y-14650D01*
X35900Y-12450D02*
X35600Y-12150D01*
X22700Y-12400D02*
X22750Y-12400D01*
X29000Y-10250D02*
X24900Y-10250D01*
X22400Y-12400D02*
X22700Y-12400D01*
X22750Y-12400D02*
X24900Y-10250D01*
X30900Y-12150D02*
X29000Y-10250D01*
X32250Y-11150D02*
X30900Y-11150D01*
X37900Y-12150D02*
X35600Y-09850D01*
X22650Y-11900D02*
X22400Y-11900D01*
X24700Y-09850D02*
X22650Y-11900D01*
X35600Y-09850D02*
X24700Y-09850D01*
X22400Y-11400D02*
X22650Y-11400D01*
X22650Y-11400D02*
X24600Y-09450D01*
X24600Y-09450D02*
X42200Y-09450D01*
X42200Y-09450D02*
X44900Y-12150D01*
X42950Y-19550D02*
X42550Y-19150D01*
X23800Y-20900D02*
X25000Y-22100D01*
X42950Y-21100D02*
X42950Y-20200D01*
X25000Y-22100D02*
X41950Y-22100D01*
X41950Y-22100D02*
X42950Y-21100D01*
X22400Y-20900D02*
X23800Y-20900D01*
X42950Y-20200D02*
X42950Y-19550D01*
X37900Y-18150D02*
X39250Y-18150D01*
X37900Y-20150D02*
X39250Y-20150D01*
X44900Y-20150D02*
X46250Y-20150D01*
X32250Y-20150D02*
X30900Y-20150D01*
X53250Y-20150D02*
X51900Y-20150D01*
X22400Y-17900D02*
X24250Y-16050D01*
X24250Y-16050D02*
X48800Y-16050D01*
X51900Y-19150D02*
X48800Y-16050D01*
X51900Y-18150D02*
X53250Y-18150D01*
X44900Y-18150D02*
X46250Y-18150D01*
X23700Y-19150D02*
X27200Y-19150D01*
X22400Y-19900D02*
X22950Y-19900D01*
X22950Y-19900D02*
X23700Y-19150D01*
X22400Y-21400D02*
X23600Y-21400D01*
X23600Y-21400D02*
X24700Y-22500D01*
X24700Y-22500D02*
X48550Y-22500D01*
X50150Y-19700D02*
X49600Y-19150D01*
X50150Y-20900D02*
X50150Y-19700D01*
X48550Y-22500D02*
X50150Y-20900D01*
X25300Y-21700D02*
X35550Y-21700D01*
X24000Y-20400D02*
X25300Y-21700D01*
X22400Y-20400D02*
X24000Y-20400D01*
X35650Y-19150D02*
X35650Y-19150D01*
X35650Y-19150D02*
X36100Y-19600D01*
X36100Y-19600D02*
X36100Y-21150D01*
X36100Y-21150D02*
X35550Y-21700D01*
X22850Y-19400D02*
X22400Y-19400D01*
X25000Y-17250D02*
X22850Y-19400D01*
X29000Y-17250D02*
X25000Y-17250D01*
X30900Y-19150D02*
X29000Y-17250D01*
X30900Y-18150D02*
X32250Y-18150D01*
X22400Y-18900D02*
X22750Y-18900D01*
X22750Y-18900D02*
X24800Y-16850D01*
X24800Y-16850D02*
X35600Y-16850D01*
X35600Y-16850D02*
X37900Y-19150D01*
X24600Y-16450D02*
X42200Y-16450D01*
X44900Y-19150D02*
X42200Y-16450D01*
X22650Y-18400D02*
X24600Y-16450D01*
X22400Y-18400D02*
X22650Y-18400D01*
X39250Y-25150D02*
X37900Y-25150D01*
X39250Y-27150D02*
X37900Y-27150D01*
X46250Y-27150D02*
X44900Y-27150D01*
X30900Y-27150D02*
X32250Y-27150D01*
X23500Y-28400D02*
X24650Y-29550D01*
X24650Y-29550D02*
X48550Y-29550D01*
X48550Y-29550D02*
X49850Y-28250D01*
X49850Y-28250D02*
X49850Y-26650D01*
X49850Y-26650D02*
X49650Y-26450D01*
X22400Y-28400D02*
X23500Y-28400D01*
X51900Y-27150D02*
X53250Y-27150D01*
X53250Y-25150D02*
X51900Y-25150D01*
X46250Y-25150D02*
X44900Y-25150D01*
X22400Y-24900D02*
X22600Y-24900D01*
X22600Y-24900D02*
X24300Y-23200D01*
X24300Y-23200D02*
X48950Y-23200D01*
X48950Y-23200D02*
X51900Y-26150D01*
X42350Y-23600D02*
X44900Y-26150D01*
X24400Y-23600D02*
X42350Y-23600D01*
X22600Y-25400D02*
X24400Y-23600D01*
X22400Y-25400D02*
X22600Y-25400D01*
X23900Y-27400D02*
X25250Y-28750D01*
X25250Y-28750D02*
X35250Y-28750D01*
X35250Y-28750D02*
X35900Y-28100D01*
X35900Y-28100D02*
X35900Y-26500D01*
X35900Y-26500D02*
X35600Y-26200D01*
X22400Y-27400D02*
X23900Y-27400D01*
X22400Y-25900D02*
X22600Y-25900D01*
X37900Y-26150D02*
X35750Y-24000D01*
X22600Y-25900D02*
X24500Y-24000D01*
X24500Y-24000D02*
X35750Y-24000D01*
X32250Y-25150D02*
X30900Y-25150D01*
X22400Y-26400D02*
X22400Y-26400D01*
X22600Y-26400D02*
X22400Y-26400D01*
X24600Y-24400D02*
X22600Y-26400D01*
X29150Y-24400D02*
X24600Y-24400D01*
X30900Y-26150D02*
X29150Y-24400D01*
X27150Y-26150D02*
X23450Y-26150D01*
X22700Y-26900D02*
X23450Y-26150D01*
X22700Y-26900D02*
X22400Y-26900D01*
X27150Y-26150D02*
X27150Y-26150D01*
X23350Y-27900D02*
X23700Y-27900D01*
X23700Y-27900D02*
X24950Y-29150D01*
X24950Y-29150D02*
X41900Y-29150D01*
X22400Y-27900D02*
X23350Y-27900D01*
X43000Y-26600D02*
X43000Y-28050D01*
X42550Y-26150D02*
X43000Y-26600D01*
X43000Y-28050D02*
X41900Y-29150D01*
X37900Y-32150D02*
X39250Y-32150D01*
X37900Y-34150D02*
X39250Y-34150D01*
X44900Y-34150D02*
X46250Y-34150D01*
X32250Y-34150D02*
X30900Y-34150D01*
X22400Y-31900D02*
X24150Y-30150D01*
X48900Y-30150D02*
X51900Y-33150D01*
X24150Y-30150D02*
X48900Y-30150D01*
X22400Y-35400D02*
X23950Y-35400D01*
X49950Y-33600D02*
X49950Y-35100D01*
X49950Y-33600D02*
X49600Y-33250D01*
X48600Y-36450D02*
X49950Y-35100D01*
X25000Y-36450D02*
X48600Y-36450D01*
X23950Y-35400D02*
X25000Y-36450D01*
X51900Y-34150D02*
X53250Y-34150D01*
X51900Y-32150D02*
X53250Y-32150D01*
X44900Y-32150D02*
X46250Y-32150D01*
X22550Y-32400D02*
X24400Y-30550D01*
X22400Y-32400D02*
X22550Y-32400D01*
X24400Y-30550D02*
X42300Y-30550D01*
X42300Y-30550D02*
X44900Y-33150D01*
X36000Y-33550D02*
X35600Y-33150D01*
X24150Y-34400D02*
X25400Y-35650D01*
X25400Y-35650D02*
X35500Y-35650D01*
X35500Y-35650D02*
X36000Y-35150D01*
X22400Y-34400D02*
X24150Y-34400D01*
X36000Y-35150D02*
X36000Y-33550D01*
X22650Y-32900D02*
X22400Y-32900D01*
X24600Y-30950D02*
X22650Y-32900D01*
X35700Y-30950D02*
X24600Y-30950D01*
X37900Y-33150D02*
X35700Y-30950D01*
X23600Y-33150D02*
X27200Y-33150D01*
X22850Y-33900D02*
X23600Y-33150D01*
X22400Y-33900D02*
X22850Y-33900D01*
X32250Y-32150D02*
X30900Y-32150D01*
X24800Y-31350D02*
X22750Y-33400D01*
X22750Y-33400D02*
X22400Y-33400D01*
X30900Y-33150D02*
X29100Y-31350D01*
X29100Y-31350D02*
X24800Y-31350D01*
X24050Y-34900D02*
X25200Y-36050D01*
X25200Y-36050D02*
X42050Y-36050D01*
X42050Y-36050D02*
X42950Y-35150D01*
X22400Y-34900D02*
X24050Y-34900D01*
X42600Y-33150D02*
X42950Y-33500D01*
X42950Y-33500D02*
X42950Y-35150D01*
X39250Y-39150D02*
X37900Y-39150D01*
X37900Y-41150D02*
X39250Y-41150D01*
X42350Y-37600D02*
X44900Y-40150D01*
X24350Y-37600D02*
X42350Y-37600D01*
X22550Y-39400D02*
X24350Y-37600D01*
X22400Y-39400D02*
X22550Y-39400D01*
X46250Y-41150D02*
X44900Y-41150D01*
X23650Y-40100D02*
X27150Y-40100D01*
X22850Y-40900D02*
X23650Y-40100D01*
X22400Y-40900D02*
X22850Y-40900D01*
X30900Y-41150D02*
X32250Y-41150D01*
X49550Y-40150D02*
X50050Y-40650D01*
X50050Y-40650D02*
X50050Y-42000D01*
X48550Y-43500D02*
X50050Y-42000D01*
X25050Y-43500D02*
X48550Y-43500D01*
X23950Y-42400D02*
X25050Y-43500D01*
X22400Y-42400D02*
X23950Y-42400D01*
X53250Y-41150D02*
X51900Y-41150D01*
X53250Y-39150D02*
X51900Y-39150D01*
X46250Y-39150D02*
X44900Y-39150D01*
X42600Y-40150D02*
X43100Y-40650D01*
X43100Y-40650D02*
X43100Y-42000D01*
X42000Y-43100D02*
X43100Y-42000D01*
X25250Y-43100D02*
X42000Y-43100D01*
X24050Y-41900D02*
X25250Y-43100D01*
X22400Y-41900D02*
X24050Y-41900D01*
X24150Y-41400D02*
X25450Y-42700D01*
X25450Y-42700D02*
X35350Y-42700D01*
X35350Y-42700D02*
X36000Y-42050D01*
X22400Y-41400D02*
X24150Y-41400D01*
X35600Y-40150D02*
X36000Y-40550D01*
X36000Y-40550D02*
X36000Y-42050D01*
X48950Y-37200D02*
X51900Y-40150D01*
X24100Y-37200D02*
X48950Y-37200D01*
X22400Y-38900D02*
X24100Y-37200D01*
X24550Y-38000D02*
X35750Y-38000D01*
X22650Y-39900D02*
X24550Y-38000D01*
X22400Y-39900D02*
X22650Y-39900D01*
X35750Y-38000D02*
X37900Y-40150D01*
X32250Y-39150D02*
X30900Y-39150D01*
X22750Y-40400D02*
X24750Y-38400D01*
X24750Y-38400D02*
X29150Y-38400D01*
X29150Y-38400D02*
X30900Y-40150D01*
X22750Y-40400D02*
X22400Y-40400D01*
X23900Y-15650D02*
X49550Y-15650D01*
X22900Y-14650D02*
X23900Y-15650D01*
X19400Y-14650D02*
X22900Y-14650D01*
X18650Y-13900D02*
X19400Y-14650D01*
X49550Y-15650D02*
X50350Y-14850D01*
X20400Y-17400D02*
X20600Y-17400D01*
X18150Y-17400D02*
X18650Y-17400D01*
X17900Y-17650D02*
X18150Y-17400D01*
X17050Y-17650D02*
X17900Y-17650D01*
X18650Y-17400D02*
X20400Y-17400D01*
X16700Y-16950D02*
X12000Y-16950D01*
X16700Y-16950D02*
X17050Y-17300D01*
X17050Y-17300D02*
X17050Y-17650D01*
X12000Y-16950D02*
X12000Y-16950D01*
X51150Y-20400D02*
X51900Y-21150D01*
X51150Y-19100D02*
X51150Y-20400D01*
X48300Y-16250D02*
X51150Y-19100D01*
X24500Y-16250D02*
X48300Y-16250D01*
X22600Y-18150D02*
X24500Y-16250D01*
X21350Y-18150D02*
X22600Y-18150D01*
X20600Y-17400D02*
X21350Y-18150D01*
X14900Y-21650D02*
X16400Y-21650D01*
X17050Y-20650D02*
X17900Y-20650D01*
X18150Y-20400D02*
X18650Y-20400D01*
X17900Y-20650D02*
X18150Y-20400D01*
X11150Y-17900D02*
X14900Y-21650D01*
X21350Y-21150D02*
X23700Y-21150D01*
X20500Y-20400D02*
X18650Y-20400D01*
X24850Y-22300D02*
X42600Y-22300D01*
X23700Y-21150D02*
X24850Y-22300D01*
X42600Y-22300D02*
X43000Y-21900D01*
X20600Y-20400D02*
X21350Y-21150D01*
X20500Y-20400D02*
X20600Y-20400D01*
X43000Y-21900D02*
X43000Y-21550D01*
X16400Y-21650D02*
X16650Y-21900D01*
X12900Y-23150D02*
X14150Y-23150D01*
X11150Y-21400D02*
X12900Y-23150D01*
X10900Y-21400D02*
X11150Y-21400D01*
X18650Y-17900D02*
X20500Y-17900D01*
X20500Y-17900D02*
X20650Y-17900D01*
X20650Y-17900D02*
X21400Y-18650D01*
X21400Y-18650D02*
X22700Y-18650D01*
X22700Y-18650D02*
X24700Y-16650D01*
X24700Y-16650D02*
X41500Y-16650D01*
X42950Y-18100D02*
X42950Y-19200D01*
X41500Y-16650D02*
X42950Y-18100D01*
X42950Y-19200D02*
X44900Y-21150D01*
X15900Y-21900D02*
X14650Y-21900D01*
X11150Y-18400D02*
X10900Y-18400D01*
X14650Y-21900D02*
X11150Y-18400D01*
X17050Y-19650D02*
X17900Y-19650D01*
X18150Y-19900D02*
X18650Y-19900D01*
X17900Y-19650D02*
X18150Y-19900D01*
X18650Y-19900D02*
X20200Y-19900D01*
X35800Y-21900D02*
X36000Y-21700D01*
X25150Y-21900D02*
X35800Y-21900D01*
X23900Y-20650D02*
X25150Y-21900D01*
X21350Y-20650D02*
X23900Y-20650D01*
X20600Y-19900D02*
X21350Y-20650D01*
X20200Y-19900D02*
X20600Y-19900D01*
X15900Y-21900D02*
X16150Y-22150D01*
X10650Y-20400D02*
X12900Y-22650D01*
X10400Y-20400D02*
X10650Y-20400D01*
X36950Y-20200D02*
X37900Y-21150D01*
X36950Y-19000D02*
X36950Y-20200D01*
X35000Y-17050D02*
X36950Y-19000D01*
X24900Y-17050D02*
X35000Y-17050D01*
X22800Y-19150D02*
X24900Y-17050D01*
X21450Y-19150D02*
X22800Y-19150D01*
X20700Y-18400D02*
X21450Y-19150D01*
X19800Y-18400D02*
X20700Y-18400D01*
X12900Y-22650D02*
X14400Y-22650D01*
X14400Y-22650D02*
X14650Y-22900D01*
X18650Y-18400D02*
X19800Y-18400D01*
X18650Y-19400D02*
X20150Y-19400D01*
X27200Y-21150D02*
X27200Y-21150D01*
X25100Y-21150D02*
X27200Y-21150D01*
X24100Y-20150D02*
X25100Y-21150D01*
X21400Y-20150D02*
X24100Y-20150D01*
X20650Y-19400D02*
X21400Y-20150D01*
X20150Y-19400D02*
X20650Y-19400D01*
X10400Y-18900D02*
X11150Y-18900D01*
X11150Y-18900D02*
X14400Y-22150D01*
X14400Y-22150D02*
X15400Y-22150D01*
X15400Y-22150D02*
X15650Y-22400D01*
X25100Y-17450D02*
X22900Y-19650D01*
X14900Y-22400D02*
X15150Y-22650D01*
X13400Y-22400D02*
X14900Y-22400D01*
X09900Y-18900D02*
X13400Y-22400D01*
X18650Y-18900D02*
X18650Y-18900D01*
X29300Y-19550D02*
X29300Y-18350D01*
X17050Y-18650D02*
X17900Y-18650D01*
X29300Y-18350D02*
X28400Y-17450D01*
X18150Y-18900D02*
X18650Y-18900D01*
X17900Y-18650D02*
X18150Y-18900D01*
X28400Y-17450D02*
X25950Y-17450D01*
X29300Y-19550D02*
X30900Y-21150D01*
X25100Y-17450D02*
X25950Y-17450D01*
X18650Y-18900D02*
X20600Y-18900D01*
X21350Y-19650D02*
X20600Y-18900D01*
X22900Y-19650D02*
X21350Y-19650D01*
X49650Y-29350D02*
X49650Y-28900D01*
X49250Y-29750D02*
X49650Y-29350D01*
X24500Y-29750D02*
X49250Y-29750D01*
X23400Y-28650D02*
X24500Y-29750D01*
X19400Y-28650D02*
X23400Y-28650D01*
X10550Y-25300D02*
X14100Y-25300D01*
X15500Y-23900D02*
X14100Y-25300D01*
X16400Y-23900D02*
X15500Y-23900D01*
X10150Y-24900D02*
X10550Y-25300D01*
X18650Y-27900D02*
X19400Y-28650D01*
X49650Y-28900D02*
X49650Y-28900D01*
X24350Y-23400D02*
X48200Y-23400D01*
X48200Y-23400D02*
X49950Y-25150D01*
X49950Y-25150D02*
X49950Y-26200D01*
X18400Y-24400D02*
X18650Y-24400D01*
X11150Y-23650D02*
X16500Y-23650D01*
X16500Y-23650D02*
X17050Y-24200D01*
X17050Y-24200D02*
X17050Y-24650D01*
X10150Y-23650D02*
X11150Y-23650D01*
X09700Y-23200D02*
X10150Y-23650D01*
X17050Y-24650D02*
X18400Y-24650D01*
X18400Y-24650D02*
X18650Y-24400D01*
X49950Y-26200D02*
X51900Y-28150D01*
X18650Y-24400D02*
X19550Y-24400D01*
X19550Y-24400D02*
X20300Y-25150D01*
X20300Y-25150D02*
X22600Y-25150D01*
X22600Y-25150D02*
X24350Y-23400D01*
X09050Y-24850D02*
X09700Y-25500D01*
X18650Y-27400D02*
X19400Y-28150D01*
X42650Y-28900D02*
X42650Y-28900D01*
X42650Y-29150D02*
X42650Y-28900D01*
X42450Y-29350D02*
X42650Y-29150D01*
X24800Y-29350D02*
X42450Y-29350D01*
X23600Y-28150D02*
X24800Y-29350D01*
X19400Y-28150D02*
X23600Y-28150D01*
X18650Y-27400D02*
X17300Y-27400D01*
X17300Y-27400D02*
X17050Y-27650D01*
X14250Y-25500D02*
X14900Y-26150D01*
X10000Y-25500D02*
X14250Y-25500D01*
X09700Y-25500D02*
X10000Y-25500D01*
X18400Y-10400D02*
X18650Y-10400D01*
X18150Y-10650D02*
X18400Y-10400D01*
X17050Y-10650D02*
X18150Y-10650D01*
X51900Y-14150D02*
X50150Y-12400D01*
X18850Y-10600D02*
X20200Y-10600D01*
X20200Y-10600D02*
X20750Y-11150D01*
X20750Y-11150D02*
X22600Y-11150D01*
X22600Y-11150D02*
X22650Y-11150D01*
X22650Y-11150D02*
X24550Y-09250D01*
X24550Y-09250D02*
X48250Y-09250D01*
X48250Y-09250D02*
X50150Y-11150D01*
X18850Y-10600D02*
X18650Y-10400D01*
X50150Y-12400D02*
X50150Y-11150D01*
X17050Y-10300D02*
X17050Y-10650D01*
X16650Y-09900D02*
X17050Y-10300D01*
X14900Y-09900D02*
X16650Y-09900D01*
X18400Y-24900D02*
X18650Y-24900D01*
X43150Y-25400D02*
X43150Y-26400D01*
X43150Y-26400D02*
X44900Y-28150D01*
X22600Y-25650D02*
X24450Y-23800D01*
X16850Y-23450D02*
X17200Y-23800D01*
X09950Y-22300D02*
X11100Y-23450D01*
X09150Y-22300D02*
X09950Y-22300D01*
X11100Y-23450D02*
X16850Y-23450D01*
X18650Y-24900D02*
X19550Y-24900D01*
X20300Y-25650D02*
X22600Y-25650D01*
X24450Y-23800D02*
X41550Y-23800D01*
X19550Y-24900D02*
X20300Y-25650D01*
X41550Y-23800D02*
X43150Y-25400D01*
X13950Y-25700D02*
X08800Y-25700D01*
X13950Y-25700D02*
X15150Y-26900D01*
X15150Y-26900D02*
X15150Y-28150D01*
X15150Y-28150D02*
X15400Y-28400D01*
X15400Y-28400D02*
X16150Y-28400D01*
X16150Y-28400D02*
X16400Y-28150D01*
X16400Y-28150D02*
X16400Y-27300D01*
X17050Y-26650D02*
X16400Y-27300D01*
X08800Y-25700D02*
X08700Y-25800D01*
X18650Y-26900D02*
X17300Y-26900D01*
X17300Y-26900D02*
X17050Y-26650D01*
X18650Y-26900D02*
X19400Y-27650D01*
X36050Y-28600D02*
X35950Y-28500D01*
X36050Y-28800D02*
X36050Y-28600D01*
X35900Y-28950D02*
X36050Y-28800D01*
X25100Y-28950D02*
X35900Y-28950D01*
X23800Y-27650D02*
X25100Y-28950D01*
X19400Y-27650D02*
X23800Y-27650D01*
X20650Y-28900D02*
X15400Y-28900D01*
X13650Y-25900D02*
X13800Y-26050D01*
X09732Y-25900D02*
X09750Y-25900D01*
X09750Y-25900D02*
X13650Y-25900D01*
X18650Y-25400D02*
X18700Y-25350D01*
X36850Y-27100D02*
X37900Y-28150D01*
X36850Y-26100D02*
X36850Y-27100D01*
X34950Y-24200D02*
X36850Y-26100D01*
X24550Y-24200D02*
X34950Y-24200D01*
X22600Y-26150D02*
X24550Y-24200D01*
X20050Y-26150D02*
X22600Y-26150D01*
X19250Y-25350D02*
X20050Y-26150D01*
X18700Y-25350D02*
X19250Y-25350D01*
X09750Y-25900D02*
X09250Y-25900D01*
X09250Y-25900D02*
X09050Y-26100D01*
X13800Y-26050D02*
X14900Y-27150D01*
X14900Y-27150D02*
X14900Y-28400D01*
X14900Y-28400D02*
X15400Y-28900D01*
X14500Y-27250D02*
X14400Y-27150D01*
X13350Y-26100D02*
X13500Y-26250D01*
X10100Y-26100D02*
X10182Y-26100D01*
X18650Y-26400D02*
X19100Y-26400D01*
X25000Y-28150D02*
X27150Y-28150D01*
X24000Y-27150D02*
X25000Y-28150D01*
X19850Y-27150D02*
X24000Y-27150D01*
X19100Y-26400D02*
X19850Y-27150D01*
X09800Y-26100D02*
X10182Y-26100D01*
X09650Y-26250D02*
X09800Y-26100D01*
X10182Y-26100D02*
X13350Y-26100D01*
X14500Y-27450D02*
X14500Y-27250D01*
X13500Y-26250D02*
X14400Y-27150D01*
X10200Y-28900D02*
X14650Y-28900D01*
X09750Y-28450D02*
X10200Y-28900D01*
X18650Y-25900D02*
X18600Y-25950D01*
X30150Y-27400D02*
X30150Y-26400D01*
X30150Y-26400D02*
X28350Y-24600D01*
X28350Y-24600D02*
X24700Y-24600D01*
X24700Y-24600D02*
X22650Y-26650D01*
X22650Y-26650D02*
X19850Y-26650D01*
X19850Y-26650D02*
X19100Y-25900D01*
X19100Y-25900D02*
X18650Y-25900D01*
X30900Y-28150D02*
X30150Y-27400D01*
X17300Y-25900D02*
X17050Y-25650D01*
X18650Y-25900D02*
X17300Y-25900D01*
X09600Y-34350D02*
X10850Y-35600D01*
X49150Y-36650D02*
X49600Y-36200D01*
X19250Y-34900D02*
X20000Y-35650D01*
X20000Y-35650D02*
X23900Y-35650D01*
X23900Y-35650D02*
X24900Y-36650D01*
X24900Y-36650D02*
X49150Y-36650D01*
X18650Y-34900D02*
X19250Y-34900D01*
X49600Y-36200D02*
X49600Y-35850D01*
X10850Y-35600D02*
X15700Y-35600D01*
X15350Y-30750D02*
X15600Y-30750D01*
X12450Y-33650D02*
X15350Y-30750D01*
X09450Y-33650D02*
X12450Y-33650D01*
X09100Y-33300D02*
X09450Y-33650D01*
X18650Y-31400D02*
X17300Y-31400D01*
X17300Y-31400D02*
X17050Y-31650D01*
X18650Y-31400D02*
X19700Y-31400D01*
X50100Y-33350D02*
X51900Y-35150D01*
X50100Y-32200D02*
X50100Y-33350D01*
X48250Y-30350D02*
X50100Y-32200D01*
X24300Y-30350D02*
X48250Y-30350D01*
X22500Y-32150D02*
X24300Y-30350D01*
X20600Y-32150D02*
X22500Y-32150D01*
X19850Y-31400D02*
X20600Y-32150D01*
X19700Y-31400D02*
X19850Y-31400D01*
X18650Y-34400D02*
X17300Y-34400D01*
X17300Y-34400D02*
X17050Y-34650D01*
X42650Y-35900D02*
X42650Y-36100D01*
X42650Y-36100D02*
X42500Y-36250D01*
X15150Y-35850D02*
X15300Y-36000D01*
X10550Y-35850D02*
X15150Y-35850D01*
X42650Y-35900D02*
X42650Y-35900D01*
X18650Y-34400D02*
X19250Y-34400D01*
X19250Y-34400D02*
X20000Y-35150D01*
X10400Y-35850D02*
X10550Y-35850D01*
X09950Y-35400D02*
X10400Y-35850D01*
X25100Y-36250D02*
X42500Y-36250D01*
X24000Y-35150D02*
X25100Y-36250D01*
X20000Y-35150D02*
X24000Y-35150D01*
X24500Y-30750D02*
X41500Y-30750D01*
X22600Y-32650D02*
X24500Y-30750D01*
X20450Y-32650D02*
X22600Y-32650D01*
X41500Y-30750D02*
X43600Y-32850D01*
X14900Y-30450D02*
X15100Y-30450D01*
X12100Y-33250D02*
X14900Y-30450D01*
X18650Y-31900D02*
X19700Y-31900D01*
X43600Y-33850D02*
X44900Y-35150D01*
X19700Y-31900D02*
X20450Y-32650D01*
X43600Y-32850D02*
X43600Y-33850D01*
X09900Y-33250D02*
X12100Y-33250D01*
X10450Y-36250D02*
X10500Y-36250D01*
X10500Y-36250D02*
X14850Y-36250D01*
X18650Y-33900D02*
X17300Y-33900D01*
X17300Y-33900D02*
X17050Y-33650D01*
X35950Y-35600D02*
X35700Y-35850D01*
X19250Y-33900D02*
X20000Y-34650D01*
X20000Y-34650D02*
X24100Y-34650D01*
X24100Y-34650D02*
X25300Y-35850D01*
X19250Y-33900D02*
X18650Y-33900D01*
X35700Y-35850D02*
X25300Y-35850D01*
X35950Y-35600D02*
X35950Y-35600D01*
X18400Y-13400D02*
X18650Y-13400D01*
X18150Y-13650D02*
X18400Y-13400D01*
X17050Y-13650D02*
X18150Y-13650D01*
X19400Y-13900D02*
X19650Y-14150D01*
X42900Y-15100D02*
X42850Y-15100D01*
X42750Y-15250D02*
X42900Y-15100D01*
X24450Y-15250D02*
X42750Y-15250D01*
X23350Y-14150D02*
X24450Y-15250D01*
X19650Y-14150D02*
X23350Y-14150D01*
X18900Y-13400D02*
X18650Y-13400D01*
X19400Y-13900D02*
X18900Y-13400D01*
X10350Y-32700D02*
X10350Y-32700D01*
X12150Y-32700D02*
X10350Y-32700D01*
X37900Y-35150D02*
X36450Y-33700D01*
X19400Y-32400D02*
X19600Y-32400D01*
X19600Y-32400D02*
X20350Y-33150D01*
X20350Y-33150D02*
X22700Y-33150D01*
X22700Y-33150D02*
X24700Y-31150D01*
X24700Y-31150D02*
X34850Y-31150D01*
X34850Y-31150D02*
X36450Y-32750D01*
X36450Y-32750D02*
X36450Y-33700D01*
X19400Y-32400D02*
X18650Y-32400D01*
X14650Y-30200D02*
X12150Y-32700D01*
X10600Y-36700D02*
X14850Y-36700D01*
X10550Y-36750D02*
X10600Y-36700D01*
X18650Y-33400D02*
X19350Y-33400D01*
X25200Y-35150D02*
X27200Y-35150D01*
X24200Y-34150D02*
X25200Y-35150D01*
X20100Y-34150D02*
X24200Y-34150D01*
X19350Y-33400D02*
X20100Y-34150D01*
X11350Y-30100D02*
X11850Y-29600D01*
X11850Y-29600D02*
X14700Y-29600D01*
X28950Y-33200D02*
X28950Y-32200D01*
X28950Y-32200D02*
X28300Y-31550D01*
X28300Y-31550D02*
X24900Y-31550D01*
X24900Y-31550D02*
X22800Y-33650D01*
X22800Y-33650D02*
X20150Y-33650D01*
X20150Y-33650D02*
X19400Y-32900D01*
X19400Y-32900D02*
X18650Y-32900D01*
X30900Y-35150D02*
X28950Y-33200D01*
X17300Y-32900D02*
X17050Y-32650D01*
X18650Y-32900D02*
X17300Y-32900D01*
X18650Y-41900D02*
X19400Y-41900D01*
X49600Y-42850D02*
X49600Y-42850D01*
X49600Y-43200D02*
X49600Y-42850D01*
X49100Y-43700D02*
X49600Y-43200D01*
X24950Y-43700D02*
X49100Y-43700D01*
X23900Y-42650D02*
X24950Y-43700D01*
X20150Y-42650D02*
X23900Y-42650D01*
X19400Y-41900D02*
X20150Y-42650D01*
X11150Y-39400D02*
X11550Y-39800D01*
X18650Y-38400D02*
X17300Y-38400D01*
X17300Y-38400D02*
X17050Y-38650D01*
X18650Y-38400D02*
X19550Y-38400D01*
X50700Y-40950D02*
X51900Y-42150D01*
X50700Y-40000D02*
X50700Y-40950D01*
X48100Y-37400D02*
X50700Y-40000D01*
X24250Y-37400D02*
X48100Y-37400D01*
X22500Y-39150D02*
X24250Y-37400D01*
X20300Y-39150D02*
X22500Y-39150D01*
X19550Y-38400D02*
X20300Y-39150D01*
X13450Y-39800D02*
X15350Y-37900D01*
X15350Y-37900D02*
X15850Y-37900D01*
X15850Y-37900D02*
X15950Y-37800D01*
X11550Y-39800D02*
X13450Y-39800D01*
X42650Y-42900D02*
X42650Y-42900D01*
X42650Y-43100D02*
X42650Y-42900D01*
X42450Y-43300D02*
X42650Y-43100D01*
X25150Y-43300D02*
X42450Y-43300D01*
X24000Y-42150D02*
X25150Y-43300D01*
X20150Y-42150D02*
X24000Y-42150D01*
X19400Y-41400D02*
X20150Y-42150D01*
X14750Y-42100D02*
X15400Y-42750D01*
X15400Y-42750D02*
X15400Y-42850D01*
X18650Y-41400D02*
X17300Y-41400D01*
X17300Y-41400D02*
X17050Y-41650D01*
X18650Y-41400D02*
X19400Y-41400D01*
X15400Y-37500D02*
X15550Y-37500D01*
X13500Y-39400D02*
X15400Y-37500D01*
X13500Y-39400D02*
X11650Y-39400D01*
X41600Y-37800D02*
X43900Y-40100D01*
X22600Y-39650D02*
X24450Y-37800D01*
X18650Y-38900D02*
X19550Y-38900D01*
X43900Y-41150D02*
X44900Y-42150D01*
X43900Y-40100D02*
X43900Y-41150D01*
X19550Y-38900D02*
X20300Y-39650D01*
X20300Y-39650D02*
X22600Y-39650D01*
X24450Y-37800D02*
X41600Y-37800D01*
X14850Y-42850D02*
X14850Y-43100D01*
X17300Y-40900D02*
X17050Y-40650D01*
X18650Y-40900D02*
X17300Y-40900D01*
X18650Y-40900D02*
X19400Y-40900D01*
X35850Y-42600D02*
X35850Y-42600D01*
X35850Y-42750D02*
X35850Y-42600D01*
X35700Y-42900D02*
X35850Y-42750D01*
X25350Y-42900D02*
X35700Y-42900D01*
X24100Y-41650D02*
X25350Y-42900D01*
X20150Y-41650D02*
X24100Y-41650D01*
X19400Y-40900D02*
X20150Y-41650D01*
X13850Y-41850D02*
X14850Y-42850D01*
X24650Y-38200D02*
X35100Y-38200D01*
X14600Y-37800D02*
X15150Y-37250D01*
X13000Y-37800D02*
X14600Y-37800D01*
X12700Y-37500D02*
X13000Y-37800D01*
X12700Y-37150D02*
X12700Y-37500D01*
X35100Y-38200D02*
X36500Y-39600D01*
X36500Y-39600D02*
X36500Y-40750D01*
X36500Y-40750D02*
X37900Y-42150D01*
X18650Y-39400D02*
X19350Y-39400D01*
X22700Y-40150D02*
X24650Y-38200D01*
X20250Y-40150D02*
X22700Y-40150D01*
X19500Y-39400D02*
X20250Y-40150D01*
X19350Y-39400D02*
X19500Y-39400D01*
X13150Y-41500D02*
X13500Y-41850D01*
X14300Y-43300D02*
X14300Y-43300D01*
X18650Y-40400D02*
X19400Y-40400D01*
X25200Y-42150D02*
X27200Y-42150D01*
X24200Y-41150D02*
X25200Y-42150D01*
X20150Y-41150D02*
X24200Y-41150D01*
X19400Y-40400D02*
X20150Y-41150D01*
X13500Y-42500D02*
X14300Y-43300D01*
X13500Y-41850D02*
X13500Y-42500D01*
X41550Y-09650D02*
X43550Y-11650D01*
X19400Y-10900D02*
X18650Y-10900D01*
X20150Y-11650D02*
X19900Y-11400D01*
X19900Y-11400D02*
X19400Y-10900D01*
X43550Y-12800D02*
X43550Y-11650D01*
X22650Y-11650D02*
X24650Y-09650D01*
X44900Y-14150D02*
X43550Y-12800D01*
X24650Y-09650D02*
X41550Y-09650D01*
X20150Y-11650D02*
X22600Y-11650D01*
X22600Y-11650D02*
X22650Y-11650D01*
X29100Y-39400D02*
X29100Y-40350D01*
X19400Y-39900D02*
X18650Y-39900D01*
X20150Y-40650D02*
X19400Y-39900D01*
X22800Y-40650D02*
X20150Y-40650D01*
X24850Y-38600D02*
X22800Y-40650D01*
X24850Y-38600D02*
X28300Y-38600D01*
X30900Y-42150D02*
X29100Y-40350D01*
X17300Y-39900D02*
X17050Y-39650D01*
X18650Y-39900D02*
X17300Y-39900D01*
X12400Y-40900D02*
X12700Y-41200D01*
X12700Y-41200D02*
X12700Y-42400D01*
X12700Y-42400D02*
X13950Y-43650D01*
X28300Y-38600D02*
X29100Y-39400D01*
X24950Y-14850D02*
X35750Y-14850D01*
X35750Y-14850D02*
X35950Y-14650D01*
X19900Y-13400D02*
X19400Y-12900D01*
X19400Y-12900D02*
X18650Y-12900D01*
X20150Y-13650D02*
X23750Y-13650D01*
X19900Y-13400D02*
X20150Y-13650D01*
X23750Y-13650D02*
X24950Y-14850D01*
X18150Y-12650D02*
X18400Y-12900D01*
X17050Y-12650D02*
X18150Y-12650D01*
X18400Y-12900D02*
X18650Y-12900D01*
X35250Y-10050D02*
X37150Y-11950D01*
X24800Y-10050D02*
X35250Y-10050D01*
X22700Y-12150D02*
X24800Y-10050D01*
X20650Y-12150D02*
X22700Y-12150D01*
X37900Y-14150D02*
X37150Y-13400D01*
X20400Y-12400D02*
X19400Y-11400D01*
X19400Y-11400D02*
X18650Y-11400D01*
X37150Y-13400D02*
X37150Y-11950D01*
X20650Y-12150D02*
X20400Y-12400D01*
X20400Y-13150D02*
X23350Y-13150D01*
X25150Y-14150D02*
X27150Y-14150D01*
X24150Y-13150D02*
X25150Y-14150D01*
X23350Y-13150D02*
X24150Y-13150D01*
X19650Y-12400D02*
X18650Y-12400D01*
X20400Y-13150D02*
X19650Y-12400D01*
X28900Y-11000D02*
X28900Y-12150D01*
X12650Y-14900D02*
X13250Y-14300D01*
X13250Y-14300D02*
X16100Y-14300D01*
X16100Y-14300D02*
X16400Y-14000D01*
X16400Y-12300D02*
X17050Y-11650D01*
X28750Y-10850D02*
X28900Y-11000D01*
X24950Y-10450D02*
X28350Y-10450D01*
X28350Y-10450D02*
X28750Y-10850D01*
X18650Y-11900D02*
X19350Y-11900D01*
X21100Y-12650D02*
X22750Y-12650D01*
X20950Y-12800D02*
X21100Y-12650D01*
X20450Y-12800D02*
X20950Y-12800D01*
X19550Y-11900D02*
X20450Y-12800D01*
X19350Y-11900D02*
X19550Y-11900D01*
X16400Y-14000D02*
X16400Y-12300D01*
X18150Y-11650D02*
X18400Y-11900D01*
X18400Y-11900D02*
X18650Y-11900D01*
X17050Y-11650D02*
X18150Y-11650D01*
X22750Y-12650D02*
X24950Y-10450D01*
X28900Y-12150D02*
X30900Y-14150D01*
X16900Y-21400D02*
X17150Y-21650D01*
X49850Y-21950D02*
X49850Y-21600D01*
X15150Y-21400D02*
X16900Y-21400D01*
X12400Y-18650D02*
X15150Y-21400D01*
X49100Y-22700D02*
X49850Y-21950D01*
X20400Y-20900D02*
X21250Y-21750D01*
X21250Y-21750D02*
X23550Y-21750D01*
X23550Y-21750D02*
X24500Y-22700D01*
X24500Y-22700D02*
X49100Y-22700D01*
X18650Y-20900D02*
X20400Y-20900D01*
X06750Y-16000D02*
X06750Y-16950D01*
X06750Y-16950D02*
X07750Y-17950D01*
X07750Y-17950D02*
X07750Y-22200D01*
X13700Y-24800D02*
X13700Y-24650D01*
X13700Y-24650D02*
X13250Y-24200D01*
X13250Y-24200D02*
X09750Y-24200D01*
X09750Y-24200D02*
X07750Y-22200D01*
X06250Y-15500D02*
X06750Y-16000D01*
X08150Y-17400D02*
X08150Y-22250D01*
X07250Y-16500D02*
X08150Y-17400D01*
X13500Y-24000D02*
X09900Y-24000D01*
X09900Y-24000D02*
X08150Y-22250D01*
X14250Y-24750D02*
X13500Y-24000D01*
X07250Y-16500D02*
X07250Y-16500D01*
M02*
