G04 (created by PCBNEW (2013-03-31 BZR 4008)-stable) date 12/04/2013 5:07:08 PM*
%MOIN*%
G04 Gerber Fmt 3.4, Leading zero omitted, Abs format*
%FSLAX34Y34*%
G01*
G70*
G90*
G04 APERTURE LIST*
%ADD10C,2.3622e-006*%
%ADD11C,0.1578*%
%ADD12C,0.08*%
%ADD13R,0.08X0.1*%
%ADD14R,0.045X0.065*%
%ADD15R,0.1X0.08*%
%ADD16R,0.1204X0.1676*%
%ADD17C,0.14*%
%ADD18R,0.08X0.08*%
%ADD19C,0.07*%
%ADD20C,0.0594*%
%ADD21C,0.12*%
%ADD22C,0.1771*%
%ADD23C,0.145*%
G04 APERTURE END LIST*
G54D10*
G54D11*
X10100Y-31700D03*
X10100Y-35700D03*
G54D12*
X12100Y-34700D03*
X12100Y-33700D03*
G54D13*
X58050Y-10350D03*
X59350Y-10350D03*
X20550Y-9850D03*
X21850Y-9850D03*
X37050Y-12350D03*
X38350Y-12350D03*
X51050Y-19350D03*
X52350Y-19350D03*
X37050Y-17350D03*
X38350Y-17350D03*
X44050Y-17350D03*
X45350Y-17350D03*
X58050Y-19350D03*
X59350Y-19350D03*
X37050Y-24350D03*
X38350Y-24350D03*
X51050Y-24350D03*
X52350Y-24350D03*
X44050Y-24350D03*
X45350Y-24350D03*
X20550Y-24850D03*
X21850Y-24850D03*
X37050Y-10350D03*
X38350Y-10350D03*
X51050Y-10350D03*
X52350Y-10350D03*
X44050Y-10350D03*
X45350Y-10350D03*
X20550Y-10850D03*
X21850Y-10850D03*
X20550Y-16850D03*
X21850Y-16850D03*
X51050Y-12350D03*
X52350Y-12350D03*
X44050Y-12350D03*
X45350Y-12350D03*
X58050Y-17350D03*
X59350Y-17350D03*
X20550Y-12850D03*
X21850Y-12850D03*
X20550Y-11850D03*
X21850Y-11850D03*
X58050Y-12350D03*
X59350Y-12350D03*
X58050Y-38350D03*
X59350Y-38350D03*
X20550Y-37850D03*
X21850Y-37850D03*
X44050Y-38350D03*
X45350Y-38350D03*
X37050Y-40350D03*
X38350Y-40350D03*
X58050Y-40350D03*
X59350Y-40350D03*
X20550Y-39850D03*
X21850Y-39850D03*
X20550Y-40850D03*
X21850Y-40850D03*
X44050Y-40350D03*
X45350Y-40350D03*
X20550Y-38850D03*
X21850Y-38850D03*
X37050Y-38350D03*
X38350Y-38350D03*
X58050Y-33350D03*
X59350Y-33350D03*
X37050Y-31350D03*
X38350Y-31350D03*
X20550Y-30850D03*
X21850Y-30850D03*
X44050Y-31350D03*
X45350Y-31350D03*
X44050Y-33350D03*
X45350Y-33350D03*
X51050Y-33350D03*
X52350Y-33350D03*
X37050Y-33350D03*
X38350Y-33350D03*
X20550Y-33850D03*
X21850Y-33850D03*
X51050Y-40350D03*
X52350Y-40350D03*
X51050Y-26350D03*
X52350Y-26350D03*
X44050Y-26350D03*
X45350Y-26350D03*
X20550Y-26850D03*
X21850Y-26850D03*
X58050Y-26350D03*
X59350Y-26350D03*
X20550Y-25850D03*
X21850Y-25850D03*
X44050Y-19350D03*
X45350Y-19350D03*
X20550Y-18850D03*
X21850Y-18850D03*
X51050Y-17350D03*
X52350Y-17350D03*
X20550Y-17850D03*
X21850Y-17850D03*
X20550Y-19850D03*
X21850Y-19850D03*
X37050Y-19350D03*
X38350Y-19350D03*
X20550Y-23850D03*
X21850Y-23850D03*
X58050Y-24350D03*
X59350Y-24350D03*
X37050Y-26350D03*
X38350Y-26350D03*
X20550Y-32850D03*
X21850Y-32850D03*
X51050Y-31350D03*
X52350Y-31350D03*
X58050Y-31350D03*
X59350Y-31350D03*
X20550Y-31850D03*
X21850Y-31850D03*
X51050Y-38350D03*
X52350Y-38350D03*
G54D14*
X16550Y-26050D03*
X15950Y-26050D03*
X15900Y-24100D03*
X16500Y-24100D03*
G54D15*
X42700Y-24350D03*
X42700Y-25350D03*
X42700Y-26350D03*
X42700Y-27350D03*
X39700Y-27350D03*
X39700Y-26350D03*
X39700Y-25350D03*
X39700Y-24350D03*
X49700Y-10350D03*
X49700Y-11350D03*
X49700Y-12350D03*
X49700Y-13350D03*
X46700Y-13350D03*
X46700Y-12350D03*
X46700Y-11350D03*
X46700Y-10350D03*
X35700Y-38350D03*
X35700Y-39350D03*
X35700Y-40350D03*
X35700Y-41350D03*
X32700Y-41350D03*
X32700Y-40350D03*
X32700Y-39350D03*
X32700Y-38350D03*
X49700Y-24350D03*
X49700Y-25350D03*
X49700Y-26350D03*
X49700Y-27350D03*
X46700Y-27350D03*
X46700Y-26350D03*
X46700Y-25350D03*
X46700Y-24350D03*
X49700Y-38350D03*
X49700Y-39350D03*
X49700Y-40350D03*
X49700Y-41350D03*
X46700Y-41350D03*
X46700Y-40350D03*
X46700Y-39350D03*
X46700Y-38350D03*
X42700Y-17350D03*
X42700Y-18350D03*
X42700Y-19350D03*
X42700Y-20350D03*
X39700Y-20350D03*
X39700Y-19350D03*
X39700Y-18350D03*
X39700Y-17350D03*
X49700Y-17350D03*
X49700Y-18350D03*
X49700Y-19350D03*
X49700Y-20350D03*
X46700Y-20350D03*
X46700Y-19350D03*
X46700Y-18350D03*
X46700Y-17350D03*
X42700Y-10350D03*
X42700Y-11350D03*
X42700Y-12350D03*
X42700Y-13350D03*
X39700Y-13350D03*
X39700Y-12350D03*
X39700Y-11350D03*
X39700Y-10350D03*
X35700Y-10350D03*
X35700Y-11350D03*
X35700Y-12350D03*
X35700Y-13350D03*
X32700Y-13350D03*
X32700Y-12350D03*
X32700Y-11350D03*
X32700Y-10350D03*
X56700Y-38350D03*
X56700Y-39350D03*
X56700Y-40350D03*
X56700Y-41350D03*
X53700Y-41350D03*
X53700Y-40350D03*
X53700Y-39350D03*
X53700Y-38350D03*
X35700Y-17350D03*
X35700Y-18350D03*
X35700Y-19350D03*
X35700Y-20350D03*
X32700Y-20350D03*
X32700Y-19350D03*
X32700Y-18350D03*
X32700Y-17350D03*
X56700Y-10350D03*
X56700Y-11350D03*
X56700Y-12350D03*
X56700Y-13350D03*
X53700Y-13350D03*
X53700Y-12350D03*
X53700Y-11350D03*
X53700Y-10350D03*
X56700Y-31350D03*
X56700Y-32350D03*
X56700Y-33350D03*
X56700Y-34350D03*
X53700Y-34350D03*
X53700Y-33350D03*
X53700Y-32350D03*
X53700Y-31350D03*
X35700Y-24350D03*
X35700Y-25350D03*
X35700Y-26350D03*
X35700Y-27350D03*
X32700Y-27350D03*
X32700Y-26350D03*
X32700Y-25350D03*
X32700Y-24350D03*
X42700Y-31350D03*
X42700Y-32350D03*
X42700Y-33350D03*
X42700Y-34350D03*
X39700Y-34350D03*
X39700Y-33350D03*
X39700Y-32350D03*
X39700Y-31350D03*
X56700Y-24350D03*
X56700Y-25350D03*
X56700Y-26350D03*
X56700Y-27350D03*
X53700Y-27350D03*
X53700Y-26350D03*
X53700Y-25350D03*
X53700Y-24350D03*
X42700Y-38350D03*
X42700Y-39350D03*
X42700Y-40350D03*
X42700Y-41350D03*
X39700Y-41350D03*
X39700Y-40350D03*
X39700Y-39350D03*
X39700Y-38350D03*
G54D11*
X10100Y-38600D03*
X10100Y-42600D03*
G54D12*
X12100Y-41600D03*
X12100Y-40600D03*
G54D15*
X35700Y-31350D03*
X35700Y-32350D03*
X35700Y-33350D03*
X35700Y-34350D03*
X32700Y-34350D03*
X32700Y-33350D03*
X32700Y-32350D03*
X32700Y-31350D03*
X56700Y-17350D03*
X56700Y-18350D03*
X56700Y-19350D03*
X56700Y-20350D03*
X53700Y-20350D03*
X53700Y-19350D03*
X53700Y-18350D03*
X53700Y-17350D03*
X49700Y-31350D03*
X49700Y-32350D03*
X49700Y-33350D03*
X49700Y-34350D03*
X46700Y-34350D03*
X46700Y-33350D03*
X46700Y-32350D03*
X46700Y-31350D03*
G54D16*
X15537Y-9150D03*
X17663Y-9150D03*
G54D17*
X11400Y-9250D03*
X11400Y-17850D03*
G54D18*
X12100Y-15550D03*
G54D12*
X11100Y-15550D03*
X12100Y-14550D03*
X11100Y-14550D03*
X12100Y-13550D03*
X11100Y-13550D03*
X12100Y-12550D03*
X11100Y-12550D03*
X12100Y-11550D03*
X11100Y-11550D03*
G54D19*
X62600Y-20525D03*
X62600Y-31275D03*
G54D20*
X62350Y-21650D03*
X62350Y-21150D03*
X62850Y-21150D03*
X62850Y-21650D03*
X62850Y-23150D03*
X62850Y-23650D03*
X62850Y-22650D03*
X62850Y-22150D03*
X62350Y-22150D03*
X62350Y-22650D03*
X62350Y-23650D03*
X62350Y-23150D03*
X62850Y-28650D03*
X62850Y-29150D03*
X62850Y-30150D03*
X62850Y-29650D03*
X62350Y-29650D03*
X62350Y-30150D03*
X62350Y-29150D03*
X62350Y-28650D03*
X62350Y-30650D03*
X62850Y-30650D03*
X62850Y-28150D03*
X62350Y-28150D03*
X62350Y-25150D03*
X62350Y-25650D03*
X62350Y-24650D03*
X62350Y-24150D03*
X62350Y-26150D03*
X62350Y-26650D03*
X62350Y-27650D03*
X62350Y-27150D03*
X62850Y-27150D03*
X62850Y-27650D03*
X62850Y-26650D03*
X62850Y-26150D03*
X62850Y-24150D03*
X62850Y-24650D03*
X62850Y-25650D03*
X62850Y-25150D03*
G54D21*
X11500Y-21150D03*
X11500Y-29150D03*
G54D22*
X8500Y-23150D03*
G54D23*
X12500Y-26150D03*
X12500Y-24150D03*
X12500Y-28150D03*
X12500Y-22150D03*
G54D22*
X8500Y-27150D03*
M02*
