G04 (created by PCBNEW-RS274X (2011-04-29 BZR 2986)-stable) date 8/1/2011 4:56:54 PM*
G01*
G70*
G90*
%MOIN*%
G04 Gerber Fmt 3.4, Leading zero omitted, Abs format*
%FSLAX34Y34*%
G04 APERTURE LIST*
%ADD10C,0.006000*%
%ADD11C,0.140000*%
%ADD12R,0.080000X0.080000*%
%ADD13C,0.080000*%
%ADD14C,0.180000*%
%ADD15C,0.157800*%
%ADD16R,0.080000X0.100000*%
%ADD17R,0.100000X0.080000*%
%ADD18R,0.045000X0.065000*%
%ADD19R,0.167600X0.120400*%
G04 APERTURE END LIST*
G54D10*
G54D11*
X61100Y-15600D03*
X61100Y-44200D03*
G54D12*
X60400Y-17900D03*
G54D13*
X61400Y-17900D03*
X60400Y-18900D03*
X61400Y-18900D03*
X60400Y-19900D03*
X61400Y-19900D03*
X60400Y-20900D03*
X61400Y-20900D03*
X60400Y-21900D03*
X61400Y-21900D03*
X60400Y-22900D03*
X61400Y-22900D03*
X60400Y-23900D03*
X61400Y-23900D03*
X60400Y-24900D03*
X61400Y-24900D03*
X60400Y-25900D03*
X61400Y-25900D03*
X60400Y-26900D03*
X61400Y-26900D03*
X60400Y-27900D03*
X61400Y-27900D03*
X60400Y-28900D03*
X61400Y-28900D03*
X60400Y-29900D03*
X61400Y-29900D03*
X60400Y-30900D03*
X61400Y-30900D03*
X60400Y-31900D03*
X61400Y-31900D03*
X60400Y-32900D03*
X61400Y-32900D03*
X60400Y-33900D03*
X61400Y-33900D03*
X60400Y-34900D03*
X61400Y-34900D03*
X60400Y-35900D03*
X61400Y-35900D03*
X60400Y-36900D03*
X61400Y-36900D03*
X60400Y-37900D03*
X61400Y-37900D03*
X60400Y-38900D03*
X61400Y-38900D03*
X60400Y-39900D03*
X61400Y-39900D03*
X60400Y-40900D03*
X61400Y-40900D03*
X60400Y-41900D03*
X61400Y-41900D03*
G54D14*
X58000Y-41500D03*
G54D15*
X08000Y-35350D03*
X08000Y-39350D03*
G54D13*
X10000Y-38350D03*
X10000Y-37350D03*
G54D11*
X06550Y-10200D03*
X06550Y-18800D03*
G54D12*
X07250Y-16500D03*
G54D13*
X06250Y-16500D03*
X07250Y-15500D03*
X06250Y-15500D03*
X07250Y-14500D03*
X06250Y-14500D03*
X07250Y-13500D03*
X06250Y-13500D03*
X07250Y-12500D03*
X06250Y-12500D03*
G54D14*
X16000Y-15500D03*
X58000Y-15500D03*
X13000Y-48000D03*
X60650Y-48000D03*
X07000Y-07000D03*
G54D16*
X53250Y-11150D03*
X54550Y-11150D03*
X15750Y-10650D03*
X17050Y-10650D03*
X32250Y-13150D03*
X33550Y-13150D03*
X46250Y-20150D03*
X47550Y-20150D03*
X32250Y-18150D03*
X33550Y-18150D03*
X39250Y-18150D03*
X40550Y-18150D03*
X53250Y-20150D03*
X54550Y-20150D03*
X32250Y-25150D03*
X33550Y-25150D03*
X46250Y-25150D03*
X47550Y-25150D03*
X39250Y-25150D03*
X40550Y-25150D03*
X15750Y-25650D03*
X17050Y-25650D03*
G54D17*
X06350Y-28300D03*
X06350Y-27000D03*
G54D16*
X32250Y-11150D03*
X33550Y-11150D03*
X46250Y-11150D03*
X47550Y-11150D03*
X39250Y-11150D03*
X40550Y-11150D03*
X15750Y-11650D03*
X17050Y-11650D03*
X15750Y-17650D03*
X17050Y-17650D03*
X46250Y-13150D03*
X47550Y-13150D03*
X39250Y-13150D03*
X40550Y-13150D03*
X53250Y-18150D03*
X54550Y-18150D03*
X15750Y-13650D03*
X17050Y-13650D03*
X15750Y-12650D03*
X17050Y-12650D03*
X53250Y-13150D03*
X54550Y-13150D03*
X53250Y-39150D03*
X54550Y-39150D03*
X15750Y-38650D03*
X17050Y-38650D03*
X39250Y-39150D03*
X40550Y-39150D03*
X32250Y-41150D03*
X33550Y-41150D03*
X53250Y-41150D03*
X54550Y-41150D03*
X15750Y-40650D03*
X17050Y-40650D03*
X15750Y-41650D03*
X17050Y-41650D03*
X39250Y-41150D03*
X40550Y-41150D03*
X15750Y-39650D03*
X17050Y-39650D03*
X32250Y-39150D03*
X33550Y-39150D03*
X53250Y-34150D03*
X54550Y-34150D03*
X32250Y-32150D03*
X33550Y-32150D03*
X15750Y-31650D03*
X17050Y-31650D03*
X39250Y-32150D03*
X40550Y-32150D03*
X39250Y-34150D03*
X40550Y-34150D03*
X46250Y-34150D03*
X47550Y-34150D03*
X32250Y-34150D03*
X33550Y-34150D03*
X15750Y-34650D03*
X17050Y-34650D03*
X46250Y-41150D03*
X47550Y-41150D03*
X46250Y-27150D03*
X47550Y-27150D03*
X39250Y-27150D03*
X40550Y-27150D03*
G54D17*
X07350Y-28300D03*
X07350Y-27000D03*
G54D16*
X15750Y-27650D03*
X17050Y-27650D03*
X53250Y-27150D03*
X54550Y-27150D03*
X15750Y-26650D03*
X17050Y-26650D03*
X39250Y-20150D03*
X40550Y-20150D03*
X15750Y-19650D03*
X17050Y-19650D03*
X46250Y-18150D03*
X47550Y-18150D03*
X15750Y-18650D03*
X17050Y-18650D03*
X15750Y-20650D03*
X17050Y-20650D03*
X32250Y-20150D03*
X33550Y-20150D03*
X15750Y-24650D03*
X17050Y-24650D03*
X53250Y-25150D03*
X54550Y-25150D03*
X32250Y-27150D03*
X33550Y-27150D03*
X15750Y-33650D03*
X17050Y-33650D03*
X46250Y-32150D03*
X47550Y-32150D03*
X53250Y-32150D03*
X54550Y-32150D03*
X15750Y-32650D03*
X17050Y-32650D03*
X46250Y-39150D03*
X47550Y-39150D03*
G54D18*
X11750Y-26850D03*
X11150Y-26850D03*
X11100Y-24900D03*
X11700Y-24900D03*
G54D17*
X37900Y-25150D03*
X37900Y-26150D03*
X37900Y-27150D03*
X37900Y-28150D03*
X34900Y-28150D03*
X34900Y-27150D03*
X34900Y-26150D03*
X34900Y-25150D03*
X44900Y-11150D03*
X44900Y-12150D03*
X44900Y-13150D03*
X44900Y-14150D03*
X41900Y-14150D03*
X41900Y-13150D03*
X41900Y-12150D03*
X41900Y-11150D03*
X30900Y-39150D03*
X30900Y-40150D03*
X30900Y-41150D03*
X30900Y-42150D03*
X27900Y-42150D03*
X27900Y-41150D03*
X27900Y-40150D03*
X27900Y-39150D03*
X44900Y-25150D03*
X44900Y-26150D03*
X44900Y-27150D03*
X44900Y-28150D03*
X41900Y-28150D03*
X41900Y-27150D03*
X41900Y-26150D03*
X41900Y-25150D03*
X44900Y-39150D03*
X44900Y-40150D03*
X44900Y-41150D03*
X44900Y-42150D03*
X41900Y-42150D03*
X41900Y-41150D03*
X41900Y-40150D03*
X41900Y-39150D03*
X37900Y-18150D03*
X37900Y-19150D03*
X37900Y-20150D03*
X37900Y-21150D03*
X34900Y-21150D03*
X34900Y-20150D03*
X34900Y-19150D03*
X34900Y-18150D03*
X44900Y-18150D03*
X44900Y-19150D03*
X44900Y-20150D03*
X44900Y-21150D03*
X41900Y-21150D03*
X41900Y-20150D03*
X41900Y-19150D03*
X41900Y-18150D03*
X37900Y-11150D03*
X37900Y-12150D03*
X37900Y-13150D03*
X37900Y-14150D03*
X34900Y-14150D03*
X34900Y-13150D03*
X34900Y-12150D03*
X34900Y-11150D03*
X30900Y-11150D03*
X30900Y-12150D03*
X30900Y-13150D03*
X30900Y-14150D03*
X27900Y-14150D03*
X27900Y-13150D03*
X27900Y-12150D03*
X27900Y-11150D03*
X51900Y-39150D03*
X51900Y-40150D03*
X51900Y-41150D03*
X51900Y-42150D03*
X48900Y-42150D03*
X48900Y-41150D03*
X48900Y-40150D03*
X48900Y-39150D03*
X30900Y-18150D03*
X30900Y-19150D03*
X30900Y-20150D03*
X30900Y-21150D03*
X27900Y-21150D03*
X27900Y-20150D03*
X27900Y-19150D03*
X27900Y-18150D03*
X51900Y-11150D03*
X51900Y-12150D03*
X51900Y-13150D03*
X51900Y-14150D03*
X48900Y-14150D03*
X48900Y-13150D03*
X48900Y-12150D03*
X48900Y-11150D03*
X51900Y-32150D03*
X51900Y-33150D03*
X51900Y-34150D03*
X51900Y-35150D03*
X48900Y-35150D03*
X48900Y-34150D03*
X48900Y-33150D03*
X48900Y-32150D03*
X30900Y-25150D03*
X30900Y-26150D03*
X30900Y-27150D03*
X30900Y-28150D03*
X27900Y-28150D03*
X27900Y-27150D03*
X27900Y-26150D03*
X27900Y-25150D03*
X37900Y-32150D03*
X37900Y-33150D03*
X37900Y-34150D03*
X37900Y-35150D03*
X34900Y-35150D03*
X34900Y-34150D03*
X34900Y-33150D03*
X34900Y-32150D03*
X51900Y-25150D03*
X51900Y-26150D03*
X51900Y-27150D03*
X51900Y-28150D03*
X48900Y-28150D03*
X48900Y-27150D03*
X48900Y-26150D03*
X48900Y-25150D03*
X37900Y-39150D03*
X37900Y-40150D03*
X37900Y-41150D03*
X37900Y-42150D03*
X34900Y-42150D03*
X34900Y-41150D03*
X34900Y-40150D03*
X34900Y-39150D03*
G54D15*
X08000Y-42650D03*
X08000Y-46650D03*
G54D13*
X10000Y-45650D03*
X10000Y-44650D03*
G54D17*
X30900Y-32150D03*
X30900Y-33150D03*
X30900Y-34150D03*
X30900Y-35150D03*
X27900Y-35150D03*
X27900Y-34150D03*
X27900Y-33150D03*
X27900Y-32150D03*
X51900Y-18150D03*
X51900Y-19150D03*
X51900Y-20150D03*
X51900Y-21150D03*
X48900Y-21150D03*
X48900Y-20150D03*
X48900Y-19150D03*
X48900Y-18150D03*
X44900Y-32150D03*
X44900Y-33150D03*
X44900Y-34150D03*
X44900Y-35150D03*
X41900Y-35150D03*
X41900Y-34150D03*
X41900Y-33150D03*
X41900Y-32150D03*
G54D19*
X10550Y-10537D03*
X10550Y-12663D03*
G54D14*
X60650Y-07000D03*
M02*
