G04 (created by PCBNEW-RS274X (2011-04-29 BZR 2986)-stable) date 8/1/2011 4:56:54 PM*
G01*
G70*
G90*
%MOIN*%
G04 Gerber Fmt 3.4, Leading zero omitted, Abs format*
%FSLAX34Y34*%
G04 APERTURE LIST*
%ADD10C,0.006000*%
%ADD11C,0.120000*%
%ADD12R,0.060000X0.060000*%
%ADD13C,0.060000*%
%ADD14C,0.160000*%
%ADD15C,0.137800*%
%ADD16C,0.025000*%
%ADD17C,0.010000*%
G04 APERTURE END LIST*
G54D10*
G54D11*
X61100Y-15600D03*
X61100Y-44200D03*
G54D12*
X60400Y-17900D03*
G54D13*
X61400Y-17900D03*
X60400Y-18900D03*
X61400Y-18900D03*
X60400Y-19900D03*
X61400Y-19900D03*
X60400Y-20900D03*
X61400Y-20900D03*
X60400Y-21900D03*
X61400Y-21900D03*
X60400Y-22900D03*
X61400Y-22900D03*
X60400Y-23900D03*
X61400Y-23900D03*
X60400Y-24900D03*
X61400Y-24900D03*
X60400Y-25900D03*
X61400Y-25900D03*
X60400Y-26900D03*
X61400Y-26900D03*
X60400Y-27900D03*
X61400Y-27900D03*
X60400Y-28900D03*
X61400Y-28900D03*
X60400Y-29900D03*
X61400Y-29900D03*
X60400Y-30900D03*
X61400Y-30900D03*
X60400Y-31900D03*
X61400Y-31900D03*
X60400Y-32900D03*
X61400Y-32900D03*
X60400Y-33900D03*
X61400Y-33900D03*
X60400Y-34900D03*
X61400Y-34900D03*
X60400Y-35900D03*
X61400Y-35900D03*
X60400Y-36900D03*
X61400Y-36900D03*
X60400Y-37900D03*
X61400Y-37900D03*
X60400Y-38900D03*
X61400Y-38900D03*
X60400Y-39900D03*
X61400Y-39900D03*
X60400Y-40900D03*
X61400Y-40900D03*
X60400Y-41900D03*
X61400Y-41900D03*
G54D14*
X58000Y-41500D03*
G54D15*
X08000Y-35350D03*
X08000Y-39350D03*
G54D13*
X10000Y-38350D03*
X10000Y-37350D03*
G54D11*
X06550Y-10200D03*
X06550Y-18800D03*
G54D12*
X07250Y-16500D03*
G54D13*
X06250Y-16500D03*
X07250Y-15500D03*
X06250Y-15500D03*
X07250Y-14500D03*
X06250Y-14500D03*
X07250Y-13500D03*
X06250Y-13500D03*
X07250Y-12500D03*
X06250Y-12500D03*
G54D14*
X16000Y-15500D03*
X58000Y-15500D03*
X13000Y-48000D03*
X60650Y-48000D03*
X07000Y-07000D03*
G54D15*
X08000Y-42650D03*
X08000Y-46650D03*
G54D13*
X10000Y-45650D03*
X10000Y-44650D03*
G54D14*
X60650Y-07000D03*
G54D16*
X07350Y-28950D03*
X14050Y-27700D03*
X15000Y-33150D03*
X15050Y-40150D03*
X15100Y-19150D03*
X15100Y-12150D03*
X15050Y-25150D03*
X09450Y-14600D03*
X09450Y-10550D03*
X25250Y-11850D03*
X25250Y-18900D03*
X25250Y-25900D03*
X25250Y-32900D03*
X25250Y-39850D03*
X32250Y-40150D03*
X32250Y-33150D03*
X32250Y-26150D03*
X32250Y-19200D03*
X32250Y-12200D03*
X39250Y-12150D03*
X39250Y-19150D03*
X39250Y-26150D03*
X39250Y-33150D03*
X39250Y-40150D03*
X46250Y-40150D03*
X46250Y-33150D03*
X46250Y-26150D03*
X46250Y-19100D03*
X46250Y-12200D03*
X47550Y-26100D03*
X47550Y-19100D03*
X47550Y-12200D03*
X33550Y-12150D03*
X33550Y-19150D03*
X33550Y-26150D03*
X33550Y-33200D03*
X33550Y-40150D03*
X40550Y-40150D03*
X40550Y-33150D03*
X40550Y-26150D03*
X40550Y-19150D03*
X40550Y-12150D03*
X47550Y-33100D03*
X47550Y-40100D03*
X54550Y-38300D03*
X54550Y-32850D03*
X54550Y-26350D03*
X54550Y-19400D03*
X54550Y-12100D03*
X12100Y-26450D03*
X10650Y-24900D03*
X22400Y-23900D03*
X22400Y-16900D03*
X22400Y-09900D03*
X22400Y-30900D03*
X22400Y-37900D03*
X08300Y-23500D03*
X08400Y-24200D03*
X21150Y-37850D03*
X21150Y-30900D03*
X21100Y-24000D03*
X21100Y-16900D03*
X07100Y-26200D03*
X06350Y-28900D03*
X18650Y-37900D03*
X13050Y-26550D03*
X21200Y-09900D03*
X12150Y-24900D03*
X09650Y-24700D03*
X09450Y-15200D03*
X09450Y-12700D03*
X10850Y-26450D03*
X12900Y-24900D03*
X18650Y-35400D03*
X18650Y-30900D03*
X18650Y-28400D03*
X18650Y-23900D03*
X18650Y-16900D03*
X18650Y-14400D03*
X18650Y-21400D03*
X18650Y-42400D03*
X18650Y-09900D03*
X42550Y-28100D03*
X49550Y-41950D03*
X44250Y-42150D03*
X42600Y-42000D03*
X37200Y-42150D03*
X35650Y-41950D03*
X30200Y-42150D03*
X28600Y-42300D03*
X51200Y-35150D03*
X49600Y-35000D03*
X44250Y-35250D03*
X42550Y-35050D03*
X37250Y-35200D03*
X35600Y-35000D03*
X30250Y-35150D03*
X28600Y-35300D03*
X51200Y-28150D03*
X49550Y-28050D03*
X44250Y-28150D03*
X51250Y-42150D03*
X37250Y-28150D03*
X35600Y-27900D03*
X30250Y-28150D03*
X28600Y-28250D03*
X51200Y-21150D03*
X49600Y-20900D03*
X44250Y-21150D03*
X42600Y-20850D03*
X37200Y-21150D03*
X35600Y-20950D03*
X30250Y-21150D03*
X28600Y-21300D03*
X51200Y-14150D03*
X49600Y-14150D03*
X44200Y-14150D03*
X42600Y-14150D03*
X37200Y-14150D03*
X35600Y-14150D03*
X30200Y-14150D03*
X28650Y-14300D03*
X51200Y-39000D03*
X49600Y-39400D03*
X44200Y-39000D03*
X42600Y-39400D03*
X37200Y-39000D03*
X35600Y-39250D03*
X30200Y-39000D03*
X28600Y-39350D03*
X51200Y-32000D03*
X49600Y-32300D03*
X44200Y-32000D03*
X42600Y-32350D03*
X37200Y-32000D03*
X35600Y-32350D03*
X30200Y-31950D03*
X28600Y-32350D03*
X51200Y-25000D03*
X49600Y-25250D03*
X44200Y-24900D03*
X42600Y-25300D03*
X37200Y-24950D03*
X35550Y-25250D03*
X30200Y-24950D03*
X28600Y-25300D03*
X51200Y-18000D03*
X49600Y-18150D03*
X44250Y-18000D03*
X42550Y-18150D03*
X37200Y-18000D03*
X35600Y-18200D03*
X30200Y-18050D03*
X28600Y-18150D03*
X51150Y-10900D03*
X49650Y-11300D03*
X44150Y-10900D03*
X42700Y-11350D03*
X37150Y-10950D03*
X35650Y-11050D03*
X30200Y-11000D03*
X28550Y-11150D03*
X49700Y-20200D03*
X42600Y-20150D03*
X35600Y-20150D03*
X28900Y-20900D03*
X49600Y-27150D03*
X49550Y-13150D03*
X42550Y-27150D03*
X35550Y-27150D03*
X28600Y-27600D03*
X49700Y-34200D03*
X42600Y-34150D03*
X35600Y-34150D03*
X28650Y-34650D03*
X49600Y-41150D03*
X42600Y-41150D03*
X35600Y-41150D03*
X42600Y-13150D03*
X28600Y-41850D03*
X35600Y-13150D03*
X28600Y-13600D03*
X22400Y-13900D03*
X42650Y-12150D03*
X22400Y-10900D03*
X22400Y-12900D03*
X27150Y-12200D03*
X22400Y-14400D03*
X49600Y-12150D03*
X22400Y-13400D03*
X35600Y-12150D03*
X22400Y-12400D03*
X22400Y-11900D03*
X22400Y-11400D03*
X22400Y-20900D03*
X42550Y-19150D03*
X22400Y-17900D03*
X27200Y-19150D03*
X22400Y-19900D03*
X49600Y-19150D03*
X22400Y-21400D03*
X35650Y-19150D03*
X22400Y-20400D03*
X22400Y-19400D03*
X22400Y-18900D03*
X22400Y-18400D03*
X22400Y-28400D03*
X49650Y-26450D03*
X22400Y-24900D03*
X22400Y-25400D03*
X22400Y-27400D03*
X35600Y-26200D03*
X22400Y-25900D03*
X22400Y-26400D03*
X27150Y-26150D03*
X22400Y-26900D03*
X42550Y-26150D03*
X22400Y-27900D03*
X22400Y-31900D03*
X49600Y-33250D03*
X22400Y-35400D03*
X22400Y-32400D03*
X22400Y-34400D03*
X35600Y-33150D03*
X22400Y-32900D03*
X22400Y-33900D03*
X27200Y-33150D03*
X22400Y-33400D03*
X42600Y-33150D03*
X22400Y-34900D03*
X22400Y-39400D03*
X22400Y-40900D03*
X27150Y-40100D03*
X22400Y-42400D03*
X49550Y-40150D03*
X22400Y-41900D03*
X42600Y-40150D03*
X35600Y-40150D03*
X22400Y-41400D03*
X22400Y-38900D03*
X22400Y-39900D03*
X22400Y-40400D03*
X18650Y-13900D03*
X50350Y-14850D03*
X12000Y-16950D03*
X18650Y-17400D03*
X43000Y-21550D03*
X18650Y-20400D03*
X16650Y-21900D03*
X11150Y-17900D03*
X14150Y-23150D03*
X10900Y-21400D03*
X18650Y-17900D03*
X36000Y-21700D03*
X16150Y-22150D03*
X10900Y-18400D03*
X18650Y-19900D03*
X18650Y-18400D03*
X14650Y-22900D03*
X10400Y-20400D03*
X18650Y-19400D03*
X27200Y-21150D03*
X10400Y-18900D03*
X15650Y-22400D03*
X09900Y-18900D03*
X18650Y-18900D03*
X15150Y-22650D03*
X10150Y-24900D03*
X16400Y-23900D03*
X18650Y-27900D03*
X49650Y-28900D03*
X09700Y-23200D03*
X18650Y-24400D03*
X14900Y-26150D03*
X09050Y-24850D03*
X18650Y-27400D03*
X42650Y-28900D03*
X14900Y-09900D03*
X18650Y-10400D03*
X09150Y-22300D03*
X17200Y-23800D03*
X18650Y-24900D03*
X18650Y-26900D03*
X35950Y-28500D03*
X08700Y-25800D03*
X18650Y-25400D03*
X09050Y-26100D03*
X20650Y-28900D03*
X18650Y-26400D03*
X27150Y-28150D03*
X09650Y-26250D03*
X14500Y-27450D03*
X18650Y-25900D03*
X14650Y-28900D03*
X09750Y-28450D03*
X18650Y-34900D03*
X49600Y-35850D03*
X15700Y-35600D03*
X09600Y-34350D03*
X18650Y-31400D03*
X15600Y-30750D03*
X09100Y-33300D03*
X42650Y-35900D03*
X18650Y-34400D03*
X09950Y-35400D03*
X15300Y-36000D03*
X15100Y-30450D03*
X18650Y-31900D03*
X09900Y-33250D03*
X18650Y-33900D03*
X35950Y-35600D03*
X10500Y-36250D03*
X14850Y-36250D03*
X42850Y-15100D03*
X19400Y-13900D03*
X18650Y-13400D03*
X18650Y-32400D03*
X14650Y-30200D03*
X10350Y-32700D03*
X18650Y-33400D03*
X27200Y-35150D03*
X14850Y-36700D03*
X10550Y-36750D03*
X11350Y-30100D03*
X18650Y-32900D03*
X14700Y-29600D03*
X18650Y-41900D03*
X49600Y-42850D03*
X15950Y-37800D03*
X11150Y-39400D03*
X18650Y-38400D03*
X14750Y-42100D03*
X15400Y-42850D03*
X18650Y-41400D03*
X42650Y-42900D03*
X18650Y-38900D03*
X15550Y-37500D03*
X11650Y-39400D03*
X18650Y-40900D03*
X35850Y-42600D03*
X13850Y-41850D03*
X14850Y-43100D03*
X18650Y-39400D03*
X15150Y-37250D03*
X12700Y-37150D03*
X18650Y-40400D03*
X27200Y-42150D03*
X13150Y-41500D03*
X14300Y-43300D03*
X19900Y-11400D03*
X18650Y-10900D03*
X13950Y-43650D03*
X18650Y-39900D03*
X12400Y-40900D03*
X18650Y-12900D03*
X19900Y-13400D03*
X35950Y-14650D03*
X20400Y-12400D03*
X18650Y-11400D03*
X27150Y-14150D03*
X18650Y-12400D03*
X20400Y-13150D03*
X12650Y-14900D03*
X18650Y-11900D03*
X17150Y-21650D03*
X12400Y-18650D03*
X18650Y-20900D03*
X49850Y-21600D03*
X13700Y-24800D03*
X14250Y-24750D03*
G54D10*
G36*
X54700Y-43700D02*
X53050Y-43700D01*
X53050Y-09700D01*
X47700Y-09700D01*
X47700Y-43700D01*
X46050Y-43700D01*
X46050Y-09700D01*
X40700Y-09700D01*
X40700Y-43700D01*
X39050Y-43700D01*
X39050Y-09700D01*
X33700Y-09700D01*
X33700Y-43700D01*
X32050Y-43700D01*
X32050Y-09700D01*
X26700Y-09700D01*
X26700Y-43700D01*
X22775Y-43700D01*
X22775Y-42475D01*
X22775Y-42326D01*
X22718Y-42188D01*
X22680Y-42150D01*
X22717Y-42113D01*
X22775Y-41975D01*
X22775Y-41826D01*
X22718Y-41688D01*
X22680Y-41650D01*
X22717Y-41613D01*
X22775Y-41475D01*
X22775Y-41326D01*
X22718Y-41188D01*
X22680Y-41150D01*
X22717Y-41113D01*
X22775Y-40975D01*
X22775Y-40826D01*
X22718Y-40688D01*
X22680Y-40650D01*
X22717Y-40613D01*
X22775Y-40475D01*
X22775Y-40326D01*
X22718Y-40188D01*
X22680Y-40150D01*
X22717Y-40113D01*
X22775Y-39975D01*
X22775Y-39826D01*
X22718Y-39688D01*
X22680Y-39650D01*
X22717Y-39613D01*
X22775Y-39475D01*
X22775Y-39326D01*
X22718Y-39188D01*
X22680Y-39150D01*
X22717Y-39113D01*
X22775Y-38975D01*
X22775Y-38826D01*
X22775Y-35475D01*
X22775Y-35326D01*
X22718Y-35188D01*
X22680Y-35150D01*
X22717Y-35113D01*
X22775Y-34975D01*
X22775Y-34826D01*
X22718Y-34688D01*
X22680Y-34650D01*
X22717Y-34613D01*
X22775Y-34475D01*
X22775Y-34326D01*
X22718Y-34188D01*
X22680Y-34150D01*
X22717Y-34113D01*
X22775Y-33975D01*
X22775Y-33826D01*
X22718Y-33688D01*
X22680Y-33650D01*
X22717Y-33613D01*
X22775Y-33475D01*
X22775Y-33326D01*
X22718Y-33188D01*
X22680Y-33150D01*
X22717Y-33113D01*
X22775Y-32975D01*
X22775Y-32826D01*
X22718Y-32688D01*
X22680Y-32650D01*
X22717Y-32613D01*
X22775Y-32475D01*
X22775Y-32326D01*
X22718Y-32188D01*
X22680Y-32150D01*
X22717Y-32113D01*
X22775Y-31975D01*
X22775Y-31826D01*
X22775Y-28475D01*
X22775Y-28326D01*
X22718Y-28188D01*
X22680Y-28150D01*
X22717Y-28113D01*
X22775Y-27975D01*
X22775Y-27826D01*
X22718Y-27688D01*
X22680Y-27650D01*
X22717Y-27613D01*
X22775Y-27475D01*
X22775Y-27326D01*
X22718Y-27188D01*
X22680Y-27150D01*
X22717Y-27113D01*
X22775Y-26975D01*
X22775Y-26826D01*
X22718Y-26688D01*
X22680Y-26650D01*
X22717Y-26613D01*
X22775Y-26475D01*
X22775Y-26326D01*
X22718Y-26188D01*
X22680Y-26150D01*
X22717Y-26113D01*
X22775Y-25975D01*
X22775Y-25826D01*
X22718Y-25688D01*
X22680Y-25650D01*
X22717Y-25613D01*
X22775Y-25475D01*
X22775Y-25326D01*
X22718Y-25188D01*
X22680Y-25150D01*
X22717Y-25113D01*
X22775Y-24975D01*
X22775Y-24826D01*
X22775Y-21475D01*
X22775Y-21326D01*
X22718Y-21188D01*
X22680Y-21150D01*
X22717Y-21113D01*
X22775Y-20975D01*
X22775Y-20826D01*
X22718Y-20688D01*
X22680Y-20650D01*
X22717Y-20613D01*
X22775Y-20475D01*
X22775Y-20326D01*
X22718Y-20188D01*
X22680Y-20150D01*
X22717Y-20113D01*
X22775Y-19975D01*
X22775Y-19826D01*
X22718Y-19688D01*
X22680Y-19650D01*
X22717Y-19613D01*
X22775Y-19475D01*
X22775Y-19326D01*
X22718Y-19188D01*
X22680Y-19150D01*
X22717Y-19113D01*
X22775Y-18975D01*
X22775Y-18826D01*
X22718Y-18688D01*
X22680Y-18650D01*
X22717Y-18613D01*
X22775Y-18475D01*
X22775Y-18326D01*
X22718Y-18188D01*
X22680Y-18150D01*
X22717Y-18113D01*
X22775Y-17975D01*
X22775Y-17826D01*
X22775Y-14475D01*
X22775Y-14326D01*
X22718Y-14188D01*
X22680Y-14150D01*
X22717Y-14113D01*
X22775Y-13975D01*
X22775Y-13826D01*
X22718Y-13688D01*
X22680Y-13650D01*
X22717Y-13613D01*
X22775Y-13475D01*
X22775Y-13326D01*
X22718Y-13188D01*
X22680Y-13150D01*
X22717Y-13113D01*
X22775Y-12975D01*
X22775Y-12826D01*
X22718Y-12688D01*
X22680Y-12650D01*
X22717Y-12613D01*
X22775Y-12475D01*
X22775Y-12326D01*
X22718Y-12188D01*
X22680Y-12150D01*
X22717Y-12113D01*
X22775Y-11975D01*
X22775Y-11826D01*
X22718Y-11688D01*
X22680Y-11650D01*
X22717Y-11613D01*
X22775Y-11475D01*
X22775Y-11326D01*
X22718Y-11188D01*
X22680Y-11150D01*
X22717Y-11113D01*
X22775Y-10975D01*
X22775Y-10826D01*
X22718Y-10688D01*
X22613Y-10583D01*
X22475Y-10525D01*
X22326Y-10525D01*
X22188Y-10582D01*
X22083Y-10687D01*
X22025Y-10825D01*
X22025Y-10974D01*
X22082Y-11112D01*
X22120Y-11150D01*
X22083Y-11187D01*
X22025Y-11325D01*
X22025Y-11474D01*
X22082Y-11612D01*
X22120Y-11650D01*
X22083Y-11687D01*
X22025Y-11825D01*
X22025Y-11974D01*
X22082Y-12112D01*
X22120Y-12150D01*
X22083Y-12187D01*
X22025Y-12325D01*
X22025Y-12474D01*
X22082Y-12612D01*
X22120Y-12650D01*
X22083Y-12687D01*
X22025Y-12825D01*
X22025Y-12974D01*
X22082Y-13112D01*
X22120Y-13150D01*
X22083Y-13187D01*
X22025Y-13325D01*
X22025Y-13474D01*
X22082Y-13612D01*
X22120Y-13650D01*
X22083Y-13687D01*
X22025Y-13825D01*
X22025Y-13974D01*
X22082Y-14112D01*
X22120Y-14150D01*
X22083Y-14187D01*
X22025Y-14325D01*
X22025Y-14474D01*
X22082Y-14612D01*
X22187Y-14717D01*
X22325Y-14775D01*
X22474Y-14775D01*
X22612Y-14718D01*
X22717Y-14613D01*
X22775Y-14475D01*
X22775Y-17826D01*
X22718Y-17688D01*
X22613Y-17583D01*
X22475Y-17525D01*
X22326Y-17525D01*
X22188Y-17582D01*
X22083Y-17687D01*
X22025Y-17825D01*
X22025Y-17974D01*
X22082Y-18112D01*
X22120Y-18150D01*
X22083Y-18187D01*
X22025Y-18325D01*
X22025Y-18474D01*
X22082Y-18612D01*
X22120Y-18650D01*
X22083Y-18687D01*
X22025Y-18825D01*
X22025Y-18974D01*
X22082Y-19112D01*
X22120Y-19150D01*
X22083Y-19187D01*
X22025Y-19325D01*
X22025Y-19474D01*
X22082Y-19612D01*
X22120Y-19650D01*
X22083Y-19687D01*
X22025Y-19825D01*
X22025Y-19974D01*
X22082Y-20112D01*
X22120Y-20150D01*
X22083Y-20187D01*
X22025Y-20325D01*
X22025Y-20474D01*
X22082Y-20612D01*
X22120Y-20650D01*
X22083Y-20687D01*
X22025Y-20825D01*
X22025Y-20974D01*
X22082Y-21112D01*
X22120Y-21150D01*
X22083Y-21187D01*
X22025Y-21325D01*
X22025Y-21474D01*
X22082Y-21612D01*
X22187Y-21717D01*
X22325Y-21775D01*
X22474Y-21775D01*
X22612Y-21718D01*
X22717Y-21613D01*
X22775Y-21475D01*
X22775Y-24826D01*
X22718Y-24688D01*
X22613Y-24583D01*
X22475Y-24525D01*
X22326Y-24525D01*
X22188Y-24582D01*
X22083Y-24687D01*
X22025Y-24825D01*
X22025Y-24974D01*
X22082Y-25112D01*
X22120Y-25150D01*
X22083Y-25187D01*
X22025Y-25325D01*
X22025Y-25474D01*
X22082Y-25612D01*
X22120Y-25650D01*
X22083Y-25687D01*
X22025Y-25825D01*
X22025Y-25974D01*
X22082Y-26112D01*
X22120Y-26150D01*
X22083Y-26187D01*
X22025Y-26325D01*
X22025Y-26474D01*
X22082Y-26612D01*
X22120Y-26650D01*
X22083Y-26687D01*
X22025Y-26825D01*
X22025Y-26974D01*
X22082Y-27112D01*
X22120Y-27150D01*
X22083Y-27187D01*
X22025Y-27325D01*
X22025Y-27474D01*
X22082Y-27612D01*
X22120Y-27650D01*
X22083Y-27687D01*
X22025Y-27825D01*
X22025Y-27974D01*
X22082Y-28112D01*
X22120Y-28150D01*
X22083Y-28187D01*
X22025Y-28325D01*
X22025Y-28474D01*
X22082Y-28612D01*
X22187Y-28717D01*
X22325Y-28775D01*
X22474Y-28775D01*
X22612Y-28718D01*
X22717Y-28613D01*
X22775Y-28475D01*
X22775Y-31826D01*
X22718Y-31688D01*
X22613Y-31583D01*
X22475Y-31525D01*
X22326Y-31525D01*
X22188Y-31582D01*
X22083Y-31687D01*
X22025Y-31825D01*
X22025Y-31974D01*
X22082Y-32112D01*
X22120Y-32150D01*
X22083Y-32187D01*
X22025Y-32325D01*
X22025Y-32474D01*
X22082Y-32612D01*
X22120Y-32650D01*
X22083Y-32687D01*
X22025Y-32825D01*
X22025Y-32974D01*
X22082Y-33112D01*
X22120Y-33150D01*
X22083Y-33187D01*
X22025Y-33325D01*
X22025Y-33474D01*
X22082Y-33612D01*
X22120Y-33650D01*
X22083Y-33687D01*
X22025Y-33825D01*
X22025Y-33974D01*
X22082Y-34112D01*
X22120Y-34150D01*
X22083Y-34187D01*
X22025Y-34325D01*
X22025Y-34474D01*
X22082Y-34612D01*
X22120Y-34650D01*
X22083Y-34687D01*
X22025Y-34825D01*
X22025Y-34974D01*
X22082Y-35112D01*
X22120Y-35150D01*
X22083Y-35187D01*
X22025Y-35325D01*
X22025Y-35474D01*
X22082Y-35612D01*
X22187Y-35717D01*
X22325Y-35775D01*
X22474Y-35775D01*
X22612Y-35718D01*
X22717Y-35613D01*
X22775Y-35475D01*
X22775Y-38826D01*
X22718Y-38688D01*
X22613Y-38583D01*
X22475Y-38525D01*
X22326Y-38525D01*
X22188Y-38582D01*
X22083Y-38687D01*
X22025Y-38825D01*
X22025Y-38974D01*
X22082Y-39112D01*
X22120Y-39150D01*
X22083Y-39187D01*
X22025Y-39325D01*
X22025Y-39474D01*
X22082Y-39612D01*
X22120Y-39650D01*
X22083Y-39687D01*
X22025Y-39825D01*
X22025Y-39974D01*
X22082Y-40112D01*
X22120Y-40150D01*
X22083Y-40187D01*
X22025Y-40325D01*
X22025Y-40474D01*
X22082Y-40612D01*
X22120Y-40650D01*
X22083Y-40687D01*
X22025Y-40825D01*
X22025Y-40974D01*
X22082Y-41112D01*
X22120Y-41150D01*
X22083Y-41187D01*
X22025Y-41325D01*
X22025Y-41474D01*
X22082Y-41612D01*
X22120Y-41650D01*
X22083Y-41687D01*
X22025Y-41825D01*
X22025Y-41974D01*
X22082Y-42112D01*
X22120Y-42150D01*
X22083Y-42187D01*
X22025Y-42325D01*
X22025Y-42474D01*
X22082Y-42612D01*
X22187Y-42717D01*
X22325Y-42775D01*
X22474Y-42775D01*
X22612Y-42718D01*
X22717Y-42613D01*
X22775Y-42475D01*
X22775Y-43700D01*
X21575Y-43700D01*
X21575Y-09975D01*
X21575Y-09826D01*
X21518Y-09688D01*
X21413Y-09583D01*
X21275Y-09525D01*
X21126Y-09525D01*
X20988Y-09582D01*
X20883Y-09687D01*
X20825Y-09825D01*
X20825Y-09974D01*
X20882Y-10112D01*
X20987Y-10217D01*
X21125Y-10275D01*
X21274Y-10275D01*
X21412Y-10218D01*
X21517Y-10113D01*
X21575Y-09975D01*
X21575Y-43700D01*
X21525Y-43700D01*
X21525Y-37925D01*
X21525Y-37776D01*
X21525Y-30975D01*
X21525Y-30826D01*
X21475Y-30704D01*
X21475Y-24075D01*
X21475Y-23926D01*
X21475Y-16975D01*
X21475Y-16826D01*
X21418Y-16688D01*
X21313Y-16583D01*
X21175Y-16525D01*
X21026Y-16525D01*
X20888Y-16582D01*
X20783Y-16687D01*
X20775Y-16706D01*
X20775Y-13225D01*
X20775Y-13076D01*
X20718Y-12938D01*
X20613Y-12833D01*
X20475Y-12775D01*
X20474Y-12775D01*
X20612Y-12718D01*
X20717Y-12613D01*
X20775Y-12475D01*
X20775Y-12326D01*
X20718Y-12188D01*
X20613Y-12083D01*
X20475Y-12025D01*
X20326Y-12025D01*
X20275Y-12046D01*
X20275Y-11475D01*
X20275Y-11326D01*
X20218Y-11188D01*
X20113Y-11083D01*
X19975Y-11025D01*
X19826Y-11025D01*
X19688Y-11082D01*
X19583Y-11187D01*
X19525Y-11325D01*
X19525Y-11474D01*
X19582Y-11612D01*
X19687Y-11717D01*
X19825Y-11775D01*
X19974Y-11775D01*
X20112Y-11718D01*
X20217Y-11613D01*
X20275Y-11475D01*
X20275Y-12046D01*
X20188Y-12082D01*
X20083Y-12187D01*
X20025Y-12325D01*
X20025Y-12474D01*
X20082Y-12612D01*
X20187Y-12717D01*
X20325Y-12775D01*
X20188Y-12832D01*
X20083Y-12937D01*
X20035Y-13050D01*
X19975Y-13025D01*
X19826Y-13025D01*
X19688Y-13082D01*
X19583Y-13187D01*
X19525Y-13325D01*
X19525Y-13474D01*
X19560Y-13561D01*
X19475Y-13525D01*
X19326Y-13525D01*
X19188Y-13582D01*
X19083Y-13687D01*
X19025Y-13825D01*
X19025Y-13826D01*
X18968Y-13688D01*
X18930Y-13650D01*
X18967Y-13613D01*
X19025Y-13475D01*
X19025Y-13326D01*
X18968Y-13188D01*
X18930Y-13150D01*
X18967Y-13113D01*
X19025Y-12975D01*
X19025Y-12826D01*
X18968Y-12688D01*
X18930Y-12650D01*
X18967Y-12613D01*
X19025Y-12475D01*
X19025Y-12326D01*
X18968Y-12188D01*
X18930Y-12150D01*
X18967Y-12113D01*
X19025Y-11975D01*
X19025Y-11826D01*
X18968Y-11688D01*
X18930Y-11650D01*
X18967Y-11613D01*
X19025Y-11475D01*
X19025Y-11326D01*
X18968Y-11188D01*
X18930Y-11150D01*
X18967Y-11113D01*
X19025Y-10975D01*
X19025Y-10826D01*
X18968Y-10688D01*
X18930Y-10650D01*
X18967Y-10613D01*
X19025Y-10475D01*
X19025Y-10326D01*
X18968Y-10188D01*
X18930Y-10150D01*
X18967Y-10113D01*
X19025Y-09975D01*
X19025Y-09826D01*
X18968Y-09688D01*
X18863Y-09583D01*
X18725Y-09525D01*
X18576Y-09525D01*
X18438Y-09582D01*
X18333Y-09687D01*
X18275Y-09825D01*
X18275Y-09974D01*
X18332Y-10112D01*
X18370Y-10150D01*
X18333Y-10187D01*
X18275Y-10325D01*
X18275Y-10474D01*
X18332Y-10612D01*
X18370Y-10650D01*
X18333Y-10687D01*
X18275Y-10825D01*
X18275Y-10974D01*
X18332Y-11112D01*
X18370Y-11150D01*
X18333Y-11187D01*
X18275Y-11325D01*
X18275Y-11474D01*
X18332Y-11612D01*
X18370Y-11650D01*
X18333Y-11687D01*
X18275Y-11825D01*
X18275Y-11974D01*
X18332Y-12112D01*
X18370Y-12150D01*
X18333Y-12187D01*
X18275Y-12325D01*
X18275Y-12474D01*
X18332Y-12612D01*
X18370Y-12650D01*
X18333Y-12687D01*
X18275Y-12825D01*
X18275Y-12974D01*
X18332Y-13112D01*
X18370Y-13150D01*
X18333Y-13187D01*
X18275Y-13325D01*
X18275Y-13474D01*
X18332Y-13612D01*
X18370Y-13650D01*
X18333Y-13687D01*
X18275Y-13825D01*
X18275Y-13974D01*
X18332Y-14112D01*
X18370Y-14150D01*
X18333Y-14187D01*
X18275Y-14325D01*
X18275Y-14474D01*
X18332Y-14612D01*
X18437Y-14717D01*
X18575Y-14775D01*
X18724Y-14775D01*
X18862Y-14718D01*
X18967Y-14613D01*
X19025Y-14475D01*
X19025Y-14326D01*
X18968Y-14188D01*
X18930Y-14150D01*
X18967Y-14113D01*
X19025Y-13975D01*
X19082Y-14112D01*
X19187Y-14217D01*
X19325Y-14275D01*
X19474Y-14275D01*
X19612Y-14218D01*
X19717Y-14113D01*
X19775Y-13975D01*
X19775Y-13826D01*
X19739Y-13738D01*
X19825Y-13775D01*
X19974Y-13775D01*
X20112Y-13718D01*
X20217Y-13613D01*
X20264Y-13499D01*
X20325Y-13525D01*
X20474Y-13525D01*
X20612Y-13468D01*
X20717Y-13363D01*
X20775Y-13225D01*
X20775Y-16706D01*
X20725Y-16825D01*
X20725Y-16974D01*
X20782Y-17112D01*
X20887Y-17217D01*
X21025Y-17275D01*
X21174Y-17275D01*
X21312Y-17218D01*
X21417Y-17113D01*
X21475Y-16975D01*
X21475Y-23926D01*
X21418Y-23788D01*
X21313Y-23683D01*
X21175Y-23625D01*
X21026Y-23625D01*
X20888Y-23682D01*
X20783Y-23787D01*
X20725Y-23925D01*
X20725Y-24074D01*
X20782Y-24212D01*
X20887Y-24317D01*
X21025Y-24375D01*
X21174Y-24375D01*
X21312Y-24318D01*
X21417Y-24213D01*
X21475Y-24075D01*
X21475Y-30704D01*
X21468Y-30688D01*
X21363Y-30583D01*
X21225Y-30525D01*
X21076Y-30525D01*
X21025Y-30546D01*
X21025Y-28975D01*
X21025Y-28826D01*
X20968Y-28688D01*
X20863Y-28583D01*
X20725Y-28525D01*
X20576Y-28525D01*
X20438Y-28582D01*
X20333Y-28687D01*
X20275Y-28825D01*
X20275Y-28974D01*
X20332Y-29112D01*
X20437Y-29217D01*
X20575Y-29275D01*
X20724Y-29275D01*
X20862Y-29218D01*
X20967Y-29113D01*
X21025Y-28975D01*
X21025Y-30546D01*
X20938Y-30582D01*
X20833Y-30687D01*
X20775Y-30825D01*
X20775Y-30974D01*
X20832Y-31112D01*
X20937Y-31217D01*
X21075Y-31275D01*
X21224Y-31275D01*
X21362Y-31218D01*
X21467Y-31113D01*
X21525Y-30975D01*
X21525Y-37776D01*
X21468Y-37638D01*
X21363Y-37533D01*
X21225Y-37475D01*
X21076Y-37475D01*
X20938Y-37532D01*
X20833Y-37637D01*
X20775Y-37775D01*
X20775Y-37924D01*
X20832Y-38062D01*
X20937Y-38167D01*
X21075Y-38225D01*
X21224Y-38225D01*
X21362Y-38168D01*
X21467Y-38063D01*
X21525Y-37925D01*
X21525Y-43700D01*
X19025Y-43700D01*
X19025Y-42475D01*
X19025Y-42326D01*
X18968Y-42188D01*
X18930Y-42150D01*
X18967Y-42113D01*
X19025Y-41975D01*
X19025Y-41826D01*
X18968Y-41688D01*
X18930Y-41650D01*
X18967Y-41613D01*
X19025Y-41475D01*
X19025Y-41326D01*
X18968Y-41188D01*
X18930Y-41150D01*
X18967Y-41113D01*
X19025Y-40975D01*
X19025Y-40826D01*
X18968Y-40688D01*
X18930Y-40650D01*
X18967Y-40613D01*
X19025Y-40475D01*
X19025Y-40326D01*
X18968Y-40188D01*
X18930Y-40150D01*
X18967Y-40113D01*
X19025Y-39975D01*
X19025Y-39826D01*
X18968Y-39688D01*
X18930Y-39650D01*
X18967Y-39613D01*
X19025Y-39475D01*
X19025Y-39326D01*
X18968Y-39188D01*
X18930Y-39150D01*
X18967Y-39113D01*
X19025Y-38975D01*
X19025Y-38826D01*
X18968Y-38688D01*
X18930Y-38650D01*
X18967Y-38613D01*
X19025Y-38475D01*
X19025Y-38326D01*
X18968Y-38188D01*
X18930Y-38150D01*
X18967Y-38113D01*
X19025Y-37975D01*
X19025Y-37826D01*
X19025Y-35475D01*
X19025Y-35326D01*
X18968Y-35188D01*
X18930Y-35150D01*
X18967Y-35113D01*
X19025Y-34975D01*
X19025Y-34826D01*
X18968Y-34688D01*
X18930Y-34650D01*
X18967Y-34613D01*
X19025Y-34475D01*
X19025Y-34326D01*
X18968Y-34188D01*
X18930Y-34150D01*
X18967Y-34113D01*
X19025Y-33975D01*
X19025Y-33826D01*
X18968Y-33688D01*
X18930Y-33650D01*
X18967Y-33613D01*
X19025Y-33475D01*
X19025Y-33326D01*
X18968Y-33188D01*
X18930Y-33150D01*
X18967Y-33113D01*
X19025Y-32975D01*
X19025Y-32826D01*
X18968Y-32688D01*
X18930Y-32650D01*
X18967Y-32613D01*
X19025Y-32475D01*
X19025Y-32326D01*
X18968Y-32188D01*
X18930Y-32150D01*
X18967Y-32113D01*
X19025Y-31975D01*
X19025Y-31826D01*
X18968Y-31688D01*
X18930Y-31650D01*
X18967Y-31613D01*
X19025Y-31475D01*
X19025Y-31326D01*
X18968Y-31188D01*
X18930Y-31150D01*
X18967Y-31113D01*
X19025Y-30975D01*
X19025Y-30826D01*
X19025Y-28475D01*
X19025Y-28326D01*
X18968Y-28188D01*
X18930Y-28150D01*
X18967Y-28113D01*
X19025Y-27975D01*
X19025Y-27826D01*
X18968Y-27688D01*
X18930Y-27650D01*
X18967Y-27613D01*
X19025Y-27475D01*
X19025Y-27326D01*
X18968Y-27188D01*
X18930Y-27150D01*
X18967Y-27113D01*
X19025Y-26975D01*
X19025Y-26826D01*
X18968Y-26688D01*
X18930Y-26650D01*
X18967Y-26613D01*
X19025Y-26475D01*
X19025Y-26326D01*
X18968Y-26188D01*
X18930Y-26150D01*
X18967Y-26113D01*
X19025Y-25975D01*
X19025Y-25826D01*
X18968Y-25688D01*
X18930Y-25650D01*
X18967Y-25613D01*
X19025Y-25475D01*
X19025Y-25326D01*
X18968Y-25188D01*
X18930Y-25150D01*
X18967Y-25113D01*
X19025Y-24975D01*
X19025Y-24826D01*
X18968Y-24688D01*
X18930Y-24650D01*
X18967Y-24613D01*
X19025Y-24475D01*
X19025Y-24326D01*
X18968Y-24188D01*
X18930Y-24150D01*
X18967Y-24113D01*
X19025Y-23975D01*
X19025Y-23826D01*
X19025Y-21475D01*
X19025Y-21326D01*
X18968Y-21188D01*
X18930Y-21150D01*
X18967Y-21113D01*
X19025Y-20975D01*
X19025Y-20826D01*
X18968Y-20688D01*
X18930Y-20650D01*
X18967Y-20613D01*
X19025Y-20475D01*
X19025Y-20326D01*
X18968Y-20188D01*
X18930Y-20150D01*
X18967Y-20113D01*
X19025Y-19975D01*
X19025Y-19826D01*
X18968Y-19688D01*
X18930Y-19650D01*
X18967Y-19613D01*
X19025Y-19475D01*
X19025Y-19326D01*
X18968Y-19188D01*
X18930Y-19150D01*
X18967Y-19113D01*
X19025Y-18975D01*
X19025Y-18826D01*
X18968Y-18688D01*
X18930Y-18650D01*
X18967Y-18613D01*
X19025Y-18475D01*
X19025Y-18326D01*
X18968Y-18188D01*
X18930Y-18150D01*
X18967Y-18113D01*
X19025Y-17975D01*
X19025Y-17826D01*
X18968Y-17688D01*
X18930Y-17650D01*
X18967Y-17613D01*
X19025Y-17475D01*
X19025Y-17326D01*
X18968Y-17188D01*
X18930Y-17150D01*
X18967Y-17113D01*
X19025Y-16975D01*
X19025Y-16826D01*
X18968Y-16688D01*
X18863Y-16583D01*
X18725Y-16525D01*
X18576Y-16525D01*
X18438Y-16582D01*
X18333Y-16687D01*
X18275Y-16825D01*
X18275Y-16974D01*
X18332Y-17112D01*
X18370Y-17150D01*
X18333Y-17187D01*
X18275Y-17325D01*
X18275Y-17474D01*
X18332Y-17612D01*
X18370Y-17650D01*
X18333Y-17687D01*
X18275Y-17825D01*
X18275Y-17974D01*
X18332Y-18112D01*
X18370Y-18150D01*
X18333Y-18187D01*
X18275Y-18325D01*
X18275Y-18474D01*
X18332Y-18612D01*
X18370Y-18650D01*
X18333Y-18687D01*
X18275Y-18825D01*
X18275Y-18974D01*
X18332Y-19112D01*
X18370Y-19150D01*
X18333Y-19187D01*
X18275Y-19325D01*
X18275Y-19474D01*
X18332Y-19612D01*
X18370Y-19650D01*
X18333Y-19687D01*
X18275Y-19825D01*
X18275Y-19974D01*
X18332Y-20112D01*
X18370Y-20150D01*
X18333Y-20187D01*
X18275Y-20325D01*
X18275Y-20474D01*
X18332Y-20612D01*
X18370Y-20650D01*
X18333Y-20687D01*
X18275Y-20825D01*
X18275Y-20974D01*
X18332Y-21112D01*
X18370Y-21150D01*
X18333Y-21187D01*
X18275Y-21325D01*
X18275Y-21474D01*
X18332Y-21612D01*
X18437Y-21717D01*
X18575Y-21775D01*
X18724Y-21775D01*
X18862Y-21718D01*
X18967Y-21613D01*
X19025Y-21475D01*
X19025Y-23826D01*
X18968Y-23688D01*
X18863Y-23583D01*
X18725Y-23525D01*
X18576Y-23525D01*
X18438Y-23582D01*
X18333Y-23687D01*
X18275Y-23825D01*
X18275Y-23974D01*
X18332Y-24112D01*
X18370Y-24150D01*
X18333Y-24187D01*
X18275Y-24325D01*
X18275Y-24474D01*
X18332Y-24612D01*
X18370Y-24650D01*
X18333Y-24687D01*
X18275Y-24825D01*
X18275Y-24974D01*
X18332Y-25112D01*
X18370Y-25150D01*
X18333Y-25187D01*
X18275Y-25325D01*
X18275Y-25474D01*
X18332Y-25612D01*
X18370Y-25650D01*
X18333Y-25687D01*
X18275Y-25825D01*
X18275Y-25974D01*
X18332Y-26112D01*
X18370Y-26150D01*
X18333Y-26187D01*
X18275Y-26325D01*
X18275Y-26474D01*
X18332Y-26612D01*
X18370Y-26650D01*
X18333Y-26687D01*
X18275Y-26825D01*
X18275Y-26974D01*
X18332Y-27112D01*
X18370Y-27150D01*
X18333Y-27187D01*
X18275Y-27325D01*
X18275Y-27474D01*
X18332Y-27612D01*
X18370Y-27650D01*
X18333Y-27687D01*
X18275Y-27825D01*
X18275Y-27974D01*
X18332Y-28112D01*
X18370Y-28150D01*
X18333Y-28187D01*
X18275Y-28325D01*
X18275Y-28474D01*
X18332Y-28612D01*
X18437Y-28717D01*
X18575Y-28775D01*
X18724Y-28775D01*
X18862Y-28718D01*
X18967Y-28613D01*
X19025Y-28475D01*
X19025Y-30826D01*
X18968Y-30688D01*
X18863Y-30583D01*
X18725Y-30525D01*
X18576Y-30525D01*
X18438Y-30582D01*
X18333Y-30687D01*
X18275Y-30825D01*
X18275Y-30974D01*
X18332Y-31112D01*
X18370Y-31150D01*
X18333Y-31187D01*
X18275Y-31325D01*
X18275Y-31474D01*
X18332Y-31612D01*
X18370Y-31650D01*
X18333Y-31687D01*
X18275Y-31825D01*
X18275Y-31974D01*
X18332Y-32112D01*
X18370Y-32150D01*
X18333Y-32187D01*
X18275Y-32325D01*
X18275Y-32474D01*
X18332Y-32612D01*
X18370Y-32650D01*
X18333Y-32687D01*
X18275Y-32825D01*
X18275Y-32974D01*
X18332Y-33112D01*
X18370Y-33150D01*
X18333Y-33187D01*
X18275Y-33325D01*
X18275Y-33474D01*
X18332Y-33612D01*
X18370Y-33650D01*
X18333Y-33687D01*
X18275Y-33825D01*
X18275Y-33974D01*
X18332Y-34112D01*
X18370Y-34150D01*
X18333Y-34187D01*
X18275Y-34325D01*
X18275Y-34474D01*
X18332Y-34612D01*
X18370Y-34650D01*
X18333Y-34687D01*
X18275Y-34825D01*
X18275Y-34974D01*
X18332Y-35112D01*
X18370Y-35150D01*
X18333Y-35187D01*
X18275Y-35325D01*
X18275Y-35474D01*
X18332Y-35612D01*
X18437Y-35717D01*
X18575Y-35775D01*
X18724Y-35775D01*
X18862Y-35718D01*
X18967Y-35613D01*
X19025Y-35475D01*
X19025Y-37826D01*
X18968Y-37688D01*
X18863Y-37583D01*
X18725Y-37525D01*
X18576Y-37525D01*
X18438Y-37582D01*
X18333Y-37687D01*
X18275Y-37825D01*
X18275Y-37974D01*
X18332Y-38112D01*
X18370Y-38150D01*
X18333Y-38187D01*
X18275Y-38325D01*
X18275Y-38474D01*
X18332Y-38612D01*
X18370Y-38650D01*
X18333Y-38687D01*
X18275Y-38825D01*
X18275Y-38974D01*
X18332Y-39112D01*
X18370Y-39150D01*
X18333Y-39187D01*
X18275Y-39325D01*
X18275Y-39474D01*
X18332Y-39612D01*
X18370Y-39650D01*
X18333Y-39687D01*
X18275Y-39825D01*
X18275Y-39974D01*
X18332Y-40112D01*
X18370Y-40150D01*
X18333Y-40187D01*
X18275Y-40325D01*
X18275Y-40474D01*
X18332Y-40612D01*
X18370Y-40650D01*
X18333Y-40687D01*
X18275Y-40825D01*
X18275Y-40974D01*
X18332Y-41112D01*
X18370Y-41150D01*
X18333Y-41187D01*
X18275Y-41325D01*
X18275Y-41474D01*
X18332Y-41612D01*
X18370Y-41650D01*
X18333Y-41687D01*
X18275Y-41825D01*
X18275Y-41974D01*
X18332Y-42112D01*
X18370Y-42150D01*
X18333Y-42187D01*
X18275Y-42325D01*
X18275Y-42474D01*
X18332Y-42612D01*
X18437Y-42717D01*
X18575Y-42775D01*
X18724Y-42775D01*
X18862Y-42718D01*
X18967Y-42613D01*
X19025Y-42475D01*
X19025Y-43700D01*
X17575Y-43700D01*
X17575Y-23875D01*
X17575Y-23726D01*
X17525Y-23604D01*
X17525Y-21725D01*
X17525Y-21576D01*
X17468Y-21438D01*
X17363Y-21333D01*
X17225Y-21275D01*
X17076Y-21275D01*
X17050Y-21285D01*
X17050Y-15710D01*
X17050Y-15292D01*
X16890Y-14906D01*
X16595Y-14610D01*
X16210Y-14450D01*
X15792Y-14450D01*
X15406Y-14610D01*
X15275Y-14740D01*
X15275Y-09975D01*
X15275Y-09826D01*
X15218Y-09688D01*
X15113Y-09583D01*
X14975Y-09525D01*
X14826Y-09525D01*
X14688Y-09582D01*
X14583Y-09687D01*
X14525Y-09825D01*
X14525Y-09974D01*
X14582Y-10112D01*
X14687Y-10217D01*
X14825Y-10275D01*
X14974Y-10275D01*
X15112Y-10218D01*
X15217Y-10113D01*
X15275Y-09975D01*
X15275Y-14740D01*
X15110Y-14905D01*
X14950Y-15290D01*
X14950Y-15708D01*
X15110Y-16094D01*
X15405Y-16390D01*
X15790Y-16550D01*
X16208Y-16550D01*
X16594Y-16390D01*
X16890Y-16095D01*
X17050Y-15710D01*
X17050Y-21285D01*
X16938Y-21332D01*
X16833Y-21437D01*
X16785Y-21550D01*
X16725Y-21525D01*
X16576Y-21525D01*
X16438Y-21582D01*
X16333Y-21687D01*
X16285Y-21800D01*
X16225Y-21775D01*
X16076Y-21775D01*
X15938Y-21832D01*
X15833Y-21937D01*
X15785Y-22050D01*
X15725Y-22025D01*
X15576Y-22025D01*
X15438Y-22082D01*
X15333Y-22187D01*
X15285Y-22300D01*
X15225Y-22275D01*
X15076Y-22275D01*
X14938Y-22332D01*
X14833Y-22437D01*
X14785Y-22550D01*
X14725Y-22525D01*
X14576Y-22525D01*
X14438Y-22582D01*
X14333Y-22687D01*
X14285Y-22800D01*
X14225Y-22775D01*
X14076Y-22775D01*
X13938Y-22832D01*
X13833Y-22937D01*
X13775Y-23075D01*
X13775Y-23224D01*
X13832Y-23362D01*
X13937Y-23467D01*
X14075Y-23525D01*
X14224Y-23525D01*
X14362Y-23468D01*
X14467Y-23363D01*
X14514Y-23249D01*
X14575Y-23275D01*
X14724Y-23275D01*
X14862Y-23218D01*
X14967Y-23113D01*
X15014Y-22999D01*
X15075Y-23025D01*
X15224Y-23025D01*
X15362Y-22968D01*
X15467Y-22863D01*
X15514Y-22749D01*
X15575Y-22775D01*
X15724Y-22775D01*
X15862Y-22718D01*
X15967Y-22613D01*
X16014Y-22499D01*
X16075Y-22525D01*
X16224Y-22525D01*
X16362Y-22468D01*
X16467Y-22363D01*
X16514Y-22249D01*
X16575Y-22275D01*
X16724Y-22275D01*
X16862Y-22218D01*
X16967Y-22113D01*
X17014Y-21999D01*
X17075Y-22025D01*
X17224Y-22025D01*
X17362Y-21968D01*
X17467Y-21863D01*
X17525Y-21725D01*
X17525Y-23604D01*
X17518Y-23588D01*
X17413Y-23483D01*
X17275Y-23425D01*
X17126Y-23425D01*
X16988Y-23482D01*
X16883Y-23587D01*
X16825Y-23725D01*
X16825Y-23874D01*
X16882Y-24012D01*
X16987Y-24117D01*
X17125Y-24175D01*
X17274Y-24175D01*
X17412Y-24118D01*
X17517Y-24013D01*
X17575Y-23875D01*
X17575Y-43700D01*
X16775Y-43700D01*
X16775Y-23975D01*
X16775Y-23826D01*
X16718Y-23688D01*
X16613Y-23583D01*
X16475Y-23525D01*
X16326Y-23525D01*
X16188Y-23582D01*
X16083Y-23687D01*
X16025Y-23825D01*
X16025Y-23974D01*
X16082Y-24112D01*
X16187Y-24217D01*
X16325Y-24275D01*
X16474Y-24275D01*
X16612Y-24218D01*
X16717Y-24113D01*
X16775Y-23975D01*
X16775Y-43700D01*
X16325Y-43700D01*
X16325Y-37875D01*
X16325Y-37726D01*
X16268Y-37588D01*
X16163Y-37483D01*
X16025Y-37425D01*
X15924Y-37425D01*
X15868Y-37288D01*
X15763Y-37183D01*
X15625Y-37125D01*
X15503Y-37125D01*
X15468Y-37038D01*
X15363Y-36933D01*
X15225Y-36875D01*
X15182Y-36875D01*
X15225Y-36775D01*
X15225Y-36626D01*
X15168Y-36488D01*
X15155Y-36475D01*
X15167Y-36463D01*
X15207Y-36367D01*
X15225Y-36375D01*
X15374Y-36375D01*
X15512Y-36318D01*
X15617Y-36213D01*
X15675Y-36075D01*
X15675Y-35975D01*
X15774Y-35975D01*
X15912Y-35918D01*
X16017Y-35813D01*
X16075Y-35675D01*
X16075Y-35526D01*
X16018Y-35388D01*
X15975Y-35345D01*
X15975Y-30825D01*
X15975Y-30676D01*
X15918Y-30538D01*
X15813Y-30433D01*
X15675Y-30375D01*
X15526Y-30375D01*
X15475Y-30396D01*
X15475Y-30376D01*
X15418Y-30238D01*
X15313Y-30133D01*
X15275Y-30117D01*
X15275Y-26225D01*
X15275Y-26076D01*
X15218Y-25938D01*
X15113Y-25833D01*
X14975Y-25775D01*
X14826Y-25775D01*
X14688Y-25832D01*
X14625Y-25895D01*
X14625Y-24825D01*
X14625Y-24676D01*
X14568Y-24538D01*
X14463Y-24433D01*
X14325Y-24375D01*
X14176Y-24375D01*
X14038Y-24432D01*
X13950Y-24520D01*
X13913Y-24483D01*
X13775Y-24425D01*
X13626Y-24425D01*
X13488Y-24482D01*
X13383Y-24587D01*
X13325Y-24725D01*
X13325Y-24874D01*
X13382Y-25012D01*
X13487Y-25117D01*
X13625Y-25175D01*
X13774Y-25175D01*
X13912Y-25118D01*
X14000Y-25030D01*
X14037Y-25067D01*
X14175Y-25125D01*
X14324Y-25125D01*
X14462Y-25068D01*
X14567Y-24963D01*
X14625Y-24825D01*
X14625Y-25895D01*
X14583Y-25937D01*
X14525Y-26075D01*
X14525Y-26224D01*
X14582Y-26362D01*
X14687Y-26467D01*
X14825Y-26525D01*
X14974Y-26525D01*
X15112Y-26468D01*
X15217Y-26363D01*
X15275Y-26225D01*
X15275Y-30117D01*
X15175Y-30075D01*
X15026Y-30075D01*
X15007Y-30082D01*
X14968Y-29988D01*
X14902Y-29922D01*
X14912Y-29918D01*
X15017Y-29813D01*
X15075Y-29675D01*
X15075Y-29526D01*
X15018Y-29388D01*
X14913Y-29283D01*
X14809Y-29239D01*
X14862Y-29218D01*
X14967Y-29113D01*
X15025Y-28975D01*
X15025Y-28826D01*
X14968Y-28688D01*
X14875Y-28595D01*
X14875Y-27525D01*
X14875Y-27376D01*
X14818Y-27238D01*
X14713Y-27133D01*
X14575Y-27075D01*
X14426Y-27075D01*
X14288Y-27132D01*
X14183Y-27237D01*
X14125Y-27375D01*
X14125Y-27524D01*
X14182Y-27662D01*
X14287Y-27767D01*
X14425Y-27825D01*
X14574Y-27825D01*
X14712Y-27768D01*
X14817Y-27663D01*
X14875Y-27525D01*
X14875Y-28595D01*
X14863Y-28583D01*
X14725Y-28525D01*
X14576Y-28525D01*
X14438Y-28582D01*
X14333Y-28687D01*
X14275Y-28825D01*
X14275Y-28974D01*
X14332Y-29112D01*
X14437Y-29217D01*
X14540Y-29260D01*
X14488Y-29282D01*
X14383Y-29387D01*
X14325Y-29525D01*
X14325Y-29674D01*
X14382Y-29812D01*
X14447Y-29877D01*
X14438Y-29882D01*
X14333Y-29987D01*
X14275Y-30125D01*
X14275Y-30274D01*
X14332Y-30412D01*
X14437Y-30517D01*
X14575Y-30575D01*
X14724Y-30575D01*
X14742Y-30567D01*
X14782Y-30662D01*
X14887Y-30767D01*
X15025Y-30825D01*
X15174Y-30825D01*
X15225Y-30803D01*
X15225Y-30824D01*
X15282Y-30962D01*
X15387Y-31067D01*
X15525Y-31125D01*
X15674Y-31125D01*
X15812Y-31068D01*
X15917Y-30963D01*
X15975Y-30825D01*
X15975Y-35345D01*
X15913Y-35283D01*
X15775Y-35225D01*
X15626Y-35225D01*
X15488Y-35282D01*
X15383Y-35387D01*
X15325Y-35525D01*
X15325Y-35625D01*
X15226Y-35625D01*
X15088Y-35682D01*
X14983Y-35787D01*
X14942Y-35882D01*
X14925Y-35875D01*
X14776Y-35875D01*
X14638Y-35932D01*
X14533Y-36037D01*
X14475Y-36175D01*
X14475Y-36324D01*
X14532Y-36462D01*
X14545Y-36475D01*
X14533Y-36487D01*
X14475Y-36625D01*
X14475Y-36774D01*
X14532Y-36912D01*
X14637Y-37017D01*
X14775Y-37075D01*
X14817Y-37075D01*
X14775Y-37175D01*
X14775Y-37324D01*
X14832Y-37462D01*
X14937Y-37567D01*
X15075Y-37625D01*
X15196Y-37625D01*
X15232Y-37712D01*
X15337Y-37817D01*
X15475Y-37875D01*
X15575Y-37875D01*
X15632Y-38012D01*
X15737Y-38117D01*
X15875Y-38175D01*
X16024Y-38175D01*
X16162Y-38118D01*
X16267Y-38013D01*
X16325Y-37875D01*
X16325Y-43700D01*
X14325Y-43700D01*
X14325Y-43675D01*
X14374Y-43675D01*
X14512Y-43618D01*
X14617Y-43513D01*
X14654Y-43424D01*
X14775Y-43475D01*
X14924Y-43475D01*
X15062Y-43418D01*
X15167Y-43313D01*
X15222Y-43181D01*
X15325Y-43225D01*
X15474Y-43225D01*
X15612Y-43168D01*
X15717Y-43063D01*
X15775Y-42925D01*
X15775Y-42776D01*
X15718Y-42638D01*
X15613Y-42533D01*
X15475Y-42475D01*
X15326Y-42475D01*
X15188Y-42532D01*
X15125Y-42595D01*
X15125Y-42175D01*
X15125Y-42026D01*
X15068Y-41888D01*
X14963Y-41783D01*
X14825Y-41725D01*
X14676Y-41725D01*
X14538Y-41782D01*
X14433Y-41887D01*
X14375Y-42025D01*
X14375Y-42174D01*
X14432Y-42312D01*
X14537Y-42417D01*
X14675Y-42475D01*
X14824Y-42475D01*
X14962Y-42418D01*
X15067Y-42313D01*
X15125Y-42175D01*
X15125Y-42595D01*
X15083Y-42637D01*
X15027Y-42768D01*
X14925Y-42725D01*
X14776Y-42725D01*
X14638Y-42782D01*
X14533Y-42887D01*
X14495Y-42975D01*
X14375Y-42925D01*
X14226Y-42925D01*
X14225Y-42925D01*
X14225Y-41925D01*
X14225Y-41776D01*
X14168Y-41638D01*
X14063Y-41533D01*
X13925Y-41475D01*
X13776Y-41475D01*
X13638Y-41532D01*
X13533Y-41637D01*
X13525Y-41656D01*
X13525Y-41575D01*
X13525Y-41426D01*
X13468Y-41288D01*
X13425Y-41245D01*
X13425Y-26625D01*
X13425Y-26476D01*
X13368Y-26338D01*
X13275Y-26245D01*
X13275Y-24975D01*
X13275Y-24826D01*
X13218Y-24688D01*
X13113Y-24583D01*
X13025Y-24546D01*
X13025Y-14975D01*
X13025Y-14826D01*
X12968Y-14688D01*
X12863Y-14583D01*
X12725Y-14525D01*
X12576Y-14525D01*
X12438Y-14582D01*
X12333Y-14687D01*
X12275Y-14825D01*
X12275Y-14974D01*
X12332Y-15112D01*
X12437Y-15217D01*
X12575Y-15275D01*
X12724Y-15275D01*
X12862Y-15218D01*
X12967Y-15113D01*
X13025Y-14975D01*
X13025Y-24546D01*
X12975Y-24525D01*
X12826Y-24525D01*
X12775Y-24546D01*
X12775Y-18725D01*
X12775Y-18576D01*
X12718Y-18438D01*
X12613Y-18333D01*
X12475Y-18275D01*
X12375Y-18275D01*
X12375Y-17025D01*
X12375Y-16876D01*
X12318Y-16738D01*
X12213Y-16633D01*
X12075Y-16575D01*
X11926Y-16575D01*
X11788Y-16632D01*
X11683Y-16737D01*
X11625Y-16875D01*
X11625Y-17024D01*
X11682Y-17162D01*
X11787Y-17267D01*
X11925Y-17325D01*
X12074Y-17325D01*
X12212Y-17268D01*
X12317Y-17163D01*
X12375Y-17025D01*
X12375Y-18275D01*
X12326Y-18275D01*
X12188Y-18332D01*
X12083Y-18437D01*
X12025Y-18575D01*
X12025Y-18724D01*
X12082Y-18862D01*
X12187Y-18967D01*
X12325Y-19025D01*
X12474Y-19025D01*
X12612Y-18968D01*
X12717Y-18863D01*
X12775Y-18725D01*
X12775Y-24546D01*
X12688Y-24582D01*
X12583Y-24687D01*
X12525Y-24825D01*
X12525Y-24826D01*
X12468Y-24688D01*
X12363Y-24583D01*
X12225Y-24525D01*
X12076Y-24525D01*
X11938Y-24582D01*
X11833Y-24687D01*
X11775Y-24825D01*
X11775Y-24974D01*
X11832Y-25112D01*
X11937Y-25217D01*
X12075Y-25275D01*
X12224Y-25275D01*
X12362Y-25218D01*
X12467Y-25113D01*
X12525Y-24975D01*
X12582Y-25112D01*
X12687Y-25217D01*
X12825Y-25275D01*
X12974Y-25275D01*
X13112Y-25218D01*
X13217Y-25113D01*
X13275Y-24975D01*
X13275Y-26245D01*
X13263Y-26233D01*
X13125Y-26175D01*
X12976Y-26175D01*
X12838Y-26232D01*
X12733Y-26337D01*
X12675Y-26475D01*
X12675Y-26624D01*
X12732Y-26762D01*
X12837Y-26867D01*
X12975Y-26925D01*
X13124Y-26925D01*
X13262Y-26868D01*
X13367Y-26763D01*
X13425Y-26625D01*
X13425Y-41245D01*
X13363Y-41183D01*
X13225Y-41125D01*
X13076Y-41125D01*
X13075Y-41125D01*
X13075Y-37225D01*
X13075Y-37076D01*
X13018Y-36938D01*
X12913Y-36833D01*
X12775Y-36775D01*
X12626Y-36775D01*
X12488Y-36832D01*
X12383Y-36937D01*
X12325Y-37075D01*
X12325Y-37224D01*
X12382Y-37362D01*
X12487Y-37467D01*
X12625Y-37525D01*
X12774Y-37525D01*
X12912Y-37468D01*
X13017Y-37363D01*
X13075Y-37225D01*
X13075Y-41125D01*
X12938Y-41182D01*
X12833Y-41287D01*
X12775Y-41425D01*
X12775Y-40975D01*
X12775Y-40826D01*
X12718Y-40688D01*
X12613Y-40583D01*
X12475Y-40525D01*
X12326Y-40525D01*
X12188Y-40582D01*
X12083Y-40687D01*
X12025Y-40825D01*
X12025Y-40974D01*
X12082Y-41112D01*
X12187Y-41217D01*
X12325Y-41275D01*
X12474Y-41275D01*
X12612Y-41218D01*
X12717Y-41113D01*
X12775Y-40975D01*
X12775Y-41425D01*
X12775Y-41574D01*
X12832Y-41712D01*
X12937Y-41817D01*
X13075Y-41875D01*
X13224Y-41875D01*
X13362Y-41818D01*
X13467Y-41713D01*
X13525Y-41575D01*
X13525Y-41656D01*
X13475Y-41775D01*
X13475Y-41924D01*
X13532Y-42062D01*
X13637Y-42167D01*
X13775Y-42225D01*
X13924Y-42225D01*
X14062Y-42168D01*
X14167Y-42063D01*
X14225Y-41925D01*
X14225Y-42925D01*
X14088Y-42982D01*
X13983Y-43087D01*
X13925Y-43225D01*
X13925Y-43275D01*
X13876Y-43275D01*
X13738Y-43332D01*
X13633Y-43437D01*
X13575Y-43575D01*
X13575Y-43700D01*
X11550Y-43700D01*
X11550Y-39764D01*
X11575Y-39775D01*
X11724Y-39775D01*
X11862Y-39718D01*
X11967Y-39613D01*
X12025Y-39475D01*
X12025Y-39326D01*
X11968Y-39188D01*
X11863Y-39083D01*
X11725Y-39025D01*
X11725Y-30175D01*
X11725Y-30026D01*
X11668Y-29888D01*
X11563Y-29783D01*
X11525Y-29767D01*
X11525Y-17975D01*
X11525Y-17826D01*
X11468Y-17688D01*
X11363Y-17583D01*
X11225Y-17525D01*
X11076Y-17525D01*
X10938Y-17582D01*
X10833Y-17687D01*
X10775Y-17825D01*
X10775Y-17974D01*
X10800Y-18035D01*
X10688Y-18082D01*
X10583Y-18187D01*
X10525Y-18325D01*
X10525Y-18474D01*
X10560Y-18561D01*
X10475Y-18525D01*
X10326Y-18525D01*
X10188Y-18582D01*
X10150Y-18620D01*
X10113Y-18583D01*
X09975Y-18525D01*
X09826Y-18525D01*
X09825Y-18525D01*
X09825Y-15275D01*
X09825Y-15126D01*
X09825Y-12775D01*
X09825Y-12626D01*
X09768Y-12488D01*
X09663Y-12383D01*
X09525Y-12325D01*
X09376Y-12325D01*
X09238Y-12382D01*
X09133Y-12487D01*
X09075Y-12625D01*
X09075Y-12774D01*
X09132Y-12912D01*
X09237Y-13017D01*
X09375Y-13075D01*
X09524Y-13075D01*
X09662Y-13018D01*
X09767Y-12913D01*
X09825Y-12775D01*
X09825Y-15126D01*
X09768Y-14988D01*
X09663Y-14883D01*
X09525Y-14825D01*
X09376Y-14825D01*
X09238Y-14882D01*
X09133Y-14987D01*
X09075Y-15125D01*
X09075Y-15274D01*
X09132Y-15412D01*
X09237Y-15517D01*
X09375Y-15575D01*
X09524Y-15575D01*
X09662Y-15518D01*
X09767Y-15413D01*
X09825Y-15275D01*
X09825Y-18525D01*
X09688Y-18582D01*
X09583Y-18687D01*
X09525Y-18825D01*
X09525Y-18974D01*
X09582Y-19112D01*
X09687Y-19217D01*
X09825Y-19275D01*
X09974Y-19275D01*
X10112Y-19218D01*
X10150Y-19180D01*
X10187Y-19217D01*
X10325Y-19275D01*
X10474Y-19275D01*
X10612Y-19218D01*
X10717Y-19113D01*
X10775Y-18975D01*
X10775Y-18826D01*
X10739Y-18738D01*
X10825Y-18775D01*
X10974Y-18775D01*
X11112Y-18718D01*
X11217Y-18613D01*
X11275Y-18475D01*
X11275Y-18326D01*
X11249Y-18264D01*
X11362Y-18218D01*
X11467Y-18113D01*
X11525Y-17975D01*
X11525Y-29767D01*
X11425Y-29725D01*
X11276Y-29725D01*
X11275Y-29725D01*
X11275Y-21475D01*
X11275Y-21326D01*
X11218Y-21188D01*
X11113Y-21083D01*
X10975Y-21025D01*
X10826Y-21025D01*
X10775Y-21046D01*
X10775Y-20475D01*
X10775Y-20326D01*
X10718Y-20188D01*
X10613Y-20083D01*
X10475Y-20025D01*
X10326Y-20025D01*
X10188Y-20082D01*
X10083Y-20187D01*
X10025Y-20325D01*
X10025Y-20474D01*
X10082Y-20612D01*
X10187Y-20717D01*
X10325Y-20775D01*
X10474Y-20775D01*
X10612Y-20718D01*
X10717Y-20613D01*
X10775Y-20475D01*
X10775Y-21046D01*
X10688Y-21082D01*
X10583Y-21187D01*
X10525Y-21325D01*
X10525Y-21474D01*
X10582Y-21612D01*
X10687Y-21717D01*
X10825Y-21775D01*
X10974Y-21775D01*
X11112Y-21718D01*
X11217Y-21613D01*
X11275Y-21475D01*
X11275Y-29725D01*
X11225Y-29746D01*
X11225Y-26525D01*
X11225Y-26376D01*
X11168Y-26238D01*
X11063Y-26133D01*
X10925Y-26075D01*
X10776Y-26075D01*
X10638Y-26132D01*
X10533Y-26237D01*
X10525Y-26256D01*
X10525Y-24975D01*
X10525Y-24826D01*
X10468Y-24688D01*
X10363Y-24583D01*
X10225Y-24525D01*
X10076Y-24525D01*
X10075Y-24525D01*
X10075Y-23275D01*
X10075Y-23126D01*
X10018Y-22988D01*
X09913Y-22883D01*
X09775Y-22825D01*
X09626Y-22825D01*
X09525Y-22866D01*
X09525Y-22375D01*
X09525Y-22226D01*
X09468Y-22088D01*
X09363Y-21983D01*
X09225Y-21925D01*
X09076Y-21925D01*
X08938Y-21982D01*
X08833Y-22087D01*
X08775Y-22225D01*
X08775Y-22374D01*
X08832Y-22512D01*
X08937Y-22617D01*
X09075Y-22675D01*
X09224Y-22675D01*
X09362Y-22618D01*
X09467Y-22513D01*
X09525Y-22375D01*
X09525Y-22866D01*
X09488Y-22882D01*
X09383Y-22987D01*
X09325Y-23125D01*
X09325Y-23274D01*
X09382Y-23412D01*
X09487Y-23517D01*
X09625Y-23575D01*
X09774Y-23575D01*
X09912Y-23518D01*
X10017Y-23413D01*
X10075Y-23275D01*
X10075Y-24525D01*
X09996Y-24557D01*
X09968Y-24488D01*
X09863Y-24383D01*
X09725Y-24325D01*
X09576Y-24325D01*
X09438Y-24382D01*
X09333Y-24487D01*
X09298Y-24568D01*
X09263Y-24533D01*
X09125Y-24475D01*
X08976Y-24475D01*
X08838Y-24532D01*
X08775Y-24595D01*
X08775Y-24275D01*
X08775Y-24126D01*
X08718Y-23988D01*
X08613Y-23883D01*
X08484Y-23829D01*
X08512Y-23818D01*
X08617Y-23713D01*
X08675Y-23575D01*
X08675Y-23426D01*
X08618Y-23288D01*
X08513Y-23183D01*
X08375Y-23125D01*
X08226Y-23125D01*
X08088Y-23182D01*
X08050Y-23220D01*
X08050Y-07210D01*
X08050Y-06792D01*
X07890Y-06406D01*
X07595Y-06110D01*
X07210Y-05950D01*
X06792Y-05950D01*
X06406Y-06110D01*
X06110Y-06405D01*
X05950Y-06790D01*
X05950Y-07208D01*
X06110Y-07594D01*
X06405Y-07890D01*
X06790Y-08050D01*
X07208Y-08050D01*
X07594Y-07890D01*
X07890Y-07595D01*
X08050Y-07210D01*
X08050Y-23220D01*
X07983Y-23287D01*
X07925Y-23425D01*
X07925Y-23574D01*
X07982Y-23712D01*
X08087Y-23817D01*
X08215Y-23870D01*
X08188Y-23882D01*
X08083Y-23987D01*
X08025Y-24125D01*
X08025Y-24274D01*
X08082Y-24412D01*
X08187Y-24517D01*
X08325Y-24575D01*
X08474Y-24575D01*
X08612Y-24518D01*
X08717Y-24413D01*
X08775Y-24275D01*
X08775Y-24595D01*
X08733Y-24637D01*
X08675Y-24775D01*
X08675Y-24924D01*
X08732Y-25062D01*
X08837Y-25167D01*
X08975Y-25225D01*
X09124Y-25225D01*
X09262Y-25168D01*
X09367Y-25063D01*
X09401Y-24981D01*
X09437Y-25017D01*
X09575Y-25075D01*
X09724Y-25075D01*
X09803Y-25042D01*
X09832Y-25112D01*
X09937Y-25217D01*
X10075Y-25275D01*
X10224Y-25275D01*
X10362Y-25218D01*
X10467Y-25113D01*
X10525Y-24975D01*
X10525Y-26256D01*
X10475Y-26375D01*
X10475Y-26524D01*
X10532Y-26662D01*
X10637Y-26767D01*
X10775Y-26825D01*
X10924Y-26825D01*
X11062Y-26768D01*
X11167Y-26663D01*
X11225Y-26525D01*
X11225Y-29746D01*
X11138Y-29782D01*
X11033Y-29887D01*
X10975Y-30025D01*
X10975Y-30174D01*
X11032Y-30312D01*
X11137Y-30417D01*
X11275Y-30475D01*
X11424Y-30475D01*
X11562Y-30418D01*
X11667Y-30313D01*
X11725Y-30175D01*
X11725Y-39025D01*
X11576Y-39025D01*
X11550Y-39035D01*
X11550Y-32700D01*
X10725Y-32700D01*
X10725Y-32626D01*
X10668Y-32488D01*
X10563Y-32383D01*
X10425Y-32325D01*
X10276Y-32325D01*
X10138Y-32382D01*
X10125Y-32395D01*
X10125Y-28525D01*
X10125Y-28376D01*
X10068Y-28238D01*
X10025Y-28195D01*
X10025Y-26325D01*
X10025Y-26176D01*
X09968Y-26038D01*
X09863Y-25933D01*
X09725Y-25875D01*
X09576Y-25875D01*
X09438Y-25932D01*
X09401Y-25968D01*
X09368Y-25888D01*
X09263Y-25783D01*
X09125Y-25725D01*
X09074Y-25725D01*
X09018Y-25588D01*
X08913Y-25483D01*
X08775Y-25425D01*
X08626Y-25425D01*
X08488Y-25482D01*
X08383Y-25587D01*
X08325Y-25725D01*
X08325Y-25874D01*
X08382Y-26012D01*
X08487Y-26117D01*
X08625Y-26175D01*
X08675Y-26175D01*
X08732Y-26312D01*
X08837Y-26417D01*
X08975Y-26475D01*
X09124Y-26475D01*
X09262Y-26418D01*
X09298Y-26381D01*
X09332Y-26462D01*
X09437Y-26567D01*
X09575Y-26625D01*
X09724Y-26625D01*
X09862Y-26568D01*
X09967Y-26463D01*
X10025Y-26325D01*
X10025Y-28195D01*
X09963Y-28133D01*
X09825Y-28075D01*
X09676Y-28075D01*
X09538Y-28132D01*
X09433Y-28237D01*
X09375Y-28375D01*
X09375Y-28524D01*
X09432Y-28662D01*
X09537Y-28767D01*
X09675Y-28825D01*
X09824Y-28825D01*
X09962Y-28768D01*
X10067Y-28663D01*
X10125Y-28525D01*
X10125Y-32395D01*
X10033Y-32487D01*
X09975Y-32625D01*
X09975Y-32700D01*
X07799Y-32700D01*
X07799Y-16850D01*
X07799Y-16751D01*
X07799Y-16151D01*
X07761Y-16059D01*
X07691Y-15989D01*
X07600Y-15951D01*
X07575Y-15951D01*
X07715Y-15811D01*
X07799Y-15609D01*
X07799Y-15391D01*
X07793Y-15376D01*
X07793Y-14579D01*
X07793Y-13579D01*
X07793Y-12579D01*
X07782Y-12366D01*
X07722Y-12219D01*
X07628Y-12192D01*
X07558Y-12262D01*
X07558Y-12122D01*
X07531Y-12028D01*
X07400Y-11981D01*
X07400Y-10370D01*
X07400Y-10032D01*
X07271Y-09720D01*
X07032Y-09480D01*
X06720Y-09350D01*
X06382Y-09350D01*
X06070Y-09479D01*
X05830Y-09718D01*
X05700Y-10030D01*
X05700Y-10368D01*
X05829Y-10680D01*
X06068Y-10920D01*
X06380Y-11050D01*
X06718Y-11050D01*
X07030Y-10921D01*
X07270Y-10682D01*
X07400Y-10370D01*
X07400Y-11981D01*
X07329Y-11957D01*
X07116Y-11968D01*
X06969Y-12028D01*
X06942Y-12122D01*
X07250Y-12429D01*
X07558Y-12122D01*
X07558Y-12262D01*
X07321Y-12500D01*
X07628Y-12808D01*
X07722Y-12781D01*
X07793Y-12579D01*
X07793Y-13579D01*
X07782Y-13366D01*
X07722Y-13219D01*
X07628Y-13192D01*
X07558Y-13262D01*
X07558Y-13122D01*
X07531Y-13028D01*
X07457Y-13002D01*
X07531Y-12972D01*
X07558Y-12878D01*
X07250Y-12571D01*
X06942Y-12878D01*
X06969Y-12972D01*
X07042Y-12997D01*
X06969Y-13028D01*
X06942Y-13122D01*
X07250Y-13429D01*
X07558Y-13122D01*
X07558Y-13262D01*
X07321Y-13500D01*
X07628Y-13808D01*
X07722Y-13781D01*
X07793Y-13579D01*
X07793Y-14579D01*
X07782Y-14366D01*
X07722Y-14219D01*
X07628Y-14192D01*
X07558Y-14262D01*
X07558Y-14122D01*
X07531Y-14028D01*
X07457Y-14002D01*
X07531Y-13972D01*
X07558Y-13878D01*
X07250Y-13571D01*
X06942Y-13878D01*
X06969Y-13972D01*
X07042Y-13997D01*
X06969Y-14028D01*
X06942Y-14122D01*
X07250Y-14429D01*
X07558Y-14122D01*
X07558Y-14262D01*
X07321Y-14500D01*
X07628Y-14808D01*
X07722Y-14781D01*
X07793Y-14579D01*
X07793Y-15376D01*
X07715Y-15189D01*
X07561Y-15035D01*
X07469Y-14997D01*
X07531Y-14972D01*
X07558Y-14878D01*
X07250Y-14571D01*
X06942Y-14878D01*
X06969Y-14972D01*
X07034Y-14995D01*
X06939Y-15035D01*
X06785Y-15189D01*
X06750Y-15273D01*
X06715Y-15189D01*
X06561Y-15035D01*
X06476Y-15000D01*
X06561Y-14965D01*
X06715Y-14811D01*
X06752Y-14719D01*
X06778Y-14781D01*
X06872Y-14808D01*
X07179Y-14500D01*
X06872Y-14192D01*
X06778Y-14219D01*
X06754Y-14284D01*
X06715Y-14189D01*
X06561Y-14035D01*
X06476Y-14000D01*
X06561Y-13965D01*
X06715Y-13811D01*
X06752Y-13719D01*
X06778Y-13781D01*
X06872Y-13808D01*
X07179Y-13500D01*
X06872Y-13192D01*
X06778Y-13219D01*
X06754Y-13284D01*
X06715Y-13189D01*
X06561Y-13035D01*
X06476Y-13000D01*
X06561Y-12965D01*
X06715Y-12811D01*
X06752Y-12719D01*
X06778Y-12781D01*
X06872Y-12808D01*
X07179Y-12500D01*
X06872Y-12192D01*
X06778Y-12219D01*
X06754Y-12284D01*
X06715Y-12189D01*
X06561Y-12035D01*
X06359Y-11951D01*
X06141Y-11951D01*
X05939Y-12035D01*
X05785Y-12189D01*
X05701Y-12391D01*
X05701Y-12609D01*
X05785Y-12811D01*
X05939Y-12965D01*
X06023Y-13000D01*
X05939Y-13035D01*
X05785Y-13189D01*
X05701Y-13391D01*
X05701Y-13609D01*
X05785Y-13811D01*
X05939Y-13965D01*
X06023Y-14000D01*
X05939Y-14035D01*
X05785Y-14189D01*
X05701Y-14391D01*
X05701Y-14609D01*
X05785Y-14811D01*
X05939Y-14965D01*
X06023Y-15000D01*
X05939Y-15035D01*
X05785Y-15189D01*
X05701Y-15391D01*
X05701Y-15609D01*
X05785Y-15811D01*
X05939Y-15965D01*
X06030Y-16002D01*
X05969Y-16028D01*
X05942Y-16122D01*
X06250Y-16429D01*
X06558Y-16122D01*
X06531Y-16028D01*
X06465Y-16004D01*
X06561Y-15965D01*
X06715Y-15811D01*
X06750Y-15726D01*
X06785Y-15811D01*
X06925Y-15951D01*
X06901Y-15951D01*
X06809Y-15989D01*
X06739Y-16059D01*
X06701Y-16150D01*
X06701Y-16212D01*
X06628Y-16192D01*
X06321Y-16500D01*
X06628Y-16808D01*
X06701Y-16787D01*
X06701Y-16849D01*
X06739Y-16941D01*
X06809Y-17011D01*
X06900Y-17049D01*
X06999Y-17049D01*
X07599Y-17049D01*
X07691Y-17011D01*
X07761Y-16941D01*
X07799Y-16850D01*
X07799Y-32700D01*
X07475Y-32700D01*
X07475Y-26275D01*
X07475Y-26126D01*
X07418Y-25988D01*
X07400Y-25970D01*
X07400Y-18970D01*
X07400Y-18632D01*
X07271Y-18320D01*
X07032Y-18080D01*
X06720Y-17950D01*
X06558Y-17950D01*
X06558Y-16878D01*
X06250Y-16571D01*
X06179Y-16641D01*
X06179Y-16500D01*
X05872Y-16192D01*
X05778Y-16219D01*
X05707Y-16421D01*
X05718Y-16634D01*
X05778Y-16781D01*
X05872Y-16808D01*
X06179Y-16500D01*
X06179Y-16641D01*
X05942Y-16878D01*
X05969Y-16972D01*
X06171Y-17043D01*
X06384Y-17032D01*
X06531Y-16972D01*
X06558Y-16878D01*
X06558Y-17950D01*
X06382Y-17950D01*
X06070Y-18079D01*
X05830Y-18318D01*
X05700Y-18630D01*
X05700Y-18968D01*
X05829Y-19280D01*
X06068Y-19520D01*
X06380Y-19650D01*
X06718Y-19650D01*
X07030Y-19521D01*
X07270Y-19282D01*
X07400Y-18970D01*
X07400Y-25970D01*
X07313Y-25883D01*
X07175Y-25825D01*
X07026Y-25825D01*
X06888Y-25882D01*
X06783Y-25987D01*
X06725Y-26125D01*
X06725Y-26274D01*
X06782Y-26412D01*
X06887Y-26517D01*
X07025Y-26575D01*
X07174Y-26575D01*
X07312Y-26518D01*
X07417Y-26413D01*
X07475Y-26275D01*
X07475Y-32700D01*
X06725Y-32700D01*
X06725Y-28975D01*
X06725Y-28826D01*
X06668Y-28688D01*
X06563Y-28583D01*
X06425Y-28525D01*
X06276Y-28525D01*
X06138Y-28582D01*
X06033Y-28687D01*
X05975Y-28825D01*
X05975Y-28974D01*
X06032Y-29112D01*
X06137Y-29217D01*
X06275Y-29275D01*
X06424Y-29275D01*
X06562Y-29218D01*
X06667Y-29113D01*
X06725Y-28975D01*
X06725Y-32700D01*
X05325Y-32700D01*
X05325Y-05325D01*
X54700Y-05325D01*
X54700Y-43700D01*
X54700Y-43700D01*
G37*
G54D17*
X54700Y-43700D02*
X53050Y-43700D01*
X53050Y-09700D01*
X47700Y-09700D01*
X47700Y-43700D01*
X46050Y-43700D01*
X46050Y-09700D01*
X40700Y-09700D01*
X40700Y-43700D01*
X39050Y-43700D01*
X39050Y-09700D01*
X33700Y-09700D01*
X33700Y-43700D01*
X32050Y-43700D01*
X32050Y-09700D01*
X26700Y-09700D01*
X26700Y-43700D01*
X22775Y-43700D01*
X22775Y-42475D01*
X22775Y-42326D01*
X22718Y-42188D01*
X22680Y-42150D01*
X22717Y-42113D01*
X22775Y-41975D01*
X22775Y-41826D01*
X22718Y-41688D01*
X22680Y-41650D01*
X22717Y-41613D01*
X22775Y-41475D01*
X22775Y-41326D01*
X22718Y-41188D01*
X22680Y-41150D01*
X22717Y-41113D01*
X22775Y-40975D01*
X22775Y-40826D01*
X22718Y-40688D01*
X22680Y-40650D01*
X22717Y-40613D01*
X22775Y-40475D01*
X22775Y-40326D01*
X22718Y-40188D01*
X22680Y-40150D01*
X22717Y-40113D01*
X22775Y-39975D01*
X22775Y-39826D01*
X22718Y-39688D01*
X22680Y-39650D01*
X22717Y-39613D01*
X22775Y-39475D01*
X22775Y-39326D01*
X22718Y-39188D01*
X22680Y-39150D01*
X22717Y-39113D01*
X22775Y-38975D01*
X22775Y-38826D01*
X22775Y-35475D01*
X22775Y-35326D01*
X22718Y-35188D01*
X22680Y-35150D01*
X22717Y-35113D01*
X22775Y-34975D01*
X22775Y-34826D01*
X22718Y-34688D01*
X22680Y-34650D01*
X22717Y-34613D01*
X22775Y-34475D01*
X22775Y-34326D01*
X22718Y-34188D01*
X22680Y-34150D01*
X22717Y-34113D01*
X22775Y-33975D01*
X22775Y-33826D01*
X22718Y-33688D01*
X22680Y-33650D01*
X22717Y-33613D01*
X22775Y-33475D01*
X22775Y-33326D01*
X22718Y-33188D01*
X22680Y-33150D01*
X22717Y-33113D01*
X22775Y-32975D01*
X22775Y-32826D01*
X22718Y-32688D01*
X22680Y-32650D01*
X22717Y-32613D01*
X22775Y-32475D01*
X22775Y-32326D01*
X22718Y-32188D01*
X22680Y-32150D01*
X22717Y-32113D01*
X22775Y-31975D01*
X22775Y-31826D01*
X22775Y-28475D01*
X22775Y-28326D01*
X22718Y-28188D01*
X22680Y-28150D01*
X22717Y-28113D01*
X22775Y-27975D01*
X22775Y-27826D01*
X22718Y-27688D01*
X22680Y-27650D01*
X22717Y-27613D01*
X22775Y-27475D01*
X22775Y-27326D01*
X22718Y-27188D01*
X22680Y-27150D01*
X22717Y-27113D01*
X22775Y-26975D01*
X22775Y-26826D01*
X22718Y-26688D01*
X22680Y-26650D01*
X22717Y-26613D01*
X22775Y-26475D01*
X22775Y-26326D01*
X22718Y-26188D01*
X22680Y-26150D01*
X22717Y-26113D01*
X22775Y-25975D01*
X22775Y-25826D01*
X22718Y-25688D01*
X22680Y-25650D01*
X22717Y-25613D01*
X22775Y-25475D01*
X22775Y-25326D01*
X22718Y-25188D01*
X22680Y-25150D01*
X22717Y-25113D01*
X22775Y-24975D01*
X22775Y-24826D01*
X22775Y-21475D01*
X22775Y-21326D01*
X22718Y-21188D01*
X22680Y-21150D01*
X22717Y-21113D01*
X22775Y-20975D01*
X22775Y-20826D01*
X22718Y-20688D01*
X22680Y-20650D01*
X22717Y-20613D01*
X22775Y-20475D01*
X22775Y-20326D01*
X22718Y-20188D01*
X22680Y-20150D01*
X22717Y-20113D01*
X22775Y-19975D01*
X22775Y-19826D01*
X22718Y-19688D01*
X22680Y-19650D01*
X22717Y-19613D01*
X22775Y-19475D01*
X22775Y-19326D01*
X22718Y-19188D01*
X22680Y-19150D01*
X22717Y-19113D01*
X22775Y-18975D01*
X22775Y-18826D01*
X22718Y-18688D01*
X22680Y-18650D01*
X22717Y-18613D01*
X22775Y-18475D01*
X22775Y-18326D01*
X22718Y-18188D01*
X22680Y-18150D01*
X22717Y-18113D01*
X22775Y-17975D01*
X22775Y-17826D01*
X22775Y-14475D01*
X22775Y-14326D01*
X22718Y-14188D01*
X22680Y-14150D01*
X22717Y-14113D01*
X22775Y-13975D01*
X22775Y-13826D01*
X22718Y-13688D01*
X22680Y-13650D01*
X22717Y-13613D01*
X22775Y-13475D01*
X22775Y-13326D01*
X22718Y-13188D01*
X22680Y-13150D01*
X22717Y-13113D01*
X22775Y-12975D01*
X22775Y-12826D01*
X22718Y-12688D01*
X22680Y-12650D01*
X22717Y-12613D01*
X22775Y-12475D01*
X22775Y-12326D01*
X22718Y-12188D01*
X22680Y-12150D01*
X22717Y-12113D01*
X22775Y-11975D01*
X22775Y-11826D01*
X22718Y-11688D01*
X22680Y-11650D01*
X22717Y-11613D01*
X22775Y-11475D01*
X22775Y-11326D01*
X22718Y-11188D01*
X22680Y-11150D01*
X22717Y-11113D01*
X22775Y-10975D01*
X22775Y-10826D01*
X22718Y-10688D01*
X22613Y-10583D01*
X22475Y-10525D01*
X22326Y-10525D01*
X22188Y-10582D01*
X22083Y-10687D01*
X22025Y-10825D01*
X22025Y-10974D01*
X22082Y-11112D01*
X22120Y-11150D01*
X22083Y-11187D01*
X22025Y-11325D01*
X22025Y-11474D01*
X22082Y-11612D01*
X22120Y-11650D01*
X22083Y-11687D01*
X22025Y-11825D01*
X22025Y-11974D01*
X22082Y-12112D01*
X22120Y-12150D01*
X22083Y-12187D01*
X22025Y-12325D01*
X22025Y-12474D01*
X22082Y-12612D01*
X22120Y-12650D01*
X22083Y-12687D01*
X22025Y-12825D01*
X22025Y-12974D01*
X22082Y-13112D01*
X22120Y-13150D01*
X22083Y-13187D01*
X22025Y-13325D01*
X22025Y-13474D01*
X22082Y-13612D01*
X22120Y-13650D01*
X22083Y-13687D01*
X22025Y-13825D01*
X22025Y-13974D01*
X22082Y-14112D01*
X22120Y-14150D01*
X22083Y-14187D01*
X22025Y-14325D01*
X22025Y-14474D01*
X22082Y-14612D01*
X22187Y-14717D01*
X22325Y-14775D01*
X22474Y-14775D01*
X22612Y-14718D01*
X22717Y-14613D01*
X22775Y-14475D01*
X22775Y-17826D01*
X22718Y-17688D01*
X22613Y-17583D01*
X22475Y-17525D01*
X22326Y-17525D01*
X22188Y-17582D01*
X22083Y-17687D01*
X22025Y-17825D01*
X22025Y-17974D01*
X22082Y-18112D01*
X22120Y-18150D01*
X22083Y-18187D01*
X22025Y-18325D01*
X22025Y-18474D01*
X22082Y-18612D01*
X22120Y-18650D01*
X22083Y-18687D01*
X22025Y-18825D01*
X22025Y-18974D01*
X22082Y-19112D01*
X22120Y-19150D01*
X22083Y-19187D01*
X22025Y-19325D01*
X22025Y-19474D01*
X22082Y-19612D01*
X22120Y-19650D01*
X22083Y-19687D01*
X22025Y-19825D01*
X22025Y-19974D01*
X22082Y-20112D01*
X22120Y-20150D01*
X22083Y-20187D01*
X22025Y-20325D01*
X22025Y-20474D01*
X22082Y-20612D01*
X22120Y-20650D01*
X22083Y-20687D01*
X22025Y-20825D01*
X22025Y-20974D01*
X22082Y-21112D01*
X22120Y-21150D01*
X22083Y-21187D01*
X22025Y-21325D01*
X22025Y-21474D01*
X22082Y-21612D01*
X22187Y-21717D01*
X22325Y-21775D01*
X22474Y-21775D01*
X22612Y-21718D01*
X22717Y-21613D01*
X22775Y-21475D01*
X22775Y-24826D01*
X22718Y-24688D01*
X22613Y-24583D01*
X22475Y-24525D01*
X22326Y-24525D01*
X22188Y-24582D01*
X22083Y-24687D01*
X22025Y-24825D01*
X22025Y-24974D01*
X22082Y-25112D01*
X22120Y-25150D01*
X22083Y-25187D01*
X22025Y-25325D01*
X22025Y-25474D01*
X22082Y-25612D01*
X22120Y-25650D01*
X22083Y-25687D01*
X22025Y-25825D01*
X22025Y-25974D01*
X22082Y-26112D01*
X22120Y-26150D01*
X22083Y-26187D01*
X22025Y-26325D01*
X22025Y-26474D01*
X22082Y-26612D01*
X22120Y-26650D01*
X22083Y-26687D01*
X22025Y-26825D01*
X22025Y-26974D01*
X22082Y-27112D01*
X22120Y-27150D01*
X22083Y-27187D01*
X22025Y-27325D01*
X22025Y-27474D01*
X22082Y-27612D01*
X22120Y-27650D01*
X22083Y-27687D01*
X22025Y-27825D01*
X22025Y-27974D01*
X22082Y-28112D01*
X22120Y-28150D01*
X22083Y-28187D01*
X22025Y-28325D01*
X22025Y-28474D01*
X22082Y-28612D01*
X22187Y-28717D01*
X22325Y-28775D01*
X22474Y-28775D01*
X22612Y-28718D01*
X22717Y-28613D01*
X22775Y-28475D01*
X22775Y-31826D01*
X22718Y-31688D01*
X22613Y-31583D01*
X22475Y-31525D01*
X22326Y-31525D01*
X22188Y-31582D01*
X22083Y-31687D01*
X22025Y-31825D01*
X22025Y-31974D01*
X22082Y-32112D01*
X22120Y-32150D01*
X22083Y-32187D01*
X22025Y-32325D01*
X22025Y-32474D01*
X22082Y-32612D01*
X22120Y-32650D01*
X22083Y-32687D01*
X22025Y-32825D01*
X22025Y-32974D01*
X22082Y-33112D01*
X22120Y-33150D01*
X22083Y-33187D01*
X22025Y-33325D01*
X22025Y-33474D01*
X22082Y-33612D01*
X22120Y-33650D01*
X22083Y-33687D01*
X22025Y-33825D01*
X22025Y-33974D01*
X22082Y-34112D01*
X22120Y-34150D01*
X22083Y-34187D01*
X22025Y-34325D01*
X22025Y-34474D01*
X22082Y-34612D01*
X22120Y-34650D01*
X22083Y-34687D01*
X22025Y-34825D01*
X22025Y-34974D01*
X22082Y-35112D01*
X22120Y-35150D01*
X22083Y-35187D01*
X22025Y-35325D01*
X22025Y-35474D01*
X22082Y-35612D01*
X22187Y-35717D01*
X22325Y-35775D01*
X22474Y-35775D01*
X22612Y-35718D01*
X22717Y-35613D01*
X22775Y-35475D01*
X22775Y-38826D01*
X22718Y-38688D01*
X22613Y-38583D01*
X22475Y-38525D01*
X22326Y-38525D01*
X22188Y-38582D01*
X22083Y-38687D01*
X22025Y-38825D01*
X22025Y-38974D01*
X22082Y-39112D01*
X22120Y-39150D01*
X22083Y-39187D01*
X22025Y-39325D01*
X22025Y-39474D01*
X22082Y-39612D01*
X22120Y-39650D01*
X22083Y-39687D01*
X22025Y-39825D01*
X22025Y-39974D01*
X22082Y-40112D01*
X22120Y-40150D01*
X22083Y-40187D01*
X22025Y-40325D01*
X22025Y-40474D01*
X22082Y-40612D01*
X22120Y-40650D01*
X22083Y-40687D01*
X22025Y-40825D01*
X22025Y-40974D01*
X22082Y-41112D01*
X22120Y-41150D01*
X22083Y-41187D01*
X22025Y-41325D01*
X22025Y-41474D01*
X22082Y-41612D01*
X22120Y-41650D01*
X22083Y-41687D01*
X22025Y-41825D01*
X22025Y-41974D01*
X22082Y-42112D01*
X22120Y-42150D01*
X22083Y-42187D01*
X22025Y-42325D01*
X22025Y-42474D01*
X22082Y-42612D01*
X22187Y-42717D01*
X22325Y-42775D01*
X22474Y-42775D01*
X22612Y-42718D01*
X22717Y-42613D01*
X22775Y-42475D01*
X22775Y-43700D01*
X21575Y-43700D01*
X21575Y-09975D01*
X21575Y-09826D01*
X21518Y-09688D01*
X21413Y-09583D01*
X21275Y-09525D01*
X21126Y-09525D01*
X20988Y-09582D01*
X20883Y-09687D01*
X20825Y-09825D01*
X20825Y-09974D01*
X20882Y-10112D01*
X20987Y-10217D01*
X21125Y-10275D01*
X21274Y-10275D01*
X21412Y-10218D01*
X21517Y-10113D01*
X21575Y-09975D01*
X21575Y-43700D01*
X21525Y-43700D01*
X21525Y-37925D01*
X21525Y-37776D01*
X21525Y-30975D01*
X21525Y-30826D01*
X21475Y-30704D01*
X21475Y-24075D01*
X21475Y-23926D01*
X21475Y-16975D01*
X21475Y-16826D01*
X21418Y-16688D01*
X21313Y-16583D01*
X21175Y-16525D01*
X21026Y-16525D01*
X20888Y-16582D01*
X20783Y-16687D01*
X20775Y-16706D01*
X20775Y-13225D01*
X20775Y-13076D01*
X20718Y-12938D01*
X20613Y-12833D01*
X20475Y-12775D01*
X20474Y-12775D01*
X20612Y-12718D01*
X20717Y-12613D01*
X20775Y-12475D01*
X20775Y-12326D01*
X20718Y-12188D01*
X20613Y-12083D01*
X20475Y-12025D01*
X20326Y-12025D01*
X20275Y-12046D01*
X20275Y-11475D01*
X20275Y-11326D01*
X20218Y-11188D01*
X20113Y-11083D01*
X19975Y-11025D01*
X19826Y-11025D01*
X19688Y-11082D01*
X19583Y-11187D01*
X19525Y-11325D01*
X19525Y-11474D01*
X19582Y-11612D01*
X19687Y-11717D01*
X19825Y-11775D01*
X19974Y-11775D01*
X20112Y-11718D01*
X20217Y-11613D01*
X20275Y-11475D01*
X20275Y-12046D01*
X20188Y-12082D01*
X20083Y-12187D01*
X20025Y-12325D01*
X20025Y-12474D01*
X20082Y-12612D01*
X20187Y-12717D01*
X20325Y-12775D01*
X20188Y-12832D01*
X20083Y-12937D01*
X20035Y-13050D01*
X19975Y-13025D01*
X19826Y-13025D01*
X19688Y-13082D01*
X19583Y-13187D01*
X19525Y-13325D01*
X19525Y-13474D01*
X19560Y-13561D01*
X19475Y-13525D01*
X19326Y-13525D01*
X19188Y-13582D01*
X19083Y-13687D01*
X19025Y-13825D01*
X19025Y-13826D01*
X18968Y-13688D01*
X18930Y-13650D01*
X18967Y-13613D01*
X19025Y-13475D01*
X19025Y-13326D01*
X18968Y-13188D01*
X18930Y-13150D01*
X18967Y-13113D01*
X19025Y-12975D01*
X19025Y-12826D01*
X18968Y-12688D01*
X18930Y-12650D01*
X18967Y-12613D01*
X19025Y-12475D01*
X19025Y-12326D01*
X18968Y-12188D01*
X18930Y-12150D01*
X18967Y-12113D01*
X19025Y-11975D01*
X19025Y-11826D01*
X18968Y-11688D01*
X18930Y-11650D01*
X18967Y-11613D01*
X19025Y-11475D01*
X19025Y-11326D01*
X18968Y-11188D01*
X18930Y-11150D01*
X18967Y-11113D01*
X19025Y-10975D01*
X19025Y-10826D01*
X18968Y-10688D01*
X18930Y-10650D01*
X18967Y-10613D01*
X19025Y-10475D01*
X19025Y-10326D01*
X18968Y-10188D01*
X18930Y-10150D01*
X18967Y-10113D01*
X19025Y-09975D01*
X19025Y-09826D01*
X18968Y-09688D01*
X18863Y-09583D01*
X18725Y-09525D01*
X18576Y-09525D01*
X18438Y-09582D01*
X18333Y-09687D01*
X18275Y-09825D01*
X18275Y-09974D01*
X18332Y-10112D01*
X18370Y-10150D01*
X18333Y-10187D01*
X18275Y-10325D01*
X18275Y-10474D01*
X18332Y-10612D01*
X18370Y-10650D01*
X18333Y-10687D01*
X18275Y-10825D01*
X18275Y-10974D01*
X18332Y-11112D01*
X18370Y-11150D01*
X18333Y-11187D01*
X18275Y-11325D01*
X18275Y-11474D01*
X18332Y-11612D01*
X18370Y-11650D01*
X18333Y-11687D01*
X18275Y-11825D01*
X18275Y-11974D01*
X18332Y-12112D01*
X18370Y-12150D01*
X18333Y-12187D01*
X18275Y-12325D01*
X18275Y-12474D01*
X18332Y-12612D01*
X18370Y-12650D01*
X18333Y-12687D01*
X18275Y-12825D01*
X18275Y-12974D01*
X18332Y-13112D01*
X18370Y-13150D01*
X18333Y-13187D01*
X18275Y-13325D01*
X18275Y-13474D01*
X18332Y-13612D01*
X18370Y-13650D01*
X18333Y-13687D01*
X18275Y-13825D01*
X18275Y-13974D01*
X18332Y-14112D01*
X18370Y-14150D01*
X18333Y-14187D01*
X18275Y-14325D01*
X18275Y-14474D01*
X18332Y-14612D01*
X18437Y-14717D01*
X18575Y-14775D01*
X18724Y-14775D01*
X18862Y-14718D01*
X18967Y-14613D01*
X19025Y-14475D01*
X19025Y-14326D01*
X18968Y-14188D01*
X18930Y-14150D01*
X18967Y-14113D01*
X19025Y-13975D01*
X19082Y-14112D01*
X19187Y-14217D01*
X19325Y-14275D01*
X19474Y-14275D01*
X19612Y-14218D01*
X19717Y-14113D01*
X19775Y-13975D01*
X19775Y-13826D01*
X19739Y-13738D01*
X19825Y-13775D01*
X19974Y-13775D01*
X20112Y-13718D01*
X20217Y-13613D01*
X20264Y-13499D01*
X20325Y-13525D01*
X20474Y-13525D01*
X20612Y-13468D01*
X20717Y-13363D01*
X20775Y-13225D01*
X20775Y-16706D01*
X20725Y-16825D01*
X20725Y-16974D01*
X20782Y-17112D01*
X20887Y-17217D01*
X21025Y-17275D01*
X21174Y-17275D01*
X21312Y-17218D01*
X21417Y-17113D01*
X21475Y-16975D01*
X21475Y-23926D01*
X21418Y-23788D01*
X21313Y-23683D01*
X21175Y-23625D01*
X21026Y-23625D01*
X20888Y-23682D01*
X20783Y-23787D01*
X20725Y-23925D01*
X20725Y-24074D01*
X20782Y-24212D01*
X20887Y-24317D01*
X21025Y-24375D01*
X21174Y-24375D01*
X21312Y-24318D01*
X21417Y-24213D01*
X21475Y-24075D01*
X21475Y-30704D01*
X21468Y-30688D01*
X21363Y-30583D01*
X21225Y-30525D01*
X21076Y-30525D01*
X21025Y-30546D01*
X21025Y-28975D01*
X21025Y-28826D01*
X20968Y-28688D01*
X20863Y-28583D01*
X20725Y-28525D01*
X20576Y-28525D01*
X20438Y-28582D01*
X20333Y-28687D01*
X20275Y-28825D01*
X20275Y-28974D01*
X20332Y-29112D01*
X20437Y-29217D01*
X20575Y-29275D01*
X20724Y-29275D01*
X20862Y-29218D01*
X20967Y-29113D01*
X21025Y-28975D01*
X21025Y-30546D01*
X20938Y-30582D01*
X20833Y-30687D01*
X20775Y-30825D01*
X20775Y-30974D01*
X20832Y-31112D01*
X20937Y-31217D01*
X21075Y-31275D01*
X21224Y-31275D01*
X21362Y-31218D01*
X21467Y-31113D01*
X21525Y-30975D01*
X21525Y-37776D01*
X21468Y-37638D01*
X21363Y-37533D01*
X21225Y-37475D01*
X21076Y-37475D01*
X20938Y-37532D01*
X20833Y-37637D01*
X20775Y-37775D01*
X20775Y-37924D01*
X20832Y-38062D01*
X20937Y-38167D01*
X21075Y-38225D01*
X21224Y-38225D01*
X21362Y-38168D01*
X21467Y-38063D01*
X21525Y-37925D01*
X21525Y-43700D01*
X19025Y-43700D01*
X19025Y-42475D01*
X19025Y-42326D01*
X18968Y-42188D01*
X18930Y-42150D01*
X18967Y-42113D01*
X19025Y-41975D01*
X19025Y-41826D01*
X18968Y-41688D01*
X18930Y-41650D01*
X18967Y-41613D01*
X19025Y-41475D01*
X19025Y-41326D01*
X18968Y-41188D01*
X18930Y-41150D01*
X18967Y-41113D01*
X19025Y-40975D01*
X19025Y-40826D01*
X18968Y-40688D01*
X18930Y-40650D01*
X18967Y-40613D01*
X19025Y-40475D01*
X19025Y-40326D01*
X18968Y-40188D01*
X18930Y-40150D01*
X18967Y-40113D01*
X19025Y-39975D01*
X19025Y-39826D01*
X18968Y-39688D01*
X18930Y-39650D01*
X18967Y-39613D01*
X19025Y-39475D01*
X19025Y-39326D01*
X18968Y-39188D01*
X18930Y-39150D01*
X18967Y-39113D01*
X19025Y-38975D01*
X19025Y-38826D01*
X18968Y-38688D01*
X18930Y-38650D01*
X18967Y-38613D01*
X19025Y-38475D01*
X19025Y-38326D01*
X18968Y-38188D01*
X18930Y-38150D01*
X18967Y-38113D01*
X19025Y-37975D01*
X19025Y-37826D01*
X19025Y-35475D01*
X19025Y-35326D01*
X18968Y-35188D01*
X18930Y-35150D01*
X18967Y-35113D01*
X19025Y-34975D01*
X19025Y-34826D01*
X18968Y-34688D01*
X18930Y-34650D01*
X18967Y-34613D01*
X19025Y-34475D01*
X19025Y-34326D01*
X18968Y-34188D01*
X18930Y-34150D01*
X18967Y-34113D01*
X19025Y-33975D01*
X19025Y-33826D01*
X18968Y-33688D01*
X18930Y-33650D01*
X18967Y-33613D01*
X19025Y-33475D01*
X19025Y-33326D01*
X18968Y-33188D01*
X18930Y-33150D01*
X18967Y-33113D01*
X19025Y-32975D01*
X19025Y-32826D01*
X18968Y-32688D01*
X18930Y-32650D01*
X18967Y-32613D01*
X19025Y-32475D01*
X19025Y-32326D01*
X18968Y-32188D01*
X18930Y-32150D01*
X18967Y-32113D01*
X19025Y-31975D01*
X19025Y-31826D01*
X18968Y-31688D01*
X18930Y-31650D01*
X18967Y-31613D01*
X19025Y-31475D01*
X19025Y-31326D01*
X18968Y-31188D01*
X18930Y-31150D01*
X18967Y-31113D01*
X19025Y-30975D01*
X19025Y-30826D01*
X19025Y-28475D01*
X19025Y-28326D01*
X18968Y-28188D01*
X18930Y-28150D01*
X18967Y-28113D01*
X19025Y-27975D01*
X19025Y-27826D01*
X18968Y-27688D01*
X18930Y-27650D01*
X18967Y-27613D01*
X19025Y-27475D01*
X19025Y-27326D01*
X18968Y-27188D01*
X18930Y-27150D01*
X18967Y-27113D01*
X19025Y-26975D01*
X19025Y-26826D01*
X18968Y-26688D01*
X18930Y-26650D01*
X18967Y-26613D01*
X19025Y-26475D01*
X19025Y-26326D01*
X18968Y-26188D01*
X18930Y-26150D01*
X18967Y-26113D01*
X19025Y-25975D01*
X19025Y-25826D01*
X18968Y-25688D01*
X18930Y-25650D01*
X18967Y-25613D01*
X19025Y-25475D01*
X19025Y-25326D01*
X18968Y-25188D01*
X18930Y-25150D01*
X18967Y-25113D01*
X19025Y-24975D01*
X19025Y-24826D01*
X18968Y-24688D01*
X18930Y-24650D01*
X18967Y-24613D01*
X19025Y-24475D01*
X19025Y-24326D01*
X18968Y-24188D01*
X18930Y-24150D01*
X18967Y-24113D01*
X19025Y-23975D01*
X19025Y-23826D01*
X19025Y-21475D01*
X19025Y-21326D01*
X18968Y-21188D01*
X18930Y-21150D01*
X18967Y-21113D01*
X19025Y-20975D01*
X19025Y-20826D01*
X18968Y-20688D01*
X18930Y-20650D01*
X18967Y-20613D01*
X19025Y-20475D01*
X19025Y-20326D01*
X18968Y-20188D01*
X18930Y-20150D01*
X18967Y-20113D01*
X19025Y-19975D01*
X19025Y-19826D01*
X18968Y-19688D01*
X18930Y-19650D01*
X18967Y-19613D01*
X19025Y-19475D01*
X19025Y-19326D01*
X18968Y-19188D01*
X18930Y-19150D01*
X18967Y-19113D01*
X19025Y-18975D01*
X19025Y-18826D01*
X18968Y-18688D01*
X18930Y-18650D01*
X18967Y-18613D01*
X19025Y-18475D01*
X19025Y-18326D01*
X18968Y-18188D01*
X18930Y-18150D01*
X18967Y-18113D01*
X19025Y-17975D01*
X19025Y-17826D01*
X18968Y-17688D01*
X18930Y-17650D01*
X18967Y-17613D01*
X19025Y-17475D01*
X19025Y-17326D01*
X18968Y-17188D01*
X18930Y-17150D01*
X18967Y-17113D01*
X19025Y-16975D01*
X19025Y-16826D01*
X18968Y-16688D01*
X18863Y-16583D01*
X18725Y-16525D01*
X18576Y-16525D01*
X18438Y-16582D01*
X18333Y-16687D01*
X18275Y-16825D01*
X18275Y-16974D01*
X18332Y-17112D01*
X18370Y-17150D01*
X18333Y-17187D01*
X18275Y-17325D01*
X18275Y-17474D01*
X18332Y-17612D01*
X18370Y-17650D01*
X18333Y-17687D01*
X18275Y-17825D01*
X18275Y-17974D01*
X18332Y-18112D01*
X18370Y-18150D01*
X18333Y-18187D01*
X18275Y-18325D01*
X18275Y-18474D01*
X18332Y-18612D01*
X18370Y-18650D01*
X18333Y-18687D01*
X18275Y-18825D01*
X18275Y-18974D01*
X18332Y-19112D01*
X18370Y-19150D01*
X18333Y-19187D01*
X18275Y-19325D01*
X18275Y-19474D01*
X18332Y-19612D01*
X18370Y-19650D01*
X18333Y-19687D01*
X18275Y-19825D01*
X18275Y-19974D01*
X18332Y-20112D01*
X18370Y-20150D01*
X18333Y-20187D01*
X18275Y-20325D01*
X18275Y-20474D01*
X18332Y-20612D01*
X18370Y-20650D01*
X18333Y-20687D01*
X18275Y-20825D01*
X18275Y-20974D01*
X18332Y-21112D01*
X18370Y-21150D01*
X18333Y-21187D01*
X18275Y-21325D01*
X18275Y-21474D01*
X18332Y-21612D01*
X18437Y-21717D01*
X18575Y-21775D01*
X18724Y-21775D01*
X18862Y-21718D01*
X18967Y-21613D01*
X19025Y-21475D01*
X19025Y-23826D01*
X18968Y-23688D01*
X18863Y-23583D01*
X18725Y-23525D01*
X18576Y-23525D01*
X18438Y-23582D01*
X18333Y-23687D01*
X18275Y-23825D01*
X18275Y-23974D01*
X18332Y-24112D01*
X18370Y-24150D01*
X18333Y-24187D01*
X18275Y-24325D01*
X18275Y-24474D01*
X18332Y-24612D01*
X18370Y-24650D01*
X18333Y-24687D01*
X18275Y-24825D01*
X18275Y-24974D01*
X18332Y-25112D01*
X18370Y-25150D01*
X18333Y-25187D01*
X18275Y-25325D01*
X18275Y-25474D01*
X18332Y-25612D01*
X18370Y-25650D01*
X18333Y-25687D01*
X18275Y-25825D01*
X18275Y-25974D01*
X18332Y-26112D01*
X18370Y-26150D01*
X18333Y-26187D01*
X18275Y-26325D01*
X18275Y-26474D01*
X18332Y-26612D01*
X18370Y-26650D01*
X18333Y-26687D01*
X18275Y-26825D01*
X18275Y-26974D01*
X18332Y-27112D01*
X18370Y-27150D01*
X18333Y-27187D01*
X18275Y-27325D01*
X18275Y-27474D01*
X18332Y-27612D01*
X18370Y-27650D01*
X18333Y-27687D01*
X18275Y-27825D01*
X18275Y-27974D01*
X18332Y-28112D01*
X18370Y-28150D01*
X18333Y-28187D01*
X18275Y-28325D01*
X18275Y-28474D01*
X18332Y-28612D01*
X18437Y-28717D01*
X18575Y-28775D01*
X18724Y-28775D01*
X18862Y-28718D01*
X18967Y-28613D01*
X19025Y-28475D01*
X19025Y-30826D01*
X18968Y-30688D01*
X18863Y-30583D01*
X18725Y-30525D01*
X18576Y-30525D01*
X18438Y-30582D01*
X18333Y-30687D01*
X18275Y-30825D01*
X18275Y-30974D01*
X18332Y-31112D01*
X18370Y-31150D01*
X18333Y-31187D01*
X18275Y-31325D01*
X18275Y-31474D01*
X18332Y-31612D01*
X18370Y-31650D01*
X18333Y-31687D01*
X18275Y-31825D01*
X18275Y-31974D01*
X18332Y-32112D01*
X18370Y-32150D01*
X18333Y-32187D01*
X18275Y-32325D01*
X18275Y-32474D01*
X18332Y-32612D01*
X18370Y-32650D01*
X18333Y-32687D01*
X18275Y-32825D01*
X18275Y-32974D01*
X18332Y-33112D01*
X18370Y-33150D01*
X18333Y-33187D01*
X18275Y-33325D01*
X18275Y-33474D01*
X18332Y-33612D01*
X18370Y-33650D01*
X18333Y-33687D01*
X18275Y-33825D01*
X18275Y-33974D01*
X18332Y-34112D01*
X18370Y-34150D01*
X18333Y-34187D01*
X18275Y-34325D01*
X18275Y-34474D01*
X18332Y-34612D01*
X18370Y-34650D01*
X18333Y-34687D01*
X18275Y-34825D01*
X18275Y-34974D01*
X18332Y-35112D01*
X18370Y-35150D01*
X18333Y-35187D01*
X18275Y-35325D01*
X18275Y-35474D01*
X18332Y-35612D01*
X18437Y-35717D01*
X18575Y-35775D01*
X18724Y-35775D01*
X18862Y-35718D01*
X18967Y-35613D01*
X19025Y-35475D01*
X19025Y-37826D01*
X18968Y-37688D01*
X18863Y-37583D01*
X18725Y-37525D01*
X18576Y-37525D01*
X18438Y-37582D01*
X18333Y-37687D01*
X18275Y-37825D01*
X18275Y-37974D01*
X18332Y-38112D01*
X18370Y-38150D01*
X18333Y-38187D01*
X18275Y-38325D01*
X18275Y-38474D01*
X18332Y-38612D01*
X18370Y-38650D01*
X18333Y-38687D01*
X18275Y-38825D01*
X18275Y-38974D01*
X18332Y-39112D01*
X18370Y-39150D01*
X18333Y-39187D01*
X18275Y-39325D01*
X18275Y-39474D01*
X18332Y-39612D01*
X18370Y-39650D01*
X18333Y-39687D01*
X18275Y-39825D01*
X18275Y-39974D01*
X18332Y-40112D01*
X18370Y-40150D01*
X18333Y-40187D01*
X18275Y-40325D01*
X18275Y-40474D01*
X18332Y-40612D01*
X18370Y-40650D01*
X18333Y-40687D01*
X18275Y-40825D01*
X18275Y-40974D01*
X18332Y-41112D01*
X18370Y-41150D01*
X18333Y-41187D01*
X18275Y-41325D01*
X18275Y-41474D01*
X18332Y-41612D01*
X18370Y-41650D01*
X18333Y-41687D01*
X18275Y-41825D01*
X18275Y-41974D01*
X18332Y-42112D01*
X18370Y-42150D01*
X18333Y-42187D01*
X18275Y-42325D01*
X18275Y-42474D01*
X18332Y-42612D01*
X18437Y-42717D01*
X18575Y-42775D01*
X18724Y-42775D01*
X18862Y-42718D01*
X18967Y-42613D01*
X19025Y-42475D01*
X19025Y-43700D01*
X17575Y-43700D01*
X17575Y-23875D01*
X17575Y-23726D01*
X17525Y-23604D01*
X17525Y-21725D01*
X17525Y-21576D01*
X17468Y-21438D01*
X17363Y-21333D01*
X17225Y-21275D01*
X17076Y-21275D01*
X17050Y-21285D01*
X17050Y-15710D01*
X17050Y-15292D01*
X16890Y-14906D01*
X16595Y-14610D01*
X16210Y-14450D01*
X15792Y-14450D01*
X15406Y-14610D01*
X15275Y-14740D01*
X15275Y-09975D01*
X15275Y-09826D01*
X15218Y-09688D01*
X15113Y-09583D01*
X14975Y-09525D01*
X14826Y-09525D01*
X14688Y-09582D01*
X14583Y-09687D01*
X14525Y-09825D01*
X14525Y-09974D01*
X14582Y-10112D01*
X14687Y-10217D01*
X14825Y-10275D01*
X14974Y-10275D01*
X15112Y-10218D01*
X15217Y-10113D01*
X15275Y-09975D01*
X15275Y-14740D01*
X15110Y-14905D01*
X14950Y-15290D01*
X14950Y-15708D01*
X15110Y-16094D01*
X15405Y-16390D01*
X15790Y-16550D01*
X16208Y-16550D01*
X16594Y-16390D01*
X16890Y-16095D01*
X17050Y-15710D01*
X17050Y-21285D01*
X16938Y-21332D01*
X16833Y-21437D01*
X16785Y-21550D01*
X16725Y-21525D01*
X16576Y-21525D01*
X16438Y-21582D01*
X16333Y-21687D01*
X16285Y-21800D01*
X16225Y-21775D01*
X16076Y-21775D01*
X15938Y-21832D01*
X15833Y-21937D01*
X15785Y-22050D01*
X15725Y-22025D01*
X15576Y-22025D01*
X15438Y-22082D01*
X15333Y-22187D01*
X15285Y-22300D01*
X15225Y-22275D01*
X15076Y-22275D01*
X14938Y-22332D01*
X14833Y-22437D01*
X14785Y-22550D01*
X14725Y-22525D01*
X14576Y-22525D01*
X14438Y-22582D01*
X14333Y-22687D01*
X14285Y-22800D01*
X14225Y-22775D01*
X14076Y-22775D01*
X13938Y-22832D01*
X13833Y-22937D01*
X13775Y-23075D01*
X13775Y-23224D01*
X13832Y-23362D01*
X13937Y-23467D01*
X14075Y-23525D01*
X14224Y-23525D01*
X14362Y-23468D01*
X14467Y-23363D01*
X14514Y-23249D01*
X14575Y-23275D01*
X14724Y-23275D01*
X14862Y-23218D01*
X14967Y-23113D01*
X15014Y-22999D01*
X15075Y-23025D01*
X15224Y-23025D01*
X15362Y-22968D01*
X15467Y-22863D01*
X15514Y-22749D01*
X15575Y-22775D01*
X15724Y-22775D01*
X15862Y-22718D01*
X15967Y-22613D01*
X16014Y-22499D01*
X16075Y-22525D01*
X16224Y-22525D01*
X16362Y-22468D01*
X16467Y-22363D01*
X16514Y-22249D01*
X16575Y-22275D01*
X16724Y-22275D01*
X16862Y-22218D01*
X16967Y-22113D01*
X17014Y-21999D01*
X17075Y-22025D01*
X17224Y-22025D01*
X17362Y-21968D01*
X17467Y-21863D01*
X17525Y-21725D01*
X17525Y-23604D01*
X17518Y-23588D01*
X17413Y-23483D01*
X17275Y-23425D01*
X17126Y-23425D01*
X16988Y-23482D01*
X16883Y-23587D01*
X16825Y-23725D01*
X16825Y-23874D01*
X16882Y-24012D01*
X16987Y-24117D01*
X17125Y-24175D01*
X17274Y-24175D01*
X17412Y-24118D01*
X17517Y-24013D01*
X17575Y-23875D01*
X17575Y-43700D01*
X16775Y-43700D01*
X16775Y-23975D01*
X16775Y-23826D01*
X16718Y-23688D01*
X16613Y-23583D01*
X16475Y-23525D01*
X16326Y-23525D01*
X16188Y-23582D01*
X16083Y-23687D01*
X16025Y-23825D01*
X16025Y-23974D01*
X16082Y-24112D01*
X16187Y-24217D01*
X16325Y-24275D01*
X16474Y-24275D01*
X16612Y-24218D01*
X16717Y-24113D01*
X16775Y-23975D01*
X16775Y-43700D01*
X16325Y-43700D01*
X16325Y-37875D01*
X16325Y-37726D01*
X16268Y-37588D01*
X16163Y-37483D01*
X16025Y-37425D01*
X15924Y-37425D01*
X15868Y-37288D01*
X15763Y-37183D01*
X15625Y-37125D01*
X15503Y-37125D01*
X15468Y-37038D01*
X15363Y-36933D01*
X15225Y-36875D01*
X15182Y-36875D01*
X15225Y-36775D01*
X15225Y-36626D01*
X15168Y-36488D01*
X15155Y-36475D01*
X15167Y-36463D01*
X15207Y-36367D01*
X15225Y-36375D01*
X15374Y-36375D01*
X15512Y-36318D01*
X15617Y-36213D01*
X15675Y-36075D01*
X15675Y-35975D01*
X15774Y-35975D01*
X15912Y-35918D01*
X16017Y-35813D01*
X16075Y-35675D01*
X16075Y-35526D01*
X16018Y-35388D01*
X15975Y-35345D01*
X15975Y-30825D01*
X15975Y-30676D01*
X15918Y-30538D01*
X15813Y-30433D01*
X15675Y-30375D01*
X15526Y-30375D01*
X15475Y-30396D01*
X15475Y-30376D01*
X15418Y-30238D01*
X15313Y-30133D01*
X15275Y-30117D01*
X15275Y-26225D01*
X15275Y-26076D01*
X15218Y-25938D01*
X15113Y-25833D01*
X14975Y-25775D01*
X14826Y-25775D01*
X14688Y-25832D01*
X14625Y-25895D01*
X14625Y-24825D01*
X14625Y-24676D01*
X14568Y-24538D01*
X14463Y-24433D01*
X14325Y-24375D01*
X14176Y-24375D01*
X14038Y-24432D01*
X13950Y-24520D01*
X13913Y-24483D01*
X13775Y-24425D01*
X13626Y-24425D01*
X13488Y-24482D01*
X13383Y-24587D01*
X13325Y-24725D01*
X13325Y-24874D01*
X13382Y-25012D01*
X13487Y-25117D01*
X13625Y-25175D01*
X13774Y-25175D01*
X13912Y-25118D01*
X14000Y-25030D01*
X14037Y-25067D01*
X14175Y-25125D01*
X14324Y-25125D01*
X14462Y-25068D01*
X14567Y-24963D01*
X14625Y-24825D01*
X14625Y-25895D01*
X14583Y-25937D01*
X14525Y-26075D01*
X14525Y-26224D01*
X14582Y-26362D01*
X14687Y-26467D01*
X14825Y-26525D01*
X14974Y-26525D01*
X15112Y-26468D01*
X15217Y-26363D01*
X15275Y-26225D01*
X15275Y-30117D01*
X15175Y-30075D01*
X15026Y-30075D01*
X15007Y-30082D01*
X14968Y-29988D01*
X14902Y-29922D01*
X14912Y-29918D01*
X15017Y-29813D01*
X15075Y-29675D01*
X15075Y-29526D01*
X15018Y-29388D01*
X14913Y-29283D01*
X14809Y-29239D01*
X14862Y-29218D01*
X14967Y-29113D01*
X15025Y-28975D01*
X15025Y-28826D01*
X14968Y-28688D01*
X14875Y-28595D01*
X14875Y-27525D01*
X14875Y-27376D01*
X14818Y-27238D01*
X14713Y-27133D01*
X14575Y-27075D01*
X14426Y-27075D01*
X14288Y-27132D01*
X14183Y-27237D01*
X14125Y-27375D01*
X14125Y-27524D01*
X14182Y-27662D01*
X14287Y-27767D01*
X14425Y-27825D01*
X14574Y-27825D01*
X14712Y-27768D01*
X14817Y-27663D01*
X14875Y-27525D01*
X14875Y-28595D01*
X14863Y-28583D01*
X14725Y-28525D01*
X14576Y-28525D01*
X14438Y-28582D01*
X14333Y-28687D01*
X14275Y-28825D01*
X14275Y-28974D01*
X14332Y-29112D01*
X14437Y-29217D01*
X14540Y-29260D01*
X14488Y-29282D01*
X14383Y-29387D01*
X14325Y-29525D01*
X14325Y-29674D01*
X14382Y-29812D01*
X14447Y-29877D01*
X14438Y-29882D01*
X14333Y-29987D01*
X14275Y-30125D01*
X14275Y-30274D01*
X14332Y-30412D01*
X14437Y-30517D01*
X14575Y-30575D01*
X14724Y-30575D01*
X14742Y-30567D01*
X14782Y-30662D01*
X14887Y-30767D01*
X15025Y-30825D01*
X15174Y-30825D01*
X15225Y-30803D01*
X15225Y-30824D01*
X15282Y-30962D01*
X15387Y-31067D01*
X15525Y-31125D01*
X15674Y-31125D01*
X15812Y-31068D01*
X15917Y-30963D01*
X15975Y-30825D01*
X15975Y-35345D01*
X15913Y-35283D01*
X15775Y-35225D01*
X15626Y-35225D01*
X15488Y-35282D01*
X15383Y-35387D01*
X15325Y-35525D01*
X15325Y-35625D01*
X15226Y-35625D01*
X15088Y-35682D01*
X14983Y-35787D01*
X14942Y-35882D01*
X14925Y-35875D01*
X14776Y-35875D01*
X14638Y-35932D01*
X14533Y-36037D01*
X14475Y-36175D01*
X14475Y-36324D01*
X14532Y-36462D01*
X14545Y-36475D01*
X14533Y-36487D01*
X14475Y-36625D01*
X14475Y-36774D01*
X14532Y-36912D01*
X14637Y-37017D01*
X14775Y-37075D01*
X14817Y-37075D01*
X14775Y-37175D01*
X14775Y-37324D01*
X14832Y-37462D01*
X14937Y-37567D01*
X15075Y-37625D01*
X15196Y-37625D01*
X15232Y-37712D01*
X15337Y-37817D01*
X15475Y-37875D01*
X15575Y-37875D01*
X15632Y-38012D01*
X15737Y-38117D01*
X15875Y-38175D01*
X16024Y-38175D01*
X16162Y-38118D01*
X16267Y-38013D01*
X16325Y-37875D01*
X16325Y-43700D01*
X14325Y-43700D01*
X14325Y-43675D01*
X14374Y-43675D01*
X14512Y-43618D01*
X14617Y-43513D01*
X14654Y-43424D01*
X14775Y-43475D01*
X14924Y-43475D01*
X15062Y-43418D01*
X15167Y-43313D01*
X15222Y-43181D01*
X15325Y-43225D01*
X15474Y-43225D01*
X15612Y-43168D01*
X15717Y-43063D01*
X15775Y-42925D01*
X15775Y-42776D01*
X15718Y-42638D01*
X15613Y-42533D01*
X15475Y-42475D01*
X15326Y-42475D01*
X15188Y-42532D01*
X15125Y-42595D01*
X15125Y-42175D01*
X15125Y-42026D01*
X15068Y-41888D01*
X14963Y-41783D01*
X14825Y-41725D01*
X14676Y-41725D01*
X14538Y-41782D01*
X14433Y-41887D01*
X14375Y-42025D01*
X14375Y-42174D01*
X14432Y-42312D01*
X14537Y-42417D01*
X14675Y-42475D01*
X14824Y-42475D01*
X14962Y-42418D01*
X15067Y-42313D01*
X15125Y-42175D01*
X15125Y-42595D01*
X15083Y-42637D01*
X15027Y-42768D01*
X14925Y-42725D01*
X14776Y-42725D01*
X14638Y-42782D01*
X14533Y-42887D01*
X14495Y-42975D01*
X14375Y-42925D01*
X14226Y-42925D01*
X14225Y-42925D01*
X14225Y-41925D01*
X14225Y-41776D01*
X14168Y-41638D01*
X14063Y-41533D01*
X13925Y-41475D01*
X13776Y-41475D01*
X13638Y-41532D01*
X13533Y-41637D01*
X13525Y-41656D01*
X13525Y-41575D01*
X13525Y-41426D01*
X13468Y-41288D01*
X13425Y-41245D01*
X13425Y-26625D01*
X13425Y-26476D01*
X13368Y-26338D01*
X13275Y-26245D01*
X13275Y-24975D01*
X13275Y-24826D01*
X13218Y-24688D01*
X13113Y-24583D01*
X13025Y-24546D01*
X13025Y-14975D01*
X13025Y-14826D01*
X12968Y-14688D01*
X12863Y-14583D01*
X12725Y-14525D01*
X12576Y-14525D01*
X12438Y-14582D01*
X12333Y-14687D01*
X12275Y-14825D01*
X12275Y-14974D01*
X12332Y-15112D01*
X12437Y-15217D01*
X12575Y-15275D01*
X12724Y-15275D01*
X12862Y-15218D01*
X12967Y-15113D01*
X13025Y-14975D01*
X13025Y-24546D01*
X12975Y-24525D01*
X12826Y-24525D01*
X12775Y-24546D01*
X12775Y-18725D01*
X12775Y-18576D01*
X12718Y-18438D01*
X12613Y-18333D01*
X12475Y-18275D01*
X12375Y-18275D01*
X12375Y-17025D01*
X12375Y-16876D01*
X12318Y-16738D01*
X12213Y-16633D01*
X12075Y-16575D01*
X11926Y-16575D01*
X11788Y-16632D01*
X11683Y-16737D01*
X11625Y-16875D01*
X11625Y-17024D01*
X11682Y-17162D01*
X11787Y-17267D01*
X11925Y-17325D01*
X12074Y-17325D01*
X12212Y-17268D01*
X12317Y-17163D01*
X12375Y-17025D01*
X12375Y-18275D01*
X12326Y-18275D01*
X12188Y-18332D01*
X12083Y-18437D01*
X12025Y-18575D01*
X12025Y-18724D01*
X12082Y-18862D01*
X12187Y-18967D01*
X12325Y-19025D01*
X12474Y-19025D01*
X12612Y-18968D01*
X12717Y-18863D01*
X12775Y-18725D01*
X12775Y-24546D01*
X12688Y-24582D01*
X12583Y-24687D01*
X12525Y-24825D01*
X12525Y-24826D01*
X12468Y-24688D01*
X12363Y-24583D01*
X12225Y-24525D01*
X12076Y-24525D01*
X11938Y-24582D01*
X11833Y-24687D01*
X11775Y-24825D01*
X11775Y-24974D01*
X11832Y-25112D01*
X11937Y-25217D01*
X12075Y-25275D01*
X12224Y-25275D01*
X12362Y-25218D01*
X12467Y-25113D01*
X12525Y-24975D01*
X12582Y-25112D01*
X12687Y-25217D01*
X12825Y-25275D01*
X12974Y-25275D01*
X13112Y-25218D01*
X13217Y-25113D01*
X13275Y-24975D01*
X13275Y-26245D01*
X13263Y-26233D01*
X13125Y-26175D01*
X12976Y-26175D01*
X12838Y-26232D01*
X12733Y-26337D01*
X12675Y-26475D01*
X12675Y-26624D01*
X12732Y-26762D01*
X12837Y-26867D01*
X12975Y-26925D01*
X13124Y-26925D01*
X13262Y-26868D01*
X13367Y-26763D01*
X13425Y-26625D01*
X13425Y-41245D01*
X13363Y-41183D01*
X13225Y-41125D01*
X13076Y-41125D01*
X13075Y-41125D01*
X13075Y-37225D01*
X13075Y-37076D01*
X13018Y-36938D01*
X12913Y-36833D01*
X12775Y-36775D01*
X12626Y-36775D01*
X12488Y-36832D01*
X12383Y-36937D01*
X12325Y-37075D01*
X12325Y-37224D01*
X12382Y-37362D01*
X12487Y-37467D01*
X12625Y-37525D01*
X12774Y-37525D01*
X12912Y-37468D01*
X13017Y-37363D01*
X13075Y-37225D01*
X13075Y-41125D01*
X12938Y-41182D01*
X12833Y-41287D01*
X12775Y-41425D01*
X12775Y-40975D01*
X12775Y-40826D01*
X12718Y-40688D01*
X12613Y-40583D01*
X12475Y-40525D01*
X12326Y-40525D01*
X12188Y-40582D01*
X12083Y-40687D01*
X12025Y-40825D01*
X12025Y-40974D01*
X12082Y-41112D01*
X12187Y-41217D01*
X12325Y-41275D01*
X12474Y-41275D01*
X12612Y-41218D01*
X12717Y-41113D01*
X12775Y-40975D01*
X12775Y-41425D01*
X12775Y-41574D01*
X12832Y-41712D01*
X12937Y-41817D01*
X13075Y-41875D01*
X13224Y-41875D01*
X13362Y-41818D01*
X13467Y-41713D01*
X13525Y-41575D01*
X13525Y-41656D01*
X13475Y-41775D01*
X13475Y-41924D01*
X13532Y-42062D01*
X13637Y-42167D01*
X13775Y-42225D01*
X13924Y-42225D01*
X14062Y-42168D01*
X14167Y-42063D01*
X14225Y-41925D01*
X14225Y-42925D01*
X14088Y-42982D01*
X13983Y-43087D01*
X13925Y-43225D01*
X13925Y-43275D01*
X13876Y-43275D01*
X13738Y-43332D01*
X13633Y-43437D01*
X13575Y-43575D01*
X13575Y-43700D01*
X11550Y-43700D01*
X11550Y-39764D01*
X11575Y-39775D01*
X11724Y-39775D01*
X11862Y-39718D01*
X11967Y-39613D01*
X12025Y-39475D01*
X12025Y-39326D01*
X11968Y-39188D01*
X11863Y-39083D01*
X11725Y-39025D01*
X11725Y-30175D01*
X11725Y-30026D01*
X11668Y-29888D01*
X11563Y-29783D01*
X11525Y-29767D01*
X11525Y-17975D01*
X11525Y-17826D01*
X11468Y-17688D01*
X11363Y-17583D01*
X11225Y-17525D01*
X11076Y-17525D01*
X10938Y-17582D01*
X10833Y-17687D01*
X10775Y-17825D01*
X10775Y-17974D01*
X10800Y-18035D01*
X10688Y-18082D01*
X10583Y-18187D01*
X10525Y-18325D01*
X10525Y-18474D01*
X10560Y-18561D01*
X10475Y-18525D01*
X10326Y-18525D01*
X10188Y-18582D01*
X10150Y-18620D01*
X10113Y-18583D01*
X09975Y-18525D01*
X09826Y-18525D01*
X09825Y-18525D01*
X09825Y-15275D01*
X09825Y-15126D01*
X09825Y-12775D01*
X09825Y-12626D01*
X09768Y-12488D01*
X09663Y-12383D01*
X09525Y-12325D01*
X09376Y-12325D01*
X09238Y-12382D01*
X09133Y-12487D01*
X09075Y-12625D01*
X09075Y-12774D01*
X09132Y-12912D01*
X09237Y-13017D01*
X09375Y-13075D01*
X09524Y-13075D01*
X09662Y-13018D01*
X09767Y-12913D01*
X09825Y-12775D01*
X09825Y-15126D01*
X09768Y-14988D01*
X09663Y-14883D01*
X09525Y-14825D01*
X09376Y-14825D01*
X09238Y-14882D01*
X09133Y-14987D01*
X09075Y-15125D01*
X09075Y-15274D01*
X09132Y-15412D01*
X09237Y-15517D01*
X09375Y-15575D01*
X09524Y-15575D01*
X09662Y-15518D01*
X09767Y-15413D01*
X09825Y-15275D01*
X09825Y-18525D01*
X09688Y-18582D01*
X09583Y-18687D01*
X09525Y-18825D01*
X09525Y-18974D01*
X09582Y-19112D01*
X09687Y-19217D01*
X09825Y-19275D01*
X09974Y-19275D01*
X10112Y-19218D01*
X10150Y-19180D01*
X10187Y-19217D01*
X10325Y-19275D01*
X10474Y-19275D01*
X10612Y-19218D01*
X10717Y-19113D01*
X10775Y-18975D01*
X10775Y-18826D01*
X10739Y-18738D01*
X10825Y-18775D01*
X10974Y-18775D01*
X11112Y-18718D01*
X11217Y-18613D01*
X11275Y-18475D01*
X11275Y-18326D01*
X11249Y-18264D01*
X11362Y-18218D01*
X11467Y-18113D01*
X11525Y-17975D01*
X11525Y-29767D01*
X11425Y-29725D01*
X11276Y-29725D01*
X11275Y-29725D01*
X11275Y-21475D01*
X11275Y-21326D01*
X11218Y-21188D01*
X11113Y-21083D01*
X10975Y-21025D01*
X10826Y-21025D01*
X10775Y-21046D01*
X10775Y-20475D01*
X10775Y-20326D01*
X10718Y-20188D01*
X10613Y-20083D01*
X10475Y-20025D01*
X10326Y-20025D01*
X10188Y-20082D01*
X10083Y-20187D01*
X10025Y-20325D01*
X10025Y-20474D01*
X10082Y-20612D01*
X10187Y-20717D01*
X10325Y-20775D01*
X10474Y-20775D01*
X10612Y-20718D01*
X10717Y-20613D01*
X10775Y-20475D01*
X10775Y-21046D01*
X10688Y-21082D01*
X10583Y-21187D01*
X10525Y-21325D01*
X10525Y-21474D01*
X10582Y-21612D01*
X10687Y-21717D01*
X10825Y-21775D01*
X10974Y-21775D01*
X11112Y-21718D01*
X11217Y-21613D01*
X11275Y-21475D01*
X11275Y-29725D01*
X11225Y-29746D01*
X11225Y-26525D01*
X11225Y-26376D01*
X11168Y-26238D01*
X11063Y-26133D01*
X10925Y-26075D01*
X10776Y-26075D01*
X10638Y-26132D01*
X10533Y-26237D01*
X10525Y-26256D01*
X10525Y-24975D01*
X10525Y-24826D01*
X10468Y-24688D01*
X10363Y-24583D01*
X10225Y-24525D01*
X10076Y-24525D01*
X10075Y-24525D01*
X10075Y-23275D01*
X10075Y-23126D01*
X10018Y-22988D01*
X09913Y-22883D01*
X09775Y-22825D01*
X09626Y-22825D01*
X09525Y-22866D01*
X09525Y-22375D01*
X09525Y-22226D01*
X09468Y-22088D01*
X09363Y-21983D01*
X09225Y-21925D01*
X09076Y-21925D01*
X08938Y-21982D01*
X08833Y-22087D01*
X08775Y-22225D01*
X08775Y-22374D01*
X08832Y-22512D01*
X08937Y-22617D01*
X09075Y-22675D01*
X09224Y-22675D01*
X09362Y-22618D01*
X09467Y-22513D01*
X09525Y-22375D01*
X09525Y-22866D01*
X09488Y-22882D01*
X09383Y-22987D01*
X09325Y-23125D01*
X09325Y-23274D01*
X09382Y-23412D01*
X09487Y-23517D01*
X09625Y-23575D01*
X09774Y-23575D01*
X09912Y-23518D01*
X10017Y-23413D01*
X10075Y-23275D01*
X10075Y-24525D01*
X09996Y-24557D01*
X09968Y-24488D01*
X09863Y-24383D01*
X09725Y-24325D01*
X09576Y-24325D01*
X09438Y-24382D01*
X09333Y-24487D01*
X09298Y-24568D01*
X09263Y-24533D01*
X09125Y-24475D01*
X08976Y-24475D01*
X08838Y-24532D01*
X08775Y-24595D01*
X08775Y-24275D01*
X08775Y-24126D01*
X08718Y-23988D01*
X08613Y-23883D01*
X08484Y-23829D01*
X08512Y-23818D01*
X08617Y-23713D01*
X08675Y-23575D01*
X08675Y-23426D01*
X08618Y-23288D01*
X08513Y-23183D01*
X08375Y-23125D01*
X08226Y-23125D01*
X08088Y-23182D01*
X08050Y-23220D01*
X08050Y-07210D01*
X08050Y-06792D01*
X07890Y-06406D01*
X07595Y-06110D01*
X07210Y-05950D01*
X06792Y-05950D01*
X06406Y-06110D01*
X06110Y-06405D01*
X05950Y-06790D01*
X05950Y-07208D01*
X06110Y-07594D01*
X06405Y-07890D01*
X06790Y-08050D01*
X07208Y-08050D01*
X07594Y-07890D01*
X07890Y-07595D01*
X08050Y-07210D01*
X08050Y-23220D01*
X07983Y-23287D01*
X07925Y-23425D01*
X07925Y-23574D01*
X07982Y-23712D01*
X08087Y-23817D01*
X08215Y-23870D01*
X08188Y-23882D01*
X08083Y-23987D01*
X08025Y-24125D01*
X08025Y-24274D01*
X08082Y-24412D01*
X08187Y-24517D01*
X08325Y-24575D01*
X08474Y-24575D01*
X08612Y-24518D01*
X08717Y-24413D01*
X08775Y-24275D01*
X08775Y-24595D01*
X08733Y-24637D01*
X08675Y-24775D01*
X08675Y-24924D01*
X08732Y-25062D01*
X08837Y-25167D01*
X08975Y-25225D01*
X09124Y-25225D01*
X09262Y-25168D01*
X09367Y-25063D01*
X09401Y-24981D01*
X09437Y-25017D01*
X09575Y-25075D01*
X09724Y-25075D01*
X09803Y-25042D01*
X09832Y-25112D01*
X09937Y-25217D01*
X10075Y-25275D01*
X10224Y-25275D01*
X10362Y-25218D01*
X10467Y-25113D01*
X10525Y-24975D01*
X10525Y-26256D01*
X10475Y-26375D01*
X10475Y-26524D01*
X10532Y-26662D01*
X10637Y-26767D01*
X10775Y-26825D01*
X10924Y-26825D01*
X11062Y-26768D01*
X11167Y-26663D01*
X11225Y-26525D01*
X11225Y-29746D01*
X11138Y-29782D01*
X11033Y-29887D01*
X10975Y-30025D01*
X10975Y-30174D01*
X11032Y-30312D01*
X11137Y-30417D01*
X11275Y-30475D01*
X11424Y-30475D01*
X11562Y-30418D01*
X11667Y-30313D01*
X11725Y-30175D01*
X11725Y-39025D01*
X11576Y-39025D01*
X11550Y-39035D01*
X11550Y-32700D01*
X10725Y-32700D01*
X10725Y-32626D01*
X10668Y-32488D01*
X10563Y-32383D01*
X10425Y-32325D01*
X10276Y-32325D01*
X10138Y-32382D01*
X10125Y-32395D01*
X10125Y-28525D01*
X10125Y-28376D01*
X10068Y-28238D01*
X10025Y-28195D01*
X10025Y-26325D01*
X10025Y-26176D01*
X09968Y-26038D01*
X09863Y-25933D01*
X09725Y-25875D01*
X09576Y-25875D01*
X09438Y-25932D01*
X09401Y-25968D01*
X09368Y-25888D01*
X09263Y-25783D01*
X09125Y-25725D01*
X09074Y-25725D01*
X09018Y-25588D01*
X08913Y-25483D01*
X08775Y-25425D01*
X08626Y-25425D01*
X08488Y-25482D01*
X08383Y-25587D01*
X08325Y-25725D01*
X08325Y-25874D01*
X08382Y-26012D01*
X08487Y-26117D01*
X08625Y-26175D01*
X08675Y-26175D01*
X08732Y-26312D01*
X08837Y-26417D01*
X08975Y-26475D01*
X09124Y-26475D01*
X09262Y-26418D01*
X09298Y-26381D01*
X09332Y-26462D01*
X09437Y-26567D01*
X09575Y-26625D01*
X09724Y-26625D01*
X09862Y-26568D01*
X09967Y-26463D01*
X10025Y-26325D01*
X10025Y-28195D01*
X09963Y-28133D01*
X09825Y-28075D01*
X09676Y-28075D01*
X09538Y-28132D01*
X09433Y-28237D01*
X09375Y-28375D01*
X09375Y-28524D01*
X09432Y-28662D01*
X09537Y-28767D01*
X09675Y-28825D01*
X09824Y-28825D01*
X09962Y-28768D01*
X10067Y-28663D01*
X10125Y-28525D01*
X10125Y-32395D01*
X10033Y-32487D01*
X09975Y-32625D01*
X09975Y-32700D01*
X07799Y-32700D01*
X07799Y-16850D01*
X07799Y-16751D01*
X07799Y-16151D01*
X07761Y-16059D01*
X07691Y-15989D01*
X07600Y-15951D01*
X07575Y-15951D01*
X07715Y-15811D01*
X07799Y-15609D01*
X07799Y-15391D01*
X07793Y-15376D01*
X07793Y-14579D01*
X07793Y-13579D01*
X07793Y-12579D01*
X07782Y-12366D01*
X07722Y-12219D01*
X07628Y-12192D01*
X07558Y-12262D01*
X07558Y-12122D01*
X07531Y-12028D01*
X07400Y-11981D01*
X07400Y-10370D01*
X07400Y-10032D01*
X07271Y-09720D01*
X07032Y-09480D01*
X06720Y-09350D01*
X06382Y-09350D01*
X06070Y-09479D01*
X05830Y-09718D01*
X05700Y-10030D01*
X05700Y-10368D01*
X05829Y-10680D01*
X06068Y-10920D01*
X06380Y-11050D01*
X06718Y-11050D01*
X07030Y-10921D01*
X07270Y-10682D01*
X07400Y-10370D01*
X07400Y-11981D01*
X07329Y-11957D01*
X07116Y-11968D01*
X06969Y-12028D01*
X06942Y-12122D01*
X07250Y-12429D01*
X07558Y-12122D01*
X07558Y-12262D01*
X07321Y-12500D01*
X07628Y-12808D01*
X07722Y-12781D01*
X07793Y-12579D01*
X07793Y-13579D01*
X07782Y-13366D01*
X07722Y-13219D01*
X07628Y-13192D01*
X07558Y-13262D01*
X07558Y-13122D01*
X07531Y-13028D01*
X07457Y-13002D01*
X07531Y-12972D01*
X07558Y-12878D01*
X07250Y-12571D01*
X06942Y-12878D01*
X06969Y-12972D01*
X07042Y-12997D01*
X06969Y-13028D01*
X06942Y-13122D01*
X07250Y-13429D01*
X07558Y-13122D01*
X07558Y-13262D01*
X07321Y-13500D01*
X07628Y-13808D01*
X07722Y-13781D01*
X07793Y-13579D01*
X07793Y-14579D01*
X07782Y-14366D01*
X07722Y-14219D01*
X07628Y-14192D01*
X07558Y-14262D01*
X07558Y-14122D01*
X07531Y-14028D01*
X07457Y-14002D01*
X07531Y-13972D01*
X07558Y-13878D01*
X07250Y-13571D01*
X06942Y-13878D01*
X06969Y-13972D01*
X07042Y-13997D01*
X06969Y-14028D01*
X06942Y-14122D01*
X07250Y-14429D01*
X07558Y-14122D01*
X07558Y-14262D01*
X07321Y-14500D01*
X07628Y-14808D01*
X07722Y-14781D01*
X07793Y-14579D01*
X07793Y-15376D01*
X07715Y-15189D01*
X07561Y-15035D01*
X07469Y-14997D01*
X07531Y-14972D01*
X07558Y-14878D01*
X07250Y-14571D01*
X06942Y-14878D01*
X06969Y-14972D01*
X07034Y-14995D01*
X06939Y-15035D01*
X06785Y-15189D01*
X06750Y-15273D01*
X06715Y-15189D01*
X06561Y-15035D01*
X06476Y-15000D01*
X06561Y-14965D01*
X06715Y-14811D01*
X06752Y-14719D01*
X06778Y-14781D01*
X06872Y-14808D01*
X07179Y-14500D01*
X06872Y-14192D01*
X06778Y-14219D01*
X06754Y-14284D01*
X06715Y-14189D01*
X06561Y-14035D01*
X06476Y-14000D01*
X06561Y-13965D01*
X06715Y-13811D01*
X06752Y-13719D01*
X06778Y-13781D01*
X06872Y-13808D01*
X07179Y-13500D01*
X06872Y-13192D01*
X06778Y-13219D01*
X06754Y-13284D01*
X06715Y-13189D01*
X06561Y-13035D01*
X06476Y-13000D01*
X06561Y-12965D01*
X06715Y-12811D01*
X06752Y-12719D01*
X06778Y-12781D01*
X06872Y-12808D01*
X07179Y-12500D01*
X06872Y-12192D01*
X06778Y-12219D01*
X06754Y-12284D01*
X06715Y-12189D01*
X06561Y-12035D01*
X06359Y-11951D01*
X06141Y-11951D01*
X05939Y-12035D01*
X05785Y-12189D01*
X05701Y-12391D01*
X05701Y-12609D01*
X05785Y-12811D01*
X05939Y-12965D01*
X06023Y-13000D01*
X05939Y-13035D01*
X05785Y-13189D01*
X05701Y-13391D01*
X05701Y-13609D01*
X05785Y-13811D01*
X05939Y-13965D01*
X06023Y-14000D01*
X05939Y-14035D01*
X05785Y-14189D01*
X05701Y-14391D01*
X05701Y-14609D01*
X05785Y-14811D01*
X05939Y-14965D01*
X06023Y-15000D01*
X05939Y-15035D01*
X05785Y-15189D01*
X05701Y-15391D01*
X05701Y-15609D01*
X05785Y-15811D01*
X05939Y-15965D01*
X06030Y-16002D01*
X05969Y-16028D01*
X05942Y-16122D01*
X06250Y-16429D01*
X06558Y-16122D01*
X06531Y-16028D01*
X06465Y-16004D01*
X06561Y-15965D01*
X06715Y-15811D01*
X06750Y-15726D01*
X06785Y-15811D01*
X06925Y-15951D01*
X06901Y-15951D01*
X06809Y-15989D01*
X06739Y-16059D01*
X06701Y-16150D01*
X06701Y-16212D01*
X06628Y-16192D01*
X06321Y-16500D01*
X06628Y-16808D01*
X06701Y-16787D01*
X06701Y-16849D01*
X06739Y-16941D01*
X06809Y-17011D01*
X06900Y-17049D01*
X06999Y-17049D01*
X07599Y-17049D01*
X07691Y-17011D01*
X07761Y-16941D01*
X07799Y-16850D01*
X07799Y-32700D01*
X07475Y-32700D01*
X07475Y-26275D01*
X07475Y-26126D01*
X07418Y-25988D01*
X07400Y-25970D01*
X07400Y-18970D01*
X07400Y-18632D01*
X07271Y-18320D01*
X07032Y-18080D01*
X06720Y-17950D01*
X06558Y-17950D01*
X06558Y-16878D01*
X06250Y-16571D01*
X06179Y-16641D01*
X06179Y-16500D01*
X05872Y-16192D01*
X05778Y-16219D01*
X05707Y-16421D01*
X05718Y-16634D01*
X05778Y-16781D01*
X05872Y-16808D01*
X06179Y-16500D01*
X06179Y-16641D01*
X05942Y-16878D01*
X05969Y-16972D01*
X06171Y-17043D01*
X06384Y-17032D01*
X06531Y-16972D01*
X06558Y-16878D01*
X06558Y-17950D01*
X06382Y-17950D01*
X06070Y-18079D01*
X05830Y-18318D01*
X05700Y-18630D01*
X05700Y-18968D01*
X05829Y-19280D01*
X06068Y-19520D01*
X06380Y-19650D01*
X06718Y-19650D01*
X07030Y-19521D01*
X07270Y-19282D01*
X07400Y-18970D01*
X07400Y-25970D01*
X07313Y-25883D01*
X07175Y-25825D01*
X07026Y-25825D01*
X06888Y-25882D01*
X06783Y-25987D01*
X06725Y-26125D01*
X06725Y-26274D01*
X06782Y-26412D01*
X06887Y-26517D01*
X07025Y-26575D01*
X07174Y-26575D01*
X07312Y-26518D01*
X07417Y-26413D01*
X07475Y-26275D01*
X07475Y-32700D01*
X06725Y-32700D01*
X06725Y-28975D01*
X06725Y-28826D01*
X06668Y-28688D01*
X06563Y-28583D01*
X06425Y-28525D01*
X06276Y-28525D01*
X06138Y-28582D01*
X06033Y-28687D01*
X05975Y-28825D01*
X05975Y-28974D01*
X06032Y-29112D01*
X06137Y-29217D01*
X06275Y-29275D01*
X06424Y-29275D01*
X06562Y-29218D01*
X06667Y-29113D01*
X06725Y-28975D01*
X06725Y-32700D01*
X05325Y-32700D01*
X05325Y-05325D01*
X54700Y-05325D01*
X54700Y-43700D01*
G54D10*
G36*
X62325Y-49675D02*
X61950Y-49675D01*
X61950Y-44370D01*
X61950Y-44032D01*
X61950Y-15770D01*
X61950Y-15432D01*
X61821Y-15120D01*
X61700Y-14998D01*
X61700Y-07210D01*
X61700Y-06792D01*
X61540Y-06406D01*
X61245Y-06110D01*
X60860Y-05950D01*
X60442Y-05950D01*
X60056Y-06110D01*
X59760Y-06405D01*
X59600Y-06790D01*
X59600Y-07208D01*
X59760Y-07594D01*
X60055Y-07890D01*
X60440Y-08050D01*
X60858Y-08050D01*
X61244Y-07890D01*
X61540Y-07595D01*
X61700Y-07210D01*
X61700Y-14998D01*
X61582Y-14880D01*
X61270Y-14750D01*
X60932Y-14750D01*
X60620Y-14879D01*
X60380Y-15118D01*
X60250Y-15430D01*
X60250Y-15768D01*
X60379Y-16080D01*
X60618Y-16320D01*
X60930Y-16450D01*
X61268Y-16450D01*
X61580Y-16321D01*
X61820Y-16082D01*
X61950Y-15770D01*
X61950Y-44032D01*
X61949Y-44029D01*
X61949Y-42009D01*
X61949Y-41791D01*
X61865Y-41589D01*
X61711Y-41435D01*
X61626Y-41400D01*
X61711Y-41365D01*
X61865Y-41211D01*
X61949Y-41009D01*
X61949Y-40791D01*
X61865Y-40589D01*
X61711Y-40435D01*
X61626Y-40400D01*
X61711Y-40365D01*
X61865Y-40211D01*
X61949Y-40009D01*
X61949Y-39791D01*
X61865Y-39589D01*
X61711Y-39435D01*
X61626Y-39400D01*
X61711Y-39365D01*
X61865Y-39211D01*
X61949Y-39009D01*
X61949Y-38791D01*
X61865Y-38589D01*
X61711Y-38435D01*
X61626Y-38400D01*
X61711Y-38365D01*
X61865Y-38211D01*
X61949Y-38009D01*
X61949Y-37791D01*
X61865Y-37589D01*
X61711Y-37435D01*
X61626Y-37400D01*
X61711Y-37365D01*
X61865Y-37211D01*
X61949Y-37009D01*
X61949Y-36791D01*
X61865Y-36589D01*
X61711Y-36435D01*
X61626Y-36400D01*
X61711Y-36365D01*
X61865Y-36211D01*
X61949Y-36009D01*
X61949Y-35791D01*
X61865Y-35589D01*
X61711Y-35435D01*
X61626Y-35400D01*
X61711Y-35365D01*
X61865Y-35211D01*
X61949Y-35009D01*
X61949Y-34791D01*
X61865Y-34589D01*
X61711Y-34435D01*
X61626Y-34400D01*
X61711Y-34365D01*
X61865Y-34211D01*
X61949Y-34009D01*
X61949Y-33791D01*
X61865Y-33589D01*
X61711Y-33435D01*
X61626Y-33400D01*
X61711Y-33365D01*
X61865Y-33211D01*
X61949Y-33009D01*
X61949Y-32791D01*
X61865Y-32589D01*
X61711Y-32435D01*
X61626Y-32400D01*
X61711Y-32365D01*
X61865Y-32211D01*
X61949Y-32009D01*
X61949Y-31791D01*
X61865Y-31589D01*
X61711Y-31435D01*
X61626Y-31400D01*
X61711Y-31365D01*
X61865Y-31211D01*
X61949Y-31009D01*
X61949Y-30791D01*
X61865Y-30589D01*
X61711Y-30435D01*
X61626Y-30400D01*
X61711Y-30365D01*
X61865Y-30211D01*
X61949Y-30009D01*
X61949Y-29791D01*
X61865Y-29589D01*
X61711Y-29435D01*
X61626Y-29400D01*
X61711Y-29365D01*
X61865Y-29211D01*
X61949Y-29009D01*
X61949Y-28791D01*
X61865Y-28589D01*
X61711Y-28435D01*
X61626Y-28400D01*
X61711Y-28365D01*
X61865Y-28211D01*
X61949Y-28009D01*
X61949Y-27791D01*
X61865Y-27589D01*
X61711Y-27435D01*
X61626Y-27400D01*
X61711Y-27365D01*
X61865Y-27211D01*
X61949Y-27009D01*
X61949Y-26791D01*
X61865Y-26589D01*
X61711Y-26435D01*
X61626Y-26400D01*
X61711Y-26365D01*
X61865Y-26211D01*
X61949Y-26009D01*
X61949Y-25791D01*
X61865Y-25589D01*
X61711Y-25435D01*
X61626Y-25400D01*
X61711Y-25365D01*
X61865Y-25211D01*
X61949Y-25009D01*
X61949Y-24791D01*
X61865Y-24589D01*
X61711Y-24435D01*
X61626Y-24400D01*
X61711Y-24365D01*
X61865Y-24211D01*
X61949Y-24009D01*
X61949Y-23791D01*
X61865Y-23589D01*
X61711Y-23435D01*
X61626Y-23400D01*
X61711Y-23365D01*
X61865Y-23211D01*
X61949Y-23009D01*
X61949Y-22791D01*
X61865Y-22589D01*
X61711Y-22435D01*
X61626Y-22400D01*
X61711Y-22365D01*
X61865Y-22211D01*
X61949Y-22009D01*
X61949Y-21791D01*
X61865Y-21589D01*
X61711Y-21435D01*
X61626Y-21400D01*
X61711Y-21365D01*
X61865Y-21211D01*
X61949Y-21009D01*
X61949Y-20791D01*
X61865Y-20589D01*
X61711Y-20435D01*
X61626Y-20400D01*
X61711Y-20365D01*
X61865Y-20211D01*
X61949Y-20009D01*
X61949Y-19791D01*
X61865Y-19589D01*
X61711Y-19435D01*
X61626Y-19400D01*
X61711Y-19365D01*
X61865Y-19211D01*
X61949Y-19009D01*
X61949Y-18791D01*
X61865Y-18589D01*
X61711Y-18435D01*
X61626Y-18400D01*
X61711Y-18365D01*
X61865Y-18211D01*
X61949Y-18009D01*
X61949Y-17791D01*
X61865Y-17589D01*
X61711Y-17435D01*
X61509Y-17351D01*
X61291Y-17351D01*
X61089Y-17435D01*
X60949Y-17575D01*
X60949Y-17551D01*
X60911Y-17459D01*
X60841Y-17389D01*
X60750Y-17351D01*
X60651Y-17351D01*
X60051Y-17351D01*
X59959Y-17389D01*
X59889Y-17459D01*
X59851Y-17550D01*
X59851Y-17649D01*
X59851Y-18249D01*
X59889Y-18341D01*
X59959Y-18411D01*
X60050Y-18449D01*
X60075Y-18449D01*
X59935Y-18589D01*
X59851Y-18791D01*
X59851Y-19009D01*
X59935Y-19211D01*
X60089Y-19365D01*
X60173Y-19400D01*
X60089Y-19435D01*
X59935Y-19589D01*
X59851Y-19791D01*
X59851Y-20009D01*
X59935Y-20211D01*
X60089Y-20365D01*
X60173Y-20400D01*
X60089Y-20435D01*
X59935Y-20589D01*
X59851Y-20791D01*
X59851Y-21009D01*
X59935Y-21211D01*
X60089Y-21365D01*
X60173Y-21400D01*
X60089Y-21435D01*
X59935Y-21589D01*
X59851Y-21791D01*
X59851Y-22009D01*
X59935Y-22211D01*
X60089Y-22365D01*
X60173Y-22400D01*
X60089Y-22435D01*
X59935Y-22589D01*
X59851Y-22791D01*
X59851Y-23009D01*
X59935Y-23211D01*
X60089Y-23365D01*
X60173Y-23400D01*
X60089Y-23435D01*
X59935Y-23589D01*
X59851Y-23791D01*
X59851Y-24009D01*
X59935Y-24211D01*
X60089Y-24365D01*
X60173Y-24400D01*
X60089Y-24435D01*
X59935Y-24589D01*
X59851Y-24791D01*
X59851Y-25009D01*
X59935Y-25211D01*
X60089Y-25365D01*
X60173Y-25400D01*
X60089Y-25435D01*
X59935Y-25589D01*
X59851Y-25791D01*
X59851Y-26009D01*
X59935Y-26211D01*
X60089Y-26365D01*
X60173Y-26400D01*
X60089Y-26435D01*
X59935Y-26589D01*
X59851Y-26791D01*
X59851Y-27009D01*
X59935Y-27211D01*
X60089Y-27365D01*
X60173Y-27400D01*
X60089Y-27435D01*
X59935Y-27589D01*
X59851Y-27791D01*
X59851Y-28009D01*
X59935Y-28211D01*
X60089Y-28365D01*
X60173Y-28400D01*
X60089Y-28435D01*
X59935Y-28589D01*
X59851Y-28791D01*
X59851Y-29009D01*
X59935Y-29211D01*
X60089Y-29365D01*
X60173Y-29400D01*
X60089Y-29435D01*
X59935Y-29589D01*
X59851Y-29791D01*
X59851Y-30009D01*
X59935Y-30211D01*
X60089Y-30365D01*
X60173Y-30400D01*
X60089Y-30435D01*
X59935Y-30589D01*
X59851Y-30791D01*
X59851Y-31009D01*
X59935Y-31211D01*
X60089Y-31365D01*
X60173Y-31400D01*
X60089Y-31435D01*
X59935Y-31589D01*
X59851Y-31791D01*
X59851Y-32009D01*
X59935Y-32211D01*
X60089Y-32365D01*
X60173Y-32400D01*
X60089Y-32435D01*
X59935Y-32589D01*
X59851Y-32791D01*
X59851Y-33009D01*
X59935Y-33211D01*
X60089Y-33365D01*
X60173Y-33400D01*
X60089Y-33435D01*
X59935Y-33589D01*
X59851Y-33791D01*
X59851Y-34009D01*
X59935Y-34211D01*
X60089Y-34365D01*
X60173Y-34400D01*
X60089Y-34435D01*
X59935Y-34589D01*
X59851Y-34791D01*
X59851Y-35009D01*
X59935Y-35211D01*
X60089Y-35365D01*
X60173Y-35400D01*
X60089Y-35435D01*
X59935Y-35589D01*
X59851Y-35791D01*
X59851Y-36009D01*
X59935Y-36211D01*
X60089Y-36365D01*
X60173Y-36400D01*
X60089Y-36435D01*
X59935Y-36589D01*
X59851Y-36791D01*
X59851Y-37009D01*
X59935Y-37211D01*
X60089Y-37365D01*
X60173Y-37400D01*
X60089Y-37435D01*
X59935Y-37589D01*
X59851Y-37791D01*
X59851Y-38009D01*
X59935Y-38211D01*
X60089Y-38365D01*
X60173Y-38400D01*
X60089Y-38435D01*
X59935Y-38589D01*
X59851Y-38791D01*
X59851Y-39009D01*
X59935Y-39211D01*
X60089Y-39365D01*
X60173Y-39400D01*
X60089Y-39435D01*
X59935Y-39589D01*
X59851Y-39791D01*
X59851Y-40009D01*
X59935Y-40211D01*
X60089Y-40365D01*
X60173Y-40400D01*
X60089Y-40435D01*
X59935Y-40589D01*
X59851Y-40791D01*
X59851Y-41009D01*
X59935Y-41211D01*
X60089Y-41365D01*
X60173Y-41400D01*
X60089Y-41435D01*
X59935Y-41589D01*
X59851Y-41791D01*
X59851Y-42009D01*
X59935Y-42211D01*
X60089Y-42365D01*
X60291Y-42449D01*
X60509Y-42449D01*
X60711Y-42365D01*
X60865Y-42211D01*
X60900Y-42126D01*
X60935Y-42211D01*
X61089Y-42365D01*
X61291Y-42449D01*
X61509Y-42449D01*
X61711Y-42365D01*
X61865Y-42211D01*
X61949Y-42009D01*
X61949Y-44029D01*
X61821Y-43720D01*
X61582Y-43480D01*
X61270Y-43350D01*
X60932Y-43350D01*
X60620Y-43479D01*
X60380Y-43718D01*
X60250Y-44030D01*
X60250Y-44368D01*
X60379Y-44680D01*
X60618Y-44920D01*
X60930Y-45050D01*
X61268Y-45050D01*
X61580Y-44921D01*
X61820Y-44682D01*
X61950Y-44370D01*
X61950Y-49675D01*
X61700Y-49675D01*
X61700Y-48210D01*
X61700Y-47792D01*
X61540Y-47406D01*
X61245Y-47110D01*
X60860Y-46950D01*
X60442Y-46950D01*
X60056Y-47110D01*
X59760Y-47405D01*
X59600Y-47790D01*
X59600Y-48208D01*
X59760Y-48594D01*
X60055Y-48890D01*
X60440Y-49050D01*
X60858Y-49050D01*
X61244Y-48890D01*
X61540Y-48595D01*
X61700Y-48210D01*
X61700Y-49675D01*
X59050Y-49675D01*
X59050Y-41710D01*
X59050Y-41292D01*
X59050Y-15710D01*
X59050Y-15292D01*
X58890Y-14906D01*
X58595Y-14610D01*
X58210Y-14450D01*
X57792Y-14450D01*
X57406Y-14610D01*
X57110Y-14905D01*
X56950Y-15290D01*
X56950Y-15708D01*
X57110Y-16094D01*
X57405Y-16390D01*
X57790Y-16550D01*
X58208Y-16550D01*
X58594Y-16390D01*
X58890Y-16095D01*
X59050Y-15710D01*
X59050Y-41292D01*
X58890Y-40906D01*
X58595Y-40610D01*
X58210Y-40450D01*
X57792Y-40450D01*
X57406Y-40610D01*
X57110Y-40905D01*
X56950Y-41290D01*
X56950Y-41708D01*
X57110Y-42094D01*
X57405Y-42390D01*
X57790Y-42550D01*
X58208Y-42550D01*
X58594Y-42390D01*
X58890Y-42095D01*
X59050Y-41710D01*
X59050Y-49675D01*
X51575Y-49675D01*
X51575Y-39075D01*
X51575Y-38926D01*
X51575Y-32075D01*
X51575Y-31926D01*
X51575Y-25075D01*
X51575Y-24926D01*
X51575Y-18075D01*
X51575Y-17926D01*
X51518Y-17788D01*
X51413Y-17683D01*
X51275Y-17625D01*
X51126Y-17625D01*
X50988Y-17682D01*
X50883Y-17787D01*
X50825Y-17925D01*
X50825Y-18074D01*
X50882Y-18212D01*
X50987Y-18317D01*
X51125Y-18375D01*
X51274Y-18375D01*
X51412Y-18318D01*
X51517Y-18213D01*
X51575Y-18075D01*
X51575Y-24926D01*
X51518Y-24788D01*
X51413Y-24683D01*
X51275Y-24625D01*
X51126Y-24625D01*
X50988Y-24682D01*
X50883Y-24787D01*
X50825Y-24925D01*
X50825Y-25074D01*
X50882Y-25212D01*
X50987Y-25317D01*
X51125Y-25375D01*
X51274Y-25375D01*
X51412Y-25318D01*
X51517Y-25213D01*
X51575Y-25075D01*
X51575Y-31926D01*
X51518Y-31788D01*
X51413Y-31683D01*
X51275Y-31625D01*
X51126Y-31625D01*
X50988Y-31682D01*
X50883Y-31787D01*
X50825Y-31925D01*
X50825Y-32074D01*
X50882Y-32212D01*
X50987Y-32317D01*
X51125Y-32375D01*
X51274Y-32375D01*
X51412Y-32318D01*
X51517Y-32213D01*
X51575Y-32075D01*
X51575Y-38926D01*
X51518Y-38788D01*
X51413Y-38683D01*
X51275Y-38625D01*
X51126Y-38625D01*
X50988Y-38682D01*
X50883Y-38787D01*
X50825Y-38925D01*
X50825Y-39074D01*
X50882Y-39212D01*
X50987Y-39317D01*
X51125Y-39375D01*
X51274Y-39375D01*
X51412Y-39318D01*
X51517Y-39213D01*
X51575Y-39075D01*
X51575Y-49675D01*
X50725Y-49675D01*
X50725Y-14925D01*
X50725Y-14776D01*
X50668Y-14638D01*
X50563Y-14533D01*
X50425Y-14475D01*
X50276Y-14475D01*
X50138Y-14532D01*
X50033Y-14637D01*
X50025Y-14656D01*
X50025Y-11375D01*
X50025Y-11226D01*
X49968Y-11088D01*
X49863Y-10983D01*
X49725Y-10925D01*
X49576Y-10925D01*
X49438Y-10982D01*
X49333Y-11087D01*
X49275Y-11225D01*
X49275Y-11374D01*
X49332Y-11512D01*
X49437Y-11617D01*
X49575Y-11675D01*
X49724Y-11675D01*
X49862Y-11618D01*
X49967Y-11513D01*
X50025Y-11375D01*
X50025Y-14656D01*
X49975Y-14775D01*
X49975Y-12225D01*
X49975Y-12076D01*
X49918Y-11938D01*
X49813Y-11833D01*
X49675Y-11775D01*
X49526Y-11775D01*
X49388Y-11832D01*
X49283Y-11937D01*
X49225Y-12075D01*
X49225Y-12224D01*
X49282Y-12362D01*
X49387Y-12467D01*
X49525Y-12525D01*
X49674Y-12525D01*
X49812Y-12468D01*
X49917Y-12363D01*
X49975Y-12225D01*
X49975Y-14775D01*
X49975Y-14924D01*
X50032Y-15062D01*
X50137Y-15167D01*
X50275Y-15225D01*
X50424Y-15225D01*
X50562Y-15168D01*
X50667Y-15063D01*
X50725Y-14925D01*
X50725Y-49675D01*
X50225Y-49675D01*
X50225Y-21675D01*
X50225Y-21526D01*
X50168Y-21388D01*
X50075Y-21295D01*
X50075Y-20275D01*
X50075Y-20126D01*
X50018Y-19988D01*
X49975Y-19945D01*
X49975Y-19225D01*
X49975Y-19076D01*
X49975Y-18225D01*
X49975Y-18076D01*
X49925Y-17954D01*
X49925Y-13225D01*
X49925Y-13076D01*
X49868Y-12938D01*
X49763Y-12833D01*
X49625Y-12775D01*
X49476Y-12775D01*
X49338Y-12832D01*
X49233Y-12937D01*
X49175Y-13075D01*
X49175Y-13224D01*
X49232Y-13362D01*
X49337Y-13467D01*
X49475Y-13525D01*
X49624Y-13525D01*
X49762Y-13468D01*
X49867Y-13363D01*
X49925Y-13225D01*
X49925Y-17954D01*
X49918Y-17938D01*
X49813Y-17833D01*
X49675Y-17775D01*
X49526Y-17775D01*
X49388Y-17832D01*
X49283Y-17937D01*
X49225Y-18075D01*
X49225Y-18224D01*
X49282Y-18362D01*
X49387Y-18467D01*
X49525Y-18525D01*
X49674Y-18525D01*
X49812Y-18468D01*
X49917Y-18363D01*
X49975Y-18225D01*
X49975Y-19076D01*
X49918Y-18938D01*
X49813Y-18833D01*
X49675Y-18775D01*
X49526Y-18775D01*
X49388Y-18832D01*
X49283Y-18937D01*
X49225Y-19075D01*
X49225Y-19224D01*
X49282Y-19362D01*
X49387Y-19467D01*
X49525Y-19525D01*
X49674Y-19525D01*
X49812Y-19468D01*
X49917Y-19363D01*
X49975Y-19225D01*
X49975Y-19945D01*
X49913Y-19883D01*
X49775Y-19825D01*
X49626Y-19825D01*
X49488Y-19882D01*
X49383Y-19987D01*
X49325Y-20125D01*
X49325Y-20274D01*
X49382Y-20412D01*
X49487Y-20517D01*
X49625Y-20575D01*
X49774Y-20575D01*
X49912Y-20518D01*
X50017Y-20413D01*
X50075Y-20275D01*
X50075Y-21295D01*
X50063Y-21283D01*
X49925Y-21225D01*
X49776Y-21225D01*
X49638Y-21282D01*
X49533Y-21387D01*
X49475Y-21525D01*
X49475Y-21674D01*
X49532Y-21812D01*
X49637Y-21917D01*
X49775Y-21975D01*
X49924Y-21975D01*
X50062Y-21918D01*
X50167Y-21813D01*
X50225Y-21675D01*
X50225Y-49675D01*
X50075Y-49675D01*
X50075Y-34275D01*
X50075Y-34126D01*
X50025Y-34004D01*
X50025Y-28975D01*
X50025Y-28826D01*
X50025Y-26525D01*
X50025Y-26376D01*
X49975Y-26254D01*
X49975Y-25325D01*
X49975Y-25176D01*
X49918Y-25038D01*
X49813Y-24933D01*
X49675Y-24875D01*
X49526Y-24875D01*
X49388Y-24932D01*
X49283Y-25037D01*
X49225Y-25175D01*
X49225Y-25324D01*
X49282Y-25462D01*
X49387Y-25567D01*
X49525Y-25625D01*
X49674Y-25625D01*
X49812Y-25568D01*
X49917Y-25463D01*
X49975Y-25325D01*
X49975Y-26254D01*
X49968Y-26238D01*
X49863Y-26133D01*
X49725Y-26075D01*
X49576Y-26075D01*
X49438Y-26132D01*
X49333Y-26237D01*
X49275Y-26375D01*
X49275Y-26524D01*
X49332Y-26662D01*
X49437Y-26767D01*
X49490Y-26789D01*
X49388Y-26832D01*
X49283Y-26937D01*
X49225Y-27075D01*
X49225Y-27224D01*
X49282Y-27362D01*
X49387Y-27467D01*
X49525Y-27525D01*
X49674Y-27525D01*
X49812Y-27468D01*
X49917Y-27363D01*
X49975Y-27225D01*
X49975Y-27076D01*
X49918Y-26938D01*
X49813Y-26833D01*
X49759Y-26810D01*
X49862Y-26768D01*
X49967Y-26663D01*
X50025Y-26525D01*
X50025Y-28826D01*
X49968Y-28688D01*
X49863Y-28583D01*
X49725Y-28525D01*
X49576Y-28525D01*
X49438Y-28582D01*
X49333Y-28687D01*
X49275Y-28825D01*
X49275Y-28974D01*
X49332Y-29112D01*
X49437Y-29217D01*
X49575Y-29275D01*
X49724Y-29275D01*
X49862Y-29218D01*
X49967Y-29113D01*
X50025Y-28975D01*
X50025Y-34004D01*
X50018Y-33988D01*
X49975Y-33945D01*
X49975Y-33325D01*
X49975Y-33176D01*
X49975Y-32375D01*
X49975Y-32226D01*
X49918Y-32088D01*
X49813Y-31983D01*
X49675Y-31925D01*
X49526Y-31925D01*
X49388Y-31982D01*
X49283Y-32087D01*
X49225Y-32225D01*
X49225Y-32374D01*
X49282Y-32512D01*
X49387Y-32617D01*
X49525Y-32675D01*
X49674Y-32675D01*
X49812Y-32618D01*
X49917Y-32513D01*
X49975Y-32375D01*
X49975Y-33176D01*
X49918Y-33038D01*
X49813Y-32933D01*
X49675Y-32875D01*
X49526Y-32875D01*
X49388Y-32932D01*
X49283Y-33037D01*
X49225Y-33175D01*
X49225Y-33324D01*
X49282Y-33462D01*
X49387Y-33567D01*
X49525Y-33625D01*
X49674Y-33625D01*
X49812Y-33568D01*
X49917Y-33463D01*
X49975Y-33325D01*
X49975Y-33945D01*
X49913Y-33883D01*
X49775Y-33825D01*
X49626Y-33825D01*
X49488Y-33882D01*
X49383Y-33987D01*
X49325Y-34125D01*
X49325Y-34274D01*
X49382Y-34412D01*
X49487Y-34517D01*
X49625Y-34575D01*
X49774Y-34575D01*
X49912Y-34518D01*
X50017Y-34413D01*
X50075Y-34275D01*
X50075Y-49675D01*
X49975Y-49675D01*
X49975Y-42925D01*
X49975Y-42776D01*
X49975Y-41225D01*
X49975Y-41076D01*
X49975Y-39475D01*
X49975Y-39326D01*
X49975Y-35925D01*
X49975Y-35776D01*
X49918Y-35638D01*
X49813Y-35533D01*
X49675Y-35475D01*
X49526Y-35475D01*
X49388Y-35532D01*
X49283Y-35637D01*
X49225Y-35775D01*
X49225Y-35924D01*
X49282Y-36062D01*
X49387Y-36167D01*
X49525Y-36225D01*
X49674Y-36225D01*
X49812Y-36168D01*
X49917Y-36063D01*
X49975Y-35925D01*
X49975Y-39326D01*
X49918Y-39188D01*
X49813Y-39083D01*
X49675Y-39025D01*
X49526Y-39025D01*
X49388Y-39082D01*
X49283Y-39187D01*
X49225Y-39325D01*
X49225Y-39474D01*
X49282Y-39612D01*
X49387Y-39717D01*
X49525Y-39775D01*
X49476Y-39775D01*
X49338Y-39832D01*
X49233Y-39937D01*
X49175Y-40075D01*
X49175Y-40224D01*
X49232Y-40362D01*
X49337Y-40467D01*
X49475Y-40525D01*
X49624Y-40525D01*
X49762Y-40468D01*
X49867Y-40363D01*
X49925Y-40225D01*
X49925Y-40076D01*
X49868Y-39938D01*
X49763Y-39833D01*
X49625Y-39775D01*
X49674Y-39775D01*
X49812Y-39718D01*
X49917Y-39613D01*
X49975Y-39475D01*
X49975Y-41076D01*
X49918Y-40938D01*
X49813Y-40833D01*
X49675Y-40775D01*
X49526Y-40775D01*
X49388Y-40832D01*
X49283Y-40937D01*
X49225Y-41075D01*
X49225Y-41224D01*
X49282Y-41362D01*
X49387Y-41467D01*
X49525Y-41525D01*
X49674Y-41525D01*
X49812Y-41468D01*
X49917Y-41363D01*
X49975Y-41225D01*
X49975Y-42776D01*
X49918Y-42638D01*
X49813Y-42533D01*
X49675Y-42475D01*
X49526Y-42475D01*
X49388Y-42532D01*
X49283Y-42637D01*
X49225Y-42775D01*
X49225Y-42924D01*
X49282Y-43062D01*
X49387Y-43167D01*
X49525Y-43225D01*
X49674Y-43225D01*
X49812Y-43168D01*
X49917Y-43063D01*
X49975Y-42925D01*
X49975Y-49675D01*
X44625Y-49675D01*
X44625Y-18075D01*
X44625Y-17926D01*
X44568Y-17788D01*
X44463Y-17683D01*
X44325Y-17625D01*
X44176Y-17625D01*
X44038Y-17682D01*
X43933Y-17787D01*
X43875Y-17925D01*
X43875Y-18074D01*
X43932Y-18212D01*
X44037Y-18317D01*
X44175Y-18375D01*
X44324Y-18375D01*
X44462Y-18318D01*
X44567Y-18213D01*
X44625Y-18075D01*
X44625Y-49675D01*
X44575Y-49675D01*
X44575Y-39075D01*
X44575Y-38926D01*
X44575Y-32075D01*
X44575Y-31926D01*
X44575Y-24975D01*
X44575Y-24826D01*
X44518Y-24688D01*
X44413Y-24583D01*
X44275Y-24525D01*
X44126Y-24525D01*
X43988Y-24582D01*
X43883Y-24687D01*
X43825Y-24825D01*
X43825Y-24974D01*
X43882Y-25112D01*
X43987Y-25217D01*
X44125Y-25275D01*
X44274Y-25275D01*
X44412Y-25218D01*
X44517Y-25113D01*
X44575Y-24975D01*
X44575Y-31926D01*
X44518Y-31788D01*
X44413Y-31683D01*
X44275Y-31625D01*
X44126Y-31625D01*
X43988Y-31682D01*
X43883Y-31787D01*
X43825Y-31925D01*
X43825Y-32074D01*
X43882Y-32212D01*
X43987Y-32317D01*
X44125Y-32375D01*
X44274Y-32375D01*
X44412Y-32318D01*
X44517Y-32213D01*
X44575Y-32075D01*
X44575Y-38926D01*
X44518Y-38788D01*
X44413Y-38683D01*
X44275Y-38625D01*
X44126Y-38625D01*
X43988Y-38682D01*
X43883Y-38787D01*
X43825Y-38925D01*
X43825Y-39074D01*
X43882Y-39212D01*
X43987Y-39317D01*
X44125Y-39375D01*
X44274Y-39375D01*
X44412Y-39318D01*
X44517Y-39213D01*
X44575Y-39075D01*
X44575Y-49675D01*
X43375Y-49675D01*
X43375Y-21625D01*
X43375Y-21476D01*
X43318Y-21338D01*
X43225Y-21245D01*
X43225Y-15175D01*
X43225Y-15026D01*
X43168Y-14888D01*
X43075Y-14795D01*
X43075Y-11425D01*
X43075Y-11276D01*
X43018Y-11138D01*
X42913Y-11033D01*
X42775Y-10975D01*
X42626Y-10975D01*
X42488Y-11032D01*
X42383Y-11137D01*
X42325Y-11275D01*
X42325Y-11424D01*
X42382Y-11562D01*
X42487Y-11667D01*
X42625Y-11725D01*
X42774Y-11725D01*
X42912Y-11668D01*
X43017Y-11563D01*
X43075Y-11425D01*
X43075Y-14795D01*
X43063Y-14783D01*
X43025Y-14767D01*
X43025Y-12225D01*
X43025Y-12076D01*
X42968Y-11938D01*
X42863Y-11833D01*
X42725Y-11775D01*
X42576Y-11775D01*
X42438Y-11832D01*
X42333Y-11937D01*
X42275Y-12075D01*
X42275Y-12224D01*
X42332Y-12362D01*
X42437Y-12467D01*
X42575Y-12525D01*
X42724Y-12525D01*
X42862Y-12468D01*
X42967Y-12363D01*
X43025Y-12225D01*
X43025Y-14767D01*
X42975Y-14746D01*
X42975Y-13225D01*
X42975Y-13076D01*
X42918Y-12938D01*
X42813Y-12833D01*
X42675Y-12775D01*
X42526Y-12775D01*
X42388Y-12832D01*
X42283Y-12937D01*
X42225Y-13075D01*
X42225Y-13224D01*
X42282Y-13362D01*
X42387Y-13467D01*
X42525Y-13525D01*
X42674Y-13525D01*
X42812Y-13468D01*
X42917Y-13363D01*
X42975Y-13225D01*
X42975Y-14746D01*
X42925Y-14725D01*
X42776Y-14725D01*
X42638Y-14782D01*
X42533Y-14887D01*
X42475Y-15025D01*
X42475Y-15174D01*
X42532Y-15312D01*
X42637Y-15417D01*
X42775Y-15475D01*
X42924Y-15475D01*
X43062Y-15418D01*
X43167Y-15313D01*
X43225Y-15175D01*
X43225Y-21245D01*
X43213Y-21233D01*
X43075Y-21175D01*
X42975Y-21175D01*
X42975Y-20225D01*
X42975Y-20076D01*
X42925Y-19954D01*
X42925Y-19225D01*
X42925Y-19076D01*
X42925Y-18225D01*
X42925Y-18076D01*
X42868Y-17938D01*
X42763Y-17833D01*
X42625Y-17775D01*
X42476Y-17775D01*
X42338Y-17832D01*
X42233Y-17937D01*
X42175Y-18075D01*
X42175Y-18224D01*
X42232Y-18362D01*
X42337Y-18467D01*
X42475Y-18525D01*
X42624Y-18525D01*
X42762Y-18468D01*
X42867Y-18363D01*
X42925Y-18225D01*
X42925Y-19076D01*
X42868Y-18938D01*
X42763Y-18833D01*
X42625Y-18775D01*
X42476Y-18775D01*
X42338Y-18832D01*
X42233Y-18937D01*
X42175Y-19075D01*
X42175Y-19224D01*
X42232Y-19362D01*
X42337Y-19467D01*
X42475Y-19525D01*
X42624Y-19525D01*
X42762Y-19468D01*
X42867Y-19363D01*
X42925Y-19225D01*
X42925Y-19954D01*
X42918Y-19938D01*
X42813Y-19833D01*
X42675Y-19775D01*
X42526Y-19775D01*
X42388Y-19832D01*
X42283Y-19937D01*
X42225Y-20075D01*
X42225Y-20224D01*
X42282Y-20362D01*
X42387Y-20467D01*
X42525Y-20525D01*
X42674Y-20525D01*
X42812Y-20468D01*
X42917Y-20363D01*
X42975Y-20225D01*
X42975Y-21175D01*
X42926Y-21175D01*
X42788Y-21232D01*
X42683Y-21337D01*
X42625Y-21475D01*
X42625Y-21624D01*
X42682Y-21762D01*
X42787Y-21867D01*
X42925Y-21925D01*
X43074Y-21925D01*
X43212Y-21868D01*
X43317Y-21763D01*
X43375Y-21625D01*
X43375Y-49675D01*
X43025Y-49675D01*
X43025Y-42975D01*
X43025Y-42826D01*
X43025Y-35975D01*
X43025Y-35826D01*
X43025Y-28975D01*
X43025Y-28826D01*
X42975Y-28704D01*
X42975Y-25375D01*
X42975Y-25226D01*
X42918Y-25088D01*
X42813Y-24983D01*
X42675Y-24925D01*
X42526Y-24925D01*
X42388Y-24982D01*
X42283Y-25087D01*
X42225Y-25225D01*
X42225Y-25374D01*
X42282Y-25512D01*
X42387Y-25617D01*
X42525Y-25675D01*
X42674Y-25675D01*
X42812Y-25618D01*
X42917Y-25513D01*
X42975Y-25375D01*
X42975Y-28704D01*
X42968Y-28688D01*
X42925Y-28645D01*
X42925Y-27225D01*
X42925Y-27076D01*
X42925Y-26225D01*
X42925Y-26076D01*
X42868Y-25938D01*
X42763Y-25833D01*
X42625Y-25775D01*
X42476Y-25775D01*
X42338Y-25832D01*
X42233Y-25937D01*
X42175Y-26075D01*
X42175Y-26224D01*
X42232Y-26362D01*
X42337Y-26467D01*
X42475Y-26525D01*
X42624Y-26525D01*
X42762Y-26468D01*
X42867Y-26363D01*
X42925Y-26225D01*
X42925Y-27076D01*
X42868Y-26938D01*
X42763Y-26833D01*
X42625Y-26775D01*
X42476Y-26775D01*
X42338Y-26832D01*
X42233Y-26937D01*
X42175Y-27075D01*
X42175Y-27224D01*
X42232Y-27362D01*
X42337Y-27467D01*
X42475Y-27525D01*
X42624Y-27525D01*
X42762Y-27468D01*
X42867Y-27363D01*
X42925Y-27225D01*
X42925Y-28645D01*
X42863Y-28583D01*
X42725Y-28525D01*
X42576Y-28525D01*
X42438Y-28582D01*
X42333Y-28687D01*
X42275Y-28825D01*
X42275Y-28974D01*
X42332Y-29112D01*
X42437Y-29217D01*
X42575Y-29275D01*
X42724Y-29275D01*
X42862Y-29218D01*
X42967Y-29113D01*
X43025Y-28975D01*
X43025Y-35826D01*
X42975Y-35704D01*
X42975Y-34225D01*
X42975Y-34076D01*
X42975Y-33225D01*
X42975Y-33076D01*
X42975Y-32425D01*
X42975Y-32276D01*
X42918Y-32138D01*
X42813Y-32033D01*
X42675Y-31975D01*
X42526Y-31975D01*
X42388Y-32032D01*
X42283Y-32137D01*
X42225Y-32275D01*
X42225Y-32424D01*
X42282Y-32562D01*
X42387Y-32667D01*
X42525Y-32725D01*
X42674Y-32725D01*
X42812Y-32668D01*
X42917Y-32563D01*
X42975Y-32425D01*
X42975Y-33076D01*
X42918Y-32938D01*
X42813Y-32833D01*
X42675Y-32775D01*
X42526Y-32775D01*
X42388Y-32832D01*
X42283Y-32937D01*
X42225Y-33075D01*
X42225Y-33224D01*
X42282Y-33362D01*
X42387Y-33467D01*
X42525Y-33525D01*
X42674Y-33525D01*
X42812Y-33468D01*
X42917Y-33363D01*
X42975Y-33225D01*
X42975Y-34076D01*
X42918Y-33938D01*
X42813Y-33833D01*
X42675Y-33775D01*
X42526Y-33775D01*
X42388Y-33832D01*
X42283Y-33937D01*
X42225Y-34075D01*
X42225Y-34224D01*
X42282Y-34362D01*
X42387Y-34467D01*
X42525Y-34525D01*
X42674Y-34525D01*
X42812Y-34468D01*
X42917Y-34363D01*
X42975Y-34225D01*
X42975Y-35704D01*
X42968Y-35688D01*
X42863Y-35583D01*
X42725Y-35525D01*
X42576Y-35525D01*
X42438Y-35582D01*
X42333Y-35687D01*
X42275Y-35825D01*
X42275Y-35974D01*
X42332Y-36112D01*
X42437Y-36217D01*
X42575Y-36275D01*
X42724Y-36275D01*
X42862Y-36218D01*
X42967Y-36113D01*
X43025Y-35975D01*
X43025Y-42826D01*
X42975Y-42704D01*
X42975Y-41225D01*
X42975Y-41076D01*
X42975Y-40225D01*
X42975Y-40076D01*
X42918Y-39938D01*
X42813Y-39833D01*
X42675Y-39775D01*
X42674Y-39775D01*
X42812Y-39718D01*
X42917Y-39613D01*
X42975Y-39475D01*
X42975Y-39326D01*
X42918Y-39188D01*
X42813Y-39083D01*
X42675Y-39025D01*
X42526Y-39025D01*
X42388Y-39082D01*
X42283Y-39187D01*
X42225Y-39325D01*
X42225Y-39474D01*
X42282Y-39612D01*
X42387Y-39717D01*
X42525Y-39775D01*
X42388Y-39832D01*
X42283Y-39937D01*
X42225Y-40075D01*
X42225Y-40224D01*
X42282Y-40362D01*
X42387Y-40467D01*
X42525Y-40525D01*
X42674Y-40525D01*
X42812Y-40468D01*
X42917Y-40363D01*
X42975Y-40225D01*
X42975Y-41076D01*
X42918Y-40938D01*
X42813Y-40833D01*
X42675Y-40775D01*
X42526Y-40775D01*
X42388Y-40832D01*
X42283Y-40937D01*
X42225Y-41075D01*
X42225Y-41224D01*
X42282Y-41362D01*
X42387Y-41467D01*
X42525Y-41525D01*
X42674Y-41525D01*
X42812Y-41468D01*
X42917Y-41363D01*
X42975Y-41225D01*
X42975Y-42704D01*
X42968Y-42688D01*
X42863Y-42583D01*
X42725Y-42525D01*
X42576Y-42525D01*
X42438Y-42582D01*
X42333Y-42687D01*
X42275Y-42825D01*
X42275Y-42974D01*
X42332Y-43112D01*
X42437Y-43217D01*
X42575Y-43275D01*
X42724Y-43275D01*
X42862Y-43218D01*
X42967Y-43113D01*
X43025Y-42975D01*
X43025Y-49675D01*
X37575Y-49675D01*
X37575Y-39075D01*
X37575Y-38926D01*
X37575Y-32075D01*
X37575Y-31926D01*
X37575Y-25025D01*
X37575Y-24876D01*
X37575Y-18075D01*
X37575Y-17926D01*
X37518Y-17788D01*
X37413Y-17683D01*
X37275Y-17625D01*
X37126Y-17625D01*
X36988Y-17682D01*
X36883Y-17787D01*
X36825Y-17925D01*
X36825Y-18074D01*
X36882Y-18212D01*
X36987Y-18317D01*
X37125Y-18375D01*
X37274Y-18375D01*
X37412Y-18318D01*
X37517Y-18213D01*
X37575Y-18075D01*
X37575Y-24876D01*
X37518Y-24738D01*
X37413Y-24633D01*
X37275Y-24575D01*
X37126Y-24575D01*
X36988Y-24632D01*
X36883Y-24737D01*
X36825Y-24875D01*
X36825Y-25024D01*
X36882Y-25162D01*
X36987Y-25267D01*
X37125Y-25325D01*
X37274Y-25325D01*
X37412Y-25268D01*
X37517Y-25163D01*
X37575Y-25025D01*
X37575Y-31926D01*
X37518Y-31788D01*
X37413Y-31683D01*
X37275Y-31625D01*
X37126Y-31625D01*
X36988Y-31682D01*
X36883Y-31787D01*
X36825Y-31925D01*
X36825Y-32074D01*
X36882Y-32212D01*
X36987Y-32317D01*
X37125Y-32375D01*
X37274Y-32375D01*
X37412Y-32318D01*
X37517Y-32213D01*
X37575Y-32075D01*
X37575Y-38926D01*
X37518Y-38788D01*
X37413Y-38683D01*
X37275Y-38625D01*
X37126Y-38625D01*
X36988Y-38682D01*
X36883Y-38787D01*
X36825Y-38925D01*
X36825Y-39074D01*
X36882Y-39212D01*
X36987Y-39317D01*
X37125Y-39375D01*
X37274Y-39375D01*
X37412Y-39318D01*
X37517Y-39213D01*
X37575Y-39075D01*
X37575Y-49675D01*
X36375Y-49675D01*
X36375Y-21775D01*
X36375Y-21626D01*
X36325Y-21504D01*
X36325Y-14725D01*
X36325Y-14576D01*
X36268Y-14438D01*
X36163Y-14333D01*
X36025Y-14275D01*
X35975Y-14275D01*
X35975Y-13225D01*
X35975Y-13076D01*
X35975Y-12225D01*
X35975Y-12076D01*
X35918Y-11938D01*
X35813Y-11833D01*
X35675Y-11775D01*
X35526Y-11775D01*
X35388Y-11832D01*
X35283Y-11937D01*
X35225Y-12075D01*
X35225Y-12224D01*
X35282Y-12362D01*
X35387Y-12467D01*
X35525Y-12525D01*
X35674Y-12525D01*
X35812Y-12468D01*
X35917Y-12363D01*
X35975Y-12225D01*
X35975Y-13076D01*
X35918Y-12938D01*
X35813Y-12833D01*
X35675Y-12775D01*
X35526Y-12775D01*
X35388Y-12832D01*
X35283Y-12937D01*
X35225Y-13075D01*
X35225Y-13224D01*
X35282Y-13362D01*
X35387Y-13467D01*
X35525Y-13525D01*
X35674Y-13525D01*
X35812Y-13468D01*
X35917Y-13363D01*
X35975Y-13225D01*
X35975Y-14275D01*
X35876Y-14275D01*
X35738Y-14332D01*
X35633Y-14437D01*
X35575Y-14575D01*
X35575Y-14724D01*
X35632Y-14862D01*
X35737Y-14967D01*
X35875Y-15025D01*
X36024Y-15025D01*
X36162Y-14968D01*
X36267Y-14863D01*
X36325Y-14725D01*
X36325Y-21504D01*
X36318Y-21488D01*
X36213Y-21383D01*
X36075Y-21325D01*
X36025Y-21325D01*
X36025Y-19225D01*
X36025Y-19076D01*
X35975Y-18954D01*
X35975Y-18275D01*
X35975Y-18126D01*
X35918Y-17988D01*
X35813Y-17883D01*
X35675Y-17825D01*
X35526Y-17825D01*
X35388Y-17882D01*
X35283Y-17987D01*
X35225Y-18125D01*
X35225Y-18274D01*
X35282Y-18412D01*
X35387Y-18517D01*
X35525Y-18575D01*
X35674Y-18575D01*
X35812Y-18518D01*
X35917Y-18413D01*
X35975Y-18275D01*
X35975Y-18954D01*
X35968Y-18938D01*
X35863Y-18833D01*
X35725Y-18775D01*
X35576Y-18775D01*
X35438Y-18832D01*
X35333Y-18937D01*
X35275Y-19075D01*
X35275Y-19224D01*
X35332Y-19362D01*
X35437Y-19467D01*
X35575Y-19525D01*
X35724Y-19525D01*
X35862Y-19468D01*
X35967Y-19363D01*
X36025Y-19225D01*
X36025Y-21325D01*
X35975Y-21325D01*
X35975Y-20225D01*
X35975Y-20076D01*
X35918Y-19938D01*
X35813Y-19833D01*
X35675Y-19775D01*
X35526Y-19775D01*
X35388Y-19832D01*
X35283Y-19937D01*
X35225Y-20075D01*
X35225Y-20224D01*
X35282Y-20362D01*
X35387Y-20467D01*
X35525Y-20525D01*
X35674Y-20525D01*
X35812Y-20468D01*
X35917Y-20363D01*
X35975Y-20225D01*
X35975Y-21325D01*
X35926Y-21325D01*
X35788Y-21382D01*
X35683Y-21487D01*
X35625Y-21625D01*
X35625Y-21774D01*
X35682Y-21912D01*
X35787Y-22017D01*
X35925Y-22075D01*
X36074Y-22075D01*
X36212Y-22018D01*
X36317Y-21913D01*
X36375Y-21775D01*
X36375Y-49675D01*
X36325Y-49675D01*
X36325Y-35675D01*
X36325Y-35526D01*
X36325Y-28575D01*
X36325Y-28426D01*
X36268Y-28288D01*
X36163Y-28183D01*
X36025Y-28125D01*
X35975Y-28125D01*
X35975Y-26275D01*
X35975Y-26126D01*
X35925Y-26004D01*
X35925Y-25325D01*
X35925Y-25176D01*
X35868Y-25038D01*
X35763Y-24933D01*
X35625Y-24875D01*
X35476Y-24875D01*
X35338Y-24932D01*
X35233Y-25037D01*
X35175Y-25175D01*
X35175Y-25324D01*
X35232Y-25462D01*
X35337Y-25567D01*
X35475Y-25625D01*
X35624Y-25625D01*
X35762Y-25568D01*
X35867Y-25463D01*
X35925Y-25325D01*
X35925Y-26004D01*
X35918Y-25988D01*
X35813Y-25883D01*
X35675Y-25825D01*
X35526Y-25825D01*
X35388Y-25882D01*
X35283Y-25987D01*
X35225Y-26125D01*
X35225Y-26274D01*
X35282Y-26412D01*
X35387Y-26517D01*
X35525Y-26575D01*
X35674Y-26575D01*
X35812Y-26518D01*
X35917Y-26413D01*
X35975Y-26275D01*
X35975Y-28125D01*
X35925Y-28125D01*
X35925Y-27225D01*
X35925Y-27076D01*
X35868Y-26938D01*
X35763Y-26833D01*
X35625Y-26775D01*
X35476Y-26775D01*
X35338Y-26832D01*
X35233Y-26937D01*
X35175Y-27075D01*
X35175Y-27224D01*
X35232Y-27362D01*
X35337Y-27467D01*
X35475Y-27525D01*
X35624Y-27525D01*
X35762Y-27468D01*
X35867Y-27363D01*
X35925Y-27225D01*
X35925Y-28125D01*
X35876Y-28125D01*
X35738Y-28182D01*
X35633Y-28287D01*
X35575Y-28425D01*
X35575Y-28574D01*
X35632Y-28712D01*
X35737Y-28817D01*
X35875Y-28875D01*
X36024Y-28875D01*
X36162Y-28818D01*
X36267Y-28713D01*
X36325Y-28575D01*
X36325Y-35526D01*
X36268Y-35388D01*
X36163Y-35283D01*
X36025Y-35225D01*
X35975Y-35225D01*
X35975Y-34225D01*
X35975Y-34076D01*
X35975Y-33225D01*
X35975Y-33076D01*
X35975Y-32425D01*
X35975Y-32276D01*
X35918Y-32138D01*
X35813Y-32033D01*
X35675Y-31975D01*
X35526Y-31975D01*
X35388Y-32032D01*
X35283Y-32137D01*
X35225Y-32275D01*
X35225Y-32424D01*
X35282Y-32562D01*
X35387Y-32667D01*
X35525Y-32725D01*
X35674Y-32725D01*
X35812Y-32668D01*
X35917Y-32563D01*
X35975Y-32425D01*
X35975Y-33076D01*
X35918Y-32938D01*
X35813Y-32833D01*
X35675Y-32775D01*
X35526Y-32775D01*
X35388Y-32832D01*
X35283Y-32937D01*
X35225Y-33075D01*
X35225Y-33224D01*
X35282Y-33362D01*
X35387Y-33467D01*
X35525Y-33525D01*
X35674Y-33525D01*
X35812Y-33468D01*
X35917Y-33363D01*
X35975Y-33225D01*
X35975Y-34076D01*
X35918Y-33938D01*
X35813Y-33833D01*
X35675Y-33775D01*
X35526Y-33775D01*
X35388Y-33832D01*
X35283Y-33937D01*
X35225Y-34075D01*
X35225Y-34224D01*
X35282Y-34362D01*
X35387Y-34467D01*
X35525Y-34525D01*
X35674Y-34525D01*
X35812Y-34468D01*
X35917Y-34363D01*
X35975Y-34225D01*
X35975Y-35225D01*
X35876Y-35225D01*
X35738Y-35282D01*
X35633Y-35387D01*
X35575Y-35525D01*
X35575Y-35674D01*
X35632Y-35812D01*
X35737Y-35917D01*
X35875Y-35975D01*
X36024Y-35975D01*
X36162Y-35918D01*
X36267Y-35813D01*
X36325Y-35675D01*
X36325Y-49675D01*
X36225Y-49675D01*
X36225Y-42675D01*
X36225Y-42526D01*
X36168Y-42388D01*
X36063Y-42283D01*
X35975Y-42246D01*
X35975Y-41225D01*
X35975Y-41076D01*
X35975Y-40225D01*
X35975Y-40076D01*
X35975Y-39325D01*
X35975Y-39176D01*
X35918Y-39038D01*
X35813Y-38933D01*
X35675Y-38875D01*
X35526Y-38875D01*
X35388Y-38932D01*
X35283Y-39037D01*
X35225Y-39175D01*
X35225Y-39324D01*
X35282Y-39462D01*
X35387Y-39567D01*
X35525Y-39625D01*
X35674Y-39625D01*
X35812Y-39568D01*
X35917Y-39463D01*
X35975Y-39325D01*
X35975Y-40076D01*
X35918Y-39938D01*
X35813Y-39833D01*
X35675Y-39775D01*
X35526Y-39775D01*
X35388Y-39832D01*
X35283Y-39937D01*
X35225Y-40075D01*
X35225Y-40224D01*
X35282Y-40362D01*
X35387Y-40467D01*
X35525Y-40525D01*
X35674Y-40525D01*
X35812Y-40468D01*
X35917Y-40363D01*
X35975Y-40225D01*
X35975Y-41076D01*
X35918Y-40938D01*
X35813Y-40833D01*
X35675Y-40775D01*
X35526Y-40775D01*
X35388Y-40832D01*
X35283Y-40937D01*
X35225Y-41075D01*
X35225Y-41224D01*
X35282Y-41362D01*
X35387Y-41467D01*
X35525Y-41525D01*
X35674Y-41525D01*
X35812Y-41468D01*
X35917Y-41363D01*
X35975Y-41225D01*
X35975Y-42246D01*
X35925Y-42225D01*
X35776Y-42225D01*
X35638Y-42282D01*
X35533Y-42387D01*
X35475Y-42525D01*
X35475Y-42674D01*
X35532Y-42812D01*
X35637Y-42917D01*
X35775Y-42975D01*
X35924Y-42975D01*
X36062Y-42918D01*
X36167Y-42813D01*
X36225Y-42675D01*
X36225Y-49675D01*
X30575Y-49675D01*
X30575Y-39075D01*
X30575Y-38926D01*
X30575Y-32025D01*
X30575Y-31876D01*
X30575Y-25025D01*
X30575Y-24876D01*
X30575Y-18125D01*
X30575Y-17976D01*
X30518Y-17838D01*
X30413Y-17733D01*
X30275Y-17675D01*
X30126Y-17675D01*
X29988Y-17732D01*
X29883Y-17837D01*
X29825Y-17975D01*
X29825Y-18124D01*
X29882Y-18262D01*
X29987Y-18367D01*
X30125Y-18425D01*
X30274Y-18425D01*
X30412Y-18368D01*
X30517Y-18263D01*
X30575Y-18125D01*
X30575Y-24876D01*
X30518Y-24738D01*
X30413Y-24633D01*
X30275Y-24575D01*
X30126Y-24575D01*
X29988Y-24632D01*
X29883Y-24737D01*
X29825Y-24875D01*
X29825Y-25024D01*
X29882Y-25162D01*
X29987Y-25267D01*
X30125Y-25325D01*
X30274Y-25325D01*
X30412Y-25268D01*
X30517Y-25163D01*
X30575Y-25025D01*
X30575Y-31876D01*
X30518Y-31738D01*
X30413Y-31633D01*
X30275Y-31575D01*
X30126Y-31575D01*
X29988Y-31632D01*
X29883Y-31737D01*
X29825Y-31875D01*
X29825Y-32024D01*
X29882Y-32162D01*
X29987Y-32267D01*
X30125Y-32325D01*
X30274Y-32325D01*
X30412Y-32268D01*
X30517Y-32163D01*
X30575Y-32025D01*
X30575Y-38926D01*
X30518Y-38788D01*
X30413Y-38683D01*
X30275Y-38625D01*
X30126Y-38625D01*
X29988Y-38682D01*
X29883Y-38787D01*
X29825Y-38925D01*
X29825Y-39074D01*
X29882Y-39212D01*
X29987Y-39317D01*
X30125Y-39375D01*
X30274Y-39375D01*
X30412Y-39318D01*
X30517Y-39213D01*
X30575Y-39075D01*
X30575Y-49675D01*
X29275Y-49675D01*
X29275Y-20975D01*
X29275Y-20826D01*
X29218Y-20688D01*
X29113Y-20583D01*
X28975Y-20525D01*
X28975Y-18225D01*
X28975Y-18076D01*
X28975Y-13675D01*
X28975Y-13526D01*
X28918Y-13388D01*
X28813Y-13283D01*
X28675Y-13225D01*
X28526Y-13225D01*
X28388Y-13282D01*
X28283Y-13387D01*
X28225Y-13525D01*
X28225Y-13674D01*
X28282Y-13812D01*
X28387Y-13917D01*
X28525Y-13975D01*
X28674Y-13975D01*
X28812Y-13918D01*
X28917Y-13813D01*
X28975Y-13675D01*
X28975Y-18076D01*
X28918Y-17938D01*
X28813Y-17833D01*
X28675Y-17775D01*
X28526Y-17775D01*
X28388Y-17832D01*
X28283Y-17937D01*
X28225Y-18075D01*
X28225Y-18224D01*
X28282Y-18362D01*
X28387Y-18467D01*
X28525Y-18525D01*
X28674Y-18525D01*
X28812Y-18468D01*
X28917Y-18363D01*
X28975Y-18225D01*
X28975Y-20525D01*
X28826Y-20525D01*
X28688Y-20582D01*
X28583Y-20687D01*
X28525Y-20825D01*
X28525Y-20974D01*
X28582Y-21112D01*
X28687Y-21217D01*
X28825Y-21275D01*
X28974Y-21275D01*
X29112Y-21218D01*
X29217Y-21113D01*
X29275Y-20975D01*
X29275Y-49675D01*
X29025Y-49675D01*
X29025Y-34725D01*
X29025Y-34576D01*
X28975Y-34454D01*
X28975Y-32425D01*
X28975Y-32276D01*
X28975Y-27675D01*
X28975Y-27526D01*
X28975Y-25375D01*
X28975Y-25226D01*
X28918Y-25088D01*
X28813Y-24983D01*
X28675Y-24925D01*
X28526Y-24925D01*
X28388Y-24982D01*
X28283Y-25087D01*
X28225Y-25225D01*
X28225Y-25374D01*
X28282Y-25512D01*
X28387Y-25617D01*
X28525Y-25675D01*
X28674Y-25675D01*
X28812Y-25618D01*
X28917Y-25513D01*
X28975Y-25375D01*
X28975Y-27526D01*
X28918Y-27388D01*
X28813Y-27283D01*
X28675Y-27225D01*
X28526Y-27225D01*
X28388Y-27282D01*
X28283Y-27387D01*
X28225Y-27525D01*
X28225Y-27674D01*
X28282Y-27812D01*
X28387Y-27917D01*
X28525Y-27975D01*
X28674Y-27975D01*
X28812Y-27918D01*
X28917Y-27813D01*
X28975Y-27675D01*
X28975Y-32276D01*
X28918Y-32138D01*
X28813Y-32033D01*
X28675Y-31975D01*
X28526Y-31975D01*
X28388Y-32032D01*
X28283Y-32137D01*
X28225Y-32275D01*
X28225Y-32424D01*
X28282Y-32562D01*
X28387Y-32667D01*
X28525Y-32725D01*
X28674Y-32725D01*
X28812Y-32668D01*
X28917Y-32563D01*
X28975Y-32425D01*
X28975Y-34454D01*
X28968Y-34438D01*
X28863Y-34333D01*
X28725Y-34275D01*
X28576Y-34275D01*
X28438Y-34332D01*
X28333Y-34437D01*
X28275Y-34575D01*
X28275Y-34724D01*
X28332Y-34862D01*
X28437Y-34967D01*
X28575Y-35025D01*
X28724Y-35025D01*
X28862Y-34968D01*
X28967Y-34863D01*
X29025Y-34725D01*
X29025Y-49675D01*
X28975Y-49675D01*
X28975Y-41925D01*
X28975Y-41776D01*
X28975Y-39425D01*
X28975Y-39276D01*
X28918Y-39138D01*
X28813Y-39033D01*
X28675Y-38975D01*
X28526Y-38975D01*
X28388Y-39032D01*
X28283Y-39137D01*
X28225Y-39275D01*
X28225Y-39424D01*
X28282Y-39562D01*
X28387Y-39667D01*
X28525Y-39725D01*
X28674Y-39725D01*
X28812Y-39668D01*
X28917Y-39563D01*
X28975Y-39425D01*
X28975Y-41776D01*
X28918Y-41638D01*
X28813Y-41533D01*
X28675Y-41475D01*
X28526Y-41475D01*
X28388Y-41532D01*
X28283Y-41637D01*
X28225Y-41775D01*
X28225Y-41924D01*
X28282Y-42062D01*
X28387Y-42167D01*
X28525Y-42225D01*
X28674Y-42225D01*
X28812Y-42168D01*
X28917Y-42063D01*
X28975Y-41925D01*
X28975Y-49675D01*
X14050Y-49675D01*
X14050Y-48210D01*
X14050Y-47792D01*
X13890Y-47406D01*
X13595Y-47110D01*
X13210Y-46950D01*
X12792Y-46950D01*
X12406Y-47110D01*
X12110Y-47405D01*
X11950Y-47790D01*
X11950Y-48208D01*
X12110Y-48594D01*
X12405Y-48890D01*
X12790Y-49050D01*
X13208Y-49050D01*
X13594Y-48890D01*
X13890Y-48595D01*
X14050Y-48210D01*
X14050Y-49675D01*
X10543Y-49675D01*
X10543Y-45729D01*
X10532Y-45516D01*
X10472Y-45369D01*
X10378Y-45342D01*
X10071Y-45650D01*
X10378Y-45958D01*
X10472Y-45931D01*
X10543Y-45729D01*
X10543Y-49675D01*
X10308Y-49675D01*
X10308Y-46028D01*
X10000Y-45721D01*
X09929Y-45791D01*
X09929Y-45650D01*
X09622Y-45342D01*
X09528Y-45369D01*
X09457Y-45571D01*
X09468Y-45784D01*
X09528Y-45931D01*
X09622Y-45958D01*
X09929Y-45650D01*
X09929Y-45791D01*
X09692Y-46028D01*
X09719Y-46122D01*
X09921Y-46193D01*
X10134Y-46182D01*
X10281Y-46122D01*
X10308Y-46028D01*
X10308Y-49675D01*
X08939Y-49675D01*
X08939Y-46837D01*
X08939Y-46464D01*
X08939Y-42837D01*
X08939Y-42464D01*
X08939Y-39537D01*
X08939Y-39164D01*
X08939Y-35537D01*
X08939Y-35164D01*
X08796Y-34819D01*
X08532Y-34555D01*
X08187Y-34411D01*
X07814Y-34411D01*
X07469Y-34554D01*
X07205Y-34818D01*
X07061Y-35163D01*
X07061Y-35536D01*
X07204Y-35881D01*
X07468Y-36145D01*
X07813Y-36289D01*
X08186Y-36289D01*
X08531Y-36146D01*
X08795Y-35882D01*
X08939Y-35537D01*
X08939Y-39164D01*
X08796Y-38819D01*
X08532Y-38555D01*
X08187Y-38411D01*
X07814Y-38411D01*
X07469Y-38554D01*
X07205Y-38818D01*
X07061Y-39163D01*
X07061Y-39536D01*
X07204Y-39881D01*
X07468Y-40145D01*
X07813Y-40289D01*
X08186Y-40289D01*
X08531Y-40146D01*
X08795Y-39882D01*
X08939Y-39537D01*
X08939Y-42464D01*
X08796Y-42119D01*
X08532Y-41855D01*
X08187Y-41711D01*
X07814Y-41711D01*
X07469Y-41854D01*
X07205Y-42118D01*
X07061Y-42463D01*
X07061Y-42836D01*
X07204Y-43181D01*
X07468Y-43445D01*
X07813Y-43589D01*
X08186Y-43589D01*
X08531Y-43446D01*
X08795Y-43182D01*
X08939Y-42837D01*
X08939Y-46464D01*
X08796Y-46119D01*
X08532Y-45855D01*
X08187Y-45711D01*
X07814Y-45711D01*
X07469Y-45854D01*
X07205Y-46118D01*
X07061Y-46463D01*
X07061Y-46836D01*
X07204Y-47181D01*
X07468Y-47445D01*
X07813Y-47589D01*
X08186Y-47589D01*
X08531Y-47446D01*
X08795Y-47182D01*
X08939Y-46837D01*
X08939Y-49675D01*
X05325Y-49675D01*
X05325Y-33800D01*
X10450Y-33800D01*
X10450Y-35875D01*
X10426Y-35875D01*
X10325Y-35916D01*
X10325Y-35475D01*
X10325Y-35326D01*
X10268Y-35188D01*
X10163Y-35083D01*
X10025Y-35025D01*
X09975Y-35025D01*
X09975Y-34425D01*
X09975Y-34276D01*
X09918Y-34138D01*
X09813Y-34033D01*
X09675Y-33975D01*
X09526Y-33975D01*
X09388Y-34032D01*
X09283Y-34137D01*
X09225Y-34275D01*
X09225Y-34424D01*
X09282Y-34562D01*
X09387Y-34667D01*
X09525Y-34725D01*
X09674Y-34725D01*
X09812Y-34668D01*
X09917Y-34563D01*
X09975Y-34425D01*
X09975Y-35025D01*
X09876Y-35025D01*
X09738Y-35082D01*
X09633Y-35187D01*
X09575Y-35325D01*
X09575Y-35474D01*
X09632Y-35612D01*
X09737Y-35717D01*
X09875Y-35775D01*
X10024Y-35775D01*
X10162Y-35718D01*
X10267Y-35613D01*
X10325Y-35475D01*
X10325Y-35916D01*
X10288Y-35932D01*
X10183Y-36037D01*
X10125Y-36175D01*
X10125Y-36324D01*
X10182Y-36462D01*
X10245Y-36525D01*
X10233Y-36537D01*
X10175Y-36675D01*
X10175Y-36824D01*
X10177Y-36829D01*
X10109Y-36801D01*
X09891Y-36801D01*
X09689Y-36885D01*
X09535Y-37039D01*
X09451Y-37241D01*
X09451Y-37459D01*
X09535Y-37661D01*
X09689Y-37815D01*
X09780Y-37852D01*
X09719Y-37878D01*
X09692Y-37972D01*
X10000Y-38279D01*
X10308Y-37972D01*
X10281Y-37878D01*
X10215Y-37854D01*
X10311Y-37815D01*
X10450Y-37676D01*
X10450Y-38062D01*
X10378Y-38042D01*
X10071Y-38350D01*
X10378Y-38658D01*
X10450Y-38637D01*
X10450Y-44324D01*
X10311Y-44185D01*
X10308Y-44183D01*
X10308Y-38728D01*
X10000Y-38421D01*
X09929Y-38491D01*
X09929Y-38350D01*
X09622Y-38042D01*
X09528Y-38069D01*
X09457Y-38271D01*
X09468Y-38484D01*
X09528Y-38631D01*
X09622Y-38658D01*
X09929Y-38350D01*
X09929Y-38491D01*
X09692Y-38728D01*
X09719Y-38822D01*
X09921Y-38893D01*
X10134Y-38882D01*
X10281Y-38822D01*
X10308Y-38728D01*
X10308Y-44183D01*
X10109Y-44101D01*
X09891Y-44101D01*
X09689Y-44185D01*
X09535Y-44339D01*
X09451Y-44541D01*
X09451Y-44759D01*
X09535Y-44961D01*
X09689Y-45115D01*
X09780Y-45152D01*
X09719Y-45178D01*
X09692Y-45272D01*
X10000Y-45579D01*
X10308Y-45272D01*
X10281Y-45178D01*
X10215Y-45154D01*
X10311Y-45115D01*
X10465Y-44961D01*
X10531Y-44800D01*
X27800Y-44800D01*
X27800Y-10800D01*
X28415Y-10800D01*
X28338Y-10832D01*
X28233Y-10937D01*
X28175Y-11075D01*
X28175Y-11224D01*
X28232Y-11362D01*
X28337Y-11467D01*
X28475Y-11525D01*
X28624Y-11525D01*
X28762Y-11468D01*
X28867Y-11363D01*
X28925Y-11225D01*
X28925Y-11076D01*
X28868Y-10938D01*
X28763Y-10833D01*
X28684Y-10800D01*
X29877Y-10800D01*
X29825Y-10925D01*
X29825Y-11074D01*
X29882Y-11212D01*
X29987Y-11317D01*
X30125Y-11375D01*
X30274Y-11375D01*
X30412Y-11318D01*
X30517Y-11213D01*
X30575Y-11075D01*
X30575Y-10926D01*
X30522Y-10800D01*
X30950Y-10800D01*
X30950Y-44800D01*
X34800Y-44800D01*
X34800Y-10800D01*
X35370Y-10800D01*
X35333Y-10837D01*
X35275Y-10975D01*
X35275Y-11124D01*
X35332Y-11262D01*
X35437Y-11367D01*
X35575Y-11425D01*
X35724Y-11425D01*
X35862Y-11368D01*
X35967Y-11263D01*
X36025Y-11125D01*
X36025Y-10976D01*
X35968Y-10838D01*
X35930Y-10800D01*
X36806Y-10800D01*
X36775Y-10875D01*
X36775Y-11024D01*
X36832Y-11162D01*
X36937Y-11267D01*
X37075Y-11325D01*
X37224Y-11325D01*
X37362Y-11268D01*
X37467Y-11163D01*
X37525Y-11025D01*
X37525Y-10876D01*
X37493Y-10800D01*
X37950Y-10800D01*
X37950Y-44800D01*
X41800Y-44800D01*
X41800Y-10800D01*
X43785Y-10800D01*
X43775Y-10825D01*
X43775Y-10974D01*
X43832Y-11112D01*
X43937Y-11217D01*
X44075Y-11275D01*
X44224Y-11275D01*
X44362Y-11218D01*
X44467Y-11113D01*
X44525Y-10975D01*
X44525Y-10826D01*
X44514Y-10800D01*
X44950Y-10800D01*
X44950Y-44800D01*
X48800Y-44800D01*
X48800Y-10800D01*
X50785Y-10800D01*
X50775Y-10825D01*
X50775Y-10974D01*
X50832Y-11112D01*
X50937Y-11217D01*
X51075Y-11275D01*
X51224Y-11275D01*
X51362Y-11218D01*
X51467Y-11113D01*
X51525Y-10975D01*
X51525Y-10826D01*
X51514Y-10800D01*
X51950Y-10800D01*
X51950Y-44800D01*
X55800Y-44800D01*
X55800Y-05325D01*
X62325Y-05325D01*
X62325Y-49675D01*
X62325Y-49675D01*
G37*
G54D17*
X62325Y-49675D02*
X61950Y-49675D01*
X61950Y-44370D01*
X61950Y-44032D01*
X61950Y-15770D01*
X61950Y-15432D01*
X61821Y-15120D01*
X61700Y-14998D01*
X61700Y-07210D01*
X61700Y-06792D01*
X61540Y-06406D01*
X61245Y-06110D01*
X60860Y-05950D01*
X60442Y-05950D01*
X60056Y-06110D01*
X59760Y-06405D01*
X59600Y-06790D01*
X59600Y-07208D01*
X59760Y-07594D01*
X60055Y-07890D01*
X60440Y-08050D01*
X60858Y-08050D01*
X61244Y-07890D01*
X61540Y-07595D01*
X61700Y-07210D01*
X61700Y-14998D01*
X61582Y-14880D01*
X61270Y-14750D01*
X60932Y-14750D01*
X60620Y-14879D01*
X60380Y-15118D01*
X60250Y-15430D01*
X60250Y-15768D01*
X60379Y-16080D01*
X60618Y-16320D01*
X60930Y-16450D01*
X61268Y-16450D01*
X61580Y-16321D01*
X61820Y-16082D01*
X61950Y-15770D01*
X61950Y-44032D01*
X61949Y-44029D01*
X61949Y-42009D01*
X61949Y-41791D01*
X61865Y-41589D01*
X61711Y-41435D01*
X61626Y-41400D01*
X61711Y-41365D01*
X61865Y-41211D01*
X61949Y-41009D01*
X61949Y-40791D01*
X61865Y-40589D01*
X61711Y-40435D01*
X61626Y-40400D01*
X61711Y-40365D01*
X61865Y-40211D01*
X61949Y-40009D01*
X61949Y-39791D01*
X61865Y-39589D01*
X61711Y-39435D01*
X61626Y-39400D01*
X61711Y-39365D01*
X61865Y-39211D01*
X61949Y-39009D01*
X61949Y-38791D01*
X61865Y-38589D01*
X61711Y-38435D01*
X61626Y-38400D01*
X61711Y-38365D01*
X61865Y-38211D01*
X61949Y-38009D01*
X61949Y-37791D01*
X61865Y-37589D01*
X61711Y-37435D01*
X61626Y-37400D01*
X61711Y-37365D01*
X61865Y-37211D01*
X61949Y-37009D01*
X61949Y-36791D01*
X61865Y-36589D01*
X61711Y-36435D01*
X61626Y-36400D01*
X61711Y-36365D01*
X61865Y-36211D01*
X61949Y-36009D01*
X61949Y-35791D01*
X61865Y-35589D01*
X61711Y-35435D01*
X61626Y-35400D01*
X61711Y-35365D01*
X61865Y-35211D01*
X61949Y-35009D01*
X61949Y-34791D01*
X61865Y-34589D01*
X61711Y-34435D01*
X61626Y-34400D01*
X61711Y-34365D01*
X61865Y-34211D01*
X61949Y-34009D01*
X61949Y-33791D01*
X61865Y-33589D01*
X61711Y-33435D01*
X61626Y-33400D01*
X61711Y-33365D01*
X61865Y-33211D01*
X61949Y-33009D01*
X61949Y-32791D01*
X61865Y-32589D01*
X61711Y-32435D01*
X61626Y-32400D01*
X61711Y-32365D01*
X61865Y-32211D01*
X61949Y-32009D01*
X61949Y-31791D01*
X61865Y-31589D01*
X61711Y-31435D01*
X61626Y-31400D01*
X61711Y-31365D01*
X61865Y-31211D01*
X61949Y-31009D01*
X61949Y-30791D01*
X61865Y-30589D01*
X61711Y-30435D01*
X61626Y-30400D01*
X61711Y-30365D01*
X61865Y-30211D01*
X61949Y-30009D01*
X61949Y-29791D01*
X61865Y-29589D01*
X61711Y-29435D01*
X61626Y-29400D01*
X61711Y-29365D01*
X61865Y-29211D01*
X61949Y-29009D01*
X61949Y-28791D01*
X61865Y-28589D01*
X61711Y-28435D01*
X61626Y-28400D01*
X61711Y-28365D01*
X61865Y-28211D01*
X61949Y-28009D01*
X61949Y-27791D01*
X61865Y-27589D01*
X61711Y-27435D01*
X61626Y-27400D01*
X61711Y-27365D01*
X61865Y-27211D01*
X61949Y-27009D01*
X61949Y-26791D01*
X61865Y-26589D01*
X61711Y-26435D01*
X61626Y-26400D01*
X61711Y-26365D01*
X61865Y-26211D01*
X61949Y-26009D01*
X61949Y-25791D01*
X61865Y-25589D01*
X61711Y-25435D01*
X61626Y-25400D01*
X61711Y-25365D01*
X61865Y-25211D01*
X61949Y-25009D01*
X61949Y-24791D01*
X61865Y-24589D01*
X61711Y-24435D01*
X61626Y-24400D01*
X61711Y-24365D01*
X61865Y-24211D01*
X61949Y-24009D01*
X61949Y-23791D01*
X61865Y-23589D01*
X61711Y-23435D01*
X61626Y-23400D01*
X61711Y-23365D01*
X61865Y-23211D01*
X61949Y-23009D01*
X61949Y-22791D01*
X61865Y-22589D01*
X61711Y-22435D01*
X61626Y-22400D01*
X61711Y-22365D01*
X61865Y-22211D01*
X61949Y-22009D01*
X61949Y-21791D01*
X61865Y-21589D01*
X61711Y-21435D01*
X61626Y-21400D01*
X61711Y-21365D01*
X61865Y-21211D01*
X61949Y-21009D01*
X61949Y-20791D01*
X61865Y-20589D01*
X61711Y-20435D01*
X61626Y-20400D01*
X61711Y-20365D01*
X61865Y-20211D01*
X61949Y-20009D01*
X61949Y-19791D01*
X61865Y-19589D01*
X61711Y-19435D01*
X61626Y-19400D01*
X61711Y-19365D01*
X61865Y-19211D01*
X61949Y-19009D01*
X61949Y-18791D01*
X61865Y-18589D01*
X61711Y-18435D01*
X61626Y-18400D01*
X61711Y-18365D01*
X61865Y-18211D01*
X61949Y-18009D01*
X61949Y-17791D01*
X61865Y-17589D01*
X61711Y-17435D01*
X61509Y-17351D01*
X61291Y-17351D01*
X61089Y-17435D01*
X60949Y-17575D01*
X60949Y-17551D01*
X60911Y-17459D01*
X60841Y-17389D01*
X60750Y-17351D01*
X60651Y-17351D01*
X60051Y-17351D01*
X59959Y-17389D01*
X59889Y-17459D01*
X59851Y-17550D01*
X59851Y-17649D01*
X59851Y-18249D01*
X59889Y-18341D01*
X59959Y-18411D01*
X60050Y-18449D01*
X60075Y-18449D01*
X59935Y-18589D01*
X59851Y-18791D01*
X59851Y-19009D01*
X59935Y-19211D01*
X60089Y-19365D01*
X60173Y-19400D01*
X60089Y-19435D01*
X59935Y-19589D01*
X59851Y-19791D01*
X59851Y-20009D01*
X59935Y-20211D01*
X60089Y-20365D01*
X60173Y-20400D01*
X60089Y-20435D01*
X59935Y-20589D01*
X59851Y-20791D01*
X59851Y-21009D01*
X59935Y-21211D01*
X60089Y-21365D01*
X60173Y-21400D01*
X60089Y-21435D01*
X59935Y-21589D01*
X59851Y-21791D01*
X59851Y-22009D01*
X59935Y-22211D01*
X60089Y-22365D01*
X60173Y-22400D01*
X60089Y-22435D01*
X59935Y-22589D01*
X59851Y-22791D01*
X59851Y-23009D01*
X59935Y-23211D01*
X60089Y-23365D01*
X60173Y-23400D01*
X60089Y-23435D01*
X59935Y-23589D01*
X59851Y-23791D01*
X59851Y-24009D01*
X59935Y-24211D01*
X60089Y-24365D01*
X60173Y-24400D01*
X60089Y-24435D01*
X59935Y-24589D01*
X59851Y-24791D01*
X59851Y-25009D01*
X59935Y-25211D01*
X60089Y-25365D01*
X60173Y-25400D01*
X60089Y-25435D01*
X59935Y-25589D01*
X59851Y-25791D01*
X59851Y-26009D01*
X59935Y-26211D01*
X60089Y-26365D01*
X60173Y-26400D01*
X60089Y-26435D01*
X59935Y-26589D01*
X59851Y-26791D01*
X59851Y-27009D01*
X59935Y-27211D01*
X60089Y-27365D01*
X60173Y-27400D01*
X60089Y-27435D01*
X59935Y-27589D01*
X59851Y-27791D01*
X59851Y-28009D01*
X59935Y-28211D01*
X60089Y-28365D01*
X60173Y-28400D01*
X60089Y-28435D01*
X59935Y-28589D01*
X59851Y-28791D01*
X59851Y-29009D01*
X59935Y-29211D01*
X60089Y-29365D01*
X60173Y-29400D01*
X60089Y-29435D01*
X59935Y-29589D01*
X59851Y-29791D01*
X59851Y-30009D01*
X59935Y-30211D01*
X60089Y-30365D01*
X60173Y-30400D01*
X60089Y-30435D01*
X59935Y-30589D01*
X59851Y-30791D01*
X59851Y-31009D01*
X59935Y-31211D01*
X60089Y-31365D01*
X60173Y-31400D01*
X60089Y-31435D01*
X59935Y-31589D01*
X59851Y-31791D01*
X59851Y-32009D01*
X59935Y-32211D01*
X60089Y-32365D01*
X60173Y-32400D01*
X60089Y-32435D01*
X59935Y-32589D01*
X59851Y-32791D01*
X59851Y-33009D01*
X59935Y-33211D01*
X60089Y-33365D01*
X60173Y-33400D01*
X60089Y-33435D01*
X59935Y-33589D01*
X59851Y-33791D01*
X59851Y-34009D01*
X59935Y-34211D01*
X60089Y-34365D01*
X60173Y-34400D01*
X60089Y-34435D01*
X59935Y-34589D01*
X59851Y-34791D01*
X59851Y-35009D01*
X59935Y-35211D01*
X60089Y-35365D01*
X60173Y-35400D01*
X60089Y-35435D01*
X59935Y-35589D01*
X59851Y-35791D01*
X59851Y-36009D01*
X59935Y-36211D01*
X60089Y-36365D01*
X60173Y-36400D01*
X60089Y-36435D01*
X59935Y-36589D01*
X59851Y-36791D01*
X59851Y-37009D01*
X59935Y-37211D01*
X60089Y-37365D01*
X60173Y-37400D01*
X60089Y-37435D01*
X59935Y-37589D01*
X59851Y-37791D01*
X59851Y-38009D01*
X59935Y-38211D01*
X60089Y-38365D01*
X60173Y-38400D01*
X60089Y-38435D01*
X59935Y-38589D01*
X59851Y-38791D01*
X59851Y-39009D01*
X59935Y-39211D01*
X60089Y-39365D01*
X60173Y-39400D01*
X60089Y-39435D01*
X59935Y-39589D01*
X59851Y-39791D01*
X59851Y-40009D01*
X59935Y-40211D01*
X60089Y-40365D01*
X60173Y-40400D01*
X60089Y-40435D01*
X59935Y-40589D01*
X59851Y-40791D01*
X59851Y-41009D01*
X59935Y-41211D01*
X60089Y-41365D01*
X60173Y-41400D01*
X60089Y-41435D01*
X59935Y-41589D01*
X59851Y-41791D01*
X59851Y-42009D01*
X59935Y-42211D01*
X60089Y-42365D01*
X60291Y-42449D01*
X60509Y-42449D01*
X60711Y-42365D01*
X60865Y-42211D01*
X60900Y-42126D01*
X60935Y-42211D01*
X61089Y-42365D01*
X61291Y-42449D01*
X61509Y-42449D01*
X61711Y-42365D01*
X61865Y-42211D01*
X61949Y-42009D01*
X61949Y-44029D01*
X61821Y-43720D01*
X61582Y-43480D01*
X61270Y-43350D01*
X60932Y-43350D01*
X60620Y-43479D01*
X60380Y-43718D01*
X60250Y-44030D01*
X60250Y-44368D01*
X60379Y-44680D01*
X60618Y-44920D01*
X60930Y-45050D01*
X61268Y-45050D01*
X61580Y-44921D01*
X61820Y-44682D01*
X61950Y-44370D01*
X61950Y-49675D01*
X61700Y-49675D01*
X61700Y-48210D01*
X61700Y-47792D01*
X61540Y-47406D01*
X61245Y-47110D01*
X60860Y-46950D01*
X60442Y-46950D01*
X60056Y-47110D01*
X59760Y-47405D01*
X59600Y-47790D01*
X59600Y-48208D01*
X59760Y-48594D01*
X60055Y-48890D01*
X60440Y-49050D01*
X60858Y-49050D01*
X61244Y-48890D01*
X61540Y-48595D01*
X61700Y-48210D01*
X61700Y-49675D01*
X59050Y-49675D01*
X59050Y-41710D01*
X59050Y-41292D01*
X59050Y-15710D01*
X59050Y-15292D01*
X58890Y-14906D01*
X58595Y-14610D01*
X58210Y-14450D01*
X57792Y-14450D01*
X57406Y-14610D01*
X57110Y-14905D01*
X56950Y-15290D01*
X56950Y-15708D01*
X57110Y-16094D01*
X57405Y-16390D01*
X57790Y-16550D01*
X58208Y-16550D01*
X58594Y-16390D01*
X58890Y-16095D01*
X59050Y-15710D01*
X59050Y-41292D01*
X58890Y-40906D01*
X58595Y-40610D01*
X58210Y-40450D01*
X57792Y-40450D01*
X57406Y-40610D01*
X57110Y-40905D01*
X56950Y-41290D01*
X56950Y-41708D01*
X57110Y-42094D01*
X57405Y-42390D01*
X57790Y-42550D01*
X58208Y-42550D01*
X58594Y-42390D01*
X58890Y-42095D01*
X59050Y-41710D01*
X59050Y-49675D01*
X51575Y-49675D01*
X51575Y-39075D01*
X51575Y-38926D01*
X51575Y-32075D01*
X51575Y-31926D01*
X51575Y-25075D01*
X51575Y-24926D01*
X51575Y-18075D01*
X51575Y-17926D01*
X51518Y-17788D01*
X51413Y-17683D01*
X51275Y-17625D01*
X51126Y-17625D01*
X50988Y-17682D01*
X50883Y-17787D01*
X50825Y-17925D01*
X50825Y-18074D01*
X50882Y-18212D01*
X50987Y-18317D01*
X51125Y-18375D01*
X51274Y-18375D01*
X51412Y-18318D01*
X51517Y-18213D01*
X51575Y-18075D01*
X51575Y-24926D01*
X51518Y-24788D01*
X51413Y-24683D01*
X51275Y-24625D01*
X51126Y-24625D01*
X50988Y-24682D01*
X50883Y-24787D01*
X50825Y-24925D01*
X50825Y-25074D01*
X50882Y-25212D01*
X50987Y-25317D01*
X51125Y-25375D01*
X51274Y-25375D01*
X51412Y-25318D01*
X51517Y-25213D01*
X51575Y-25075D01*
X51575Y-31926D01*
X51518Y-31788D01*
X51413Y-31683D01*
X51275Y-31625D01*
X51126Y-31625D01*
X50988Y-31682D01*
X50883Y-31787D01*
X50825Y-31925D01*
X50825Y-32074D01*
X50882Y-32212D01*
X50987Y-32317D01*
X51125Y-32375D01*
X51274Y-32375D01*
X51412Y-32318D01*
X51517Y-32213D01*
X51575Y-32075D01*
X51575Y-38926D01*
X51518Y-38788D01*
X51413Y-38683D01*
X51275Y-38625D01*
X51126Y-38625D01*
X50988Y-38682D01*
X50883Y-38787D01*
X50825Y-38925D01*
X50825Y-39074D01*
X50882Y-39212D01*
X50987Y-39317D01*
X51125Y-39375D01*
X51274Y-39375D01*
X51412Y-39318D01*
X51517Y-39213D01*
X51575Y-39075D01*
X51575Y-49675D01*
X50725Y-49675D01*
X50725Y-14925D01*
X50725Y-14776D01*
X50668Y-14638D01*
X50563Y-14533D01*
X50425Y-14475D01*
X50276Y-14475D01*
X50138Y-14532D01*
X50033Y-14637D01*
X50025Y-14656D01*
X50025Y-11375D01*
X50025Y-11226D01*
X49968Y-11088D01*
X49863Y-10983D01*
X49725Y-10925D01*
X49576Y-10925D01*
X49438Y-10982D01*
X49333Y-11087D01*
X49275Y-11225D01*
X49275Y-11374D01*
X49332Y-11512D01*
X49437Y-11617D01*
X49575Y-11675D01*
X49724Y-11675D01*
X49862Y-11618D01*
X49967Y-11513D01*
X50025Y-11375D01*
X50025Y-14656D01*
X49975Y-14775D01*
X49975Y-12225D01*
X49975Y-12076D01*
X49918Y-11938D01*
X49813Y-11833D01*
X49675Y-11775D01*
X49526Y-11775D01*
X49388Y-11832D01*
X49283Y-11937D01*
X49225Y-12075D01*
X49225Y-12224D01*
X49282Y-12362D01*
X49387Y-12467D01*
X49525Y-12525D01*
X49674Y-12525D01*
X49812Y-12468D01*
X49917Y-12363D01*
X49975Y-12225D01*
X49975Y-14775D01*
X49975Y-14924D01*
X50032Y-15062D01*
X50137Y-15167D01*
X50275Y-15225D01*
X50424Y-15225D01*
X50562Y-15168D01*
X50667Y-15063D01*
X50725Y-14925D01*
X50725Y-49675D01*
X50225Y-49675D01*
X50225Y-21675D01*
X50225Y-21526D01*
X50168Y-21388D01*
X50075Y-21295D01*
X50075Y-20275D01*
X50075Y-20126D01*
X50018Y-19988D01*
X49975Y-19945D01*
X49975Y-19225D01*
X49975Y-19076D01*
X49975Y-18225D01*
X49975Y-18076D01*
X49925Y-17954D01*
X49925Y-13225D01*
X49925Y-13076D01*
X49868Y-12938D01*
X49763Y-12833D01*
X49625Y-12775D01*
X49476Y-12775D01*
X49338Y-12832D01*
X49233Y-12937D01*
X49175Y-13075D01*
X49175Y-13224D01*
X49232Y-13362D01*
X49337Y-13467D01*
X49475Y-13525D01*
X49624Y-13525D01*
X49762Y-13468D01*
X49867Y-13363D01*
X49925Y-13225D01*
X49925Y-17954D01*
X49918Y-17938D01*
X49813Y-17833D01*
X49675Y-17775D01*
X49526Y-17775D01*
X49388Y-17832D01*
X49283Y-17937D01*
X49225Y-18075D01*
X49225Y-18224D01*
X49282Y-18362D01*
X49387Y-18467D01*
X49525Y-18525D01*
X49674Y-18525D01*
X49812Y-18468D01*
X49917Y-18363D01*
X49975Y-18225D01*
X49975Y-19076D01*
X49918Y-18938D01*
X49813Y-18833D01*
X49675Y-18775D01*
X49526Y-18775D01*
X49388Y-18832D01*
X49283Y-18937D01*
X49225Y-19075D01*
X49225Y-19224D01*
X49282Y-19362D01*
X49387Y-19467D01*
X49525Y-19525D01*
X49674Y-19525D01*
X49812Y-19468D01*
X49917Y-19363D01*
X49975Y-19225D01*
X49975Y-19945D01*
X49913Y-19883D01*
X49775Y-19825D01*
X49626Y-19825D01*
X49488Y-19882D01*
X49383Y-19987D01*
X49325Y-20125D01*
X49325Y-20274D01*
X49382Y-20412D01*
X49487Y-20517D01*
X49625Y-20575D01*
X49774Y-20575D01*
X49912Y-20518D01*
X50017Y-20413D01*
X50075Y-20275D01*
X50075Y-21295D01*
X50063Y-21283D01*
X49925Y-21225D01*
X49776Y-21225D01*
X49638Y-21282D01*
X49533Y-21387D01*
X49475Y-21525D01*
X49475Y-21674D01*
X49532Y-21812D01*
X49637Y-21917D01*
X49775Y-21975D01*
X49924Y-21975D01*
X50062Y-21918D01*
X50167Y-21813D01*
X50225Y-21675D01*
X50225Y-49675D01*
X50075Y-49675D01*
X50075Y-34275D01*
X50075Y-34126D01*
X50025Y-34004D01*
X50025Y-28975D01*
X50025Y-28826D01*
X50025Y-26525D01*
X50025Y-26376D01*
X49975Y-26254D01*
X49975Y-25325D01*
X49975Y-25176D01*
X49918Y-25038D01*
X49813Y-24933D01*
X49675Y-24875D01*
X49526Y-24875D01*
X49388Y-24932D01*
X49283Y-25037D01*
X49225Y-25175D01*
X49225Y-25324D01*
X49282Y-25462D01*
X49387Y-25567D01*
X49525Y-25625D01*
X49674Y-25625D01*
X49812Y-25568D01*
X49917Y-25463D01*
X49975Y-25325D01*
X49975Y-26254D01*
X49968Y-26238D01*
X49863Y-26133D01*
X49725Y-26075D01*
X49576Y-26075D01*
X49438Y-26132D01*
X49333Y-26237D01*
X49275Y-26375D01*
X49275Y-26524D01*
X49332Y-26662D01*
X49437Y-26767D01*
X49490Y-26789D01*
X49388Y-26832D01*
X49283Y-26937D01*
X49225Y-27075D01*
X49225Y-27224D01*
X49282Y-27362D01*
X49387Y-27467D01*
X49525Y-27525D01*
X49674Y-27525D01*
X49812Y-27468D01*
X49917Y-27363D01*
X49975Y-27225D01*
X49975Y-27076D01*
X49918Y-26938D01*
X49813Y-26833D01*
X49759Y-26810D01*
X49862Y-26768D01*
X49967Y-26663D01*
X50025Y-26525D01*
X50025Y-28826D01*
X49968Y-28688D01*
X49863Y-28583D01*
X49725Y-28525D01*
X49576Y-28525D01*
X49438Y-28582D01*
X49333Y-28687D01*
X49275Y-28825D01*
X49275Y-28974D01*
X49332Y-29112D01*
X49437Y-29217D01*
X49575Y-29275D01*
X49724Y-29275D01*
X49862Y-29218D01*
X49967Y-29113D01*
X50025Y-28975D01*
X50025Y-34004D01*
X50018Y-33988D01*
X49975Y-33945D01*
X49975Y-33325D01*
X49975Y-33176D01*
X49975Y-32375D01*
X49975Y-32226D01*
X49918Y-32088D01*
X49813Y-31983D01*
X49675Y-31925D01*
X49526Y-31925D01*
X49388Y-31982D01*
X49283Y-32087D01*
X49225Y-32225D01*
X49225Y-32374D01*
X49282Y-32512D01*
X49387Y-32617D01*
X49525Y-32675D01*
X49674Y-32675D01*
X49812Y-32618D01*
X49917Y-32513D01*
X49975Y-32375D01*
X49975Y-33176D01*
X49918Y-33038D01*
X49813Y-32933D01*
X49675Y-32875D01*
X49526Y-32875D01*
X49388Y-32932D01*
X49283Y-33037D01*
X49225Y-33175D01*
X49225Y-33324D01*
X49282Y-33462D01*
X49387Y-33567D01*
X49525Y-33625D01*
X49674Y-33625D01*
X49812Y-33568D01*
X49917Y-33463D01*
X49975Y-33325D01*
X49975Y-33945D01*
X49913Y-33883D01*
X49775Y-33825D01*
X49626Y-33825D01*
X49488Y-33882D01*
X49383Y-33987D01*
X49325Y-34125D01*
X49325Y-34274D01*
X49382Y-34412D01*
X49487Y-34517D01*
X49625Y-34575D01*
X49774Y-34575D01*
X49912Y-34518D01*
X50017Y-34413D01*
X50075Y-34275D01*
X50075Y-49675D01*
X49975Y-49675D01*
X49975Y-42925D01*
X49975Y-42776D01*
X49975Y-41225D01*
X49975Y-41076D01*
X49975Y-39475D01*
X49975Y-39326D01*
X49975Y-35925D01*
X49975Y-35776D01*
X49918Y-35638D01*
X49813Y-35533D01*
X49675Y-35475D01*
X49526Y-35475D01*
X49388Y-35532D01*
X49283Y-35637D01*
X49225Y-35775D01*
X49225Y-35924D01*
X49282Y-36062D01*
X49387Y-36167D01*
X49525Y-36225D01*
X49674Y-36225D01*
X49812Y-36168D01*
X49917Y-36063D01*
X49975Y-35925D01*
X49975Y-39326D01*
X49918Y-39188D01*
X49813Y-39083D01*
X49675Y-39025D01*
X49526Y-39025D01*
X49388Y-39082D01*
X49283Y-39187D01*
X49225Y-39325D01*
X49225Y-39474D01*
X49282Y-39612D01*
X49387Y-39717D01*
X49525Y-39775D01*
X49476Y-39775D01*
X49338Y-39832D01*
X49233Y-39937D01*
X49175Y-40075D01*
X49175Y-40224D01*
X49232Y-40362D01*
X49337Y-40467D01*
X49475Y-40525D01*
X49624Y-40525D01*
X49762Y-40468D01*
X49867Y-40363D01*
X49925Y-40225D01*
X49925Y-40076D01*
X49868Y-39938D01*
X49763Y-39833D01*
X49625Y-39775D01*
X49674Y-39775D01*
X49812Y-39718D01*
X49917Y-39613D01*
X49975Y-39475D01*
X49975Y-41076D01*
X49918Y-40938D01*
X49813Y-40833D01*
X49675Y-40775D01*
X49526Y-40775D01*
X49388Y-40832D01*
X49283Y-40937D01*
X49225Y-41075D01*
X49225Y-41224D01*
X49282Y-41362D01*
X49387Y-41467D01*
X49525Y-41525D01*
X49674Y-41525D01*
X49812Y-41468D01*
X49917Y-41363D01*
X49975Y-41225D01*
X49975Y-42776D01*
X49918Y-42638D01*
X49813Y-42533D01*
X49675Y-42475D01*
X49526Y-42475D01*
X49388Y-42532D01*
X49283Y-42637D01*
X49225Y-42775D01*
X49225Y-42924D01*
X49282Y-43062D01*
X49387Y-43167D01*
X49525Y-43225D01*
X49674Y-43225D01*
X49812Y-43168D01*
X49917Y-43063D01*
X49975Y-42925D01*
X49975Y-49675D01*
X44625Y-49675D01*
X44625Y-18075D01*
X44625Y-17926D01*
X44568Y-17788D01*
X44463Y-17683D01*
X44325Y-17625D01*
X44176Y-17625D01*
X44038Y-17682D01*
X43933Y-17787D01*
X43875Y-17925D01*
X43875Y-18074D01*
X43932Y-18212D01*
X44037Y-18317D01*
X44175Y-18375D01*
X44324Y-18375D01*
X44462Y-18318D01*
X44567Y-18213D01*
X44625Y-18075D01*
X44625Y-49675D01*
X44575Y-49675D01*
X44575Y-39075D01*
X44575Y-38926D01*
X44575Y-32075D01*
X44575Y-31926D01*
X44575Y-24975D01*
X44575Y-24826D01*
X44518Y-24688D01*
X44413Y-24583D01*
X44275Y-24525D01*
X44126Y-24525D01*
X43988Y-24582D01*
X43883Y-24687D01*
X43825Y-24825D01*
X43825Y-24974D01*
X43882Y-25112D01*
X43987Y-25217D01*
X44125Y-25275D01*
X44274Y-25275D01*
X44412Y-25218D01*
X44517Y-25113D01*
X44575Y-24975D01*
X44575Y-31926D01*
X44518Y-31788D01*
X44413Y-31683D01*
X44275Y-31625D01*
X44126Y-31625D01*
X43988Y-31682D01*
X43883Y-31787D01*
X43825Y-31925D01*
X43825Y-32074D01*
X43882Y-32212D01*
X43987Y-32317D01*
X44125Y-32375D01*
X44274Y-32375D01*
X44412Y-32318D01*
X44517Y-32213D01*
X44575Y-32075D01*
X44575Y-38926D01*
X44518Y-38788D01*
X44413Y-38683D01*
X44275Y-38625D01*
X44126Y-38625D01*
X43988Y-38682D01*
X43883Y-38787D01*
X43825Y-38925D01*
X43825Y-39074D01*
X43882Y-39212D01*
X43987Y-39317D01*
X44125Y-39375D01*
X44274Y-39375D01*
X44412Y-39318D01*
X44517Y-39213D01*
X44575Y-39075D01*
X44575Y-49675D01*
X43375Y-49675D01*
X43375Y-21625D01*
X43375Y-21476D01*
X43318Y-21338D01*
X43225Y-21245D01*
X43225Y-15175D01*
X43225Y-15026D01*
X43168Y-14888D01*
X43075Y-14795D01*
X43075Y-11425D01*
X43075Y-11276D01*
X43018Y-11138D01*
X42913Y-11033D01*
X42775Y-10975D01*
X42626Y-10975D01*
X42488Y-11032D01*
X42383Y-11137D01*
X42325Y-11275D01*
X42325Y-11424D01*
X42382Y-11562D01*
X42487Y-11667D01*
X42625Y-11725D01*
X42774Y-11725D01*
X42912Y-11668D01*
X43017Y-11563D01*
X43075Y-11425D01*
X43075Y-14795D01*
X43063Y-14783D01*
X43025Y-14767D01*
X43025Y-12225D01*
X43025Y-12076D01*
X42968Y-11938D01*
X42863Y-11833D01*
X42725Y-11775D01*
X42576Y-11775D01*
X42438Y-11832D01*
X42333Y-11937D01*
X42275Y-12075D01*
X42275Y-12224D01*
X42332Y-12362D01*
X42437Y-12467D01*
X42575Y-12525D01*
X42724Y-12525D01*
X42862Y-12468D01*
X42967Y-12363D01*
X43025Y-12225D01*
X43025Y-14767D01*
X42975Y-14746D01*
X42975Y-13225D01*
X42975Y-13076D01*
X42918Y-12938D01*
X42813Y-12833D01*
X42675Y-12775D01*
X42526Y-12775D01*
X42388Y-12832D01*
X42283Y-12937D01*
X42225Y-13075D01*
X42225Y-13224D01*
X42282Y-13362D01*
X42387Y-13467D01*
X42525Y-13525D01*
X42674Y-13525D01*
X42812Y-13468D01*
X42917Y-13363D01*
X42975Y-13225D01*
X42975Y-14746D01*
X42925Y-14725D01*
X42776Y-14725D01*
X42638Y-14782D01*
X42533Y-14887D01*
X42475Y-15025D01*
X42475Y-15174D01*
X42532Y-15312D01*
X42637Y-15417D01*
X42775Y-15475D01*
X42924Y-15475D01*
X43062Y-15418D01*
X43167Y-15313D01*
X43225Y-15175D01*
X43225Y-21245D01*
X43213Y-21233D01*
X43075Y-21175D01*
X42975Y-21175D01*
X42975Y-20225D01*
X42975Y-20076D01*
X42925Y-19954D01*
X42925Y-19225D01*
X42925Y-19076D01*
X42925Y-18225D01*
X42925Y-18076D01*
X42868Y-17938D01*
X42763Y-17833D01*
X42625Y-17775D01*
X42476Y-17775D01*
X42338Y-17832D01*
X42233Y-17937D01*
X42175Y-18075D01*
X42175Y-18224D01*
X42232Y-18362D01*
X42337Y-18467D01*
X42475Y-18525D01*
X42624Y-18525D01*
X42762Y-18468D01*
X42867Y-18363D01*
X42925Y-18225D01*
X42925Y-19076D01*
X42868Y-18938D01*
X42763Y-18833D01*
X42625Y-18775D01*
X42476Y-18775D01*
X42338Y-18832D01*
X42233Y-18937D01*
X42175Y-19075D01*
X42175Y-19224D01*
X42232Y-19362D01*
X42337Y-19467D01*
X42475Y-19525D01*
X42624Y-19525D01*
X42762Y-19468D01*
X42867Y-19363D01*
X42925Y-19225D01*
X42925Y-19954D01*
X42918Y-19938D01*
X42813Y-19833D01*
X42675Y-19775D01*
X42526Y-19775D01*
X42388Y-19832D01*
X42283Y-19937D01*
X42225Y-20075D01*
X42225Y-20224D01*
X42282Y-20362D01*
X42387Y-20467D01*
X42525Y-20525D01*
X42674Y-20525D01*
X42812Y-20468D01*
X42917Y-20363D01*
X42975Y-20225D01*
X42975Y-21175D01*
X42926Y-21175D01*
X42788Y-21232D01*
X42683Y-21337D01*
X42625Y-21475D01*
X42625Y-21624D01*
X42682Y-21762D01*
X42787Y-21867D01*
X42925Y-21925D01*
X43074Y-21925D01*
X43212Y-21868D01*
X43317Y-21763D01*
X43375Y-21625D01*
X43375Y-49675D01*
X43025Y-49675D01*
X43025Y-42975D01*
X43025Y-42826D01*
X43025Y-35975D01*
X43025Y-35826D01*
X43025Y-28975D01*
X43025Y-28826D01*
X42975Y-28704D01*
X42975Y-25375D01*
X42975Y-25226D01*
X42918Y-25088D01*
X42813Y-24983D01*
X42675Y-24925D01*
X42526Y-24925D01*
X42388Y-24982D01*
X42283Y-25087D01*
X42225Y-25225D01*
X42225Y-25374D01*
X42282Y-25512D01*
X42387Y-25617D01*
X42525Y-25675D01*
X42674Y-25675D01*
X42812Y-25618D01*
X42917Y-25513D01*
X42975Y-25375D01*
X42975Y-28704D01*
X42968Y-28688D01*
X42925Y-28645D01*
X42925Y-27225D01*
X42925Y-27076D01*
X42925Y-26225D01*
X42925Y-26076D01*
X42868Y-25938D01*
X42763Y-25833D01*
X42625Y-25775D01*
X42476Y-25775D01*
X42338Y-25832D01*
X42233Y-25937D01*
X42175Y-26075D01*
X42175Y-26224D01*
X42232Y-26362D01*
X42337Y-26467D01*
X42475Y-26525D01*
X42624Y-26525D01*
X42762Y-26468D01*
X42867Y-26363D01*
X42925Y-26225D01*
X42925Y-27076D01*
X42868Y-26938D01*
X42763Y-26833D01*
X42625Y-26775D01*
X42476Y-26775D01*
X42338Y-26832D01*
X42233Y-26937D01*
X42175Y-27075D01*
X42175Y-27224D01*
X42232Y-27362D01*
X42337Y-27467D01*
X42475Y-27525D01*
X42624Y-27525D01*
X42762Y-27468D01*
X42867Y-27363D01*
X42925Y-27225D01*
X42925Y-28645D01*
X42863Y-28583D01*
X42725Y-28525D01*
X42576Y-28525D01*
X42438Y-28582D01*
X42333Y-28687D01*
X42275Y-28825D01*
X42275Y-28974D01*
X42332Y-29112D01*
X42437Y-29217D01*
X42575Y-29275D01*
X42724Y-29275D01*
X42862Y-29218D01*
X42967Y-29113D01*
X43025Y-28975D01*
X43025Y-35826D01*
X42975Y-35704D01*
X42975Y-34225D01*
X42975Y-34076D01*
X42975Y-33225D01*
X42975Y-33076D01*
X42975Y-32425D01*
X42975Y-32276D01*
X42918Y-32138D01*
X42813Y-32033D01*
X42675Y-31975D01*
X42526Y-31975D01*
X42388Y-32032D01*
X42283Y-32137D01*
X42225Y-32275D01*
X42225Y-32424D01*
X42282Y-32562D01*
X42387Y-32667D01*
X42525Y-32725D01*
X42674Y-32725D01*
X42812Y-32668D01*
X42917Y-32563D01*
X42975Y-32425D01*
X42975Y-33076D01*
X42918Y-32938D01*
X42813Y-32833D01*
X42675Y-32775D01*
X42526Y-32775D01*
X42388Y-32832D01*
X42283Y-32937D01*
X42225Y-33075D01*
X42225Y-33224D01*
X42282Y-33362D01*
X42387Y-33467D01*
X42525Y-33525D01*
X42674Y-33525D01*
X42812Y-33468D01*
X42917Y-33363D01*
X42975Y-33225D01*
X42975Y-34076D01*
X42918Y-33938D01*
X42813Y-33833D01*
X42675Y-33775D01*
X42526Y-33775D01*
X42388Y-33832D01*
X42283Y-33937D01*
X42225Y-34075D01*
X42225Y-34224D01*
X42282Y-34362D01*
X42387Y-34467D01*
X42525Y-34525D01*
X42674Y-34525D01*
X42812Y-34468D01*
X42917Y-34363D01*
X42975Y-34225D01*
X42975Y-35704D01*
X42968Y-35688D01*
X42863Y-35583D01*
X42725Y-35525D01*
X42576Y-35525D01*
X42438Y-35582D01*
X42333Y-35687D01*
X42275Y-35825D01*
X42275Y-35974D01*
X42332Y-36112D01*
X42437Y-36217D01*
X42575Y-36275D01*
X42724Y-36275D01*
X42862Y-36218D01*
X42967Y-36113D01*
X43025Y-35975D01*
X43025Y-42826D01*
X42975Y-42704D01*
X42975Y-41225D01*
X42975Y-41076D01*
X42975Y-40225D01*
X42975Y-40076D01*
X42918Y-39938D01*
X42813Y-39833D01*
X42675Y-39775D01*
X42674Y-39775D01*
X42812Y-39718D01*
X42917Y-39613D01*
X42975Y-39475D01*
X42975Y-39326D01*
X42918Y-39188D01*
X42813Y-39083D01*
X42675Y-39025D01*
X42526Y-39025D01*
X42388Y-39082D01*
X42283Y-39187D01*
X42225Y-39325D01*
X42225Y-39474D01*
X42282Y-39612D01*
X42387Y-39717D01*
X42525Y-39775D01*
X42388Y-39832D01*
X42283Y-39937D01*
X42225Y-40075D01*
X42225Y-40224D01*
X42282Y-40362D01*
X42387Y-40467D01*
X42525Y-40525D01*
X42674Y-40525D01*
X42812Y-40468D01*
X42917Y-40363D01*
X42975Y-40225D01*
X42975Y-41076D01*
X42918Y-40938D01*
X42813Y-40833D01*
X42675Y-40775D01*
X42526Y-40775D01*
X42388Y-40832D01*
X42283Y-40937D01*
X42225Y-41075D01*
X42225Y-41224D01*
X42282Y-41362D01*
X42387Y-41467D01*
X42525Y-41525D01*
X42674Y-41525D01*
X42812Y-41468D01*
X42917Y-41363D01*
X42975Y-41225D01*
X42975Y-42704D01*
X42968Y-42688D01*
X42863Y-42583D01*
X42725Y-42525D01*
X42576Y-42525D01*
X42438Y-42582D01*
X42333Y-42687D01*
X42275Y-42825D01*
X42275Y-42974D01*
X42332Y-43112D01*
X42437Y-43217D01*
X42575Y-43275D01*
X42724Y-43275D01*
X42862Y-43218D01*
X42967Y-43113D01*
X43025Y-42975D01*
X43025Y-49675D01*
X37575Y-49675D01*
X37575Y-39075D01*
X37575Y-38926D01*
X37575Y-32075D01*
X37575Y-31926D01*
X37575Y-25025D01*
X37575Y-24876D01*
X37575Y-18075D01*
X37575Y-17926D01*
X37518Y-17788D01*
X37413Y-17683D01*
X37275Y-17625D01*
X37126Y-17625D01*
X36988Y-17682D01*
X36883Y-17787D01*
X36825Y-17925D01*
X36825Y-18074D01*
X36882Y-18212D01*
X36987Y-18317D01*
X37125Y-18375D01*
X37274Y-18375D01*
X37412Y-18318D01*
X37517Y-18213D01*
X37575Y-18075D01*
X37575Y-24876D01*
X37518Y-24738D01*
X37413Y-24633D01*
X37275Y-24575D01*
X37126Y-24575D01*
X36988Y-24632D01*
X36883Y-24737D01*
X36825Y-24875D01*
X36825Y-25024D01*
X36882Y-25162D01*
X36987Y-25267D01*
X37125Y-25325D01*
X37274Y-25325D01*
X37412Y-25268D01*
X37517Y-25163D01*
X37575Y-25025D01*
X37575Y-31926D01*
X37518Y-31788D01*
X37413Y-31683D01*
X37275Y-31625D01*
X37126Y-31625D01*
X36988Y-31682D01*
X36883Y-31787D01*
X36825Y-31925D01*
X36825Y-32074D01*
X36882Y-32212D01*
X36987Y-32317D01*
X37125Y-32375D01*
X37274Y-32375D01*
X37412Y-32318D01*
X37517Y-32213D01*
X37575Y-32075D01*
X37575Y-38926D01*
X37518Y-38788D01*
X37413Y-38683D01*
X37275Y-38625D01*
X37126Y-38625D01*
X36988Y-38682D01*
X36883Y-38787D01*
X36825Y-38925D01*
X36825Y-39074D01*
X36882Y-39212D01*
X36987Y-39317D01*
X37125Y-39375D01*
X37274Y-39375D01*
X37412Y-39318D01*
X37517Y-39213D01*
X37575Y-39075D01*
X37575Y-49675D01*
X36375Y-49675D01*
X36375Y-21775D01*
X36375Y-21626D01*
X36325Y-21504D01*
X36325Y-14725D01*
X36325Y-14576D01*
X36268Y-14438D01*
X36163Y-14333D01*
X36025Y-14275D01*
X35975Y-14275D01*
X35975Y-13225D01*
X35975Y-13076D01*
X35975Y-12225D01*
X35975Y-12076D01*
X35918Y-11938D01*
X35813Y-11833D01*
X35675Y-11775D01*
X35526Y-11775D01*
X35388Y-11832D01*
X35283Y-11937D01*
X35225Y-12075D01*
X35225Y-12224D01*
X35282Y-12362D01*
X35387Y-12467D01*
X35525Y-12525D01*
X35674Y-12525D01*
X35812Y-12468D01*
X35917Y-12363D01*
X35975Y-12225D01*
X35975Y-13076D01*
X35918Y-12938D01*
X35813Y-12833D01*
X35675Y-12775D01*
X35526Y-12775D01*
X35388Y-12832D01*
X35283Y-12937D01*
X35225Y-13075D01*
X35225Y-13224D01*
X35282Y-13362D01*
X35387Y-13467D01*
X35525Y-13525D01*
X35674Y-13525D01*
X35812Y-13468D01*
X35917Y-13363D01*
X35975Y-13225D01*
X35975Y-14275D01*
X35876Y-14275D01*
X35738Y-14332D01*
X35633Y-14437D01*
X35575Y-14575D01*
X35575Y-14724D01*
X35632Y-14862D01*
X35737Y-14967D01*
X35875Y-15025D01*
X36024Y-15025D01*
X36162Y-14968D01*
X36267Y-14863D01*
X36325Y-14725D01*
X36325Y-21504D01*
X36318Y-21488D01*
X36213Y-21383D01*
X36075Y-21325D01*
X36025Y-21325D01*
X36025Y-19225D01*
X36025Y-19076D01*
X35975Y-18954D01*
X35975Y-18275D01*
X35975Y-18126D01*
X35918Y-17988D01*
X35813Y-17883D01*
X35675Y-17825D01*
X35526Y-17825D01*
X35388Y-17882D01*
X35283Y-17987D01*
X35225Y-18125D01*
X35225Y-18274D01*
X35282Y-18412D01*
X35387Y-18517D01*
X35525Y-18575D01*
X35674Y-18575D01*
X35812Y-18518D01*
X35917Y-18413D01*
X35975Y-18275D01*
X35975Y-18954D01*
X35968Y-18938D01*
X35863Y-18833D01*
X35725Y-18775D01*
X35576Y-18775D01*
X35438Y-18832D01*
X35333Y-18937D01*
X35275Y-19075D01*
X35275Y-19224D01*
X35332Y-19362D01*
X35437Y-19467D01*
X35575Y-19525D01*
X35724Y-19525D01*
X35862Y-19468D01*
X35967Y-19363D01*
X36025Y-19225D01*
X36025Y-21325D01*
X35975Y-21325D01*
X35975Y-20225D01*
X35975Y-20076D01*
X35918Y-19938D01*
X35813Y-19833D01*
X35675Y-19775D01*
X35526Y-19775D01*
X35388Y-19832D01*
X35283Y-19937D01*
X35225Y-20075D01*
X35225Y-20224D01*
X35282Y-20362D01*
X35387Y-20467D01*
X35525Y-20525D01*
X35674Y-20525D01*
X35812Y-20468D01*
X35917Y-20363D01*
X35975Y-20225D01*
X35975Y-21325D01*
X35926Y-21325D01*
X35788Y-21382D01*
X35683Y-21487D01*
X35625Y-21625D01*
X35625Y-21774D01*
X35682Y-21912D01*
X35787Y-22017D01*
X35925Y-22075D01*
X36074Y-22075D01*
X36212Y-22018D01*
X36317Y-21913D01*
X36375Y-21775D01*
X36375Y-49675D01*
X36325Y-49675D01*
X36325Y-35675D01*
X36325Y-35526D01*
X36325Y-28575D01*
X36325Y-28426D01*
X36268Y-28288D01*
X36163Y-28183D01*
X36025Y-28125D01*
X35975Y-28125D01*
X35975Y-26275D01*
X35975Y-26126D01*
X35925Y-26004D01*
X35925Y-25325D01*
X35925Y-25176D01*
X35868Y-25038D01*
X35763Y-24933D01*
X35625Y-24875D01*
X35476Y-24875D01*
X35338Y-24932D01*
X35233Y-25037D01*
X35175Y-25175D01*
X35175Y-25324D01*
X35232Y-25462D01*
X35337Y-25567D01*
X35475Y-25625D01*
X35624Y-25625D01*
X35762Y-25568D01*
X35867Y-25463D01*
X35925Y-25325D01*
X35925Y-26004D01*
X35918Y-25988D01*
X35813Y-25883D01*
X35675Y-25825D01*
X35526Y-25825D01*
X35388Y-25882D01*
X35283Y-25987D01*
X35225Y-26125D01*
X35225Y-26274D01*
X35282Y-26412D01*
X35387Y-26517D01*
X35525Y-26575D01*
X35674Y-26575D01*
X35812Y-26518D01*
X35917Y-26413D01*
X35975Y-26275D01*
X35975Y-28125D01*
X35925Y-28125D01*
X35925Y-27225D01*
X35925Y-27076D01*
X35868Y-26938D01*
X35763Y-26833D01*
X35625Y-26775D01*
X35476Y-26775D01*
X35338Y-26832D01*
X35233Y-26937D01*
X35175Y-27075D01*
X35175Y-27224D01*
X35232Y-27362D01*
X35337Y-27467D01*
X35475Y-27525D01*
X35624Y-27525D01*
X35762Y-27468D01*
X35867Y-27363D01*
X35925Y-27225D01*
X35925Y-28125D01*
X35876Y-28125D01*
X35738Y-28182D01*
X35633Y-28287D01*
X35575Y-28425D01*
X35575Y-28574D01*
X35632Y-28712D01*
X35737Y-28817D01*
X35875Y-28875D01*
X36024Y-28875D01*
X36162Y-28818D01*
X36267Y-28713D01*
X36325Y-28575D01*
X36325Y-35526D01*
X36268Y-35388D01*
X36163Y-35283D01*
X36025Y-35225D01*
X35975Y-35225D01*
X35975Y-34225D01*
X35975Y-34076D01*
X35975Y-33225D01*
X35975Y-33076D01*
X35975Y-32425D01*
X35975Y-32276D01*
X35918Y-32138D01*
X35813Y-32033D01*
X35675Y-31975D01*
X35526Y-31975D01*
X35388Y-32032D01*
X35283Y-32137D01*
X35225Y-32275D01*
X35225Y-32424D01*
X35282Y-32562D01*
X35387Y-32667D01*
X35525Y-32725D01*
X35674Y-32725D01*
X35812Y-32668D01*
X35917Y-32563D01*
X35975Y-32425D01*
X35975Y-33076D01*
X35918Y-32938D01*
X35813Y-32833D01*
X35675Y-32775D01*
X35526Y-32775D01*
X35388Y-32832D01*
X35283Y-32937D01*
X35225Y-33075D01*
X35225Y-33224D01*
X35282Y-33362D01*
X35387Y-33467D01*
X35525Y-33525D01*
X35674Y-33525D01*
X35812Y-33468D01*
X35917Y-33363D01*
X35975Y-33225D01*
X35975Y-34076D01*
X35918Y-33938D01*
X35813Y-33833D01*
X35675Y-33775D01*
X35526Y-33775D01*
X35388Y-33832D01*
X35283Y-33937D01*
X35225Y-34075D01*
X35225Y-34224D01*
X35282Y-34362D01*
X35387Y-34467D01*
X35525Y-34525D01*
X35674Y-34525D01*
X35812Y-34468D01*
X35917Y-34363D01*
X35975Y-34225D01*
X35975Y-35225D01*
X35876Y-35225D01*
X35738Y-35282D01*
X35633Y-35387D01*
X35575Y-35525D01*
X35575Y-35674D01*
X35632Y-35812D01*
X35737Y-35917D01*
X35875Y-35975D01*
X36024Y-35975D01*
X36162Y-35918D01*
X36267Y-35813D01*
X36325Y-35675D01*
X36325Y-49675D01*
X36225Y-49675D01*
X36225Y-42675D01*
X36225Y-42526D01*
X36168Y-42388D01*
X36063Y-42283D01*
X35975Y-42246D01*
X35975Y-41225D01*
X35975Y-41076D01*
X35975Y-40225D01*
X35975Y-40076D01*
X35975Y-39325D01*
X35975Y-39176D01*
X35918Y-39038D01*
X35813Y-38933D01*
X35675Y-38875D01*
X35526Y-38875D01*
X35388Y-38932D01*
X35283Y-39037D01*
X35225Y-39175D01*
X35225Y-39324D01*
X35282Y-39462D01*
X35387Y-39567D01*
X35525Y-39625D01*
X35674Y-39625D01*
X35812Y-39568D01*
X35917Y-39463D01*
X35975Y-39325D01*
X35975Y-40076D01*
X35918Y-39938D01*
X35813Y-39833D01*
X35675Y-39775D01*
X35526Y-39775D01*
X35388Y-39832D01*
X35283Y-39937D01*
X35225Y-40075D01*
X35225Y-40224D01*
X35282Y-40362D01*
X35387Y-40467D01*
X35525Y-40525D01*
X35674Y-40525D01*
X35812Y-40468D01*
X35917Y-40363D01*
X35975Y-40225D01*
X35975Y-41076D01*
X35918Y-40938D01*
X35813Y-40833D01*
X35675Y-40775D01*
X35526Y-40775D01*
X35388Y-40832D01*
X35283Y-40937D01*
X35225Y-41075D01*
X35225Y-41224D01*
X35282Y-41362D01*
X35387Y-41467D01*
X35525Y-41525D01*
X35674Y-41525D01*
X35812Y-41468D01*
X35917Y-41363D01*
X35975Y-41225D01*
X35975Y-42246D01*
X35925Y-42225D01*
X35776Y-42225D01*
X35638Y-42282D01*
X35533Y-42387D01*
X35475Y-42525D01*
X35475Y-42674D01*
X35532Y-42812D01*
X35637Y-42917D01*
X35775Y-42975D01*
X35924Y-42975D01*
X36062Y-42918D01*
X36167Y-42813D01*
X36225Y-42675D01*
X36225Y-49675D01*
X30575Y-49675D01*
X30575Y-39075D01*
X30575Y-38926D01*
X30575Y-32025D01*
X30575Y-31876D01*
X30575Y-25025D01*
X30575Y-24876D01*
X30575Y-18125D01*
X30575Y-17976D01*
X30518Y-17838D01*
X30413Y-17733D01*
X30275Y-17675D01*
X30126Y-17675D01*
X29988Y-17732D01*
X29883Y-17837D01*
X29825Y-17975D01*
X29825Y-18124D01*
X29882Y-18262D01*
X29987Y-18367D01*
X30125Y-18425D01*
X30274Y-18425D01*
X30412Y-18368D01*
X30517Y-18263D01*
X30575Y-18125D01*
X30575Y-24876D01*
X30518Y-24738D01*
X30413Y-24633D01*
X30275Y-24575D01*
X30126Y-24575D01*
X29988Y-24632D01*
X29883Y-24737D01*
X29825Y-24875D01*
X29825Y-25024D01*
X29882Y-25162D01*
X29987Y-25267D01*
X30125Y-25325D01*
X30274Y-25325D01*
X30412Y-25268D01*
X30517Y-25163D01*
X30575Y-25025D01*
X30575Y-31876D01*
X30518Y-31738D01*
X30413Y-31633D01*
X30275Y-31575D01*
X30126Y-31575D01*
X29988Y-31632D01*
X29883Y-31737D01*
X29825Y-31875D01*
X29825Y-32024D01*
X29882Y-32162D01*
X29987Y-32267D01*
X30125Y-32325D01*
X30274Y-32325D01*
X30412Y-32268D01*
X30517Y-32163D01*
X30575Y-32025D01*
X30575Y-38926D01*
X30518Y-38788D01*
X30413Y-38683D01*
X30275Y-38625D01*
X30126Y-38625D01*
X29988Y-38682D01*
X29883Y-38787D01*
X29825Y-38925D01*
X29825Y-39074D01*
X29882Y-39212D01*
X29987Y-39317D01*
X30125Y-39375D01*
X30274Y-39375D01*
X30412Y-39318D01*
X30517Y-39213D01*
X30575Y-39075D01*
X30575Y-49675D01*
X29275Y-49675D01*
X29275Y-20975D01*
X29275Y-20826D01*
X29218Y-20688D01*
X29113Y-20583D01*
X28975Y-20525D01*
X28975Y-18225D01*
X28975Y-18076D01*
X28975Y-13675D01*
X28975Y-13526D01*
X28918Y-13388D01*
X28813Y-13283D01*
X28675Y-13225D01*
X28526Y-13225D01*
X28388Y-13282D01*
X28283Y-13387D01*
X28225Y-13525D01*
X28225Y-13674D01*
X28282Y-13812D01*
X28387Y-13917D01*
X28525Y-13975D01*
X28674Y-13975D01*
X28812Y-13918D01*
X28917Y-13813D01*
X28975Y-13675D01*
X28975Y-18076D01*
X28918Y-17938D01*
X28813Y-17833D01*
X28675Y-17775D01*
X28526Y-17775D01*
X28388Y-17832D01*
X28283Y-17937D01*
X28225Y-18075D01*
X28225Y-18224D01*
X28282Y-18362D01*
X28387Y-18467D01*
X28525Y-18525D01*
X28674Y-18525D01*
X28812Y-18468D01*
X28917Y-18363D01*
X28975Y-18225D01*
X28975Y-20525D01*
X28826Y-20525D01*
X28688Y-20582D01*
X28583Y-20687D01*
X28525Y-20825D01*
X28525Y-20974D01*
X28582Y-21112D01*
X28687Y-21217D01*
X28825Y-21275D01*
X28974Y-21275D01*
X29112Y-21218D01*
X29217Y-21113D01*
X29275Y-20975D01*
X29275Y-49675D01*
X29025Y-49675D01*
X29025Y-34725D01*
X29025Y-34576D01*
X28975Y-34454D01*
X28975Y-32425D01*
X28975Y-32276D01*
X28975Y-27675D01*
X28975Y-27526D01*
X28975Y-25375D01*
X28975Y-25226D01*
X28918Y-25088D01*
X28813Y-24983D01*
X28675Y-24925D01*
X28526Y-24925D01*
X28388Y-24982D01*
X28283Y-25087D01*
X28225Y-25225D01*
X28225Y-25374D01*
X28282Y-25512D01*
X28387Y-25617D01*
X28525Y-25675D01*
X28674Y-25675D01*
X28812Y-25618D01*
X28917Y-25513D01*
X28975Y-25375D01*
X28975Y-27526D01*
X28918Y-27388D01*
X28813Y-27283D01*
X28675Y-27225D01*
X28526Y-27225D01*
X28388Y-27282D01*
X28283Y-27387D01*
X28225Y-27525D01*
X28225Y-27674D01*
X28282Y-27812D01*
X28387Y-27917D01*
X28525Y-27975D01*
X28674Y-27975D01*
X28812Y-27918D01*
X28917Y-27813D01*
X28975Y-27675D01*
X28975Y-32276D01*
X28918Y-32138D01*
X28813Y-32033D01*
X28675Y-31975D01*
X28526Y-31975D01*
X28388Y-32032D01*
X28283Y-32137D01*
X28225Y-32275D01*
X28225Y-32424D01*
X28282Y-32562D01*
X28387Y-32667D01*
X28525Y-32725D01*
X28674Y-32725D01*
X28812Y-32668D01*
X28917Y-32563D01*
X28975Y-32425D01*
X28975Y-34454D01*
X28968Y-34438D01*
X28863Y-34333D01*
X28725Y-34275D01*
X28576Y-34275D01*
X28438Y-34332D01*
X28333Y-34437D01*
X28275Y-34575D01*
X28275Y-34724D01*
X28332Y-34862D01*
X28437Y-34967D01*
X28575Y-35025D01*
X28724Y-35025D01*
X28862Y-34968D01*
X28967Y-34863D01*
X29025Y-34725D01*
X29025Y-49675D01*
X28975Y-49675D01*
X28975Y-41925D01*
X28975Y-41776D01*
X28975Y-39425D01*
X28975Y-39276D01*
X28918Y-39138D01*
X28813Y-39033D01*
X28675Y-38975D01*
X28526Y-38975D01*
X28388Y-39032D01*
X28283Y-39137D01*
X28225Y-39275D01*
X28225Y-39424D01*
X28282Y-39562D01*
X28387Y-39667D01*
X28525Y-39725D01*
X28674Y-39725D01*
X28812Y-39668D01*
X28917Y-39563D01*
X28975Y-39425D01*
X28975Y-41776D01*
X28918Y-41638D01*
X28813Y-41533D01*
X28675Y-41475D01*
X28526Y-41475D01*
X28388Y-41532D01*
X28283Y-41637D01*
X28225Y-41775D01*
X28225Y-41924D01*
X28282Y-42062D01*
X28387Y-42167D01*
X28525Y-42225D01*
X28674Y-42225D01*
X28812Y-42168D01*
X28917Y-42063D01*
X28975Y-41925D01*
X28975Y-49675D01*
X14050Y-49675D01*
X14050Y-48210D01*
X14050Y-47792D01*
X13890Y-47406D01*
X13595Y-47110D01*
X13210Y-46950D01*
X12792Y-46950D01*
X12406Y-47110D01*
X12110Y-47405D01*
X11950Y-47790D01*
X11950Y-48208D01*
X12110Y-48594D01*
X12405Y-48890D01*
X12790Y-49050D01*
X13208Y-49050D01*
X13594Y-48890D01*
X13890Y-48595D01*
X14050Y-48210D01*
X14050Y-49675D01*
X10543Y-49675D01*
X10543Y-45729D01*
X10532Y-45516D01*
X10472Y-45369D01*
X10378Y-45342D01*
X10071Y-45650D01*
X10378Y-45958D01*
X10472Y-45931D01*
X10543Y-45729D01*
X10543Y-49675D01*
X10308Y-49675D01*
X10308Y-46028D01*
X10000Y-45721D01*
X09929Y-45791D01*
X09929Y-45650D01*
X09622Y-45342D01*
X09528Y-45369D01*
X09457Y-45571D01*
X09468Y-45784D01*
X09528Y-45931D01*
X09622Y-45958D01*
X09929Y-45650D01*
X09929Y-45791D01*
X09692Y-46028D01*
X09719Y-46122D01*
X09921Y-46193D01*
X10134Y-46182D01*
X10281Y-46122D01*
X10308Y-46028D01*
X10308Y-49675D01*
X08939Y-49675D01*
X08939Y-46837D01*
X08939Y-46464D01*
X08939Y-42837D01*
X08939Y-42464D01*
X08939Y-39537D01*
X08939Y-39164D01*
X08939Y-35537D01*
X08939Y-35164D01*
X08796Y-34819D01*
X08532Y-34555D01*
X08187Y-34411D01*
X07814Y-34411D01*
X07469Y-34554D01*
X07205Y-34818D01*
X07061Y-35163D01*
X07061Y-35536D01*
X07204Y-35881D01*
X07468Y-36145D01*
X07813Y-36289D01*
X08186Y-36289D01*
X08531Y-36146D01*
X08795Y-35882D01*
X08939Y-35537D01*
X08939Y-39164D01*
X08796Y-38819D01*
X08532Y-38555D01*
X08187Y-38411D01*
X07814Y-38411D01*
X07469Y-38554D01*
X07205Y-38818D01*
X07061Y-39163D01*
X07061Y-39536D01*
X07204Y-39881D01*
X07468Y-40145D01*
X07813Y-40289D01*
X08186Y-40289D01*
X08531Y-40146D01*
X08795Y-39882D01*
X08939Y-39537D01*
X08939Y-42464D01*
X08796Y-42119D01*
X08532Y-41855D01*
X08187Y-41711D01*
X07814Y-41711D01*
X07469Y-41854D01*
X07205Y-42118D01*
X07061Y-42463D01*
X07061Y-42836D01*
X07204Y-43181D01*
X07468Y-43445D01*
X07813Y-43589D01*
X08186Y-43589D01*
X08531Y-43446D01*
X08795Y-43182D01*
X08939Y-42837D01*
X08939Y-46464D01*
X08796Y-46119D01*
X08532Y-45855D01*
X08187Y-45711D01*
X07814Y-45711D01*
X07469Y-45854D01*
X07205Y-46118D01*
X07061Y-46463D01*
X07061Y-46836D01*
X07204Y-47181D01*
X07468Y-47445D01*
X07813Y-47589D01*
X08186Y-47589D01*
X08531Y-47446D01*
X08795Y-47182D01*
X08939Y-46837D01*
X08939Y-49675D01*
X05325Y-49675D01*
X05325Y-33800D01*
X10450Y-33800D01*
X10450Y-35875D01*
X10426Y-35875D01*
X10325Y-35916D01*
X10325Y-35475D01*
X10325Y-35326D01*
X10268Y-35188D01*
X10163Y-35083D01*
X10025Y-35025D01*
X09975Y-35025D01*
X09975Y-34425D01*
X09975Y-34276D01*
X09918Y-34138D01*
X09813Y-34033D01*
X09675Y-33975D01*
X09526Y-33975D01*
X09388Y-34032D01*
X09283Y-34137D01*
X09225Y-34275D01*
X09225Y-34424D01*
X09282Y-34562D01*
X09387Y-34667D01*
X09525Y-34725D01*
X09674Y-34725D01*
X09812Y-34668D01*
X09917Y-34563D01*
X09975Y-34425D01*
X09975Y-35025D01*
X09876Y-35025D01*
X09738Y-35082D01*
X09633Y-35187D01*
X09575Y-35325D01*
X09575Y-35474D01*
X09632Y-35612D01*
X09737Y-35717D01*
X09875Y-35775D01*
X10024Y-35775D01*
X10162Y-35718D01*
X10267Y-35613D01*
X10325Y-35475D01*
X10325Y-35916D01*
X10288Y-35932D01*
X10183Y-36037D01*
X10125Y-36175D01*
X10125Y-36324D01*
X10182Y-36462D01*
X10245Y-36525D01*
X10233Y-36537D01*
X10175Y-36675D01*
X10175Y-36824D01*
X10177Y-36829D01*
X10109Y-36801D01*
X09891Y-36801D01*
X09689Y-36885D01*
X09535Y-37039D01*
X09451Y-37241D01*
X09451Y-37459D01*
X09535Y-37661D01*
X09689Y-37815D01*
X09780Y-37852D01*
X09719Y-37878D01*
X09692Y-37972D01*
X10000Y-38279D01*
X10308Y-37972D01*
X10281Y-37878D01*
X10215Y-37854D01*
X10311Y-37815D01*
X10450Y-37676D01*
X10450Y-38062D01*
X10378Y-38042D01*
X10071Y-38350D01*
X10378Y-38658D01*
X10450Y-38637D01*
X10450Y-44324D01*
X10311Y-44185D01*
X10308Y-44183D01*
X10308Y-38728D01*
X10000Y-38421D01*
X09929Y-38491D01*
X09929Y-38350D01*
X09622Y-38042D01*
X09528Y-38069D01*
X09457Y-38271D01*
X09468Y-38484D01*
X09528Y-38631D01*
X09622Y-38658D01*
X09929Y-38350D01*
X09929Y-38491D01*
X09692Y-38728D01*
X09719Y-38822D01*
X09921Y-38893D01*
X10134Y-38882D01*
X10281Y-38822D01*
X10308Y-38728D01*
X10308Y-44183D01*
X10109Y-44101D01*
X09891Y-44101D01*
X09689Y-44185D01*
X09535Y-44339D01*
X09451Y-44541D01*
X09451Y-44759D01*
X09535Y-44961D01*
X09689Y-45115D01*
X09780Y-45152D01*
X09719Y-45178D01*
X09692Y-45272D01*
X10000Y-45579D01*
X10308Y-45272D01*
X10281Y-45178D01*
X10215Y-45154D01*
X10311Y-45115D01*
X10465Y-44961D01*
X10531Y-44800D01*
X27800Y-44800D01*
X27800Y-10800D01*
X28415Y-10800D01*
X28338Y-10832D01*
X28233Y-10937D01*
X28175Y-11075D01*
X28175Y-11224D01*
X28232Y-11362D01*
X28337Y-11467D01*
X28475Y-11525D01*
X28624Y-11525D01*
X28762Y-11468D01*
X28867Y-11363D01*
X28925Y-11225D01*
X28925Y-11076D01*
X28868Y-10938D01*
X28763Y-10833D01*
X28684Y-10800D01*
X29877Y-10800D01*
X29825Y-10925D01*
X29825Y-11074D01*
X29882Y-11212D01*
X29987Y-11317D01*
X30125Y-11375D01*
X30274Y-11375D01*
X30412Y-11318D01*
X30517Y-11213D01*
X30575Y-11075D01*
X30575Y-10926D01*
X30522Y-10800D01*
X30950Y-10800D01*
X30950Y-44800D01*
X34800Y-44800D01*
X34800Y-10800D01*
X35370Y-10800D01*
X35333Y-10837D01*
X35275Y-10975D01*
X35275Y-11124D01*
X35332Y-11262D01*
X35437Y-11367D01*
X35575Y-11425D01*
X35724Y-11425D01*
X35862Y-11368D01*
X35967Y-11263D01*
X36025Y-11125D01*
X36025Y-10976D01*
X35968Y-10838D01*
X35930Y-10800D01*
X36806Y-10800D01*
X36775Y-10875D01*
X36775Y-11024D01*
X36832Y-11162D01*
X36937Y-11267D01*
X37075Y-11325D01*
X37224Y-11325D01*
X37362Y-11268D01*
X37467Y-11163D01*
X37525Y-11025D01*
X37525Y-10876D01*
X37493Y-10800D01*
X37950Y-10800D01*
X37950Y-44800D01*
X41800Y-44800D01*
X41800Y-10800D01*
X43785Y-10800D01*
X43775Y-10825D01*
X43775Y-10974D01*
X43832Y-11112D01*
X43937Y-11217D01*
X44075Y-11275D01*
X44224Y-11275D01*
X44362Y-11218D01*
X44467Y-11113D01*
X44525Y-10975D01*
X44525Y-10826D01*
X44514Y-10800D01*
X44950Y-10800D01*
X44950Y-44800D01*
X48800Y-44800D01*
X48800Y-10800D01*
X50785Y-10800D01*
X50775Y-10825D01*
X50775Y-10974D01*
X50832Y-11112D01*
X50937Y-11217D01*
X51075Y-11275D01*
X51224Y-11275D01*
X51362Y-11218D01*
X51467Y-11113D01*
X51525Y-10975D01*
X51525Y-10826D01*
X51514Y-10800D01*
X51950Y-10800D01*
X51950Y-44800D01*
X55800Y-44800D01*
X55800Y-05325D01*
X62325Y-05325D01*
X62325Y-49675D01*
M02*
