G04 (created by PCBNEW (2013-07-07 BZR 4022)-stable) date 28/01/2014 3:52:00 PM*
%MOIN*%
G04 Gerber Fmt 3.4, Leading zero omitted, Abs format*
%FSLAX34Y34*%
G01*
G70*
G90*
G04 APERTURE LIST*
%ADD10C,0.00590551*%
%ADD11C,0.012*%
%ADD12C,0.005*%
%ADD13C,0.015*%
%ADD14C,0.01*%
%ADD15C,0.0045*%
%ADD16C,0.008*%
%ADD17C,0.006*%
G04 APERTURE END LIST*
G54D10*
G54D11*
X22353Y-7794D02*
X21896Y-7794D01*
X22124Y-8098D02*
X22124Y-7489D01*
G54D12*
X45700Y-39400D02*
X45700Y-40300D01*
X45700Y-40300D02*
X45050Y-40300D01*
X44350Y-39400D02*
X43700Y-39400D01*
X43700Y-39400D02*
X43700Y-40300D01*
X43700Y-40300D02*
X44350Y-40300D01*
X45050Y-39400D02*
X45700Y-39400D01*
X57700Y-10800D02*
X57700Y-9900D01*
X57700Y-9900D02*
X58350Y-9900D01*
X59050Y-10800D02*
X59700Y-10800D01*
X59700Y-10800D02*
X59700Y-9900D01*
X59700Y-9900D02*
X59050Y-9900D01*
X58350Y-10800D02*
X57700Y-10800D01*
X59700Y-11400D02*
X59700Y-12300D01*
X59700Y-12300D02*
X59050Y-12300D01*
X58350Y-11400D02*
X57700Y-11400D01*
X57700Y-11400D02*
X57700Y-12300D01*
X57700Y-12300D02*
X58350Y-12300D01*
X59050Y-11400D02*
X59700Y-11400D01*
X38700Y-12900D02*
X38700Y-13800D01*
X38700Y-13800D02*
X38050Y-13800D01*
X37350Y-12900D02*
X36700Y-12900D01*
X36700Y-12900D02*
X36700Y-13800D01*
X36700Y-13800D02*
X37350Y-13800D01*
X38050Y-12900D02*
X38700Y-12900D01*
X52700Y-19900D02*
X52700Y-20800D01*
X52700Y-20800D02*
X52050Y-20800D01*
X51350Y-19900D02*
X50700Y-19900D01*
X50700Y-19900D02*
X50700Y-20800D01*
X50700Y-20800D02*
X51350Y-20800D01*
X52050Y-19900D02*
X52700Y-19900D01*
X36700Y-17800D02*
X36700Y-16900D01*
X36700Y-16900D02*
X37350Y-16900D01*
X38050Y-17800D02*
X38700Y-17800D01*
X38700Y-17800D02*
X38700Y-16900D01*
X38700Y-16900D02*
X38050Y-16900D01*
X37350Y-17800D02*
X36700Y-17800D01*
X43700Y-17800D02*
X43700Y-16900D01*
X43700Y-16900D02*
X44350Y-16900D01*
X45050Y-17800D02*
X45700Y-17800D01*
X45700Y-17800D02*
X45700Y-16900D01*
X45700Y-16900D02*
X45050Y-16900D01*
X44350Y-17800D02*
X43700Y-17800D01*
X59700Y-19900D02*
X59700Y-20800D01*
X59700Y-20800D02*
X59050Y-20800D01*
X58350Y-19900D02*
X57700Y-19900D01*
X57700Y-19900D02*
X57700Y-20800D01*
X57700Y-20800D02*
X58350Y-20800D01*
X59050Y-19900D02*
X59700Y-19900D01*
X36700Y-24800D02*
X36700Y-23900D01*
X36700Y-23900D02*
X37350Y-23900D01*
X38050Y-24800D02*
X38700Y-24800D01*
X38700Y-24800D02*
X38700Y-23900D01*
X38700Y-23900D02*
X38050Y-23900D01*
X37350Y-24800D02*
X36700Y-24800D01*
X50700Y-24800D02*
X50700Y-23900D01*
X50700Y-23900D02*
X51350Y-23900D01*
X52050Y-24800D02*
X52700Y-24800D01*
X52700Y-24800D02*
X52700Y-23900D01*
X52700Y-23900D02*
X52050Y-23900D01*
X51350Y-24800D02*
X50700Y-24800D01*
X43700Y-24800D02*
X43700Y-23900D01*
X43700Y-23900D02*
X44350Y-23900D01*
X45050Y-24800D02*
X45700Y-24800D01*
X45700Y-24800D02*
X45700Y-23900D01*
X45700Y-23900D02*
X45050Y-23900D01*
X44350Y-24800D02*
X43700Y-24800D01*
X38700Y-25400D02*
X38700Y-26300D01*
X38700Y-26300D02*
X38050Y-26300D01*
X37350Y-25400D02*
X36700Y-25400D01*
X36700Y-25400D02*
X36700Y-26300D01*
X36700Y-26300D02*
X37350Y-26300D01*
X38050Y-25400D02*
X38700Y-25400D01*
X36700Y-10800D02*
X36700Y-9900D01*
X36700Y-9900D02*
X37350Y-9900D01*
X38050Y-10800D02*
X38700Y-10800D01*
X38700Y-10800D02*
X38700Y-9900D01*
X38700Y-9900D02*
X38050Y-9900D01*
X37350Y-10800D02*
X36700Y-10800D01*
X50750Y-10800D02*
X50750Y-9900D01*
X50750Y-9900D02*
X51400Y-9900D01*
X52100Y-10800D02*
X52750Y-10800D01*
X52750Y-10800D02*
X52750Y-9900D01*
X52750Y-9900D02*
X52100Y-9900D01*
X51400Y-10800D02*
X50750Y-10800D01*
X43700Y-10800D02*
X43700Y-9900D01*
X43700Y-9900D02*
X44350Y-9900D01*
X45050Y-10800D02*
X45700Y-10800D01*
X45700Y-10800D02*
X45700Y-9900D01*
X45700Y-9900D02*
X45050Y-9900D01*
X44350Y-10800D02*
X43700Y-10800D01*
X38700Y-11400D02*
X38700Y-12300D01*
X38700Y-12300D02*
X38050Y-12300D01*
X37350Y-11400D02*
X36700Y-11400D01*
X36700Y-11400D02*
X36700Y-12300D01*
X36700Y-12300D02*
X37350Y-12300D01*
X38050Y-11400D02*
X38700Y-11400D01*
X59700Y-18400D02*
X59700Y-19300D01*
X59700Y-19300D02*
X59050Y-19300D01*
X58350Y-18400D02*
X57700Y-18400D01*
X57700Y-18400D02*
X57700Y-19300D01*
X57700Y-19300D02*
X58350Y-19300D01*
X59050Y-18400D02*
X59700Y-18400D01*
X52750Y-12900D02*
X52750Y-13800D01*
X52750Y-13800D02*
X52100Y-13800D01*
X51400Y-12900D02*
X50750Y-12900D01*
X50750Y-12900D02*
X50750Y-13800D01*
X50750Y-13800D02*
X51400Y-13800D01*
X52100Y-12900D02*
X52750Y-12900D01*
X45700Y-12900D02*
X45700Y-13800D01*
X45700Y-13800D02*
X45050Y-13800D01*
X44350Y-12900D02*
X43700Y-12900D01*
X43700Y-12900D02*
X43700Y-13800D01*
X43700Y-13800D02*
X44350Y-13800D01*
X45050Y-12900D02*
X45700Y-12900D01*
X57700Y-17800D02*
X57700Y-16900D01*
X57700Y-16900D02*
X58350Y-16900D01*
X59050Y-17800D02*
X59700Y-17800D01*
X59700Y-17800D02*
X59700Y-16900D01*
X59700Y-16900D02*
X59050Y-16900D01*
X58350Y-17800D02*
X57700Y-17800D01*
X59700Y-12900D02*
X59700Y-13800D01*
X59700Y-13800D02*
X59050Y-13800D01*
X58350Y-12900D02*
X57700Y-12900D01*
X57700Y-12900D02*
X57700Y-13800D01*
X57700Y-13800D02*
X58350Y-13800D01*
X59050Y-12900D02*
X59700Y-12900D01*
X57700Y-38800D02*
X57700Y-37900D01*
X57700Y-37900D02*
X58350Y-37900D01*
X59050Y-38800D02*
X59700Y-38800D01*
X59700Y-38800D02*
X59700Y-37900D01*
X59700Y-37900D02*
X59050Y-37900D01*
X58350Y-38800D02*
X57700Y-38800D01*
X59700Y-39400D02*
X59700Y-40300D01*
X59700Y-40300D02*
X59050Y-40300D01*
X58350Y-39400D02*
X57700Y-39400D01*
X57700Y-39400D02*
X57700Y-40300D01*
X57700Y-40300D02*
X58350Y-40300D01*
X59050Y-39400D02*
X59700Y-39400D01*
X43700Y-38800D02*
X43700Y-37900D01*
X43700Y-37900D02*
X44350Y-37900D01*
X45050Y-38800D02*
X45700Y-38800D01*
X45700Y-38800D02*
X45700Y-37900D01*
X45700Y-37900D02*
X45050Y-37900D01*
X44350Y-38800D02*
X43700Y-38800D01*
X38700Y-40900D02*
X38700Y-41800D01*
X38700Y-41800D02*
X38050Y-41800D01*
X37350Y-40900D02*
X36700Y-40900D01*
X36700Y-40900D02*
X36700Y-41800D01*
X36700Y-41800D02*
X37350Y-41800D01*
X38050Y-40900D02*
X38700Y-40900D01*
X59700Y-40900D02*
X59700Y-41800D01*
X59700Y-41800D02*
X59050Y-41800D01*
X58350Y-40900D02*
X57700Y-40900D01*
X57700Y-40900D02*
X57700Y-41800D01*
X57700Y-41800D02*
X58350Y-41800D01*
X59050Y-40900D02*
X59700Y-40900D01*
X45700Y-40900D02*
X45700Y-41800D01*
X45700Y-41800D02*
X45050Y-41800D01*
X44350Y-40900D02*
X43700Y-40900D01*
X43700Y-40900D02*
X43700Y-41800D01*
X43700Y-41800D02*
X44350Y-41800D01*
X45050Y-40900D02*
X45700Y-40900D01*
X38700Y-39400D02*
X38700Y-40300D01*
X38700Y-40300D02*
X38050Y-40300D01*
X37350Y-39400D02*
X36700Y-39400D01*
X36700Y-39400D02*
X36700Y-40300D01*
X36700Y-40300D02*
X37350Y-40300D01*
X38050Y-39400D02*
X38700Y-39400D01*
X36700Y-38800D02*
X36700Y-37900D01*
X36700Y-37900D02*
X37350Y-37900D01*
X38050Y-38800D02*
X38700Y-38800D01*
X38700Y-38800D02*
X38700Y-37900D01*
X38700Y-37900D02*
X38050Y-37900D01*
X37350Y-38800D02*
X36700Y-38800D01*
X59700Y-33900D02*
X59700Y-34800D01*
X59700Y-34800D02*
X59050Y-34800D01*
X58350Y-33900D02*
X57700Y-33900D01*
X57700Y-33900D02*
X57700Y-34800D01*
X57700Y-34800D02*
X58350Y-34800D01*
X59050Y-33900D02*
X59700Y-33900D01*
X36700Y-31800D02*
X36700Y-30900D01*
X36700Y-30900D02*
X37350Y-30900D01*
X38050Y-31800D02*
X38700Y-31800D01*
X38700Y-31800D02*
X38700Y-30900D01*
X38700Y-30900D02*
X38050Y-30900D01*
X37350Y-31800D02*
X36700Y-31800D01*
X59700Y-32400D02*
X59700Y-33300D01*
X59700Y-33300D02*
X59050Y-33300D01*
X58350Y-32400D02*
X57700Y-32400D01*
X57700Y-32400D02*
X57700Y-33300D01*
X57700Y-33300D02*
X58350Y-33300D01*
X59050Y-32400D02*
X59700Y-32400D01*
X43700Y-31800D02*
X43700Y-30900D01*
X43700Y-30900D02*
X44350Y-30900D01*
X45050Y-31800D02*
X45700Y-31800D01*
X45700Y-31800D02*
X45700Y-30900D01*
X45700Y-30900D02*
X45050Y-30900D01*
X44350Y-31800D02*
X43700Y-31800D01*
X45700Y-33900D02*
X45700Y-34800D01*
X45700Y-34800D02*
X45050Y-34800D01*
X44350Y-33900D02*
X43700Y-33900D01*
X43700Y-33900D02*
X43700Y-34800D01*
X43700Y-34800D02*
X44350Y-34800D01*
X45050Y-33900D02*
X45700Y-33900D01*
X52700Y-33900D02*
X52700Y-34800D01*
X52700Y-34800D02*
X52050Y-34800D01*
X51350Y-33900D02*
X50700Y-33900D01*
X50700Y-33900D02*
X50700Y-34800D01*
X50700Y-34800D02*
X51350Y-34800D01*
X52050Y-33900D02*
X52700Y-33900D01*
X38700Y-33900D02*
X38700Y-34800D01*
X38700Y-34800D02*
X38050Y-34800D01*
X37350Y-33900D02*
X36700Y-33900D01*
X36700Y-33900D02*
X36700Y-34800D01*
X36700Y-34800D02*
X37350Y-34800D01*
X38050Y-33900D02*
X38700Y-33900D01*
X52700Y-40900D02*
X52700Y-41800D01*
X52700Y-41800D02*
X52050Y-41800D01*
X51350Y-40900D02*
X50700Y-40900D01*
X50700Y-40900D02*
X50700Y-41800D01*
X50700Y-41800D02*
X51350Y-41800D01*
X52050Y-40900D02*
X52700Y-40900D01*
X52700Y-26900D02*
X52700Y-27800D01*
X52700Y-27800D02*
X52050Y-27800D01*
X51350Y-26900D02*
X50700Y-26900D01*
X50700Y-26900D02*
X50700Y-27800D01*
X50700Y-27800D02*
X51350Y-27800D01*
X52050Y-26900D02*
X52700Y-26900D01*
X45700Y-26900D02*
X45700Y-27800D01*
X45700Y-27800D02*
X45050Y-27800D01*
X44350Y-26900D02*
X43700Y-26900D01*
X43700Y-26900D02*
X43700Y-27800D01*
X43700Y-27800D02*
X44350Y-27800D01*
X45050Y-26900D02*
X45700Y-26900D01*
X59700Y-26900D02*
X59700Y-27800D01*
X59700Y-27800D02*
X59050Y-27800D01*
X58350Y-26900D02*
X57700Y-26900D01*
X57700Y-26900D02*
X57700Y-27800D01*
X57700Y-27800D02*
X58350Y-27800D01*
X59050Y-26900D02*
X59700Y-26900D01*
X45700Y-19900D02*
X45700Y-20800D01*
X45700Y-20800D02*
X45050Y-20800D01*
X44350Y-19900D02*
X43700Y-19900D01*
X43700Y-19900D02*
X43700Y-20800D01*
X43700Y-20800D02*
X44350Y-20800D01*
X45050Y-19900D02*
X45700Y-19900D01*
X50700Y-17800D02*
X50700Y-16900D01*
X50700Y-16900D02*
X51350Y-16900D01*
X52050Y-17800D02*
X52700Y-17800D01*
X52700Y-17800D02*
X52700Y-16900D01*
X52700Y-16900D02*
X52050Y-16900D01*
X51350Y-17800D02*
X50700Y-17800D01*
X38700Y-18400D02*
X38700Y-19300D01*
X38700Y-19300D02*
X38050Y-19300D01*
X37350Y-18400D02*
X36700Y-18400D01*
X36700Y-18400D02*
X36700Y-19300D01*
X36700Y-19300D02*
X37350Y-19300D01*
X38050Y-18400D02*
X38700Y-18400D01*
X38700Y-19900D02*
X38700Y-20800D01*
X38700Y-20800D02*
X38050Y-20800D01*
X37350Y-19900D02*
X36700Y-19900D01*
X36700Y-19900D02*
X36700Y-20800D01*
X36700Y-20800D02*
X37350Y-20800D01*
X38050Y-19900D02*
X38700Y-19900D01*
X59700Y-25400D02*
X59700Y-26300D01*
X59700Y-26300D02*
X59050Y-26300D01*
X58350Y-25400D02*
X57700Y-25400D01*
X57700Y-25400D02*
X57700Y-26300D01*
X57700Y-26300D02*
X58350Y-26300D01*
X59050Y-25400D02*
X59700Y-25400D01*
X57700Y-24800D02*
X57700Y-23900D01*
X57700Y-23900D02*
X58350Y-23900D01*
X59050Y-24800D02*
X59700Y-24800D01*
X59700Y-24800D02*
X59700Y-23900D01*
X59700Y-23900D02*
X59050Y-23900D01*
X58350Y-24800D02*
X57700Y-24800D01*
X38700Y-26900D02*
X38700Y-27800D01*
X38700Y-27800D02*
X38050Y-27800D01*
X37350Y-26900D02*
X36700Y-26900D01*
X36700Y-26900D02*
X36700Y-27800D01*
X36700Y-27800D02*
X37350Y-27800D01*
X38050Y-26900D02*
X38700Y-26900D01*
X50700Y-31800D02*
X50700Y-30900D01*
X50700Y-30900D02*
X51350Y-30900D01*
X52050Y-31800D02*
X52700Y-31800D01*
X52700Y-31800D02*
X52700Y-30900D01*
X52700Y-30900D02*
X52050Y-30900D01*
X51350Y-31800D02*
X50700Y-31800D01*
X57700Y-31800D02*
X57700Y-30900D01*
X57700Y-30900D02*
X58350Y-30900D01*
X59050Y-31800D02*
X59700Y-31800D01*
X59700Y-31800D02*
X59700Y-30900D01*
X59700Y-30900D02*
X59050Y-30900D01*
X58350Y-31800D02*
X57700Y-31800D01*
X38700Y-32400D02*
X38700Y-33300D01*
X38700Y-33300D02*
X38050Y-33300D01*
X37350Y-32400D02*
X36700Y-32400D01*
X36700Y-32400D02*
X36700Y-33300D01*
X36700Y-33300D02*
X37350Y-33300D01*
X38050Y-32400D02*
X38700Y-32400D01*
X50700Y-38800D02*
X50700Y-37900D01*
X50700Y-37900D02*
X51350Y-37900D01*
X52050Y-38800D02*
X52700Y-38800D01*
X52700Y-38800D02*
X52700Y-37900D01*
X52700Y-37900D02*
X52050Y-37900D01*
X51350Y-38800D02*
X50700Y-38800D01*
X45700Y-25400D02*
X45700Y-26300D01*
X45700Y-26300D02*
X45050Y-26300D01*
X44350Y-25400D02*
X43700Y-25400D01*
X43700Y-25400D02*
X43700Y-26300D01*
X43700Y-26300D02*
X44350Y-26300D01*
X45050Y-25400D02*
X45700Y-25400D01*
X52700Y-25400D02*
X52700Y-26300D01*
X52700Y-26300D02*
X52050Y-26300D01*
X51350Y-25400D02*
X50700Y-25400D01*
X50700Y-25400D02*
X50700Y-26300D01*
X50700Y-26300D02*
X51350Y-26300D01*
X52050Y-25400D02*
X52700Y-25400D01*
X52700Y-18400D02*
X52700Y-19300D01*
X52700Y-19300D02*
X52050Y-19300D01*
X51350Y-18400D02*
X50700Y-18400D01*
X50700Y-18400D02*
X50700Y-19300D01*
X50700Y-19300D02*
X51350Y-19300D01*
X52050Y-18400D02*
X52700Y-18400D01*
X45700Y-18400D02*
X45700Y-19300D01*
X45700Y-19300D02*
X45050Y-19300D01*
X44350Y-18400D02*
X43700Y-18400D01*
X43700Y-18400D02*
X43700Y-19300D01*
X43700Y-19300D02*
X44350Y-19300D01*
X45050Y-18400D02*
X45700Y-18400D01*
X45700Y-11400D02*
X45700Y-12300D01*
X45700Y-12300D02*
X45050Y-12300D01*
X44350Y-11400D02*
X43700Y-11400D01*
X43700Y-11400D02*
X43700Y-12300D01*
X43700Y-12300D02*
X44350Y-12300D01*
X45050Y-11400D02*
X45700Y-11400D01*
X52750Y-11400D02*
X52750Y-12300D01*
X52750Y-12300D02*
X52100Y-12300D01*
X51400Y-11400D02*
X50750Y-11400D01*
X50750Y-11400D02*
X50750Y-12300D01*
X50750Y-12300D02*
X51400Y-12300D01*
X52100Y-11400D02*
X52750Y-11400D01*
X52700Y-39400D02*
X52700Y-40300D01*
X52700Y-40300D02*
X52050Y-40300D01*
X51350Y-39400D02*
X50700Y-39400D01*
X50700Y-39400D02*
X50700Y-40300D01*
X50700Y-40300D02*
X51350Y-40300D01*
X52050Y-39400D02*
X52700Y-39400D01*
X45700Y-32400D02*
X45700Y-33300D01*
X45700Y-33300D02*
X45050Y-33300D01*
X44350Y-32400D02*
X43700Y-32400D01*
X43700Y-32400D02*
X43700Y-33300D01*
X43700Y-33300D02*
X44350Y-33300D01*
X45050Y-32400D02*
X45700Y-32400D01*
X52700Y-32400D02*
X52700Y-33300D01*
X52700Y-33300D02*
X52050Y-33300D01*
X51350Y-32400D02*
X50700Y-32400D01*
X50700Y-32400D02*
X50700Y-33300D01*
X50700Y-33300D02*
X51350Y-33300D01*
X52050Y-32400D02*
X52700Y-32400D01*
X24205Y-25905D02*
X23305Y-25905D01*
X23305Y-25905D02*
X23305Y-26405D01*
X23305Y-26405D02*
X24205Y-26405D01*
X24205Y-26405D02*
X24205Y-25905D01*
X23255Y-24455D02*
X24155Y-24455D01*
X24155Y-24455D02*
X24155Y-23955D01*
X24155Y-23955D02*
X23255Y-23955D01*
X23255Y-23955D02*
X23255Y-24455D01*
G54D13*
X39950Y-23850D02*
X42450Y-23850D01*
X42450Y-23850D02*
X42450Y-27850D01*
X42450Y-27850D02*
X39950Y-27850D01*
X39950Y-27850D02*
X39950Y-23850D01*
G54D11*
X40700Y-23850D02*
X40700Y-24350D01*
X40700Y-24350D02*
X41700Y-24350D01*
X41700Y-24350D02*
X41700Y-23850D01*
G54D13*
X46950Y-9850D02*
X49450Y-9850D01*
X49450Y-9850D02*
X49450Y-13850D01*
X49450Y-13850D02*
X46950Y-13850D01*
X46950Y-13850D02*
X46950Y-9850D01*
G54D11*
X47700Y-9850D02*
X47700Y-10350D01*
X47700Y-10350D02*
X48700Y-10350D01*
X48700Y-10350D02*
X48700Y-9850D01*
G54D13*
X32950Y-37850D02*
X35450Y-37850D01*
X35450Y-37850D02*
X35450Y-41850D01*
X35450Y-41850D02*
X32950Y-41850D01*
X32950Y-41850D02*
X32950Y-37850D01*
G54D11*
X33700Y-37850D02*
X33700Y-38350D01*
X33700Y-38350D02*
X34700Y-38350D01*
X34700Y-38350D02*
X34700Y-37850D01*
G54D13*
X46950Y-23850D02*
X49450Y-23850D01*
X49450Y-23850D02*
X49450Y-27850D01*
X49450Y-27850D02*
X46950Y-27850D01*
X46950Y-27850D02*
X46950Y-23850D01*
G54D11*
X47700Y-23850D02*
X47700Y-24350D01*
X47700Y-24350D02*
X48700Y-24350D01*
X48700Y-24350D02*
X48700Y-23850D01*
G54D13*
X46950Y-37850D02*
X49450Y-37850D01*
X49450Y-37850D02*
X49450Y-41850D01*
X49450Y-41850D02*
X46950Y-41850D01*
X46950Y-41850D02*
X46950Y-37850D01*
G54D11*
X47700Y-37850D02*
X47700Y-38350D01*
X47700Y-38350D02*
X48700Y-38350D01*
X48700Y-38350D02*
X48700Y-37850D01*
G54D13*
X39950Y-16850D02*
X42450Y-16850D01*
X42450Y-16850D02*
X42450Y-20850D01*
X42450Y-20850D02*
X39950Y-20850D01*
X39950Y-20850D02*
X39950Y-16850D01*
G54D11*
X40700Y-16850D02*
X40700Y-17350D01*
X40700Y-17350D02*
X41700Y-17350D01*
X41700Y-17350D02*
X41700Y-16850D01*
G54D13*
X46950Y-16850D02*
X49450Y-16850D01*
X49450Y-16850D02*
X49450Y-20850D01*
X49450Y-20850D02*
X46950Y-20850D01*
X46950Y-20850D02*
X46950Y-16850D01*
G54D11*
X47700Y-16850D02*
X47700Y-17350D01*
X47700Y-17350D02*
X48700Y-17350D01*
X48700Y-17350D02*
X48700Y-16850D01*
G54D13*
X39950Y-9850D02*
X42450Y-9850D01*
X42450Y-9850D02*
X42450Y-13850D01*
X42450Y-13850D02*
X39950Y-13850D01*
X39950Y-13850D02*
X39950Y-9850D01*
G54D11*
X40700Y-9850D02*
X40700Y-10350D01*
X40700Y-10350D02*
X41700Y-10350D01*
X41700Y-10350D02*
X41700Y-9850D01*
G54D13*
X32950Y-9850D02*
X35450Y-9850D01*
X35450Y-9850D02*
X35450Y-13850D01*
X35450Y-13850D02*
X32950Y-13850D01*
X32950Y-13850D02*
X32950Y-9850D01*
G54D11*
X33700Y-9850D02*
X33700Y-10350D01*
X33700Y-10350D02*
X34700Y-10350D01*
X34700Y-10350D02*
X34700Y-9850D01*
G54D13*
X53950Y-37850D02*
X56450Y-37850D01*
X56450Y-37850D02*
X56450Y-41850D01*
X56450Y-41850D02*
X53950Y-41850D01*
X53950Y-41850D02*
X53950Y-37850D01*
G54D11*
X54700Y-37850D02*
X54700Y-38350D01*
X54700Y-38350D02*
X55700Y-38350D01*
X55700Y-38350D02*
X55700Y-37850D01*
G54D13*
X32950Y-16850D02*
X35450Y-16850D01*
X35450Y-16850D02*
X35450Y-20850D01*
X35450Y-20850D02*
X32950Y-20850D01*
X32950Y-20850D02*
X32950Y-16850D01*
G54D11*
X33700Y-16850D02*
X33700Y-17350D01*
X33700Y-17350D02*
X34700Y-17350D01*
X34700Y-17350D02*
X34700Y-16850D01*
G54D13*
X53950Y-9850D02*
X56450Y-9850D01*
X56450Y-9850D02*
X56450Y-13850D01*
X56450Y-13850D02*
X53950Y-13850D01*
X53950Y-13850D02*
X53950Y-9850D01*
G54D11*
X54700Y-9850D02*
X54700Y-10350D01*
X54700Y-10350D02*
X55700Y-10350D01*
X55700Y-10350D02*
X55700Y-9850D01*
G54D13*
X53950Y-30850D02*
X56450Y-30850D01*
X56450Y-30850D02*
X56450Y-34850D01*
X56450Y-34850D02*
X53950Y-34850D01*
X53950Y-34850D02*
X53950Y-30850D01*
G54D11*
X54700Y-30850D02*
X54700Y-31350D01*
X54700Y-31350D02*
X55700Y-31350D01*
X55700Y-31350D02*
X55700Y-30850D01*
G54D13*
X32950Y-23850D02*
X35450Y-23850D01*
X35450Y-23850D02*
X35450Y-27850D01*
X35450Y-27850D02*
X32950Y-27850D01*
X32950Y-27850D02*
X32950Y-23850D01*
G54D11*
X33700Y-23850D02*
X33700Y-24350D01*
X33700Y-24350D02*
X34700Y-24350D01*
X34700Y-24350D02*
X34700Y-23850D01*
G54D13*
X39950Y-30850D02*
X42450Y-30850D01*
X42450Y-30850D02*
X42450Y-34850D01*
X42450Y-34850D02*
X39950Y-34850D01*
X39950Y-34850D02*
X39950Y-30850D01*
G54D11*
X40700Y-30850D02*
X40700Y-31350D01*
X40700Y-31350D02*
X41700Y-31350D01*
X41700Y-31350D02*
X41700Y-30850D01*
G54D13*
X53950Y-23850D02*
X56450Y-23850D01*
X56450Y-23850D02*
X56450Y-27850D01*
X56450Y-27850D02*
X53950Y-27850D01*
X53950Y-27850D02*
X53950Y-23850D01*
G54D11*
X54700Y-23850D02*
X54700Y-24350D01*
X54700Y-24350D02*
X55700Y-24350D01*
X55700Y-24350D02*
X55700Y-23850D01*
G54D13*
X39950Y-37850D02*
X42450Y-37850D01*
X42450Y-37850D02*
X42450Y-41850D01*
X42450Y-41850D02*
X39950Y-41850D01*
X39950Y-41850D02*
X39950Y-37850D01*
G54D11*
X40700Y-37850D02*
X40700Y-38350D01*
X40700Y-38350D02*
X41700Y-38350D01*
X41700Y-38350D02*
X41700Y-37850D01*
G54D13*
X32950Y-30850D02*
X35450Y-30850D01*
X35450Y-30850D02*
X35450Y-34850D01*
X35450Y-34850D02*
X32950Y-34850D01*
X32950Y-34850D02*
X32950Y-30850D01*
G54D11*
X33700Y-30850D02*
X33700Y-31350D01*
X33700Y-31350D02*
X34700Y-31350D01*
X34700Y-31350D02*
X34700Y-30850D01*
G54D13*
X53950Y-16850D02*
X56450Y-16850D01*
X56450Y-16850D02*
X56450Y-20850D01*
X56450Y-20850D02*
X53950Y-20850D01*
X53950Y-20850D02*
X53950Y-16850D01*
G54D11*
X54700Y-16850D02*
X54700Y-17350D01*
X54700Y-17350D02*
X55700Y-17350D01*
X55700Y-17350D02*
X55700Y-16850D01*
G54D13*
X46950Y-30850D02*
X49450Y-30850D01*
X49450Y-30850D02*
X49450Y-34850D01*
X49450Y-34850D02*
X46950Y-34850D01*
X46950Y-34850D02*
X46950Y-30850D01*
G54D11*
X47700Y-30850D02*
X47700Y-31350D01*
X47700Y-31350D02*
X48700Y-31350D01*
X48700Y-31350D02*
X48700Y-30850D01*
G54D14*
X23605Y-10055D02*
X22455Y-10055D01*
X22455Y-10055D02*
X22455Y-8455D01*
X22455Y-8455D02*
X23605Y-8455D01*
X24605Y-10055D02*
X25755Y-10055D01*
X25755Y-10055D02*
X25755Y-8455D01*
X25755Y-8455D02*
X24605Y-8455D01*
G54D12*
X46392Y-39971D02*
X46492Y-39828D01*
X46564Y-39971D02*
X46564Y-39671D01*
X46450Y-39671D01*
X46421Y-39685D01*
X46407Y-39700D01*
X46392Y-39728D01*
X46392Y-39771D01*
X46407Y-39800D01*
X46421Y-39814D01*
X46450Y-39828D01*
X46564Y-39828D01*
X46121Y-39671D02*
X46264Y-39671D01*
X46278Y-39814D01*
X46264Y-39800D01*
X46235Y-39785D01*
X46164Y-39785D01*
X46135Y-39800D01*
X46121Y-39814D01*
X46107Y-39842D01*
X46107Y-39914D01*
X46121Y-39942D01*
X46135Y-39957D01*
X46164Y-39971D01*
X46235Y-39971D01*
X46264Y-39957D01*
X46278Y-39942D01*
X45850Y-39671D02*
X45907Y-39671D01*
X45935Y-39685D01*
X45950Y-39700D01*
X45978Y-39742D01*
X45992Y-39800D01*
X45992Y-39914D01*
X45978Y-39942D01*
X45964Y-39957D01*
X45935Y-39971D01*
X45878Y-39971D01*
X45850Y-39957D01*
X45835Y-39942D01*
X45821Y-39914D01*
X45821Y-39842D01*
X45835Y-39814D01*
X45850Y-39800D01*
X45878Y-39785D01*
X45935Y-39785D01*
X45964Y-39800D01*
X45978Y-39814D01*
X45992Y-39842D01*
X58892Y-9771D02*
X58992Y-9628D01*
X59064Y-9771D02*
X59064Y-9471D01*
X58950Y-9471D01*
X58921Y-9485D01*
X58907Y-9500D01*
X58892Y-9528D01*
X58892Y-9571D01*
X58907Y-9600D01*
X58921Y-9614D01*
X58950Y-9628D01*
X59064Y-9628D01*
X58635Y-9471D02*
X58692Y-9471D01*
X58721Y-9485D01*
X58735Y-9500D01*
X58764Y-9542D01*
X58778Y-9600D01*
X58778Y-9714D01*
X58764Y-9742D01*
X58750Y-9757D01*
X58721Y-9771D01*
X58664Y-9771D01*
X58635Y-9757D01*
X58621Y-9742D01*
X58607Y-9714D01*
X58607Y-9642D01*
X58621Y-9614D01*
X58635Y-9600D01*
X58664Y-9585D01*
X58721Y-9585D01*
X58750Y-9600D01*
X58764Y-9614D01*
X58778Y-9642D01*
X58507Y-9471D02*
X58321Y-9471D01*
X58421Y-9585D01*
X58378Y-9585D01*
X58350Y-9600D01*
X58335Y-9614D01*
X58321Y-9642D01*
X58321Y-9714D01*
X58335Y-9742D01*
X58350Y-9757D01*
X58378Y-9771D01*
X58464Y-9771D01*
X58492Y-9757D01*
X58507Y-9742D01*
X60392Y-11971D02*
X60492Y-11828D01*
X60564Y-11971D02*
X60564Y-11671D01*
X60450Y-11671D01*
X60421Y-11685D01*
X60407Y-11700D01*
X60392Y-11728D01*
X60392Y-11771D01*
X60407Y-11800D01*
X60421Y-11814D01*
X60450Y-11828D01*
X60564Y-11828D01*
X60135Y-11671D02*
X60192Y-11671D01*
X60221Y-11685D01*
X60235Y-11700D01*
X60264Y-11742D01*
X60278Y-11800D01*
X60278Y-11914D01*
X60264Y-11942D01*
X60250Y-11957D01*
X60221Y-11971D01*
X60164Y-11971D01*
X60135Y-11957D01*
X60121Y-11942D01*
X60107Y-11914D01*
X60107Y-11842D01*
X60121Y-11814D01*
X60135Y-11800D01*
X60164Y-11785D01*
X60221Y-11785D01*
X60250Y-11800D01*
X60264Y-11814D01*
X60278Y-11842D01*
X59850Y-11771D02*
X59850Y-11971D01*
X59921Y-11657D02*
X59992Y-11871D01*
X59807Y-11871D01*
X37892Y-14171D02*
X37992Y-14028D01*
X38064Y-14171D02*
X38064Y-13871D01*
X37950Y-13871D01*
X37921Y-13885D01*
X37907Y-13900D01*
X37892Y-13928D01*
X37892Y-13971D01*
X37907Y-14000D01*
X37921Y-14014D01*
X37950Y-14028D01*
X38064Y-14028D01*
X37792Y-13871D02*
X37592Y-13871D01*
X37721Y-14171D01*
X37507Y-13871D02*
X37321Y-13871D01*
X37421Y-13985D01*
X37378Y-13985D01*
X37350Y-14000D01*
X37335Y-14014D01*
X37321Y-14042D01*
X37321Y-14114D01*
X37335Y-14142D01*
X37350Y-14157D01*
X37378Y-14171D01*
X37464Y-14171D01*
X37492Y-14157D01*
X37507Y-14142D01*
X51892Y-21121D02*
X51992Y-20978D01*
X52064Y-21121D02*
X52064Y-20821D01*
X51950Y-20821D01*
X51921Y-20835D01*
X51907Y-20850D01*
X51892Y-20878D01*
X51892Y-20921D01*
X51907Y-20950D01*
X51921Y-20964D01*
X51950Y-20978D01*
X52064Y-20978D01*
X51721Y-20950D02*
X51750Y-20935D01*
X51764Y-20921D01*
X51778Y-20892D01*
X51778Y-20878D01*
X51764Y-20850D01*
X51750Y-20835D01*
X51721Y-20821D01*
X51664Y-20821D01*
X51635Y-20835D01*
X51621Y-20850D01*
X51607Y-20878D01*
X51607Y-20892D01*
X51621Y-20921D01*
X51635Y-20935D01*
X51664Y-20950D01*
X51721Y-20950D01*
X51750Y-20964D01*
X51764Y-20978D01*
X51778Y-21007D01*
X51778Y-21064D01*
X51764Y-21092D01*
X51750Y-21107D01*
X51721Y-21121D01*
X51664Y-21121D01*
X51635Y-21107D01*
X51621Y-21092D01*
X51607Y-21064D01*
X51607Y-21007D01*
X51621Y-20978D01*
X51635Y-20964D01*
X51664Y-20950D01*
X51507Y-20821D02*
X51321Y-20821D01*
X51421Y-20935D01*
X51378Y-20935D01*
X51350Y-20950D01*
X51335Y-20964D01*
X51321Y-20992D01*
X51321Y-21064D01*
X51335Y-21092D01*
X51350Y-21107D01*
X51378Y-21121D01*
X51464Y-21121D01*
X51492Y-21107D01*
X51507Y-21092D01*
X37892Y-16771D02*
X37992Y-16628D01*
X38064Y-16771D02*
X38064Y-16471D01*
X37950Y-16471D01*
X37921Y-16485D01*
X37907Y-16500D01*
X37892Y-16528D01*
X37892Y-16571D01*
X37907Y-16600D01*
X37921Y-16614D01*
X37950Y-16628D01*
X38064Y-16628D01*
X37792Y-16471D02*
X37592Y-16471D01*
X37721Y-16771D01*
X37464Y-16771D02*
X37407Y-16771D01*
X37378Y-16757D01*
X37364Y-16742D01*
X37335Y-16700D01*
X37321Y-16642D01*
X37321Y-16528D01*
X37335Y-16500D01*
X37350Y-16485D01*
X37378Y-16471D01*
X37435Y-16471D01*
X37464Y-16485D01*
X37478Y-16500D01*
X37492Y-16528D01*
X37492Y-16600D01*
X37478Y-16628D01*
X37464Y-16642D01*
X37435Y-16657D01*
X37378Y-16657D01*
X37350Y-16642D01*
X37335Y-16628D01*
X37321Y-16600D01*
X44892Y-16771D02*
X44992Y-16628D01*
X45064Y-16771D02*
X45064Y-16471D01*
X44950Y-16471D01*
X44921Y-16485D01*
X44907Y-16500D01*
X44892Y-16528D01*
X44892Y-16571D01*
X44907Y-16600D01*
X44921Y-16614D01*
X44950Y-16628D01*
X45064Y-16628D01*
X44792Y-16471D02*
X44592Y-16471D01*
X44721Y-16771D01*
X44435Y-16600D02*
X44464Y-16585D01*
X44478Y-16571D01*
X44492Y-16542D01*
X44492Y-16528D01*
X44478Y-16500D01*
X44464Y-16485D01*
X44435Y-16471D01*
X44378Y-16471D01*
X44350Y-16485D01*
X44335Y-16500D01*
X44321Y-16528D01*
X44321Y-16542D01*
X44335Y-16571D01*
X44350Y-16585D01*
X44378Y-16600D01*
X44435Y-16600D01*
X44464Y-16614D01*
X44478Y-16628D01*
X44492Y-16657D01*
X44492Y-16714D01*
X44478Y-16742D01*
X44464Y-16757D01*
X44435Y-16771D01*
X44378Y-16771D01*
X44350Y-16757D01*
X44335Y-16742D01*
X44321Y-16714D01*
X44321Y-16657D01*
X44335Y-16628D01*
X44350Y-16614D01*
X44378Y-16600D01*
X58892Y-21171D02*
X58992Y-21028D01*
X59064Y-21171D02*
X59064Y-20871D01*
X58950Y-20871D01*
X58921Y-20885D01*
X58907Y-20900D01*
X58892Y-20928D01*
X58892Y-20971D01*
X58907Y-21000D01*
X58921Y-21014D01*
X58950Y-21028D01*
X59064Y-21028D01*
X58721Y-21000D02*
X58750Y-20985D01*
X58764Y-20971D01*
X58778Y-20942D01*
X58778Y-20928D01*
X58764Y-20900D01*
X58750Y-20885D01*
X58721Y-20871D01*
X58664Y-20871D01*
X58635Y-20885D01*
X58621Y-20900D01*
X58607Y-20928D01*
X58607Y-20942D01*
X58621Y-20971D01*
X58635Y-20985D01*
X58664Y-21000D01*
X58721Y-21000D01*
X58750Y-21014D01*
X58764Y-21028D01*
X58778Y-21057D01*
X58778Y-21114D01*
X58764Y-21142D01*
X58750Y-21157D01*
X58721Y-21171D01*
X58664Y-21171D01*
X58635Y-21157D01*
X58621Y-21142D01*
X58607Y-21114D01*
X58607Y-21057D01*
X58621Y-21028D01*
X58635Y-21014D01*
X58664Y-21000D01*
X58492Y-20900D02*
X58478Y-20885D01*
X58450Y-20871D01*
X58378Y-20871D01*
X58350Y-20885D01*
X58335Y-20900D01*
X58321Y-20928D01*
X58321Y-20957D01*
X58335Y-21000D01*
X58507Y-21171D01*
X58321Y-21171D01*
X37892Y-23771D02*
X37992Y-23628D01*
X38064Y-23771D02*
X38064Y-23471D01*
X37950Y-23471D01*
X37921Y-23485D01*
X37907Y-23500D01*
X37892Y-23528D01*
X37892Y-23571D01*
X37907Y-23600D01*
X37921Y-23614D01*
X37950Y-23628D01*
X38064Y-23628D01*
X37750Y-23771D02*
X37692Y-23771D01*
X37664Y-23757D01*
X37650Y-23742D01*
X37621Y-23700D01*
X37607Y-23642D01*
X37607Y-23528D01*
X37621Y-23500D01*
X37635Y-23485D01*
X37664Y-23471D01*
X37721Y-23471D01*
X37750Y-23485D01*
X37764Y-23500D01*
X37778Y-23528D01*
X37778Y-23600D01*
X37764Y-23628D01*
X37750Y-23642D01*
X37721Y-23657D01*
X37664Y-23657D01*
X37635Y-23642D01*
X37621Y-23628D01*
X37607Y-23600D01*
X37321Y-23771D02*
X37492Y-23771D01*
X37407Y-23771D02*
X37407Y-23471D01*
X37435Y-23514D01*
X37464Y-23542D01*
X37492Y-23557D01*
X51892Y-23771D02*
X51992Y-23628D01*
X52064Y-23771D02*
X52064Y-23471D01*
X51950Y-23471D01*
X51921Y-23485D01*
X51907Y-23500D01*
X51892Y-23528D01*
X51892Y-23571D01*
X51907Y-23600D01*
X51921Y-23614D01*
X51950Y-23628D01*
X52064Y-23628D01*
X51721Y-23600D02*
X51750Y-23585D01*
X51764Y-23571D01*
X51778Y-23542D01*
X51778Y-23528D01*
X51764Y-23500D01*
X51750Y-23485D01*
X51721Y-23471D01*
X51664Y-23471D01*
X51635Y-23485D01*
X51621Y-23500D01*
X51607Y-23528D01*
X51607Y-23542D01*
X51621Y-23571D01*
X51635Y-23585D01*
X51664Y-23600D01*
X51721Y-23600D01*
X51750Y-23614D01*
X51764Y-23628D01*
X51778Y-23657D01*
X51778Y-23714D01*
X51764Y-23742D01*
X51750Y-23757D01*
X51721Y-23771D01*
X51664Y-23771D01*
X51635Y-23757D01*
X51621Y-23742D01*
X51607Y-23714D01*
X51607Y-23657D01*
X51621Y-23628D01*
X51635Y-23614D01*
X51664Y-23600D01*
X51464Y-23771D02*
X51407Y-23771D01*
X51378Y-23757D01*
X51364Y-23742D01*
X51335Y-23700D01*
X51321Y-23642D01*
X51321Y-23528D01*
X51335Y-23500D01*
X51350Y-23485D01*
X51378Y-23471D01*
X51435Y-23471D01*
X51464Y-23485D01*
X51478Y-23500D01*
X51492Y-23528D01*
X51492Y-23600D01*
X51478Y-23628D01*
X51464Y-23642D01*
X51435Y-23657D01*
X51378Y-23657D01*
X51350Y-23642D01*
X51335Y-23628D01*
X51321Y-23600D01*
X44892Y-23821D02*
X44992Y-23678D01*
X45064Y-23821D02*
X45064Y-23521D01*
X44950Y-23521D01*
X44921Y-23535D01*
X44907Y-23550D01*
X44892Y-23578D01*
X44892Y-23621D01*
X44907Y-23650D01*
X44921Y-23664D01*
X44950Y-23678D01*
X45064Y-23678D01*
X44750Y-23821D02*
X44692Y-23821D01*
X44664Y-23807D01*
X44650Y-23792D01*
X44621Y-23750D01*
X44607Y-23692D01*
X44607Y-23578D01*
X44621Y-23550D01*
X44635Y-23535D01*
X44664Y-23521D01*
X44721Y-23521D01*
X44750Y-23535D01*
X44764Y-23550D01*
X44778Y-23578D01*
X44778Y-23650D01*
X44764Y-23678D01*
X44750Y-23692D01*
X44721Y-23707D01*
X44664Y-23707D01*
X44635Y-23692D01*
X44621Y-23678D01*
X44607Y-23650D01*
X44421Y-23521D02*
X44392Y-23521D01*
X44364Y-23535D01*
X44350Y-23550D01*
X44335Y-23578D01*
X44321Y-23635D01*
X44321Y-23707D01*
X44335Y-23764D01*
X44350Y-23792D01*
X44364Y-23807D01*
X44392Y-23821D01*
X44421Y-23821D01*
X44450Y-23807D01*
X44464Y-23792D01*
X44478Y-23764D01*
X44492Y-23707D01*
X44492Y-23635D01*
X44478Y-23578D01*
X44464Y-23550D01*
X44450Y-23535D01*
X44421Y-23521D01*
X39392Y-25971D02*
X39492Y-25828D01*
X39564Y-25971D02*
X39564Y-25671D01*
X39450Y-25671D01*
X39421Y-25685D01*
X39407Y-25700D01*
X39392Y-25728D01*
X39392Y-25771D01*
X39407Y-25800D01*
X39421Y-25814D01*
X39450Y-25828D01*
X39564Y-25828D01*
X39250Y-25971D02*
X39192Y-25971D01*
X39164Y-25957D01*
X39150Y-25942D01*
X39121Y-25900D01*
X39107Y-25842D01*
X39107Y-25728D01*
X39121Y-25700D01*
X39135Y-25685D01*
X39164Y-25671D01*
X39221Y-25671D01*
X39250Y-25685D01*
X39264Y-25700D01*
X39278Y-25728D01*
X39278Y-25800D01*
X39264Y-25828D01*
X39250Y-25842D01*
X39221Y-25857D01*
X39164Y-25857D01*
X39135Y-25842D01*
X39121Y-25828D01*
X39107Y-25800D01*
X38992Y-25700D02*
X38978Y-25685D01*
X38950Y-25671D01*
X38878Y-25671D01*
X38850Y-25685D01*
X38835Y-25700D01*
X38821Y-25728D01*
X38821Y-25757D01*
X38835Y-25800D01*
X39007Y-25971D01*
X38821Y-25971D01*
X37892Y-9721D02*
X37992Y-9578D01*
X38064Y-9721D02*
X38064Y-9421D01*
X37950Y-9421D01*
X37921Y-9435D01*
X37907Y-9450D01*
X37892Y-9478D01*
X37892Y-9521D01*
X37907Y-9550D01*
X37921Y-9564D01*
X37950Y-9578D01*
X38064Y-9578D01*
X37635Y-9421D02*
X37692Y-9421D01*
X37721Y-9435D01*
X37735Y-9450D01*
X37764Y-9492D01*
X37778Y-9550D01*
X37778Y-9664D01*
X37764Y-9692D01*
X37750Y-9707D01*
X37721Y-9721D01*
X37664Y-9721D01*
X37635Y-9707D01*
X37621Y-9692D01*
X37607Y-9664D01*
X37607Y-9592D01*
X37621Y-9564D01*
X37635Y-9550D01*
X37664Y-9535D01*
X37721Y-9535D01*
X37750Y-9550D01*
X37764Y-9564D01*
X37778Y-9592D01*
X37507Y-9421D02*
X37307Y-9421D01*
X37435Y-9721D01*
X51942Y-9771D02*
X52042Y-9628D01*
X52114Y-9771D02*
X52114Y-9471D01*
X52000Y-9471D01*
X51971Y-9485D01*
X51957Y-9500D01*
X51942Y-9528D01*
X51942Y-9571D01*
X51957Y-9600D01*
X51971Y-9614D01*
X52000Y-9628D01*
X52114Y-9628D01*
X51685Y-9471D02*
X51742Y-9471D01*
X51771Y-9485D01*
X51785Y-9500D01*
X51814Y-9542D01*
X51828Y-9600D01*
X51828Y-9714D01*
X51814Y-9742D01*
X51800Y-9757D01*
X51771Y-9771D01*
X51714Y-9771D01*
X51685Y-9757D01*
X51671Y-9742D01*
X51657Y-9714D01*
X51657Y-9642D01*
X51671Y-9614D01*
X51685Y-9600D01*
X51714Y-9585D01*
X51771Y-9585D01*
X51800Y-9600D01*
X51814Y-9614D01*
X51828Y-9642D01*
X51385Y-9471D02*
X51528Y-9471D01*
X51542Y-9614D01*
X51528Y-9600D01*
X51500Y-9585D01*
X51428Y-9585D01*
X51400Y-9600D01*
X51385Y-9614D01*
X51371Y-9642D01*
X51371Y-9714D01*
X51385Y-9742D01*
X51400Y-9757D01*
X51428Y-9771D01*
X51500Y-9771D01*
X51528Y-9757D01*
X51542Y-9742D01*
X44892Y-9771D02*
X44992Y-9628D01*
X45064Y-9771D02*
X45064Y-9471D01*
X44950Y-9471D01*
X44921Y-9485D01*
X44907Y-9500D01*
X44892Y-9528D01*
X44892Y-9571D01*
X44907Y-9600D01*
X44921Y-9614D01*
X44950Y-9628D01*
X45064Y-9628D01*
X44635Y-9471D02*
X44692Y-9471D01*
X44721Y-9485D01*
X44735Y-9500D01*
X44764Y-9542D01*
X44778Y-9600D01*
X44778Y-9714D01*
X44764Y-9742D01*
X44750Y-9757D01*
X44721Y-9771D01*
X44664Y-9771D01*
X44635Y-9757D01*
X44621Y-9742D01*
X44607Y-9714D01*
X44607Y-9642D01*
X44621Y-9614D01*
X44635Y-9600D01*
X44664Y-9585D01*
X44721Y-9585D01*
X44750Y-9600D01*
X44764Y-9614D01*
X44778Y-9642D01*
X44350Y-9471D02*
X44407Y-9471D01*
X44435Y-9485D01*
X44450Y-9500D01*
X44478Y-9542D01*
X44492Y-9600D01*
X44492Y-9714D01*
X44478Y-9742D01*
X44464Y-9757D01*
X44435Y-9771D01*
X44378Y-9771D01*
X44350Y-9757D01*
X44335Y-9742D01*
X44321Y-9714D01*
X44321Y-9642D01*
X44335Y-9614D01*
X44350Y-9600D01*
X44378Y-9585D01*
X44435Y-9585D01*
X44464Y-9600D01*
X44478Y-9614D01*
X44492Y-9642D01*
X39392Y-11971D02*
X39492Y-11828D01*
X39564Y-11971D02*
X39564Y-11671D01*
X39450Y-11671D01*
X39421Y-11685D01*
X39407Y-11700D01*
X39392Y-11728D01*
X39392Y-11771D01*
X39407Y-11800D01*
X39421Y-11814D01*
X39450Y-11828D01*
X39564Y-11828D01*
X39135Y-11671D02*
X39192Y-11671D01*
X39221Y-11685D01*
X39235Y-11700D01*
X39264Y-11742D01*
X39278Y-11800D01*
X39278Y-11914D01*
X39264Y-11942D01*
X39250Y-11957D01*
X39221Y-11971D01*
X39164Y-11971D01*
X39135Y-11957D01*
X39121Y-11942D01*
X39107Y-11914D01*
X39107Y-11842D01*
X39121Y-11814D01*
X39135Y-11800D01*
X39164Y-11785D01*
X39221Y-11785D01*
X39250Y-11800D01*
X39264Y-11814D01*
X39278Y-11842D01*
X38935Y-11800D02*
X38964Y-11785D01*
X38978Y-11771D01*
X38992Y-11742D01*
X38992Y-11728D01*
X38978Y-11700D01*
X38964Y-11685D01*
X38935Y-11671D01*
X38878Y-11671D01*
X38850Y-11685D01*
X38835Y-11700D01*
X38821Y-11728D01*
X38821Y-11742D01*
X38835Y-11771D01*
X38850Y-11785D01*
X38878Y-11800D01*
X38935Y-11800D01*
X38964Y-11814D01*
X38978Y-11828D01*
X38992Y-11857D01*
X38992Y-11914D01*
X38978Y-11942D01*
X38964Y-11957D01*
X38935Y-11971D01*
X38878Y-11971D01*
X38850Y-11957D01*
X38835Y-11942D01*
X38821Y-11914D01*
X38821Y-11857D01*
X38835Y-11828D01*
X38850Y-11814D01*
X38878Y-11800D01*
X60392Y-18971D02*
X60492Y-18828D01*
X60564Y-18971D02*
X60564Y-18671D01*
X60450Y-18671D01*
X60421Y-18685D01*
X60407Y-18700D01*
X60392Y-18728D01*
X60392Y-18771D01*
X60407Y-18800D01*
X60421Y-18814D01*
X60450Y-18828D01*
X60564Y-18828D01*
X60292Y-18671D02*
X60092Y-18671D01*
X60221Y-18971D01*
X59835Y-18671D02*
X59978Y-18671D01*
X59992Y-18814D01*
X59978Y-18800D01*
X59950Y-18785D01*
X59878Y-18785D01*
X59850Y-18800D01*
X59835Y-18814D01*
X59821Y-18842D01*
X59821Y-18914D01*
X59835Y-18942D01*
X59850Y-18957D01*
X59878Y-18971D01*
X59950Y-18971D01*
X59978Y-18957D01*
X59992Y-18942D01*
X51942Y-14171D02*
X52042Y-14028D01*
X52114Y-14171D02*
X52114Y-13871D01*
X52000Y-13871D01*
X51971Y-13885D01*
X51957Y-13900D01*
X51942Y-13928D01*
X51942Y-13971D01*
X51957Y-14000D01*
X51971Y-14014D01*
X52000Y-14028D01*
X52114Y-14028D01*
X51842Y-13871D02*
X51642Y-13871D01*
X51771Y-14171D01*
X51371Y-14171D02*
X51542Y-14171D01*
X51457Y-14171D02*
X51457Y-13871D01*
X51485Y-13914D01*
X51514Y-13942D01*
X51542Y-13957D01*
X44892Y-14171D02*
X44992Y-14028D01*
X45064Y-14171D02*
X45064Y-13871D01*
X44950Y-13871D01*
X44921Y-13885D01*
X44907Y-13900D01*
X44892Y-13928D01*
X44892Y-13971D01*
X44907Y-14000D01*
X44921Y-14014D01*
X44950Y-14028D01*
X45064Y-14028D01*
X44792Y-13871D02*
X44592Y-13871D01*
X44721Y-14171D01*
X44492Y-13900D02*
X44478Y-13885D01*
X44450Y-13871D01*
X44378Y-13871D01*
X44350Y-13885D01*
X44335Y-13900D01*
X44321Y-13928D01*
X44321Y-13957D01*
X44335Y-14000D01*
X44507Y-14171D01*
X44321Y-14171D01*
X58892Y-16771D02*
X58992Y-16628D01*
X59064Y-16771D02*
X59064Y-16471D01*
X58950Y-16471D01*
X58921Y-16485D01*
X58907Y-16500D01*
X58892Y-16528D01*
X58892Y-16571D01*
X58907Y-16600D01*
X58921Y-16614D01*
X58950Y-16628D01*
X59064Y-16628D01*
X58792Y-16471D02*
X58592Y-16471D01*
X58721Y-16771D01*
X58350Y-16471D02*
X58407Y-16471D01*
X58435Y-16485D01*
X58450Y-16500D01*
X58478Y-16542D01*
X58492Y-16600D01*
X58492Y-16714D01*
X58478Y-16742D01*
X58464Y-16757D01*
X58435Y-16771D01*
X58378Y-16771D01*
X58350Y-16757D01*
X58335Y-16742D01*
X58321Y-16714D01*
X58321Y-16642D01*
X58335Y-16614D01*
X58350Y-16600D01*
X58378Y-16585D01*
X58435Y-16585D01*
X58464Y-16600D01*
X58478Y-16614D01*
X58492Y-16642D01*
X58892Y-14171D02*
X58992Y-14028D01*
X59064Y-14171D02*
X59064Y-13871D01*
X58950Y-13871D01*
X58921Y-13885D01*
X58907Y-13900D01*
X58892Y-13928D01*
X58892Y-13971D01*
X58907Y-14000D01*
X58921Y-14014D01*
X58950Y-14028D01*
X59064Y-14028D01*
X58635Y-13871D02*
X58692Y-13871D01*
X58721Y-13885D01*
X58735Y-13900D01*
X58764Y-13942D01*
X58778Y-14000D01*
X58778Y-14114D01*
X58764Y-14142D01*
X58750Y-14157D01*
X58721Y-14171D01*
X58664Y-14171D01*
X58635Y-14157D01*
X58621Y-14142D01*
X58607Y-14114D01*
X58607Y-14042D01*
X58621Y-14014D01*
X58635Y-14000D01*
X58664Y-13985D01*
X58721Y-13985D01*
X58750Y-14000D01*
X58764Y-14014D01*
X58778Y-14042D01*
X58464Y-14171D02*
X58407Y-14171D01*
X58378Y-14157D01*
X58364Y-14142D01*
X58335Y-14100D01*
X58321Y-14042D01*
X58321Y-13928D01*
X58335Y-13900D01*
X58350Y-13885D01*
X58378Y-13871D01*
X58435Y-13871D01*
X58464Y-13885D01*
X58478Y-13900D01*
X58492Y-13928D01*
X58492Y-14000D01*
X58478Y-14028D01*
X58464Y-14042D01*
X58435Y-14057D01*
X58378Y-14057D01*
X58350Y-14042D01*
X58335Y-14028D01*
X58321Y-14000D01*
X59035Y-37771D02*
X59135Y-37628D01*
X59207Y-37771D02*
X59207Y-37471D01*
X59092Y-37471D01*
X59064Y-37485D01*
X59050Y-37500D01*
X59035Y-37528D01*
X59035Y-37571D01*
X59050Y-37600D01*
X59064Y-37614D01*
X59092Y-37628D01*
X59207Y-37628D01*
X58750Y-37771D02*
X58921Y-37771D01*
X58835Y-37771D02*
X58835Y-37471D01*
X58864Y-37514D01*
X58892Y-37542D01*
X58921Y-37557D01*
X58464Y-37771D02*
X58635Y-37771D01*
X58550Y-37771D02*
X58550Y-37471D01*
X58578Y-37514D01*
X58607Y-37542D01*
X58635Y-37557D01*
X58364Y-37471D02*
X58178Y-37471D01*
X58278Y-37585D01*
X58235Y-37585D01*
X58207Y-37600D01*
X58192Y-37614D01*
X58178Y-37642D01*
X58178Y-37714D01*
X58192Y-37742D01*
X58207Y-37757D01*
X58235Y-37771D01*
X58321Y-37771D01*
X58350Y-37757D01*
X58364Y-37742D01*
X60685Y-39971D02*
X60785Y-39828D01*
X60857Y-39971D02*
X60857Y-39671D01*
X60742Y-39671D01*
X60714Y-39685D01*
X60700Y-39700D01*
X60685Y-39728D01*
X60685Y-39771D01*
X60700Y-39800D01*
X60714Y-39814D01*
X60742Y-39828D01*
X60857Y-39828D01*
X60400Y-39971D02*
X60571Y-39971D01*
X60485Y-39971D02*
X60485Y-39671D01*
X60514Y-39714D01*
X60542Y-39742D01*
X60571Y-39757D01*
X60114Y-39971D02*
X60285Y-39971D01*
X60200Y-39971D02*
X60200Y-39671D01*
X60228Y-39714D01*
X60257Y-39742D01*
X60285Y-39757D01*
X59857Y-39771D02*
X59857Y-39971D01*
X59928Y-39657D02*
X60000Y-39871D01*
X59814Y-39871D01*
X45035Y-37771D02*
X45135Y-37628D01*
X45207Y-37771D02*
X45207Y-37471D01*
X45092Y-37471D01*
X45064Y-37485D01*
X45050Y-37500D01*
X45035Y-37528D01*
X45035Y-37571D01*
X45050Y-37600D01*
X45064Y-37614D01*
X45092Y-37628D01*
X45207Y-37628D01*
X44750Y-37771D02*
X44921Y-37771D01*
X44835Y-37771D02*
X44835Y-37471D01*
X44864Y-37514D01*
X44892Y-37542D01*
X44921Y-37557D01*
X44464Y-37771D02*
X44635Y-37771D01*
X44550Y-37771D02*
X44550Y-37471D01*
X44578Y-37514D01*
X44607Y-37542D01*
X44635Y-37557D01*
X44207Y-37471D02*
X44264Y-37471D01*
X44292Y-37485D01*
X44307Y-37500D01*
X44335Y-37542D01*
X44350Y-37600D01*
X44350Y-37714D01*
X44335Y-37742D01*
X44321Y-37757D01*
X44292Y-37771D01*
X44235Y-37771D01*
X44207Y-37757D01*
X44192Y-37742D01*
X44178Y-37714D01*
X44178Y-37642D01*
X44192Y-37614D01*
X44207Y-37600D01*
X44235Y-37585D01*
X44292Y-37585D01*
X44321Y-37600D01*
X44335Y-37614D01*
X44350Y-37642D01*
X38035Y-42171D02*
X38135Y-42028D01*
X38207Y-42171D02*
X38207Y-41871D01*
X38092Y-41871D01*
X38064Y-41885D01*
X38050Y-41900D01*
X38035Y-41928D01*
X38035Y-41971D01*
X38050Y-42000D01*
X38064Y-42014D01*
X38092Y-42028D01*
X38207Y-42028D01*
X37750Y-42171D02*
X37921Y-42171D01*
X37835Y-42171D02*
X37835Y-41871D01*
X37864Y-41914D01*
X37892Y-41942D01*
X37921Y-41957D01*
X37635Y-41900D02*
X37621Y-41885D01*
X37592Y-41871D01*
X37521Y-41871D01*
X37492Y-41885D01*
X37478Y-41900D01*
X37464Y-41928D01*
X37464Y-41957D01*
X37478Y-42000D01*
X37650Y-42171D01*
X37464Y-42171D01*
X37364Y-41871D02*
X37178Y-41871D01*
X37278Y-41985D01*
X37235Y-41985D01*
X37207Y-42000D01*
X37192Y-42014D01*
X37178Y-42042D01*
X37178Y-42114D01*
X37192Y-42142D01*
X37207Y-42157D01*
X37235Y-42171D01*
X37321Y-42171D01*
X37350Y-42157D01*
X37364Y-42142D01*
X58985Y-42171D02*
X59085Y-42028D01*
X59157Y-42171D02*
X59157Y-41871D01*
X59042Y-41871D01*
X59014Y-41885D01*
X59000Y-41900D01*
X58985Y-41928D01*
X58985Y-41971D01*
X59000Y-42000D01*
X59014Y-42014D01*
X59042Y-42028D01*
X59157Y-42028D01*
X58700Y-42171D02*
X58871Y-42171D01*
X58785Y-42171D02*
X58785Y-41871D01*
X58814Y-41914D01*
X58842Y-41942D01*
X58871Y-41957D01*
X58414Y-42171D02*
X58585Y-42171D01*
X58500Y-42171D02*
X58500Y-41871D01*
X58528Y-41914D01*
X58557Y-41942D01*
X58585Y-41957D01*
X58271Y-42171D02*
X58214Y-42171D01*
X58185Y-42157D01*
X58171Y-42142D01*
X58142Y-42100D01*
X58128Y-42042D01*
X58128Y-41928D01*
X58142Y-41900D01*
X58157Y-41885D01*
X58185Y-41871D01*
X58242Y-41871D01*
X58271Y-41885D01*
X58285Y-41900D01*
X58300Y-41928D01*
X58300Y-42000D01*
X58285Y-42028D01*
X58271Y-42042D01*
X58242Y-42057D01*
X58185Y-42057D01*
X58157Y-42042D01*
X58142Y-42028D01*
X58128Y-42000D01*
X45035Y-42171D02*
X45135Y-42028D01*
X45207Y-42171D02*
X45207Y-41871D01*
X45092Y-41871D01*
X45064Y-41885D01*
X45050Y-41900D01*
X45035Y-41928D01*
X45035Y-41971D01*
X45050Y-42000D01*
X45064Y-42014D01*
X45092Y-42028D01*
X45207Y-42028D01*
X44750Y-42171D02*
X44921Y-42171D01*
X44835Y-42171D02*
X44835Y-41871D01*
X44864Y-41914D01*
X44892Y-41942D01*
X44921Y-41957D01*
X44635Y-41900D02*
X44621Y-41885D01*
X44592Y-41871D01*
X44521Y-41871D01*
X44492Y-41885D01*
X44478Y-41900D01*
X44464Y-41928D01*
X44464Y-41957D01*
X44478Y-42000D01*
X44650Y-42171D01*
X44464Y-42171D01*
X44350Y-41900D02*
X44335Y-41885D01*
X44307Y-41871D01*
X44235Y-41871D01*
X44207Y-41885D01*
X44192Y-41900D01*
X44178Y-41928D01*
X44178Y-41957D01*
X44192Y-42000D01*
X44364Y-42171D01*
X44178Y-42171D01*
X39685Y-39971D02*
X39785Y-39828D01*
X39857Y-39971D02*
X39857Y-39671D01*
X39742Y-39671D01*
X39714Y-39685D01*
X39700Y-39700D01*
X39685Y-39728D01*
X39685Y-39771D01*
X39700Y-39800D01*
X39714Y-39814D01*
X39742Y-39828D01*
X39857Y-39828D01*
X39400Y-39971D02*
X39571Y-39971D01*
X39485Y-39971D02*
X39485Y-39671D01*
X39514Y-39714D01*
X39542Y-39742D01*
X39571Y-39757D01*
X39114Y-39971D02*
X39285Y-39971D01*
X39200Y-39971D02*
X39200Y-39671D01*
X39228Y-39714D01*
X39257Y-39742D01*
X39285Y-39757D01*
X38942Y-39800D02*
X38971Y-39785D01*
X38985Y-39771D01*
X39000Y-39742D01*
X39000Y-39728D01*
X38985Y-39700D01*
X38971Y-39685D01*
X38942Y-39671D01*
X38885Y-39671D01*
X38857Y-39685D01*
X38842Y-39700D01*
X38828Y-39728D01*
X38828Y-39742D01*
X38842Y-39771D01*
X38857Y-39785D01*
X38885Y-39800D01*
X38942Y-39800D01*
X38971Y-39814D01*
X38985Y-39828D01*
X39000Y-39857D01*
X39000Y-39914D01*
X38985Y-39942D01*
X38971Y-39957D01*
X38942Y-39971D01*
X38885Y-39971D01*
X38857Y-39957D01*
X38842Y-39942D01*
X38828Y-39914D01*
X38828Y-39857D01*
X38842Y-39828D01*
X38857Y-39814D01*
X38885Y-39800D01*
X38035Y-37771D02*
X38135Y-37628D01*
X38207Y-37771D02*
X38207Y-37471D01*
X38092Y-37471D01*
X38064Y-37485D01*
X38050Y-37500D01*
X38035Y-37528D01*
X38035Y-37571D01*
X38050Y-37600D01*
X38064Y-37614D01*
X38092Y-37628D01*
X38207Y-37628D01*
X37750Y-37771D02*
X37921Y-37771D01*
X37835Y-37771D02*
X37835Y-37471D01*
X37864Y-37514D01*
X37892Y-37542D01*
X37921Y-37557D01*
X37464Y-37771D02*
X37635Y-37771D01*
X37550Y-37771D02*
X37550Y-37471D01*
X37578Y-37514D01*
X37607Y-37542D01*
X37635Y-37557D01*
X37364Y-37471D02*
X37164Y-37471D01*
X37292Y-37771D01*
X59035Y-35171D02*
X59135Y-35028D01*
X59207Y-35171D02*
X59207Y-34871D01*
X59092Y-34871D01*
X59064Y-34885D01*
X59050Y-34900D01*
X59035Y-34928D01*
X59035Y-34971D01*
X59050Y-35000D01*
X59064Y-35014D01*
X59092Y-35028D01*
X59207Y-35028D01*
X58750Y-35171D02*
X58921Y-35171D01*
X58835Y-35171D02*
X58835Y-34871D01*
X58864Y-34914D01*
X58892Y-34942D01*
X58921Y-34957D01*
X58564Y-34871D02*
X58535Y-34871D01*
X58507Y-34885D01*
X58492Y-34900D01*
X58478Y-34928D01*
X58464Y-34985D01*
X58464Y-35057D01*
X58478Y-35114D01*
X58492Y-35142D01*
X58507Y-35157D01*
X58535Y-35171D01*
X58564Y-35171D01*
X58592Y-35157D01*
X58607Y-35142D01*
X58621Y-35114D01*
X58635Y-35057D01*
X58635Y-34985D01*
X58621Y-34928D01*
X58607Y-34900D01*
X58592Y-34885D01*
X58564Y-34871D01*
X58292Y-35000D02*
X58321Y-34985D01*
X58335Y-34971D01*
X58350Y-34942D01*
X58350Y-34928D01*
X58335Y-34900D01*
X58321Y-34885D01*
X58292Y-34871D01*
X58235Y-34871D01*
X58207Y-34885D01*
X58192Y-34900D01*
X58178Y-34928D01*
X58178Y-34942D01*
X58192Y-34971D01*
X58207Y-34985D01*
X58235Y-35000D01*
X58292Y-35000D01*
X58321Y-35014D01*
X58335Y-35028D01*
X58350Y-35057D01*
X58350Y-35114D01*
X58335Y-35142D01*
X58321Y-35157D01*
X58292Y-35171D01*
X58235Y-35171D01*
X58207Y-35157D01*
X58192Y-35142D01*
X58178Y-35114D01*
X58178Y-35057D01*
X58192Y-35028D01*
X58207Y-35014D01*
X58235Y-35000D01*
X38035Y-30771D02*
X38135Y-30628D01*
X38207Y-30771D02*
X38207Y-30471D01*
X38092Y-30471D01*
X38064Y-30485D01*
X38050Y-30500D01*
X38035Y-30528D01*
X38035Y-30571D01*
X38050Y-30600D01*
X38064Y-30614D01*
X38092Y-30628D01*
X38207Y-30628D01*
X37750Y-30771D02*
X37921Y-30771D01*
X37835Y-30771D02*
X37835Y-30471D01*
X37864Y-30514D01*
X37892Y-30542D01*
X37921Y-30557D01*
X37564Y-30471D02*
X37535Y-30471D01*
X37507Y-30485D01*
X37492Y-30500D01*
X37478Y-30528D01*
X37464Y-30585D01*
X37464Y-30657D01*
X37478Y-30714D01*
X37492Y-30742D01*
X37507Y-30757D01*
X37535Y-30771D01*
X37564Y-30771D01*
X37592Y-30757D01*
X37607Y-30742D01*
X37621Y-30714D01*
X37635Y-30657D01*
X37635Y-30585D01*
X37621Y-30528D01*
X37607Y-30500D01*
X37592Y-30485D01*
X37564Y-30471D01*
X37192Y-30471D02*
X37335Y-30471D01*
X37350Y-30614D01*
X37335Y-30600D01*
X37307Y-30585D01*
X37235Y-30585D01*
X37207Y-30600D01*
X37192Y-30614D01*
X37178Y-30642D01*
X37178Y-30714D01*
X37192Y-30742D01*
X37207Y-30757D01*
X37235Y-30771D01*
X37307Y-30771D01*
X37335Y-30757D01*
X37350Y-30742D01*
X60685Y-32971D02*
X60785Y-32828D01*
X60857Y-32971D02*
X60857Y-32671D01*
X60742Y-32671D01*
X60714Y-32685D01*
X60700Y-32700D01*
X60685Y-32728D01*
X60685Y-32771D01*
X60700Y-32800D01*
X60714Y-32814D01*
X60742Y-32828D01*
X60857Y-32828D01*
X60400Y-32971D02*
X60571Y-32971D01*
X60485Y-32971D02*
X60485Y-32671D01*
X60514Y-32714D01*
X60542Y-32742D01*
X60571Y-32757D01*
X60214Y-32671D02*
X60185Y-32671D01*
X60157Y-32685D01*
X60142Y-32700D01*
X60128Y-32728D01*
X60114Y-32785D01*
X60114Y-32857D01*
X60128Y-32914D01*
X60142Y-32942D01*
X60157Y-32957D01*
X60185Y-32971D01*
X60214Y-32971D01*
X60242Y-32957D01*
X60257Y-32942D01*
X60271Y-32914D01*
X60285Y-32857D01*
X60285Y-32785D01*
X60271Y-32728D01*
X60257Y-32700D01*
X60242Y-32685D01*
X60214Y-32671D01*
X59828Y-32971D02*
X60000Y-32971D01*
X59914Y-32971D02*
X59914Y-32671D01*
X59942Y-32714D01*
X59971Y-32742D01*
X60000Y-32757D01*
X45035Y-30771D02*
X45135Y-30628D01*
X45207Y-30771D02*
X45207Y-30471D01*
X45092Y-30471D01*
X45064Y-30485D01*
X45050Y-30500D01*
X45035Y-30528D01*
X45035Y-30571D01*
X45050Y-30600D01*
X45064Y-30614D01*
X45092Y-30628D01*
X45207Y-30628D01*
X44750Y-30771D02*
X44921Y-30771D01*
X44835Y-30771D02*
X44835Y-30471D01*
X44864Y-30514D01*
X44892Y-30542D01*
X44921Y-30557D01*
X44564Y-30471D02*
X44535Y-30471D01*
X44507Y-30485D01*
X44492Y-30500D01*
X44478Y-30528D01*
X44464Y-30585D01*
X44464Y-30657D01*
X44478Y-30714D01*
X44492Y-30742D01*
X44507Y-30757D01*
X44535Y-30771D01*
X44564Y-30771D01*
X44592Y-30757D01*
X44607Y-30742D01*
X44621Y-30714D01*
X44635Y-30657D01*
X44635Y-30585D01*
X44621Y-30528D01*
X44607Y-30500D01*
X44592Y-30485D01*
X44564Y-30471D01*
X44207Y-30571D02*
X44207Y-30771D01*
X44278Y-30457D02*
X44350Y-30671D01*
X44164Y-30671D01*
X45035Y-35171D02*
X45135Y-35028D01*
X45207Y-35171D02*
X45207Y-34871D01*
X45092Y-34871D01*
X45064Y-34885D01*
X45050Y-34900D01*
X45035Y-34928D01*
X45035Y-34971D01*
X45050Y-35000D01*
X45064Y-35014D01*
X45092Y-35028D01*
X45207Y-35028D01*
X44750Y-35171D02*
X44921Y-35171D01*
X44835Y-35171D02*
X44835Y-34871D01*
X44864Y-34914D01*
X44892Y-34942D01*
X44921Y-34957D01*
X44464Y-35171D02*
X44635Y-35171D01*
X44550Y-35171D02*
X44550Y-34871D01*
X44578Y-34914D01*
X44607Y-34942D01*
X44635Y-34957D01*
X44278Y-34871D02*
X44250Y-34871D01*
X44221Y-34885D01*
X44207Y-34900D01*
X44192Y-34928D01*
X44178Y-34985D01*
X44178Y-35057D01*
X44192Y-35114D01*
X44207Y-35142D01*
X44221Y-35157D01*
X44250Y-35171D01*
X44278Y-35171D01*
X44307Y-35157D01*
X44321Y-35142D01*
X44335Y-35114D01*
X44350Y-35057D01*
X44350Y-34985D01*
X44335Y-34928D01*
X44321Y-34900D01*
X44307Y-34885D01*
X44278Y-34871D01*
X52035Y-35171D02*
X52135Y-35028D01*
X52207Y-35171D02*
X52207Y-34871D01*
X52092Y-34871D01*
X52064Y-34885D01*
X52050Y-34900D01*
X52035Y-34928D01*
X52035Y-34971D01*
X52050Y-35000D01*
X52064Y-35014D01*
X52092Y-35028D01*
X52207Y-35028D01*
X51750Y-35171D02*
X51921Y-35171D01*
X51835Y-35171D02*
X51835Y-34871D01*
X51864Y-34914D01*
X51892Y-34942D01*
X51921Y-34957D01*
X51564Y-34871D02*
X51535Y-34871D01*
X51507Y-34885D01*
X51492Y-34900D01*
X51478Y-34928D01*
X51464Y-34985D01*
X51464Y-35057D01*
X51478Y-35114D01*
X51492Y-35142D01*
X51507Y-35157D01*
X51535Y-35171D01*
X51564Y-35171D01*
X51592Y-35157D01*
X51607Y-35142D01*
X51621Y-35114D01*
X51635Y-35057D01*
X51635Y-34985D01*
X51621Y-34928D01*
X51607Y-34900D01*
X51592Y-34885D01*
X51564Y-34871D01*
X51321Y-35171D02*
X51264Y-35171D01*
X51235Y-35157D01*
X51221Y-35142D01*
X51192Y-35100D01*
X51178Y-35042D01*
X51178Y-34928D01*
X51192Y-34900D01*
X51207Y-34885D01*
X51235Y-34871D01*
X51292Y-34871D01*
X51321Y-34885D01*
X51335Y-34900D01*
X51350Y-34928D01*
X51350Y-35000D01*
X51335Y-35028D01*
X51321Y-35042D01*
X51292Y-35057D01*
X51235Y-35057D01*
X51207Y-35042D01*
X51192Y-35028D01*
X51178Y-35000D01*
X38035Y-35171D02*
X38135Y-35028D01*
X38207Y-35171D02*
X38207Y-34871D01*
X38092Y-34871D01*
X38064Y-34885D01*
X38050Y-34900D01*
X38035Y-34928D01*
X38035Y-34971D01*
X38050Y-35000D01*
X38064Y-35014D01*
X38092Y-35028D01*
X38207Y-35028D01*
X37750Y-35171D02*
X37921Y-35171D01*
X37835Y-35171D02*
X37835Y-34871D01*
X37864Y-34914D01*
X37892Y-34942D01*
X37921Y-34957D01*
X37464Y-35171D02*
X37635Y-35171D01*
X37550Y-35171D02*
X37550Y-34871D01*
X37578Y-34914D01*
X37607Y-34942D01*
X37635Y-34957D01*
X37178Y-35171D02*
X37350Y-35171D01*
X37264Y-35171D02*
X37264Y-34871D01*
X37292Y-34914D01*
X37321Y-34942D01*
X37350Y-34957D01*
X52035Y-42171D02*
X52135Y-42028D01*
X52207Y-42171D02*
X52207Y-41871D01*
X52092Y-41871D01*
X52064Y-41885D01*
X52050Y-41900D01*
X52035Y-41928D01*
X52035Y-41971D01*
X52050Y-42000D01*
X52064Y-42014D01*
X52092Y-42028D01*
X52207Y-42028D01*
X51750Y-42171D02*
X51921Y-42171D01*
X51835Y-42171D02*
X51835Y-41871D01*
X51864Y-41914D01*
X51892Y-41942D01*
X51921Y-41957D01*
X51635Y-41900D02*
X51621Y-41885D01*
X51592Y-41871D01*
X51521Y-41871D01*
X51492Y-41885D01*
X51478Y-41900D01*
X51464Y-41928D01*
X51464Y-41957D01*
X51478Y-42000D01*
X51650Y-42171D01*
X51464Y-42171D01*
X51178Y-42171D02*
X51350Y-42171D01*
X51264Y-42171D02*
X51264Y-41871D01*
X51292Y-41914D01*
X51321Y-41942D01*
X51350Y-41957D01*
X51892Y-28171D02*
X51992Y-28028D01*
X52064Y-28171D02*
X52064Y-27871D01*
X51950Y-27871D01*
X51921Y-27885D01*
X51907Y-27900D01*
X51892Y-27928D01*
X51892Y-27971D01*
X51907Y-28000D01*
X51921Y-28014D01*
X51950Y-28028D01*
X52064Y-28028D01*
X51750Y-28171D02*
X51692Y-28171D01*
X51664Y-28157D01*
X51650Y-28142D01*
X51621Y-28100D01*
X51607Y-28042D01*
X51607Y-27928D01*
X51621Y-27900D01*
X51635Y-27885D01*
X51664Y-27871D01*
X51721Y-27871D01*
X51750Y-27885D01*
X51764Y-27900D01*
X51778Y-27928D01*
X51778Y-28000D01*
X51764Y-28028D01*
X51750Y-28042D01*
X51721Y-28057D01*
X51664Y-28057D01*
X51635Y-28042D01*
X51621Y-28028D01*
X51607Y-28000D01*
X51335Y-27871D02*
X51478Y-27871D01*
X51492Y-28014D01*
X51478Y-28000D01*
X51450Y-27985D01*
X51378Y-27985D01*
X51350Y-28000D01*
X51335Y-28014D01*
X51321Y-28042D01*
X51321Y-28114D01*
X51335Y-28142D01*
X51350Y-28157D01*
X51378Y-28171D01*
X51450Y-28171D01*
X51478Y-28157D01*
X51492Y-28142D01*
X44892Y-28121D02*
X44992Y-27978D01*
X45064Y-28121D02*
X45064Y-27821D01*
X44950Y-27821D01*
X44921Y-27835D01*
X44907Y-27850D01*
X44892Y-27878D01*
X44892Y-27921D01*
X44907Y-27950D01*
X44921Y-27964D01*
X44950Y-27978D01*
X45064Y-27978D01*
X44750Y-28121D02*
X44692Y-28121D01*
X44664Y-28107D01*
X44650Y-28092D01*
X44621Y-28050D01*
X44607Y-27992D01*
X44607Y-27878D01*
X44621Y-27850D01*
X44635Y-27835D01*
X44664Y-27821D01*
X44721Y-27821D01*
X44750Y-27835D01*
X44764Y-27850D01*
X44778Y-27878D01*
X44778Y-27950D01*
X44764Y-27978D01*
X44750Y-27992D01*
X44721Y-28007D01*
X44664Y-28007D01*
X44635Y-27992D01*
X44621Y-27978D01*
X44607Y-27950D01*
X44350Y-27821D02*
X44407Y-27821D01*
X44435Y-27835D01*
X44450Y-27850D01*
X44478Y-27892D01*
X44492Y-27950D01*
X44492Y-28064D01*
X44478Y-28092D01*
X44464Y-28107D01*
X44435Y-28121D01*
X44378Y-28121D01*
X44350Y-28107D01*
X44335Y-28092D01*
X44321Y-28064D01*
X44321Y-27992D01*
X44335Y-27964D01*
X44350Y-27950D01*
X44378Y-27935D01*
X44435Y-27935D01*
X44464Y-27950D01*
X44478Y-27964D01*
X44492Y-27992D01*
X58892Y-28171D02*
X58992Y-28028D01*
X59064Y-28171D02*
X59064Y-27871D01*
X58950Y-27871D01*
X58921Y-27885D01*
X58907Y-27900D01*
X58892Y-27928D01*
X58892Y-27971D01*
X58907Y-28000D01*
X58921Y-28014D01*
X58950Y-28028D01*
X59064Y-28028D01*
X58750Y-28171D02*
X58692Y-28171D01*
X58664Y-28157D01*
X58650Y-28142D01*
X58621Y-28100D01*
X58607Y-28042D01*
X58607Y-27928D01*
X58621Y-27900D01*
X58635Y-27885D01*
X58664Y-27871D01*
X58721Y-27871D01*
X58750Y-27885D01*
X58764Y-27900D01*
X58778Y-27928D01*
X58778Y-28000D01*
X58764Y-28028D01*
X58750Y-28042D01*
X58721Y-28057D01*
X58664Y-28057D01*
X58635Y-28042D01*
X58621Y-28028D01*
X58607Y-28000D01*
X58350Y-27971D02*
X58350Y-28171D01*
X58421Y-27857D02*
X58492Y-28071D01*
X58307Y-28071D01*
X44892Y-21171D02*
X44992Y-21028D01*
X45064Y-21171D02*
X45064Y-20871D01*
X44950Y-20871D01*
X44921Y-20885D01*
X44907Y-20900D01*
X44892Y-20928D01*
X44892Y-20971D01*
X44907Y-21000D01*
X44921Y-21014D01*
X44950Y-21028D01*
X45064Y-21028D01*
X44721Y-21000D02*
X44750Y-20985D01*
X44764Y-20971D01*
X44778Y-20942D01*
X44778Y-20928D01*
X44764Y-20900D01*
X44750Y-20885D01*
X44721Y-20871D01*
X44664Y-20871D01*
X44635Y-20885D01*
X44621Y-20900D01*
X44607Y-20928D01*
X44607Y-20942D01*
X44621Y-20971D01*
X44635Y-20985D01*
X44664Y-21000D01*
X44721Y-21000D01*
X44750Y-21014D01*
X44764Y-21028D01*
X44778Y-21057D01*
X44778Y-21114D01*
X44764Y-21142D01*
X44750Y-21157D01*
X44721Y-21171D01*
X44664Y-21171D01*
X44635Y-21157D01*
X44621Y-21142D01*
X44607Y-21114D01*
X44607Y-21057D01*
X44621Y-21028D01*
X44635Y-21014D01*
X44664Y-21000D01*
X44350Y-20971D02*
X44350Y-21171D01*
X44421Y-20857D02*
X44492Y-21071D01*
X44307Y-21071D01*
X51892Y-16771D02*
X51992Y-16628D01*
X52064Y-16771D02*
X52064Y-16471D01*
X51950Y-16471D01*
X51921Y-16485D01*
X51907Y-16500D01*
X51892Y-16528D01*
X51892Y-16571D01*
X51907Y-16600D01*
X51921Y-16614D01*
X51950Y-16628D01*
X52064Y-16628D01*
X51792Y-16471D02*
X51592Y-16471D01*
X51721Y-16771D01*
X51507Y-16471D02*
X51307Y-16471D01*
X51435Y-16771D01*
X39392Y-18921D02*
X39492Y-18778D01*
X39564Y-18921D02*
X39564Y-18621D01*
X39450Y-18621D01*
X39421Y-18635D01*
X39407Y-18650D01*
X39392Y-18678D01*
X39392Y-18721D01*
X39407Y-18750D01*
X39421Y-18764D01*
X39450Y-18778D01*
X39564Y-18778D01*
X39221Y-18750D02*
X39250Y-18735D01*
X39264Y-18721D01*
X39278Y-18692D01*
X39278Y-18678D01*
X39264Y-18650D01*
X39250Y-18635D01*
X39221Y-18621D01*
X39164Y-18621D01*
X39135Y-18635D01*
X39121Y-18650D01*
X39107Y-18678D01*
X39107Y-18692D01*
X39121Y-18721D01*
X39135Y-18735D01*
X39164Y-18750D01*
X39221Y-18750D01*
X39250Y-18764D01*
X39264Y-18778D01*
X39278Y-18807D01*
X39278Y-18864D01*
X39264Y-18892D01*
X39250Y-18907D01*
X39221Y-18921D01*
X39164Y-18921D01*
X39135Y-18907D01*
X39121Y-18892D01*
X39107Y-18864D01*
X39107Y-18807D01*
X39121Y-18778D01*
X39135Y-18764D01*
X39164Y-18750D01*
X38921Y-18621D02*
X38892Y-18621D01*
X38864Y-18635D01*
X38850Y-18650D01*
X38835Y-18678D01*
X38821Y-18735D01*
X38821Y-18807D01*
X38835Y-18864D01*
X38850Y-18892D01*
X38864Y-18907D01*
X38892Y-18921D01*
X38921Y-18921D01*
X38950Y-18907D01*
X38964Y-18892D01*
X38978Y-18864D01*
X38992Y-18807D01*
X38992Y-18735D01*
X38978Y-18678D01*
X38964Y-18650D01*
X38950Y-18635D01*
X38921Y-18621D01*
X37892Y-21121D02*
X37992Y-20978D01*
X38064Y-21121D02*
X38064Y-20821D01*
X37950Y-20821D01*
X37921Y-20835D01*
X37907Y-20850D01*
X37892Y-20878D01*
X37892Y-20921D01*
X37907Y-20950D01*
X37921Y-20964D01*
X37950Y-20978D01*
X38064Y-20978D01*
X37721Y-20950D02*
X37750Y-20935D01*
X37764Y-20921D01*
X37778Y-20892D01*
X37778Y-20878D01*
X37764Y-20850D01*
X37750Y-20835D01*
X37721Y-20821D01*
X37664Y-20821D01*
X37635Y-20835D01*
X37621Y-20850D01*
X37607Y-20878D01*
X37607Y-20892D01*
X37621Y-20921D01*
X37635Y-20935D01*
X37664Y-20950D01*
X37721Y-20950D01*
X37750Y-20964D01*
X37764Y-20978D01*
X37778Y-21007D01*
X37778Y-21064D01*
X37764Y-21092D01*
X37750Y-21107D01*
X37721Y-21121D01*
X37664Y-21121D01*
X37635Y-21107D01*
X37621Y-21092D01*
X37607Y-21064D01*
X37607Y-21007D01*
X37621Y-20978D01*
X37635Y-20964D01*
X37664Y-20950D01*
X37335Y-20821D02*
X37478Y-20821D01*
X37492Y-20964D01*
X37478Y-20950D01*
X37450Y-20935D01*
X37378Y-20935D01*
X37350Y-20950D01*
X37335Y-20964D01*
X37321Y-20992D01*
X37321Y-21064D01*
X37335Y-21092D01*
X37350Y-21107D01*
X37378Y-21121D01*
X37450Y-21121D01*
X37478Y-21107D01*
X37492Y-21092D01*
X60392Y-25921D02*
X60492Y-25778D01*
X60564Y-25921D02*
X60564Y-25621D01*
X60450Y-25621D01*
X60421Y-25635D01*
X60407Y-25650D01*
X60392Y-25678D01*
X60392Y-25721D01*
X60407Y-25750D01*
X60421Y-25764D01*
X60450Y-25778D01*
X60564Y-25778D01*
X60221Y-25750D02*
X60250Y-25735D01*
X60264Y-25721D01*
X60278Y-25692D01*
X60278Y-25678D01*
X60264Y-25650D01*
X60250Y-25635D01*
X60221Y-25621D01*
X60164Y-25621D01*
X60135Y-25635D01*
X60121Y-25650D01*
X60107Y-25678D01*
X60107Y-25692D01*
X60121Y-25721D01*
X60135Y-25735D01*
X60164Y-25750D01*
X60221Y-25750D01*
X60250Y-25764D01*
X60264Y-25778D01*
X60278Y-25807D01*
X60278Y-25864D01*
X60264Y-25892D01*
X60250Y-25907D01*
X60221Y-25921D01*
X60164Y-25921D01*
X60135Y-25907D01*
X60121Y-25892D01*
X60107Y-25864D01*
X60107Y-25807D01*
X60121Y-25778D01*
X60135Y-25764D01*
X60164Y-25750D01*
X60007Y-25621D02*
X59807Y-25621D01*
X59935Y-25921D01*
X58892Y-23771D02*
X58992Y-23628D01*
X59064Y-23771D02*
X59064Y-23471D01*
X58950Y-23471D01*
X58921Y-23485D01*
X58907Y-23500D01*
X58892Y-23528D01*
X58892Y-23571D01*
X58907Y-23600D01*
X58921Y-23614D01*
X58950Y-23628D01*
X59064Y-23628D01*
X58721Y-23600D02*
X58750Y-23585D01*
X58764Y-23571D01*
X58778Y-23542D01*
X58778Y-23528D01*
X58764Y-23500D01*
X58750Y-23485D01*
X58721Y-23471D01*
X58664Y-23471D01*
X58635Y-23485D01*
X58621Y-23500D01*
X58607Y-23528D01*
X58607Y-23542D01*
X58621Y-23571D01*
X58635Y-23585D01*
X58664Y-23600D01*
X58721Y-23600D01*
X58750Y-23614D01*
X58764Y-23628D01*
X58778Y-23657D01*
X58778Y-23714D01*
X58764Y-23742D01*
X58750Y-23757D01*
X58721Y-23771D01*
X58664Y-23771D01*
X58635Y-23757D01*
X58621Y-23742D01*
X58607Y-23714D01*
X58607Y-23657D01*
X58621Y-23628D01*
X58635Y-23614D01*
X58664Y-23600D01*
X58435Y-23600D02*
X58464Y-23585D01*
X58478Y-23571D01*
X58492Y-23542D01*
X58492Y-23528D01*
X58478Y-23500D01*
X58464Y-23485D01*
X58435Y-23471D01*
X58378Y-23471D01*
X58350Y-23485D01*
X58335Y-23500D01*
X58321Y-23528D01*
X58321Y-23542D01*
X58335Y-23571D01*
X58350Y-23585D01*
X58378Y-23600D01*
X58435Y-23600D01*
X58464Y-23614D01*
X58478Y-23628D01*
X58492Y-23657D01*
X58492Y-23714D01*
X58478Y-23742D01*
X58464Y-23757D01*
X58435Y-23771D01*
X58378Y-23771D01*
X58350Y-23757D01*
X58335Y-23742D01*
X58321Y-23714D01*
X58321Y-23657D01*
X58335Y-23628D01*
X58350Y-23614D01*
X58378Y-23600D01*
X37892Y-28171D02*
X37992Y-28028D01*
X38064Y-28171D02*
X38064Y-27871D01*
X37950Y-27871D01*
X37921Y-27885D01*
X37907Y-27900D01*
X37892Y-27928D01*
X37892Y-27971D01*
X37907Y-28000D01*
X37921Y-28014D01*
X37950Y-28028D01*
X38064Y-28028D01*
X37750Y-28171D02*
X37692Y-28171D01*
X37664Y-28157D01*
X37650Y-28142D01*
X37621Y-28100D01*
X37607Y-28042D01*
X37607Y-27928D01*
X37621Y-27900D01*
X37635Y-27885D01*
X37664Y-27871D01*
X37721Y-27871D01*
X37750Y-27885D01*
X37764Y-27900D01*
X37778Y-27928D01*
X37778Y-28000D01*
X37764Y-28028D01*
X37750Y-28042D01*
X37721Y-28057D01*
X37664Y-28057D01*
X37635Y-28042D01*
X37621Y-28028D01*
X37607Y-28000D01*
X37507Y-27871D02*
X37307Y-27871D01*
X37435Y-28171D01*
X52035Y-30771D02*
X52135Y-30628D01*
X52207Y-30771D02*
X52207Y-30471D01*
X52092Y-30471D01*
X52064Y-30485D01*
X52050Y-30500D01*
X52035Y-30528D01*
X52035Y-30571D01*
X52050Y-30600D01*
X52064Y-30614D01*
X52092Y-30628D01*
X52207Y-30628D01*
X51750Y-30771D02*
X51921Y-30771D01*
X51835Y-30771D02*
X51835Y-30471D01*
X51864Y-30514D01*
X51892Y-30542D01*
X51921Y-30557D01*
X51564Y-30471D02*
X51535Y-30471D01*
X51507Y-30485D01*
X51492Y-30500D01*
X51478Y-30528D01*
X51464Y-30585D01*
X51464Y-30657D01*
X51478Y-30714D01*
X51492Y-30742D01*
X51507Y-30757D01*
X51535Y-30771D01*
X51564Y-30771D01*
X51592Y-30757D01*
X51607Y-30742D01*
X51621Y-30714D01*
X51635Y-30657D01*
X51635Y-30585D01*
X51621Y-30528D01*
X51607Y-30500D01*
X51592Y-30485D01*
X51564Y-30471D01*
X51364Y-30471D02*
X51178Y-30471D01*
X51278Y-30585D01*
X51235Y-30585D01*
X51207Y-30600D01*
X51192Y-30614D01*
X51178Y-30642D01*
X51178Y-30714D01*
X51192Y-30742D01*
X51207Y-30757D01*
X51235Y-30771D01*
X51321Y-30771D01*
X51350Y-30757D01*
X51364Y-30742D01*
X59035Y-30771D02*
X59135Y-30628D01*
X59207Y-30771D02*
X59207Y-30471D01*
X59092Y-30471D01*
X59064Y-30485D01*
X59050Y-30500D01*
X59035Y-30528D01*
X59035Y-30571D01*
X59050Y-30600D01*
X59064Y-30614D01*
X59092Y-30628D01*
X59207Y-30628D01*
X58750Y-30771D02*
X58921Y-30771D01*
X58835Y-30771D02*
X58835Y-30471D01*
X58864Y-30514D01*
X58892Y-30542D01*
X58921Y-30557D01*
X58564Y-30471D02*
X58535Y-30471D01*
X58507Y-30485D01*
X58492Y-30500D01*
X58478Y-30528D01*
X58464Y-30585D01*
X58464Y-30657D01*
X58478Y-30714D01*
X58492Y-30742D01*
X58507Y-30757D01*
X58535Y-30771D01*
X58564Y-30771D01*
X58592Y-30757D01*
X58607Y-30742D01*
X58621Y-30714D01*
X58635Y-30657D01*
X58635Y-30585D01*
X58621Y-30528D01*
X58607Y-30500D01*
X58592Y-30485D01*
X58564Y-30471D01*
X58350Y-30500D02*
X58335Y-30485D01*
X58307Y-30471D01*
X58235Y-30471D01*
X58207Y-30485D01*
X58192Y-30500D01*
X58178Y-30528D01*
X58178Y-30557D01*
X58192Y-30600D01*
X58364Y-30771D01*
X58178Y-30771D01*
X39685Y-32971D02*
X39785Y-32828D01*
X39857Y-32971D02*
X39857Y-32671D01*
X39742Y-32671D01*
X39714Y-32685D01*
X39700Y-32700D01*
X39685Y-32728D01*
X39685Y-32771D01*
X39700Y-32800D01*
X39714Y-32814D01*
X39742Y-32828D01*
X39857Y-32828D01*
X39400Y-32971D02*
X39571Y-32971D01*
X39485Y-32971D02*
X39485Y-32671D01*
X39514Y-32714D01*
X39542Y-32742D01*
X39571Y-32757D01*
X39214Y-32671D02*
X39185Y-32671D01*
X39157Y-32685D01*
X39142Y-32700D01*
X39128Y-32728D01*
X39114Y-32785D01*
X39114Y-32857D01*
X39128Y-32914D01*
X39142Y-32942D01*
X39157Y-32957D01*
X39185Y-32971D01*
X39214Y-32971D01*
X39242Y-32957D01*
X39257Y-32942D01*
X39271Y-32914D01*
X39285Y-32857D01*
X39285Y-32785D01*
X39271Y-32728D01*
X39257Y-32700D01*
X39242Y-32685D01*
X39214Y-32671D01*
X38857Y-32671D02*
X38914Y-32671D01*
X38942Y-32685D01*
X38957Y-32700D01*
X38985Y-32742D01*
X39000Y-32800D01*
X39000Y-32914D01*
X38985Y-32942D01*
X38971Y-32957D01*
X38942Y-32971D01*
X38885Y-32971D01*
X38857Y-32957D01*
X38842Y-32942D01*
X38828Y-32914D01*
X38828Y-32842D01*
X38842Y-32814D01*
X38857Y-32800D01*
X38885Y-32785D01*
X38942Y-32785D01*
X38971Y-32800D01*
X38985Y-32814D01*
X39000Y-32842D01*
X52035Y-37771D02*
X52135Y-37628D01*
X52207Y-37771D02*
X52207Y-37471D01*
X52092Y-37471D01*
X52064Y-37485D01*
X52050Y-37500D01*
X52035Y-37528D01*
X52035Y-37571D01*
X52050Y-37600D01*
X52064Y-37614D01*
X52092Y-37628D01*
X52207Y-37628D01*
X51750Y-37771D02*
X51921Y-37771D01*
X51835Y-37771D02*
X51835Y-37471D01*
X51864Y-37514D01*
X51892Y-37542D01*
X51921Y-37557D01*
X51464Y-37771D02*
X51635Y-37771D01*
X51550Y-37771D02*
X51550Y-37471D01*
X51578Y-37514D01*
X51607Y-37542D01*
X51635Y-37557D01*
X51192Y-37471D02*
X51335Y-37471D01*
X51350Y-37614D01*
X51335Y-37600D01*
X51307Y-37585D01*
X51235Y-37585D01*
X51207Y-37600D01*
X51192Y-37614D01*
X51178Y-37642D01*
X51178Y-37714D01*
X51192Y-37742D01*
X51207Y-37757D01*
X51235Y-37771D01*
X51307Y-37771D01*
X51335Y-37757D01*
X51350Y-37742D01*
X46392Y-25971D02*
X46492Y-25828D01*
X46564Y-25971D02*
X46564Y-25671D01*
X46450Y-25671D01*
X46421Y-25685D01*
X46407Y-25700D01*
X46392Y-25728D01*
X46392Y-25771D01*
X46407Y-25800D01*
X46421Y-25814D01*
X46450Y-25828D01*
X46564Y-25828D01*
X46292Y-25671D02*
X46107Y-25671D01*
X46207Y-25785D01*
X46164Y-25785D01*
X46135Y-25800D01*
X46121Y-25814D01*
X46107Y-25842D01*
X46107Y-25914D01*
X46121Y-25942D01*
X46135Y-25957D01*
X46164Y-25971D01*
X46250Y-25971D01*
X46278Y-25957D01*
X46292Y-25942D01*
X45921Y-25671D02*
X45892Y-25671D01*
X45864Y-25685D01*
X45850Y-25700D01*
X45835Y-25728D01*
X45821Y-25785D01*
X45821Y-25857D01*
X45835Y-25914D01*
X45850Y-25942D01*
X45864Y-25957D01*
X45892Y-25971D01*
X45921Y-25971D01*
X45950Y-25957D01*
X45964Y-25942D01*
X45978Y-25914D01*
X45992Y-25857D01*
X45992Y-25785D01*
X45978Y-25728D01*
X45964Y-25700D01*
X45950Y-25685D01*
X45921Y-25671D01*
X53392Y-26021D02*
X53492Y-25878D01*
X53564Y-26021D02*
X53564Y-25721D01*
X53450Y-25721D01*
X53421Y-25735D01*
X53407Y-25750D01*
X53392Y-25778D01*
X53392Y-25821D01*
X53407Y-25850D01*
X53421Y-25864D01*
X53450Y-25878D01*
X53564Y-25878D01*
X53278Y-25750D02*
X53264Y-25735D01*
X53235Y-25721D01*
X53164Y-25721D01*
X53135Y-25735D01*
X53121Y-25750D01*
X53107Y-25778D01*
X53107Y-25807D01*
X53121Y-25850D01*
X53292Y-26021D01*
X53107Y-26021D01*
X52835Y-25721D02*
X52978Y-25721D01*
X52992Y-25864D01*
X52978Y-25850D01*
X52950Y-25835D01*
X52878Y-25835D01*
X52850Y-25850D01*
X52835Y-25864D01*
X52821Y-25892D01*
X52821Y-25964D01*
X52835Y-25992D01*
X52850Y-26007D01*
X52878Y-26021D01*
X52950Y-26021D01*
X52978Y-26007D01*
X52992Y-25992D01*
X53392Y-18971D02*
X53492Y-18828D01*
X53564Y-18971D02*
X53564Y-18671D01*
X53450Y-18671D01*
X53421Y-18685D01*
X53407Y-18700D01*
X53392Y-18728D01*
X53392Y-18771D01*
X53407Y-18800D01*
X53421Y-18814D01*
X53450Y-18828D01*
X53564Y-18828D01*
X53107Y-18971D02*
X53278Y-18971D01*
X53192Y-18971D02*
X53192Y-18671D01*
X53221Y-18714D01*
X53250Y-18742D01*
X53278Y-18757D01*
X53007Y-18671D02*
X52821Y-18671D01*
X52921Y-18785D01*
X52878Y-18785D01*
X52850Y-18800D01*
X52835Y-18814D01*
X52821Y-18842D01*
X52821Y-18914D01*
X52835Y-18942D01*
X52850Y-18957D01*
X52878Y-18971D01*
X52964Y-18971D01*
X52992Y-18957D01*
X53007Y-18942D01*
X46392Y-19021D02*
X46492Y-18878D01*
X46564Y-19021D02*
X46564Y-18721D01*
X46450Y-18721D01*
X46421Y-18735D01*
X46407Y-18750D01*
X46392Y-18778D01*
X46392Y-18821D01*
X46407Y-18850D01*
X46421Y-18864D01*
X46450Y-18878D01*
X46564Y-18878D01*
X46107Y-19021D02*
X46278Y-19021D01*
X46192Y-19021D02*
X46192Y-18721D01*
X46221Y-18764D01*
X46250Y-18792D01*
X46278Y-18807D01*
X45935Y-18850D02*
X45964Y-18835D01*
X45978Y-18821D01*
X45992Y-18792D01*
X45992Y-18778D01*
X45978Y-18750D01*
X45964Y-18735D01*
X45935Y-18721D01*
X45878Y-18721D01*
X45850Y-18735D01*
X45835Y-18750D01*
X45821Y-18778D01*
X45821Y-18792D01*
X45835Y-18821D01*
X45850Y-18835D01*
X45878Y-18850D01*
X45935Y-18850D01*
X45964Y-18864D01*
X45978Y-18878D01*
X45992Y-18907D01*
X45992Y-18964D01*
X45978Y-18992D01*
X45964Y-19007D01*
X45935Y-19021D01*
X45878Y-19021D01*
X45850Y-19007D01*
X45835Y-18992D01*
X45821Y-18964D01*
X45821Y-18907D01*
X45835Y-18878D01*
X45850Y-18864D01*
X45878Y-18850D01*
X46100Y-11971D02*
X46200Y-11828D01*
X46271Y-11971D02*
X46271Y-11671D01*
X46157Y-11671D01*
X46128Y-11685D01*
X46114Y-11700D01*
X46100Y-11728D01*
X46100Y-11771D01*
X46114Y-11800D01*
X46128Y-11814D01*
X46157Y-11828D01*
X46271Y-11828D01*
X45842Y-11671D02*
X45900Y-11671D01*
X45928Y-11685D01*
X45942Y-11700D01*
X45971Y-11742D01*
X45985Y-11800D01*
X45985Y-11914D01*
X45971Y-11942D01*
X45957Y-11957D01*
X45928Y-11971D01*
X45871Y-11971D01*
X45842Y-11957D01*
X45828Y-11942D01*
X45814Y-11914D01*
X45814Y-11842D01*
X45828Y-11814D01*
X45842Y-11800D01*
X45871Y-11785D01*
X45928Y-11785D01*
X45957Y-11800D01*
X45971Y-11814D01*
X45985Y-11842D01*
X53150Y-11971D02*
X53250Y-11828D01*
X53321Y-11971D02*
X53321Y-11671D01*
X53207Y-11671D01*
X53178Y-11685D01*
X53164Y-11700D01*
X53150Y-11728D01*
X53150Y-11771D01*
X53164Y-11800D01*
X53178Y-11814D01*
X53207Y-11828D01*
X53321Y-11828D01*
X52864Y-11971D02*
X53035Y-11971D01*
X52950Y-11971D02*
X52950Y-11671D01*
X52978Y-11714D01*
X53007Y-11742D01*
X53035Y-11757D01*
X53392Y-39971D02*
X53492Y-39828D01*
X53564Y-39971D02*
X53564Y-39671D01*
X53450Y-39671D01*
X53421Y-39685D01*
X53407Y-39700D01*
X53392Y-39728D01*
X53392Y-39771D01*
X53407Y-39800D01*
X53421Y-39814D01*
X53450Y-39828D01*
X53564Y-39828D01*
X53121Y-39671D02*
X53264Y-39671D01*
X53278Y-39814D01*
X53264Y-39800D01*
X53235Y-39785D01*
X53164Y-39785D01*
X53135Y-39800D01*
X53121Y-39814D01*
X53107Y-39842D01*
X53107Y-39914D01*
X53121Y-39942D01*
X53135Y-39957D01*
X53164Y-39971D01*
X53235Y-39971D01*
X53264Y-39957D01*
X53278Y-39942D01*
X52821Y-39971D02*
X52992Y-39971D01*
X52907Y-39971D02*
X52907Y-39671D01*
X52935Y-39714D01*
X52964Y-39742D01*
X52992Y-39757D01*
X46392Y-32971D02*
X46492Y-32828D01*
X46564Y-32971D02*
X46564Y-32671D01*
X46450Y-32671D01*
X46421Y-32685D01*
X46407Y-32700D01*
X46392Y-32728D01*
X46392Y-32771D01*
X46407Y-32800D01*
X46421Y-32814D01*
X46450Y-32828D01*
X46564Y-32828D01*
X46135Y-32771D02*
X46135Y-32971D01*
X46207Y-32657D02*
X46278Y-32871D01*
X46092Y-32871D01*
X45992Y-32700D02*
X45978Y-32685D01*
X45950Y-32671D01*
X45878Y-32671D01*
X45850Y-32685D01*
X45835Y-32700D01*
X45821Y-32728D01*
X45821Y-32757D01*
X45835Y-32800D01*
X46007Y-32971D01*
X45821Y-32971D01*
X53392Y-32971D02*
X53492Y-32828D01*
X53564Y-32971D02*
X53564Y-32671D01*
X53450Y-32671D01*
X53421Y-32685D01*
X53407Y-32700D01*
X53392Y-32728D01*
X53392Y-32771D01*
X53407Y-32800D01*
X53421Y-32814D01*
X53450Y-32828D01*
X53564Y-32828D01*
X53292Y-32671D02*
X53107Y-32671D01*
X53207Y-32785D01*
X53164Y-32785D01*
X53135Y-32800D01*
X53121Y-32814D01*
X53107Y-32842D01*
X53107Y-32914D01*
X53121Y-32942D01*
X53135Y-32957D01*
X53164Y-32971D01*
X53250Y-32971D01*
X53278Y-32957D01*
X53292Y-32942D01*
X53007Y-32671D02*
X52807Y-32671D01*
X52935Y-32971D01*
G54D15*
X23870Y-25791D02*
X23879Y-25805D01*
X23905Y-25818D01*
X23922Y-25818D01*
X23947Y-25805D01*
X23965Y-25778D01*
X23973Y-25751D01*
X23982Y-25698D01*
X23982Y-25658D01*
X23973Y-25605D01*
X23965Y-25578D01*
X23947Y-25551D01*
X23922Y-25538D01*
X23905Y-25538D01*
X23879Y-25551D01*
X23870Y-25565D01*
X23699Y-25818D02*
X23802Y-25818D01*
X23750Y-25818D02*
X23750Y-25538D01*
X23767Y-25578D01*
X23785Y-25605D01*
X23802Y-25618D01*
X23587Y-25538D02*
X23570Y-25538D01*
X23553Y-25551D01*
X23545Y-25565D01*
X23536Y-25591D01*
X23527Y-25645D01*
X23527Y-25711D01*
X23536Y-25765D01*
X23545Y-25791D01*
X23553Y-25805D01*
X23570Y-25818D01*
X23587Y-25818D01*
X23605Y-25805D01*
X23613Y-25791D01*
X23622Y-25765D01*
X23630Y-25711D01*
X23630Y-25645D01*
X23622Y-25591D01*
X23613Y-25565D01*
X23605Y-25551D01*
X23587Y-25538D01*
X23820Y-24791D02*
X23829Y-24805D01*
X23855Y-24818D01*
X23872Y-24818D01*
X23897Y-24805D01*
X23915Y-24778D01*
X23923Y-24751D01*
X23932Y-24698D01*
X23932Y-24658D01*
X23923Y-24605D01*
X23915Y-24578D01*
X23897Y-24551D01*
X23872Y-24538D01*
X23855Y-24538D01*
X23829Y-24551D01*
X23820Y-24565D01*
X23649Y-24818D02*
X23752Y-24818D01*
X23700Y-24818D02*
X23700Y-24538D01*
X23717Y-24578D01*
X23735Y-24605D01*
X23752Y-24618D01*
X23477Y-24818D02*
X23580Y-24818D01*
X23529Y-24818D02*
X23529Y-24538D01*
X23546Y-24578D01*
X23563Y-24605D01*
X23580Y-24618D01*
G54D16*
X41695Y-23261D02*
X41695Y-23585D01*
X41676Y-23623D01*
X41657Y-23642D01*
X41619Y-23661D01*
X41542Y-23661D01*
X41504Y-23642D01*
X41485Y-23623D01*
X41466Y-23585D01*
X41466Y-23261D01*
X41314Y-23261D02*
X41066Y-23261D01*
X41199Y-23414D01*
X41142Y-23414D01*
X41104Y-23433D01*
X41085Y-23452D01*
X41066Y-23490D01*
X41066Y-23585D01*
X41085Y-23623D01*
X41104Y-23642D01*
X41142Y-23661D01*
X41257Y-23661D01*
X41295Y-23642D01*
X41314Y-23623D01*
X40933Y-23261D02*
X40666Y-23261D01*
X40838Y-23661D01*
X48595Y-9261D02*
X48595Y-9585D01*
X48576Y-9623D01*
X48557Y-9642D01*
X48519Y-9661D01*
X48442Y-9661D01*
X48404Y-9642D01*
X48385Y-9623D01*
X48366Y-9585D01*
X48366Y-9261D01*
X48195Y-9300D02*
X48176Y-9280D01*
X48138Y-9261D01*
X48042Y-9261D01*
X48004Y-9280D01*
X47985Y-9300D01*
X47966Y-9338D01*
X47966Y-9376D01*
X47985Y-9433D01*
X48214Y-9661D01*
X47966Y-9661D01*
X47738Y-9433D02*
X47776Y-9414D01*
X47795Y-9395D01*
X47814Y-9357D01*
X47814Y-9338D01*
X47795Y-9300D01*
X47776Y-9280D01*
X47738Y-9261D01*
X47661Y-9261D01*
X47623Y-9280D01*
X47604Y-9300D01*
X47585Y-9338D01*
X47585Y-9357D01*
X47604Y-9395D01*
X47623Y-9414D01*
X47661Y-9433D01*
X47738Y-9433D01*
X47776Y-9452D01*
X47795Y-9471D01*
X47814Y-9509D01*
X47814Y-9585D01*
X47795Y-9623D01*
X47776Y-9642D01*
X47738Y-9661D01*
X47661Y-9661D01*
X47623Y-9642D01*
X47604Y-9623D01*
X47585Y-9585D01*
X47585Y-9509D01*
X47604Y-9471D01*
X47623Y-9452D01*
X47661Y-9433D01*
X34645Y-37261D02*
X34645Y-37585D01*
X34626Y-37623D01*
X34607Y-37642D01*
X34569Y-37661D01*
X34492Y-37661D01*
X34454Y-37642D01*
X34435Y-37623D01*
X34416Y-37585D01*
X34416Y-37261D01*
X34054Y-37395D02*
X34054Y-37661D01*
X34149Y-37242D02*
X34245Y-37528D01*
X33997Y-37528D01*
X33673Y-37261D02*
X33749Y-37261D01*
X33788Y-37280D01*
X33807Y-37300D01*
X33845Y-37357D01*
X33864Y-37433D01*
X33864Y-37585D01*
X33845Y-37623D01*
X33826Y-37642D01*
X33788Y-37661D01*
X33711Y-37661D01*
X33673Y-37642D01*
X33654Y-37623D01*
X33635Y-37585D01*
X33635Y-37490D01*
X33654Y-37452D01*
X33673Y-37433D01*
X33711Y-37414D01*
X33788Y-37414D01*
X33826Y-37433D01*
X33845Y-37452D01*
X33864Y-37490D01*
X48695Y-23261D02*
X48695Y-23585D01*
X48676Y-23623D01*
X48657Y-23642D01*
X48619Y-23661D01*
X48542Y-23661D01*
X48504Y-23642D01*
X48485Y-23623D01*
X48466Y-23585D01*
X48466Y-23261D01*
X48314Y-23261D02*
X48066Y-23261D01*
X48199Y-23414D01*
X48142Y-23414D01*
X48104Y-23433D01*
X48085Y-23452D01*
X48066Y-23490D01*
X48066Y-23585D01*
X48085Y-23623D01*
X48104Y-23642D01*
X48142Y-23661D01*
X48257Y-23661D01*
X48295Y-23642D01*
X48314Y-23623D01*
X47723Y-23261D02*
X47799Y-23261D01*
X47838Y-23280D01*
X47857Y-23300D01*
X47895Y-23357D01*
X47914Y-23433D01*
X47914Y-23585D01*
X47895Y-23623D01*
X47876Y-23642D01*
X47838Y-23661D01*
X47761Y-23661D01*
X47723Y-23642D01*
X47704Y-23623D01*
X47685Y-23585D01*
X47685Y-23490D01*
X47704Y-23452D01*
X47723Y-23433D01*
X47761Y-23414D01*
X47838Y-23414D01*
X47876Y-23433D01*
X47895Y-23452D01*
X47914Y-23490D01*
X48695Y-37261D02*
X48695Y-37585D01*
X48676Y-37623D01*
X48657Y-37642D01*
X48619Y-37661D01*
X48542Y-37661D01*
X48504Y-37642D01*
X48485Y-37623D01*
X48466Y-37585D01*
X48466Y-37261D01*
X48104Y-37395D02*
X48104Y-37661D01*
X48199Y-37242D02*
X48295Y-37528D01*
X48047Y-37528D01*
X47723Y-37395D02*
X47723Y-37661D01*
X47819Y-37242D02*
X47914Y-37528D01*
X47666Y-37528D01*
X41645Y-16261D02*
X41645Y-16585D01*
X41626Y-16623D01*
X41607Y-16642D01*
X41569Y-16661D01*
X41492Y-16661D01*
X41454Y-16642D01*
X41435Y-16623D01*
X41416Y-16585D01*
X41416Y-16261D01*
X41264Y-16261D02*
X41016Y-16261D01*
X41149Y-16414D01*
X41092Y-16414D01*
X41054Y-16433D01*
X41035Y-16452D01*
X41016Y-16490D01*
X41016Y-16585D01*
X41035Y-16623D01*
X41054Y-16642D01*
X41092Y-16661D01*
X41207Y-16661D01*
X41245Y-16642D01*
X41264Y-16623D01*
X40883Y-16261D02*
X40635Y-16261D01*
X40769Y-16414D01*
X40711Y-16414D01*
X40673Y-16433D01*
X40654Y-16452D01*
X40635Y-16490D01*
X40635Y-16585D01*
X40654Y-16623D01*
X40673Y-16642D01*
X40711Y-16661D01*
X40826Y-16661D01*
X40864Y-16642D01*
X40883Y-16623D01*
X48645Y-16261D02*
X48645Y-16585D01*
X48626Y-16623D01*
X48607Y-16642D01*
X48569Y-16661D01*
X48492Y-16661D01*
X48454Y-16642D01*
X48435Y-16623D01*
X48416Y-16585D01*
X48416Y-16261D01*
X48264Y-16261D02*
X48016Y-16261D01*
X48149Y-16414D01*
X48092Y-16414D01*
X48054Y-16433D01*
X48035Y-16452D01*
X48016Y-16490D01*
X48016Y-16585D01*
X48035Y-16623D01*
X48054Y-16642D01*
X48092Y-16661D01*
X48207Y-16661D01*
X48245Y-16642D01*
X48264Y-16623D01*
X47864Y-16300D02*
X47845Y-16280D01*
X47807Y-16261D01*
X47711Y-16261D01*
X47673Y-16280D01*
X47654Y-16300D01*
X47635Y-16338D01*
X47635Y-16376D01*
X47654Y-16433D01*
X47883Y-16661D01*
X47635Y-16661D01*
X41695Y-9261D02*
X41695Y-9585D01*
X41676Y-9623D01*
X41657Y-9642D01*
X41619Y-9661D01*
X41542Y-9661D01*
X41504Y-9642D01*
X41485Y-9623D01*
X41466Y-9585D01*
X41466Y-9261D01*
X41295Y-9300D02*
X41276Y-9280D01*
X41238Y-9261D01*
X41142Y-9261D01*
X41104Y-9280D01*
X41085Y-9300D01*
X41066Y-9338D01*
X41066Y-9376D01*
X41085Y-9433D01*
X41314Y-9661D01*
X41066Y-9661D01*
X40876Y-9661D02*
X40799Y-9661D01*
X40761Y-9642D01*
X40742Y-9623D01*
X40704Y-9566D01*
X40685Y-9490D01*
X40685Y-9338D01*
X40704Y-9300D01*
X40723Y-9280D01*
X40761Y-9261D01*
X40838Y-9261D01*
X40876Y-9280D01*
X40895Y-9300D01*
X40914Y-9338D01*
X40914Y-9433D01*
X40895Y-9471D01*
X40876Y-9490D01*
X40838Y-9509D01*
X40761Y-9509D01*
X40723Y-9490D01*
X40704Y-9471D01*
X40685Y-9433D01*
X34645Y-9261D02*
X34645Y-9585D01*
X34626Y-9623D01*
X34607Y-9642D01*
X34569Y-9661D01*
X34492Y-9661D01*
X34454Y-9642D01*
X34435Y-9623D01*
X34416Y-9585D01*
X34416Y-9261D01*
X34264Y-9261D02*
X34016Y-9261D01*
X34149Y-9414D01*
X34092Y-9414D01*
X34054Y-9433D01*
X34035Y-9452D01*
X34016Y-9490D01*
X34016Y-9585D01*
X34035Y-9623D01*
X34054Y-9642D01*
X34092Y-9661D01*
X34207Y-9661D01*
X34245Y-9642D01*
X34264Y-9623D01*
X33769Y-9261D02*
X33730Y-9261D01*
X33692Y-9280D01*
X33673Y-9300D01*
X33654Y-9338D01*
X33635Y-9414D01*
X33635Y-9509D01*
X33654Y-9585D01*
X33673Y-9623D01*
X33692Y-9642D01*
X33730Y-9661D01*
X33769Y-9661D01*
X33807Y-9642D01*
X33826Y-9623D01*
X33845Y-9585D01*
X33864Y-9509D01*
X33864Y-9414D01*
X33845Y-9338D01*
X33826Y-9300D01*
X33807Y-9280D01*
X33769Y-9261D01*
X55695Y-37261D02*
X55695Y-37585D01*
X55676Y-37623D01*
X55657Y-37642D01*
X55619Y-37661D01*
X55542Y-37661D01*
X55504Y-37642D01*
X55485Y-37623D01*
X55466Y-37585D01*
X55466Y-37261D01*
X55104Y-37395D02*
X55104Y-37661D01*
X55199Y-37242D02*
X55295Y-37528D01*
X55047Y-37528D01*
X54933Y-37261D02*
X54685Y-37261D01*
X54819Y-37414D01*
X54761Y-37414D01*
X54723Y-37433D01*
X54704Y-37452D01*
X54685Y-37490D01*
X54685Y-37585D01*
X54704Y-37623D01*
X54723Y-37642D01*
X54761Y-37661D01*
X54876Y-37661D01*
X54914Y-37642D01*
X54933Y-37623D01*
X34695Y-16261D02*
X34695Y-16585D01*
X34676Y-16623D01*
X34657Y-16642D01*
X34619Y-16661D01*
X34542Y-16661D01*
X34504Y-16642D01*
X34485Y-16623D01*
X34466Y-16585D01*
X34466Y-16261D01*
X34314Y-16261D02*
X34066Y-16261D01*
X34199Y-16414D01*
X34142Y-16414D01*
X34104Y-16433D01*
X34085Y-16452D01*
X34066Y-16490D01*
X34066Y-16585D01*
X34085Y-16623D01*
X34104Y-16642D01*
X34142Y-16661D01*
X34257Y-16661D01*
X34295Y-16642D01*
X34314Y-16623D01*
X33723Y-16395D02*
X33723Y-16661D01*
X33819Y-16242D02*
X33914Y-16528D01*
X33666Y-16528D01*
X55645Y-9261D02*
X55645Y-9585D01*
X55626Y-9623D01*
X55607Y-9642D01*
X55569Y-9661D01*
X55492Y-9661D01*
X55454Y-9642D01*
X55435Y-9623D01*
X55416Y-9585D01*
X55416Y-9261D01*
X55245Y-9300D02*
X55226Y-9280D01*
X55188Y-9261D01*
X55092Y-9261D01*
X55054Y-9280D01*
X55035Y-9300D01*
X55016Y-9338D01*
X55016Y-9376D01*
X55035Y-9433D01*
X55264Y-9661D01*
X55016Y-9661D01*
X54883Y-9261D02*
X54616Y-9261D01*
X54788Y-9661D01*
X55695Y-30261D02*
X55695Y-30585D01*
X55676Y-30623D01*
X55657Y-30642D01*
X55619Y-30661D01*
X55542Y-30661D01*
X55504Y-30642D01*
X55485Y-30623D01*
X55466Y-30585D01*
X55466Y-30261D01*
X55314Y-30261D02*
X55066Y-30261D01*
X55199Y-30414D01*
X55142Y-30414D01*
X55104Y-30433D01*
X55085Y-30452D01*
X55066Y-30490D01*
X55066Y-30585D01*
X55085Y-30623D01*
X55104Y-30642D01*
X55142Y-30661D01*
X55257Y-30661D01*
X55295Y-30642D01*
X55314Y-30623D01*
X54876Y-30661D02*
X54799Y-30661D01*
X54761Y-30642D01*
X54742Y-30623D01*
X54704Y-30566D01*
X54685Y-30490D01*
X54685Y-30338D01*
X54704Y-30300D01*
X54723Y-30280D01*
X54761Y-30261D01*
X54838Y-30261D01*
X54876Y-30280D01*
X54895Y-30300D01*
X54914Y-30338D01*
X54914Y-30433D01*
X54895Y-30471D01*
X54876Y-30490D01*
X54838Y-30509D01*
X54761Y-30509D01*
X54723Y-30490D01*
X54704Y-30471D01*
X54685Y-30433D01*
X34695Y-23261D02*
X34695Y-23585D01*
X34676Y-23623D01*
X34657Y-23642D01*
X34619Y-23661D01*
X34542Y-23661D01*
X34504Y-23642D01*
X34485Y-23623D01*
X34466Y-23585D01*
X34466Y-23261D01*
X34314Y-23261D02*
X34066Y-23261D01*
X34199Y-23414D01*
X34142Y-23414D01*
X34104Y-23433D01*
X34085Y-23452D01*
X34066Y-23490D01*
X34066Y-23585D01*
X34085Y-23623D01*
X34104Y-23642D01*
X34142Y-23661D01*
X34257Y-23661D01*
X34295Y-23642D01*
X34314Y-23623D01*
X33838Y-23433D02*
X33876Y-23414D01*
X33895Y-23395D01*
X33914Y-23357D01*
X33914Y-23338D01*
X33895Y-23300D01*
X33876Y-23280D01*
X33838Y-23261D01*
X33761Y-23261D01*
X33723Y-23280D01*
X33704Y-23300D01*
X33685Y-23338D01*
X33685Y-23357D01*
X33704Y-23395D01*
X33723Y-23414D01*
X33761Y-23433D01*
X33838Y-23433D01*
X33876Y-23452D01*
X33895Y-23471D01*
X33914Y-23509D01*
X33914Y-23585D01*
X33895Y-23623D01*
X33876Y-23642D01*
X33838Y-23661D01*
X33761Y-23661D01*
X33723Y-23642D01*
X33704Y-23623D01*
X33685Y-23585D01*
X33685Y-23509D01*
X33704Y-23471D01*
X33723Y-23452D01*
X33761Y-23433D01*
X41695Y-30261D02*
X41695Y-30585D01*
X41676Y-30623D01*
X41657Y-30642D01*
X41619Y-30661D01*
X41542Y-30661D01*
X41504Y-30642D01*
X41485Y-30623D01*
X41466Y-30585D01*
X41466Y-30261D01*
X41104Y-30395D02*
X41104Y-30661D01*
X41199Y-30242D02*
X41295Y-30528D01*
X41047Y-30528D01*
X40685Y-30661D02*
X40914Y-30661D01*
X40799Y-30661D02*
X40799Y-30261D01*
X40838Y-30319D01*
X40876Y-30357D01*
X40914Y-30376D01*
X55695Y-23261D02*
X55695Y-23585D01*
X55676Y-23623D01*
X55657Y-23642D01*
X55619Y-23661D01*
X55542Y-23661D01*
X55504Y-23642D01*
X55485Y-23623D01*
X55466Y-23585D01*
X55466Y-23261D01*
X55314Y-23261D02*
X55066Y-23261D01*
X55199Y-23414D01*
X55142Y-23414D01*
X55104Y-23433D01*
X55085Y-23452D01*
X55066Y-23490D01*
X55066Y-23585D01*
X55085Y-23623D01*
X55104Y-23642D01*
X55142Y-23661D01*
X55257Y-23661D01*
X55295Y-23642D01*
X55314Y-23623D01*
X54704Y-23261D02*
X54895Y-23261D01*
X54914Y-23452D01*
X54895Y-23433D01*
X54857Y-23414D01*
X54761Y-23414D01*
X54723Y-23433D01*
X54704Y-23452D01*
X54685Y-23490D01*
X54685Y-23585D01*
X54704Y-23623D01*
X54723Y-23642D01*
X54761Y-23661D01*
X54857Y-23661D01*
X54895Y-23642D01*
X54914Y-23623D01*
X41695Y-37261D02*
X41695Y-37585D01*
X41676Y-37623D01*
X41657Y-37642D01*
X41619Y-37661D01*
X41542Y-37661D01*
X41504Y-37642D01*
X41485Y-37623D01*
X41466Y-37585D01*
X41466Y-37261D01*
X41104Y-37395D02*
X41104Y-37661D01*
X41199Y-37242D02*
X41295Y-37528D01*
X41047Y-37528D01*
X40704Y-37261D02*
X40895Y-37261D01*
X40914Y-37452D01*
X40895Y-37433D01*
X40857Y-37414D01*
X40761Y-37414D01*
X40723Y-37433D01*
X40704Y-37452D01*
X40685Y-37490D01*
X40685Y-37585D01*
X40704Y-37623D01*
X40723Y-37642D01*
X40761Y-37661D01*
X40857Y-37661D01*
X40895Y-37642D01*
X40914Y-37623D01*
X34695Y-30261D02*
X34695Y-30585D01*
X34676Y-30623D01*
X34657Y-30642D01*
X34619Y-30661D01*
X34542Y-30661D01*
X34504Y-30642D01*
X34485Y-30623D01*
X34466Y-30585D01*
X34466Y-30261D01*
X34104Y-30395D02*
X34104Y-30661D01*
X34199Y-30242D02*
X34295Y-30528D01*
X34047Y-30528D01*
X33914Y-30300D02*
X33895Y-30280D01*
X33857Y-30261D01*
X33761Y-30261D01*
X33723Y-30280D01*
X33704Y-30300D01*
X33685Y-30338D01*
X33685Y-30376D01*
X33704Y-30433D01*
X33933Y-30661D01*
X33685Y-30661D01*
X55695Y-16261D02*
X55695Y-16585D01*
X55676Y-16623D01*
X55657Y-16642D01*
X55619Y-16661D01*
X55542Y-16661D01*
X55504Y-16642D01*
X55485Y-16623D01*
X55466Y-16585D01*
X55466Y-16261D01*
X55314Y-16261D02*
X55066Y-16261D01*
X55199Y-16414D01*
X55142Y-16414D01*
X55104Y-16433D01*
X55085Y-16452D01*
X55066Y-16490D01*
X55066Y-16585D01*
X55085Y-16623D01*
X55104Y-16642D01*
X55142Y-16661D01*
X55257Y-16661D01*
X55295Y-16642D01*
X55314Y-16623D01*
X54685Y-16661D02*
X54914Y-16661D01*
X54799Y-16661D02*
X54799Y-16261D01*
X54838Y-16319D01*
X54876Y-16357D01*
X54914Y-16376D01*
X48695Y-30261D02*
X48695Y-30585D01*
X48676Y-30623D01*
X48657Y-30642D01*
X48619Y-30661D01*
X48542Y-30661D01*
X48504Y-30642D01*
X48485Y-30623D01*
X48466Y-30585D01*
X48466Y-30261D01*
X48104Y-30395D02*
X48104Y-30661D01*
X48199Y-30242D02*
X48295Y-30528D01*
X48047Y-30528D01*
X47819Y-30261D02*
X47780Y-30261D01*
X47742Y-30280D01*
X47723Y-30300D01*
X47704Y-30338D01*
X47685Y-30414D01*
X47685Y-30509D01*
X47704Y-30585D01*
X47723Y-30623D01*
X47742Y-30642D01*
X47780Y-30661D01*
X47819Y-30661D01*
X47857Y-30642D01*
X47876Y-30623D01*
X47895Y-30585D01*
X47914Y-30509D01*
X47914Y-30414D01*
X47895Y-30338D01*
X47876Y-30300D01*
X47857Y-30280D01*
X47819Y-30261D01*
G54D17*
X24113Y-10463D02*
X24130Y-10480D01*
X24180Y-10496D01*
X24213Y-10496D01*
X24263Y-10480D01*
X24296Y-10446D01*
X24313Y-10413D01*
X24330Y-10346D01*
X24330Y-10296D01*
X24313Y-10230D01*
X24296Y-10196D01*
X24263Y-10163D01*
X24213Y-10146D01*
X24180Y-10146D01*
X24130Y-10163D01*
X24113Y-10180D01*
X23946Y-10496D02*
X23880Y-10496D01*
X23846Y-10480D01*
X23830Y-10463D01*
X23796Y-10413D01*
X23780Y-10346D01*
X23780Y-10213D01*
X23796Y-10180D01*
X23813Y-10163D01*
X23846Y-10146D01*
X23913Y-10146D01*
X23946Y-10163D01*
X23963Y-10180D01*
X23980Y-10213D01*
X23980Y-10296D01*
X23963Y-10330D01*
X23946Y-10346D01*
X23913Y-10363D01*
X23846Y-10363D01*
X23813Y-10346D01*
X23796Y-10330D01*
X23780Y-10296D01*
M02*
