G04 #@! TF.FileFunction,Soldermask,Bot*
%FSLAX46Y46*%
G04 Gerber Fmt 4.6, Leading zero omitted, Abs format (unit mm)*
G04 Created by KiCad (PCBNEW 4.0.1-stable) date 2016-12-06 1:54:44 PM*
%MOMM*%
G01*
G04 APERTURE LIST*
%ADD10C,0.150000*%
%ADD11C,4.572000*%
%ADD12R,2.032000X2.540000*%
%ADD13R,1.808000X1.208000*%
%ADD14R,4.257040X3.058160*%
%ADD15R,2.235200X2.540000*%
%ADD16O,2.235200X2.540000*%
%ADD17R,2.235200X2.235200*%
%ADD18O,2.235200X2.235200*%
%ADD19C,1.905000*%
%ADD20R,1.016000X1.651000*%
%ADD21R,1.508000X1.758000*%
%ADD22R,1.008000X3.308000*%
G04 APERTURE END LIST*
D10*
D11*
X29500000Y-126600000D03*
X105500000Y-126600000D03*
X105500000Y-44600000D03*
D12*
X55028750Y-103311250D03*
X52488750Y-103311250D03*
X49948750Y-103311250D03*
X47408750Y-103311250D03*
X47408750Y-95691250D03*
X49948750Y-95691250D03*
X52488750Y-95691250D03*
X55028750Y-95691250D03*
D13*
X66458750Y-107641250D03*
X66458750Y-105741250D03*
D11*
X29500000Y-44600000D03*
D14*
X39900000Y-50000020D03*
X39900000Y-44599980D03*
D12*
X100748750Y-117691250D03*
X98208750Y-117691250D03*
X95668750Y-117691250D03*
X93128750Y-117691250D03*
X93128750Y-110071250D03*
X95668750Y-110071250D03*
X98208750Y-110071250D03*
X100748750Y-110071250D03*
X100748750Y-103311250D03*
X98208750Y-103311250D03*
X95668750Y-103311250D03*
X93128750Y-103311250D03*
X93128750Y-95691250D03*
X95668750Y-95691250D03*
X98208750Y-95691250D03*
X100748750Y-95691250D03*
X100748750Y-88731250D03*
X98208750Y-88731250D03*
X95668750Y-88731250D03*
X93128750Y-88731250D03*
X93128750Y-81111250D03*
X95668750Y-81111250D03*
X98208750Y-81111250D03*
X100748750Y-81111250D03*
X100748750Y-74251250D03*
X98208750Y-74251250D03*
X95668750Y-74251250D03*
X93128750Y-74251250D03*
X93128750Y-66631250D03*
X95668750Y-66631250D03*
X98208750Y-66631250D03*
X100748750Y-66631250D03*
X85508750Y-117691250D03*
X82968750Y-117691250D03*
X80428750Y-117691250D03*
X77888750Y-117691250D03*
X77888750Y-110071250D03*
X80428750Y-110071250D03*
X82968750Y-110071250D03*
X85508750Y-110071250D03*
X85508750Y-103311250D03*
X82968750Y-103311250D03*
X80428750Y-103311250D03*
X77888750Y-103311250D03*
X77888750Y-95691250D03*
X80428750Y-95691250D03*
X82968750Y-95691250D03*
X85508750Y-95691250D03*
X85508750Y-88731250D03*
X82968750Y-88731250D03*
X80428750Y-88731250D03*
X77888750Y-88731250D03*
X77888750Y-81111250D03*
X80428750Y-81111250D03*
X82968750Y-81111250D03*
X85508750Y-81111250D03*
X85508750Y-74251250D03*
X82968750Y-74251250D03*
X80428750Y-74251250D03*
X77888750Y-74251250D03*
X77888750Y-66631250D03*
X80428750Y-66631250D03*
X82968750Y-66631250D03*
X85508750Y-66631250D03*
X70268750Y-117691250D03*
X67728750Y-117691250D03*
X65188750Y-117691250D03*
X62648750Y-117691250D03*
X62648750Y-110071250D03*
X65188750Y-110071250D03*
X67728750Y-110071250D03*
X70268750Y-110071250D03*
X70268750Y-103311250D03*
X67728750Y-103311250D03*
X65188750Y-103311250D03*
X62648750Y-103311250D03*
X62648750Y-95691250D03*
X65188750Y-95691250D03*
X67728750Y-95691250D03*
X70268750Y-95691250D03*
X70268750Y-88731250D03*
X67728750Y-88731250D03*
X65188750Y-88731250D03*
X62648750Y-88731250D03*
X62648750Y-81111250D03*
X65188750Y-81111250D03*
X67728750Y-81111250D03*
X70268750Y-81111250D03*
X70268750Y-74251250D03*
X67728750Y-74251250D03*
X65188750Y-74251250D03*
X62648750Y-74251250D03*
X62648750Y-66631250D03*
X65188750Y-66631250D03*
X67728750Y-66631250D03*
X70268750Y-66631250D03*
X55028750Y-117691250D03*
X52488750Y-117691250D03*
X49948750Y-117691250D03*
X47408750Y-117691250D03*
X47408750Y-110071250D03*
X49948750Y-110071250D03*
X52488750Y-110071250D03*
X55028750Y-110071250D03*
X55028750Y-88731250D03*
X52488750Y-88731250D03*
X49948750Y-88731250D03*
X47408750Y-88731250D03*
X47408750Y-81111250D03*
X49948750Y-81111250D03*
X52488750Y-81111250D03*
X55028750Y-81111250D03*
X55028750Y-74251250D03*
X52488750Y-74251250D03*
X49948750Y-74251250D03*
X47408750Y-74251250D03*
X47408750Y-66631250D03*
X49948750Y-66631250D03*
X52488750Y-66631250D03*
X55028750Y-66631250D03*
X39788750Y-117691250D03*
X37248750Y-117691250D03*
X34708750Y-117691250D03*
X32168750Y-117691250D03*
X32168750Y-110071250D03*
X34708750Y-110071250D03*
X37248750Y-110071250D03*
X39788750Y-110071250D03*
X39788750Y-103311250D03*
X37248750Y-103311250D03*
X34708750Y-103311250D03*
X32168750Y-103311250D03*
X32168750Y-95691250D03*
X34708750Y-95691250D03*
X37248750Y-95691250D03*
X39788750Y-95691250D03*
X39788750Y-88731250D03*
X37248750Y-88731250D03*
X34708750Y-88731250D03*
X32168750Y-88731250D03*
X32168750Y-81111250D03*
X34708750Y-81111250D03*
X37248750Y-81111250D03*
X39788750Y-81111250D03*
X39788750Y-74251250D03*
X37248750Y-74251250D03*
X34708750Y-74251250D03*
X32168750Y-74251250D03*
X32168750Y-66631250D03*
X34708750Y-66631250D03*
X37248750Y-66631250D03*
X39788750Y-66631250D03*
D15*
X45800000Y-45100000D03*
D16*
X48340000Y-45100000D03*
X50880000Y-45100000D03*
X53420000Y-45100000D03*
X55960000Y-45100000D03*
X58500000Y-45100000D03*
D17*
X100500000Y-48500000D03*
D18*
X100500000Y-51040000D03*
X97960000Y-48500000D03*
X97960000Y-51040000D03*
X95420000Y-48500000D03*
X95420000Y-51040000D03*
D19*
X66800260Y-51650440D03*
X66800260Y-47149560D03*
X72799740Y-51650440D03*
X72799740Y-47149560D03*
D20*
X101383750Y-62948250D03*
X100113750Y-62948250D03*
X98843750Y-62948250D03*
X97573750Y-62948250D03*
X96303750Y-62948250D03*
X95033750Y-62948250D03*
X93763750Y-62948250D03*
X92493750Y-62948250D03*
X92493750Y-57868250D03*
X93763750Y-57868250D03*
X95033750Y-57868250D03*
X96303750Y-57868250D03*
X97573750Y-57868250D03*
X98843750Y-57868250D03*
X100113750Y-57868250D03*
X101383750Y-57868250D03*
X86143750Y-63075250D03*
X84873750Y-63075250D03*
X83603750Y-63075250D03*
X82333750Y-63075250D03*
X81063750Y-63075250D03*
X79793750Y-63075250D03*
X78523750Y-63075250D03*
X77253750Y-63075250D03*
X77253750Y-57995250D03*
X78523750Y-57995250D03*
X79793750Y-57995250D03*
X81063750Y-57995250D03*
X82333750Y-57995250D03*
X83603750Y-57995250D03*
X84873750Y-57995250D03*
X86143750Y-57995250D03*
X70903750Y-63075250D03*
X69633750Y-63075250D03*
X68363750Y-63075250D03*
X67093750Y-63075250D03*
X65823750Y-63075250D03*
X64553750Y-63075250D03*
X63283750Y-63075250D03*
X62013750Y-63075250D03*
X62013750Y-57995250D03*
X63283750Y-57995250D03*
X64553750Y-57995250D03*
X65823750Y-57995250D03*
X67093750Y-57995250D03*
X68363750Y-57995250D03*
X69633750Y-57995250D03*
X70903750Y-57995250D03*
X55663750Y-63075250D03*
X54393750Y-63075250D03*
X53123750Y-63075250D03*
X51853750Y-63075250D03*
X50583750Y-63075250D03*
X49313750Y-63075250D03*
X48043750Y-63075250D03*
X46773750Y-63075250D03*
X46773750Y-57995250D03*
X48043750Y-57995250D03*
X49313750Y-57995250D03*
X50583750Y-57995250D03*
X51853750Y-57995250D03*
X53123750Y-57995250D03*
X54393750Y-57995250D03*
X55663750Y-57995250D03*
X40423750Y-63075250D03*
X39153750Y-63075250D03*
X37883750Y-63075250D03*
X36613750Y-63075250D03*
X35343750Y-63075250D03*
X34073750Y-63075250D03*
X32803750Y-63075250D03*
X31533750Y-63075250D03*
X31533750Y-57995250D03*
X32803750Y-57995250D03*
X34073750Y-57995250D03*
X35343750Y-57995250D03*
X36613750Y-57995250D03*
X37883750Y-57995250D03*
X39153750Y-57995250D03*
X40423750Y-57995250D03*
D21*
X103200000Y-57800000D03*
X105200000Y-57800000D03*
X57600000Y-58000000D03*
X59600000Y-58000000D03*
X87900000Y-58100000D03*
X89900000Y-58100000D03*
X42300000Y-57900000D03*
X44300000Y-57900000D03*
X72800000Y-58000000D03*
X74800000Y-58000000D03*
X85200000Y-47200000D03*
X83200000Y-47200000D03*
D13*
X97038750Y-107668250D03*
X97038750Y-105768250D03*
X96938750Y-93161250D03*
X96938750Y-91261250D03*
X81698750Y-107641250D03*
X81698750Y-105741250D03*
X81698750Y-93161250D03*
X81698750Y-91261250D03*
X66458750Y-93161250D03*
X66458750Y-91261250D03*
X51218750Y-107641250D03*
X51218750Y-105741250D03*
X51218750Y-93161250D03*
X51218750Y-91261250D03*
X36500000Y-51150000D03*
X36500000Y-49250000D03*
X35978750Y-107641250D03*
X35978750Y-105741250D03*
X35978750Y-93161250D03*
X35978750Y-91261250D03*
X100748750Y-120221250D03*
X100748750Y-122121250D03*
X96938750Y-122121250D03*
X96938750Y-120221250D03*
X100848750Y-105768250D03*
X100848750Y-107668250D03*
X100748750Y-91261250D03*
X100748750Y-93161250D03*
X100748750Y-76781250D03*
X100748750Y-78681250D03*
X96938750Y-78681250D03*
X96938750Y-76781250D03*
X93128750Y-122121250D03*
X93128750Y-120221250D03*
X93128750Y-107668250D03*
X93128750Y-105768250D03*
X93128750Y-93161250D03*
X93128750Y-91261250D03*
X93128750Y-78681250D03*
X93128750Y-76781250D03*
X81698750Y-122121250D03*
X81698750Y-120221250D03*
X85508750Y-120221250D03*
X85508750Y-122121250D03*
X85508750Y-105741250D03*
X85508750Y-107641250D03*
X85508750Y-91261250D03*
X85508750Y-93161250D03*
X85508750Y-76781250D03*
X85508750Y-78681250D03*
X81698750Y-78681250D03*
X81698750Y-76781250D03*
X77888750Y-122121250D03*
X77888750Y-120221250D03*
X77888750Y-107641250D03*
X77888750Y-105741250D03*
X77888750Y-93161250D03*
X77888750Y-91261250D03*
X77888750Y-78681250D03*
X77888750Y-76781250D03*
X66458750Y-122121250D03*
X66458750Y-120221250D03*
X70268750Y-120221250D03*
X70268750Y-122121250D03*
X70268750Y-105741250D03*
X70268750Y-107641250D03*
X70268750Y-91261250D03*
X70268750Y-93161250D03*
X70268750Y-76781250D03*
X70268750Y-78681250D03*
X66458750Y-78681250D03*
X66458750Y-76781250D03*
X62648750Y-122121250D03*
X62648750Y-120221250D03*
X62648750Y-107641250D03*
X62648750Y-105741250D03*
X62648750Y-93161250D03*
X62648750Y-91261250D03*
X62648750Y-78681250D03*
X62648750Y-76781250D03*
X51218750Y-122121250D03*
X51218750Y-120221250D03*
X55028750Y-120221250D03*
X55028750Y-122121250D03*
X55028750Y-105741250D03*
X55028750Y-107641250D03*
X55028750Y-91261250D03*
X55028750Y-93161250D03*
X55028750Y-76781250D03*
X55028750Y-78681250D03*
X51218750Y-78681250D03*
X51218750Y-76781250D03*
X47408750Y-122121250D03*
X47408750Y-120221250D03*
X47408750Y-107641250D03*
X47408750Y-105741250D03*
X47408750Y-93161250D03*
X47408750Y-91261250D03*
X47408750Y-78681250D03*
X47408750Y-76781250D03*
X39788750Y-120221250D03*
X39788750Y-122121250D03*
X35978750Y-122121250D03*
X35978750Y-120221250D03*
X39788750Y-105741250D03*
X39788750Y-107641250D03*
X39788750Y-91261250D03*
X39788750Y-93161250D03*
X39788750Y-76781250D03*
X39788750Y-78681250D03*
X35978750Y-78681250D03*
X35978750Y-76781250D03*
X32168750Y-122121250D03*
X32168750Y-120221250D03*
X32168750Y-107641250D03*
X32168750Y-105741250D03*
X32168750Y-93161250D03*
X32168750Y-91261250D03*
X32168750Y-78681250D03*
X32168750Y-76781250D03*
D17*
X51000000Y-50700000D03*
D18*
X48460000Y-50700000D03*
D22*
X62000000Y-134200000D03*
X61200000Y-134200000D03*
X59600000Y-134200000D03*
X60400000Y-134200000D03*
X57200000Y-134200000D03*
X56400000Y-134200000D03*
X58000000Y-134200000D03*
X58800000Y-134200000D03*
X68400000Y-134200000D03*
X67600000Y-134200000D03*
X66000000Y-134200000D03*
X66800000Y-134200000D03*
X63600000Y-134200000D03*
X62800000Y-134200000D03*
X64400000Y-134200000D03*
X65200000Y-134200000D03*
X74800000Y-134200000D03*
X70800000Y-134200000D03*
X69200000Y-134200000D03*
X70000000Y-134200000D03*
X76400000Y-134200000D03*
X75600000Y-134200000D03*
X77200000Y-134200000D03*
X78800000Y-134200000D03*
X78000000Y-134200000D03*
M02*
