G04 #@! TF.FileFunction,Legend,Bot*
%FSLAX46Y46*%
G04 Gerber Fmt 4.6, Leading zero omitted, Abs format (unit mm)*
G04 Created by KiCad (PCBNEW 4.0.1-stable) date 2017-03-07 5:32:39 PM*
%MOMM*%
G01*
G04 APERTURE LIST*
%ADD10C,0.150000*%
%ADD11C,0.304800*%
%ADD12C,0.254000*%
%ADD13C,0.203200*%
%ADD14C,0.120000*%
%ADD15C,0.152400*%
%ADD16C,0.127000*%
%ADD17C,0.100000*%
G04 APERTURE END LIST*
D10*
D11*
X93845143Y-102219429D02*
X93845143Y-103380572D01*
X94619238Y-102800001D02*
X93071048Y-102800001D01*
D10*
X77201250Y-60638750D02*
X77201250Y-55558750D01*
X77201250Y-55558750D02*
X87361250Y-55558750D01*
X87361250Y-55558750D02*
X87361250Y-60638750D01*
X87361250Y-60638750D02*
X77201250Y-60638750D01*
X77201250Y-59368750D02*
X78471250Y-59368750D01*
X78471250Y-59368750D02*
X78471250Y-56828750D01*
X78471250Y-56828750D02*
X77201250Y-56828750D01*
X67916250Y-51508750D02*
X67916250Y-50308750D01*
X66166250Y-50308750D02*
X66166250Y-51508750D01*
D12*
X91568000Y-106830000D02*
X91568000Y-103909000D01*
X91568000Y-103909000D02*
X95632000Y-103909000D01*
X95632000Y-103909000D02*
X95632000Y-106830000D01*
X91568000Y-109370000D02*
X91568000Y-112291000D01*
X91568000Y-112291000D02*
X95632000Y-112291000D01*
X95632000Y-112291000D02*
X95632000Y-109370000D01*
D10*
X31481250Y-46258750D02*
X31481250Y-41178750D01*
X31481250Y-41178750D02*
X41641250Y-41178750D01*
X41641250Y-41178750D02*
X41641250Y-46258750D01*
X41641250Y-46258750D02*
X31481250Y-46258750D01*
X31481250Y-44988750D02*
X32751250Y-44988750D01*
X32751250Y-44988750D02*
X32751250Y-42448750D01*
X32751250Y-42448750D02*
X31481250Y-42448750D01*
X31481250Y-60638750D02*
X31481250Y-55558750D01*
X31481250Y-55558750D02*
X41641250Y-55558750D01*
X41641250Y-55558750D02*
X41641250Y-60638750D01*
X41641250Y-60638750D02*
X31481250Y-60638750D01*
X31481250Y-59368750D02*
X32751250Y-59368750D01*
X32751250Y-59368750D02*
X32751250Y-56828750D01*
X32751250Y-56828750D02*
X31481250Y-56828750D01*
X31481250Y-75218750D02*
X31481250Y-70138750D01*
X31481250Y-70138750D02*
X41641250Y-70138750D01*
X41641250Y-70138750D02*
X41641250Y-75218750D01*
X41641250Y-75218750D02*
X31481250Y-75218750D01*
X31481250Y-73948750D02*
X32751250Y-73948750D01*
X32751250Y-73948750D02*
X32751250Y-71408750D01*
X32751250Y-71408750D02*
X31481250Y-71408750D01*
X31481250Y-89698750D02*
X31481250Y-84618750D01*
X31481250Y-84618750D02*
X41641250Y-84618750D01*
X41641250Y-84618750D02*
X41641250Y-89698750D01*
X41641250Y-89698750D02*
X31481250Y-89698750D01*
X31481250Y-88428750D02*
X32751250Y-88428750D01*
X32751250Y-88428750D02*
X32751250Y-85888750D01*
X32751250Y-85888750D02*
X31481250Y-85888750D01*
X46721250Y-46258750D02*
X46721250Y-41178750D01*
X46721250Y-41178750D02*
X56881250Y-41178750D01*
X56881250Y-41178750D02*
X56881250Y-46258750D01*
X56881250Y-46258750D02*
X46721250Y-46258750D01*
X46721250Y-44988750D02*
X47991250Y-44988750D01*
X47991250Y-44988750D02*
X47991250Y-42448750D01*
X47991250Y-42448750D02*
X46721250Y-42448750D01*
X46721250Y-60638750D02*
X46721250Y-55558750D01*
X46721250Y-55558750D02*
X56881250Y-55558750D01*
X56881250Y-55558750D02*
X56881250Y-60638750D01*
X56881250Y-60638750D02*
X46721250Y-60638750D01*
X46721250Y-59368750D02*
X47991250Y-59368750D01*
X47991250Y-59368750D02*
X47991250Y-56828750D01*
X47991250Y-56828750D02*
X46721250Y-56828750D01*
X46721250Y-75218750D02*
X46721250Y-70138750D01*
X46721250Y-70138750D02*
X56881250Y-70138750D01*
X56881250Y-70138750D02*
X56881250Y-75218750D01*
X56881250Y-75218750D02*
X46721250Y-75218750D01*
X46721250Y-73948750D02*
X47991250Y-73948750D01*
X47991250Y-73948750D02*
X47991250Y-71408750D01*
X47991250Y-71408750D02*
X46721250Y-71408750D01*
X46721250Y-89698750D02*
X46721250Y-84618750D01*
X46721250Y-84618750D02*
X56881250Y-84618750D01*
X56881250Y-84618750D02*
X56881250Y-89698750D01*
X56881250Y-89698750D02*
X46721250Y-89698750D01*
X46721250Y-88428750D02*
X47991250Y-88428750D01*
X47991250Y-88428750D02*
X47991250Y-85888750D01*
X47991250Y-85888750D02*
X46721250Y-85888750D01*
X61961250Y-46258750D02*
X61961250Y-41178750D01*
X61961250Y-41178750D02*
X72121250Y-41178750D01*
X72121250Y-41178750D02*
X72121250Y-46258750D01*
X72121250Y-46258750D02*
X61961250Y-46258750D01*
X61961250Y-44988750D02*
X63231250Y-44988750D01*
X63231250Y-44988750D02*
X63231250Y-42448750D01*
X63231250Y-42448750D02*
X61961250Y-42448750D01*
X61961250Y-60638750D02*
X61961250Y-55558750D01*
X61961250Y-55558750D02*
X72121250Y-55558750D01*
X72121250Y-55558750D02*
X72121250Y-60638750D01*
X72121250Y-60638750D02*
X61961250Y-60638750D01*
X61961250Y-59368750D02*
X63231250Y-59368750D01*
X63231250Y-59368750D02*
X63231250Y-56828750D01*
X63231250Y-56828750D02*
X61961250Y-56828750D01*
X61961250Y-75218750D02*
X61961250Y-70138750D01*
X61961250Y-70138750D02*
X72121250Y-70138750D01*
X72121250Y-70138750D02*
X72121250Y-75218750D01*
X72121250Y-75218750D02*
X61961250Y-75218750D01*
X61961250Y-73948750D02*
X63231250Y-73948750D01*
X63231250Y-73948750D02*
X63231250Y-71408750D01*
X63231250Y-71408750D02*
X61961250Y-71408750D01*
X61961250Y-89698750D02*
X61961250Y-84618750D01*
X61961250Y-84618750D02*
X72121250Y-84618750D01*
X72121250Y-84618750D02*
X72121250Y-89698750D01*
X72121250Y-89698750D02*
X61961250Y-89698750D01*
X61961250Y-88428750D02*
X63231250Y-88428750D01*
X63231250Y-88428750D02*
X63231250Y-85888750D01*
X63231250Y-85888750D02*
X61961250Y-85888750D01*
X77201250Y-46258750D02*
X77201250Y-41178750D01*
X77201250Y-41178750D02*
X87361250Y-41178750D01*
X87361250Y-41178750D02*
X87361250Y-46258750D01*
X87361250Y-46258750D02*
X77201250Y-46258750D01*
X77201250Y-44988750D02*
X78471250Y-44988750D01*
X78471250Y-44988750D02*
X78471250Y-42448750D01*
X78471250Y-42448750D02*
X77201250Y-42448750D01*
X77201250Y-75218750D02*
X77201250Y-70138750D01*
X77201250Y-70138750D02*
X87361250Y-70138750D01*
X87361250Y-70138750D02*
X87361250Y-75218750D01*
X87361250Y-75218750D02*
X77201250Y-75218750D01*
X77201250Y-73948750D02*
X78471250Y-73948750D01*
X78471250Y-73948750D02*
X78471250Y-71408750D01*
X78471250Y-71408750D02*
X77201250Y-71408750D01*
X77201250Y-89698750D02*
X77201250Y-84618750D01*
X77201250Y-84618750D02*
X87361250Y-84618750D01*
X87361250Y-84618750D02*
X87361250Y-89698750D01*
X87361250Y-89698750D02*
X77201250Y-89698750D01*
X77201250Y-88428750D02*
X78471250Y-88428750D01*
X78471250Y-88428750D02*
X78471250Y-85888750D01*
X78471250Y-85888750D02*
X77201250Y-85888750D01*
X92441250Y-46258750D02*
X92441250Y-41178750D01*
X92441250Y-41178750D02*
X102601250Y-41178750D01*
X102601250Y-41178750D02*
X102601250Y-46258750D01*
X102601250Y-46258750D02*
X92441250Y-46258750D01*
X92441250Y-44988750D02*
X93711250Y-44988750D01*
X93711250Y-44988750D02*
X93711250Y-42448750D01*
X93711250Y-42448750D02*
X92441250Y-42448750D01*
X92441250Y-60638750D02*
X92441250Y-55558750D01*
X92441250Y-55558750D02*
X102601250Y-55558750D01*
X102601250Y-55558750D02*
X102601250Y-60638750D01*
X102601250Y-60638750D02*
X92441250Y-60638750D01*
X92441250Y-59368750D02*
X93711250Y-59368750D01*
X93711250Y-59368750D02*
X93711250Y-56828750D01*
X93711250Y-56828750D02*
X92441250Y-56828750D01*
X92441250Y-75218750D02*
X92441250Y-70138750D01*
X92441250Y-70138750D02*
X102601250Y-70138750D01*
X102601250Y-70138750D02*
X102601250Y-75218750D01*
X102601250Y-75218750D02*
X92441250Y-75218750D01*
X92441250Y-73948750D02*
X93711250Y-73948750D01*
X93711250Y-73948750D02*
X93711250Y-71408750D01*
X93711250Y-71408750D02*
X92441250Y-71408750D01*
X92441250Y-89698750D02*
X92441250Y-84618750D01*
X92441250Y-84618750D02*
X102601250Y-84618750D01*
X102601250Y-84618750D02*
X102601250Y-89698750D01*
X102601250Y-89698750D02*
X92441250Y-89698750D01*
X92441250Y-88428750D02*
X93711250Y-88428750D01*
X93711250Y-88428750D02*
X93711250Y-85888750D01*
X93711250Y-85888750D02*
X92441250Y-85888750D01*
D13*
X31100250Y-98969750D02*
X42022250Y-98969750D01*
X42022250Y-98969750D02*
X42022250Y-95413750D01*
X42022250Y-95413750D02*
X31100250Y-95413750D01*
X31100250Y-95413750D02*
X31100250Y-98969750D01*
X31100250Y-97699750D02*
X31862250Y-97699750D01*
X31862250Y-97699750D02*
X31862250Y-96683750D01*
X31862250Y-96683750D02*
X31100250Y-96683750D01*
X46340250Y-98842750D02*
X57262250Y-98842750D01*
X57262250Y-98842750D02*
X57262250Y-95286750D01*
X57262250Y-95286750D02*
X46340250Y-95286750D01*
X46340250Y-95286750D02*
X46340250Y-98842750D01*
X46340250Y-97572750D02*
X47102250Y-97572750D01*
X47102250Y-97572750D02*
X47102250Y-96556750D01*
X47102250Y-96556750D02*
X46340250Y-96556750D01*
X61580250Y-98842750D02*
X72502250Y-98842750D01*
X72502250Y-98842750D02*
X72502250Y-95286750D01*
X72502250Y-95286750D02*
X61580250Y-95286750D01*
X61580250Y-95286750D02*
X61580250Y-98842750D01*
X61580250Y-97572750D02*
X62342250Y-97572750D01*
X62342250Y-97572750D02*
X62342250Y-96556750D01*
X62342250Y-96556750D02*
X61580250Y-96556750D01*
X76820250Y-98842750D02*
X87742250Y-98842750D01*
X87742250Y-98842750D02*
X87742250Y-95286750D01*
X87742250Y-95286750D02*
X76820250Y-95286750D01*
X76820250Y-95286750D02*
X76820250Y-98842750D01*
X76820250Y-97572750D02*
X77582250Y-97572750D01*
X77582250Y-97572750D02*
X77582250Y-96556750D01*
X77582250Y-96556750D02*
X76820250Y-96556750D01*
X92060250Y-98842750D02*
X102982250Y-98842750D01*
X102982250Y-98842750D02*
X102982250Y-95286750D01*
X102982250Y-95286750D02*
X92060250Y-95286750D01*
X92060250Y-95286750D02*
X92060250Y-98842750D01*
X92060250Y-97572750D02*
X92822250Y-97572750D01*
X92822250Y-97572750D02*
X92822250Y-96556750D01*
X92822250Y-96556750D02*
X92060250Y-96556750D01*
D10*
X28800000Y-98950000D02*
X29800000Y-98950000D01*
X29800000Y-100650000D02*
X28800000Y-100650000D01*
X74400000Y-98750000D02*
X75400000Y-98750000D01*
X75400000Y-100450000D02*
X74400000Y-100450000D01*
X44100000Y-98650000D02*
X45100000Y-98650000D01*
X45100000Y-100350000D02*
X44100000Y-100350000D01*
X89700000Y-98850000D02*
X90700000Y-98850000D01*
X90700000Y-100550000D02*
X89700000Y-100550000D01*
X59200000Y-98750000D02*
X60200000Y-98750000D01*
X60200000Y-100450000D02*
X59200000Y-100450000D01*
X51050000Y-106200000D02*
X51050000Y-107200000D01*
X49350000Y-107200000D02*
X49350000Y-106200000D01*
X37336250Y-51481750D02*
X37336250Y-50281750D01*
X35586250Y-50281750D02*
X35586250Y-51481750D01*
X37436250Y-65988750D02*
X37436250Y-64788750D01*
X35686250Y-64788750D02*
X35686250Y-65988750D01*
X52676250Y-51508750D02*
X52676250Y-50308750D01*
X50926250Y-50308750D02*
X50926250Y-51508750D01*
X52676250Y-65988750D02*
X52676250Y-64788750D01*
X50926250Y-64788750D02*
X50926250Y-65988750D01*
X67916250Y-65988750D02*
X67916250Y-64788750D01*
X66166250Y-64788750D02*
X66166250Y-65988750D01*
X83156250Y-51508750D02*
X83156250Y-50308750D01*
X81406250Y-50308750D02*
X81406250Y-51508750D01*
X83156250Y-65988750D02*
X83156250Y-64788750D01*
X81406250Y-64788750D02*
X81406250Y-65988750D01*
X89375000Y-110800000D02*
X89375000Y-109600000D01*
X87625000Y-109600000D02*
X87625000Y-110800000D01*
X98396250Y-51508750D02*
X98396250Y-50308750D01*
X96646250Y-50308750D02*
X96646250Y-51508750D01*
X98396250Y-65988750D02*
X98396250Y-64788750D01*
X96646250Y-64788750D02*
X96646250Y-65988750D01*
X31876250Y-35828750D02*
X31876250Y-37028750D01*
X33626250Y-37028750D02*
X33626250Y-35828750D01*
X37436250Y-37028750D02*
X37436250Y-35828750D01*
X35686250Y-35828750D02*
X35686250Y-37028750D01*
X31776250Y-50281750D02*
X31776250Y-51481750D01*
X33526250Y-51481750D02*
X33526250Y-50281750D01*
X31876250Y-64788750D02*
X31876250Y-65988750D01*
X33626250Y-65988750D02*
X33626250Y-64788750D01*
X31876250Y-79268750D02*
X31876250Y-80468750D01*
X33626250Y-80468750D02*
X33626250Y-79268750D01*
X37436250Y-80468750D02*
X37436250Y-79268750D01*
X35686250Y-79268750D02*
X35686250Y-80468750D01*
X41246250Y-37028750D02*
X41246250Y-35828750D01*
X39496250Y-35828750D02*
X39496250Y-37028750D01*
X41246250Y-51481750D02*
X41246250Y-50281750D01*
X39496250Y-50281750D02*
X39496250Y-51481750D01*
X41246250Y-65988750D02*
X41246250Y-64788750D01*
X39496250Y-64788750D02*
X39496250Y-65988750D01*
X41246250Y-80468750D02*
X41246250Y-79268750D01*
X39496250Y-79268750D02*
X39496250Y-80468750D01*
X52676250Y-37028750D02*
X52676250Y-35828750D01*
X50926250Y-35828750D02*
X50926250Y-37028750D01*
X47116250Y-35828750D02*
X47116250Y-37028750D01*
X48866250Y-37028750D02*
X48866250Y-35828750D01*
X47116250Y-50308750D02*
X47116250Y-51508750D01*
X48866250Y-51508750D02*
X48866250Y-50308750D01*
X47116250Y-64788750D02*
X47116250Y-65988750D01*
X48866250Y-65988750D02*
X48866250Y-64788750D01*
X47116250Y-79268750D02*
X47116250Y-80468750D01*
X48866250Y-80468750D02*
X48866250Y-79268750D01*
X52676250Y-80468750D02*
X52676250Y-79268750D01*
X50926250Y-79268750D02*
X50926250Y-80468750D01*
X56486250Y-37028750D02*
X56486250Y-35828750D01*
X54736250Y-35828750D02*
X54736250Y-37028750D01*
X56486250Y-51508750D02*
X56486250Y-50308750D01*
X54736250Y-50308750D02*
X54736250Y-51508750D01*
X56486250Y-65988750D02*
X56486250Y-64788750D01*
X54736250Y-64788750D02*
X54736250Y-65988750D01*
X56486250Y-80468750D02*
X56486250Y-79268750D01*
X54736250Y-79268750D02*
X54736250Y-80468750D01*
X67916250Y-37028750D02*
X67916250Y-35828750D01*
X66166250Y-35828750D02*
X66166250Y-37028750D01*
X62356250Y-35828750D02*
X62356250Y-37028750D01*
X64106250Y-37028750D02*
X64106250Y-35828750D01*
X62356250Y-50308750D02*
X62356250Y-51508750D01*
X64106250Y-51508750D02*
X64106250Y-50308750D01*
X62356250Y-64788750D02*
X62356250Y-65988750D01*
X64106250Y-65988750D02*
X64106250Y-64788750D01*
X62356250Y-79268750D02*
X62356250Y-80468750D01*
X64106250Y-80468750D02*
X64106250Y-79268750D01*
X67916250Y-80468750D02*
X67916250Y-79268750D01*
X66166250Y-79268750D02*
X66166250Y-80468750D01*
X71726250Y-37028750D02*
X71726250Y-35828750D01*
X69976250Y-35828750D02*
X69976250Y-37028750D01*
X71726250Y-51508750D02*
X71726250Y-50308750D01*
X69976250Y-50308750D02*
X69976250Y-51508750D01*
X71726250Y-65988750D02*
X71726250Y-64788750D01*
X69976250Y-64788750D02*
X69976250Y-65988750D01*
X71726250Y-80468750D02*
X71726250Y-79268750D01*
X69976250Y-79268750D02*
X69976250Y-80468750D01*
X83156250Y-37028750D02*
X83156250Y-35828750D01*
X81406250Y-35828750D02*
X81406250Y-37028750D01*
X77596250Y-35828750D02*
X77596250Y-37028750D01*
X79346250Y-37028750D02*
X79346250Y-35828750D01*
X77596250Y-50308750D02*
X77596250Y-51508750D01*
X79346250Y-51508750D02*
X79346250Y-50308750D01*
X77596250Y-64788750D02*
X77596250Y-65988750D01*
X79346250Y-65988750D02*
X79346250Y-64788750D01*
X77596250Y-79268750D02*
X77596250Y-80468750D01*
X79346250Y-80468750D02*
X79346250Y-79268750D01*
X83156250Y-80468750D02*
X83156250Y-79268750D01*
X81406250Y-79268750D02*
X81406250Y-80468750D01*
X86966250Y-37028750D02*
X86966250Y-35828750D01*
X85216250Y-35828750D02*
X85216250Y-37028750D01*
X86966250Y-51508750D02*
X86966250Y-50308750D01*
X85216250Y-50308750D02*
X85216250Y-51508750D01*
X86966250Y-65988750D02*
X86966250Y-64788750D01*
X85216250Y-64788750D02*
X85216250Y-65988750D01*
X86966250Y-80468750D02*
X86966250Y-79268750D01*
X85216250Y-79268750D02*
X85216250Y-80468750D01*
X92836250Y-35828750D02*
X92836250Y-37028750D01*
X94586250Y-37028750D02*
X94586250Y-35828750D01*
X98396250Y-37028750D02*
X98396250Y-35828750D01*
X96646250Y-35828750D02*
X96646250Y-37028750D01*
X92836250Y-50308750D02*
X92836250Y-51508750D01*
X94586250Y-51508750D02*
X94586250Y-50308750D01*
X92836250Y-64788750D02*
X92836250Y-65988750D01*
X94586250Y-65988750D02*
X94586250Y-64788750D01*
X92836250Y-79268750D02*
X92836250Y-80468750D01*
X94586250Y-80468750D02*
X94586250Y-79268750D01*
X98396250Y-80468750D02*
X98396250Y-79268750D01*
X96646250Y-79268750D02*
X96646250Y-80468750D01*
X102206250Y-37028750D02*
X102206250Y-35828750D01*
X100456250Y-35828750D02*
X100456250Y-37028750D01*
X102206250Y-51508750D02*
X102206250Y-50308750D01*
X100456250Y-50308750D02*
X100456250Y-51508750D01*
X102206250Y-65988750D02*
X102206250Y-64788750D01*
X100456250Y-64788750D02*
X100456250Y-65988750D01*
X102206250Y-80468750D02*
X102206250Y-79268750D01*
X100456250Y-79268750D02*
X100456250Y-80468750D01*
D14*
X49100000Y-109750000D02*
X50100000Y-109750000D01*
X50100000Y-111450000D02*
X49100000Y-111450000D01*
X35225000Y-112250000D02*
X34225000Y-112250000D01*
X34225000Y-110550000D02*
X35225000Y-110550000D01*
X35225000Y-114325000D02*
X34225000Y-114325000D01*
X34225000Y-112625000D02*
X35225000Y-112625000D01*
X43850000Y-111080000D02*
X45050000Y-111080000D01*
X45050000Y-109320000D02*
X43850000Y-109320000D01*
X43850000Y-112780000D02*
X45050000Y-112780000D01*
X45050000Y-111020000D02*
X43850000Y-111020000D01*
X61925000Y-111830000D02*
X63125000Y-111830000D01*
X63125000Y-110070000D02*
X61925000Y-110070000D01*
X60380000Y-26500000D02*
X60380000Y-25300000D01*
X58620000Y-25300000D02*
X58620000Y-26500000D01*
X58250000Y-25500000D02*
X58250000Y-26500000D01*
X56550000Y-26500000D02*
X56550000Y-25500000D01*
D10*
X76357143Y-56933334D02*
X76404762Y-56885715D01*
X76452381Y-56742858D01*
X76452381Y-56647620D01*
X76404762Y-56504762D01*
X76309524Y-56409524D01*
X76214286Y-56361905D01*
X76023810Y-56314286D01*
X75880952Y-56314286D01*
X75690476Y-56361905D01*
X75595238Y-56409524D01*
X75500000Y-56504762D01*
X75452381Y-56647620D01*
X75452381Y-56742858D01*
X75500000Y-56885715D01*
X75547619Y-56933334D01*
X76452381Y-57361905D02*
X75452381Y-57361905D01*
X75928571Y-57361905D02*
X75928571Y-57933334D01*
X76452381Y-57933334D02*
X75452381Y-57933334D01*
X75547619Y-58361905D02*
X75500000Y-58409524D01*
X75452381Y-58504762D01*
X75452381Y-58742858D01*
X75500000Y-58838096D01*
X75547619Y-58885715D01*
X75642857Y-58933334D01*
X75738095Y-58933334D01*
X75880952Y-58885715D01*
X76452381Y-58314286D01*
X76452381Y-58933334D01*
X75452381Y-59266667D02*
X75452381Y-59933334D01*
X76452381Y-59504762D01*
X65862381Y-49547143D02*
X65386190Y-49213809D01*
X65862381Y-48975714D02*
X64862381Y-48975714D01*
X64862381Y-49356667D01*
X64910000Y-49451905D01*
X64957619Y-49499524D01*
X65052857Y-49547143D01*
X65195714Y-49547143D01*
X65290952Y-49499524D01*
X65338571Y-49451905D01*
X65386190Y-49356667D01*
X65386190Y-48975714D01*
X64957619Y-49928095D02*
X64910000Y-49975714D01*
X64862381Y-50070952D01*
X64862381Y-50309048D01*
X64910000Y-50404286D01*
X64957619Y-50451905D01*
X65052857Y-50499524D01*
X65148095Y-50499524D01*
X65290952Y-50451905D01*
X65862381Y-49880476D01*
X65862381Y-50499524D01*
X64862381Y-51404286D02*
X64862381Y-50928095D01*
X65338571Y-50880476D01*
X65290952Y-50928095D01*
X65243333Y-51023333D01*
X65243333Y-51261429D01*
X65290952Y-51356667D01*
X65338571Y-51404286D01*
X65433810Y-51451905D01*
X65671905Y-51451905D01*
X65767143Y-51404286D01*
X65814762Y-51356667D01*
X65862381Y-51261429D01*
X65862381Y-51023333D01*
X65814762Y-50928095D01*
X65767143Y-50880476D01*
D15*
X96948166Y-104917500D02*
X96990500Y-104959833D01*
X97117500Y-105002167D01*
X97202166Y-105002167D01*
X97329166Y-104959833D01*
X97413833Y-104875167D01*
X97456166Y-104790500D01*
X97498500Y-104621167D01*
X97498500Y-104494167D01*
X97456166Y-104324833D01*
X97413833Y-104240167D01*
X97329166Y-104155500D01*
X97202166Y-104113167D01*
X97117500Y-104113167D01*
X96990500Y-104155500D01*
X96948166Y-104197833D01*
X96609500Y-104197833D02*
X96567166Y-104155500D01*
X96482500Y-104113167D01*
X96270833Y-104113167D01*
X96186166Y-104155500D01*
X96143833Y-104197833D01*
X96101500Y-104282500D01*
X96101500Y-104367167D01*
X96143833Y-104494167D01*
X96651833Y-105002167D01*
X96101500Y-105002167D01*
D10*
X30657143Y-43009524D02*
X30704762Y-42961905D01*
X30752381Y-42819048D01*
X30752381Y-42723810D01*
X30704762Y-42580952D01*
X30609524Y-42485714D01*
X30514286Y-42438095D01*
X30323810Y-42390476D01*
X30180952Y-42390476D01*
X29990476Y-42438095D01*
X29895238Y-42485714D01*
X29800000Y-42580952D01*
X29752381Y-42723810D01*
X29752381Y-42819048D01*
X29800000Y-42961905D01*
X29847619Y-43009524D01*
X30752381Y-43438095D02*
X29752381Y-43438095D01*
X30228571Y-43438095D02*
X30228571Y-44009524D01*
X30752381Y-44009524D02*
X29752381Y-44009524D01*
X30752381Y-45009524D02*
X30752381Y-44438095D01*
X30752381Y-44723809D02*
X29752381Y-44723809D01*
X29895238Y-44628571D01*
X29990476Y-44533333D01*
X30038095Y-44438095D01*
X30657143Y-57309524D02*
X30704762Y-57261905D01*
X30752381Y-57119048D01*
X30752381Y-57023810D01*
X30704762Y-56880952D01*
X30609524Y-56785714D01*
X30514286Y-56738095D01*
X30323810Y-56690476D01*
X30180952Y-56690476D01*
X29990476Y-56738095D01*
X29895238Y-56785714D01*
X29800000Y-56880952D01*
X29752381Y-57023810D01*
X29752381Y-57119048D01*
X29800000Y-57261905D01*
X29847619Y-57309524D01*
X30752381Y-57738095D02*
X29752381Y-57738095D01*
X30228571Y-57738095D02*
X30228571Y-58309524D01*
X30752381Y-58309524D02*
X29752381Y-58309524D01*
X29752381Y-58690476D02*
X29752381Y-59309524D01*
X30133333Y-58976190D01*
X30133333Y-59119048D01*
X30180952Y-59214286D01*
X30228571Y-59261905D01*
X30323810Y-59309524D01*
X30561905Y-59309524D01*
X30657143Y-59261905D01*
X30704762Y-59214286D01*
X30752381Y-59119048D01*
X30752381Y-58833333D01*
X30704762Y-58738095D01*
X30657143Y-58690476D01*
X30657143Y-71909524D02*
X30704762Y-71861905D01*
X30752381Y-71719048D01*
X30752381Y-71623810D01*
X30704762Y-71480952D01*
X30609524Y-71385714D01*
X30514286Y-71338095D01*
X30323810Y-71290476D01*
X30180952Y-71290476D01*
X29990476Y-71338095D01*
X29895238Y-71385714D01*
X29800000Y-71480952D01*
X29752381Y-71623810D01*
X29752381Y-71719048D01*
X29800000Y-71861905D01*
X29847619Y-71909524D01*
X30752381Y-72338095D02*
X29752381Y-72338095D01*
X30228571Y-72338095D02*
X30228571Y-72909524D01*
X30752381Y-72909524D02*
X29752381Y-72909524D01*
X29752381Y-73861905D02*
X29752381Y-73385714D01*
X30228571Y-73338095D01*
X30180952Y-73385714D01*
X30133333Y-73480952D01*
X30133333Y-73719048D01*
X30180952Y-73814286D01*
X30228571Y-73861905D01*
X30323810Y-73909524D01*
X30561905Y-73909524D01*
X30657143Y-73861905D01*
X30704762Y-73814286D01*
X30752381Y-73719048D01*
X30752381Y-73480952D01*
X30704762Y-73385714D01*
X30657143Y-73338095D01*
X30647143Y-86449524D02*
X30694762Y-86401905D01*
X30742381Y-86259048D01*
X30742381Y-86163810D01*
X30694762Y-86020952D01*
X30599524Y-85925714D01*
X30504286Y-85878095D01*
X30313810Y-85830476D01*
X30170952Y-85830476D01*
X29980476Y-85878095D01*
X29885238Y-85925714D01*
X29790000Y-86020952D01*
X29742381Y-86163810D01*
X29742381Y-86259048D01*
X29790000Y-86401905D01*
X29837619Y-86449524D01*
X30742381Y-86878095D02*
X29742381Y-86878095D01*
X30218571Y-86878095D02*
X30218571Y-87449524D01*
X30742381Y-87449524D02*
X29742381Y-87449524D01*
X29742381Y-87830476D02*
X29742381Y-88497143D01*
X30742381Y-88068571D01*
X45757143Y-43009524D02*
X45804762Y-42961905D01*
X45852381Y-42819048D01*
X45852381Y-42723810D01*
X45804762Y-42580952D01*
X45709524Y-42485714D01*
X45614286Y-42438095D01*
X45423810Y-42390476D01*
X45280952Y-42390476D01*
X45090476Y-42438095D01*
X44995238Y-42485714D01*
X44900000Y-42580952D01*
X44852381Y-42723810D01*
X44852381Y-42819048D01*
X44900000Y-42961905D01*
X44947619Y-43009524D01*
X45852381Y-43438095D02*
X44852381Y-43438095D01*
X45328571Y-43438095D02*
X45328571Y-44009524D01*
X45852381Y-44009524D02*
X44852381Y-44009524D01*
X45852381Y-44533333D02*
X45852381Y-44723809D01*
X45804762Y-44819048D01*
X45757143Y-44866667D01*
X45614286Y-44961905D01*
X45423810Y-45009524D01*
X45042857Y-45009524D01*
X44947619Y-44961905D01*
X44900000Y-44914286D01*
X44852381Y-44819048D01*
X44852381Y-44628571D01*
X44900000Y-44533333D01*
X44947619Y-44485714D01*
X45042857Y-44438095D01*
X45280952Y-44438095D01*
X45376190Y-44485714D01*
X45423810Y-44533333D01*
X45471429Y-44628571D01*
X45471429Y-44819048D01*
X45423810Y-44914286D01*
X45376190Y-44961905D01*
X45280952Y-45009524D01*
X45857143Y-56933334D02*
X45904762Y-56885715D01*
X45952381Y-56742858D01*
X45952381Y-56647620D01*
X45904762Y-56504762D01*
X45809524Y-56409524D01*
X45714286Y-56361905D01*
X45523810Y-56314286D01*
X45380952Y-56314286D01*
X45190476Y-56361905D01*
X45095238Y-56409524D01*
X45000000Y-56504762D01*
X44952381Y-56647620D01*
X44952381Y-56742858D01*
X45000000Y-56885715D01*
X45047619Y-56933334D01*
X45952381Y-57361905D02*
X44952381Y-57361905D01*
X45428571Y-57361905D02*
X45428571Y-57933334D01*
X45952381Y-57933334D02*
X44952381Y-57933334D01*
X45952381Y-58933334D02*
X45952381Y-58361905D01*
X45952381Y-58647619D02*
X44952381Y-58647619D01*
X45095238Y-58552381D01*
X45190476Y-58457143D01*
X45238095Y-58361905D01*
X45952381Y-59885715D02*
X45952381Y-59314286D01*
X45952381Y-59600000D02*
X44952381Y-59600000D01*
X45095238Y-59504762D01*
X45190476Y-59409524D01*
X45238095Y-59314286D01*
X45757143Y-71533334D02*
X45804762Y-71485715D01*
X45852381Y-71342858D01*
X45852381Y-71247620D01*
X45804762Y-71104762D01*
X45709524Y-71009524D01*
X45614286Y-70961905D01*
X45423810Y-70914286D01*
X45280952Y-70914286D01*
X45090476Y-70961905D01*
X44995238Y-71009524D01*
X44900000Y-71104762D01*
X44852381Y-71247620D01*
X44852381Y-71342858D01*
X44900000Y-71485715D01*
X44947619Y-71533334D01*
X45852381Y-71961905D02*
X44852381Y-71961905D01*
X45328571Y-71961905D02*
X45328571Y-72533334D01*
X45852381Y-72533334D02*
X44852381Y-72533334D01*
X45852381Y-73533334D02*
X45852381Y-72961905D01*
X45852381Y-73247619D02*
X44852381Y-73247619D01*
X44995238Y-73152381D01*
X45090476Y-73057143D01*
X45138095Y-72961905D01*
X44852381Y-73866667D02*
X44852381Y-74485715D01*
X45233333Y-74152381D01*
X45233333Y-74295239D01*
X45280952Y-74390477D01*
X45328571Y-74438096D01*
X45423810Y-74485715D01*
X45661905Y-74485715D01*
X45757143Y-74438096D01*
X45804762Y-74390477D01*
X45852381Y-74295239D01*
X45852381Y-74009524D01*
X45804762Y-73914286D01*
X45757143Y-73866667D01*
X45857143Y-85933334D02*
X45904762Y-85885715D01*
X45952381Y-85742858D01*
X45952381Y-85647620D01*
X45904762Y-85504762D01*
X45809524Y-85409524D01*
X45714286Y-85361905D01*
X45523810Y-85314286D01*
X45380952Y-85314286D01*
X45190476Y-85361905D01*
X45095238Y-85409524D01*
X45000000Y-85504762D01*
X44952381Y-85647620D01*
X44952381Y-85742858D01*
X45000000Y-85885715D01*
X45047619Y-85933334D01*
X45952381Y-86361905D02*
X44952381Y-86361905D01*
X45428571Y-86361905D02*
X45428571Y-86933334D01*
X45952381Y-86933334D02*
X44952381Y-86933334D01*
X45952381Y-87933334D02*
X45952381Y-87361905D01*
X45952381Y-87647619D02*
X44952381Y-87647619D01*
X45095238Y-87552381D01*
X45190476Y-87457143D01*
X45238095Y-87361905D01*
X44952381Y-88838096D02*
X44952381Y-88361905D01*
X45428571Y-88314286D01*
X45380952Y-88361905D01*
X45333333Y-88457143D01*
X45333333Y-88695239D01*
X45380952Y-88790477D01*
X45428571Y-88838096D01*
X45523810Y-88885715D01*
X45761905Y-88885715D01*
X45857143Y-88838096D01*
X45904762Y-88790477D01*
X45952381Y-88695239D01*
X45952381Y-88457143D01*
X45904762Y-88361905D01*
X45857143Y-88314286D01*
X61257143Y-42533334D02*
X61304762Y-42485715D01*
X61352381Y-42342858D01*
X61352381Y-42247620D01*
X61304762Y-42104762D01*
X61209524Y-42009524D01*
X61114286Y-41961905D01*
X60923810Y-41914286D01*
X60780952Y-41914286D01*
X60590476Y-41961905D01*
X60495238Y-42009524D01*
X60400000Y-42104762D01*
X60352381Y-42247620D01*
X60352381Y-42342858D01*
X60400000Y-42485715D01*
X60447619Y-42533334D01*
X61352381Y-42961905D02*
X60352381Y-42961905D01*
X60828571Y-42961905D02*
X60828571Y-43533334D01*
X61352381Y-43533334D02*
X60352381Y-43533334D01*
X61352381Y-44533334D02*
X61352381Y-43961905D01*
X61352381Y-44247619D02*
X60352381Y-44247619D01*
X60495238Y-44152381D01*
X60590476Y-44057143D01*
X60638095Y-43961905D01*
X60352381Y-44866667D02*
X60352381Y-45533334D01*
X61352381Y-45104762D01*
X61157143Y-56933334D02*
X61204762Y-56885715D01*
X61252381Y-56742858D01*
X61252381Y-56647620D01*
X61204762Y-56504762D01*
X61109524Y-56409524D01*
X61014286Y-56361905D01*
X60823810Y-56314286D01*
X60680952Y-56314286D01*
X60490476Y-56361905D01*
X60395238Y-56409524D01*
X60300000Y-56504762D01*
X60252381Y-56647620D01*
X60252381Y-56742858D01*
X60300000Y-56885715D01*
X60347619Y-56933334D01*
X61252381Y-57361905D02*
X60252381Y-57361905D01*
X60728571Y-57361905D02*
X60728571Y-57933334D01*
X61252381Y-57933334D02*
X60252381Y-57933334D01*
X61252381Y-58933334D02*
X61252381Y-58361905D01*
X61252381Y-58647619D02*
X60252381Y-58647619D01*
X60395238Y-58552381D01*
X60490476Y-58457143D01*
X60538095Y-58361905D01*
X61252381Y-59409524D02*
X61252381Y-59600000D01*
X61204762Y-59695239D01*
X61157143Y-59742858D01*
X61014286Y-59838096D01*
X60823810Y-59885715D01*
X60442857Y-59885715D01*
X60347619Y-59838096D01*
X60300000Y-59790477D01*
X60252381Y-59695239D01*
X60252381Y-59504762D01*
X60300000Y-59409524D01*
X60347619Y-59361905D01*
X60442857Y-59314286D01*
X60680952Y-59314286D01*
X60776190Y-59361905D01*
X60823810Y-59409524D01*
X60871429Y-59504762D01*
X60871429Y-59695239D01*
X60823810Y-59790477D01*
X60776190Y-59838096D01*
X60680952Y-59885715D01*
X60957143Y-71533334D02*
X61004762Y-71485715D01*
X61052381Y-71342858D01*
X61052381Y-71247620D01*
X61004762Y-71104762D01*
X60909524Y-71009524D01*
X60814286Y-70961905D01*
X60623810Y-70914286D01*
X60480952Y-70914286D01*
X60290476Y-70961905D01*
X60195238Y-71009524D01*
X60100000Y-71104762D01*
X60052381Y-71247620D01*
X60052381Y-71342858D01*
X60100000Y-71485715D01*
X60147619Y-71533334D01*
X61052381Y-71961905D02*
X60052381Y-71961905D01*
X60528571Y-71961905D02*
X60528571Y-72533334D01*
X61052381Y-72533334D02*
X60052381Y-72533334D01*
X60147619Y-72961905D02*
X60100000Y-73009524D01*
X60052381Y-73104762D01*
X60052381Y-73342858D01*
X60100000Y-73438096D01*
X60147619Y-73485715D01*
X60242857Y-73533334D01*
X60338095Y-73533334D01*
X60480952Y-73485715D01*
X61052381Y-72914286D01*
X61052381Y-73533334D01*
X61052381Y-74485715D02*
X61052381Y-73914286D01*
X61052381Y-74200000D02*
X60052381Y-74200000D01*
X60195238Y-74104762D01*
X60290476Y-74009524D01*
X60338095Y-73914286D01*
X60767143Y-85973334D02*
X60814762Y-85925715D01*
X60862381Y-85782858D01*
X60862381Y-85687620D01*
X60814762Y-85544762D01*
X60719524Y-85449524D01*
X60624286Y-85401905D01*
X60433810Y-85354286D01*
X60290952Y-85354286D01*
X60100476Y-85401905D01*
X60005238Y-85449524D01*
X59910000Y-85544762D01*
X59862381Y-85687620D01*
X59862381Y-85782858D01*
X59910000Y-85925715D01*
X59957619Y-85973334D01*
X60862381Y-86401905D02*
X59862381Y-86401905D01*
X60338571Y-86401905D02*
X60338571Y-86973334D01*
X60862381Y-86973334D02*
X59862381Y-86973334D01*
X59957619Y-87401905D02*
X59910000Y-87449524D01*
X59862381Y-87544762D01*
X59862381Y-87782858D01*
X59910000Y-87878096D01*
X59957619Y-87925715D01*
X60052857Y-87973334D01*
X60148095Y-87973334D01*
X60290952Y-87925715D01*
X60862381Y-87354286D01*
X60862381Y-87973334D01*
X59862381Y-88306667D02*
X59862381Y-88925715D01*
X60243333Y-88592381D01*
X60243333Y-88735239D01*
X60290952Y-88830477D01*
X60338571Y-88878096D01*
X60433810Y-88925715D01*
X60671905Y-88925715D01*
X60767143Y-88878096D01*
X60814762Y-88830477D01*
X60862381Y-88735239D01*
X60862381Y-88449524D01*
X60814762Y-88354286D01*
X60767143Y-88306667D01*
X76557143Y-42633334D02*
X76604762Y-42585715D01*
X76652381Y-42442858D01*
X76652381Y-42347620D01*
X76604762Y-42204762D01*
X76509524Y-42109524D01*
X76414286Y-42061905D01*
X76223810Y-42014286D01*
X76080952Y-42014286D01*
X75890476Y-42061905D01*
X75795238Y-42109524D01*
X75700000Y-42204762D01*
X75652381Y-42347620D01*
X75652381Y-42442858D01*
X75700000Y-42585715D01*
X75747619Y-42633334D01*
X76652381Y-43061905D02*
X75652381Y-43061905D01*
X76128571Y-43061905D02*
X76128571Y-43633334D01*
X76652381Y-43633334D02*
X75652381Y-43633334D01*
X75747619Y-44061905D02*
X75700000Y-44109524D01*
X75652381Y-44204762D01*
X75652381Y-44442858D01*
X75700000Y-44538096D01*
X75747619Y-44585715D01*
X75842857Y-44633334D01*
X75938095Y-44633334D01*
X76080952Y-44585715D01*
X76652381Y-44014286D01*
X76652381Y-44633334D01*
X75652381Y-45538096D02*
X75652381Y-45061905D01*
X76128571Y-45014286D01*
X76080952Y-45061905D01*
X76033333Y-45157143D01*
X76033333Y-45395239D01*
X76080952Y-45490477D01*
X76128571Y-45538096D01*
X76223810Y-45585715D01*
X76461905Y-45585715D01*
X76557143Y-45538096D01*
X76604762Y-45490477D01*
X76652381Y-45395239D01*
X76652381Y-45157143D01*
X76604762Y-45061905D01*
X76557143Y-45014286D01*
X76457143Y-71433334D02*
X76504762Y-71385715D01*
X76552381Y-71242858D01*
X76552381Y-71147620D01*
X76504762Y-71004762D01*
X76409524Y-70909524D01*
X76314286Y-70861905D01*
X76123810Y-70814286D01*
X75980952Y-70814286D01*
X75790476Y-70861905D01*
X75695238Y-70909524D01*
X75600000Y-71004762D01*
X75552381Y-71147620D01*
X75552381Y-71242858D01*
X75600000Y-71385715D01*
X75647619Y-71433334D01*
X76552381Y-71861905D02*
X75552381Y-71861905D01*
X76028571Y-71861905D02*
X76028571Y-72433334D01*
X76552381Y-72433334D02*
X75552381Y-72433334D01*
X75647619Y-72861905D02*
X75600000Y-72909524D01*
X75552381Y-73004762D01*
X75552381Y-73242858D01*
X75600000Y-73338096D01*
X75647619Y-73385715D01*
X75742857Y-73433334D01*
X75838095Y-73433334D01*
X75980952Y-73385715D01*
X76552381Y-72814286D01*
X76552381Y-73433334D01*
X76552381Y-73909524D02*
X76552381Y-74100000D01*
X76504762Y-74195239D01*
X76457143Y-74242858D01*
X76314286Y-74338096D01*
X76123810Y-74385715D01*
X75742857Y-74385715D01*
X75647619Y-74338096D01*
X75600000Y-74290477D01*
X75552381Y-74195239D01*
X75552381Y-74004762D01*
X75600000Y-73909524D01*
X75647619Y-73861905D01*
X75742857Y-73814286D01*
X75980952Y-73814286D01*
X76076190Y-73861905D01*
X76123810Y-73909524D01*
X76171429Y-74004762D01*
X76171429Y-74195239D01*
X76123810Y-74290477D01*
X76076190Y-74338096D01*
X75980952Y-74385715D01*
X76057143Y-86133334D02*
X76104762Y-86085715D01*
X76152381Y-85942858D01*
X76152381Y-85847620D01*
X76104762Y-85704762D01*
X76009524Y-85609524D01*
X75914286Y-85561905D01*
X75723810Y-85514286D01*
X75580952Y-85514286D01*
X75390476Y-85561905D01*
X75295238Y-85609524D01*
X75200000Y-85704762D01*
X75152381Y-85847620D01*
X75152381Y-85942858D01*
X75200000Y-86085715D01*
X75247619Y-86133334D01*
X76152381Y-86561905D02*
X75152381Y-86561905D01*
X75628571Y-86561905D02*
X75628571Y-87133334D01*
X76152381Y-87133334D02*
X75152381Y-87133334D01*
X75152381Y-87514286D02*
X75152381Y-88133334D01*
X75533333Y-87800000D01*
X75533333Y-87942858D01*
X75580952Y-88038096D01*
X75628571Y-88085715D01*
X75723810Y-88133334D01*
X75961905Y-88133334D01*
X76057143Y-88085715D01*
X76104762Y-88038096D01*
X76152381Y-87942858D01*
X76152381Y-87657143D01*
X76104762Y-87561905D01*
X76057143Y-87514286D01*
X76152381Y-89085715D02*
X76152381Y-88514286D01*
X76152381Y-88800000D02*
X75152381Y-88800000D01*
X75295238Y-88704762D01*
X75390476Y-88609524D01*
X75438095Y-88514286D01*
X91757143Y-42533334D02*
X91804762Y-42485715D01*
X91852381Y-42342858D01*
X91852381Y-42247620D01*
X91804762Y-42104762D01*
X91709524Y-42009524D01*
X91614286Y-41961905D01*
X91423810Y-41914286D01*
X91280952Y-41914286D01*
X91090476Y-41961905D01*
X90995238Y-42009524D01*
X90900000Y-42104762D01*
X90852381Y-42247620D01*
X90852381Y-42342858D01*
X90900000Y-42485715D01*
X90947619Y-42533334D01*
X91852381Y-42961905D02*
X90852381Y-42961905D01*
X91328571Y-42961905D02*
X91328571Y-43533334D01*
X91852381Y-43533334D02*
X90852381Y-43533334D01*
X90852381Y-43914286D02*
X90852381Y-44533334D01*
X91233333Y-44200000D01*
X91233333Y-44342858D01*
X91280952Y-44438096D01*
X91328571Y-44485715D01*
X91423810Y-44533334D01*
X91661905Y-44533334D01*
X91757143Y-44485715D01*
X91804762Y-44438096D01*
X91852381Y-44342858D01*
X91852381Y-44057143D01*
X91804762Y-43961905D01*
X91757143Y-43914286D01*
X90852381Y-44866667D02*
X90852381Y-45485715D01*
X91233333Y-45152381D01*
X91233333Y-45295239D01*
X91280952Y-45390477D01*
X91328571Y-45438096D01*
X91423810Y-45485715D01*
X91661905Y-45485715D01*
X91757143Y-45438096D01*
X91804762Y-45390477D01*
X91852381Y-45295239D01*
X91852381Y-45009524D01*
X91804762Y-44914286D01*
X91757143Y-44866667D01*
X91557143Y-57033334D02*
X91604762Y-56985715D01*
X91652381Y-56842858D01*
X91652381Y-56747620D01*
X91604762Y-56604762D01*
X91509524Y-56509524D01*
X91414286Y-56461905D01*
X91223810Y-56414286D01*
X91080952Y-56414286D01*
X90890476Y-56461905D01*
X90795238Y-56509524D01*
X90700000Y-56604762D01*
X90652381Y-56747620D01*
X90652381Y-56842858D01*
X90700000Y-56985715D01*
X90747619Y-57033334D01*
X91652381Y-57461905D02*
X90652381Y-57461905D01*
X91128571Y-57461905D02*
X91128571Y-58033334D01*
X91652381Y-58033334D02*
X90652381Y-58033334D01*
X90652381Y-58414286D02*
X90652381Y-59033334D01*
X91033333Y-58700000D01*
X91033333Y-58842858D01*
X91080952Y-58938096D01*
X91128571Y-58985715D01*
X91223810Y-59033334D01*
X91461905Y-59033334D01*
X91557143Y-58985715D01*
X91604762Y-58938096D01*
X91652381Y-58842858D01*
X91652381Y-58557143D01*
X91604762Y-58461905D01*
X91557143Y-58414286D01*
X90652381Y-59938096D02*
X90652381Y-59461905D01*
X91128571Y-59414286D01*
X91080952Y-59461905D01*
X91033333Y-59557143D01*
X91033333Y-59795239D01*
X91080952Y-59890477D01*
X91128571Y-59938096D01*
X91223810Y-59985715D01*
X91461905Y-59985715D01*
X91557143Y-59938096D01*
X91604762Y-59890477D01*
X91652381Y-59795239D01*
X91652381Y-59557143D01*
X91604762Y-59461905D01*
X91557143Y-59414286D01*
X91857143Y-71533334D02*
X91904762Y-71485715D01*
X91952381Y-71342858D01*
X91952381Y-71247620D01*
X91904762Y-71104762D01*
X91809524Y-71009524D01*
X91714286Y-70961905D01*
X91523810Y-70914286D01*
X91380952Y-70914286D01*
X91190476Y-70961905D01*
X91095238Y-71009524D01*
X91000000Y-71104762D01*
X90952381Y-71247620D01*
X90952381Y-71342858D01*
X91000000Y-71485715D01*
X91047619Y-71533334D01*
X91952381Y-71961905D02*
X90952381Y-71961905D01*
X91428571Y-71961905D02*
X91428571Y-72533334D01*
X91952381Y-72533334D02*
X90952381Y-72533334D01*
X90952381Y-72914286D02*
X90952381Y-73533334D01*
X91333333Y-73200000D01*
X91333333Y-73342858D01*
X91380952Y-73438096D01*
X91428571Y-73485715D01*
X91523810Y-73533334D01*
X91761905Y-73533334D01*
X91857143Y-73485715D01*
X91904762Y-73438096D01*
X91952381Y-73342858D01*
X91952381Y-73057143D01*
X91904762Y-72961905D01*
X91857143Y-72914286D01*
X90952381Y-73866667D02*
X90952381Y-74533334D01*
X91952381Y-74104762D01*
X91497143Y-86023334D02*
X91544762Y-85975715D01*
X91592381Y-85832858D01*
X91592381Y-85737620D01*
X91544762Y-85594762D01*
X91449524Y-85499524D01*
X91354286Y-85451905D01*
X91163810Y-85404286D01*
X91020952Y-85404286D01*
X90830476Y-85451905D01*
X90735238Y-85499524D01*
X90640000Y-85594762D01*
X90592381Y-85737620D01*
X90592381Y-85832858D01*
X90640000Y-85975715D01*
X90687619Y-86023334D01*
X91592381Y-86451905D02*
X90592381Y-86451905D01*
X91068571Y-86451905D02*
X91068571Y-87023334D01*
X91592381Y-87023334D02*
X90592381Y-87023334D01*
X90592381Y-87404286D02*
X90592381Y-88023334D01*
X90973333Y-87690000D01*
X90973333Y-87832858D01*
X91020952Y-87928096D01*
X91068571Y-87975715D01*
X91163810Y-88023334D01*
X91401905Y-88023334D01*
X91497143Y-87975715D01*
X91544762Y-87928096D01*
X91592381Y-87832858D01*
X91592381Y-87547143D01*
X91544762Y-87451905D01*
X91497143Y-87404286D01*
X91592381Y-88499524D02*
X91592381Y-88690000D01*
X91544762Y-88785239D01*
X91497143Y-88832858D01*
X91354286Y-88928096D01*
X91163810Y-88975715D01*
X90782857Y-88975715D01*
X90687619Y-88928096D01*
X90640000Y-88880477D01*
X90592381Y-88785239D01*
X90592381Y-88594762D01*
X90640000Y-88499524D01*
X90687619Y-88451905D01*
X90782857Y-88404286D01*
X91020952Y-88404286D01*
X91116190Y-88451905D01*
X91163810Y-88499524D01*
X91211429Y-88594762D01*
X91211429Y-88785239D01*
X91163810Y-88880477D01*
X91116190Y-88928096D01*
X91020952Y-88975715D01*
D16*
X29533619Y-96199143D02*
X30356095Y-96199143D01*
X30452857Y-96253571D01*
X30501238Y-96308000D01*
X30549619Y-96416857D01*
X30549619Y-96634571D01*
X30501238Y-96743429D01*
X30452857Y-96797857D01*
X30356095Y-96852286D01*
X29533619Y-96852286D01*
X30549619Y-97995286D02*
X30549619Y-97342143D01*
X30549619Y-97668715D02*
X29533619Y-97668715D01*
X29678762Y-97559858D01*
X29775524Y-97451000D01*
X29823905Y-97342143D01*
X44263619Y-96339143D02*
X45086095Y-96339143D01*
X45182857Y-96393571D01*
X45231238Y-96448000D01*
X45279619Y-96556857D01*
X45279619Y-96774571D01*
X45231238Y-96883429D01*
X45182857Y-96937857D01*
X45086095Y-96992286D01*
X44263619Y-96992286D01*
X44360381Y-97482143D02*
X44312000Y-97536572D01*
X44263619Y-97645429D01*
X44263619Y-97917572D01*
X44312000Y-98026429D01*
X44360381Y-98080858D01*
X44457143Y-98135286D01*
X44553905Y-98135286D01*
X44699048Y-98080858D01*
X45279619Y-97427715D01*
X45279619Y-98135286D01*
X60153619Y-96639143D02*
X60976095Y-96639143D01*
X61072857Y-96693571D01*
X61121238Y-96748000D01*
X61169619Y-96856857D01*
X61169619Y-97074571D01*
X61121238Y-97183429D01*
X61072857Y-97237857D01*
X60976095Y-97292286D01*
X60153619Y-97292286D01*
X60153619Y-97727715D02*
X60153619Y-98435286D01*
X60540667Y-98054286D01*
X60540667Y-98217572D01*
X60589048Y-98326429D01*
X60637429Y-98380858D01*
X60734190Y-98435286D01*
X60976095Y-98435286D01*
X61072857Y-98380858D01*
X61121238Y-98326429D01*
X61169619Y-98217572D01*
X61169619Y-97891000D01*
X61121238Y-97782143D01*
X61072857Y-97727715D01*
X75343619Y-96729143D02*
X76166095Y-96729143D01*
X76262857Y-96783571D01*
X76311238Y-96838000D01*
X76359619Y-96946857D01*
X76359619Y-97164571D01*
X76311238Y-97273429D01*
X76262857Y-97327857D01*
X76166095Y-97382286D01*
X75343619Y-97382286D01*
X75682286Y-98416429D02*
X76359619Y-98416429D01*
X75295238Y-98144286D02*
X76020952Y-97872143D01*
X76020952Y-98579715D01*
X90673619Y-96789143D02*
X91496095Y-96789143D01*
X91592857Y-96843571D01*
X91641238Y-96898000D01*
X91689619Y-97006857D01*
X91689619Y-97224571D01*
X91641238Y-97333429D01*
X91592857Y-97387857D01*
X91496095Y-97442286D01*
X90673619Y-97442286D01*
X90673619Y-98530858D02*
X90673619Y-97986572D01*
X91157429Y-97932143D01*
X91109048Y-97986572D01*
X91060667Y-98095429D01*
X91060667Y-98367572D01*
X91109048Y-98476429D01*
X91157429Y-98530858D01*
X91254190Y-98585286D01*
X91496095Y-98585286D01*
X91592857Y-98530858D01*
X91641238Y-98476429D01*
X91689619Y-98367572D01*
X91689619Y-98095429D01*
X91641238Y-97986572D01*
X91592857Y-97932143D01*
D10*
X29446666Y-101717143D02*
X29494285Y-101764762D01*
X29637142Y-101812381D01*
X29732380Y-101812381D01*
X29875238Y-101764762D01*
X29970476Y-101669524D01*
X30018095Y-101574286D01*
X30065714Y-101383810D01*
X30065714Y-101240952D01*
X30018095Y-101050476D01*
X29970476Y-100955238D01*
X29875238Y-100860000D01*
X29732380Y-100812381D01*
X29637142Y-100812381D01*
X29494285Y-100860000D01*
X29446666Y-100907619D01*
X28494285Y-101812381D02*
X29065714Y-101812381D01*
X28780000Y-101812381D02*
X28780000Y-100812381D01*
X28875238Y-100955238D01*
X28970476Y-101050476D01*
X29065714Y-101098095D01*
X75076666Y-101517143D02*
X75124285Y-101564762D01*
X75267142Y-101612381D01*
X75362380Y-101612381D01*
X75505238Y-101564762D01*
X75600476Y-101469524D01*
X75648095Y-101374286D01*
X75695714Y-101183810D01*
X75695714Y-101040952D01*
X75648095Y-100850476D01*
X75600476Y-100755238D01*
X75505238Y-100660000D01*
X75362380Y-100612381D01*
X75267142Y-100612381D01*
X75124285Y-100660000D01*
X75076666Y-100707619D01*
X74171904Y-100612381D02*
X74648095Y-100612381D01*
X74695714Y-101088571D01*
X74648095Y-101040952D01*
X74552857Y-100993333D01*
X74314761Y-100993333D01*
X74219523Y-101040952D01*
X74171904Y-101088571D01*
X74124285Y-101183810D01*
X74124285Y-101421905D01*
X74171904Y-101517143D01*
X74219523Y-101564762D01*
X74314761Y-101612381D01*
X74552857Y-101612381D01*
X74648095Y-101564762D01*
X74695714Y-101517143D01*
X43676666Y-101297143D02*
X43724285Y-101344762D01*
X43867142Y-101392381D01*
X43962380Y-101392381D01*
X44105238Y-101344762D01*
X44200476Y-101249524D01*
X44248095Y-101154286D01*
X44295714Y-100963810D01*
X44295714Y-100820952D01*
X44248095Y-100630476D01*
X44200476Y-100535238D01*
X44105238Y-100440000D01*
X43962380Y-100392381D01*
X43867142Y-100392381D01*
X43724285Y-100440000D01*
X43676666Y-100487619D01*
X43105238Y-100820952D02*
X43200476Y-100773333D01*
X43248095Y-100725714D01*
X43295714Y-100630476D01*
X43295714Y-100582857D01*
X43248095Y-100487619D01*
X43200476Y-100440000D01*
X43105238Y-100392381D01*
X42914761Y-100392381D01*
X42819523Y-100440000D01*
X42771904Y-100487619D01*
X42724285Y-100582857D01*
X42724285Y-100630476D01*
X42771904Y-100725714D01*
X42819523Y-100773333D01*
X42914761Y-100820952D01*
X43105238Y-100820952D01*
X43200476Y-100868571D01*
X43248095Y-100916190D01*
X43295714Y-101011429D01*
X43295714Y-101201905D01*
X43248095Y-101297143D01*
X43200476Y-101344762D01*
X43105238Y-101392381D01*
X42914761Y-101392381D01*
X42819523Y-101344762D01*
X42771904Y-101297143D01*
X42724285Y-101201905D01*
X42724285Y-101011429D01*
X42771904Y-100916190D01*
X42819523Y-100868571D01*
X42914761Y-100820952D01*
X90356666Y-101627143D02*
X90404285Y-101674762D01*
X90547142Y-101722381D01*
X90642380Y-101722381D01*
X90785238Y-101674762D01*
X90880476Y-101579524D01*
X90928095Y-101484286D01*
X90975714Y-101293810D01*
X90975714Y-101150952D01*
X90928095Y-100960476D01*
X90880476Y-100865238D01*
X90785238Y-100770000D01*
X90642380Y-100722381D01*
X90547142Y-100722381D01*
X90404285Y-100770000D01*
X90356666Y-100817619D01*
X89880476Y-101722381D02*
X89690000Y-101722381D01*
X89594761Y-101674762D01*
X89547142Y-101627143D01*
X89451904Y-101484286D01*
X89404285Y-101293810D01*
X89404285Y-100912857D01*
X89451904Y-100817619D01*
X89499523Y-100770000D01*
X89594761Y-100722381D01*
X89785238Y-100722381D01*
X89880476Y-100770000D01*
X89928095Y-100817619D01*
X89975714Y-100912857D01*
X89975714Y-101150952D01*
X89928095Y-101246190D01*
X89880476Y-101293810D01*
X89785238Y-101341429D01*
X89594761Y-101341429D01*
X89499523Y-101293810D01*
X89451904Y-101246190D01*
X89404285Y-101150952D01*
X60322857Y-101577143D02*
X60370476Y-101624762D01*
X60513333Y-101672381D01*
X60608571Y-101672381D01*
X60751429Y-101624762D01*
X60846667Y-101529524D01*
X60894286Y-101434286D01*
X60941905Y-101243810D01*
X60941905Y-101100952D01*
X60894286Y-100910476D01*
X60846667Y-100815238D01*
X60751429Y-100720000D01*
X60608571Y-100672381D01*
X60513333Y-100672381D01*
X60370476Y-100720000D01*
X60322857Y-100767619D01*
X59370476Y-101672381D02*
X59941905Y-101672381D01*
X59656191Y-101672381D02*
X59656191Y-100672381D01*
X59751429Y-100815238D01*
X59846667Y-100910476D01*
X59941905Y-100958095D01*
X58989524Y-100767619D02*
X58941905Y-100720000D01*
X58846667Y-100672381D01*
X58608571Y-100672381D01*
X58513333Y-100720000D01*
X58465714Y-100767619D01*
X58418095Y-100862857D01*
X58418095Y-100958095D01*
X58465714Y-101100952D01*
X59037143Y-101672381D01*
X58418095Y-101672381D01*
X52657143Y-106057143D02*
X52704762Y-106009524D01*
X52752381Y-105866667D01*
X52752381Y-105771429D01*
X52704762Y-105628571D01*
X52609524Y-105533333D01*
X52514286Y-105485714D01*
X52323810Y-105438095D01*
X52180952Y-105438095D01*
X51990476Y-105485714D01*
X51895238Y-105533333D01*
X51800000Y-105628571D01*
X51752381Y-105771429D01*
X51752381Y-105866667D01*
X51800000Y-106009524D01*
X51847619Y-106057143D01*
X52752381Y-107009524D02*
X52752381Y-106438095D01*
X52752381Y-106723809D02*
X51752381Y-106723809D01*
X51895238Y-106628571D01*
X51990476Y-106533333D01*
X52038095Y-106438095D01*
X51752381Y-107342857D02*
X51752381Y-107961905D01*
X52133333Y-107628571D01*
X52133333Y-107771429D01*
X52180952Y-107866667D01*
X52228571Y-107914286D01*
X52323810Y-107961905D01*
X52561905Y-107961905D01*
X52657143Y-107914286D01*
X52704762Y-107866667D01*
X52752381Y-107771429D01*
X52752381Y-107485714D01*
X52704762Y-107390476D01*
X52657143Y-107342857D01*
X35262381Y-50323334D02*
X34786190Y-49990000D01*
X35262381Y-49751905D02*
X34262381Y-49751905D01*
X34262381Y-50132858D01*
X34310000Y-50228096D01*
X34357619Y-50275715D01*
X34452857Y-50323334D01*
X34595714Y-50323334D01*
X34690952Y-50275715D01*
X34738571Y-50228096D01*
X34786190Y-50132858D01*
X34786190Y-49751905D01*
X35262381Y-51275715D02*
X35262381Y-50704286D01*
X35262381Y-50990000D02*
X34262381Y-50990000D01*
X34405238Y-50894762D01*
X34500476Y-50799524D01*
X34548095Y-50704286D01*
X35382381Y-64893334D02*
X34906190Y-64560000D01*
X35382381Y-64321905D02*
X34382381Y-64321905D01*
X34382381Y-64702858D01*
X34430000Y-64798096D01*
X34477619Y-64845715D01*
X34572857Y-64893334D01*
X34715714Y-64893334D01*
X34810952Y-64845715D01*
X34858571Y-64798096D01*
X34906190Y-64702858D01*
X34906190Y-64321905D01*
X34382381Y-65750477D02*
X34382381Y-65560000D01*
X34430000Y-65464762D01*
X34477619Y-65417143D01*
X34620476Y-65321905D01*
X34810952Y-65274286D01*
X35191905Y-65274286D01*
X35287143Y-65321905D01*
X35334762Y-65369524D01*
X35382381Y-65464762D01*
X35382381Y-65655239D01*
X35334762Y-65750477D01*
X35287143Y-65798096D01*
X35191905Y-65845715D01*
X34953810Y-65845715D01*
X34858571Y-65798096D01*
X34810952Y-65750477D01*
X34763333Y-65655239D01*
X34763333Y-65464762D01*
X34810952Y-65369524D01*
X34858571Y-65321905D01*
X34953810Y-65274286D01*
X53952381Y-50257143D02*
X53476190Y-49923809D01*
X53952381Y-49685714D02*
X52952381Y-49685714D01*
X52952381Y-50066667D01*
X53000000Y-50161905D01*
X53047619Y-50209524D01*
X53142857Y-50257143D01*
X53285714Y-50257143D01*
X53380952Y-50209524D01*
X53428571Y-50161905D01*
X53476190Y-50066667D01*
X53476190Y-49685714D01*
X53952381Y-51209524D02*
X53952381Y-50638095D01*
X53952381Y-50923809D02*
X52952381Y-50923809D01*
X53095238Y-50828571D01*
X53190476Y-50733333D01*
X53238095Y-50638095D01*
X52952381Y-51542857D02*
X52952381Y-52161905D01*
X53333333Y-51828571D01*
X53333333Y-51971429D01*
X53380952Y-52066667D01*
X53428571Y-52114286D01*
X53523810Y-52161905D01*
X53761905Y-52161905D01*
X53857143Y-52114286D01*
X53904762Y-52066667D01*
X53952381Y-51971429D01*
X53952381Y-51685714D01*
X53904762Y-51590476D01*
X53857143Y-51542857D01*
X50652381Y-64067143D02*
X50176190Y-63733809D01*
X50652381Y-63495714D02*
X49652381Y-63495714D01*
X49652381Y-63876667D01*
X49700000Y-63971905D01*
X49747619Y-64019524D01*
X49842857Y-64067143D01*
X49985714Y-64067143D01*
X50080952Y-64019524D01*
X50128571Y-63971905D01*
X50176190Y-63876667D01*
X50176190Y-63495714D01*
X50652381Y-65019524D02*
X50652381Y-64448095D01*
X50652381Y-64733809D02*
X49652381Y-64733809D01*
X49795238Y-64638571D01*
X49890476Y-64543333D01*
X49938095Y-64448095D01*
X50080952Y-65590952D02*
X50033333Y-65495714D01*
X49985714Y-65448095D01*
X49890476Y-65400476D01*
X49842857Y-65400476D01*
X49747619Y-65448095D01*
X49700000Y-65495714D01*
X49652381Y-65590952D01*
X49652381Y-65781429D01*
X49700000Y-65876667D01*
X49747619Y-65924286D01*
X49842857Y-65971905D01*
X49890476Y-65971905D01*
X49985714Y-65924286D01*
X50033333Y-65876667D01*
X50080952Y-65781429D01*
X50080952Y-65590952D01*
X50128571Y-65495714D01*
X50176190Y-65448095D01*
X50271429Y-65400476D01*
X50461905Y-65400476D01*
X50557143Y-65448095D01*
X50604762Y-65495714D01*
X50652381Y-65590952D01*
X50652381Y-65781429D01*
X50604762Y-65876667D01*
X50557143Y-65924286D01*
X50461905Y-65971905D01*
X50271429Y-65971905D01*
X50176190Y-65924286D01*
X50128571Y-65876667D01*
X50080952Y-65781429D01*
X65862381Y-64057143D02*
X65386190Y-63723809D01*
X65862381Y-63485714D02*
X64862381Y-63485714D01*
X64862381Y-63866667D01*
X64910000Y-63961905D01*
X64957619Y-64009524D01*
X65052857Y-64057143D01*
X65195714Y-64057143D01*
X65290952Y-64009524D01*
X65338571Y-63961905D01*
X65386190Y-63866667D01*
X65386190Y-63485714D01*
X64862381Y-64390476D02*
X64862381Y-65009524D01*
X65243333Y-64676190D01*
X65243333Y-64819048D01*
X65290952Y-64914286D01*
X65338571Y-64961905D01*
X65433810Y-65009524D01*
X65671905Y-65009524D01*
X65767143Y-64961905D01*
X65814762Y-64914286D01*
X65862381Y-64819048D01*
X65862381Y-64533333D01*
X65814762Y-64438095D01*
X65767143Y-64390476D01*
X64862381Y-65628571D02*
X64862381Y-65723810D01*
X64910000Y-65819048D01*
X64957619Y-65866667D01*
X65052857Y-65914286D01*
X65243333Y-65961905D01*
X65481429Y-65961905D01*
X65671905Y-65914286D01*
X65767143Y-65866667D01*
X65814762Y-65819048D01*
X65862381Y-65723810D01*
X65862381Y-65628571D01*
X65814762Y-65533333D01*
X65767143Y-65485714D01*
X65671905Y-65438095D01*
X65481429Y-65390476D01*
X65243333Y-65390476D01*
X65052857Y-65438095D01*
X64957619Y-65485714D01*
X64910000Y-65533333D01*
X64862381Y-65628571D01*
X81082381Y-49527143D02*
X80606190Y-49193809D01*
X81082381Y-48955714D02*
X80082381Y-48955714D01*
X80082381Y-49336667D01*
X80130000Y-49431905D01*
X80177619Y-49479524D01*
X80272857Y-49527143D01*
X80415714Y-49527143D01*
X80510952Y-49479524D01*
X80558571Y-49431905D01*
X80606190Y-49336667D01*
X80606190Y-48955714D01*
X80082381Y-49860476D02*
X80082381Y-50479524D01*
X80463333Y-50146190D01*
X80463333Y-50289048D01*
X80510952Y-50384286D01*
X80558571Y-50431905D01*
X80653810Y-50479524D01*
X80891905Y-50479524D01*
X80987143Y-50431905D01*
X81034762Y-50384286D01*
X81082381Y-50289048D01*
X81082381Y-50003333D01*
X81034762Y-49908095D01*
X80987143Y-49860476D01*
X80082381Y-50812857D02*
X80082381Y-51479524D01*
X81082381Y-51050952D01*
X81082381Y-64097143D02*
X80606190Y-63763809D01*
X81082381Y-63525714D02*
X80082381Y-63525714D01*
X80082381Y-63906667D01*
X80130000Y-64001905D01*
X80177619Y-64049524D01*
X80272857Y-64097143D01*
X80415714Y-64097143D01*
X80510952Y-64049524D01*
X80558571Y-64001905D01*
X80606190Y-63906667D01*
X80606190Y-63525714D01*
X80415714Y-64954286D02*
X81082381Y-64954286D01*
X80034762Y-64716190D02*
X80749048Y-64478095D01*
X80749048Y-65097143D01*
X80177619Y-65430476D02*
X80130000Y-65478095D01*
X80082381Y-65573333D01*
X80082381Y-65811429D01*
X80130000Y-65906667D01*
X80177619Y-65954286D01*
X80272857Y-66001905D01*
X80368095Y-66001905D01*
X80510952Y-65954286D01*
X81082381Y-65382857D01*
X81082381Y-66001905D01*
X87252381Y-109657143D02*
X86776190Y-109323809D01*
X87252381Y-109085714D02*
X86252381Y-109085714D01*
X86252381Y-109466667D01*
X86300000Y-109561905D01*
X86347619Y-109609524D01*
X86442857Y-109657143D01*
X86585714Y-109657143D01*
X86680952Y-109609524D01*
X86728571Y-109561905D01*
X86776190Y-109466667D01*
X86776190Y-109085714D01*
X86585714Y-110514286D02*
X87252381Y-110514286D01*
X86204762Y-110276190D02*
X86919048Y-110038095D01*
X86919048Y-110657143D01*
X86252381Y-111514286D02*
X86252381Y-111038095D01*
X86728571Y-110990476D01*
X86680952Y-111038095D01*
X86633333Y-111133333D01*
X86633333Y-111371429D01*
X86680952Y-111466667D01*
X86728571Y-111514286D01*
X86823810Y-111561905D01*
X87061905Y-111561905D01*
X87157143Y-111514286D01*
X87204762Y-111466667D01*
X87252381Y-111371429D01*
X87252381Y-111133333D01*
X87204762Y-111038095D01*
X87157143Y-110990476D01*
X96342381Y-49547143D02*
X95866190Y-49213809D01*
X96342381Y-48975714D02*
X95342381Y-48975714D01*
X95342381Y-49356667D01*
X95390000Y-49451905D01*
X95437619Y-49499524D01*
X95532857Y-49547143D01*
X95675714Y-49547143D01*
X95770952Y-49499524D01*
X95818571Y-49451905D01*
X95866190Y-49356667D01*
X95866190Y-48975714D01*
X95342381Y-50451905D02*
X95342381Y-49975714D01*
X95818571Y-49928095D01*
X95770952Y-49975714D01*
X95723333Y-50070952D01*
X95723333Y-50309048D01*
X95770952Y-50404286D01*
X95818571Y-50451905D01*
X95913810Y-50499524D01*
X96151905Y-50499524D01*
X96247143Y-50451905D01*
X96294762Y-50404286D01*
X96342381Y-50309048D01*
X96342381Y-50070952D01*
X96294762Y-49975714D01*
X96247143Y-49928095D01*
X96342381Y-51451905D02*
X96342381Y-50880476D01*
X96342381Y-51166190D02*
X95342381Y-51166190D01*
X95485238Y-51070952D01*
X95580476Y-50975714D01*
X95628095Y-50880476D01*
X96352381Y-64087143D02*
X95876190Y-63753809D01*
X96352381Y-63515714D02*
X95352381Y-63515714D01*
X95352381Y-63896667D01*
X95400000Y-63991905D01*
X95447619Y-64039524D01*
X95542857Y-64087143D01*
X95685714Y-64087143D01*
X95780952Y-64039524D01*
X95828571Y-63991905D01*
X95876190Y-63896667D01*
X95876190Y-63515714D01*
X95352381Y-64991905D02*
X95352381Y-64515714D01*
X95828571Y-64468095D01*
X95780952Y-64515714D01*
X95733333Y-64610952D01*
X95733333Y-64849048D01*
X95780952Y-64944286D01*
X95828571Y-64991905D01*
X95923810Y-65039524D01*
X96161905Y-65039524D01*
X96257143Y-64991905D01*
X96304762Y-64944286D01*
X96352381Y-64849048D01*
X96352381Y-64610952D01*
X96304762Y-64515714D01*
X96257143Y-64468095D01*
X95352381Y-65896667D02*
X95352381Y-65706190D01*
X95400000Y-65610952D01*
X95447619Y-65563333D01*
X95590476Y-65468095D01*
X95780952Y-65420476D01*
X96161905Y-65420476D01*
X96257143Y-65468095D01*
X96304762Y-65515714D01*
X96352381Y-65610952D01*
X96352381Y-65801429D01*
X96304762Y-65896667D01*
X96257143Y-65944286D01*
X96161905Y-65991905D01*
X95923810Y-65991905D01*
X95828571Y-65944286D01*
X95780952Y-65896667D01*
X95733333Y-65801429D01*
X95733333Y-65610952D01*
X95780952Y-65515714D01*
X95828571Y-65468095D01*
X95923810Y-65420476D01*
X34852381Y-36557143D02*
X34376190Y-36223809D01*
X34852381Y-35985714D02*
X33852381Y-35985714D01*
X33852381Y-36366667D01*
X33900000Y-36461905D01*
X33947619Y-36509524D01*
X34042857Y-36557143D01*
X34185714Y-36557143D01*
X34280952Y-36509524D01*
X34328571Y-36461905D01*
X34376190Y-36366667D01*
X34376190Y-35985714D01*
X33852381Y-37414286D02*
X33852381Y-37223809D01*
X33900000Y-37128571D01*
X33947619Y-37080952D01*
X34090476Y-36985714D01*
X34280952Y-36938095D01*
X34661905Y-36938095D01*
X34757143Y-36985714D01*
X34804762Y-37033333D01*
X34852381Y-37128571D01*
X34852381Y-37319048D01*
X34804762Y-37414286D01*
X34757143Y-37461905D01*
X34661905Y-37509524D01*
X34423810Y-37509524D01*
X34328571Y-37461905D01*
X34280952Y-37414286D01*
X34233333Y-37319048D01*
X34233333Y-37128571D01*
X34280952Y-37033333D01*
X34328571Y-36985714D01*
X34423810Y-36938095D01*
X33852381Y-37842857D02*
X33852381Y-38461905D01*
X34233333Y-38128571D01*
X34233333Y-38271429D01*
X34280952Y-38366667D01*
X34328571Y-38414286D01*
X34423810Y-38461905D01*
X34661905Y-38461905D01*
X34757143Y-38414286D01*
X34804762Y-38366667D01*
X34852381Y-38271429D01*
X34852381Y-37985714D01*
X34804762Y-37890476D01*
X34757143Y-37842857D01*
X38652381Y-35857143D02*
X38176190Y-35523809D01*
X38652381Y-35285714D02*
X37652381Y-35285714D01*
X37652381Y-35666667D01*
X37700000Y-35761905D01*
X37747619Y-35809524D01*
X37842857Y-35857143D01*
X37985714Y-35857143D01*
X38080952Y-35809524D01*
X38128571Y-35761905D01*
X38176190Y-35666667D01*
X38176190Y-35285714D01*
X37652381Y-36714286D02*
X37652381Y-36523809D01*
X37700000Y-36428571D01*
X37747619Y-36380952D01*
X37890476Y-36285714D01*
X38080952Y-36238095D01*
X38461905Y-36238095D01*
X38557143Y-36285714D01*
X38604762Y-36333333D01*
X38652381Y-36428571D01*
X38652381Y-36619048D01*
X38604762Y-36714286D01*
X38557143Y-36761905D01*
X38461905Y-36809524D01*
X38223810Y-36809524D01*
X38128571Y-36761905D01*
X38080952Y-36714286D01*
X38033333Y-36619048D01*
X38033333Y-36428571D01*
X38080952Y-36333333D01*
X38128571Y-36285714D01*
X38223810Y-36238095D01*
X37985714Y-37666667D02*
X38652381Y-37666667D01*
X37604762Y-37428571D02*
X38319048Y-37190476D01*
X38319048Y-37809524D01*
X31382381Y-50217143D02*
X30906190Y-49883809D01*
X31382381Y-49645714D02*
X30382381Y-49645714D01*
X30382381Y-50026667D01*
X30430000Y-50121905D01*
X30477619Y-50169524D01*
X30572857Y-50217143D01*
X30715714Y-50217143D01*
X30810952Y-50169524D01*
X30858571Y-50121905D01*
X30906190Y-50026667D01*
X30906190Y-49645714D01*
X30382381Y-51074286D02*
X30382381Y-50883809D01*
X30430000Y-50788571D01*
X30477619Y-50740952D01*
X30620476Y-50645714D01*
X30810952Y-50598095D01*
X31191905Y-50598095D01*
X31287143Y-50645714D01*
X31334762Y-50693333D01*
X31382381Y-50788571D01*
X31382381Y-50979048D01*
X31334762Y-51074286D01*
X31287143Y-51121905D01*
X31191905Y-51169524D01*
X30953810Y-51169524D01*
X30858571Y-51121905D01*
X30810952Y-51074286D01*
X30763333Y-50979048D01*
X30763333Y-50788571D01*
X30810952Y-50693333D01*
X30858571Y-50645714D01*
X30953810Y-50598095D01*
X30382381Y-52074286D02*
X30382381Y-51598095D01*
X30858571Y-51550476D01*
X30810952Y-51598095D01*
X30763333Y-51693333D01*
X30763333Y-51931429D01*
X30810952Y-52026667D01*
X30858571Y-52074286D01*
X30953810Y-52121905D01*
X31191905Y-52121905D01*
X31287143Y-52074286D01*
X31334762Y-52026667D01*
X31382381Y-51931429D01*
X31382381Y-51693333D01*
X31334762Y-51598095D01*
X31287143Y-51550476D01*
X31542381Y-64737143D02*
X31066190Y-64403809D01*
X31542381Y-64165714D02*
X30542381Y-64165714D01*
X30542381Y-64546667D01*
X30590000Y-64641905D01*
X30637619Y-64689524D01*
X30732857Y-64737143D01*
X30875714Y-64737143D01*
X30970952Y-64689524D01*
X31018571Y-64641905D01*
X31066190Y-64546667D01*
X31066190Y-64165714D01*
X30542381Y-65594286D02*
X30542381Y-65403809D01*
X30590000Y-65308571D01*
X30637619Y-65260952D01*
X30780476Y-65165714D01*
X30970952Y-65118095D01*
X31351905Y-65118095D01*
X31447143Y-65165714D01*
X31494762Y-65213333D01*
X31542381Y-65308571D01*
X31542381Y-65499048D01*
X31494762Y-65594286D01*
X31447143Y-65641905D01*
X31351905Y-65689524D01*
X31113810Y-65689524D01*
X31018571Y-65641905D01*
X30970952Y-65594286D01*
X30923333Y-65499048D01*
X30923333Y-65308571D01*
X30970952Y-65213333D01*
X31018571Y-65165714D01*
X31113810Y-65118095D01*
X30542381Y-66546667D02*
X30542381Y-66356190D01*
X30590000Y-66260952D01*
X30637619Y-66213333D01*
X30780476Y-66118095D01*
X30970952Y-66070476D01*
X31351905Y-66070476D01*
X31447143Y-66118095D01*
X31494762Y-66165714D01*
X31542381Y-66260952D01*
X31542381Y-66451429D01*
X31494762Y-66546667D01*
X31447143Y-66594286D01*
X31351905Y-66641905D01*
X31113810Y-66641905D01*
X31018571Y-66594286D01*
X30970952Y-66546667D01*
X30923333Y-66451429D01*
X30923333Y-66260952D01*
X30970952Y-66165714D01*
X31018571Y-66118095D01*
X31113810Y-66070476D01*
X31542381Y-79237143D02*
X31066190Y-78903809D01*
X31542381Y-78665714D02*
X30542381Y-78665714D01*
X30542381Y-79046667D01*
X30590000Y-79141905D01*
X30637619Y-79189524D01*
X30732857Y-79237143D01*
X30875714Y-79237143D01*
X30970952Y-79189524D01*
X31018571Y-79141905D01*
X31066190Y-79046667D01*
X31066190Y-78665714D01*
X30542381Y-80094286D02*
X30542381Y-79903809D01*
X30590000Y-79808571D01*
X30637619Y-79760952D01*
X30780476Y-79665714D01*
X30970952Y-79618095D01*
X31351905Y-79618095D01*
X31447143Y-79665714D01*
X31494762Y-79713333D01*
X31542381Y-79808571D01*
X31542381Y-79999048D01*
X31494762Y-80094286D01*
X31447143Y-80141905D01*
X31351905Y-80189524D01*
X31113810Y-80189524D01*
X31018571Y-80141905D01*
X30970952Y-80094286D01*
X30923333Y-79999048D01*
X30923333Y-79808571D01*
X30970952Y-79713333D01*
X31018571Y-79665714D01*
X31113810Y-79618095D01*
X30542381Y-80522857D02*
X30542381Y-81189524D01*
X31542381Y-80760952D01*
X35382381Y-78547143D02*
X34906190Y-78213809D01*
X35382381Y-77975714D02*
X34382381Y-77975714D01*
X34382381Y-78356667D01*
X34430000Y-78451905D01*
X34477619Y-78499524D01*
X34572857Y-78547143D01*
X34715714Y-78547143D01*
X34810952Y-78499524D01*
X34858571Y-78451905D01*
X34906190Y-78356667D01*
X34906190Y-77975714D01*
X34382381Y-79404286D02*
X34382381Y-79213809D01*
X34430000Y-79118571D01*
X34477619Y-79070952D01*
X34620476Y-78975714D01*
X34810952Y-78928095D01*
X35191905Y-78928095D01*
X35287143Y-78975714D01*
X35334762Y-79023333D01*
X35382381Y-79118571D01*
X35382381Y-79309048D01*
X35334762Y-79404286D01*
X35287143Y-79451905D01*
X35191905Y-79499524D01*
X34953810Y-79499524D01*
X34858571Y-79451905D01*
X34810952Y-79404286D01*
X34763333Y-79309048D01*
X34763333Y-79118571D01*
X34810952Y-79023333D01*
X34858571Y-78975714D01*
X34953810Y-78928095D01*
X34810952Y-80070952D02*
X34763333Y-79975714D01*
X34715714Y-79928095D01*
X34620476Y-79880476D01*
X34572857Y-79880476D01*
X34477619Y-79928095D01*
X34430000Y-79975714D01*
X34382381Y-80070952D01*
X34382381Y-80261429D01*
X34430000Y-80356667D01*
X34477619Y-80404286D01*
X34572857Y-80451905D01*
X34620476Y-80451905D01*
X34715714Y-80404286D01*
X34763333Y-80356667D01*
X34810952Y-80261429D01*
X34810952Y-80070952D01*
X34858571Y-79975714D01*
X34906190Y-79928095D01*
X35001429Y-79880476D01*
X35191905Y-79880476D01*
X35287143Y-79928095D01*
X35334762Y-79975714D01*
X35382381Y-80070952D01*
X35382381Y-80261429D01*
X35334762Y-80356667D01*
X35287143Y-80404286D01*
X35191905Y-80451905D01*
X35001429Y-80451905D01*
X34906190Y-80404286D01*
X34858571Y-80356667D01*
X34810952Y-80261429D01*
X42432381Y-35827143D02*
X41956190Y-35493809D01*
X42432381Y-35255714D02*
X41432381Y-35255714D01*
X41432381Y-35636667D01*
X41480000Y-35731905D01*
X41527619Y-35779524D01*
X41622857Y-35827143D01*
X41765714Y-35827143D01*
X41860952Y-35779524D01*
X41908571Y-35731905D01*
X41956190Y-35636667D01*
X41956190Y-35255714D01*
X41432381Y-36684286D02*
X41432381Y-36493809D01*
X41480000Y-36398571D01*
X41527619Y-36350952D01*
X41670476Y-36255714D01*
X41860952Y-36208095D01*
X42241905Y-36208095D01*
X42337143Y-36255714D01*
X42384762Y-36303333D01*
X42432381Y-36398571D01*
X42432381Y-36589048D01*
X42384762Y-36684286D01*
X42337143Y-36731905D01*
X42241905Y-36779524D01*
X42003810Y-36779524D01*
X41908571Y-36731905D01*
X41860952Y-36684286D01*
X41813333Y-36589048D01*
X41813333Y-36398571D01*
X41860952Y-36303333D01*
X41908571Y-36255714D01*
X42003810Y-36208095D01*
X42432381Y-37255714D02*
X42432381Y-37446190D01*
X42384762Y-37541429D01*
X42337143Y-37589048D01*
X42194286Y-37684286D01*
X42003810Y-37731905D01*
X41622857Y-37731905D01*
X41527619Y-37684286D01*
X41480000Y-37636667D01*
X41432381Y-37541429D01*
X41432381Y-37350952D01*
X41480000Y-37255714D01*
X41527619Y-37208095D01*
X41622857Y-37160476D01*
X41860952Y-37160476D01*
X41956190Y-37208095D01*
X42003810Y-37255714D01*
X42051429Y-37350952D01*
X42051429Y-37541429D01*
X42003810Y-37636667D01*
X41956190Y-37684286D01*
X41860952Y-37731905D01*
X39252381Y-50357143D02*
X38776190Y-50023809D01*
X39252381Y-49785714D02*
X38252381Y-49785714D01*
X38252381Y-50166667D01*
X38300000Y-50261905D01*
X38347619Y-50309524D01*
X38442857Y-50357143D01*
X38585714Y-50357143D01*
X38680952Y-50309524D01*
X38728571Y-50261905D01*
X38776190Y-50166667D01*
X38776190Y-49785714D01*
X38252381Y-50690476D02*
X38252381Y-51357143D01*
X39252381Y-50928571D01*
X39252381Y-52261905D02*
X39252381Y-51690476D01*
X39252381Y-51976190D02*
X38252381Y-51976190D01*
X38395238Y-51880952D01*
X38490476Y-51785714D01*
X38538095Y-51690476D01*
X39252381Y-64857143D02*
X38776190Y-64523809D01*
X39252381Y-64285714D02*
X38252381Y-64285714D01*
X38252381Y-64666667D01*
X38300000Y-64761905D01*
X38347619Y-64809524D01*
X38442857Y-64857143D01*
X38585714Y-64857143D01*
X38680952Y-64809524D01*
X38728571Y-64761905D01*
X38776190Y-64666667D01*
X38776190Y-64285714D01*
X38252381Y-65190476D02*
X38252381Y-65857143D01*
X39252381Y-65428571D01*
X38347619Y-66190476D02*
X38300000Y-66238095D01*
X38252381Y-66333333D01*
X38252381Y-66571429D01*
X38300000Y-66666667D01*
X38347619Y-66714286D01*
X38442857Y-66761905D01*
X38538095Y-66761905D01*
X38680952Y-66714286D01*
X39252381Y-66142857D01*
X39252381Y-66761905D01*
X39252381Y-79257143D02*
X38776190Y-78923809D01*
X39252381Y-78685714D02*
X38252381Y-78685714D01*
X38252381Y-79066667D01*
X38300000Y-79161905D01*
X38347619Y-79209524D01*
X38442857Y-79257143D01*
X38585714Y-79257143D01*
X38680952Y-79209524D01*
X38728571Y-79161905D01*
X38776190Y-79066667D01*
X38776190Y-78685714D01*
X38252381Y-79590476D02*
X38252381Y-80257143D01*
X39252381Y-79828571D01*
X38252381Y-80542857D02*
X38252381Y-81161905D01*
X38633333Y-80828571D01*
X38633333Y-80971429D01*
X38680952Y-81066667D01*
X38728571Y-81114286D01*
X38823810Y-81161905D01*
X39061905Y-81161905D01*
X39157143Y-81114286D01*
X39204762Y-81066667D01*
X39252381Y-80971429D01*
X39252381Y-80685714D01*
X39204762Y-80590476D01*
X39157143Y-80542857D01*
X53952381Y-35857143D02*
X53476190Y-35523809D01*
X53952381Y-35285714D02*
X52952381Y-35285714D01*
X52952381Y-35666667D01*
X53000000Y-35761905D01*
X53047619Y-35809524D01*
X53142857Y-35857143D01*
X53285714Y-35857143D01*
X53380952Y-35809524D01*
X53428571Y-35761905D01*
X53476190Y-35666667D01*
X53476190Y-35285714D01*
X52952381Y-36190476D02*
X52952381Y-36857143D01*
X53952381Y-36428571D01*
X52952381Y-37714286D02*
X52952381Y-37238095D01*
X53428571Y-37190476D01*
X53380952Y-37238095D01*
X53333333Y-37333333D01*
X53333333Y-37571429D01*
X53380952Y-37666667D01*
X53428571Y-37714286D01*
X53523810Y-37761905D01*
X53761905Y-37761905D01*
X53857143Y-37714286D01*
X53904762Y-37666667D01*
X53952381Y-37571429D01*
X53952381Y-37333333D01*
X53904762Y-37238095D01*
X53857143Y-37190476D01*
X50152381Y-36457143D02*
X49676190Y-36123809D01*
X50152381Y-35885714D02*
X49152381Y-35885714D01*
X49152381Y-36266667D01*
X49200000Y-36361905D01*
X49247619Y-36409524D01*
X49342857Y-36457143D01*
X49485714Y-36457143D01*
X49580952Y-36409524D01*
X49628571Y-36361905D01*
X49676190Y-36266667D01*
X49676190Y-35885714D01*
X49152381Y-36790476D02*
X49152381Y-37457143D01*
X50152381Y-37028571D01*
X49152381Y-38266667D02*
X49152381Y-38076190D01*
X49200000Y-37980952D01*
X49247619Y-37933333D01*
X49390476Y-37838095D01*
X49580952Y-37790476D01*
X49961905Y-37790476D01*
X50057143Y-37838095D01*
X50104762Y-37885714D01*
X50152381Y-37980952D01*
X50152381Y-38171429D01*
X50104762Y-38266667D01*
X50057143Y-38314286D01*
X49961905Y-38361905D01*
X49723810Y-38361905D01*
X49628571Y-38314286D01*
X49580952Y-38266667D01*
X49533333Y-38171429D01*
X49533333Y-37980952D01*
X49580952Y-37885714D01*
X49628571Y-37838095D01*
X49723810Y-37790476D01*
X50152381Y-49757143D02*
X49676190Y-49423809D01*
X50152381Y-49185714D02*
X49152381Y-49185714D01*
X49152381Y-49566667D01*
X49200000Y-49661905D01*
X49247619Y-49709524D01*
X49342857Y-49757143D01*
X49485714Y-49757143D01*
X49580952Y-49709524D01*
X49628571Y-49661905D01*
X49676190Y-49566667D01*
X49676190Y-49185714D01*
X49152381Y-50090476D02*
X49152381Y-50757143D01*
X50152381Y-50328571D01*
X49152381Y-51042857D02*
X49152381Y-51709524D01*
X50152381Y-51280952D01*
X46802381Y-64747143D02*
X46326190Y-64413809D01*
X46802381Y-64175714D02*
X45802381Y-64175714D01*
X45802381Y-64556667D01*
X45850000Y-64651905D01*
X45897619Y-64699524D01*
X45992857Y-64747143D01*
X46135714Y-64747143D01*
X46230952Y-64699524D01*
X46278571Y-64651905D01*
X46326190Y-64556667D01*
X46326190Y-64175714D01*
X45802381Y-65080476D02*
X45802381Y-65747143D01*
X46802381Y-65318571D01*
X46230952Y-66270952D02*
X46183333Y-66175714D01*
X46135714Y-66128095D01*
X46040476Y-66080476D01*
X45992857Y-66080476D01*
X45897619Y-66128095D01*
X45850000Y-66175714D01*
X45802381Y-66270952D01*
X45802381Y-66461429D01*
X45850000Y-66556667D01*
X45897619Y-66604286D01*
X45992857Y-66651905D01*
X46040476Y-66651905D01*
X46135714Y-66604286D01*
X46183333Y-66556667D01*
X46230952Y-66461429D01*
X46230952Y-66270952D01*
X46278571Y-66175714D01*
X46326190Y-66128095D01*
X46421429Y-66080476D01*
X46611905Y-66080476D01*
X46707143Y-66128095D01*
X46754762Y-66175714D01*
X46802381Y-66270952D01*
X46802381Y-66461429D01*
X46754762Y-66556667D01*
X46707143Y-66604286D01*
X46611905Y-66651905D01*
X46421429Y-66651905D01*
X46326190Y-66604286D01*
X46278571Y-66556667D01*
X46230952Y-66461429D01*
X46742381Y-79217143D02*
X46266190Y-78883809D01*
X46742381Y-78645714D02*
X45742381Y-78645714D01*
X45742381Y-79026667D01*
X45790000Y-79121905D01*
X45837619Y-79169524D01*
X45932857Y-79217143D01*
X46075714Y-79217143D01*
X46170952Y-79169524D01*
X46218571Y-79121905D01*
X46266190Y-79026667D01*
X46266190Y-78645714D01*
X45742381Y-79550476D02*
X45742381Y-80217143D01*
X46742381Y-79788571D01*
X46742381Y-80645714D02*
X46742381Y-80836190D01*
X46694762Y-80931429D01*
X46647143Y-80979048D01*
X46504286Y-81074286D01*
X46313810Y-81121905D01*
X45932857Y-81121905D01*
X45837619Y-81074286D01*
X45790000Y-81026667D01*
X45742381Y-80931429D01*
X45742381Y-80740952D01*
X45790000Y-80645714D01*
X45837619Y-80598095D01*
X45932857Y-80550476D01*
X46170952Y-80550476D01*
X46266190Y-80598095D01*
X46313810Y-80645714D01*
X46361429Y-80740952D01*
X46361429Y-80931429D01*
X46313810Y-81026667D01*
X46266190Y-81074286D01*
X46170952Y-81121905D01*
X50682381Y-78627143D02*
X50206190Y-78293809D01*
X50682381Y-78055714D02*
X49682381Y-78055714D01*
X49682381Y-78436667D01*
X49730000Y-78531905D01*
X49777619Y-78579524D01*
X49872857Y-78627143D01*
X50015714Y-78627143D01*
X50110952Y-78579524D01*
X50158571Y-78531905D01*
X50206190Y-78436667D01*
X50206190Y-78055714D01*
X50110952Y-79198571D02*
X50063333Y-79103333D01*
X50015714Y-79055714D01*
X49920476Y-79008095D01*
X49872857Y-79008095D01*
X49777619Y-79055714D01*
X49730000Y-79103333D01*
X49682381Y-79198571D01*
X49682381Y-79389048D01*
X49730000Y-79484286D01*
X49777619Y-79531905D01*
X49872857Y-79579524D01*
X49920476Y-79579524D01*
X50015714Y-79531905D01*
X50063333Y-79484286D01*
X50110952Y-79389048D01*
X50110952Y-79198571D01*
X50158571Y-79103333D01*
X50206190Y-79055714D01*
X50301429Y-79008095D01*
X50491905Y-79008095D01*
X50587143Y-79055714D01*
X50634762Y-79103333D01*
X50682381Y-79198571D01*
X50682381Y-79389048D01*
X50634762Y-79484286D01*
X50587143Y-79531905D01*
X50491905Y-79579524D01*
X50301429Y-79579524D01*
X50206190Y-79531905D01*
X50158571Y-79484286D01*
X50110952Y-79389048D01*
X49682381Y-80198571D02*
X49682381Y-80293810D01*
X49730000Y-80389048D01*
X49777619Y-80436667D01*
X49872857Y-80484286D01*
X50063333Y-80531905D01*
X50301429Y-80531905D01*
X50491905Y-80484286D01*
X50587143Y-80436667D01*
X50634762Y-80389048D01*
X50682381Y-80293810D01*
X50682381Y-80198571D01*
X50634762Y-80103333D01*
X50587143Y-80055714D01*
X50491905Y-80008095D01*
X50301429Y-79960476D01*
X50063333Y-79960476D01*
X49872857Y-80008095D01*
X49777619Y-80055714D01*
X49730000Y-80103333D01*
X49682381Y-80198571D01*
X57752381Y-35757143D02*
X57276190Y-35423809D01*
X57752381Y-35185714D02*
X56752381Y-35185714D01*
X56752381Y-35566667D01*
X56800000Y-35661905D01*
X56847619Y-35709524D01*
X56942857Y-35757143D01*
X57085714Y-35757143D01*
X57180952Y-35709524D01*
X57228571Y-35661905D01*
X57276190Y-35566667D01*
X57276190Y-35185714D01*
X57180952Y-36328571D02*
X57133333Y-36233333D01*
X57085714Y-36185714D01*
X56990476Y-36138095D01*
X56942857Y-36138095D01*
X56847619Y-36185714D01*
X56800000Y-36233333D01*
X56752381Y-36328571D01*
X56752381Y-36519048D01*
X56800000Y-36614286D01*
X56847619Y-36661905D01*
X56942857Y-36709524D01*
X56990476Y-36709524D01*
X57085714Y-36661905D01*
X57133333Y-36614286D01*
X57180952Y-36519048D01*
X57180952Y-36328571D01*
X57228571Y-36233333D01*
X57276190Y-36185714D01*
X57371429Y-36138095D01*
X57561905Y-36138095D01*
X57657143Y-36185714D01*
X57704762Y-36233333D01*
X57752381Y-36328571D01*
X57752381Y-36519048D01*
X57704762Y-36614286D01*
X57657143Y-36661905D01*
X57561905Y-36709524D01*
X57371429Y-36709524D01*
X57276190Y-36661905D01*
X57228571Y-36614286D01*
X57180952Y-36519048D01*
X56847619Y-37090476D02*
X56800000Y-37138095D01*
X56752381Y-37233333D01*
X56752381Y-37471429D01*
X56800000Y-37566667D01*
X56847619Y-37614286D01*
X56942857Y-37661905D01*
X57038095Y-37661905D01*
X57180952Y-37614286D01*
X57752381Y-37042857D01*
X57752381Y-37661905D01*
X57752381Y-50157143D02*
X57276190Y-49823809D01*
X57752381Y-49585714D02*
X56752381Y-49585714D01*
X56752381Y-49966667D01*
X56800000Y-50061905D01*
X56847619Y-50109524D01*
X56942857Y-50157143D01*
X57085714Y-50157143D01*
X57180952Y-50109524D01*
X57228571Y-50061905D01*
X57276190Y-49966667D01*
X57276190Y-49585714D01*
X57180952Y-50728571D02*
X57133333Y-50633333D01*
X57085714Y-50585714D01*
X56990476Y-50538095D01*
X56942857Y-50538095D01*
X56847619Y-50585714D01*
X56800000Y-50633333D01*
X56752381Y-50728571D01*
X56752381Y-50919048D01*
X56800000Y-51014286D01*
X56847619Y-51061905D01*
X56942857Y-51109524D01*
X56990476Y-51109524D01*
X57085714Y-51061905D01*
X57133333Y-51014286D01*
X57180952Y-50919048D01*
X57180952Y-50728571D01*
X57228571Y-50633333D01*
X57276190Y-50585714D01*
X57371429Y-50538095D01*
X57561905Y-50538095D01*
X57657143Y-50585714D01*
X57704762Y-50633333D01*
X57752381Y-50728571D01*
X57752381Y-50919048D01*
X57704762Y-51014286D01*
X57657143Y-51061905D01*
X57561905Y-51109524D01*
X57371429Y-51109524D01*
X57276190Y-51061905D01*
X57228571Y-51014286D01*
X57180952Y-50919048D01*
X56752381Y-51442857D02*
X56752381Y-52061905D01*
X57133333Y-51728571D01*
X57133333Y-51871429D01*
X57180952Y-51966667D01*
X57228571Y-52014286D01*
X57323810Y-52061905D01*
X57561905Y-52061905D01*
X57657143Y-52014286D01*
X57704762Y-51966667D01*
X57752381Y-51871429D01*
X57752381Y-51585714D01*
X57704762Y-51490476D01*
X57657143Y-51442857D01*
X54452381Y-64757143D02*
X53976190Y-64423809D01*
X54452381Y-64185714D02*
X53452381Y-64185714D01*
X53452381Y-64566667D01*
X53500000Y-64661905D01*
X53547619Y-64709524D01*
X53642857Y-64757143D01*
X53785714Y-64757143D01*
X53880952Y-64709524D01*
X53928571Y-64661905D01*
X53976190Y-64566667D01*
X53976190Y-64185714D01*
X53880952Y-65328571D02*
X53833333Y-65233333D01*
X53785714Y-65185714D01*
X53690476Y-65138095D01*
X53642857Y-65138095D01*
X53547619Y-65185714D01*
X53500000Y-65233333D01*
X53452381Y-65328571D01*
X53452381Y-65519048D01*
X53500000Y-65614286D01*
X53547619Y-65661905D01*
X53642857Y-65709524D01*
X53690476Y-65709524D01*
X53785714Y-65661905D01*
X53833333Y-65614286D01*
X53880952Y-65519048D01*
X53880952Y-65328571D01*
X53928571Y-65233333D01*
X53976190Y-65185714D01*
X54071429Y-65138095D01*
X54261905Y-65138095D01*
X54357143Y-65185714D01*
X54404762Y-65233333D01*
X54452381Y-65328571D01*
X54452381Y-65519048D01*
X54404762Y-65614286D01*
X54357143Y-65661905D01*
X54261905Y-65709524D01*
X54071429Y-65709524D01*
X53976190Y-65661905D01*
X53928571Y-65614286D01*
X53880952Y-65519048D01*
X53785714Y-66566667D02*
X54452381Y-66566667D01*
X53404762Y-66328571D02*
X54119048Y-66090476D01*
X54119048Y-66709524D01*
X54452381Y-79257143D02*
X53976190Y-78923809D01*
X54452381Y-78685714D02*
X53452381Y-78685714D01*
X53452381Y-79066667D01*
X53500000Y-79161905D01*
X53547619Y-79209524D01*
X53642857Y-79257143D01*
X53785714Y-79257143D01*
X53880952Y-79209524D01*
X53928571Y-79161905D01*
X53976190Y-79066667D01*
X53976190Y-78685714D01*
X53880952Y-79828571D02*
X53833333Y-79733333D01*
X53785714Y-79685714D01*
X53690476Y-79638095D01*
X53642857Y-79638095D01*
X53547619Y-79685714D01*
X53500000Y-79733333D01*
X53452381Y-79828571D01*
X53452381Y-80019048D01*
X53500000Y-80114286D01*
X53547619Y-80161905D01*
X53642857Y-80209524D01*
X53690476Y-80209524D01*
X53785714Y-80161905D01*
X53833333Y-80114286D01*
X53880952Y-80019048D01*
X53880952Y-79828571D01*
X53928571Y-79733333D01*
X53976190Y-79685714D01*
X54071429Y-79638095D01*
X54261905Y-79638095D01*
X54357143Y-79685714D01*
X54404762Y-79733333D01*
X54452381Y-79828571D01*
X54452381Y-80019048D01*
X54404762Y-80114286D01*
X54357143Y-80161905D01*
X54261905Y-80209524D01*
X54071429Y-80209524D01*
X53976190Y-80161905D01*
X53928571Y-80114286D01*
X53880952Y-80019048D01*
X53452381Y-81114286D02*
X53452381Y-80638095D01*
X53928571Y-80590476D01*
X53880952Y-80638095D01*
X53833333Y-80733333D01*
X53833333Y-80971429D01*
X53880952Y-81066667D01*
X53928571Y-81114286D01*
X54023810Y-81161905D01*
X54261905Y-81161905D01*
X54357143Y-81114286D01*
X54404762Y-81066667D01*
X54452381Y-80971429D01*
X54452381Y-80733333D01*
X54404762Y-80638095D01*
X54357143Y-80590476D01*
X69152381Y-35757143D02*
X68676190Y-35423809D01*
X69152381Y-35185714D02*
X68152381Y-35185714D01*
X68152381Y-35566667D01*
X68200000Y-35661905D01*
X68247619Y-35709524D01*
X68342857Y-35757143D01*
X68485714Y-35757143D01*
X68580952Y-35709524D01*
X68628571Y-35661905D01*
X68676190Y-35566667D01*
X68676190Y-35185714D01*
X68580952Y-36328571D02*
X68533333Y-36233333D01*
X68485714Y-36185714D01*
X68390476Y-36138095D01*
X68342857Y-36138095D01*
X68247619Y-36185714D01*
X68200000Y-36233333D01*
X68152381Y-36328571D01*
X68152381Y-36519048D01*
X68200000Y-36614286D01*
X68247619Y-36661905D01*
X68342857Y-36709524D01*
X68390476Y-36709524D01*
X68485714Y-36661905D01*
X68533333Y-36614286D01*
X68580952Y-36519048D01*
X68580952Y-36328571D01*
X68628571Y-36233333D01*
X68676190Y-36185714D01*
X68771429Y-36138095D01*
X68961905Y-36138095D01*
X69057143Y-36185714D01*
X69104762Y-36233333D01*
X69152381Y-36328571D01*
X69152381Y-36519048D01*
X69104762Y-36614286D01*
X69057143Y-36661905D01*
X68961905Y-36709524D01*
X68771429Y-36709524D01*
X68676190Y-36661905D01*
X68628571Y-36614286D01*
X68580952Y-36519048D01*
X68152381Y-37042857D02*
X68152381Y-37709524D01*
X69152381Y-37280952D01*
X65352381Y-35157143D02*
X64876190Y-34823809D01*
X65352381Y-34585714D02*
X64352381Y-34585714D01*
X64352381Y-34966667D01*
X64400000Y-35061905D01*
X64447619Y-35109524D01*
X64542857Y-35157143D01*
X64685714Y-35157143D01*
X64780952Y-35109524D01*
X64828571Y-35061905D01*
X64876190Y-34966667D01*
X64876190Y-34585714D01*
X64780952Y-35728571D02*
X64733333Y-35633333D01*
X64685714Y-35585714D01*
X64590476Y-35538095D01*
X64542857Y-35538095D01*
X64447619Y-35585714D01*
X64400000Y-35633333D01*
X64352381Y-35728571D01*
X64352381Y-35919048D01*
X64400000Y-36014286D01*
X64447619Y-36061905D01*
X64542857Y-36109524D01*
X64590476Y-36109524D01*
X64685714Y-36061905D01*
X64733333Y-36014286D01*
X64780952Y-35919048D01*
X64780952Y-35728571D01*
X64828571Y-35633333D01*
X64876190Y-35585714D01*
X64971429Y-35538095D01*
X65161905Y-35538095D01*
X65257143Y-35585714D01*
X65304762Y-35633333D01*
X65352381Y-35728571D01*
X65352381Y-35919048D01*
X65304762Y-36014286D01*
X65257143Y-36061905D01*
X65161905Y-36109524D01*
X64971429Y-36109524D01*
X64876190Y-36061905D01*
X64828571Y-36014286D01*
X64780952Y-35919048D01*
X64780952Y-36680952D02*
X64733333Y-36585714D01*
X64685714Y-36538095D01*
X64590476Y-36490476D01*
X64542857Y-36490476D01*
X64447619Y-36538095D01*
X64400000Y-36585714D01*
X64352381Y-36680952D01*
X64352381Y-36871429D01*
X64400000Y-36966667D01*
X64447619Y-37014286D01*
X64542857Y-37061905D01*
X64590476Y-37061905D01*
X64685714Y-37014286D01*
X64733333Y-36966667D01*
X64780952Y-36871429D01*
X64780952Y-36680952D01*
X64828571Y-36585714D01*
X64876190Y-36538095D01*
X64971429Y-36490476D01*
X65161905Y-36490476D01*
X65257143Y-36538095D01*
X65304762Y-36585714D01*
X65352381Y-36680952D01*
X65352381Y-36871429D01*
X65304762Y-36966667D01*
X65257143Y-37014286D01*
X65161905Y-37061905D01*
X64971429Y-37061905D01*
X64876190Y-37014286D01*
X64828571Y-36966667D01*
X64780952Y-36871429D01*
X62042381Y-50057143D02*
X61566190Y-49723809D01*
X62042381Y-49485714D02*
X61042381Y-49485714D01*
X61042381Y-49866667D01*
X61090000Y-49961905D01*
X61137619Y-50009524D01*
X61232857Y-50057143D01*
X61375714Y-50057143D01*
X61470952Y-50009524D01*
X61518571Y-49961905D01*
X61566190Y-49866667D01*
X61566190Y-49485714D01*
X61470952Y-50628571D02*
X61423333Y-50533333D01*
X61375714Y-50485714D01*
X61280476Y-50438095D01*
X61232857Y-50438095D01*
X61137619Y-50485714D01*
X61090000Y-50533333D01*
X61042381Y-50628571D01*
X61042381Y-50819048D01*
X61090000Y-50914286D01*
X61137619Y-50961905D01*
X61232857Y-51009524D01*
X61280476Y-51009524D01*
X61375714Y-50961905D01*
X61423333Y-50914286D01*
X61470952Y-50819048D01*
X61470952Y-50628571D01*
X61518571Y-50533333D01*
X61566190Y-50485714D01*
X61661429Y-50438095D01*
X61851905Y-50438095D01*
X61947143Y-50485714D01*
X61994762Y-50533333D01*
X62042381Y-50628571D01*
X62042381Y-50819048D01*
X61994762Y-50914286D01*
X61947143Y-50961905D01*
X61851905Y-51009524D01*
X61661429Y-51009524D01*
X61566190Y-50961905D01*
X61518571Y-50914286D01*
X61470952Y-50819048D01*
X62042381Y-51485714D02*
X62042381Y-51676190D01*
X61994762Y-51771429D01*
X61947143Y-51819048D01*
X61804286Y-51914286D01*
X61613810Y-51961905D01*
X61232857Y-51961905D01*
X61137619Y-51914286D01*
X61090000Y-51866667D01*
X61042381Y-51771429D01*
X61042381Y-51580952D01*
X61090000Y-51485714D01*
X61137619Y-51438095D01*
X61232857Y-51390476D01*
X61470952Y-51390476D01*
X61566190Y-51438095D01*
X61613810Y-51485714D01*
X61661429Y-51580952D01*
X61661429Y-51771429D01*
X61613810Y-51866667D01*
X61566190Y-51914286D01*
X61470952Y-51961905D01*
X61982381Y-64767143D02*
X61506190Y-64433809D01*
X61982381Y-64195714D02*
X60982381Y-64195714D01*
X60982381Y-64576667D01*
X61030000Y-64671905D01*
X61077619Y-64719524D01*
X61172857Y-64767143D01*
X61315714Y-64767143D01*
X61410952Y-64719524D01*
X61458571Y-64671905D01*
X61506190Y-64576667D01*
X61506190Y-64195714D01*
X61982381Y-65243333D02*
X61982381Y-65433809D01*
X61934762Y-65529048D01*
X61887143Y-65576667D01*
X61744286Y-65671905D01*
X61553810Y-65719524D01*
X61172857Y-65719524D01*
X61077619Y-65671905D01*
X61030000Y-65624286D01*
X60982381Y-65529048D01*
X60982381Y-65338571D01*
X61030000Y-65243333D01*
X61077619Y-65195714D01*
X61172857Y-65148095D01*
X61410952Y-65148095D01*
X61506190Y-65195714D01*
X61553810Y-65243333D01*
X61601429Y-65338571D01*
X61601429Y-65529048D01*
X61553810Y-65624286D01*
X61506190Y-65671905D01*
X61410952Y-65719524D01*
X60982381Y-66338571D02*
X60982381Y-66433810D01*
X61030000Y-66529048D01*
X61077619Y-66576667D01*
X61172857Y-66624286D01*
X61363333Y-66671905D01*
X61601429Y-66671905D01*
X61791905Y-66624286D01*
X61887143Y-66576667D01*
X61934762Y-66529048D01*
X61982381Y-66433810D01*
X61982381Y-66338571D01*
X61934762Y-66243333D01*
X61887143Y-66195714D01*
X61791905Y-66148095D01*
X61601429Y-66100476D01*
X61363333Y-66100476D01*
X61172857Y-66148095D01*
X61077619Y-66195714D01*
X61030000Y-66243333D01*
X60982381Y-66338571D01*
X62002381Y-79197143D02*
X61526190Y-78863809D01*
X62002381Y-78625714D02*
X61002381Y-78625714D01*
X61002381Y-79006667D01*
X61050000Y-79101905D01*
X61097619Y-79149524D01*
X61192857Y-79197143D01*
X61335714Y-79197143D01*
X61430952Y-79149524D01*
X61478571Y-79101905D01*
X61526190Y-79006667D01*
X61526190Y-78625714D01*
X62002381Y-79673333D02*
X62002381Y-79863809D01*
X61954762Y-79959048D01*
X61907143Y-80006667D01*
X61764286Y-80101905D01*
X61573810Y-80149524D01*
X61192857Y-80149524D01*
X61097619Y-80101905D01*
X61050000Y-80054286D01*
X61002381Y-79959048D01*
X61002381Y-79768571D01*
X61050000Y-79673333D01*
X61097619Y-79625714D01*
X61192857Y-79578095D01*
X61430952Y-79578095D01*
X61526190Y-79625714D01*
X61573810Y-79673333D01*
X61621429Y-79768571D01*
X61621429Y-79959048D01*
X61573810Y-80054286D01*
X61526190Y-80101905D01*
X61430952Y-80149524D01*
X62002381Y-81101905D02*
X62002381Y-80530476D01*
X62002381Y-80816190D02*
X61002381Y-80816190D01*
X61145238Y-80720952D01*
X61240476Y-80625714D01*
X61288095Y-80530476D01*
X65882381Y-78477143D02*
X65406190Y-78143809D01*
X65882381Y-77905714D02*
X64882381Y-77905714D01*
X64882381Y-78286667D01*
X64930000Y-78381905D01*
X64977619Y-78429524D01*
X65072857Y-78477143D01*
X65215714Y-78477143D01*
X65310952Y-78429524D01*
X65358571Y-78381905D01*
X65406190Y-78286667D01*
X65406190Y-77905714D01*
X65882381Y-78953333D02*
X65882381Y-79143809D01*
X65834762Y-79239048D01*
X65787143Y-79286667D01*
X65644286Y-79381905D01*
X65453810Y-79429524D01*
X65072857Y-79429524D01*
X64977619Y-79381905D01*
X64930000Y-79334286D01*
X64882381Y-79239048D01*
X64882381Y-79048571D01*
X64930000Y-78953333D01*
X64977619Y-78905714D01*
X65072857Y-78858095D01*
X65310952Y-78858095D01*
X65406190Y-78905714D01*
X65453810Y-78953333D01*
X65501429Y-79048571D01*
X65501429Y-79239048D01*
X65453810Y-79334286D01*
X65406190Y-79381905D01*
X65310952Y-79429524D01*
X64977619Y-79810476D02*
X64930000Y-79858095D01*
X64882381Y-79953333D01*
X64882381Y-80191429D01*
X64930000Y-80286667D01*
X64977619Y-80334286D01*
X65072857Y-80381905D01*
X65168095Y-80381905D01*
X65310952Y-80334286D01*
X65882381Y-79762857D01*
X65882381Y-80381905D01*
X72952381Y-36757143D02*
X72476190Y-36423809D01*
X72952381Y-36185714D02*
X71952381Y-36185714D01*
X71952381Y-36566667D01*
X72000000Y-36661905D01*
X72047619Y-36709524D01*
X72142857Y-36757143D01*
X72285714Y-36757143D01*
X72380952Y-36709524D01*
X72428571Y-36661905D01*
X72476190Y-36566667D01*
X72476190Y-36185714D01*
X72952381Y-37233333D02*
X72952381Y-37423809D01*
X72904762Y-37519048D01*
X72857143Y-37566667D01*
X72714286Y-37661905D01*
X72523810Y-37709524D01*
X72142857Y-37709524D01*
X72047619Y-37661905D01*
X72000000Y-37614286D01*
X71952381Y-37519048D01*
X71952381Y-37328571D01*
X72000000Y-37233333D01*
X72047619Y-37185714D01*
X72142857Y-37138095D01*
X72380952Y-37138095D01*
X72476190Y-37185714D01*
X72523810Y-37233333D01*
X72571429Y-37328571D01*
X72571429Y-37519048D01*
X72523810Y-37614286D01*
X72476190Y-37661905D01*
X72380952Y-37709524D01*
X72285714Y-38566667D02*
X72952381Y-38566667D01*
X71904762Y-38328571D02*
X72619048Y-38090476D01*
X72619048Y-38709524D01*
X69752381Y-50257143D02*
X69276190Y-49923809D01*
X69752381Y-49685714D02*
X68752381Y-49685714D01*
X68752381Y-50066667D01*
X68800000Y-50161905D01*
X68847619Y-50209524D01*
X68942857Y-50257143D01*
X69085714Y-50257143D01*
X69180952Y-50209524D01*
X69228571Y-50161905D01*
X69276190Y-50066667D01*
X69276190Y-49685714D01*
X69752381Y-50733333D02*
X69752381Y-50923809D01*
X69704762Y-51019048D01*
X69657143Y-51066667D01*
X69514286Y-51161905D01*
X69323810Y-51209524D01*
X68942857Y-51209524D01*
X68847619Y-51161905D01*
X68800000Y-51114286D01*
X68752381Y-51019048D01*
X68752381Y-50828571D01*
X68800000Y-50733333D01*
X68847619Y-50685714D01*
X68942857Y-50638095D01*
X69180952Y-50638095D01*
X69276190Y-50685714D01*
X69323810Y-50733333D01*
X69371429Y-50828571D01*
X69371429Y-51019048D01*
X69323810Y-51114286D01*
X69276190Y-51161905D01*
X69180952Y-51209524D01*
X68752381Y-52114286D02*
X68752381Y-51638095D01*
X69228571Y-51590476D01*
X69180952Y-51638095D01*
X69133333Y-51733333D01*
X69133333Y-51971429D01*
X69180952Y-52066667D01*
X69228571Y-52114286D01*
X69323810Y-52161905D01*
X69561905Y-52161905D01*
X69657143Y-52114286D01*
X69704762Y-52066667D01*
X69752381Y-51971429D01*
X69752381Y-51733333D01*
X69704762Y-51638095D01*
X69657143Y-51590476D01*
X69752381Y-64757143D02*
X69276190Y-64423809D01*
X69752381Y-64185714D02*
X68752381Y-64185714D01*
X68752381Y-64566667D01*
X68800000Y-64661905D01*
X68847619Y-64709524D01*
X68942857Y-64757143D01*
X69085714Y-64757143D01*
X69180952Y-64709524D01*
X69228571Y-64661905D01*
X69276190Y-64566667D01*
X69276190Y-64185714D01*
X69752381Y-65233333D02*
X69752381Y-65423809D01*
X69704762Y-65519048D01*
X69657143Y-65566667D01*
X69514286Y-65661905D01*
X69323810Y-65709524D01*
X68942857Y-65709524D01*
X68847619Y-65661905D01*
X68800000Y-65614286D01*
X68752381Y-65519048D01*
X68752381Y-65328571D01*
X68800000Y-65233333D01*
X68847619Y-65185714D01*
X68942857Y-65138095D01*
X69180952Y-65138095D01*
X69276190Y-65185714D01*
X69323810Y-65233333D01*
X69371429Y-65328571D01*
X69371429Y-65519048D01*
X69323810Y-65614286D01*
X69276190Y-65661905D01*
X69180952Y-65709524D01*
X68752381Y-66566667D02*
X68752381Y-66376190D01*
X68800000Y-66280952D01*
X68847619Y-66233333D01*
X68990476Y-66138095D01*
X69180952Y-66090476D01*
X69561905Y-66090476D01*
X69657143Y-66138095D01*
X69704762Y-66185714D01*
X69752381Y-66280952D01*
X69752381Y-66471429D01*
X69704762Y-66566667D01*
X69657143Y-66614286D01*
X69561905Y-66661905D01*
X69323810Y-66661905D01*
X69228571Y-66614286D01*
X69180952Y-66566667D01*
X69133333Y-66471429D01*
X69133333Y-66280952D01*
X69180952Y-66185714D01*
X69228571Y-66138095D01*
X69323810Y-66090476D01*
X69752381Y-79257143D02*
X69276190Y-78923809D01*
X69752381Y-78685714D02*
X68752381Y-78685714D01*
X68752381Y-79066667D01*
X68800000Y-79161905D01*
X68847619Y-79209524D01*
X68942857Y-79257143D01*
X69085714Y-79257143D01*
X69180952Y-79209524D01*
X69228571Y-79161905D01*
X69276190Y-79066667D01*
X69276190Y-78685714D01*
X69752381Y-79733333D02*
X69752381Y-79923809D01*
X69704762Y-80019048D01*
X69657143Y-80066667D01*
X69514286Y-80161905D01*
X69323810Y-80209524D01*
X68942857Y-80209524D01*
X68847619Y-80161905D01*
X68800000Y-80114286D01*
X68752381Y-80019048D01*
X68752381Y-79828571D01*
X68800000Y-79733333D01*
X68847619Y-79685714D01*
X68942857Y-79638095D01*
X69180952Y-79638095D01*
X69276190Y-79685714D01*
X69323810Y-79733333D01*
X69371429Y-79828571D01*
X69371429Y-80019048D01*
X69323810Y-80114286D01*
X69276190Y-80161905D01*
X69180952Y-80209524D01*
X68752381Y-80542857D02*
X68752381Y-81209524D01*
X69752381Y-80780952D01*
X84352381Y-35280953D02*
X83876190Y-34947619D01*
X84352381Y-34709524D02*
X83352381Y-34709524D01*
X83352381Y-35090477D01*
X83400000Y-35185715D01*
X83447619Y-35233334D01*
X83542857Y-35280953D01*
X83685714Y-35280953D01*
X83780952Y-35233334D01*
X83828571Y-35185715D01*
X83876190Y-35090477D01*
X83876190Y-34709524D01*
X84352381Y-36233334D02*
X84352381Y-35661905D01*
X84352381Y-35947619D02*
X83352381Y-35947619D01*
X83495238Y-35852381D01*
X83590476Y-35757143D01*
X83638095Y-35661905D01*
X83352381Y-36852381D02*
X83352381Y-36947620D01*
X83400000Y-37042858D01*
X83447619Y-37090477D01*
X83542857Y-37138096D01*
X83733333Y-37185715D01*
X83971429Y-37185715D01*
X84161905Y-37138096D01*
X84257143Y-37090477D01*
X84304762Y-37042858D01*
X84352381Y-36947620D01*
X84352381Y-36852381D01*
X84304762Y-36757143D01*
X84257143Y-36709524D01*
X84161905Y-36661905D01*
X83971429Y-36614286D01*
X83733333Y-36614286D01*
X83542857Y-36661905D01*
X83447619Y-36709524D01*
X83400000Y-36757143D01*
X83352381Y-36852381D01*
X84352381Y-38138096D02*
X84352381Y-37566667D01*
X84352381Y-37852381D02*
X83352381Y-37852381D01*
X83495238Y-37757143D01*
X83590476Y-37661905D01*
X83638095Y-37566667D01*
X80552381Y-34080953D02*
X80076190Y-33747619D01*
X80552381Y-33509524D02*
X79552381Y-33509524D01*
X79552381Y-33890477D01*
X79600000Y-33985715D01*
X79647619Y-34033334D01*
X79742857Y-34080953D01*
X79885714Y-34080953D01*
X79980952Y-34033334D01*
X80028571Y-33985715D01*
X80076190Y-33890477D01*
X80076190Y-33509524D01*
X80552381Y-35033334D02*
X80552381Y-34461905D01*
X80552381Y-34747619D02*
X79552381Y-34747619D01*
X79695238Y-34652381D01*
X79790476Y-34557143D01*
X79838095Y-34461905D01*
X79552381Y-35652381D02*
X79552381Y-35747620D01*
X79600000Y-35842858D01*
X79647619Y-35890477D01*
X79742857Y-35938096D01*
X79933333Y-35985715D01*
X80171429Y-35985715D01*
X80361905Y-35938096D01*
X80457143Y-35890477D01*
X80504762Y-35842858D01*
X80552381Y-35747620D01*
X80552381Y-35652381D01*
X80504762Y-35557143D01*
X80457143Y-35509524D01*
X80361905Y-35461905D01*
X80171429Y-35414286D01*
X79933333Y-35414286D01*
X79742857Y-35461905D01*
X79647619Y-35509524D01*
X79600000Y-35557143D01*
X79552381Y-35652381D01*
X79647619Y-36366667D02*
X79600000Y-36414286D01*
X79552381Y-36509524D01*
X79552381Y-36747620D01*
X79600000Y-36842858D01*
X79647619Y-36890477D01*
X79742857Y-36938096D01*
X79838095Y-36938096D01*
X79980952Y-36890477D01*
X80552381Y-36319048D01*
X80552381Y-36938096D01*
X77342381Y-49430953D02*
X76866190Y-49097619D01*
X77342381Y-48859524D02*
X76342381Y-48859524D01*
X76342381Y-49240477D01*
X76390000Y-49335715D01*
X76437619Y-49383334D01*
X76532857Y-49430953D01*
X76675714Y-49430953D01*
X76770952Y-49383334D01*
X76818571Y-49335715D01*
X76866190Y-49240477D01*
X76866190Y-48859524D01*
X77342381Y-50383334D02*
X77342381Y-49811905D01*
X77342381Y-50097619D02*
X76342381Y-50097619D01*
X76485238Y-50002381D01*
X76580476Y-49907143D01*
X76628095Y-49811905D01*
X76342381Y-51002381D02*
X76342381Y-51097620D01*
X76390000Y-51192858D01*
X76437619Y-51240477D01*
X76532857Y-51288096D01*
X76723333Y-51335715D01*
X76961429Y-51335715D01*
X77151905Y-51288096D01*
X77247143Y-51240477D01*
X77294762Y-51192858D01*
X77342381Y-51097620D01*
X77342381Y-51002381D01*
X77294762Y-50907143D01*
X77247143Y-50859524D01*
X77151905Y-50811905D01*
X76961429Y-50764286D01*
X76723333Y-50764286D01*
X76532857Y-50811905D01*
X76437619Y-50859524D01*
X76390000Y-50907143D01*
X76342381Y-51002381D01*
X76342381Y-51669048D02*
X76342381Y-52288096D01*
X76723333Y-51954762D01*
X76723333Y-52097620D01*
X76770952Y-52192858D01*
X76818571Y-52240477D01*
X76913810Y-52288096D01*
X77151905Y-52288096D01*
X77247143Y-52240477D01*
X77294762Y-52192858D01*
X77342381Y-52097620D01*
X77342381Y-51811905D01*
X77294762Y-51716667D01*
X77247143Y-51669048D01*
X77242381Y-63920953D02*
X76766190Y-63587619D01*
X77242381Y-63349524D02*
X76242381Y-63349524D01*
X76242381Y-63730477D01*
X76290000Y-63825715D01*
X76337619Y-63873334D01*
X76432857Y-63920953D01*
X76575714Y-63920953D01*
X76670952Y-63873334D01*
X76718571Y-63825715D01*
X76766190Y-63730477D01*
X76766190Y-63349524D01*
X77242381Y-64873334D02*
X77242381Y-64301905D01*
X77242381Y-64587619D02*
X76242381Y-64587619D01*
X76385238Y-64492381D01*
X76480476Y-64397143D01*
X76528095Y-64301905D01*
X76242381Y-65492381D02*
X76242381Y-65587620D01*
X76290000Y-65682858D01*
X76337619Y-65730477D01*
X76432857Y-65778096D01*
X76623333Y-65825715D01*
X76861429Y-65825715D01*
X77051905Y-65778096D01*
X77147143Y-65730477D01*
X77194762Y-65682858D01*
X77242381Y-65587620D01*
X77242381Y-65492381D01*
X77194762Y-65397143D01*
X77147143Y-65349524D01*
X77051905Y-65301905D01*
X76861429Y-65254286D01*
X76623333Y-65254286D01*
X76432857Y-65301905D01*
X76337619Y-65349524D01*
X76290000Y-65397143D01*
X76242381Y-65492381D01*
X76575714Y-66682858D02*
X77242381Y-66682858D01*
X76194762Y-66444762D02*
X76909048Y-66206667D01*
X76909048Y-66825715D01*
X77322381Y-78740953D02*
X76846190Y-78407619D01*
X77322381Y-78169524D02*
X76322381Y-78169524D01*
X76322381Y-78550477D01*
X76370000Y-78645715D01*
X76417619Y-78693334D01*
X76512857Y-78740953D01*
X76655714Y-78740953D01*
X76750952Y-78693334D01*
X76798571Y-78645715D01*
X76846190Y-78550477D01*
X76846190Y-78169524D01*
X77322381Y-79693334D02*
X77322381Y-79121905D01*
X77322381Y-79407619D02*
X76322381Y-79407619D01*
X76465238Y-79312381D01*
X76560476Y-79217143D01*
X76608095Y-79121905D01*
X76322381Y-80312381D02*
X76322381Y-80407620D01*
X76370000Y-80502858D01*
X76417619Y-80550477D01*
X76512857Y-80598096D01*
X76703333Y-80645715D01*
X76941429Y-80645715D01*
X77131905Y-80598096D01*
X77227143Y-80550477D01*
X77274762Y-80502858D01*
X77322381Y-80407620D01*
X77322381Y-80312381D01*
X77274762Y-80217143D01*
X77227143Y-80169524D01*
X77131905Y-80121905D01*
X76941429Y-80074286D01*
X76703333Y-80074286D01*
X76512857Y-80121905D01*
X76417619Y-80169524D01*
X76370000Y-80217143D01*
X76322381Y-80312381D01*
X76322381Y-81550477D02*
X76322381Y-81074286D01*
X76798571Y-81026667D01*
X76750952Y-81074286D01*
X76703333Y-81169524D01*
X76703333Y-81407620D01*
X76750952Y-81502858D01*
X76798571Y-81550477D01*
X76893810Y-81598096D01*
X77131905Y-81598096D01*
X77227143Y-81550477D01*
X77274762Y-81502858D01*
X77322381Y-81407620D01*
X77322381Y-81169524D01*
X77274762Y-81074286D01*
X77227143Y-81026667D01*
X81142381Y-78350953D02*
X80666190Y-78017619D01*
X81142381Y-77779524D02*
X80142381Y-77779524D01*
X80142381Y-78160477D01*
X80190000Y-78255715D01*
X80237619Y-78303334D01*
X80332857Y-78350953D01*
X80475714Y-78350953D01*
X80570952Y-78303334D01*
X80618571Y-78255715D01*
X80666190Y-78160477D01*
X80666190Y-77779524D01*
X81142381Y-79303334D02*
X81142381Y-78731905D01*
X81142381Y-79017619D02*
X80142381Y-79017619D01*
X80285238Y-78922381D01*
X80380476Y-78827143D01*
X80428095Y-78731905D01*
X80142381Y-79922381D02*
X80142381Y-80017620D01*
X80190000Y-80112858D01*
X80237619Y-80160477D01*
X80332857Y-80208096D01*
X80523333Y-80255715D01*
X80761429Y-80255715D01*
X80951905Y-80208096D01*
X81047143Y-80160477D01*
X81094762Y-80112858D01*
X81142381Y-80017620D01*
X81142381Y-79922381D01*
X81094762Y-79827143D01*
X81047143Y-79779524D01*
X80951905Y-79731905D01*
X80761429Y-79684286D01*
X80523333Y-79684286D01*
X80332857Y-79731905D01*
X80237619Y-79779524D01*
X80190000Y-79827143D01*
X80142381Y-79922381D01*
X80142381Y-81112858D02*
X80142381Y-80922381D01*
X80190000Y-80827143D01*
X80237619Y-80779524D01*
X80380476Y-80684286D01*
X80570952Y-80636667D01*
X80951905Y-80636667D01*
X81047143Y-80684286D01*
X81094762Y-80731905D01*
X81142381Y-80827143D01*
X81142381Y-81017620D01*
X81094762Y-81112858D01*
X81047143Y-81160477D01*
X80951905Y-81208096D01*
X80713810Y-81208096D01*
X80618571Y-81160477D01*
X80570952Y-81112858D01*
X80523333Y-81017620D01*
X80523333Y-80827143D01*
X80570952Y-80731905D01*
X80618571Y-80684286D01*
X80713810Y-80636667D01*
X88252381Y-35880953D02*
X87776190Y-35547619D01*
X88252381Y-35309524D02*
X87252381Y-35309524D01*
X87252381Y-35690477D01*
X87300000Y-35785715D01*
X87347619Y-35833334D01*
X87442857Y-35880953D01*
X87585714Y-35880953D01*
X87680952Y-35833334D01*
X87728571Y-35785715D01*
X87776190Y-35690477D01*
X87776190Y-35309524D01*
X88252381Y-36833334D02*
X88252381Y-36261905D01*
X88252381Y-36547619D02*
X87252381Y-36547619D01*
X87395238Y-36452381D01*
X87490476Y-36357143D01*
X87538095Y-36261905D01*
X87252381Y-37452381D02*
X87252381Y-37547620D01*
X87300000Y-37642858D01*
X87347619Y-37690477D01*
X87442857Y-37738096D01*
X87633333Y-37785715D01*
X87871429Y-37785715D01*
X88061905Y-37738096D01*
X88157143Y-37690477D01*
X88204762Y-37642858D01*
X88252381Y-37547620D01*
X88252381Y-37452381D01*
X88204762Y-37357143D01*
X88157143Y-37309524D01*
X88061905Y-37261905D01*
X87871429Y-37214286D01*
X87633333Y-37214286D01*
X87442857Y-37261905D01*
X87347619Y-37309524D01*
X87300000Y-37357143D01*
X87252381Y-37452381D01*
X87680952Y-38357143D02*
X87633333Y-38261905D01*
X87585714Y-38214286D01*
X87490476Y-38166667D01*
X87442857Y-38166667D01*
X87347619Y-38214286D01*
X87300000Y-38261905D01*
X87252381Y-38357143D01*
X87252381Y-38547620D01*
X87300000Y-38642858D01*
X87347619Y-38690477D01*
X87442857Y-38738096D01*
X87490476Y-38738096D01*
X87585714Y-38690477D01*
X87633333Y-38642858D01*
X87680952Y-38547620D01*
X87680952Y-38357143D01*
X87728571Y-38261905D01*
X87776190Y-38214286D01*
X87871429Y-38166667D01*
X88061905Y-38166667D01*
X88157143Y-38214286D01*
X88204762Y-38261905D01*
X88252381Y-38357143D01*
X88252381Y-38547620D01*
X88204762Y-38642858D01*
X88157143Y-38690477D01*
X88061905Y-38738096D01*
X87871429Y-38738096D01*
X87776190Y-38690477D01*
X87728571Y-38642858D01*
X87680952Y-38547620D01*
X84952381Y-49880953D02*
X84476190Y-49547619D01*
X84952381Y-49309524D02*
X83952381Y-49309524D01*
X83952381Y-49690477D01*
X84000000Y-49785715D01*
X84047619Y-49833334D01*
X84142857Y-49880953D01*
X84285714Y-49880953D01*
X84380952Y-49833334D01*
X84428571Y-49785715D01*
X84476190Y-49690477D01*
X84476190Y-49309524D01*
X84952381Y-50833334D02*
X84952381Y-50261905D01*
X84952381Y-50547619D02*
X83952381Y-50547619D01*
X84095238Y-50452381D01*
X84190476Y-50357143D01*
X84238095Y-50261905D01*
X83952381Y-51452381D02*
X83952381Y-51547620D01*
X84000000Y-51642858D01*
X84047619Y-51690477D01*
X84142857Y-51738096D01*
X84333333Y-51785715D01*
X84571429Y-51785715D01*
X84761905Y-51738096D01*
X84857143Y-51690477D01*
X84904762Y-51642858D01*
X84952381Y-51547620D01*
X84952381Y-51452381D01*
X84904762Y-51357143D01*
X84857143Y-51309524D01*
X84761905Y-51261905D01*
X84571429Y-51214286D01*
X84333333Y-51214286D01*
X84142857Y-51261905D01*
X84047619Y-51309524D01*
X84000000Y-51357143D01*
X83952381Y-51452381D01*
X84952381Y-52261905D02*
X84952381Y-52452381D01*
X84904762Y-52547620D01*
X84857143Y-52595239D01*
X84714286Y-52690477D01*
X84523810Y-52738096D01*
X84142857Y-52738096D01*
X84047619Y-52690477D01*
X84000000Y-52642858D01*
X83952381Y-52547620D01*
X83952381Y-52357143D01*
X84000000Y-52261905D01*
X84047619Y-52214286D01*
X84142857Y-52166667D01*
X84380952Y-52166667D01*
X84476190Y-52214286D01*
X84523810Y-52261905D01*
X84571429Y-52357143D01*
X84571429Y-52547620D01*
X84523810Y-52642858D01*
X84476190Y-52690477D01*
X84380952Y-52738096D01*
X84952381Y-64280953D02*
X84476190Y-63947619D01*
X84952381Y-63709524D02*
X83952381Y-63709524D01*
X83952381Y-64090477D01*
X84000000Y-64185715D01*
X84047619Y-64233334D01*
X84142857Y-64280953D01*
X84285714Y-64280953D01*
X84380952Y-64233334D01*
X84428571Y-64185715D01*
X84476190Y-64090477D01*
X84476190Y-63709524D01*
X84952381Y-65233334D02*
X84952381Y-64661905D01*
X84952381Y-64947619D02*
X83952381Y-64947619D01*
X84095238Y-64852381D01*
X84190476Y-64757143D01*
X84238095Y-64661905D01*
X84952381Y-66185715D02*
X84952381Y-65614286D01*
X84952381Y-65900000D02*
X83952381Y-65900000D01*
X84095238Y-65804762D01*
X84190476Y-65709524D01*
X84238095Y-65614286D01*
X83952381Y-66804762D02*
X83952381Y-66900001D01*
X84000000Y-66995239D01*
X84047619Y-67042858D01*
X84142857Y-67090477D01*
X84333333Y-67138096D01*
X84571429Y-67138096D01*
X84761905Y-67090477D01*
X84857143Y-67042858D01*
X84904762Y-66995239D01*
X84952381Y-66900001D01*
X84952381Y-66804762D01*
X84904762Y-66709524D01*
X84857143Y-66661905D01*
X84761905Y-66614286D01*
X84571429Y-66566667D01*
X84333333Y-66566667D01*
X84142857Y-66614286D01*
X84047619Y-66661905D01*
X84000000Y-66709524D01*
X83952381Y-66804762D01*
X84952381Y-78780953D02*
X84476190Y-78447619D01*
X84952381Y-78209524D02*
X83952381Y-78209524D01*
X83952381Y-78590477D01*
X84000000Y-78685715D01*
X84047619Y-78733334D01*
X84142857Y-78780953D01*
X84285714Y-78780953D01*
X84380952Y-78733334D01*
X84428571Y-78685715D01*
X84476190Y-78590477D01*
X84476190Y-78209524D01*
X84952381Y-79733334D02*
X84952381Y-79161905D01*
X84952381Y-79447619D02*
X83952381Y-79447619D01*
X84095238Y-79352381D01*
X84190476Y-79257143D01*
X84238095Y-79161905D01*
X84952381Y-80685715D02*
X84952381Y-80114286D01*
X84952381Y-80400000D02*
X83952381Y-80400000D01*
X84095238Y-80304762D01*
X84190476Y-80209524D01*
X84238095Y-80114286D01*
X84952381Y-81638096D02*
X84952381Y-81066667D01*
X84952381Y-81352381D02*
X83952381Y-81352381D01*
X84095238Y-81257143D01*
X84190476Y-81161905D01*
X84238095Y-81066667D01*
D17*
X92616667Y-36116667D02*
X92283333Y-35883333D01*
X92616667Y-35716667D02*
X91916667Y-35716667D01*
X91916667Y-35983333D01*
X91950000Y-36050000D01*
X91983333Y-36083333D01*
X92050000Y-36116667D01*
X92150000Y-36116667D01*
X92216667Y-36083333D01*
X92250000Y-36050000D01*
X92283333Y-35983333D01*
X92283333Y-35716667D01*
X92616667Y-36783333D02*
X92616667Y-36383333D01*
X92616667Y-36583333D02*
X91916667Y-36583333D01*
X92016667Y-36516667D01*
X92083333Y-36450000D01*
X92116667Y-36383333D01*
X92616667Y-37450000D02*
X92616667Y-37050000D01*
X92616667Y-37250000D02*
X91916667Y-37250000D01*
X92016667Y-37183334D01*
X92083333Y-37116667D01*
X92116667Y-37050000D01*
X91916667Y-37683334D02*
X91916667Y-38116667D01*
X92183333Y-37883334D01*
X92183333Y-37983334D01*
X92216667Y-38050001D01*
X92250000Y-38083334D01*
X92316667Y-38116667D01*
X92483333Y-38116667D01*
X92550000Y-38083334D01*
X92583333Y-38050001D01*
X92616667Y-37983334D01*
X92616667Y-37783334D01*
X92583333Y-37716667D01*
X92550000Y-37683334D01*
X96416667Y-36416667D02*
X96083333Y-36183333D01*
X96416667Y-36016667D02*
X95716667Y-36016667D01*
X95716667Y-36283333D01*
X95750000Y-36350000D01*
X95783333Y-36383333D01*
X95850000Y-36416667D01*
X95950000Y-36416667D01*
X96016667Y-36383333D01*
X96050000Y-36350000D01*
X96083333Y-36283333D01*
X96083333Y-36016667D01*
X96416667Y-37083333D02*
X96416667Y-36683333D01*
X96416667Y-36883333D02*
X95716667Y-36883333D01*
X95816667Y-36816667D01*
X95883333Y-36750000D01*
X95916667Y-36683333D01*
X96416667Y-37750000D02*
X96416667Y-37350000D01*
X96416667Y-37550000D02*
X95716667Y-37550000D01*
X95816667Y-37483334D01*
X95883333Y-37416667D01*
X95916667Y-37350000D01*
X95950000Y-38350001D02*
X96416667Y-38350001D01*
X95683333Y-38183334D02*
X96183333Y-38016667D01*
X96183333Y-38450001D01*
D10*
X92502381Y-49470953D02*
X92026190Y-49137619D01*
X92502381Y-48899524D02*
X91502381Y-48899524D01*
X91502381Y-49280477D01*
X91550000Y-49375715D01*
X91597619Y-49423334D01*
X91692857Y-49470953D01*
X91835714Y-49470953D01*
X91930952Y-49423334D01*
X91978571Y-49375715D01*
X92026190Y-49280477D01*
X92026190Y-48899524D01*
X92502381Y-50423334D02*
X92502381Y-49851905D01*
X92502381Y-50137619D02*
X91502381Y-50137619D01*
X91645238Y-50042381D01*
X91740476Y-49947143D01*
X91788095Y-49851905D01*
X92502381Y-51375715D02*
X92502381Y-50804286D01*
X92502381Y-51090000D02*
X91502381Y-51090000D01*
X91645238Y-50994762D01*
X91740476Y-50899524D01*
X91788095Y-50804286D01*
X91502381Y-52280477D02*
X91502381Y-51804286D01*
X91978571Y-51756667D01*
X91930952Y-51804286D01*
X91883333Y-51899524D01*
X91883333Y-52137620D01*
X91930952Y-52232858D01*
X91978571Y-52280477D01*
X92073810Y-52328096D01*
X92311905Y-52328096D01*
X92407143Y-52280477D01*
X92454762Y-52232858D01*
X92502381Y-52137620D01*
X92502381Y-51899524D01*
X92454762Y-51804286D01*
X92407143Y-51756667D01*
X92592381Y-64250953D02*
X92116190Y-63917619D01*
X92592381Y-63679524D02*
X91592381Y-63679524D01*
X91592381Y-64060477D01*
X91640000Y-64155715D01*
X91687619Y-64203334D01*
X91782857Y-64250953D01*
X91925714Y-64250953D01*
X92020952Y-64203334D01*
X92068571Y-64155715D01*
X92116190Y-64060477D01*
X92116190Y-63679524D01*
X92592381Y-65203334D02*
X92592381Y-64631905D01*
X92592381Y-64917619D02*
X91592381Y-64917619D01*
X91735238Y-64822381D01*
X91830476Y-64727143D01*
X91878095Y-64631905D01*
X92592381Y-66155715D02*
X92592381Y-65584286D01*
X92592381Y-65870000D02*
X91592381Y-65870000D01*
X91735238Y-65774762D01*
X91830476Y-65679524D01*
X91878095Y-65584286D01*
X91592381Y-67012858D02*
X91592381Y-66822381D01*
X91640000Y-66727143D01*
X91687619Y-66679524D01*
X91830476Y-66584286D01*
X92020952Y-66536667D01*
X92401905Y-66536667D01*
X92497143Y-66584286D01*
X92544762Y-66631905D01*
X92592381Y-66727143D01*
X92592381Y-66917620D01*
X92544762Y-67012858D01*
X92497143Y-67060477D01*
X92401905Y-67108096D01*
X92163810Y-67108096D01*
X92068571Y-67060477D01*
X92020952Y-67012858D01*
X91973333Y-66917620D01*
X91973333Y-66727143D01*
X92020952Y-66631905D01*
X92068571Y-66584286D01*
X92163810Y-66536667D01*
X92542381Y-78740953D02*
X92066190Y-78407619D01*
X92542381Y-78169524D02*
X91542381Y-78169524D01*
X91542381Y-78550477D01*
X91590000Y-78645715D01*
X91637619Y-78693334D01*
X91732857Y-78740953D01*
X91875714Y-78740953D01*
X91970952Y-78693334D01*
X92018571Y-78645715D01*
X92066190Y-78550477D01*
X92066190Y-78169524D01*
X92542381Y-79693334D02*
X92542381Y-79121905D01*
X92542381Y-79407619D02*
X91542381Y-79407619D01*
X91685238Y-79312381D01*
X91780476Y-79217143D01*
X91828095Y-79121905D01*
X92542381Y-80645715D02*
X92542381Y-80074286D01*
X92542381Y-80360000D02*
X91542381Y-80360000D01*
X91685238Y-80264762D01*
X91780476Y-80169524D01*
X91828095Y-80074286D01*
X91542381Y-80979048D02*
X91542381Y-81645715D01*
X92542381Y-81217143D01*
X96312381Y-78760953D02*
X95836190Y-78427619D01*
X96312381Y-78189524D02*
X95312381Y-78189524D01*
X95312381Y-78570477D01*
X95360000Y-78665715D01*
X95407619Y-78713334D01*
X95502857Y-78760953D01*
X95645714Y-78760953D01*
X95740952Y-78713334D01*
X95788571Y-78665715D01*
X95836190Y-78570477D01*
X95836190Y-78189524D01*
X96312381Y-79713334D02*
X96312381Y-79141905D01*
X96312381Y-79427619D02*
X95312381Y-79427619D01*
X95455238Y-79332381D01*
X95550476Y-79237143D01*
X95598095Y-79141905D01*
X96312381Y-80665715D02*
X96312381Y-80094286D01*
X96312381Y-80380000D02*
X95312381Y-80380000D01*
X95455238Y-80284762D01*
X95550476Y-80189524D01*
X95598095Y-80094286D01*
X95740952Y-81237143D02*
X95693333Y-81141905D01*
X95645714Y-81094286D01*
X95550476Y-81046667D01*
X95502857Y-81046667D01*
X95407619Y-81094286D01*
X95360000Y-81141905D01*
X95312381Y-81237143D01*
X95312381Y-81427620D01*
X95360000Y-81522858D01*
X95407619Y-81570477D01*
X95502857Y-81618096D01*
X95550476Y-81618096D01*
X95645714Y-81570477D01*
X95693333Y-81522858D01*
X95740952Y-81427620D01*
X95740952Y-81237143D01*
X95788571Y-81141905D01*
X95836190Y-81094286D01*
X95931429Y-81046667D01*
X96121905Y-81046667D01*
X96217143Y-81094286D01*
X96264762Y-81141905D01*
X96312381Y-81237143D01*
X96312381Y-81427620D01*
X96264762Y-81522858D01*
X96217143Y-81570477D01*
X96121905Y-81618096D01*
X95931429Y-81618096D01*
X95836190Y-81570477D01*
X95788571Y-81522858D01*
X95740952Y-81427620D01*
X103352381Y-35380953D02*
X102876190Y-35047619D01*
X103352381Y-34809524D02*
X102352381Y-34809524D01*
X102352381Y-35190477D01*
X102400000Y-35285715D01*
X102447619Y-35333334D01*
X102542857Y-35380953D01*
X102685714Y-35380953D01*
X102780952Y-35333334D01*
X102828571Y-35285715D01*
X102876190Y-35190477D01*
X102876190Y-34809524D01*
X103352381Y-36333334D02*
X103352381Y-35761905D01*
X103352381Y-36047619D02*
X102352381Y-36047619D01*
X102495238Y-35952381D01*
X102590476Y-35857143D01*
X102638095Y-35761905D01*
X103352381Y-37285715D02*
X103352381Y-36714286D01*
X103352381Y-37000000D02*
X102352381Y-37000000D01*
X102495238Y-36904762D01*
X102590476Y-36809524D01*
X102638095Y-36714286D01*
X103352381Y-37761905D02*
X103352381Y-37952381D01*
X103304762Y-38047620D01*
X103257143Y-38095239D01*
X103114286Y-38190477D01*
X102923810Y-38238096D01*
X102542857Y-38238096D01*
X102447619Y-38190477D01*
X102400000Y-38142858D01*
X102352381Y-38047620D01*
X102352381Y-37857143D01*
X102400000Y-37761905D01*
X102447619Y-37714286D01*
X102542857Y-37666667D01*
X102780952Y-37666667D01*
X102876190Y-37714286D01*
X102923810Y-37761905D01*
X102971429Y-37857143D01*
X102971429Y-38047620D01*
X102923810Y-38142858D01*
X102876190Y-38190477D01*
X102780952Y-38238096D01*
X100152381Y-49880953D02*
X99676190Y-49547619D01*
X100152381Y-49309524D02*
X99152381Y-49309524D01*
X99152381Y-49690477D01*
X99200000Y-49785715D01*
X99247619Y-49833334D01*
X99342857Y-49880953D01*
X99485714Y-49880953D01*
X99580952Y-49833334D01*
X99628571Y-49785715D01*
X99676190Y-49690477D01*
X99676190Y-49309524D01*
X100152381Y-50833334D02*
X100152381Y-50261905D01*
X100152381Y-50547619D02*
X99152381Y-50547619D01*
X99295238Y-50452381D01*
X99390476Y-50357143D01*
X99438095Y-50261905D01*
X99247619Y-51214286D02*
X99200000Y-51261905D01*
X99152381Y-51357143D01*
X99152381Y-51595239D01*
X99200000Y-51690477D01*
X99247619Y-51738096D01*
X99342857Y-51785715D01*
X99438095Y-51785715D01*
X99580952Y-51738096D01*
X100152381Y-51166667D01*
X100152381Y-51785715D01*
X100152381Y-52738096D02*
X100152381Y-52166667D01*
X100152381Y-52452381D02*
X99152381Y-52452381D01*
X99295238Y-52357143D01*
X99390476Y-52261905D01*
X99438095Y-52166667D01*
X100152381Y-64280953D02*
X99676190Y-63947619D01*
X100152381Y-63709524D02*
X99152381Y-63709524D01*
X99152381Y-64090477D01*
X99200000Y-64185715D01*
X99247619Y-64233334D01*
X99342857Y-64280953D01*
X99485714Y-64280953D01*
X99580952Y-64233334D01*
X99628571Y-64185715D01*
X99676190Y-64090477D01*
X99676190Y-63709524D01*
X100152381Y-65233334D02*
X100152381Y-64661905D01*
X100152381Y-64947619D02*
X99152381Y-64947619D01*
X99295238Y-64852381D01*
X99390476Y-64757143D01*
X99438095Y-64661905D01*
X99247619Y-65614286D02*
X99200000Y-65661905D01*
X99152381Y-65757143D01*
X99152381Y-65995239D01*
X99200000Y-66090477D01*
X99247619Y-66138096D01*
X99342857Y-66185715D01*
X99438095Y-66185715D01*
X99580952Y-66138096D01*
X100152381Y-65566667D01*
X100152381Y-66185715D01*
X99247619Y-66566667D02*
X99200000Y-66614286D01*
X99152381Y-66709524D01*
X99152381Y-66947620D01*
X99200000Y-67042858D01*
X99247619Y-67090477D01*
X99342857Y-67138096D01*
X99438095Y-67138096D01*
X99580952Y-67090477D01*
X100152381Y-66519048D01*
X100152381Y-67138096D01*
X100252381Y-78780953D02*
X99776190Y-78447619D01*
X100252381Y-78209524D02*
X99252381Y-78209524D01*
X99252381Y-78590477D01*
X99300000Y-78685715D01*
X99347619Y-78733334D01*
X99442857Y-78780953D01*
X99585714Y-78780953D01*
X99680952Y-78733334D01*
X99728571Y-78685715D01*
X99776190Y-78590477D01*
X99776190Y-78209524D01*
X100252381Y-79733334D02*
X100252381Y-79161905D01*
X100252381Y-79447619D02*
X99252381Y-79447619D01*
X99395238Y-79352381D01*
X99490476Y-79257143D01*
X99538095Y-79161905D01*
X99347619Y-80114286D02*
X99300000Y-80161905D01*
X99252381Y-80257143D01*
X99252381Y-80495239D01*
X99300000Y-80590477D01*
X99347619Y-80638096D01*
X99442857Y-80685715D01*
X99538095Y-80685715D01*
X99680952Y-80638096D01*
X100252381Y-80066667D01*
X100252381Y-80685715D01*
X99252381Y-81019048D02*
X99252381Y-81638096D01*
X99633333Y-81304762D01*
X99633333Y-81447620D01*
X99680952Y-81542858D01*
X99728571Y-81590477D01*
X99823810Y-81638096D01*
X100061905Y-81638096D01*
X100157143Y-81590477D01*
X100204762Y-81542858D01*
X100252381Y-81447620D01*
X100252381Y-81161905D01*
X100204762Y-81066667D01*
X100157143Y-81019048D01*
X50242857Y-112557143D02*
X50290476Y-112604762D01*
X50433333Y-112652381D01*
X50528571Y-112652381D01*
X50671429Y-112604762D01*
X50766667Y-112509524D01*
X50814286Y-112414286D01*
X50861905Y-112223810D01*
X50861905Y-112080952D01*
X50814286Y-111890476D01*
X50766667Y-111795238D01*
X50671429Y-111700000D01*
X50528571Y-111652381D01*
X50433333Y-111652381D01*
X50290476Y-111700000D01*
X50242857Y-111747619D01*
X49290476Y-112652381D02*
X49861905Y-112652381D01*
X49576191Y-112652381D02*
X49576191Y-111652381D01*
X49671429Y-111795238D01*
X49766667Y-111890476D01*
X49861905Y-111938095D01*
X48338095Y-112652381D02*
X48909524Y-112652381D01*
X48623810Y-112652381D02*
X48623810Y-111652381D01*
X48719048Y-111795238D01*
X48814286Y-111890476D01*
X48909524Y-111938095D01*
D17*
X32614286Y-111685714D02*
X32652381Y-111723810D01*
X32766667Y-111761905D01*
X32842857Y-111761905D01*
X32957143Y-111723810D01*
X33033334Y-111647619D01*
X33071429Y-111571429D01*
X33109524Y-111419048D01*
X33109524Y-111304762D01*
X33071429Y-111152381D01*
X33033334Y-111076190D01*
X32957143Y-111000000D01*
X32842857Y-110961905D01*
X32766667Y-110961905D01*
X32652381Y-111000000D01*
X32614286Y-111038095D01*
X31852381Y-111761905D02*
X32309524Y-111761905D01*
X32080953Y-111761905D02*
X32080953Y-110961905D01*
X32157143Y-111076190D01*
X32233334Y-111152381D01*
X32309524Y-111190476D01*
X31166667Y-111228571D02*
X31166667Y-111761905D01*
X31357143Y-110923810D02*
X31547619Y-111495238D01*
X31052381Y-111495238D01*
X32614286Y-113785714D02*
X32652381Y-113823810D01*
X32766667Y-113861905D01*
X32842857Y-113861905D01*
X32957143Y-113823810D01*
X33033334Y-113747619D01*
X33071429Y-113671429D01*
X33109524Y-113519048D01*
X33109524Y-113404762D01*
X33071429Y-113252381D01*
X33033334Y-113176190D01*
X32957143Y-113100000D01*
X32842857Y-113061905D01*
X32766667Y-113061905D01*
X32652381Y-113100000D01*
X32614286Y-113138095D01*
X31852381Y-113861905D02*
X32309524Y-113861905D01*
X32080953Y-113861905D02*
X32080953Y-113061905D01*
X32157143Y-113176190D01*
X32233334Y-113252381D01*
X32309524Y-113290476D01*
X31128571Y-113061905D02*
X31509524Y-113061905D01*
X31547619Y-113442857D01*
X31509524Y-113404762D01*
X31433333Y-113366667D01*
X31242857Y-113366667D01*
X31166667Y-113404762D01*
X31128571Y-113442857D01*
X31090476Y-113519048D01*
X31090476Y-113709524D01*
X31128571Y-113785714D01*
X31166667Y-113823810D01*
X31242857Y-113861905D01*
X31433333Y-113861905D01*
X31509524Y-113823810D01*
X31547619Y-113785714D01*
D10*
X45283333Y-108478571D02*
X45616667Y-108478571D01*
X45616667Y-109002381D02*
X45616667Y-108002381D01*
X45140476Y-108002381D01*
X44426190Y-108478571D02*
X44283333Y-108526190D01*
X44235714Y-108573810D01*
X44188095Y-108669048D01*
X44188095Y-108811905D01*
X44235714Y-108907143D01*
X44283333Y-108954762D01*
X44378571Y-109002381D01*
X44759524Y-109002381D01*
X44759524Y-108002381D01*
X44426190Y-108002381D01*
X44330952Y-108050000D01*
X44283333Y-108097619D01*
X44235714Y-108192857D01*
X44235714Y-108288095D01*
X44283333Y-108383333D01*
X44330952Y-108430952D01*
X44426190Y-108478571D01*
X44759524Y-108478571D01*
X43235714Y-109002381D02*
X43807143Y-109002381D01*
X43521429Y-109002381D02*
X43521429Y-108002381D01*
X43616667Y-108145238D01*
X43711905Y-108240476D01*
X43807143Y-108288095D01*
X45333333Y-113528571D02*
X45666667Y-113528571D01*
X45666667Y-114052381D02*
X45666667Y-113052381D01*
X45190476Y-113052381D01*
X44476190Y-113528571D02*
X44333333Y-113576190D01*
X44285714Y-113623810D01*
X44238095Y-113719048D01*
X44238095Y-113861905D01*
X44285714Y-113957143D01*
X44333333Y-114004762D01*
X44428571Y-114052381D01*
X44809524Y-114052381D01*
X44809524Y-113052381D01*
X44476190Y-113052381D01*
X44380952Y-113100000D01*
X44333333Y-113147619D01*
X44285714Y-113242857D01*
X44285714Y-113338095D01*
X44333333Y-113433333D01*
X44380952Y-113480952D01*
X44476190Y-113528571D01*
X44809524Y-113528571D01*
X43904762Y-113052381D02*
X43285714Y-113052381D01*
X43619048Y-113433333D01*
X43476190Y-113433333D01*
X43380952Y-113480952D01*
X43333333Y-113528571D01*
X43285714Y-113623810D01*
X43285714Y-113861905D01*
X43333333Y-113957143D01*
X43380952Y-114004762D01*
X43476190Y-114052381D01*
X43761905Y-114052381D01*
X43857143Y-114004762D01*
X43904762Y-113957143D01*
X63533333Y-112628571D02*
X63866667Y-112628571D01*
X63866667Y-113152381D02*
X63866667Y-112152381D01*
X63390476Y-112152381D01*
X62676190Y-112628571D02*
X62533333Y-112676190D01*
X62485714Y-112723810D01*
X62438095Y-112819048D01*
X62438095Y-112961905D01*
X62485714Y-113057143D01*
X62533333Y-113104762D01*
X62628571Y-113152381D01*
X63009524Y-113152381D01*
X63009524Y-112152381D01*
X62676190Y-112152381D01*
X62580952Y-112200000D01*
X62533333Y-112247619D01*
X62485714Y-112342857D01*
X62485714Y-112438095D01*
X62533333Y-112533333D01*
X62580952Y-112580952D01*
X62676190Y-112628571D01*
X63009524Y-112628571D01*
X61580952Y-112485714D02*
X61580952Y-113152381D01*
X61819048Y-112104762D02*
X62057143Y-112819048D01*
X61438095Y-112819048D01*
X59628571Y-27866667D02*
X59628571Y-27533333D01*
X60152381Y-27533333D02*
X59152381Y-27533333D01*
X59152381Y-28009524D01*
X59628571Y-28723810D02*
X59676190Y-28866667D01*
X59723810Y-28914286D01*
X59819048Y-28961905D01*
X59961905Y-28961905D01*
X60057143Y-28914286D01*
X60104762Y-28866667D01*
X60152381Y-28771429D01*
X60152381Y-28390476D01*
X59152381Y-28390476D01*
X59152381Y-28723810D01*
X59200000Y-28819048D01*
X59247619Y-28866667D01*
X59342857Y-28914286D01*
X59438095Y-28914286D01*
X59533333Y-28866667D01*
X59580952Y-28819048D01*
X59628571Y-28723810D01*
X59628571Y-28390476D01*
X59152381Y-29866667D02*
X59152381Y-29390476D01*
X59628571Y-29342857D01*
X59580952Y-29390476D01*
X59533333Y-29485714D01*
X59533333Y-29723810D01*
X59580952Y-29819048D01*
X59628571Y-29866667D01*
X59723810Y-29914286D01*
X59961905Y-29914286D01*
X60057143Y-29866667D01*
X60104762Y-29819048D01*
X60152381Y-29723810D01*
X60152381Y-29485714D01*
X60104762Y-29390476D01*
X60057143Y-29342857D01*
X57857143Y-28357143D02*
X57904762Y-28309524D01*
X57952381Y-28166667D01*
X57952381Y-28071429D01*
X57904762Y-27928571D01*
X57809524Y-27833333D01*
X57714286Y-27785714D01*
X57523810Y-27738095D01*
X57380952Y-27738095D01*
X57190476Y-27785714D01*
X57095238Y-27833333D01*
X57000000Y-27928571D01*
X56952381Y-28071429D01*
X56952381Y-28166667D01*
X57000000Y-28309524D01*
X57047619Y-28357143D01*
X57952381Y-29309524D02*
X57952381Y-28738095D01*
X57952381Y-29023809D02*
X56952381Y-29023809D01*
X57095238Y-28928571D01*
X57190476Y-28833333D01*
X57238095Y-28738095D01*
X56952381Y-30166667D02*
X56952381Y-29976190D01*
X57000000Y-29880952D01*
X57047619Y-29833333D01*
X57190476Y-29738095D01*
X57380952Y-29690476D01*
X57761905Y-29690476D01*
X57857143Y-29738095D01*
X57904762Y-29785714D01*
X57952381Y-29880952D01*
X57952381Y-30071429D01*
X57904762Y-30166667D01*
X57857143Y-30214286D01*
X57761905Y-30261905D01*
X57523810Y-30261905D01*
X57428571Y-30214286D01*
X57380952Y-30166667D01*
X57333333Y-30071429D01*
X57333333Y-29880952D01*
X57380952Y-29785714D01*
X57428571Y-29738095D01*
X57523810Y-29690476D01*
M02*
