G04 #@! TF.FileFunction,Paste,Top*
%FSLAX46Y46*%
G04 Gerber Fmt 4.6, Leading zero omitted, Abs format (unit mm)*
G04 Created by KiCad (PCBNEW 4.0.1-stable) date 9/28/2016 11:04:03 AM*
%MOMM*%
G01*
G04 APERTURE LIST*
%ADD10C,0.150000*%
%ADD11R,3.749040X2.550160*%
%ADD12R,1.524000X2.032000*%
%ADD13R,0.508000X1.143000*%
%ADD14R,1.700000X0.900000*%
%ADD15R,0.900000X1.700000*%
%ADD16R,1.000000X1.250000*%
%ADD17R,1.250000X1.000000*%
%ADD18R,1.198880X1.198880*%
G04 APERTURE END LIST*
D10*
D11*
X32168750Y-47992730D03*
X32168750Y-53392770D03*
D12*
X100748750Y-119971250D03*
X98208750Y-119971250D03*
X95668750Y-119971250D03*
X93128750Y-119971250D03*
X93128750Y-127591250D03*
X95668750Y-127591250D03*
X98208750Y-127591250D03*
X100748750Y-127591250D03*
X100748750Y-102191250D03*
X98208750Y-102191250D03*
X95668750Y-102191250D03*
X93128750Y-102191250D03*
X93128750Y-109811250D03*
X95668750Y-109811250D03*
X98208750Y-109811250D03*
X100748750Y-109811250D03*
X100748750Y-84411250D03*
X98208750Y-84411250D03*
X95668750Y-84411250D03*
X93128750Y-84411250D03*
X93128750Y-92031250D03*
X95668750Y-92031250D03*
X98208750Y-92031250D03*
X100748750Y-92031250D03*
X100748750Y-66631250D03*
X98208750Y-66631250D03*
X95668750Y-66631250D03*
X93128750Y-66631250D03*
X93128750Y-74251250D03*
X95668750Y-74251250D03*
X98208750Y-74251250D03*
X100748750Y-74251250D03*
X85508750Y-119971250D03*
X82968750Y-119971250D03*
X80428750Y-119971250D03*
X77888750Y-119971250D03*
X77888750Y-127591250D03*
X80428750Y-127591250D03*
X82968750Y-127591250D03*
X85508750Y-127591250D03*
X85508750Y-102191250D03*
X82968750Y-102191250D03*
X80428750Y-102191250D03*
X77888750Y-102191250D03*
X77888750Y-109811250D03*
X80428750Y-109811250D03*
X82968750Y-109811250D03*
X85508750Y-109811250D03*
X85508750Y-84411250D03*
X82968750Y-84411250D03*
X80428750Y-84411250D03*
X77888750Y-84411250D03*
X77888750Y-92031250D03*
X80428750Y-92031250D03*
X82968750Y-92031250D03*
X85508750Y-92031250D03*
X85508750Y-66631250D03*
X82968750Y-66631250D03*
X80428750Y-66631250D03*
X77888750Y-66631250D03*
X77888750Y-74251250D03*
X80428750Y-74251250D03*
X82968750Y-74251250D03*
X85508750Y-74251250D03*
X70268750Y-119971250D03*
X67728750Y-119971250D03*
X65188750Y-119971250D03*
X62648750Y-119971250D03*
X62648750Y-127591250D03*
X65188750Y-127591250D03*
X67728750Y-127591250D03*
X70268750Y-127591250D03*
X70268750Y-102191250D03*
X67728750Y-102191250D03*
X65188750Y-102191250D03*
X62648750Y-102191250D03*
X62648750Y-109811250D03*
X65188750Y-109811250D03*
X67728750Y-109811250D03*
X70268750Y-109811250D03*
X70268750Y-84411250D03*
X67728750Y-84411250D03*
X65188750Y-84411250D03*
X62648750Y-84411250D03*
X62648750Y-92031250D03*
X65188750Y-92031250D03*
X67728750Y-92031250D03*
X70268750Y-92031250D03*
X70268750Y-66631250D03*
X67728750Y-66631250D03*
X65188750Y-66631250D03*
X62648750Y-66631250D03*
X62648750Y-74251250D03*
X65188750Y-74251250D03*
X67728750Y-74251250D03*
X70268750Y-74251250D03*
X55028750Y-119971250D03*
X52488750Y-119971250D03*
X49948750Y-119971250D03*
X47408750Y-119971250D03*
X47408750Y-127591250D03*
X49948750Y-127591250D03*
X52488750Y-127591250D03*
X55028750Y-127591250D03*
X55028750Y-102191250D03*
X52488750Y-102191250D03*
X49948750Y-102191250D03*
X47408750Y-102191250D03*
X47408750Y-109811250D03*
X49948750Y-109811250D03*
X52488750Y-109811250D03*
X55028750Y-109811250D03*
X55028750Y-84411250D03*
X52488750Y-84411250D03*
X49948750Y-84411250D03*
X47408750Y-84411250D03*
X47408750Y-92031250D03*
X49948750Y-92031250D03*
X52488750Y-92031250D03*
X55028750Y-92031250D03*
X55028750Y-66631250D03*
X52488750Y-66631250D03*
X49948750Y-66631250D03*
X47408750Y-66631250D03*
X47408750Y-74251250D03*
X49948750Y-74251250D03*
X52488750Y-74251250D03*
X55028750Y-74251250D03*
X39788750Y-119971250D03*
X37248750Y-119971250D03*
X34708750Y-119971250D03*
X32168750Y-119971250D03*
X32168750Y-127591250D03*
X34708750Y-127591250D03*
X37248750Y-127591250D03*
X39788750Y-127591250D03*
X39788750Y-102191250D03*
X37248750Y-102191250D03*
X34708750Y-102191250D03*
X32168750Y-102191250D03*
X32168750Y-109811250D03*
X34708750Y-109811250D03*
X37248750Y-109811250D03*
X39788750Y-109811250D03*
X39788750Y-84411250D03*
X37248750Y-84411250D03*
X34708750Y-84411250D03*
X32168750Y-84411250D03*
X32168750Y-92031250D03*
X34708750Y-92031250D03*
X37248750Y-92031250D03*
X39788750Y-92031250D03*
X39788750Y-66631250D03*
X37248750Y-66631250D03*
X34708750Y-66631250D03*
X32168750Y-66631250D03*
X32168750Y-74251250D03*
X34708750Y-74251250D03*
X37248750Y-74251250D03*
X39788750Y-74251250D03*
D13*
X91954000Y-36437000D03*
X90684000Y-36437000D03*
X89414000Y-36437000D03*
X88144000Y-36437000D03*
X86874000Y-36437000D03*
X85604000Y-36437000D03*
X84334000Y-36437000D03*
X84334000Y-41771000D03*
X85604000Y-41771000D03*
X86874000Y-41771000D03*
X88144000Y-41771000D03*
X89414000Y-41771000D03*
X90684000Y-41771000D03*
X91954000Y-41771000D03*
D14*
X100748750Y-63001250D03*
X100748750Y-60101250D03*
X100748750Y-80781250D03*
X100748750Y-77881250D03*
X100748750Y-98561250D03*
X100748750Y-95661250D03*
X100748750Y-116468250D03*
X100748750Y-113568250D03*
X96938750Y-60101250D03*
X96938750Y-63001250D03*
X93128750Y-60101250D03*
X93128750Y-63001250D03*
X93128750Y-77881250D03*
X93128750Y-80781250D03*
X93128750Y-95661250D03*
X93128750Y-98561250D03*
X93128750Y-113568250D03*
X93128750Y-116468250D03*
X96938750Y-113568250D03*
X96938750Y-116468250D03*
X85508750Y-63001250D03*
X85508750Y-60101250D03*
X85508750Y-80781250D03*
X85508750Y-77881250D03*
X85508750Y-98561250D03*
X85508750Y-95661250D03*
X85508750Y-116341250D03*
X85508750Y-113441250D03*
X81698750Y-60101250D03*
X81698750Y-63001250D03*
X77888750Y-60101250D03*
X77888750Y-63001250D03*
X77888750Y-77881250D03*
X77888750Y-80781250D03*
X77888750Y-95661250D03*
X77888750Y-98561250D03*
X77888750Y-113441250D03*
X77888750Y-116341250D03*
X81698750Y-113441250D03*
X81698750Y-116341250D03*
X70268750Y-63001250D03*
X70268750Y-60101250D03*
X70268750Y-80781250D03*
X70268750Y-77881250D03*
X70268750Y-98561250D03*
X70268750Y-95661250D03*
X70268750Y-116341250D03*
X70268750Y-113441250D03*
X66458750Y-60101250D03*
X66458750Y-63001250D03*
X62648750Y-60101250D03*
X62648750Y-63001250D03*
X62648750Y-77881250D03*
X62648750Y-80781250D03*
X62648750Y-95661250D03*
X62648750Y-98561250D03*
X62648750Y-113441250D03*
X62648750Y-116341250D03*
X66458750Y-113441250D03*
X66458750Y-116341250D03*
X55028750Y-63001250D03*
X55028750Y-60101250D03*
X55028750Y-80781250D03*
X55028750Y-77881250D03*
X55028750Y-98561250D03*
X55028750Y-95661250D03*
X55028750Y-116341250D03*
X55028750Y-113441250D03*
D15*
X98949500Y-53963000D03*
X101849500Y-53963000D03*
D14*
X51218750Y-60101250D03*
X51218750Y-63001250D03*
X47408750Y-60101250D03*
X47408750Y-63001250D03*
X47408750Y-77881250D03*
X47408750Y-80781250D03*
X47408750Y-95661250D03*
X47408750Y-98561250D03*
X47408750Y-113441250D03*
X47408750Y-116341250D03*
X51218750Y-113441250D03*
X51218750Y-116341250D03*
X39788750Y-63001250D03*
X39788750Y-60101250D03*
X39788750Y-80781250D03*
X39788750Y-77881250D03*
X39788750Y-98561250D03*
X39788750Y-95661250D03*
X39788750Y-116341250D03*
X39788750Y-113441250D03*
X35978750Y-60101250D03*
X35978750Y-63001250D03*
X32168750Y-60101250D03*
X32168750Y-63001250D03*
X32168750Y-77881250D03*
X32168750Y-80781250D03*
X32168750Y-95661250D03*
X32168750Y-98561250D03*
X32168750Y-113441250D03*
X32168750Y-116341250D03*
X35978750Y-113441250D03*
X35978750Y-116341250D03*
X96938750Y-77881250D03*
X96938750Y-80781250D03*
X96938750Y-95661250D03*
X96938750Y-98561250D03*
X81698750Y-77881250D03*
X81698750Y-80781250D03*
X81700000Y-95650000D03*
X81700000Y-98550000D03*
X66458750Y-77881250D03*
X66458750Y-80781250D03*
X66458750Y-95661250D03*
X66458750Y-98561250D03*
D15*
X48477750Y-36913250D03*
X45577750Y-36913250D03*
D14*
X81794000Y-42078000D03*
X81794000Y-39178000D03*
X51218750Y-77881250D03*
X51218750Y-80781250D03*
X51218750Y-95661250D03*
X51218750Y-98561250D03*
X35978750Y-77881250D03*
X35978750Y-80781250D03*
X35978750Y-95661250D03*
X35978750Y-98561250D03*
D16*
X103550000Y-56875000D03*
X105550000Y-56875000D03*
D17*
X58900000Y-62075000D03*
X58900000Y-64075000D03*
D16*
X36090000Y-49137000D03*
X38090000Y-49137000D03*
X36090000Y-52566000D03*
X38090000Y-52566000D03*
D17*
X89375000Y-62075000D03*
X89375000Y-64075000D03*
X43700000Y-62075000D03*
X43700000Y-64075000D03*
X51644200Y-34268600D03*
X51644200Y-36268600D03*
X39122000Y-43406000D03*
X39122000Y-41406000D03*
X74025000Y-62100000D03*
X74025000Y-64100000D03*
D18*
X98778980Y-36310000D03*
X100877020Y-36310000D03*
X98778980Y-38850000D03*
X100877020Y-38850000D03*
X98778980Y-41390000D03*
X100877020Y-41390000D03*
X98778980Y-43930000D03*
X100877020Y-43930000D03*
M02*
