M48
INCH,TZ
T1C0.015
T2C0.025
T3C0.032
T4C0.050
T5C0.059
T6C0.060
T7C0.063
T8C0.100
T9C0.120
T10C0.157
%
T1
X20150Y-16100
X20200Y-21400
X20550Y-21400
X20605Y-20205
X21355Y-24155
X21362Y-8895
X21362Y-9495
X21450Y-15200
X21460Y-25640
X21555Y-11705
X21555Y-12205
X21580Y-21680
X21605Y-13705
X21605Y-14155
X21650Y-27050
X21955Y-21355
X21955Y-24005
X22160Y-21900
X22555Y-25905
X22630Y-28330
X22700Y-25140
X22750Y-24500
X22950Y-10300
X22955Y-24205
X23000Y-11700
X23000Y-13700
X23155Y-25755
X23155Y-29580
X23160Y-22160
X23430Y-25530
X23445Y-14155
X23450Y-12200
X23555Y-30030
X23660Y-22090
X23670Y-21740
X23700Y-21400
X23705Y-30705
X23750Y-38530
X23855Y-31030
X23930Y-31955
X23930Y-32380
X23930Y-32755
X24030Y-38180
X24270Y-39140
X24400Y-24200
X24405Y-25755
X24530Y-38680
X24705Y-16830
X24730Y-17255
X24810Y-39260
X25055Y-16730
X25120Y-39050
X25170Y-7630
X25400Y-24500
X25430Y-16730
X25770Y-39870
X25890Y-12470
X25900Y-12100
X26030Y-39600
X26220Y-31650
X26220Y-33980
X26230Y-31120
X26230Y-34330
X26240Y-32170
X26350Y-25800
X26355Y-24005
X26355Y-27005
X26540Y-34460
X26590Y-11280
X26705Y-23255
X26850Y-11030
X27180Y-18420
X27180Y-22340
X27410Y-17940
X27450Y-22060
X27600Y-10640
X27600Y-11000
X27690Y-21490
X27690Y-21820
X27910Y-17690
X28210Y-17520
X28990Y-9960
X29110Y-10290
X29350Y-20350
X29350Y-24350
X29600Y-7650
X30050Y-7900
X30500Y-25850
X31960Y-25850
X31970Y-32850
X31990Y-39850
X32000Y-18860
X32020Y-11850
X33220Y-11860
X33240Y-25860
X33240Y-32840
X33240Y-39860
X33260Y-18860
X33320Y-34640
X33320Y-41640
X33340Y-27660
X33400Y-13660
X33540Y-20700
X34350Y-39850
X34360Y-25820
X34380Y-18820
X34400Y-11800
X34400Y-32840
X34440Y-13660
X34480Y-20640
X34480Y-27640
X34480Y-34640
X34500Y-41650
X34740Y-8460
X34780Y-20380
X34780Y-27360
X34780Y-34360
X34780Y-41380
X34800Y-43550
X34810Y-13410
X35060Y-8160
X35080Y-10360
X35080Y-17340
X35080Y-24360
X35080Y-31360
X35080Y-38360
X35140Y-25820
X35150Y-43250
X35160Y-18840
X35180Y-32840
X35180Y-39840
X35200Y-11840
X35700Y-27880
X35700Y-34860
X35700Y-41860
X35720Y-13900
X35720Y-20860
X36200Y-39850
X36250Y-32850
X36280Y-25850
X36310Y-31090
X36320Y-11850
X36330Y-38100
X36340Y-10100
X36340Y-17100
X36340Y-18840
X36340Y-24100
X36600Y-7640
X37040Y-33740
X37050Y-12700
X37060Y-19720
X37060Y-26720
X37060Y-40720
X37500Y-7900
X37500Y-11040
X37500Y-18100
X37500Y-25120
X37500Y-32120
X37500Y-39120
X38940Y-39850
X38990Y-32850
X39000Y-11850
X39040Y-18850
X39040Y-25850
X40220Y-11860
X40240Y-25840
X40240Y-39860
X40260Y-32840
X40280Y-18840
X40320Y-41640
X40340Y-27660
X40340Y-34660
X40420Y-20680
X40460Y-13660
X41340Y-18780
X41380Y-25840
X41420Y-11820
X41440Y-20680
X41440Y-32840
X41480Y-27640
X41480Y-34640
X41520Y-13640
X41720Y-8460
X41780Y-20420
X41780Y-27360
X41780Y-34360
X41780Y-41380
X41820Y-13420
X42080Y-8160
X42080Y-10340
X42080Y-17360
X42080Y-24340
X42080Y-31340
X42080Y-38360
X42140Y-18820
X42140Y-42140
X42180Y-25840
X42180Y-39840
X42200Y-11840
X42220Y-32840
X42700Y-20880
X42700Y-27860
X42700Y-34860
X42700Y-41880
X42720Y-13860
X43270Y-32850
X43320Y-11850
X43320Y-25860
X43320Y-39850
X43330Y-31070
X43330Y-38070
X43340Y-18860
X43360Y-10100
X43360Y-17100
X43360Y-24100
X43620Y-7640
X44050Y-12700
X44060Y-19720
X44060Y-26720
X44060Y-33740
X44060Y-40740
X44500Y-7900
X44500Y-11080
X44500Y-18080
X44500Y-25080
X44500Y-32080
X44500Y-39100
X46000Y-39850
X46010Y-32850
X46020Y-11850
X46020Y-18850
X46060Y-25850
X47240Y-39820
X47260Y-25840
X47260Y-32860
X47280Y-11820
X47300Y-18820
X47320Y-27660
X47320Y-34640
X47320Y-41640
X47360Y-13660
X47380Y-20700
X48340Y-25820
X48360Y-18820
X48360Y-32820
X48440Y-11800
X48440Y-13660
X48460Y-20660
X48480Y-27660
X48480Y-34660
X48750Y-13350
X48760Y-8460
X48780Y-20440
X48780Y-27380
X48780Y-34360
X48780Y-41360
X49080Y-8160
X49080Y-10340
X49080Y-17360
X49080Y-24360
X49080Y-31340
X49080Y-38340
X49120Y-25840
X49160Y-18820
X49160Y-32840
X49160Y-39840
X49200Y-11840
X49420Y-42160
X49700Y-13860
X49700Y-20860
X49700Y-27860
X49700Y-34860
X49700Y-41860
X50210Y-39850
X50270Y-32840
X50300Y-18850
X50300Y-25860
X50320Y-10100
X50320Y-11850
X50320Y-16980
X50320Y-24100
X50330Y-31090
X50330Y-38090
X50580Y-7640
X51040Y-19720
X51040Y-26720
X51060Y-33720
X51060Y-40720
X51100Y-12700
X51720Y-25100
X51740Y-7900
X51740Y-11060
X51740Y-18120
X51740Y-32080
X51740Y-39100
X52960Y-25850
X52960Y-32850
X52980Y-39850
X53000Y-18850
X53020Y-11850
X54240Y-11860
X54240Y-32860
X54260Y-13860
X54260Y-18820
X54260Y-39860
X54300Y-25860
X54320Y-34640
X54320Y-41640
X54340Y-27660
X54400Y-20680
X54560Y-8460
X54880Y-8180
X55340Y-25840
X55380Y-18820
X55380Y-32840
X55440Y-13640
X55460Y-11420
X55460Y-27660
X55480Y-20680
X55480Y-34660
X55750Y-13350
X55770Y-27350
X55780Y-20380
X55780Y-34380
X55780Y-41360
X55820Y-41820
X56080Y-10340
X56080Y-17360
X56080Y-24360
X56080Y-31360
X56080Y-38340
X56140Y-39860
X56160Y-25840
X56180Y-11860
X56180Y-18840
X56180Y-32840
X56700Y-13860
X56700Y-20860
X56700Y-27860
X56700Y-34860
X56700Y-41860
X57220Y-32860
X57340Y-38080
X57340Y-39880
X57350Y-31050
X57360Y-18850
X57360Y-25850
X57400Y-10080
X57400Y-11850
X57400Y-17080
X57400Y-24080
X58020Y-26740
X58040Y-8680
X58040Y-12720
X58040Y-19720
X58040Y-33740
X58600Y-42300
X58700Y-11100
X58700Y-18100
X58700Y-25100
X58700Y-32100
X58700Y-39100
X58750Y-41300
X58750Y-41800
X58900Y-42500
X58960Y-21520
X58960Y-22040
X58960Y-36400
X59020Y-21180
X59040Y-34960
X59080Y-35740
X59200Y-21780
X59200Y-36680
X59200Y-42650
X59220Y-22300
X59240Y-22820
X59300Y-21000
X59380Y-35000
X59400Y-28720
X59400Y-36120
X59460Y-22560
X59550Y-42700
X59760Y-28740
X59940Y-36860
X59950Y-23575
X59950Y-42650
X60000Y-27600
X60160Y-34720
X60200Y-35060
X60200Y-36000
X60200Y-37120
X60200Y-37500
X60260Y-27300
X60300Y-42650
X60360Y-28900
X60450Y-25450
X60460Y-23600
X60520Y-27000
X60660Y-18040
X60675Y-23100
X60700Y-42600
X60800Y-35700
X60850Y-22500
X60920Y-17720
X61150Y-21600
X61220Y-17900
X61300Y-35400
X61350Y-21050
X61440Y-17640
X61480Y-17300
X61550Y-20550
X61750Y-20050
X61820Y-17280
X61900Y-35100
X61960Y-16980
X62300Y-16940
X62300Y-19900
X62460Y-37060
X62550Y-17250
X62550Y-17600
X62550Y-17950
X62550Y-18300
X62550Y-18650
X62720Y-34340
X62720Y-34700
X62740Y-37460
X63300Y-36200
X63300Y-36600
X63300Y-37000
X63300Y-37400
T2
X62350Y-21150
X62350Y-21650
X62350Y-22150
X62350Y-22650
X62350Y-23150
X62350Y-23650
X62350Y-24150
X62350Y-24650
X62350Y-25150
X62350Y-25650
X62350Y-26150
X62350Y-26650
X62350Y-27150
X62350Y-27650
X62350Y-28150
X62350Y-28650
X62350Y-29150
X62350Y-29650
X62350Y-30150
X62350Y-30650
X62850Y-21150
X62850Y-21650
X62850Y-22150
X62850Y-22650
X62850Y-23150
X62850Y-23650
X62850Y-24150
X62850Y-24650
X62850Y-25150
X62850Y-25650
X62850Y-26150
X62850Y-26650
X62850Y-27150
X62850Y-27650
X62850Y-28150
X62850Y-28650
X62850Y-29150
X62850Y-29650
X62850Y-30150
X62850Y-30650
T3
X11100Y-14200
X11100Y-15200
X11100Y-16200
X11100Y-17200
X11100Y-18200
X12100Y-14200
X12100Y-15200
X12100Y-16200
X12100Y-17200
X12100Y-18200
T4
X62600Y-20525
X62600Y-31275
T5
X10100Y-34500
X10100Y-38550
T6
X12500Y-24300
X12500Y-26300
X12500Y-28300
X12500Y-30300
T7
X9100Y-33500
X9100Y-35500
X9100Y-37550
X9100Y-39550
X11100Y-33500
X11100Y-35500
X11100Y-37550
X11100Y-39550
T8
X11400Y-11900
X11400Y-20500
X11500Y-23300
X11500Y-31300
T9
X9850Y-8750
X9850Y-42050
X61750Y-8800
X61750Y-42050
T10
X8500Y-25300
X8500Y-29300
M30
