M48
INCH,TZ
T1C0.015
T2C0.025
T3C0.030
T4C0.032
T5C0.039
T6C0.040
T7C0.050
T8C0.059
T9C0.060
T10C0.063
T11C0.100
T12C0.120
T13C0.157
%
T1
X7463Y-16138
X7463Y-19537
X7613Y-15538
X7613Y-20063
X7713Y-49037
X7763Y-48687
X7763Y-49438
X7763Y-49787
X7763Y-50138
X7888Y-24162
X7913Y-48388
X8113Y-48088
X8163Y-23863
X8252Y-38908
X8273Y-31628
X8532Y-32188
X8553Y-25188
X8553Y-39188
X8553Y-46187
X8593Y-45308
X8612Y-48238
X8763Y-23988
X8773Y-22808
X8773Y-29808
X8773Y-36808
X8773Y-43808
X9033Y-24268
X9033Y-31267
X9053Y-38267
X9053Y-45268
X9063Y-16163
X9113Y-48238
X9313Y-18313
X9673Y-33548
X9692Y-26548
X9692Y-40548
X9738Y-19537
X9763Y-15538
X9813Y-18063
X10313Y-17563
X10313Y-20063
X10533Y-46827
X10553Y-22728
X10553Y-29728
X10553Y-43748
X10553Y-45628
X10563Y-21363
X10563Y-23838
X10563Y-25813
X10563Y-28428
X10563Y-32808
X10563Y-35488
X10563Y-39762
X10563Y-42468
X10573Y-24667
X10573Y-31668
X10573Y-38648
X10593Y-36728
X10813Y-18063
X10813Y-20213
X10888Y-16138
X10953Y-52227
X11013Y-52788
X11263Y-19537
X11292Y-26988
X11312Y-17313
X11312Y-33988
X11312Y-41228
X11312Y-48188
X11353Y-51948
X11412Y-52788
X11788Y-49387
X11813Y-52788
X12052Y-24568
X12052Y-31567
X12073Y-38567
X12073Y-45568
X12313Y-25838
X12313Y-32813
X12313Y-39813
X12313Y-46838
X12413Y-49688
X12662Y-18787
X12662Y-52788
X12688Y-20787
X12713Y-50287
X12737Y-19737
X12788Y-49138
X12963Y-18063
X12988Y-20012
X13013Y-50788
X13088Y-49338
X13313Y-51388
X13538Y-49838
X13713Y-52207
X13963Y-18313
X14072Y-52207
X14413Y-48868
X14413Y-49413
X14437Y-20787
X14452Y-48528
X14463Y-17313
X14552Y-25188
X14552Y-32188
X14552Y-39188
X14552Y-46187
X14753Y-29828
X14753Y-37968
X14753Y-44968
X14773Y-22808
X14773Y-23968
X14773Y-30968
X14773Y-36808
X14773Y-43808
X15033Y-45268
X15053Y-24268
X15053Y-31267
X15053Y-38267
X15288Y-18313
X15673Y-26528
X15673Y-33548
X15673Y-47528
X15687Y-19438
X15693Y-40548
X15813Y-15038
X15813Y-17813
X16313Y-17563
X16313Y-20063
X16513Y-9488
X16552Y-36748
X16552Y-43728
X16552Y-46913
X16563Y-21363
X16563Y-25763
X16563Y-28478
X16563Y-32763
X16563Y-35498
X16563Y-42448
X16572Y-22728
X16572Y-23888
X16572Y-24667
X16572Y-29747
X16572Y-30928
X16572Y-31708
X16572Y-38648
X16572Y-39787
X16572Y-44868
X16572Y-45668
X16592Y-37847
X16813Y-18063
X16813Y-20313
X17288Y-19537
X17293Y-26988
X17313Y-17288
X17313Y-48188
X17333Y-33988
X17333Y-41228
X17813Y-17813
X18053Y-24568
X18053Y-45568
X18073Y-31567
X18073Y-38567
X18313Y-25813
X18313Y-39813
X18313Y-46913
X18338Y-32813
X18463Y-12438
X18638Y-18787
X18688Y-19788
X18688Y-20787
X18888Y-20063
X19513Y-49848
X19550Y-14775
X19673Y-49248
X19692Y-48888
X19813Y-12788
X20050Y-19550
X20412Y-20787
X20533Y-25188
X20553Y-32188
X20553Y-39188
X20553Y-46187
X20688Y-17288
X20753Y-22828
X20753Y-29828
X20753Y-36808
X20753Y-37968
X20753Y-43828
X20753Y-44948
X20772Y-23968
X20772Y-30968
X20813Y-49488
X20888Y-14788
X21033Y-38267
X21053Y-24268
X21053Y-31267
X21062Y-45257
X21113Y-49748
X21313Y-18313
X21412Y-50008
X21673Y-47508
X21687Y-19563
X21693Y-26548
X21693Y-33548
X21693Y-40528
X21813Y-17813
X22312Y-17563
X22312Y-20063
X22553Y-22728
X22553Y-32808
X22553Y-39787
X22553Y-43788
X22563Y-21363
X22563Y-25768
X22563Y-28528
X22563Y-35548
X22563Y-42448
X22563Y-46887
X22572Y-29728
X22572Y-30868
X22572Y-31668
X22572Y-36748
X22572Y-38608
X22572Y-44828
X22572Y-45648
X22593Y-23848
X22593Y-24628
X22593Y-37828
X22813Y-18063
X22813Y-20213
X22963Y-49937
X23238Y-19537
X23293Y-26988
X23313Y-17313
X23313Y-41208
X23313Y-48188
X23333Y-33988
X24053Y-24568
X24053Y-38567
X24053Y-45568
X24072Y-31567
X24313Y-25828
X24313Y-39813
X24313Y-46887
X24313Y-49413
X24338Y-32813
X24513Y-49963
X24638Y-18787
X24713Y-19913
X24713Y-20263
X24713Y-20787
X24713Y-49188
X24963Y-48913
X25063Y-50138
X25238Y-48687
X25637Y-50337
X25688Y-47613
X25813Y-12988
X25888Y-47888
X26038Y-50637
X26062Y-48213
X26233Y-48507
X26363Y-20787
X26413Y-48788
X26533Y-32188
X26553Y-25208
X26553Y-39188
X26553Y-46187
X26713Y-23028
X26713Y-36868
X26733Y-29908
X26733Y-30928
X26733Y-43888
X26733Y-44968
X26753Y-37947
X26773Y-23968
X26813Y-17288
X26913Y-9163
X26973Y-38267
X26993Y-31267
X27033Y-24268
X27033Y-45268
X27238Y-8913
X27312Y-18313
X27363Y-50838
X27693Y-26548
X27693Y-33548
X27693Y-40528
X27693Y-47528
X27763Y-19537
X27813Y-17813
X27863Y-51037
X28313Y-17563
X28313Y-20263
X28363Y-51238
X28513Y-51788
X28553Y-21338
X28553Y-22748
X28553Y-32828
X28562Y-28528
X28562Y-35508
X28562Y-39787
X28562Y-42488
X28562Y-46848
X28573Y-24648
X28573Y-25828
X28573Y-29767
X28573Y-45668
X28592Y-23868
X28592Y-31628
X28592Y-36788
X28592Y-37847
X28592Y-38648
X28592Y-43748
X28592Y-44868
X28633Y-30828
X28813Y-18063
X28813Y-20238
X29293Y-41228
X29313Y-19537
X29313Y-26988
X29313Y-48188
X29333Y-33988
X29763Y-52038
X29838Y-9488
X30053Y-31567
X30053Y-38567
X30053Y-45568
X30072Y-24568
X30113Y-52038
X30313Y-25813
X30313Y-32838
X30313Y-39813
X30313Y-46838
X30372Y-50148
X30413Y-13538
X30463Y-52038
X30513Y-50708
X30688Y-18787
X30688Y-20787
X30693Y-50408
X30772Y-50928
X30813Y-52038
X30938Y-20162
X30963Y-19788
X31113Y-50968
X31133Y-51307
X31163Y-17713
X31163Y-52038
X31388Y-17987
X31433Y-51448
X31473Y-51788
X32213Y-8462
X32213Y-17688
X32238Y-18612
X32438Y-20787
X32512Y-25208
X32553Y-32207
X32553Y-39188
X32553Y-43748
X32553Y-46187
X32753Y-22888
X32753Y-23928
X32753Y-29947
X32753Y-36847
X32753Y-37928
X32773Y-31008
X32773Y-44928
X32993Y-31308
X33003Y-24298
X33063Y-38238
X33063Y-45238
X33388Y-17388
X33537Y-13538
X33663Y-17138
X33693Y-47528
X33713Y-26538
X33713Y-33537
X33713Y-40588
X33750Y-13875
X33813Y-19537
X34553Y-22708
X34553Y-29707
X34553Y-43728
X34553Y-45668
X34563Y-21388
X34563Y-25808
X34563Y-28488
X34563Y-32808
X34563Y-35508
X34563Y-39808
X34563Y-42508
X34563Y-46887
X34572Y-24688
X34572Y-31687
X34572Y-38688
X34593Y-30908
X34593Y-36767
X34600Y-17200
X34613Y-23888
X34613Y-37928
X34638Y-20063
X34993Y-44948
X35213Y-19537
X35313Y-14313
X35313Y-48188
X35332Y-33988
X35353Y-41228
X35372Y-26988
X36053Y-24568
X36072Y-31567
X36072Y-38567
X36072Y-45568
X36313Y-25813
X36313Y-32813
X36313Y-39813
X36313Y-46887
X36713Y-18738
X36713Y-19813
X36713Y-20738
X37713Y-20738
X37733Y-47528
X37953Y-24228
X37953Y-31208
X37953Y-38248
X37953Y-44048
X38233Y-44368
X38253Y-24548
X38253Y-31567
X38253Y-38567
X38363Y-15463
X38512Y-19537
X38512Y-26988
X38512Y-33988
X38512Y-41228
X38762Y-19088
X38773Y-26088
X38773Y-33108
X38773Y-40068
T2
X17763Y-51838
X17763Y-52338
X18263Y-51838
X18263Y-52338
X18763Y-51838
X18763Y-52338
X19263Y-51838
X19263Y-52338
X19763Y-51838
X19763Y-52338
X20263Y-51838
X20263Y-52338
X20763Y-51838
X20763Y-52338
X21262Y-51838
X21262Y-52338
X21763Y-51838
X21763Y-52338
X22263Y-51838
X22263Y-52338
X22763Y-51838
X22763Y-52338
X23263Y-51838
X23263Y-52338
X23762Y-51838
X23762Y-52338
X24263Y-51838
X24263Y-52338
X24763Y-51838
X24763Y-52338
X25263Y-51838
X25263Y-52338
X25763Y-51838
X25763Y-52338
X26262Y-51838
X26262Y-52338
X26763Y-51838
X26763Y-52338
X27263Y-51838
X27263Y-52338
T3
X13912Y-11988
X15913Y-11988
T4
X13812Y-13763
X13812Y-16763
X14813Y-13763
X14813Y-16763
X15813Y-13763
X15813Y-16763
X16813Y-13763
X16813Y-16763
X17813Y-13763
X17813Y-16763
X18813Y-13763
X18813Y-16763
X19813Y-13763
X19813Y-16763
X20813Y-13763
X20813Y-16763
X21813Y-13763
X21813Y-16763
X22813Y-13763
X22813Y-16763
X23813Y-13763
X23813Y-16763
X24812Y-13763
X24812Y-16763
X25813Y-13763
X25813Y-16763
X26813Y-13763
X26813Y-16763
X30913Y-7988
X30913Y-8987
X31913Y-7988
X31913Y-8987
X32912Y-7988
X32912Y-8987
X33913Y-7988
X33913Y-8987
X34913Y-7988
X34913Y-8987
T5
X27951Y-14132
X27951Y-16493
X29724Y-14132
X29724Y-16493
T6
X30413Y-12488
X31413Y-12488
X31913Y-14788
X31913Y-15787
X32413Y-12488
X32912Y-14788
X32912Y-15787
X33413Y-12488
X33913Y-14788
X33913Y-15787
X34413Y-12488
X35412Y-12488
X36575Y-15000
X36575Y-16000
X37912Y-14988
X37912Y-15988
T7
X17138Y-52088
X27888Y-52088
T8
X9413Y-7988
X14413Y-7988
T9
X18912Y-11487
X20913Y-11487
X22912Y-11487
X24913Y-11487
T10
X8413Y-6988
X8413Y-8987
X10413Y-6988
X10413Y-8987
X13413Y-6988
X13413Y-8987
X15413Y-6988
X15413Y-8987
T11
X17913Y-10488
X25913Y-10488
X28613Y-8288
X37213Y-8288
T12
X8000Y-12000
X8000Y-52500
X38000Y-12000
X38000Y-52500
T13
X19913Y-7488
X23912Y-7488
M30
