G04 #@! TF.FileFunction,Soldermask,Top*
%FSLAX46Y46*%
G04 Gerber Fmt 4.6, Leading zero omitted, Abs format (unit mm)*
G04 Created by KiCad (PCBNEW 4.0.1-stable) date 2016-12-06 1:54:44 PM*
%MOMM*%
G01*
G04 APERTURE LIST*
%ADD10C,0.150000*%
%ADD11C,4.572000*%
%ADD12R,4.257040X3.058160*%
%ADD13R,2.032000X2.540000*%
%ADD14R,2.235200X2.540000*%
%ADD15O,2.235200X2.540000*%
%ADD16R,2.235200X2.235200*%
%ADD17O,2.235200X2.235200*%
%ADD18C,1.905000*%
%ADD19R,1.758000X1.508000*%
%ADD20R,1.706880X1.706880*%
%ADD21R,1.058000X2.108000*%
%ADD22R,2.108000X1.058000*%
%ADD23R,1.808000X1.208000*%
%ADD24R,1.208000X1.808000*%
%ADD25R,0.908000X1.808000*%
%ADD26R,1.008000X3.308000*%
G04 APERTURE END LIST*
D10*
D11*
X29500000Y-126600000D03*
X105500000Y-126600000D03*
X105500000Y-44600000D03*
X29500000Y-44600000D03*
D12*
X39900000Y-50000020D03*
X39900000Y-44599980D03*
D13*
X100748750Y-110071250D03*
X98208750Y-110071250D03*
X95668750Y-110071250D03*
X93128750Y-110071250D03*
X93128750Y-117691250D03*
X95668750Y-117691250D03*
X98208750Y-117691250D03*
X100748750Y-117691250D03*
X100748750Y-95691250D03*
X98208750Y-95691250D03*
X95668750Y-95691250D03*
X93128750Y-95691250D03*
X93128750Y-103311250D03*
X95668750Y-103311250D03*
X98208750Y-103311250D03*
X100748750Y-103311250D03*
X100748750Y-81111250D03*
X98208750Y-81111250D03*
X95668750Y-81111250D03*
X93128750Y-81111250D03*
X93128750Y-88731250D03*
X95668750Y-88731250D03*
X98208750Y-88731250D03*
X100748750Y-88731250D03*
X100748750Y-66631250D03*
X98208750Y-66631250D03*
X95668750Y-66631250D03*
X93128750Y-66631250D03*
X93128750Y-74251250D03*
X95668750Y-74251250D03*
X98208750Y-74251250D03*
X100748750Y-74251250D03*
X85508750Y-110071250D03*
X82968750Y-110071250D03*
X80428750Y-110071250D03*
X77888750Y-110071250D03*
X77888750Y-117691250D03*
X80428750Y-117691250D03*
X82968750Y-117691250D03*
X85508750Y-117691250D03*
X85508750Y-95691250D03*
X82968750Y-95691250D03*
X80428750Y-95691250D03*
X77888750Y-95691250D03*
X77888750Y-103311250D03*
X80428750Y-103311250D03*
X82968750Y-103311250D03*
X85508750Y-103311250D03*
X85508750Y-81111250D03*
X82968750Y-81111250D03*
X80428750Y-81111250D03*
X77888750Y-81111250D03*
X77888750Y-88731250D03*
X80428750Y-88731250D03*
X82968750Y-88731250D03*
X85508750Y-88731250D03*
X85508750Y-66631250D03*
X82968750Y-66631250D03*
X80428750Y-66631250D03*
X77888750Y-66631250D03*
X77888750Y-74251250D03*
X80428750Y-74251250D03*
X82968750Y-74251250D03*
X85508750Y-74251250D03*
X70268750Y-110071250D03*
X67728750Y-110071250D03*
X65188750Y-110071250D03*
X62648750Y-110071250D03*
X62648750Y-117691250D03*
X65188750Y-117691250D03*
X67728750Y-117691250D03*
X70268750Y-117691250D03*
X70268750Y-95691250D03*
X67728750Y-95691250D03*
X65188750Y-95691250D03*
X62648750Y-95691250D03*
X62648750Y-103311250D03*
X65188750Y-103311250D03*
X67728750Y-103311250D03*
X70268750Y-103311250D03*
X70268750Y-81111250D03*
X67728750Y-81111250D03*
X65188750Y-81111250D03*
X62648750Y-81111250D03*
X62648750Y-88731250D03*
X65188750Y-88731250D03*
X67728750Y-88731250D03*
X70268750Y-88731250D03*
X70268750Y-66631250D03*
X67728750Y-66631250D03*
X65188750Y-66631250D03*
X62648750Y-66631250D03*
X62648750Y-74251250D03*
X65188750Y-74251250D03*
X67728750Y-74251250D03*
X70268750Y-74251250D03*
X55028750Y-110071250D03*
X52488750Y-110071250D03*
X49948750Y-110071250D03*
X47408750Y-110071250D03*
X47408750Y-117691250D03*
X49948750Y-117691250D03*
X52488750Y-117691250D03*
X55028750Y-117691250D03*
X55028750Y-95691250D03*
X52488750Y-95691250D03*
X49948750Y-95691250D03*
X47408750Y-95691250D03*
X47408750Y-103311250D03*
X49948750Y-103311250D03*
X52488750Y-103311250D03*
X55028750Y-103311250D03*
X55028750Y-81111250D03*
X52488750Y-81111250D03*
X49948750Y-81111250D03*
X47408750Y-81111250D03*
X47408750Y-88731250D03*
X49948750Y-88731250D03*
X52488750Y-88731250D03*
X55028750Y-88731250D03*
X55028750Y-66631250D03*
X52488750Y-66631250D03*
X49948750Y-66631250D03*
X47408750Y-66631250D03*
X47408750Y-74251250D03*
X49948750Y-74251250D03*
X52488750Y-74251250D03*
X55028750Y-74251250D03*
X39788750Y-110071250D03*
X37248750Y-110071250D03*
X34708750Y-110071250D03*
X32168750Y-110071250D03*
X32168750Y-117691250D03*
X34708750Y-117691250D03*
X37248750Y-117691250D03*
X39788750Y-117691250D03*
X39788750Y-95691250D03*
X37248750Y-95691250D03*
X34708750Y-95691250D03*
X32168750Y-95691250D03*
X32168750Y-103311250D03*
X34708750Y-103311250D03*
X37248750Y-103311250D03*
X39788750Y-103311250D03*
X39788750Y-81111250D03*
X37248750Y-81111250D03*
X34708750Y-81111250D03*
X32168750Y-81111250D03*
X32168750Y-88731250D03*
X34708750Y-88731250D03*
X37248750Y-88731250D03*
X39788750Y-88731250D03*
X39788750Y-66631250D03*
X37248750Y-66631250D03*
X34708750Y-66631250D03*
X32168750Y-66631250D03*
X32168750Y-74251250D03*
X34708750Y-74251250D03*
X37248750Y-74251250D03*
X39788750Y-74251250D03*
D14*
X45800000Y-45100000D03*
D15*
X48340000Y-45100000D03*
X50880000Y-45100000D03*
X53420000Y-45100000D03*
X55960000Y-45100000D03*
X58500000Y-45100000D03*
D16*
X100500000Y-48500000D03*
D17*
X100500000Y-51040000D03*
X97960000Y-48500000D03*
X97960000Y-51040000D03*
X95420000Y-48500000D03*
X95420000Y-51040000D03*
D18*
X66800260Y-51650440D03*
X66800260Y-47149560D03*
X72799740Y-51650440D03*
X72799740Y-47149560D03*
D19*
X60100000Y-49300000D03*
X60100000Y-51300000D03*
X43100000Y-50800000D03*
X43100000Y-48800000D03*
X45000000Y-50800000D03*
X45000000Y-48800000D03*
D20*
X36500000Y-50949020D03*
X36500000Y-48850980D03*
D21*
X80100000Y-51450000D03*
X80900000Y-51450000D03*
X81700000Y-51450000D03*
X82500000Y-51450000D03*
X83300000Y-51450000D03*
X84100000Y-51450000D03*
X84900000Y-51450000D03*
X85700000Y-51450000D03*
D22*
X87150000Y-50000000D03*
X87150000Y-49200000D03*
X87150000Y-48400000D03*
X87150000Y-47600000D03*
X87150000Y-46800000D03*
X87150000Y-46000000D03*
X87150000Y-45200000D03*
X87150000Y-44400000D03*
D21*
X85700000Y-42950000D03*
X84900000Y-42950000D03*
X84100000Y-42950000D03*
X83300000Y-42950000D03*
X82500000Y-42950000D03*
X81700000Y-42950000D03*
X80900000Y-42950000D03*
X80100000Y-42950000D03*
D22*
X78650000Y-44400000D03*
X78650000Y-45200000D03*
X78650000Y-46000000D03*
X78650000Y-46800000D03*
X78650000Y-47600000D03*
X78650000Y-48400000D03*
X78650000Y-49200000D03*
X78650000Y-50000000D03*
D23*
X100748750Y-62501250D03*
X100748750Y-60601250D03*
X100748750Y-78681250D03*
X100748750Y-76781250D03*
X100748750Y-93161250D03*
X100748750Y-91261250D03*
X100848750Y-107668250D03*
X100848750Y-105768250D03*
X96938750Y-60601250D03*
X96938750Y-62501250D03*
X93128750Y-60601250D03*
X93128750Y-62501250D03*
X93128750Y-76781250D03*
X93128750Y-78681250D03*
X93128750Y-91261250D03*
X93128750Y-93161250D03*
X93128750Y-105768250D03*
X93128750Y-107668250D03*
X97038750Y-105768250D03*
X97038750Y-107668250D03*
X85508750Y-62501250D03*
X85508750Y-60601250D03*
X85508750Y-78681250D03*
X85508750Y-76781250D03*
X85508750Y-93161250D03*
X85508750Y-91261250D03*
X85508750Y-107641250D03*
X85508750Y-105741250D03*
X81698750Y-60601250D03*
X81698750Y-62501250D03*
X77888750Y-60601250D03*
X77888750Y-62501250D03*
X77888750Y-76781250D03*
X77888750Y-78681250D03*
X77888750Y-91261250D03*
X77888750Y-93161250D03*
X77888750Y-105741250D03*
X77888750Y-107641250D03*
X81698750Y-105741250D03*
X81698750Y-107641250D03*
X70268750Y-62501250D03*
X70268750Y-60601250D03*
X70268750Y-78681250D03*
X70268750Y-76781250D03*
X70268750Y-93161250D03*
X70268750Y-91261250D03*
X70268750Y-107641250D03*
X70268750Y-105741250D03*
X66458750Y-60601250D03*
X66458750Y-62501250D03*
X62648750Y-60601250D03*
X62648750Y-62501250D03*
X62648750Y-76781250D03*
X62648750Y-78681250D03*
X62648750Y-91261250D03*
X62648750Y-93161250D03*
X62648750Y-105741250D03*
X62648750Y-107641250D03*
X66458750Y-105741250D03*
X66458750Y-107641250D03*
X55028750Y-62501250D03*
X55028750Y-60601250D03*
X55028750Y-78681250D03*
X55028750Y-76781250D03*
X55028750Y-93161250D03*
X55028750Y-91261250D03*
X55028750Y-107641250D03*
X55028750Y-105741250D03*
D24*
X58150000Y-51500000D03*
X56250000Y-51500000D03*
D23*
X51218750Y-60601250D03*
X51218750Y-62501250D03*
X47408750Y-60601250D03*
X47408750Y-62501250D03*
X47408750Y-76781250D03*
X47408750Y-78681250D03*
X47408750Y-91261250D03*
X47408750Y-93161250D03*
X47408750Y-105741250D03*
X47408750Y-107641250D03*
X51218750Y-105741250D03*
X51218750Y-107641250D03*
X39788750Y-62501250D03*
X39788750Y-60601250D03*
X39788750Y-78681250D03*
X39788750Y-76781250D03*
X39788750Y-93161250D03*
X39788750Y-91261250D03*
X39788750Y-107641250D03*
X39788750Y-105741250D03*
X35978750Y-60601250D03*
X35978750Y-62501250D03*
X32168750Y-60601250D03*
X32168750Y-62501250D03*
X32168750Y-76781250D03*
X32168750Y-78681250D03*
X32168750Y-91261250D03*
X32168750Y-93161250D03*
X32168750Y-105741250D03*
X32168750Y-107641250D03*
X35978750Y-105741250D03*
X35978750Y-107641250D03*
X96938750Y-76781250D03*
X96938750Y-78681250D03*
X96938750Y-91261250D03*
X96938750Y-93161250D03*
X81698750Y-76781250D03*
X81698750Y-78681250D03*
X81700000Y-91250000D03*
X81700000Y-93150000D03*
X66458750Y-76781250D03*
X66458750Y-78681250D03*
X66458750Y-91261250D03*
X66458750Y-93161250D03*
X51218750Y-76781250D03*
X51218750Y-78681250D03*
X51218750Y-91261250D03*
X51218750Y-93161250D03*
X35978750Y-76781250D03*
X35978750Y-78681250D03*
X35978750Y-91261250D03*
X35978750Y-93161250D03*
D16*
X51000000Y-50700000D03*
D17*
X48460000Y-50700000D03*
D25*
X84500000Y-53200000D03*
X86900000Y-53200000D03*
X85700000Y-53200000D03*
D26*
X58000000Y-134200000D03*
X57200000Y-134200000D03*
X58800000Y-134200000D03*
X59600000Y-134200000D03*
X62800000Y-134200000D03*
X62000000Y-134200000D03*
X60400000Y-134200000D03*
X61200000Y-134200000D03*
X56400000Y-134200000D03*
X69200000Y-134200000D03*
X68400000Y-134200000D03*
X66800000Y-134200000D03*
X67600000Y-134200000D03*
X77200000Y-134200000D03*
X76400000Y-134200000D03*
X78000000Y-134200000D03*
X78800000Y-134200000D03*
X75600000Y-134200000D03*
X74800000Y-134200000D03*
X70000000Y-134200000D03*
X70800000Y-134200000D03*
X66000000Y-134200000D03*
X65200000Y-134200000D03*
X63600000Y-134200000D03*
X64400000Y-134200000D03*
M02*
