G04 #@! TF.FileFunction,Paste,Bot*
%FSLAX46Y46*%
G04 Gerber Fmt 4.6, Leading zero omitted, Abs format (unit mm)*
G04 Created by KiCad (PCBNEW 4.0.1-stable) date 2016-12-19 1:22:00 AM*
%MOMM*%
G01*
G04 APERTURE LIST*
%ADD10C,0.150000*%
%ADD11R,0.500000X2.800000*%
%ADD12R,1.524000X2.032000*%
%ADD13R,1.300000X0.700000*%
%ADD14R,3.749040X2.550160*%
%ADD15R,0.508000X1.143000*%
%ADD16R,1.000000X1.250000*%
G04 APERTURE END LIST*
D10*
D11*
X91500000Y-23400000D03*
X92300000Y-23400000D03*
X93900000Y-23400000D03*
X93100000Y-23400000D03*
X96300000Y-23400000D03*
X97100000Y-23400000D03*
X95500000Y-23400000D03*
X94700000Y-23400000D03*
X85100000Y-23400000D03*
X85900000Y-23400000D03*
X87500000Y-23400000D03*
X86700000Y-23400000D03*
X89900000Y-23400000D03*
X90700000Y-23400000D03*
X89100000Y-23400000D03*
X88300000Y-23400000D03*
X78700000Y-23400000D03*
X82700000Y-23400000D03*
X84300000Y-23400000D03*
X83500000Y-23400000D03*
X77100000Y-23400000D03*
X77900000Y-23400000D03*
X76300000Y-23400000D03*
X74700000Y-23400000D03*
X75500000Y-23400000D03*
D12*
X78471250Y-54288750D03*
X81011250Y-54288750D03*
X83551250Y-54288750D03*
X86091250Y-54288750D03*
X86091250Y-61908750D03*
X83551250Y-61908750D03*
X81011250Y-61908750D03*
X78471250Y-61908750D03*
D13*
X67041250Y-49958750D03*
X67041250Y-51858750D03*
D14*
X93600000Y-107599980D03*
X93600000Y-113000020D03*
D12*
X32751250Y-39908750D03*
X35291250Y-39908750D03*
X37831250Y-39908750D03*
X40371250Y-39908750D03*
X40371250Y-47528750D03*
X37831250Y-47528750D03*
X35291250Y-47528750D03*
X32751250Y-47528750D03*
X32751250Y-54288750D03*
X35291250Y-54288750D03*
X37831250Y-54288750D03*
X40371250Y-54288750D03*
X40371250Y-61908750D03*
X37831250Y-61908750D03*
X35291250Y-61908750D03*
X32751250Y-61908750D03*
X32751250Y-68868750D03*
X35291250Y-68868750D03*
X37831250Y-68868750D03*
X40371250Y-68868750D03*
X40371250Y-76488750D03*
X37831250Y-76488750D03*
X35291250Y-76488750D03*
X32751250Y-76488750D03*
X32751250Y-83348750D03*
X35291250Y-83348750D03*
X37831250Y-83348750D03*
X40371250Y-83348750D03*
X40371250Y-90968750D03*
X37831250Y-90968750D03*
X35291250Y-90968750D03*
X32751250Y-90968750D03*
X47991250Y-39908750D03*
X50531250Y-39908750D03*
X53071250Y-39908750D03*
X55611250Y-39908750D03*
X55611250Y-47528750D03*
X53071250Y-47528750D03*
X50531250Y-47528750D03*
X47991250Y-47528750D03*
X47991250Y-54288750D03*
X50531250Y-54288750D03*
X53071250Y-54288750D03*
X55611250Y-54288750D03*
X55611250Y-61908750D03*
X53071250Y-61908750D03*
X50531250Y-61908750D03*
X47991250Y-61908750D03*
X47991250Y-68868750D03*
X50531250Y-68868750D03*
X53071250Y-68868750D03*
X55611250Y-68868750D03*
X55611250Y-76488750D03*
X53071250Y-76488750D03*
X50531250Y-76488750D03*
X47991250Y-76488750D03*
X47991250Y-83348750D03*
X50531250Y-83348750D03*
X53071250Y-83348750D03*
X55611250Y-83348750D03*
X55611250Y-90968750D03*
X53071250Y-90968750D03*
X50531250Y-90968750D03*
X47991250Y-90968750D03*
X63231250Y-39908750D03*
X65771250Y-39908750D03*
X68311250Y-39908750D03*
X70851250Y-39908750D03*
X70851250Y-47528750D03*
X68311250Y-47528750D03*
X65771250Y-47528750D03*
X63231250Y-47528750D03*
X63231250Y-54288750D03*
X65771250Y-54288750D03*
X68311250Y-54288750D03*
X70851250Y-54288750D03*
X70851250Y-61908750D03*
X68311250Y-61908750D03*
X65771250Y-61908750D03*
X63231250Y-61908750D03*
X63231250Y-68868750D03*
X65771250Y-68868750D03*
X68311250Y-68868750D03*
X70851250Y-68868750D03*
X70851250Y-76488750D03*
X68311250Y-76488750D03*
X65771250Y-76488750D03*
X63231250Y-76488750D03*
X63231250Y-83348750D03*
X65771250Y-83348750D03*
X68311250Y-83348750D03*
X70851250Y-83348750D03*
X70851250Y-90968750D03*
X68311250Y-90968750D03*
X65771250Y-90968750D03*
X63231250Y-90968750D03*
X78471250Y-39908750D03*
X81011250Y-39908750D03*
X83551250Y-39908750D03*
X86091250Y-39908750D03*
X86091250Y-47528750D03*
X83551250Y-47528750D03*
X81011250Y-47528750D03*
X78471250Y-47528750D03*
X78471250Y-68868750D03*
X81011250Y-68868750D03*
X83551250Y-68868750D03*
X86091250Y-68868750D03*
X86091250Y-76488750D03*
X83551250Y-76488750D03*
X81011250Y-76488750D03*
X78471250Y-76488750D03*
X78471250Y-83348750D03*
X81011250Y-83348750D03*
X83551250Y-83348750D03*
X86091250Y-83348750D03*
X86091250Y-90968750D03*
X83551250Y-90968750D03*
X81011250Y-90968750D03*
X78471250Y-90968750D03*
X93711250Y-39908750D03*
X96251250Y-39908750D03*
X98791250Y-39908750D03*
X101331250Y-39908750D03*
X101331250Y-47528750D03*
X98791250Y-47528750D03*
X96251250Y-47528750D03*
X93711250Y-47528750D03*
X93711250Y-54288750D03*
X96251250Y-54288750D03*
X98791250Y-54288750D03*
X101331250Y-54288750D03*
X101331250Y-61908750D03*
X98791250Y-61908750D03*
X96251250Y-61908750D03*
X93711250Y-61908750D03*
X93711250Y-68868750D03*
X96251250Y-68868750D03*
X98791250Y-68868750D03*
X101331250Y-68868750D03*
X101331250Y-76488750D03*
X98791250Y-76488750D03*
X96251250Y-76488750D03*
X93711250Y-76488750D03*
X93711250Y-83348750D03*
X96251250Y-83348750D03*
X98791250Y-83348750D03*
X101331250Y-83348750D03*
X101331250Y-90968750D03*
X98791250Y-90968750D03*
X96251250Y-90968750D03*
X93711250Y-90968750D03*
D15*
X32116250Y-94651750D03*
X33386250Y-94651750D03*
X34656250Y-94651750D03*
X35926250Y-94651750D03*
X37196250Y-94651750D03*
X38466250Y-94651750D03*
X39736250Y-94651750D03*
X41006250Y-94651750D03*
X41006250Y-99731750D03*
X39736250Y-99731750D03*
X38466250Y-99731750D03*
X37196250Y-99731750D03*
X35926250Y-99731750D03*
X34656250Y-99731750D03*
X33386250Y-99731750D03*
X32116250Y-99731750D03*
X47356250Y-94524750D03*
X48626250Y-94524750D03*
X49896250Y-94524750D03*
X51166250Y-94524750D03*
X52436250Y-94524750D03*
X53706250Y-94524750D03*
X54976250Y-94524750D03*
X56246250Y-94524750D03*
X56246250Y-99604750D03*
X54976250Y-99604750D03*
X53706250Y-99604750D03*
X52436250Y-99604750D03*
X51166250Y-99604750D03*
X49896250Y-99604750D03*
X48626250Y-99604750D03*
X47356250Y-99604750D03*
X62596250Y-94524750D03*
X63866250Y-94524750D03*
X65136250Y-94524750D03*
X66406250Y-94524750D03*
X67676250Y-94524750D03*
X68946250Y-94524750D03*
X70216250Y-94524750D03*
X71486250Y-94524750D03*
X71486250Y-99604750D03*
X70216250Y-99604750D03*
X68946250Y-99604750D03*
X67676250Y-99604750D03*
X66406250Y-99604750D03*
X65136250Y-99604750D03*
X63866250Y-99604750D03*
X62596250Y-99604750D03*
X77836250Y-94524750D03*
X79106250Y-94524750D03*
X80376250Y-94524750D03*
X81646250Y-94524750D03*
X82916250Y-94524750D03*
X84186250Y-94524750D03*
X85456250Y-94524750D03*
X86726250Y-94524750D03*
X86726250Y-99604750D03*
X85456250Y-99604750D03*
X84186250Y-99604750D03*
X82916250Y-99604750D03*
X81646250Y-99604750D03*
X80376250Y-99604750D03*
X79106250Y-99604750D03*
X77836250Y-99604750D03*
X93076250Y-94524750D03*
X94346250Y-94524750D03*
X95616250Y-94524750D03*
X96886250Y-94524750D03*
X98156250Y-94524750D03*
X99426250Y-94524750D03*
X100696250Y-94524750D03*
X101966250Y-94524750D03*
X101966250Y-99604750D03*
X100696250Y-99604750D03*
X99426250Y-99604750D03*
X98156250Y-99604750D03*
X96886250Y-99604750D03*
X95616250Y-99604750D03*
X94346250Y-99604750D03*
X93076250Y-99604750D03*
D16*
X30300000Y-99800000D03*
X28300000Y-99800000D03*
X75900000Y-99600000D03*
X73900000Y-99600000D03*
X45600000Y-99500000D03*
X43600000Y-99500000D03*
X91200000Y-99700000D03*
X89200000Y-99700000D03*
X60700000Y-99600000D03*
X58700000Y-99600000D03*
X48300000Y-110400000D03*
X50300000Y-110400000D03*
D13*
X36461250Y-49931750D03*
X36461250Y-51831750D03*
X36561250Y-64438750D03*
X36561250Y-66338750D03*
X51801250Y-49958750D03*
X51801250Y-51858750D03*
X51801250Y-64438750D03*
X51801250Y-66338750D03*
X67041250Y-64438750D03*
X67041250Y-66338750D03*
X82281250Y-49958750D03*
X82281250Y-51858750D03*
X82281250Y-64438750D03*
X82281250Y-66338750D03*
X97000000Y-106450000D03*
X97000000Y-108350000D03*
X97521250Y-49958750D03*
X97521250Y-51858750D03*
X97521250Y-64438750D03*
X97521250Y-66338750D03*
X32751250Y-37378750D03*
X32751250Y-35478750D03*
X36561250Y-35478750D03*
X36561250Y-37378750D03*
X32651250Y-51831750D03*
X32651250Y-49931750D03*
X32751250Y-66338750D03*
X32751250Y-64438750D03*
X32751250Y-80818750D03*
X32751250Y-78918750D03*
X36561250Y-78918750D03*
X36561250Y-80818750D03*
X40371250Y-35478750D03*
X40371250Y-37378750D03*
X40371250Y-49931750D03*
X40371250Y-51831750D03*
X40371250Y-64438750D03*
X40371250Y-66338750D03*
X40371250Y-78918750D03*
X40371250Y-80818750D03*
X51801250Y-35478750D03*
X51801250Y-37378750D03*
X47991250Y-37378750D03*
X47991250Y-35478750D03*
X47991250Y-51858750D03*
X47991250Y-49958750D03*
X47991250Y-66338750D03*
X47991250Y-64438750D03*
X47991250Y-80818750D03*
X47991250Y-78918750D03*
X51801250Y-78918750D03*
X51801250Y-80818750D03*
X55611250Y-35478750D03*
X55611250Y-37378750D03*
X55611250Y-49958750D03*
X55611250Y-51858750D03*
X55611250Y-64438750D03*
X55611250Y-66338750D03*
X55611250Y-78918750D03*
X55611250Y-80818750D03*
X67041250Y-35478750D03*
X67041250Y-37378750D03*
X63231250Y-37378750D03*
X63231250Y-35478750D03*
X63231250Y-51858750D03*
X63231250Y-49958750D03*
X63231250Y-66338750D03*
X63231250Y-64438750D03*
X63231250Y-80818750D03*
X63231250Y-78918750D03*
X67041250Y-78918750D03*
X67041250Y-80818750D03*
X70851250Y-35478750D03*
X70851250Y-37378750D03*
X70851250Y-49958750D03*
X70851250Y-51858750D03*
X70851250Y-64438750D03*
X70851250Y-66338750D03*
X70851250Y-78918750D03*
X70851250Y-80818750D03*
X82281250Y-35478750D03*
X82281250Y-37378750D03*
X78471250Y-37378750D03*
X78471250Y-35478750D03*
X78471250Y-51858750D03*
X78471250Y-49958750D03*
X78471250Y-66338750D03*
X78471250Y-64438750D03*
X78471250Y-80818750D03*
X78471250Y-78918750D03*
X82281250Y-78918750D03*
X82281250Y-80818750D03*
X86091250Y-35478750D03*
X86091250Y-37378750D03*
X86091250Y-49958750D03*
X86091250Y-51858750D03*
X86091250Y-64438750D03*
X86091250Y-66338750D03*
X86091250Y-78918750D03*
X86091250Y-80818750D03*
X93711250Y-37378750D03*
X93711250Y-35478750D03*
X97521250Y-35478750D03*
X97521250Y-37378750D03*
X93711250Y-51858750D03*
X93711250Y-49958750D03*
X93711250Y-66338750D03*
X93711250Y-64438750D03*
X93711250Y-80818750D03*
X93711250Y-78918750D03*
X97521250Y-78918750D03*
X97521250Y-80818750D03*
X101331250Y-35478750D03*
X101331250Y-37378750D03*
X101331250Y-49958750D03*
X101331250Y-51858750D03*
X101331250Y-64438750D03*
X101331250Y-66338750D03*
X101331250Y-78918750D03*
X101331250Y-80818750D03*
M02*
