G04 (created by PCBNEW (2013-07-07 BZR 4022)-stable) date 30/04/2014 12:22:51 PM*
%MOIN*%
G04 Gerber Fmt 3.4, Leading zero omitted, Abs format*
%FSLAX34Y34*%
G01*
G70*
G90*
G04 APERTURE LIST*
%ADD10C,0.00590551*%
%ADD11R,0.08X0.06*%
%ADD12R,0.06X0.08*%
%ADD13R,0.1476X0.1004*%
%ADD14R,0.02X0.045*%
%ADD15R,0.045X0.025*%
G04 APERTURE END LIST*
G54D10*
G54D11*
X10562Y-34837D03*
X10562Y-33537D03*
X36062Y-47537D03*
X36062Y-48837D03*
X34562Y-48837D03*
X34562Y-47537D03*
X33062Y-27837D03*
X33062Y-26537D03*
X27062Y-41837D03*
X27062Y-40537D03*
X30062Y-26537D03*
X30062Y-27837D03*
X30062Y-33537D03*
X30062Y-34837D03*
X27062Y-48837D03*
X27062Y-47537D03*
X24062Y-26537D03*
X24062Y-27837D03*
X24062Y-40537D03*
X24062Y-41837D03*
X24062Y-33537D03*
X24062Y-34837D03*
X22562Y-27837D03*
X22562Y-26537D03*
X36062Y-26537D03*
X36062Y-27837D03*
X36062Y-40587D03*
X36062Y-41887D03*
X36062Y-33537D03*
X36062Y-34837D03*
X34562Y-27837D03*
X34562Y-26537D03*
X28562Y-48837D03*
X28562Y-47537D03*
X33062Y-41887D03*
X33062Y-40587D03*
X33062Y-34837D03*
X33062Y-33537D03*
X30062Y-47537D03*
X30062Y-48837D03*
X33062Y-48837D03*
X33062Y-47537D03*
X12062Y-47537D03*
X12062Y-48837D03*
X10562Y-48837D03*
X10562Y-47537D03*
X12062Y-33537D03*
X12062Y-34837D03*
X9062Y-27837D03*
X9062Y-26537D03*
X9062Y-48837D03*
X9062Y-47537D03*
X9062Y-34837D03*
X9062Y-33537D03*
X10562Y-27837D03*
X10562Y-26537D03*
X12062Y-26537D03*
X12062Y-27837D03*
X15062Y-48837D03*
X15062Y-47537D03*
X18062Y-26537D03*
X18062Y-27837D03*
X16562Y-48837D03*
X16562Y-47537D03*
X18062Y-33537D03*
X18062Y-34837D03*
X15062Y-34837D03*
X15062Y-33537D03*
X15062Y-41837D03*
X15062Y-40537D03*
X15062Y-27837D03*
X15062Y-26537D03*
X9062Y-41837D03*
X9062Y-40537D03*
X21062Y-41837D03*
X21062Y-40537D03*
X21062Y-34837D03*
X21062Y-33537D03*
X21062Y-48837D03*
X21062Y-47537D03*
X27062Y-34837D03*
X27062Y-33537D03*
X30062Y-40537D03*
X30062Y-41837D03*
X28562Y-27837D03*
X28562Y-26537D03*
X27062Y-27837D03*
X27062Y-26537D03*
X22562Y-48837D03*
X22562Y-47537D03*
X24062Y-47537D03*
X24062Y-48837D03*
X21062Y-27837D03*
X21062Y-26537D03*
X18062Y-40537D03*
X18062Y-41837D03*
X18062Y-47537D03*
X18062Y-48837D03*
X16562Y-27837D03*
X16562Y-26537D03*
X12062Y-40537D03*
X12062Y-41837D03*
X22562Y-34837D03*
X22562Y-33537D03*
X22562Y-41837D03*
X22562Y-40537D03*
X28562Y-41837D03*
X28562Y-40537D03*
X28562Y-34837D03*
X28562Y-33537D03*
X34562Y-34837D03*
X34562Y-33537D03*
X34562Y-41887D03*
X34562Y-40587D03*
X10562Y-41837D03*
X10562Y-40537D03*
X16562Y-34837D03*
X16562Y-33537D03*
X16562Y-41837D03*
X16562Y-40537D03*
G54D12*
X24062Y-32187D03*
X23062Y-32187D03*
X22062Y-32187D03*
X21062Y-32187D03*
X21062Y-29187D03*
X22062Y-29187D03*
X23062Y-29187D03*
X24062Y-29187D03*
X36062Y-39187D03*
X35062Y-39187D03*
X34062Y-39187D03*
X33062Y-39187D03*
X33062Y-36187D03*
X34062Y-36187D03*
X35062Y-36187D03*
X36062Y-36187D03*
X12062Y-25187D03*
X11062Y-25187D03*
X10062Y-25187D03*
X9062Y-25187D03*
X9062Y-22187D03*
X10062Y-22187D03*
X11062Y-22187D03*
X12062Y-22187D03*
X24062Y-39187D03*
X23062Y-39187D03*
X22062Y-39187D03*
X21062Y-39187D03*
X21062Y-36187D03*
X22062Y-36187D03*
X23062Y-36187D03*
X24062Y-36187D03*
X12062Y-39187D03*
X11062Y-39187D03*
X10062Y-39187D03*
X9062Y-39187D03*
X9062Y-36187D03*
X10062Y-36187D03*
X11062Y-36187D03*
X12062Y-36187D03*
X30062Y-32187D03*
X29062Y-32187D03*
X28062Y-32187D03*
X27062Y-32187D03*
X27062Y-29187D03*
X28062Y-29187D03*
X29062Y-29187D03*
X30062Y-29187D03*
X30062Y-39187D03*
X29062Y-39187D03*
X28062Y-39187D03*
X27062Y-39187D03*
X27062Y-36187D03*
X28062Y-36187D03*
X29062Y-36187D03*
X30062Y-36187D03*
X36062Y-32187D03*
X35062Y-32187D03*
X34062Y-32187D03*
X33062Y-32187D03*
X33062Y-29187D03*
X34062Y-29187D03*
X35062Y-29187D03*
X36062Y-29187D03*
X36062Y-25187D03*
X35062Y-25187D03*
X34062Y-25187D03*
X33062Y-25187D03*
X33062Y-22187D03*
X34062Y-22187D03*
X35062Y-22187D03*
X36062Y-22187D03*
X12062Y-46187D03*
X11062Y-46187D03*
X10062Y-46187D03*
X9062Y-46187D03*
X9062Y-43187D03*
X10062Y-43187D03*
X11062Y-43187D03*
X12062Y-43187D03*
X30062Y-25187D03*
X29062Y-25187D03*
X28062Y-25187D03*
X27062Y-25187D03*
X27062Y-22187D03*
X28062Y-22187D03*
X29062Y-22187D03*
X30062Y-22187D03*
X36062Y-46187D03*
X35062Y-46187D03*
X34062Y-46187D03*
X33062Y-46187D03*
X33062Y-43187D03*
X34062Y-43187D03*
X35062Y-43187D03*
X36062Y-43187D03*
X18062Y-46187D03*
X17062Y-46187D03*
X16062Y-46187D03*
X15062Y-46187D03*
X15062Y-43187D03*
X16062Y-43187D03*
X17062Y-43187D03*
X18062Y-43187D03*
X24062Y-25187D03*
X23062Y-25187D03*
X22062Y-25187D03*
X21062Y-25187D03*
X21062Y-22187D03*
X22062Y-22187D03*
X23062Y-22187D03*
X24062Y-22187D03*
X18062Y-32187D03*
X17062Y-32187D03*
X16062Y-32187D03*
X15062Y-32187D03*
X15062Y-29187D03*
X16062Y-29187D03*
X17062Y-29187D03*
X18062Y-29187D03*
X24062Y-46187D03*
X23062Y-46187D03*
X22062Y-46187D03*
X21062Y-46187D03*
X21062Y-43187D03*
X22062Y-43187D03*
X23062Y-43187D03*
X24062Y-43187D03*
X12062Y-32187D03*
X11062Y-32187D03*
X10062Y-32187D03*
X9062Y-32187D03*
X9062Y-29187D03*
X10062Y-29187D03*
X11062Y-29187D03*
X12062Y-29187D03*
X18062Y-25187D03*
X17062Y-25187D03*
X16062Y-25187D03*
X15062Y-25187D03*
X15062Y-22187D03*
X16062Y-22187D03*
X17062Y-22187D03*
X18062Y-22187D03*
G54D13*
X9062Y-14849D03*
X9062Y-16975D03*
G54D12*
X30062Y-46187D03*
X29062Y-46187D03*
X28062Y-46187D03*
X27062Y-46187D03*
X27062Y-43187D03*
X28062Y-43187D03*
X29062Y-43187D03*
X30062Y-43187D03*
X18062Y-39187D03*
X17062Y-39187D03*
X16062Y-39187D03*
X15062Y-39187D03*
X15062Y-36187D03*
X16062Y-36187D03*
X17062Y-36187D03*
X18062Y-36187D03*
G54D14*
X18312Y-20787D03*
X17812Y-20787D03*
X17312Y-20787D03*
X16812Y-20787D03*
X16312Y-20787D03*
X15812Y-20787D03*
X15312Y-20787D03*
X14812Y-20787D03*
X14812Y-18787D03*
X15312Y-18787D03*
X15812Y-18787D03*
X16312Y-18787D03*
X16812Y-18787D03*
X17312Y-18787D03*
X17812Y-18787D03*
X18312Y-18787D03*
X24312Y-20787D03*
X23812Y-20787D03*
X23312Y-20787D03*
X22812Y-20787D03*
X22312Y-20787D03*
X21812Y-20787D03*
X21312Y-20787D03*
X20812Y-20787D03*
X20812Y-18787D03*
X21312Y-18787D03*
X21812Y-18787D03*
X22312Y-18787D03*
X22812Y-18787D03*
X23312Y-18787D03*
X23812Y-18787D03*
X24312Y-18787D03*
X30312Y-20787D03*
X29812Y-20787D03*
X29312Y-20787D03*
X28812Y-20787D03*
X28312Y-20787D03*
X27812Y-20787D03*
X27312Y-20787D03*
X26812Y-20787D03*
X26812Y-18787D03*
X27312Y-18787D03*
X27812Y-18787D03*
X28312Y-18787D03*
X28812Y-18787D03*
X29312Y-18787D03*
X29812Y-18787D03*
X30312Y-18787D03*
X36312Y-20737D03*
X35812Y-20737D03*
X35312Y-20737D03*
X34812Y-20737D03*
X34312Y-20737D03*
X33812Y-20737D03*
X33312Y-20737D03*
X32812Y-20737D03*
X32812Y-18737D03*
X33312Y-18737D03*
X33812Y-18737D03*
X34312Y-18737D03*
X34812Y-18737D03*
X35312Y-18737D03*
X35812Y-18737D03*
X36312Y-18737D03*
X12312Y-20787D03*
X11812Y-20787D03*
X11312Y-20787D03*
X10812Y-20787D03*
X10312Y-20787D03*
X9812Y-20787D03*
X9312Y-20787D03*
X8812Y-20787D03*
X8812Y-18787D03*
X9312Y-18787D03*
X9812Y-18787D03*
X10312Y-18787D03*
X10812Y-18787D03*
X11312Y-18787D03*
X11812Y-18787D03*
X12312Y-18787D03*
G54D15*
X20912Y-15187D03*
X20912Y-15787D03*
M02*
