G04 #@! TF.FileFunction,Soldermask,Top*
%FSLAX46Y46*%
G04 Gerber Fmt 4.6, Leading zero omitted, Abs format (unit mm)*
G04 Created by KiCad (PCBNEW 4.0.1-stable) date 9/27/2016 11:15:56 AM*
%MOMM*%
G01*
G04 APERTURE LIST*
%ADD10C,0.150000*%
%ADD11C,3.556000*%
%ADD12R,2.032000X2.032000*%
%ADD13C,2.032000*%
%ADD14C,4.572000*%
%ADD15R,4.257040X3.058160*%
%ADD16R,2.032000X2.540000*%
%ADD17O,2.108000X2.108000*%
%ADD18C,3.048000*%
%ADD19C,4.498340*%
%ADD20C,3.683000*%
%ADD21C,2.908000*%
%ADD22C,3.008000*%
%ADD23C,1.778000*%
%ADD24C,1.508760*%
%ADD25R,2.540000X2.540000*%
%ADD26O,2.540000X2.540000*%
%ADD27R,2.408000X2.408000*%
%ADD28O,2.408000X2.408000*%
%ADD29R,2.235200X2.540000*%
%ADD30O,2.235200X2.540000*%
%ADD31R,2.235200X2.235200*%
%ADD32O,2.235200X2.235200*%
%ADD33C,1.905000*%
%ADD34R,1.016000X1.651000*%
%ADD35C,1.930400*%
%ADD36R,1.508000X2.108000*%
%ADD37R,2.108000X1.508000*%
%ADD38R,2.105660X2.308860*%
%ADD39R,2.208000X1.408000*%
%ADD40R,1.408000X2.208000*%
G04 APERTURE END LIST*
D10*
D11*
X94519750Y-21050250D03*
X72675750Y-21050250D03*
D12*
X78517750Y-22828250D03*
D13*
X78517750Y-20288250D03*
X81057750Y-22828250D03*
X81057750Y-20288250D03*
X83597750Y-22828250D03*
X83597750Y-20288250D03*
X86137750Y-22828250D03*
X86137750Y-20288250D03*
X88677750Y-22828250D03*
X88677750Y-20288250D03*
D14*
X20320000Y-30480000D03*
X20320000Y-133350000D03*
X96520000Y-133350000D03*
X96520000Y-30480000D03*
D15*
X23018750Y-37717730D03*
X23018750Y-43117770D03*
D16*
X91598750Y-109696250D03*
X89058750Y-109696250D03*
X86518750Y-109696250D03*
X83978750Y-109696250D03*
X83978750Y-117316250D03*
X86518750Y-117316250D03*
X89058750Y-117316250D03*
X91598750Y-117316250D03*
X91598750Y-91916250D03*
X89058750Y-91916250D03*
X86518750Y-91916250D03*
X83978750Y-91916250D03*
X83978750Y-99536250D03*
X86518750Y-99536250D03*
X89058750Y-99536250D03*
X91598750Y-99536250D03*
X91598750Y-74136250D03*
X89058750Y-74136250D03*
X86518750Y-74136250D03*
X83978750Y-74136250D03*
X83978750Y-81756250D03*
X86518750Y-81756250D03*
X89058750Y-81756250D03*
X91598750Y-81756250D03*
X91598750Y-56356250D03*
X89058750Y-56356250D03*
X86518750Y-56356250D03*
X83978750Y-56356250D03*
X83978750Y-63976250D03*
X86518750Y-63976250D03*
X89058750Y-63976250D03*
X91598750Y-63976250D03*
X76358750Y-109696250D03*
X73818750Y-109696250D03*
X71278750Y-109696250D03*
X68738750Y-109696250D03*
X68738750Y-117316250D03*
X71278750Y-117316250D03*
X73818750Y-117316250D03*
X76358750Y-117316250D03*
X76358750Y-91916250D03*
X73818750Y-91916250D03*
X71278750Y-91916250D03*
X68738750Y-91916250D03*
X68738750Y-99536250D03*
X71278750Y-99536250D03*
X73818750Y-99536250D03*
X76358750Y-99536250D03*
X76358750Y-74136250D03*
X73818750Y-74136250D03*
X71278750Y-74136250D03*
X68738750Y-74136250D03*
X68738750Y-81756250D03*
X71278750Y-81756250D03*
X73818750Y-81756250D03*
X76358750Y-81756250D03*
X76358750Y-56356250D03*
X73818750Y-56356250D03*
X71278750Y-56356250D03*
X68738750Y-56356250D03*
X68738750Y-63976250D03*
X71278750Y-63976250D03*
X73818750Y-63976250D03*
X76358750Y-63976250D03*
X61118750Y-109696250D03*
X58578750Y-109696250D03*
X56038750Y-109696250D03*
X53498750Y-109696250D03*
X53498750Y-117316250D03*
X56038750Y-117316250D03*
X58578750Y-117316250D03*
X61118750Y-117316250D03*
X61118750Y-91916250D03*
X58578750Y-91916250D03*
X56038750Y-91916250D03*
X53498750Y-91916250D03*
X53498750Y-99536250D03*
X56038750Y-99536250D03*
X58578750Y-99536250D03*
X61118750Y-99536250D03*
X61118750Y-74136250D03*
X58578750Y-74136250D03*
X56038750Y-74136250D03*
X53498750Y-74136250D03*
X53498750Y-81756250D03*
X56038750Y-81756250D03*
X58578750Y-81756250D03*
X61118750Y-81756250D03*
X61118750Y-56356250D03*
X58578750Y-56356250D03*
X56038750Y-56356250D03*
X53498750Y-56356250D03*
X53498750Y-63976250D03*
X56038750Y-63976250D03*
X58578750Y-63976250D03*
X61118750Y-63976250D03*
X45878750Y-109696250D03*
X43338750Y-109696250D03*
X40798750Y-109696250D03*
X38258750Y-109696250D03*
X38258750Y-117316250D03*
X40798750Y-117316250D03*
X43338750Y-117316250D03*
X45878750Y-117316250D03*
X45878750Y-91916250D03*
X43338750Y-91916250D03*
X40798750Y-91916250D03*
X38258750Y-91916250D03*
X38258750Y-99536250D03*
X40798750Y-99536250D03*
X43338750Y-99536250D03*
X45878750Y-99536250D03*
X45878750Y-74136250D03*
X43338750Y-74136250D03*
X40798750Y-74136250D03*
X38258750Y-74136250D03*
X38258750Y-81756250D03*
X40798750Y-81756250D03*
X43338750Y-81756250D03*
X45878750Y-81756250D03*
X45878750Y-56356250D03*
X43338750Y-56356250D03*
X40798750Y-56356250D03*
X38258750Y-56356250D03*
X38258750Y-63976250D03*
X40798750Y-63976250D03*
X43338750Y-63976250D03*
X45878750Y-63976250D03*
X30638750Y-109696250D03*
X28098750Y-109696250D03*
X25558750Y-109696250D03*
X23018750Y-109696250D03*
X23018750Y-117316250D03*
X25558750Y-117316250D03*
X28098750Y-117316250D03*
X30638750Y-117316250D03*
X30638750Y-91916250D03*
X28098750Y-91916250D03*
X25558750Y-91916250D03*
X23018750Y-91916250D03*
X23018750Y-99536250D03*
X25558750Y-99536250D03*
X28098750Y-99536250D03*
X30638750Y-99536250D03*
X30638750Y-74136250D03*
X28098750Y-74136250D03*
X25558750Y-74136250D03*
X23018750Y-74136250D03*
X23018750Y-81756250D03*
X25558750Y-81756250D03*
X28098750Y-81756250D03*
X30638750Y-81756250D03*
X30638750Y-56356250D03*
X28098750Y-56356250D03*
X25558750Y-56356250D03*
X23018750Y-56356250D03*
X23018750Y-63976250D03*
X25558750Y-63976250D03*
X28098750Y-63976250D03*
X30638750Y-63976250D03*
D17*
X68075000Y-34950000D03*
X65535000Y-34950000D03*
X62995000Y-34950000D03*
X60455000Y-34950000D03*
X57915000Y-34950000D03*
X55375000Y-34950000D03*
X52835000Y-34950000D03*
X50295000Y-34950000D03*
X47755000Y-34950000D03*
X45215000Y-34950000D03*
X42675000Y-34950000D03*
X40135000Y-34950000D03*
X37595000Y-34950000D03*
X35055000Y-34950000D03*
X35055000Y-42570000D03*
X37595000Y-42570000D03*
X40135000Y-42570000D03*
X42675000Y-42570000D03*
X45215000Y-42570000D03*
X47755000Y-42570000D03*
X50295000Y-42570000D03*
X52835000Y-42570000D03*
X55375000Y-42570000D03*
X57915000Y-42570000D03*
X60455000Y-42570000D03*
X62995000Y-42570000D03*
X65535000Y-42570000D03*
X68075000Y-42570000D03*
D18*
X65817750Y-26638250D03*
X45497750Y-26638250D03*
D19*
X60737750Y-19018250D03*
D20*
X53117750Y-29178250D03*
X58197750Y-29178250D03*
X48037750Y-29178250D03*
X63277750Y-29178250D03*
D19*
X50577750Y-19018250D03*
D21*
X23907750Y-20288250D03*
D22*
X21367750Y-17748250D03*
X26447750Y-17748250D03*
X26447750Y-22828250D03*
X21367750Y-22828250D03*
D21*
X36607750Y-20288250D03*
D22*
X34067750Y-17748250D03*
X39147750Y-17748250D03*
X39147750Y-22828250D03*
X34067750Y-22828250D03*
D23*
X70834250Y-132302250D03*
X43529250Y-132302250D03*
D24*
X67976750Y-131667250D03*
X69246750Y-131667250D03*
X69246750Y-132937250D03*
X67976750Y-132937250D03*
X64166750Y-132937250D03*
X62896750Y-132937250D03*
X65436750Y-132937250D03*
X66706750Y-132937250D03*
X66706750Y-131667250D03*
X65436750Y-131667250D03*
X62896750Y-131667250D03*
X64166750Y-131667250D03*
X50196750Y-132937250D03*
X48926750Y-132937250D03*
X46386750Y-132937250D03*
X47656750Y-132937250D03*
X47656750Y-131667250D03*
X46386750Y-131667250D03*
X48926750Y-131667250D03*
X50196750Y-131667250D03*
X45116750Y-131667250D03*
X45116750Y-132937250D03*
X51466750Y-132937250D03*
X51466750Y-131667250D03*
X59086750Y-131667250D03*
X57816750Y-131667250D03*
X60356750Y-131667250D03*
X61626750Y-131667250D03*
X56546750Y-131667250D03*
X55276750Y-131667250D03*
X52736750Y-131667250D03*
X54006750Y-131667250D03*
X54006750Y-132937250D03*
X52736750Y-132937250D03*
X55276750Y-132937250D03*
X56546750Y-132937250D03*
X61626750Y-132937250D03*
X60356750Y-132937250D03*
X57816750Y-132937250D03*
X59086750Y-132937250D03*
D25*
X69450000Y-29025000D03*
D26*
X69450000Y-31565000D03*
D27*
X90025000Y-39625000D03*
D28*
X92565000Y-39625000D03*
D25*
X90050000Y-36725000D03*
D26*
X92590000Y-36725000D03*
D29*
X61975000Y-23450000D03*
D30*
X59435000Y-23450000D03*
X56895000Y-23450000D03*
X54355000Y-23450000D03*
X51815000Y-23450000D03*
X49275000Y-23450000D03*
D31*
X84850000Y-37450000D03*
D32*
X84850000Y-39990000D03*
X82310000Y-37450000D03*
X82310000Y-39990000D03*
X79770000Y-37450000D03*
X79770000Y-39990000D03*
D33*
X75497690Y-41893490D03*
X70996810Y-41893490D03*
X75497690Y-35894010D03*
X70996810Y-35894010D03*
D34*
X82804000Y-26162000D03*
X81534000Y-26162000D03*
X80264000Y-26162000D03*
X78994000Y-26162000D03*
X77724000Y-26162000D03*
X76454000Y-26162000D03*
X75184000Y-26162000D03*
X75184000Y-31496000D03*
X76454000Y-31496000D03*
X77724000Y-31496000D03*
X78994000Y-31496000D03*
X80264000Y-31496000D03*
X81534000Y-31496000D03*
X82804000Y-31496000D03*
D35*
X37877750Y-30448250D03*
X42957750Y-30448250D03*
D36*
X94512000Y-46609000D03*
X97512000Y-46609000D03*
D37*
X49758600Y-51789200D03*
X49758600Y-54789200D03*
D36*
X26440000Y-38862000D03*
X29440000Y-38862000D03*
X26440000Y-42291000D03*
X29440000Y-42291000D03*
D37*
X80225900Y-51814600D03*
X80225900Y-54814600D03*
X34556700Y-51751100D03*
X34556700Y-54751100D03*
X42494200Y-23493600D03*
X42494200Y-26493600D03*
X29972000Y-33631000D03*
X29972000Y-30631000D03*
X64871600Y-51789200D03*
X64871600Y-54789200D03*
D38*
X89258140Y-26035000D03*
X92097860Y-26035000D03*
X89258140Y-28575000D03*
X92097860Y-28575000D03*
X89258140Y-31115000D03*
X92097860Y-31115000D03*
X89258140Y-33655000D03*
X92097860Y-33655000D03*
D39*
X91598750Y-52726250D03*
X91598750Y-49826250D03*
X91598750Y-70506250D03*
X91598750Y-67606250D03*
X91598750Y-88286250D03*
X91598750Y-85386250D03*
X91598750Y-106193250D03*
X91598750Y-103293250D03*
X87788750Y-49826250D03*
X87788750Y-52726250D03*
X83978750Y-49826250D03*
X83978750Y-52726250D03*
X83978750Y-67606250D03*
X83978750Y-70506250D03*
X83978750Y-85386250D03*
X83978750Y-88286250D03*
X83978750Y-103293250D03*
X83978750Y-106193250D03*
X87788750Y-103293250D03*
X87788750Y-106193250D03*
X76358750Y-52726250D03*
X76358750Y-49826250D03*
X76358750Y-70506250D03*
X76358750Y-67606250D03*
X76358750Y-88286250D03*
X76358750Y-85386250D03*
X76358750Y-106066250D03*
X76358750Y-103166250D03*
X72548750Y-49826250D03*
X72548750Y-52726250D03*
X68738750Y-49826250D03*
X68738750Y-52726250D03*
X68738750Y-67606250D03*
X68738750Y-70506250D03*
X68738750Y-85386250D03*
X68738750Y-88286250D03*
X68738750Y-103166250D03*
X68738750Y-106066250D03*
X72548750Y-103166250D03*
X72548750Y-106066250D03*
X61118750Y-52726250D03*
X61118750Y-49826250D03*
X61118750Y-70506250D03*
X61118750Y-67606250D03*
X61118750Y-88286250D03*
X61118750Y-85386250D03*
X61118750Y-106066250D03*
X61118750Y-103166250D03*
X57308750Y-49826250D03*
X57308750Y-52726250D03*
X53498750Y-49826250D03*
X53498750Y-52726250D03*
X53498750Y-67606250D03*
X53498750Y-70506250D03*
X53498750Y-85386250D03*
X53498750Y-88286250D03*
X53498750Y-103166250D03*
X53498750Y-106066250D03*
X57308750Y-103166250D03*
X57308750Y-106066250D03*
X45878750Y-52726250D03*
X45878750Y-49826250D03*
X45878750Y-70506250D03*
X45878750Y-67606250D03*
X45878750Y-88286250D03*
X45878750Y-85386250D03*
X45878750Y-106066250D03*
X45878750Y-103166250D03*
D40*
X89799500Y-43688000D03*
X92699500Y-43688000D03*
D39*
X42068750Y-49826250D03*
X42068750Y-52726250D03*
X38258750Y-49826250D03*
X38258750Y-52726250D03*
X38258750Y-67606250D03*
X38258750Y-70506250D03*
X38258750Y-85386250D03*
X38258750Y-88286250D03*
X38258750Y-103166250D03*
X38258750Y-106066250D03*
X42068750Y-103166250D03*
X42068750Y-106066250D03*
X30638750Y-52726250D03*
X30638750Y-49826250D03*
X30638750Y-70506250D03*
X30638750Y-67606250D03*
X30638750Y-88286250D03*
X30638750Y-85386250D03*
X30638750Y-106066250D03*
X30638750Y-103166250D03*
X26828750Y-49826250D03*
X26828750Y-52726250D03*
X23018750Y-49826250D03*
X23018750Y-52726250D03*
X23018750Y-67606250D03*
X23018750Y-70506250D03*
X23018750Y-85386250D03*
X23018750Y-88286250D03*
X23018750Y-103166250D03*
X23018750Y-106066250D03*
X26828750Y-103166250D03*
X26828750Y-106066250D03*
X87788750Y-67606250D03*
X87788750Y-70506250D03*
X87788750Y-85386250D03*
X87788750Y-88286250D03*
X72548750Y-67606250D03*
X72548750Y-70506250D03*
X72550000Y-85375000D03*
X72550000Y-88275000D03*
X57308750Y-67606250D03*
X57308750Y-70506250D03*
X57308750Y-85386250D03*
X57308750Y-88286250D03*
D40*
X39327750Y-26638250D03*
X36427750Y-26638250D03*
D39*
X72644000Y-31803000D03*
X72644000Y-28903000D03*
X42068750Y-67606250D03*
X42068750Y-70506250D03*
X42068750Y-85386250D03*
X42068750Y-88286250D03*
X26828750Y-67606250D03*
X26828750Y-70506250D03*
X26828750Y-85386250D03*
X26828750Y-88286250D03*
M02*
