G04 (created by PCBNEW (2013-07-07 BZR 4022)-stable) date 08/05/2014 10:44:35 AM*
%MOIN*%
G04 Gerber Fmt 3.4, Leading zero omitted, Abs format*
%FSLAX34Y34*%
G01*
G70*
G90*
G04 APERTURE LIST*
%ADD10C,0.00590551*%
%ADD11C,0.18*%
%ADD12C,0.07*%
%ADD13C,0.0594*%
%ADD14C,0.14*%
%ADD15R,0.08X0.08*%
%ADD16C,0.08*%
%ADD17R,0.1X0.08*%
%ADD18R,0.08X0.1*%
%ADD19C,0.12*%
%ADD20C,0.1771*%
%ADD21C,0.145*%
%ADD22C,0.114488*%
%ADD23C,0.118425*%
%ADD24C,0.076*%
%ADD25C,0.075*%
%ADD26R,0.075X0.075*%
%ADD27R,0.1676X0.1204*%
%ADD28R,0.04X0.065*%
%ADD29R,0.0829X0.0909*%
G04 APERTURE END LIST*
G54D10*
G54D11*
X8000Y-12000D03*
X8000Y-52500D03*
X38000Y-52500D03*
X38000Y-12000D03*
G54D12*
X27887Y-52087D03*
X17137Y-52087D03*
G54D13*
X26762Y-51837D03*
X27262Y-51837D03*
X27262Y-52337D03*
X26762Y-52337D03*
X25262Y-52337D03*
X24762Y-52337D03*
X25762Y-52337D03*
X26262Y-52337D03*
X26262Y-51837D03*
X25762Y-51837D03*
X24762Y-51837D03*
X25262Y-51837D03*
X19762Y-52337D03*
X19262Y-52337D03*
X18262Y-52337D03*
X18762Y-52337D03*
X18762Y-51837D03*
X18262Y-51837D03*
X19262Y-51837D03*
X19762Y-51837D03*
X17762Y-51837D03*
X17762Y-52337D03*
X20262Y-52337D03*
X20262Y-51837D03*
X23262Y-51837D03*
X22762Y-51837D03*
X23762Y-51837D03*
X24262Y-51837D03*
X22262Y-51837D03*
X21762Y-51837D03*
X20762Y-51837D03*
X21262Y-51837D03*
X21262Y-52337D03*
X20762Y-52337D03*
X21762Y-52337D03*
X22262Y-52337D03*
X24262Y-52337D03*
X23762Y-52337D03*
X22762Y-52337D03*
X23262Y-52337D03*
G54D14*
X37212Y-8287D03*
X28612Y-8287D03*
G54D15*
X30912Y-8987D03*
G54D16*
X30912Y-7987D03*
X31912Y-8987D03*
X31912Y-7987D03*
X32912Y-8987D03*
X32912Y-7987D03*
X33912Y-8987D03*
X33912Y-7987D03*
X34912Y-8987D03*
X34912Y-7987D03*
G54D17*
X10562Y-19537D03*
X10562Y-20837D03*
X12062Y-27837D03*
X12062Y-26537D03*
X10562Y-40537D03*
X10562Y-41837D03*
X9062Y-40537D03*
X9062Y-41837D03*
X18062Y-27837D03*
X18062Y-26537D03*
X18062Y-34837D03*
X18062Y-33537D03*
X15062Y-40537D03*
X15062Y-41837D03*
X9062Y-26537D03*
X9062Y-27837D03*
X12062Y-41837D03*
X12062Y-40537D03*
X12062Y-34837D03*
X12062Y-33537D03*
X9062Y-19537D03*
X9062Y-20837D03*
X34562Y-33537D03*
X34562Y-34837D03*
X34562Y-26537D03*
X34562Y-27837D03*
X9062Y-33537D03*
X9062Y-34837D03*
X10562Y-26537D03*
X10562Y-27837D03*
X10562Y-33537D03*
X10562Y-34837D03*
X16562Y-33537D03*
X16562Y-34837D03*
X22562Y-33537D03*
X22562Y-34837D03*
X22562Y-26537D03*
X22562Y-27837D03*
X28562Y-26537D03*
X28562Y-27837D03*
X28562Y-33537D03*
X28562Y-34837D03*
X16562Y-26537D03*
X16562Y-27837D03*
X22562Y-19537D03*
X22562Y-20837D03*
X21062Y-40537D03*
X21062Y-41837D03*
X30062Y-34837D03*
X30062Y-33537D03*
X30062Y-27837D03*
X30062Y-26537D03*
X30062Y-20837D03*
X30062Y-19537D03*
X33062Y-19537D03*
X33062Y-20837D03*
X36062Y-41887D03*
X36062Y-40587D03*
X33062Y-26537D03*
X33062Y-27837D03*
X34562Y-40587D03*
X34562Y-41887D03*
X27062Y-26537D03*
X27062Y-27837D03*
X27062Y-33537D03*
X27062Y-34837D03*
X24062Y-20837D03*
X24062Y-19537D03*
X24062Y-34837D03*
X24062Y-33537D03*
X28562Y-40537D03*
X28562Y-41837D03*
X27062Y-40537D03*
X27062Y-41837D03*
X24062Y-27837D03*
X24062Y-26537D03*
X27062Y-19537D03*
X27062Y-20837D03*
X30062Y-41837D03*
X30062Y-40537D03*
X28562Y-19537D03*
X28562Y-20837D03*
X33062Y-33537D03*
X33062Y-34837D03*
X34562Y-19537D03*
X34562Y-20837D03*
X33062Y-40587D03*
X33062Y-41887D03*
X36062Y-34837D03*
X36062Y-33537D03*
X36062Y-20837D03*
X36062Y-19537D03*
X36062Y-27837D03*
X36062Y-26537D03*
X16562Y-40537D03*
X16562Y-41837D03*
X15062Y-19537D03*
X15062Y-20837D03*
X12062Y-20837D03*
X12062Y-19537D03*
X22562Y-40537D03*
X22562Y-41837D03*
X21062Y-26537D03*
X21062Y-27837D03*
X15062Y-33537D03*
X15062Y-34837D03*
X15062Y-26537D03*
X15062Y-27837D03*
X16562Y-19537D03*
X16562Y-20837D03*
X24062Y-41837D03*
X24062Y-40537D03*
X21062Y-33537D03*
X21062Y-34837D03*
X21062Y-19537D03*
X21062Y-20837D03*
X18062Y-20837D03*
X18062Y-19537D03*
X18062Y-41837D03*
X18062Y-40537D03*
G54D18*
X18062Y-22187D03*
X17062Y-22187D03*
X16062Y-22187D03*
X15062Y-22187D03*
X15062Y-25187D03*
X16062Y-25187D03*
X17062Y-25187D03*
X18062Y-25187D03*
X12062Y-36187D03*
X11062Y-36187D03*
X10062Y-36187D03*
X9062Y-36187D03*
X9062Y-39187D03*
X10062Y-39187D03*
X11062Y-39187D03*
X12062Y-39187D03*
X24062Y-43187D03*
X23062Y-43187D03*
X22062Y-43187D03*
X21062Y-43187D03*
X21062Y-46187D03*
X22062Y-46187D03*
X23062Y-46187D03*
X24062Y-46187D03*
X30062Y-22187D03*
X29062Y-22187D03*
X28062Y-22187D03*
X27062Y-22187D03*
X27062Y-25187D03*
X28062Y-25187D03*
X29062Y-25187D03*
X30062Y-25187D03*
X24062Y-22187D03*
X23062Y-22187D03*
X22062Y-22187D03*
X21062Y-22187D03*
X21062Y-25187D03*
X22062Y-25187D03*
X23062Y-25187D03*
X24062Y-25187D03*
X12062Y-29187D03*
X11062Y-29187D03*
X10062Y-29187D03*
X9062Y-29187D03*
X9062Y-32187D03*
X10062Y-32187D03*
X11062Y-32187D03*
X12062Y-32187D03*
X24062Y-36187D03*
X23062Y-36187D03*
X22062Y-36187D03*
X21062Y-36187D03*
X21062Y-39187D03*
X22062Y-39187D03*
X23062Y-39187D03*
X24062Y-39187D03*
X12062Y-22187D03*
X11062Y-22187D03*
X10062Y-22187D03*
X9062Y-22187D03*
X9062Y-25187D03*
X10062Y-25187D03*
X11062Y-25187D03*
X12062Y-25187D03*
X30062Y-36187D03*
X29062Y-36187D03*
X28062Y-36187D03*
X27062Y-36187D03*
X27062Y-39187D03*
X28062Y-39187D03*
X29062Y-39187D03*
X30062Y-39187D03*
X30062Y-43187D03*
X29062Y-43187D03*
X28062Y-43187D03*
X27062Y-43187D03*
X27062Y-46187D03*
X28062Y-46187D03*
X29062Y-46187D03*
X30062Y-46187D03*
X36062Y-43187D03*
X35062Y-43187D03*
X34062Y-43187D03*
X33062Y-43187D03*
X33062Y-46187D03*
X34062Y-46187D03*
X35062Y-46187D03*
X36062Y-46187D03*
X30062Y-29187D03*
X29062Y-29187D03*
X28062Y-29187D03*
X27062Y-29187D03*
X27062Y-32187D03*
X28062Y-32187D03*
X29062Y-32187D03*
X30062Y-32187D03*
X18062Y-36187D03*
X17062Y-36187D03*
X16062Y-36187D03*
X15062Y-36187D03*
X15062Y-39187D03*
X16062Y-39187D03*
X17062Y-39187D03*
X18062Y-39187D03*
X36062Y-22187D03*
X35062Y-22187D03*
X34062Y-22187D03*
X33062Y-22187D03*
X33062Y-25187D03*
X34062Y-25187D03*
X35062Y-25187D03*
X36062Y-25187D03*
X18062Y-29187D03*
X17062Y-29187D03*
X16062Y-29187D03*
X15062Y-29187D03*
X15062Y-32187D03*
X16062Y-32187D03*
X17062Y-32187D03*
X18062Y-32187D03*
X36062Y-29187D03*
X35062Y-29187D03*
X34062Y-29187D03*
X33062Y-29187D03*
X33062Y-32187D03*
X34062Y-32187D03*
X35062Y-32187D03*
X36062Y-32187D03*
X18062Y-43187D03*
X17062Y-43187D03*
X16062Y-43187D03*
X15062Y-43187D03*
X15062Y-46187D03*
X16062Y-46187D03*
X17062Y-46187D03*
X18062Y-46187D03*
X36062Y-36187D03*
X35062Y-36187D03*
X34062Y-36187D03*
X33062Y-36187D03*
X33062Y-39187D03*
X34062Y-39187D03*
X35062Y-39187D03*
X36062Y-39187D03*
X24062Y-29187D03*
X23062Y-29187D03*
X22062Y-29187D03*
X21062Y-29187D03*
X21062Y-32187D03*
X22062Y-32187D03*
X23062Y-32187D03*
X24062Y-32187D03*
X12062Y-43187D03*
X11062Y-43187D03*
X10062Y-43187D03*
X9062Y-43187D03*
X9062Y-46187D03*
X10062Y-46187D03*
X11062Y-46187D03*
X12062Y-46187D03*
G54D19*
X25912Y-10487D03*
X17912Y-10487D03*
G54D20*
X23912Y-7487D03*
G54D21*
X20912Y-11487D03*
X22912Y-11487D03*
X18912Y-11487D03*
X24912Y-11487D03*
G54D20*
X19912Y-7487D03*
G54D22*
X14412Y-7987D03*
G54D23*
X13412Y-6987D03*
X15412Y-6987D03*
X15412Y-8987D03*
X13412Y-8987D03*
G54D22*
X9412Y-7987D03*
G54D23*
X8412Y-6987D03*
X10412Y-6987D03*
X10412Y-8987D03*
X8412Y-8987D03*
G54D18*
X15562Y-10487D03*
X14262Y-10487D03*
X35275Y-17200D03*
X36575Y-17200D03*
G54D15*
X31400Y-15750D03*
G54D16*
X31400Y-14750D03*
X32400Y-15750D03*
X32400Y-14750D03*
X33400Y-15750D03*
X33400Y-14750D03*
G54D15*
X19400Y-9200D03*
G54D16*
X20400Y-9200D03*
X21400Y-9200D03*
X22400Y-9200D03*
X23400Y-9200D03*
X24400Y-9200D03*
G54D24*
X13912Y-11987D03*
X15912Y-11987D03*
G54D25*
X25812Y-13762D03*
X24812Y-13762D03*
X23812Y-13762D03*
X22812Y-13762D03*
X21812Y-13762D03*
X20812Y-13762D03*
X19812Y-13762D03*
X18812Y-13762D03*
X17812Y-13762D03*
X16812Y-13762D03*
X15812Y-13762D03*
X14812Y-13762D03*
X13812Y-13762D03*
G54D26*
X26812Y-13762D03*
G54D25*
X13812Y-16762D03*
X14812Y-16762D03*
X15812Y-16762D03*
X16812Y-16762D03*
X17812Y-16762D03*
X18812Y-16762D03*
X19812Y-16762D03*
X20812Y-16762D03*
X21812Y-16762D03*
X22812Y-16762D03*
X23812Y-16762D03*
X24812Y-16762D03*
X25812Y-16762D03*
X26812Y-16762D03*
G54D27*
X9062Y-14849D03*
X9062Y-16975D03*
G54D15*
X27350Y-11450D03*
G54D16*
X27350Y-12450D03*
G54D15*
X35450Y-15600D03*
G54D16*
X36450Y-15600D03*
G54D28*
X32600Y-10300D03*
X32100Y-10300D03*
X31600Y-10300D03*
X31100Y-10300D03*
X30600Y-10300D03*
X30100Y-10300D03*
X29600Y-10300D03*
X29600Y-12400D03*
X30100Y-12400D03*
X30600Y-12400D03*
X31100Y-12400D03*
X31600Y-12400D03*
X32100Y-12400D03*
X32600Y-12400D03*
G54D17*
X28600Y-12600D03*
X28600Y-11300D03*
G54D15*
X35450Y-14450D03*
G54D16*
X36450Y-14450D03*
G54D29*
X36259Y-11250D03*
X35141Y-11250D03*
X36259Y-12250D03*
X35141Y-12250D03*
G54D17*
X16730Y-9190D03*
X16730Y-10490D03*
X19590Y-20330D03*
X19590Y-21630D03*
X11800Y-13300D03*
X11800Y-12000D03*
G54D18*
X10350Y-16650D03*
X11650Y-16650D03*
X37150Y-18350D03*
X38450Y-18350D03*
G54D17*
X31585Y-20340D03*
X31585Y-21640D03*
G54D18*
X10350Y-15300D03*
X11650Y-15300D03*
G54D17*
X25540Y-20330D03*
X25540Y-21630D03*
X13605Y-20315D03*
X13605Y-21615D03*
G54D25*
X29723Y-16493D03*
X27951Y-16493D03*
X29723Y-14131D03*
X27951Y-14131D03*
G54D29*
X36259Y-13250D03*
X35141Y-13250D03*
X36259Y-10250D03*
X35141Y-10250D03*
M02*
