G04 (created by PCBNEW (2013-07-07 BZR 4022)-stable) date 28/01/2014 3:52:00 PM*
%MOIN*%
G04 Gerber Fmt 3.4, Leading zero omitted, Abs format*
%FSLAX34Y34*%
G01*
G70*
G90*
G04 APERTURE LIST*
%ADD10C,0.00590551*%
%ADD11R,0.06X0.08*%
%ADD12R,0.08X0.06*%
%ADD13R,0.045X0.025*%
%ADD14R,0.0709X0.0629*%
%ADD15R,0.1004X0.1476*%
%ADD16R,0.0098X0.0591*%
%ADD17R,0.05X0.03*%
G04 APERTURE END LIST*
G54D10*
G54D11*
X30050Y-39850D03*
X31350Y-39850D03*
X38350Y-38350D03*
X37050Y-38350D03*
X51050Y-39850D03*
X52350Y-39850D03*
X51050Y-41350D03*
X52350Y-41350D03*
X38350Y-31350D03*
X37050Y-31350D03*
X45350Y-31350D03*
X44050Y-31350D03*
X51050Y-34350D03*
X52350Y-34350D03*
X37050Y-41350D03*
X38350Y-41350D03*
X52350Y-38350D03*
X51050Y-38350D03*
X45350Y-38350D03*
X44050Y-38350D03*
X30050Y-41350D03*
X31350Y-41350D03*
X44050Y-11850D03*
X45350Y-11850D03*
X37050Y-11850D03*
X38350Y-11850D03*
X44050Y-41350D03*
X45350Y-41350D03*
X37050Y-39850D03*
X38350Y-39850D03*
X44050Y-39850D03*
X45350Y-39850D03*
X44050Y-32850D03*
X45350Y-32850D03*
X44050Y-25850D03*
X45350Y-25850D03*
X37050Y-25850D03*
X38350Y-25850D03*
X37050Y-18850D03*
X38350Y-18850D03*
X44050Y-18850D03*
X45350Y-18850D03*
X37050Y-32850D03*
X38350Y-32850D03*
X30050Y-25850D03*
X31350Y-25850D03*
X51050Y-27350D03*
X52350Y-27350D03*
X45350Y-17350D03*
X44050Y-17350D03*
X38350Y-17350D03*
X37050Y-17350D03*
X31350Y-17350D03*
X30050Y-17350D03*
X30050Y-13350D03*
X31350Y-13350D03*
X52400Y-10350D03*
X51100Y-10350D03*
X37050Y-13350D03*
X38350Y-13350D03*
X51100Y-11850D03*
X52400Y-11850D03*
X37050Y-20350D03*
X38350Y-20350D03*
X44050Y-20350D03*
X45350Y-20350D03*
X31350Y-24350D03*
X30050Y-24350D03*
X45350Y-24350D03*
X44050Y-24350D03*
X51050Y-18850D03*
X52350Y-18850D03*
X51050Y-20350D03*
X52350Y-20350D03*
X38350Y-24350D03*
X37050Y-24350D03*
X30050Y-20350D03*
X31350Y-20350D03*
X52350Y-17350D03*
X51050Y-17350D03*
X30050Y-18850D03*
X31350Y-18850D03*
X44050Y-13350D03*
X45350Y-13350D03*
X30050Y-11850D03*
X31350Y-11850D03*
X51100Y-13350D03*
X52400Y-13350D03*
X45350Y-10350D03*
X44050Y-10350D03*
X31350Y-10350D03*
X30050Y-10350D03*
X38350Y-10350D03*
X37050Y-10350D03*
X51050Y-32850D03*
X52350Y-32850D03*
X30050Y-34350D03*
X31350Y-34350D03*
X31350Y-38350D03*
X30050Y-38350D03*
G54D12*
X21155Y-16855D03*
X21155Y-18155D03*
G54D11*
X51050Y-25850D03*
X52350Y-25850D03*
X37050Y-27350D03*
X38350Y-27350D03*
X44050Y-34350D03*
X45350Y-34350D03*
X37050Y-34350D03*
X38350Y-34350D03*
X30050Y-32850D03*
X31350Y-32850D03*
X52350Y-24350D03*
X51050Y-24350D03*
X44050Y-27350D03*
X45350Y-27350D03*
X30050Y-27350D03*
X31350Y-27350D03*
X31350Y-31350D03*
X30050Y-31350D03*
X52350Y-31350D03*
X51050Y-31350D03*
G54D13*
X20962Y-8895D03*
X20962Y-9495D03*
X21862Y-8895D03*
X21862Y-9495D03*
G54D14*
X21155Y-19096D03*
X21155Y-20214D03*
G54D12*
X32700Y-31350D03*
X32700Y-32350D03*
X32700Y-33350D03*
X32700Y-34350D03*
X35700Y-34350D03*
X35700Y-33350D03*
X35700Y-32350D03*
X35700Y-31350D03*
X46700Y-38350D03*
X46700Y-39350D03*
X46700Y-40350D03*
X46700Y-41350D03*
X49700Y-41350D03*
X49700Y-40350D03*
X49700Y-39350D03*
X49700Y-38350D03*
X53700Y-24350D03*
X53700Y-25350D03*
X53700Y-26350D03*
X53700Y-27350D03*
X56700Y-27350D03*
X56700Y-26350D03*
X56700Y-25350D03*
X56700Y-24350D03*
X32700Y-17350D03*
X32700Y-18350D03*
X32700Y-19350D03*
X32700Y-20350D03*
X35700Y-20350D03*
X35700Y-19350D03*
X35700Y-18350D03*
X35700Y-17350D03*
X32700Y-24350D03*
X32700Y-25350D03*
X32700Y-26350D03*
X32700Y-27350D03*
X35700Y-27350D03*
X35700Y-26350D03*
X35700Y-25350D03*
X35700Y-24350D03*
X39700Y-38350D03*
X39700Y-39350D03*
X39700Y-40350D03*
X39700Y-41350D03*
X42700Y-41350D03*
X42700Y-40350D03*
X42700Y-39350D03*
X42700Y-38350D03*
X46700Y-24350D03*
X46700Y-25350D03*
X46700Y-26350D03*
X46700Y-27350D03*
X49700Y-27350D03*
X49700Y-26350D03*
X49700Y-25350D03*
X49700Y-24350D03*
X32700Y-38350D03*
X32700Y-39350D03*
X32700Y-40350D03*
X32700Y-41350D03*
X35700Y-41350D03*
X35700Y-40350D03*
X35700Y-39350D03*
X35700Y-38350D03*
X46700Y-17350D03*
X46700Y-18350D03*
X46700Y-19350D03*
X46700Y-20350D03*
X49700Y-20350D03*
X49700Y-19350D03*
X49700Y-18350D03*
X49700Y-17350D03*
X53700Y-17350D03*
X53700Y-18350D03*
X53700Y-19350D03*
X53700Y-20350D03*
X56700Y-20350D03*
X56700Y-19350D03*
X56700Y-18350D03*
X56700Y-17350D03*
X53700Y-10350D03*
X53700Y-11350D03*
X53700Y-12350D03*
X53700Y-13350D03*
X56700Y-13350D03*
X56700Y-12350D03*
X56700Y-11350D03*
X56700Y-10350D03*
X39700Y-17350D03*
X39700Y-18350D03*
X39700Y-19350D03*
X39700Y-20350D03*
X42700Y-20350D03*
X42700Y-19350D03*
X42700Y-18350D03*
X42700Y-17350D03*
X46700Y-31350D03*
X46700Y-32350D03*
X46700Y-33350D03*
X46700Y-34350D03*
X49700Y-34350D03*
X49700Y-33350D03*
X49700Y-32350D03*
X49700Y-31350D03*
X32700Y-10350D03*
X32700Y-11350D03*
X32700Y-12350D03*
X32700Y-13350D03*
X35700Y-13350D03*
X35700Y-12350D03*
X35700Y-11350D03*
X35700Y-10350D03*
X39700Y-31350D03*
X39700Y-32350D03*
X39700Y-33350D03*
X39700Y-34350D03*
X42700Y-34350D03*
X42700Y-33350D03*
X42700Y-32350D03*
X42700Y-31350D03*
X39700Y-10350D03*
X39700Y-11350D03*
X39700Y-12350D03*
X39700Y-13350D03*
X42700Y-13350D03*
X42700Y-12350D03*
X42700Y-11350D03*
X42700Y-10350D03*
X53700Y-31350D03*
X53700Y-32350D03*
X53700Y-33350D03*
X53700Y-34350D03*
X56700Y-34350D03*
X56700Y-33350D03*
X56700Y-32350D03*
X56700Y-31350D03*
G54D15*
X23042Y-9255D03*
X25168Y-9255D03*
G54D12*
X46700Y-10350D03*
X46700Y-11350D03*
X46700Y-12350D03*
X46700Y-13350D03*
X49700Y-13350D03*
X49700Y-12350D03*
X49700Y-11350D03*
X49700Y-10350D03*
X39700Y-24350D03*
X39700Y-25350D03*
X39700Y-26350D03*
X39700Y-27350D03*
X42700Y-27350D03*
X42700Y-26350D03*
X42700Y-25350D03*
X42700Y-24350D03*
G54D16*
X26362Y-23479D03*
X26165Y-23479D03*
X25968Y-23479D03*
X25772Y-23479D03*
X25575Y-23479D03*
X25378Y-23479D03*
X25181Y-23479D03*
X24984Y-23479D03*
X24787Y-23479D03*
X24590Y-23479D03*
X24394Y-23479D03*
X24197Y-23479D03*
X24000Y-23479D03*
X23803Y-23479D03*
X23606Y-23479D03*
X23409Y-23479D03*
X23212Y-23479D03*
X23016Y-23479D03*
X22819Y-23479D03*
X22622Y-23479D03*
X22425Y-23479D03*
X22228Y-23479D03*
X22031Y-23479D03*
X21834Y-23479D03*
X21638Y-23479D03*
X21441Y-23479D03*
X21244Y-23479D03*
X21047Y-23479D03*
X21048Y-26431D03*
X21244Y-26431D03*
X21441Y-26431D03*
X21638Y-26431D03*
X21835Y-26431D03*
X22032Y-26431D03*
X22229Y-26431D03*
X22425Y-26431D03*
X22622Y-26431D03*
X22819Y-26431D03*
X23016Y-26431D03*
X23213Y-26431D03*
X23410Y-26431D03*
X23607Y-26431D03*
X23803Y-26431D03*
X24000Y-26431D03*
X24197Y-26431D03*
X24394Y-26431D03*
X24591Y-26431D03*
X24788Y-26431D03*
X24985Y-26431D03*
X25181Y-26431D03*
X25378Y-26431D03*
X25575Y-26431D03*
X25772Y-26431D03*
X25969Y-26431D03*
X26166Y-26431D03*
X26362Y-26431D03*
G54D12*
X53700Y-38350D03*
X53700Y-39350D03*
X53700Y-40350D03*
X53700Y-41350D03*
X56700Y-41350D03*
X56700Y-40350D03*
X56700Y-39350D03*
X56700Y-38350D03*
G54D17*
X22155Y-10705D03*
X22155Y-11205D03*
X25155Y-11205D03*
X25155Y-10705D03*
X22155Y-12205D03*
X22155Y-11705D03*
X22155Y-14205D03*
X22155Y-13705D03*
X22155Y-13205D03*
X22155Y-12705D03*
X25155Y-11705D03*
X25155Y-12205D03*
X25155Y-14205D03*
X25155Y-13705D03*
X25155Y-13205D03*
X25155Y-12705D03*
X22155Y-16205D03*
X22155Y-15705D03*
X22155Y-15205D03*
X22155Y-14705D03*
X25155Y-14705D03*
X25155Y-15205D03*
X25155Y-15705D03*
X25155Y-16205D03*
M02*
