M48
;DRILL file {KiCad 4.0.1-stable} date 2016-11-30 11:41:36 PM
;FORMAT={2:4/ absolute / inch / suppress leading zeros}
FMAT,2
INCH,TZ
T1C0.015
T2C0.039
T3C0.040
T4C0.120
%
G90
G05
M72
T1
X10630Y-50591
X10748Y-27923
X11437Y-48051
X11598Y-47508
X11624Y-47008
X11978Y-46634
X12047Y-43898
X12165Y-38307
X12244Y-32559
X12283Y-44252
X12323Y-32953
X12362Y-27244
X12362Y-38622
X12375Y-26853
X12638Y-45669
X12677Y-27717
X12677Y-28583
X12677Y-33346
X12677Y-34291
X12677Y-39094
X12677Y-40039
X12677Y-44646
X12915Y-22358
X13236Y-47740
X13340Y-23583
X13356Y-50679
X13386Y-36693
X13386Y-42362
X13412Y-21855
X13425Y-30965
X13701Y-24421
X13858Y-18268
X13912Y-21605
X14155Y-26773
X14165Y-25408
X14165Y-29858
X14165Y-35554
X14165Y-41249
X14173Y-27205
X14173Y-31339
X14173Y-32480
X14173Y-32953
X14173Y-34409
X14173Y-37047
X14173Y-38268
X14173Y-38661
X14173Y-40118
X14173Y-42756
X14173Y-43898
X14173Y-44252
X14173Y-45827
X14173Y-46890
X14175Y-28713
X14412Y-22105
X14654Y-24445
X14865Y-23583
X14882Y-35930
X14882Y-47362
X14915Y-21358
X14921Y-30229
X14921Y-41630
X15669Y-44961
X15709Y-19685
X15866Y-33701
X15866Y-34291
X15906Y-39409
X15906Y-40039
X15915Y-35559
X16181Y-41220
X16181Y-46890
X16260Y-29724
X16290Y-24833
X16339Y-28110
X16339Y-29213
X16382Y-24390
X16437Y-48543
X16630Y-24142
X16890Y-48268
X17323Y-47972
X18040Y-24833
X18065Y-21358
X18110Y-43937
X18189Y-32913
X18307Y-44252
X18346Y-27244
X18346Y-38661
X18355Y-32574
X18375Y-26853
X18375Y-38294
X18377Y-25445
X18661Y-27717
X18661Y-28583
X18661Y-34291
X18661Y-40039
X18661Y-45709
X18665Y-33346
X18665Y-39094
X18665Y-44646
X18890Y-22358
X19283Y-47705
X19290Y-23483
X19409Y-36693
X19409Y-42402
X19412Y-21855
X19449Y-30984
X19713Y-24382
X19912Y-21605
X20155Y-38234
X20157Y-31339
X20157Y-32913
X20157Y-34409
X20157Y-37047
X20157Y-38661
X20157Y-40118
X20157Y-43937
X20157Y-44291
X20157Y-45827
X20165Y-25408
X20165Y-29808
X20165Y-35509
X20165Y-46929
X20175Y-26773
X20175Y-28713
X20175Y-32494
X20197Y-27244
X20197Y-41220
X20197Y-42756
X20412Y-22105
X20661Y-24441
X20882Y-47303
X20890Y-23583
X20906Y-41630
X20915Y-21333
X20945Y-30236
X20945Y-35930
X21654Y-44961
X21850Y-33701
X21850Y-34291
X21915Y-29858
X21929Y-39409
X21929Y-40039
X22087Y-35511
X22126Y-46890
X22205Y-41220
X22290Y-24833
X22293Y-50650
X22323Y-28110
X22323Y-29094
X22362Y-24413
X22461Y-48642
X22614Y-24138
X23494Y-51250
X24015Y-24833
X24213Y-32913
X24213Y-43976
X24290Y-21333
X24331Y-38307
X24331Y-38701
X24355Y-26873
X24355Y-32574
X24370Y-27244
X24370Y-44291
X24646Y-33346
X24646Y-34291
X24646Y-39094
X24646Y-40000
X24646Y-44646
X24646Y-45709
X24665Y-27717
X24685Y-28583
X24915Y-22358
X25290Y-23608
X25327Y-47697
X25394Y-42362
X25394Y-49744
X25412Y-21855
X25413Y-30984
X25433Y-36693
X25760Y-24283
X25915Y-21608
X25945Y-49587
X26142Y-32913
X26142Y-34370
X26155Y-26773
X26165Y-25408
X26165Y-29813
X26165Y-35472
X26165Y-46929
X26175Y-32474
X26181Y-27205
X26181Y-31339
X26181Y-37047
X26181Y-38189
X26181Y-38701
X26181Y-40157
X26181Y-41181
X26181Y-42756
X26181Y-43898
X26181Y-44291
X26181Y-45827
X26195Y-28673
X26412Y-22105
X26457Y-49488
X26646Y-24417
X26815Y-47307
X26840Y-23583
X26890Y-35930
X26915Y-21358
X26929Y-30229
X26929Y-41630
X26988Y-49528
X27559Y-48839
X27665Y-44961
X27815Y-49311
X27913Y-39409
X27913Y-40039
X27915Y-29873
X28071Y-46929
X28189Y-35472
X28189Y-41220
X28307Y-33701
X28307Y-34921
X28315Y-24833
X28346Y-28110
X28346Y-29094
X28575Y-24559
X28594Y-24193
X29449Y-48642
X29685Y-20748
X29705Y-49094
X29724Y-18425
X29921Y-26969
X29961Y-18071
X29965Y-24833
X30000Y-21063
X30020Y-49488
X30079Y-32480
X30157Y-32874
X30276Y-17165
X30276Y-19370
X30276Y-38268
X30276Y-43976
X30315Y-27087
X30315Y-38622
X30335Y-49902
X30354Y-44331
X30415Y-21333
X30650Y-50295
X30665Y-33346
X30665Y-39094
X30665Y-44646
X30669Y-27717
X30669Y-28583
X30669Y-34291
X30669Y-40039
X30669Y-45709
X30915Y-22358
X30965Y-50689
X31256Y-47697
X31365Y-23583
X31378Y-36693
X31415Y-21858
X31417Y-30984
X31417Y-42402
X31669Y-24457
X31693Y-20906
X31850Y-19685
X31915Y-21608
X32155Y-26793
X32155Y-35574
X32165Y-41274
X32165Y-46929
X32165Y-18780
X32165Y-25236
X32165Y-27126
X32165Y-31339
X32165Y-32480
X32165Y-32913
X32165Y-34409
X32165Y-37047
X32165Y-38228
X32165Y-38661
X32165Y-40157
X32165Y-42756
X32165Y-43937
X32165Y-44331
X32165Y-45787
X32175Y-28693
X32175Y-29873
X32244Y-21339
X32407Y-22110
X32669Y-24453
X32795Y-19606
X32795Y-20984
X32846Y-47335
X32874Y-41630
X32913Y-30229
X32913Y-35925
X32915Y-23583
X33425Y-17520
X33665Y-44961
X33740Y-20984
X33915Y-29858
X33915Y-35584
X33937Y-39409
X33937Y-40039
X34094Y-41260
X34094Y-46929
X34173Y-28110
X34173Y-29173
X34213Y-33701
X34213Y-34843
X34290Y-24833
X34565Y-23833
X34697Y-24394
X34961Y-18740
X34990Y-22033
X35236Y-21732
X35787Y-43898
X35827Y-32638
X35840Y-22658
X35866Y-18465
X35906Y-44213
X36040Y-24833
X36043Y-33012
X36355Y-26933
X36355Y-38334
X36378Y-27323
X36378Y-38740
X36654Y-28622
X36654Y-33346
X36654Y-34291
X36654Y-39094
X36654Y-40039
X36654Y-44646
X36654Y-45709
X36665Y-27717
X36969Y-17480
X36990Y-21433
X37205Y-47697
X37265Y-21183
X37362Y-36654
X37402Y-30984
X37402Y-42402
X37415Y-23583
X37559Y-16575
X38051Y-24240
X38150Y-31339
X38150Y-32480
X38155Y-26753
X38165Y-25433
X38165Y-29853
X38165Y-35554
X38169Y-32953
X38169Y-34429
X38175Y-28733
X38175Y-40174
X38189Y-27323
X38189Y-37047
X38189Y-38701
X38189Y-41181
X38189Y-42795
X38189Y-43858
X38189Y-44252
X38189Y-45787
X38189Y-46929
X38195Y-38254
X38815Y-23583
X38898Y-30229
X38937Y-35930
X38957Y-47335
X38976Y-20591
X38976Y-41641
X39665Y-28110
X39665Y-39409
X39665Y-44961
X39685Y-40039
X39915Y-29858
X39915Y-35559
X40157Y-41220
X40157Y-46890
X40197Y-33701
X40236Y-24803
X40236Y-34685
X40315Y-23858
X41260Y-24803
X41417Y-27717
X41417Y-33346
X41417Y-39094
X41417Y-44528
X41732Y-28110
X41732Y-33701
X41732Y-39370
X41732Y-44961
X41850Y-21654
X41929Y-23583
X42008Y-30236
X42008Y-35906
X42008Y-41654
X42012Y-47335
X42052Y-23133
X42283Y-30669
X42283Y-36378
X42283Y-41929
X42291Y-47693
T2
X26299Y-18563
X26299Y-20335
X28661Y-18563
X28661Y-20335
T3
X18031Y-17756
X19031Y-17756
X19079Y-19961
X20031Y-17756
X20079Y-19961
X21031Y-17756
X22031Y-17756
X23031Y-17756
X37567Y-19094
X37567Y-20094
X38567Y-19094
X38567Y-20094
X39567Y-19094
X39567Y-20094
T4
X11614Y-17559
X11614Y-49843
X41535Y-17559
X41535Y-49843
T0
M30
