G04 #@! TF.FileFunction,Paste,Top*
%FSLAX46Y46*%
G04 Gerber Fmt 4.6, Leading zero omitted, Abs format (unit mm)*
G04 Created by KiCad (PCBNEW 4.0.1-stable) date 2016-12-19 1:22:00 AM*
%MOMM*%
G01*
G04 APERTURE LIST*
%ADD10C,0.150000*%
%ADD11R,0.500000X2.800000*%
%ADD12R,3.749040X2.550160*%
%ADD13R,1.524000X2.032000*%
%ADD14R,1.250000X1.000000*%
%ADD15R,1.198880X1.198880*%
%ADD16R,0.550000X1.600000*%
%ADD17R,1.600000X0.550000*%
%ADD18R,1.300000X0.700000*%
%ADD19R,0.700000X1.300000*%
%ADD20R,0.400000X1.300000*%
%ADD21R,0.508000X1.143000*%
G04 APERTURE END LIST*
D10*
D11*
X95500000Y-23400000D03*
X96300000Y-23400000D03*
X94700000Y-23400000D03*
X93900000Y-23400000D03*
X90700000Y-23400000D03*
X91500000Y-23400000D03*
X93100000Y-23400000D03*
X92300000Y-23400000D03*
X97100000Y-23400000D03*
X84300000Y-23400000D03*
X85100000Y-23400000D03*
X86700000Y-23400000D03*
X85900000Y-23400000D03*
X76300000Y-23400000D03*
X77100000Y-23400000D03*
X75500000Y-23400000D03*
X74700000Y-23400000D03*
X77900000Y-23400000D03*
X78700000Y-23400000D03*
X83500000Y-23400000D03*
X82700000Y-23400000D03*
X87500000Y-23400000D03*
X88300000Y-23400000D03*
X89900000Y-23400000D03*
X89100000Y-23400000D03*
D12*
X93600000Y-107599980D03*
X93600000Y-113000020D03*
D13*
X32751250Y-47528750D03*
X35291250Y-47528750D03*
X37831250Y-47528750D03*
X40371250Y-47528750D03*
X40371250Y-39908750D03*
X37831250Y-39908750D03*
X35291250Y-39908750D03*
X32751250Y-39908750D03*
X32751250Y-61908750D03*
X35291250Y-61908750D03*
X37831250Y-61908750D03*
X40371250Y-61908750D03*
X40371250Y-54288750D03*
X37831250Y-54288750D03*
X35291250Y-54288750D03*
X32751250Y-54288750D03*
X32751250Y-76488750D03*
X35291250Y-76488750D03*
X37831250Y-76488750D03*
X40371250Y-76488750D03*
X40371250Y-68868750D03*
X37831250Y-68868750D03*
X35291250Y-68868750D03*
X32751250Y-68868750D03*
X32751250Y-90968750D03*
X35291250Y-90968750D03*
X37831250Y-90968750D03*
X40371250Y-90968750D03*
X40371250Y-83348750D03*
X37831250Y-83348750D03*
X35291250Y-83348750D03*
X32751250Y-83348750D03*
X47991250Y-47528750D03*
X50531250Y-47528750D03*
X53071250Y-47528750D03*
X55611250Y-47528750D03*
X55611250Y-39908750D03*
X53071250Y-39908750D03*
X50531250Y-39908750D03*
X47991250Y-39908750D03*
X47991250Y-61908750D03*
X50531250Y-61908750D03*
X53071250Y-61908750D03*
X55611250Y-61908750D03*
X55611250Y-54288750D03*
X53071250Y-54288750D03*
X50531250Y-54288750D03*
X47991250Y-54288750D03*
X47991250Y-76488750D03*
X50531250Y-76488750D03*
X53071250Y-76488750D03*
X55611250Y-76488750D03*
X55611250Y-68868750D03*
X53071250Y-68868750D03*
X50531250Y-68868750D03*
X47991250Y-68868750D03*
X47991250Y-90968750D03*
X50531250Y-90968750D03*
X53071250Y-90968750D03*
X55611250Y-90968750D03*
X55611250Y-83348750D03*
X53071250Y-83348750D03*
X50531250Y-83348750D03*
X47991250Y-83348750D03*
X63231250Y-47528750D03*
X65771250Y-47528750D03*
X68311250Y-47528750D03*
X70851250Y-47528750D03*
X70851250Y-39908750D03*
X68311250Y-39908750D03*
X65771250Y-39908750D03*
X63231250Y-39908750D03*
X63231250Y-61908750D03*
X65771250Y-61908750D03*
X68311250Y-61908750D03*
X70851250Y-61908750D03*
X70851250Y-54288750D03*
X68311250Y-54288750D03*
X65771250Y-54288750D03*
X63231250Y-54288750D03*
X63231250Y-76488750D03*
X65771250Y-76488750D03*
X68311250Y-76488750D03*
X70851250Y-76488750D03*
X70851250Y-68868750D03*
X68311250Y-68868750D03*
X65771250Y-68868750D03*
X63231250Y-68868750D03*
X63231250Y-90968750D03*
X65771250Y-90968750D03*
X68311250Y-90968750D03*
X70851250Y-90968750D03*
X70851250Y-83348750D03*
X68311250Y-83348750D03*
X65771250Y-83348750D03*
X63231250Y-83348750D03*
X78471250Y-47528750D03*
X81011250Y-47528750D03*
X83551250Y-47528750D03*
X86091250Y-47528750D03*
X86091250Y-39908750D03*
X83551250Y-39908750D03*
X81011250Y-39908750D03*
X78471250Y-39908750D03*
X78471250Y-61908750D03*
X81011250Y-61908750D03*
X83551250Y-61908750D03*
X86091250Y-61908750D03*
X86091250Y-54288750D03*
X83551250Y-54288750D03*
X81011250Y-54288750D03*
X78471250Y-54288750D03*
X78471250Y-76488750D03*
X81011250Y-76488750D03*
X83551250Y-76488750D03*
X86091250Y-76488750D03*
X86091250Y-68868750D03*
X83551250Y-68868750D03*
X81011250Y-68868750D03*
X78471250Y-68868750D03*
X78471250Y-90968750D03*
X81011250Y-90968750D03*
X83551250Y-90968750D03*
X86091250Y-90968750D03*
X86091250Y-83348750D03*
X83551250Y-83348750D03*
X81011250Y-83348750D03*
X78471250Y-83348750D03*
X93711250Y-47528750D03*
X96251250Y-47528750D03*
X98791250Y-47528750D03*
X101331250Y-47528750D03*
X101331250Y-39908750D03*
X98791250Y-39908750D03*
X96251250Y-39908750D03*
X93711250Y-39908750D03*
X93711250Y-61908750D03*
X96251250Y-61908750D03*
X98791250Y-61908750D03*
X101331250Y-61908750D03*
X101331250Y-54288750D03*
X98791250Y-54288750D03*
X96251250Y-54288750D03*
X93711250Y-54288750D03*
X93711250Y-76488750D03*
X96251250Y-76488750D03*
X98791250Y-76488750D03*
X101331250Y-76488750D03*
X101331250Y-68868750D03*
X98791250Y-68868750D03*
X96251250Y-68868750D03*
X93711250Y-68868750D03*
X93711250Y-90968750D03*
X96251250Y-90968750D03*
X98791250Y-90968750D03*
X101331250Y-90968750D03*
X101331250Y-83348750D03*
X98791250Y-83348750D03*
X96251250Y-83348750D03*
X93711250Y-83348750D03*
D14*
X73400000Y-108300000D03*
X73400000Y-106300000D03*
X90400000Y-106800000D03*
X90400000Y-108800000D03*
X88500000Y-106800000D03*
X88500000Y-108800000D03*
D15*
X97000000Y-106650980D03*
X97000000Y-108749020D03*
D16*
X53400000Y-106150000D03*
X52600000Y-106150000D03*
X51800000Y-106150000D03*
X51000000Y-106150000D03*
X50200000Y-106150000D03*
X49400000Y-106150000D03*
X48600000Y-106150000D03*
X47800000Y-106150000D03*
D17*
X46350000Y-107600000D03*
X46350000Y-108400000D03*
X46350000Y-109200000D03*
X46350000Y-110000000D03*
X46350000Y-110800000D03*
X46350000Y-111600000D03*
X46350000Y-112400000D03*
X46350000Y-113200000D03*
D16*
X47800000Y-114650000D03*
X48600000Y-114650000D03*
X49400000Y-114650000D03*
X50200000Y-114650000D03*
X51000000Y-114650000D03*
X51800000Y-114650000D03*
X52600000Y-114650000D03*
X53400000Y-114650000D03*
D17*
X54850000Y-113200000D03*
X54850000Y-112400000D03*
X54850000Y-111600000D03*
X54850000Y-110800000D03*
X54850000Y-110000000D03*
X54850000Y-109200000D03*
X54850000Y-108400000D03*
X54850000Y-107600000D03*
D18*
X32751250Y-95098750D03*
X32751250Y-96998750D03*
X32751250Y-78918750D03*
X32751250Y-80818750D03*
X32751250Y-64438750D03*
X32751250Y-66338750D03*
X32651250Y-49931750D03*
X32651250Y-51831750D03*
X36561250Y-96998750D03*
X36561250Y-95098750D03*
X40371250Y-96998750D03*
X40371250Y-95098750D03*
X40371250Y-80818750D03*
X40371250Y-78918750D03*
X40371250Y-66338750D03*
X40371250Y-64438750D03*
X40371250Y-51831750D03*
X40371250Y-49931750D03*
X36461250Y-51831750D03*
X36461250Y-49931750D03*
X47991250Y-95098750D03*
X47991250Y-96998750D03*
X47991250Y-78918750D03*
X47991250Y-80818750D03*
X47991250Y-64438750D03*
X47991250Y-66338750D03*
X47991250Y-49958750D03*
X47991250Y-51858750D03*
X51801250Y-96998750D03*
X51801250Y-95098750D03*
X55611250Y-96998750D03*
X55611250Y-95098750D03*
X55611250Y-80818750D03*
X55611250Y-78918750D03*
X55611250Y-66338750D03*
X55611250Y-64438750D03*
X55611250Y-51858750D03*
X55611250Y-49958750D03*
X51801250Y-51858750D03*
X51801250Y-49958750D03*
X63231250Y-95098750D03*
X63231250Y-96998750D03*
X63231250Y-78918750D03*
X63231250Y-80818750D03*
X63231250Y-64438750D03*
X63231250Y-66338750D03*
X63231250Y-49958750D03*
X63231250Y-51858750D03*
X67041250Y-96998750D03*
X67041250Y-95098750D03*
X70851250Y-96998750D03*
X70851250Y-95098750D03*
X70851250Y-80818750D03*
X70851250Y-78918750D03*
X70851250Y-66338750D03*
X70851250Y-64438750D03*
X70851250Y-51858750D03*
X70851250Y-49958750D03*
X67041250Y-51858750D03*
X67041250Y-49958750D03*
X78471250Y-95098750D03*
X78471250Y-96998750D03*
X78471250Y-78918750D03*
X78471250Y-80818750D03*
X78471250Y-64438750D03*
X78471250Y-66338750D03*
X78471250Y-49958750D03*
X78471250Y-51858750D03*
D19*
X75350000Y-106100000D03*
X77250000Y-106100000D03*
D18*
X82281250Y-96998750D03*
X82281250Y-95098750D03*
X86091250Y-96998750D03*
X86091250Y-95098750D03*
X86091250Y-80818750D03*
X86091250Y-78918750D03*
X86091250Y-66338750D03*
X86091250Y-64438750D03*
X86091250Y-51858750D03*
X86091250Y-49958750D03*
X82281250Y-51858750D03*
X82281250Y-49958750D03*
X93711250Y-95098750D03*
X93711250Y-96998750D03*
X93711250Y-78918750D03*
X93711250Y-80818750D03*
X93711250Y-64438750D03*
X93711250Y-66338750D03*
X93711250Y-49958750D03*
X93711250Y-51858750D03*
X97521250Y-96998750D03*
X97521250Y-95098750D03*
X101331250Y-96998750D03*
X101331250Y-95098750D03*
X101331250Y-80818750D03*
X101331250Y-78918750D03*
X101331250Y-66338750D03*
X101331250Y-64438750D03*
X101331250Y-51858750D03*
X101331250Y-49958750D03*
X97521250Y-51858750D03*
X97521250Y-49958750D03*
X36561250Y-80818750D03*
X36561250Y-78918750D03*
X36561250Y-66338750D03*
X36561250Y-64438750D03*
X51801250Y-80818750D03*
X51801250Y-78918750D03*
X51800000Y-66350000D03*
X51800000Y-64450000D03*
X67041250Y-80818750D03*
X67041250Y-78918750D03*
X67041250Y-66338750D03*
X67041250Y-64438750D03*
X82281250Y-80818750D03*
X82281250Y-78918750D03*
X82281250Y-66338750D03*
X82281250Y-64438750D03*
X97521250Y-80818750D03*
X97521250Y-78918750D03*
X97521250Y-66338750D03*
X97521250Y-64438750D03*
D20*
X49000000Y-104400000D03*
X46600000Y-104400000D03*
X47800000Y-104400000D03*
D14*
X60300000Y-108150000D03*
X60300000Y-110150000D03*
D21*
X62195000Y-106675000D03*
X63465000Y-106675000D03*
X64735000Y-106675000D03*
X66005000Y-106675000D03*
X66005000Y-113025000D03*
X64735000Y-113025000D03*
X63465000Y-113025000D03*
X62195000Y-113025000D03*
M02*
