G04 #@! TF.FileFunction,Legend,Bot*
%FSLAX46Y46*%
G04 Gerber Fmt 4.6, Leading zero omitted, Abs format (unit mm)*
G04 Created by KiCad (PCBNEW 4.0.1-stable) date 2016-12-19 1:22:00 AM*
%MOMM*%
G01*
G04 APERTURE LIST*
%ADD10C,0.150000*%
%ADD11C,0.304800*%
%ADD12C,0.254000*%
%ADD13C,0.203200*%
%ADD14C,0.152400*%
%ADD15C,0.127000*%
G04 APERTURE END LIST*
D10*
D11*
X93945143Y-104419429D02*
X93945143Y-105580572D01*
X94719238Y-105000001D02*
X93171048Y-105000001D01*
D10*
X77201250Y-60638750D02*
X77201250Y-55558750D01*
X77201250Y-55558750D02*
X87361250Y-55558750D01*
X87361250Y-55558750D02*
X87361250Y-60638750D01*
X87361250Y-60638750D02*
X77201250Y-60638750D01*
X77201250Y-59368750D02*
X78471250Y-59368750D01*
X78471250Y-59368750D02*
X78471250Y-56828750D01*
X78471250Y-56828750D02*
X77201250Y-56828750D01*
X67916250Y-51508750D02*
X67916250Y-50308750D01*
X66166250Y-50308750D02*
X66166250Y-51508750D01*
D12*
X91568000Y-109030000D02*
X91568000Y-106109000D01*
X91568000Y-106109000D02*
X95632000Y-106109000D01*
X95632000Y-106109000D02*
X95632000Y-109030000D01*
X91568000Y-111570000D02*
X91568000Y-114491000D01*
X91568000Y-114491000D02*
X95632000Y-114491000D01*
X95632000Y-114491000D02*
X95632000Y-111570000D01*
D10*
X31481250Y-46258750D02*
X31481250Y-41178750D01*
X31481250Y-41178750D02*
X41641250Y-41178750D01*
X41641250Y-41178750D02*
X41641250Y-46258750D01*
X41641250Y-46258750D02*
X31481250Y-46258750D01*
X31481250Y-44988750D02*
X32751250Y-44988750D01*
X32751250Y-44988750D02*
X32751250Y-42448750D01*
X32751250Y-42448750D02*
X31481250Y-42448750D01*
X31481250Y-60638750D02*
X31481250Y-55558750D01*
X31481250Y-55558750D02*
X41641250Y-55558750D01*
X41641250Y-55558750D02*
X41641250Y-60638750D01*
X41641250Y-60638750D02*
X31481250Y-60638750D01*
X31481250Y-59368750D02*
X32751250Y-59368750D01*
X32751250Y-59368750D02*
X32751250Y-56828750D01*
X32751250Y-56828750D02*
X31481250Y-56828750D01*
X31481250Y-75218750D02*
X31481250Y-70138750D01*
X31481250Y-70138750D02*
X41641250Y-70138750D01*
X41641250Y-70138750D02*
X41641250Y-75218750D01*
X41641250Y-75218750D02*
X31481250Y-75218750D01*
X31481250Y-73948750D02*
X32751250Y-73948750D01*
X32751250Y-73948750D02*
X32751250Y-71408750D01*
X32751250Y-71408750D02*
X31481250Y-71408750D01*
X31481250Y-89698750D02*
X31481250Y-84618750D01*
X31481250Y-84618750D02*
X41641250Y-84618750D01*
X41641250Y-84618750D02*
X41641250Y-89698750D01*
X41641250Y-89698750D02*
X31481250Y-89698750D01*
X31481250Y-88428750D02*
X32751250Y-88428750D01*
X32751250Y-88428750D02*
X32751250Y-85888750D01*
X32751250Y-85888750D02*
X31481250Y-85888750D01*
X46721250Y-46258750D02*
X46721250Y-41178750D01*
X46721250Y-41178750D02*
X56881250Y-41178750D01*
X56881250Y-41178750D02*
X56881250Y-46258750D01*
X56881250Y-46258750D02*
X46721250Y-46258750D01*
X46721250Y-44988750D02*
X47991250Y-44988750D01*
X47991250Y-44988750D02*
X47991250Y-42448750D01*
X47991250Y-42448750D02*
X46721250Y-42448750D01*
X46721250Y-60638750D02*
X46721250Y-55558750D01*
X46721250Y-55558750D02*
X56881250Y-55558750D01*
X56881250Y-55558750D02*
X56881250Y-60638750D01*
X56881250Y-60638750D02*
X46721250Y-60638750D01*
X46721250Y-59368750D02*
X47991250Y-59368750D01*
X47991250Y-59368750D02*
X47991250Y-56828750D01*
X47991250Y-56828750D02*
X46721250Y-56828750D01*
X46721250Y-75218750D02*
X46721250Y-70138750D01*
X46721250Y-70138750D02*
X56881250Y-70138750D01*
X56881250Y-70138750D02*
X56881250Y-75218750D01*
X56881250Y-75218750D02*
X46721250Y-75218750D01*
X46721250Y-73948750D02*
X47991250Y-73948750D01*
X47991250Y-73948750D02*
X47991250Y-71408750D01*
X47991250Y-71408750D02*
X46721250Y-71408750D01*
X46721250Y-89698750D02*
X46721250Y-84618750D01*
X46721250Y-84618750D02*
X56881250Y-84618750D01*
X56881250Y-84618750D02*
X56881250Y-89698750D01*
X56881250Y-89698750D02*
X46721250Y-89698750D01*
X46721250Y-88428750D02*
X47991250Y-88428750D01*
X47991250Y-88428750D02*
X47991250Y-85888750D01*
X47991250Y-85888750D02*
X46721250Y-85888750D01*
X61961250Y-46258750D02*
X61961250Y-41178750D01*
X61961250Y-41178750D02*
X72121250Y-41178750D01*
X72121250Y-41178750D02*
X72121250Y-46258750D01*
X72121250Y-46258750D02*
X61961250Y-46258750D01*
X61961250Y-44988750D02*
X63231250Y-44988750D01*
X63231250Y-44988750D02*
X63231250Y-42448750D01*
X63231250Y-42448750D02*
X61961250Y-42448750D01*
X61961250Y-60638750D02*
X61961250Y-55558750D01*
X61961250Y-55558750D02*
X72121250Y-55558750D01*
X72121250Y-55558750D02*
X72121250Y-60638750D01*
X72121250Y-60638750D02*
X61961250Y-60638750D01*
X61961250Y-59368750D02*
X63231250Y-59368750D01*
X63231250Y-59368750D02*
X63231250Y-56828750D01*
X63231250Y-56828750D02*
X61961250Y-56828750D01*
X61961250Y-75218750D02*
X61961250Y-70138750D01*
X61961250Y-70138750D02*
X72121250Y-70138750D01*
X72121250Y-70138750D02*
X72121250Y-75218750D01*
X72121250Y-75218750D02*
X61961250Y-75218750D01*
X61961250Y-73948750D02*
X63231250Y-73948750D01*
X63231250Y-73948750D02*
X63231250Y-71408750D01*
X63231250Y-71408750D02*
X61961250Y-71408750D01*
X61961250Y-89698750D02*
X61961250Y-84618750D01*
X61961250Y-84618750D02*
X72121250Y-84618750D01*
X72121250Y-84618750D02*
X72121250Y-89698750D01*
X72121250Y-89698750D02*
X61961250Y-89698750D01*
X61961250Y-88428750D02*
X63231250Y-88428750D01*
X63231250Y-88428750D02*
X63231250Y-85888750D01*
X63231250Y-85888750D02*
X61961250Y-85888750D01*
X77201250Y-46258750D02*
X77201250Y-41178750D01*
X77201250Y-41178750D02*
X87361250Y-41178750D01*
X87361250Y-41178750D02*
X87361250Y-46258750D01*
X87361250Y-46258750D02*
X77201250Y-46258750D01*
X77201250Y-44988750D02*
X78471250Y-44988750D01*
X78471250Y-44988750D02*
X78471250Y-42448750D01*
X78471250Y-42448750D02*
X77201250Y-42448750D01*
X77201250Y-75218750D02*
X77201250Y-70138750D01*
X77201250Y-70138750D02*
X87361250Y-70138750D01*
X87361250Y-70138750D02*
X87361250Y-75218750D01*
X87361250Y-75218750D02*
X77201250Y-75218750D01*
X77201250Y-73948750D02*
X78471250Y-73948750D01*
X78471250Y-73948750D02*
X78471250Y-71408750D01*
X78471250Y-71408750D02*
X77201250Y-71408750D01*
X77201250Y-89698750D02*
X77201250Y-84618750D01*
X77201250Y-84618750D02*
X87361250Y-84618750D01*
X87361250Y-84618750D02*
X87361250Y-89698750D01*
X87361250Y-89698750D02*
X77201250Y-89698750D01*
X77201250Y-88428750D02*
X78471250Y-88428750D01*
X78471250Y-88428750D02*
X78471250Y-85888750D01*
X78471250Y-85888750D02*
X77201250Y-85888750D01*
X92441250Y-46258750D02*
X92441250Y-41178750D01*
X92441250Y-41178750D02*
X102601250Y-41178750D01*
X102601250Y-41178750D02*
X102601250Y-46258750D01*
X102601250Y-46258750D02*
X92441250Y-46258750D01*
X92441250Y-44988750D02*
X93711250Y-44988750D01*
X93711250Y-44988750D02*
X93711250Y-42448750D01*
X93711250Y-42448750D02*
X92441250Y-42448750D01*
X92441250Y-60638750D02*
X92441250Y-55558750D01*
X92441250Y-55558750D02*
X102601250Y-55558750D01*
X102601250Y-55558750D02*
X102601250Y-60638750D01*
X102601250Y-60638750D02*
X92441250Y-60638750D01*
X92441250Y-59368750D02*
X93711250Y-59368750D01*
X93711250Y-59368750D02*
X93711250Y-56828750D01*
X93711250Y-56828750D02*
X92441250Y-56828750D01*
X92441250Y-75218750D02*
X92441250Y-70138750D01*
X92441250Y-70138750D02*
X102601250Y-70138750D01*
X102601250Y-70138750D02*
X102601250Y-75218750D01*
X102601250Y-75218750D02*
X92441250Y-75218750D01*
X92441250Y-73948750D02*
X93711250Y-73948750D01*
X93711250Y-73948750D02*
X93711250Y-71408750D01*
X93711250Y-71408750D02*
X92441250Y-71408750D01*
X92441250Y-89698750D02*
X92441250Y-84618750D01*
X92441250Y-84618750D02*
X102601250Y-84618750D01*
X102601250Y-84618750D02*
X102601250Y-89698750D01*
X102601250Y-89698750D02*
X92441250Y-89698750D01*
X92441250Y-88428750D02*
X93711250Y-88428750D01*
X93711250Y-88428750D02*
X93711250Y-85888750D01*
X93711250Y-85888750D02*
X92441250Y-85888750D01*
D13*
X31100250Y-98969750D02*
X42022250Y-98969750D01*
X42022250Y-98969750D02*
X42022250Y-95413750D01*
X42022250Y-95413750D02*
X31100250Y-95413750D01*
X31100250Y-95413750D02*
X31100250Y-98969750D01*
X31100250Y-97699750D02*
X31862250Y-97699750D01*
X31862250Y-97699750D02*
X31862250Y-96683750D01*
X31862250Y-96683750D02*
X31100250Y-96683750D01*
X46340250Y-98842750D02*
X57262250Y-98842750D01*
X57262250Y-98842750D02*
X57262250Y-95286750D01*
X57262250Y-95286750D02*
X46340250Y-95286750D01*
X46340250Y-95286750D02*
X46340250Y-98842750D01*
X46340250Y-97572750D02*
X47102250Y-97572750D01*
X47102250Y-97572750D02*
X47102250Y-96556750D01*
X47102250Y-96556750D02*
X46340250Y-96556750D01*
X61580250Y-98842750D02*
X72502250Y-98842750D01*
X72502250Y-98842750D02*
X72502250Y-95286750D01*
X72502250Y-95286750D02*
X61580250Y-95286750D01*
X61580250Y-95286750D02*
X61580250Y-98842750D01*
X61580250Y-97572750D02*
X62342250Y-97572750D01*
X62342250Y-97572750D02*
X62342250Y-96556750D01*
X62342250Y-96556750D02*
X61580250Y-96556750D01*
X76820250Y-98842750D02*
X87742250Y-98842750D01*
X87742250Y-98842750D02*
X87742250Y-95286750D01*
X87742250Y-95286750D02*
X76820250Y-95286750D01*
X76820250Y-95286750D02*
X76820250Y-98842750D01*
X76820250Y-97572750D02*
X77582250Y-97572750D01*
X77582250Y-97572750D02*
X77582250Y-96556750D01*
X77582250Y-96556750D02*
X76820250Y-96556750D01*
X92060250Y-98842750D02*
X102982250Y-98842750D01*
X102982250Y-98842750D02*
X102982250Y-95286750D01*
X102982250Y-95286750D02*
X92060250Y-95286750D01*
X92060250Y-95286750D02*
X92060250Y-98842750D01*
X92060250Y-97572750D02*
X92822250Y-97572750D01*
X92822250Y-97572750D02*
X92822250Y-96556750D01*
X92822250Y-96556750D02*
X92060250Y-96556750D01*
D10*
X28800000Y-98950000D02*
X29800000Y-98950000D01*
X29800000Y-100650000D02*
X28800000Y-100650000D01*
X74400000Y-98750000D02*
X75400000Y-98750000D01*
X75400000Y-100450000D02*
X74400000Y-100450000D01*
X44100000Y-98650000D02*
X45100000Y-98650000D01*
X45100000Y-100350000D02*
X44100000Y-100350000D01*
X89700000Y-98850000D02*
X90700000Y-98850000D01*
X90700000Y-100550000D02*
X89700000Y-100550000D01*
X59200000Y-98750000D02*
X60200000Y-98750000D01*
X60200000Y-100450000D02*
X59200000Y-100450000D01*
X49800000Y-111250000D02*
X48800000Y-111250000D01*
X48800000Y-109550000D02*
X49800000Y-109550000D01*
X37336250Y-51481750D02*
X37336250Y-50281750D01*
X35586250Y-50281750D02*
X35586250Y-51481750D01*
X37436250Y-65988750D02*
X37436250Y-64788750D01*
X35686250Y-64788750D02*
X35686250Y-65988750D01*
X52676250Y-51508750D02*
X52676250Y-50308750D01*
X50926250Y-50308750D02*
X50926250Y-51508750D01*
X52676250Y-65988750D02*
X52676250Y-64788750D01*
X50926250Y-64788750D02*
X50926250Y-65988750D01*
X67916250Y-65988750D02*
X67916250Y-64788750D01*
X66166250Y-64788750D02*
X66166250Y-65988750D01*
X83156250Y-51508750D02*
X83156250Y-50308750D01*
X81406250Y-50308750D02*
X81406250Y-51508750D01*
X83156250Y-65988750D02*
X83156250Y-64788750D01*
X81406250Y-64788750D02*
X81406250Y-65988750D01*
X97875000Y-108000000D02*
X97875000Y-106800000D01*
X96125000Y-106800000D02*
X96125000Y-108000000D01*
X98396250Y-51508750D02*
X98396250Y-50308750D01*
X96646250Y-50308750D02*
X96646250Y-51508750D01*
X98396250Y-65988750D02*
X98396250Y-64788750D01*
X96646250Y-64788750D02*
X96646250Y-65988750D01*
X31876250Y-35828750D02*
X31876250Y-37028750D01*
X33626250Y-37028750D02*
X33626250Y-35828750D01*
X37436250Y-37028750D02*
X37436250Y-35828750D01*
X35686250Y-35828750D02*
X35686250Y-37028750D01*
X31776250Y-50281750D02*
X31776250Y-51481750D01*
X33526250Y-51481750D02*
X33526250Y-50281750D01*
X31876250Y-64788750D02*
X31876250Y-65988750D01*
X33626250Y-65988750D02*
X33626250Y-64788750D01*
X31876250Y-79268750D02*
X31876250Y-80468750D01*
X33626250Y-80468750D02*
X33626250Y-79268750D01*
X37436250Y-80468750D02*
X37436250Y-79268750D01*
X35686250Y-79268750D02*
X35686250Y-80468750D01*
X41246250Y-37028750D02*
X41246250Y-35828750D01*
X39496250Y-35828750D02*
X39496250Y-37028750D01*
X41246250Y-51481750D02*
X41246250Y-50281750D01*
X39496250Y-50281750D02*
X39496250Y-51481750D01*
X41246250Y-65988750D02*
X41246250Y-64788750D01*
X39496250Y-64788750D02*
X39496250Y-65988750D01*
X41246250Y-80468750D02*
X41246250Y-79268750D01*
X39496250Y-79268750D02*
X39496250Y-80468750D01*
X52676250Y-37028750D02*
X52676250Y-35828750D01*
X50926250Y-35828750D02*
X50926250Y-37028750D01*
X47116250Y-35828750D02*
X47116250Y-37028750D01*
X48866250Y-37028750D02*
X48866250Y-35828750D01*
X47116250Y-50308750D02*
X47116250Y-51508750D01*
X48866250Y-51508750D02*
X48866250Y-50308750D01*
X47116250Y-64788750D02*
X47116250Y-65988750D01*
X48866250Y-65988750D02*
X48866250Y-64788750D01*
X47116250Y-79268750D02*
X47116250Y-80468750D01*
X48866250Y-80468750D02*
X48866250Y-79268750D01*
X52676250Y-80468750D02*
X52676250Y-79268750D01*
X50926250Y-79268750D02*
X50926250Y-80468750D01*
X56486250Y-37028750D02*
X56486250Y-35828750D01*
X54736250Y-35828750D02*
X54736250Y-37028750D01*
X56486250Y-51508750D02*
X56486250Y-50308750D01*
X54736250Y-50308750D02*
X54736250Y-51508750D01*
X56486250Y-65988750D02*
X56486250Y-64788750D01*
X54736250Y-64788750D02*
X54736250Y-65988750D01*
X56486250Y-80468750D02*
X56486250Y-79268750D01*
X54736250Y-79268750D02*
X54736250Y-80468750D01*
X67916250Y-37028750D02*
X67916250Y-35828750D01*
X66166250Y-35828750D02*
X66166250Y-37028750D01*
X62356250Y-35828750D02*
X62356250Y-37028750D01*
X64106250Y-37028750D02*
X64106250Y-35828750D01*
X62356250Y-50308750D02*
X62356250Y-51508750D01*
X64106250Y-51508750D02*
X64106250Y-50308750D01*
X62356250Y-64788750D02*
X62356250Y-65988750D01*
X64106250Y-65988750D02*
X64106250Y-64788750D01*
X62356250Y-79268750D02*
X62356250Y-80468750D01*
X64106250Y-80468750D02*
X64106250Y-79268750D01*
X67916250Y-80468750D02*
X67916250Y-79268750D01*
X66166250Y-79268750D02*
X66166250Y-80468750D01*
X71726250Y-37028750D02*
X71726250Y-35828750D01*
X69976250Y-35828750D02*
X69976250Y-37028750D01*
X71726250Y-51508750D02*
X71726250Y-50308750D01*
X69976250Y-50308750D02*
X69976250Y-51508750D01*
X71726250Y-65988750D02*
X71726250Y-64788750D01*
X69976250Y-64788750D02*
X69976250Y-65988750D01*
X71726250Y-80468750D02*
X71726250Y-79268750D01*
X69976250Y-79268750D02*
X69976250Y-80468750D01*
X83156250Y-37028750D02*
X83156250Y-35828750D01*
X81406250Y-35828750D02*
X81406250Y-37028750D01*
X77596250Y-35828750D02*
X77596250Y-37028750D01*
X79346250Y-37028750D02*
X79346250Y-35828750D01*
X77596250Y-50308750D02*
X77596250Y-51508750D01*
X79346250Y-51508750D02*
X79346250Y-50308750D01*
X77596250Y-64788750D02*
X77596250Y-65988750D01*
X79346250Y-65988750D02*
X79346250Y-64788750D01*
X77596250Y-79268750D02*
X77596250Y-80468750D01*
X79346250Y-80468750D02*
X79346250Y-79268750D01*
X83156250Y-80468750D02*
X83156250Y-79268750D01*
X81406250Y-79268750D02*
X81406250Y-80468750D01*
X86966250Y-37028750D02*
X86966250Y-35828750D01*
X85216250Y-35828750D02*
X85216250Y-37028750D01*
X86966250Y-51508750D02*
X86966250Y-50308750D01*
X85216250Y-50308750D02*
X85216250Y-51508750D01*
X86966250Y-65988750D02*
X86966250Y-64788750D01*
X85216250Y-64788750D02*
X85216250Y-65988750D01*
X86966250Y-80468750D02*
X86966250Y-79268750D01*
X85216250Y-79268750D02*
X85216250Y-80468750D01*
X92836250Y-35828750D02*
X92836250Y-37028750D01*
X94586250Y-37028750D02*
X94586250Y-35828750D01*
X98396250Y-37028750D02*
X98396250Y-35828750D01*
X96646250Y-35828750D02*
X96646250Y-37028750D01*
X92836250Y-50308750D02*
X92836250Y-51508750D01*
X94586250Y-51508750D02*
X94586250Y-50308750D01*
X92836250Y-64788750D02*
X92836250Y-65988750D01*
X94586250Y-65988750D02*
X94586250Y-64788750D01*
X92836250Y-79268750D02*
X92836250Y-80468750D01*
X94586250Y-80468750D02*
X94586250Y-79268750D01*
X98396250Y-80468750D02*
X98396250Y-79268750D01*
X96646250Y-79268750D02*
X96646250Y-80468750D01*
X102206250Y-37028750D02*
X102206250Y-35828750D01*
X100456250Y-35828750D02*
X100456250Y-37028750D01*
X102206250Y-51508750D02*
X102206250Y-50308750D01*
X100456250Y-50308750D02*
X100456250Y-51508750D01*
X102206250Y-65988750D02*
X102206250Y-64788750D01*
X100456250Y-64788750D02*
X100456250Y-65988750D01*
X102206250Y-80468750D02*
X102206250Y-79268750D01*
X100456250Y-79268750D02*
X100456250Y-80468750D01*
X76357143Y-56933334D02*
X76404762Y-56885715D01*
X76452381Y-56742858D01*
X76452381Y-56647620D01*
X76404762Y-56504762D01*
X76309524Y-56409524D01*
X76214286Y-56361905D01*
X76023810Y-56314286D01*
X75880952Y-56314286D01*
X75690476Y-56361905D01*
X75595238Y-56409524D01*
X75500000Y-56504762D01*
X75452381Y-56647620D01*
X75452381Y-56742858D01*
X75500000Y-56885715D01*
X75547619Y-56933334D01*
X76452381Y-57361905D02*
X75452381Y-57361905D01*
X75928571Y-57361905D02*
X75928571Y-57933334D01*
X76452381Y-57933334D02*
X75452381Y-57933334D01*
X75547619Y-58361905D02*
X75500000Y-58409524D01*
X75452381Y-58504762D01*
X75452381Y-58742858D01*
X75500000Y-58838096D01*
X75547619Y-58885715D01*
X75642857Y-58933334D01*
X75738095Y-58933334D01*
X75880952Y-58885715D01*
X76452381Y-58314286D01*
X76452381Y-58933334D01*
X75452381Y-59266667D02*
X75452381Y-59933334D01*
X76452381Y-59504762D01*
X65862381Y-49547143D02*
X65386190Y-49213809D01*
X65862381Y-48975714D02*
X64862381Y-48975714D01*
X64862381Y-49356667D01*
X64910000Y-49451905D01*
X64957619Y-49499524D01*
X65052857Y-49547143D01*
X65195714Y-49547143D01*
X65290952Y-49499524D01*
X65338571Y-49451905D01*
X65386190Y-49356667D01*
X65386190Y-48975714D01*
X64957619Y-49928095D02*
X64910000Y-49975714D01*
X64862381Y-50070952D01*
X64862381Y-50309048D01*
X64910000Y-50404286D01*
X64957619Y-50451905D01*
X65052857Y-50499524D01*
X65148095Y-50499524D01*
X65290952Y-50451905D01*
X65862381Y-49880476D01*
X65862381Y-50499524D01*
X64862381Y-51404286D02*
X64862381Y-50928095D01*
X65338571Y-50880476D01*
X65290952Y-50928095D01*
X65243333Y-51023333D01*
X65243333Y-51261429D01*
X65290952Y-51356667D01*
X65338571Y-51404286D01*
X65433810Y-51451905D01*
X65671905Y-51451905D01*
X65767143Y-51404286D01*
X65814762Y-51356667D01*
X65862381Y-51261429D01*
X65862381Y-51023333D01*
X65814762Y-50928095D01*
X65767143Y-50880476D01*
D14*
X93748166Y-115517500D02*
X93790500Y-115559833D01*
X93917500Y-115602167D01*
X94002166Y-115602167D01*
X94129166Y-115559833D01*
X94213833Y-115475167D01*
X94256166Y-115390500D01*
X94298500Y-115221167D01*
X94298500Y-115094167D01*
X94256166Y-114924833D01*
X94213833Y-114840167D01*
X94129166Y-114755500D01*
X94002166Y-114713167D01*
X93917500Y-114713167D01*
X93790500Y-114755500D01*
X93748166Y-114797833D01*
X93409500Y-114797833D02*
X93367166Y-114755500D01*
X93282500Y-114713167D01*
X93070833Y-114713167D01*
X92986166Y-114755500D01*
X92943833Y-114797833D01*
X92901500Y-114882500D01*
X92901500Y-114967167D01*
X92943833Y-115094167D01*
X93451833Y-115602167D01*
X92901500Y-115602167D01*
D10*
X30657143Y-43009524D02*
X30704762Y-42961905D01*
X30752381Y-42819048D01*
X30752381Y-42723810D01*
X30704762Y-42580952D01*
X30609524Y-42485714D01*
X30514286Y-42438095D01*
X30323810Y-42390476D01*
X30180952Y-42390476D01*
X29990476Y-42438095D01*
X29895238Y-42485714D01*
X29800000Y-42580952D01*
X29752381Y-42723810D01*
X29752381Y-42819048D01*
X29800000Y-42961905D01*
X29847619Y-43009524D01*
X30752381Y-43438095D02*
X29752381Y-43438095D01*
X30228571Y-43438095D02*
X30228571Y-44009524D01*
X30752381Y-44009524D02*
X29752381Y-44009524D01*
X30752381Y-45009524D02*
X30752381Y-44438095D01*
X30752381Y-44723809D02*
X29752381Y-44723809D01*
X29895238Y-44628571D01*
X29990476Y-44533333D01*
X30038095Y-44438095D01*
X30657143Y-57309524D02*
X30704762Y-57261905D01*
X30752381Y-57119048D01*
X30752381Y-57023810D01*
X30704762Y-56880952D01*
X30609524Y-56785714D01*
X30514286Y-56738095D01*
X30323810Y-56690476D01*
X30180952Y-56690476D01*
X29990476Y-56738095D01*
X29895238Y-56785714D01*
X29800000Y-56880952D01*
X29752381Y-57023810D01*
X29752381Y-57119048D01*
X29800000Y-57261905D01*
X29847619Y-57309524D01*
X30752381Y-57738095D02*
X29752381Y-57738095D01*
X30228571Y-57738095D02*
X30228571Y-58309524D01*
X30752381Y-58309524D02*
X29752381Y-58309524D01*
X29752381Y-58690476D02*
X29752381Y-59309524D01*
X30133333Y-58976190D01*
X30133333Y-59119048D01*
X30180952Y-59214286D01*
X30228571Y-59261905D01*
X30323810Y-59309524D01*
X30561905Y-59309524D01*
X30657143Y-59261905D01*
X30704762Y-59214286D01*
X30752381Y-59119048D01*
X30752381Y-58833333D01*
X30704762Y-58738095D01*
X30657143Y-58690476D01*
X30657143Y-71909524D02*
X30704762Y-71861905D01*
X30752381Y-71719048D01*
X30752381Y-71623810D01*
X30704762Y-71480952D01*
X30609524Y-71385714D01*
X30514286Y-71338095D01*
X30323810Y-71290476D01*
X30180952Y-71290476D01*
X29990476Y-71338095D01*
X29895238Y-71385714D01*
X29800000Y-71480952D01*
X29752381Y-71623810D01*
X29752381Y-71719048D01*
X29800000Y-71861905D01*
X29847619Y-71909524D01*
X30752381Y-72338095D02*
X29752381Y-72338095D01*
X30228571Y-72338095D02*
X30228571Y-72909524D01*
X30752381Y-72909524D02*
X29752381Y-72909524D01*
X29752381Y-73861905D02*
X29752381Y-73385714D01*
X30228571Y-73338095D01*
X30180952Y-73385714D01*
X30133333Y-73480952D01*
X30133333Y-73719048D01*
X30180952Y-73814286D01*
X30228571Y-73861905D01*
X30323810Y-73909524D01*
X30561905Y-73909524D01*
X30657143Y-73861905D01*
X30704762Y-73814286D01*
X30752381Y-73719048D01*
X30752381Y-73480952D01*
X30704762Y-73385714D01*
X30657143Y-73338095D01*
X30647143Y-86449524D02*
X30694762Y-86401905D01*
X30742381Y-86259048D01*
X30742381Y-86163810D01*
X30694762Y-86020952D01*
X30599524Y-85925714D01*
X30504286Y-85878095D01*
X30313810Y-85830476D01*
X30170952Y-85830476D01*
X29980476Y-85878095D01*
X29885238Y-85925714D01*
X29790000Y-86020952D01*
X29742381Y-86163810D01*
X29742381Y-86259048D01*
X29790000Y-86401905D01*
X29837619Y-86449524D01*
X30742381Y-86878095D02*
X29742381Y-86878095D01*
X30218571Y-86878095D02*
X30218571Y-87449524D01*
X30742381Y-87449524D02*
X29742381Y-87449524D01*
X29742381Y-87830476D02*
X29742381Y-88497143D01*
X30742381Y-88068571D01*
X45757143Y-43009524D02*
X45804762Y-42961905D01*
X45852381Y-42819048D01*
X45852381Y-42723810D01*
X45804762Y-42580952D01*
X45709524Y-42485714D01*
X45614286Y-42438095D01*
X45423810Y-42390476D01*
X45280952Y-42390476D01*
X45090476Y-42438095D01*
X44995238Y-42485714D01*
X44900000Y-42580952D01*
X44852381Y-42723810D01*
X44852381Y-42819048D01*
X44900000Y-42961905D01*
X44947619Y-43009524D01*
X45852381Y-43438095D02*
X44852381Y-43438095D01*
X45328571Y-43438095D02*
X45328571Y-44009524D01*
X45852381Y-44009524D02*
X44852381Y-44009524D01*
X45852381Y-44533333D02*
X45852381Y-44723809D01*
X45804762Y-44819048D01*
X45757143Y-44866667D01*
X45614286Y-44961905D01*
X45423810Y-45009524D01*
X45042857Y-45009524D01*
X44947619Y-44961905D01*
X44900000Y-44914286D01*
X44852381Y-44819048D01*
X44852381Y-44628571D01*
X44900000Y-44533333D01*
X44947619Y-44485714D01*
X45042857Y-44438095D01*
X45280952Y-44438095D01*
X45376190Y-44485714D01*
X45423810Y-44533333D01*
X45471429Y-44628571D01*
X45471429Y-44819048D01*
X45423810Y-44914286D01*
X45376190Y-44961905D01*
X45280952Y-45009524D01*
X45857143Y-56933334D02*
X45904762Y-56885715D01*
X45952381Y-56742858D01*
X45952381Y-56647620D01*
X45904762Y-56504762D01*
X45809524Y-56409524D01*
X45714286Y-56361905D01*
X45523810Y-56314286D01*
X45380952Y-56314286D01*
X45190476Y-56361905D01*
X45095238Y-56409524D01*
X45000000Y-56504762D01*
X44952381Y-56647620D01*
X44952381Y-56742858D01*
X45000000Y-56885715D01*
X45047619Y-56933334D01*
X45952381Y-57361905D02*
X44952381Y-57361905D01*
X45428571Y-57361905D02*
X45428571Y-57933334D01*
X45952381Y-57933334D02*
X44952381Y-57933334D01*
X45952381Y-58933334D02*
X45952381Y-58361905D01*
X45952381Y-58647619D02*
X44952381Y-58647619D01*
X45095238Y-58552381D01*
X45190476Y-58457143D01*
X45238095Y-58361905D01*
X45952381Y-59885715D02*
X45952381Y-59314286D01*
X45952381Y-59600000D02*
X44952381Y-59600000D01*
X45095238Y-59504762D01*
X45190476Y-59409524D01*
X45238095Y-59314286D01*
X45757143Y-71533334D02*
X45804762Y-71485715D01*
X45852381Y-71342858D01*
X45852381Y-71247620D01*
X45804762Y-71104762D01*
X45709524Y-71009524D01*
X45614286Y-70961905D01*
X45423810Y-70914286D01*
X45280952Y-70914286D01*
X45090476Y-70961905D01*
X44995238Y-71009524D01*
X44900000Y-71104762D01*
X44852381Y-71247620D01*
X44852381Y-71342858D01*
X44900000Y-71485715D01*
X44947619Y-71533334D01*
X45852381Y-71961905D02*
X44852381Y-71961905D01*
X45328571Y-71961905D02*
X45328571Y-72533334D01*
X45852381Y-72533334D02*
X44852381Y-72533334D01*
X45852381Y-73533334D02*
X45852381Y-72961905D01*
X45852381Y-73247619D02*
X44852381Y-73247619D01*
X44995238Y-73152381D01*
X45090476Y-73057143D01*
X45138095Y-72961905D01*
X44852381Y-73866667D02*
X44852381Y-74485715D01*
X45233333Y-74152381D01*
X45233333Y-74295239D01*
X45280952Y-74390477D01*
X45328571Y-74438096D01*
X45423810Y-74485715D01*
X45661905Y-74485715D01*
X45757143Y-74438096D01*
X45804762Y-74390477D01*
X45852381Y-74295239D01*
X45852381Y-74009524D01*
X45804762Y-73914286D01*
X45757143Y-73866667D01*
X45857143Y-85933334D02*
X45904762Y-85885715D01*
X45952381Y-85742858D01*
X45952381Y-85647620D01*
X45904762Y-85504762D01*
X45809524Y-85409524D01*
X45714286Y-85361905D01*
X45523810Y-85314286D01*
X45380952Y-85314286D01*
X45190476Y-85361905D01*
X45095238Y-85409524D01*
X45000000Y-85504762D01*
X44952381Y-85647620D01*
X44952381Y-85742858D01*
X45000000Y-85885715D01*
X45047619Y-85933334D01*
X45952381Y-86361905D02*
X44952381Y-86361905D01*
X45428571Y-86361905D02*
X45428571Y-86933334D01*
X45952381Y-86933334D02*
X44952381Y-86933334D01*
X45952381Y-87933334D02*
X45952381Y-87361905D01*
X45952381Y-87647619D02*
X44952381Y-87647619D01*
X45095238Y-87552381D01*
X45190476Y-87457143D01*
X45238095Y-87361905D01*
X44952381Y-88838096D02*
X44952381Y-88361905D01*
X45428571Y-88314286D01*
X45380952Y-88361905D01*
X45333333Y-88457143D01*
X45333333Y-88695239D01*
X45380952Y-88790477D01*
X45428571Y-88838096D01*
X45523810Y-88885715D01*
X45761905Y-88885715D01*
X45857143Y-88838096D01*
X45904762Y-88790477D01*
X45952381Y-88695239D01*
X45952381Y-88457143D01*
X45904762Y-88361905D01*
X45857143Y-88314286D01*
X61257143Y-42533334D02*
X61304762Y-42485715D01*
X61352381Y-42342858D01*
X61352381Y-42247620D01*
X61304762Y-42104762D01*
X61209524Y-42009524D01*
X61114286Y-41961905D01*
X60923810Y-41914286D01*
X60780952Y-41914286D01*
X60590476Y-41961905D01*
X60495238Y-42009524D01*
X60400000Y-42104762D01*
X60352381Y-42247620D01*
X60352381Y-42342858D01*
X60400000Y-42485715D01*
X60447619Y-42533334D01*
X61352381Y-42961905D02*
X60352381Y-42961905D01*
X60828571Y-42961905D02*
X60828571Y-43533334D01*
X61352381Y-43533334D02*
X60352381Y-43533334D01*
X61352381Y-44533334D02*
X61352381Y-43961905D01*
X61352381Y-44247619D02*
X60352381Y-44247619D01*
X60495238Y-44152381D01*
X60590476Y-44057143D01*
X60638095Y-43961905D01*
X60352381Y-44866667D02*
X60352381Y-45533334D01*
X61352381Y-45104762D01*
X61157143Y-56933334D02*
X61204762Y-56885715D01*
X61252381Y-56742858D01*
X61252381Y-56647620D01*
X61204762Y-56504762D01*
X61109524Y-56409524D01*
X61014286Y-56361905D01*
X60823810Y-56314286D01*
X60680952Y-56314286D01*
X60490476Y-56361905D01*
X60395238Y-56409524D01*
X60300000Y-56504762D01*
X60252381Y-56647620D01*
X60252381Y-56742858D01*
X60300000Y-56885715D01*
X60347619Y-56933334D01*
X61252381Y-57361905D02*
X60252381Y-57361905D01*
X60728571Y-57361905D02*
X60728571Y-57933334D01*
X61252381Y-57933334D02*
X60252381Y-57933334D01*
X61252381Y-58933334D02*
X61252381Y-58361905D01*
X61252381Y-58647619D02*
X60252381Y-58647619D01*
X60395238Y-58552381D01*
X60490476Y-58457143D01*
X60538095Y-58361905D01*
X61252381Y-59409524D02*
X61252381Y-59600000D01*
X61204762Y-59695239D01*
X61157143Y-59742858D01*
X61014286Y-59838096D01*
X60823810Y-59885715D01*
X60442857Y-59885715D01*
X60347619Y-59838096D01*
X60300000Y-59790477D01*
X60252381Y-59695239D01*
X60252381Y-59504762D01*
X60300000Y-59409524D01*
X60347619Y-59361905D01*
X60442857Y-59314286D01*
X60680952Y-59314286D01*
X60776190Y-59361905D01*
X60823810Y-59409524D01*
X60871429Y-59504762D01*
X60871429Y-59695239D01*
X60823810Y-59790477D01*
X60776190Y-59838096D01*
X60680952Y-59885715D01*
X60957143Y-71533334D02*
X61004762Y-71485715D01*
X61052381Y-71342858D01*
X61052381Y-71247620D01*
X61004762Y-71104762D01*
X60909524Y-71009524D01*
X60814286Y-70961905D01*
X60623810Y-70914286D01*
X60480952Y-70914286D01*
X60290476Y-70961905D01*
X60195238Y-71009524D01*
X60100000Y-71104762D01*
X60052381Y-71247620D01*
X60052381Y-71342858D01*
X60100000Y-71485715D01*
X60147619Y-71533334D01*
X61052381Y-71961905D02*
X60052381Y-71961905D01*
X60528571Y-71961905D02*
X60528571Y-72533334D01*
X61052381Y-72533334D02*
X60052381Y-72533334D01*
X60147619Y-72961905D02*
X60100000Y-73009524D01*
X60052381Y-73104762D01*
X60052381Y-73342858D01*
X60100000Y-73438096D01*
X60147619Y-73485715D01*
X60242857Y-73533334D01*
X60338095Y-73533334D01*
X60480952Y-73485715D01*
X61052381Y-72914286D01*
X61052381Y-73533334D01*
X61052381Y-74485715D02*
X61052381Y-73914286D01*
X61052381Y-74200000D02*
X60052381Y-74200000D01*
X60195238Y-74104762D01*
X60290476Y-74009524D01*
X60338095Y-73914286D01*
X60767143Y-85973334D02*
X60814762Y-85925715D01*
X60862381Y-85782858D01*
X60862381Y-85687620D01*
X60814762Y-85544762D01*
X60719524Y-85449524D01*
X60624286Y-85401905D01*
X60433810Y-85354286D01*
X60290952Y-85354286D01*
X60100476Y-85401905D01*
X60005238Y-85449524D01*
X59910000Y-85544762D01*
X59862381Y-85687620D01*
X59862381Y-85782858D01*
X59910000Y-85925715D01*
X59957619Y-85973334D01*
X60862381Y-86401905D02*
X59862381Y-86401905D01*
X60338571Y-86401905D02*
X60338571Y-86973334D01*
X60862381Y-86973334D02*
X59862381Y-86973334D01*
X59957619Y-87401905D02*
X59910000Y-87449524D01*
X59862381Y-87544762D01*
X59862381Y-87782858D01*
X59910000Y-87878096D01*
X59957619Y-87925715D01*
X60052857Y-87973334D01*
X60148095Y-87973334D01*
X60290952Y-87925715D01*
X60862381Y-87354286D01*
X60862381Y-87973334D01*
X59862381Y-88306667D02*
X59862381Y-88925715D01*
X60243333Y-88592381D01*
X60243333Y-88735239D01*
X60290952Y-88830477D01*
X60338571Y-88878096D01*
X60433810Y-88925715D01*
X60671905Y-88925715D01*
X60767143Y-88878096D01*
X60814762Y-88830477D01*
X60862381Y-88735239D01*
X60862381Y-88449524D01*
X60814762Y-88354286D01*
X60767143Y-88306667D01*
X76557143Y-42633334D02*
X76604762Y-42585715D01*
X76652381Y-42442858D01*
X76652381Y-42347620D01*
X76604762Y-42204762D01*
X76509524Y-42109524D01*
X76414286Y-42061905D01*
X76223810Y-42014286D01*
X76080952Y-42014286D01*
X75890476Y-42061905D01*
X75795238Y-42109524D01*
X75700000Y-42204762D01*
X75652381Y-42347620D01*
X75652381Y-42442858D01*
X75700000Y-42585715D01*
X75747619Y-42633334D01*
X76652381Y-43061905D02*
X75652381Y-43061905D01*
X76128571Y-43061905D02*
X76128571Y-43633334D01*
X76652381Y-43633334D02*
X75652381Y-43633334D01*
X75747619Y-44061905D02*
X75700000Y-44109524D01*
X75652381Y-44204762D01*
X75652381Y-44442858D01*
X75700000Y-44538096D01*
X75747619Y-44585715D01*
X75842857Y-44633334D01*
X75938095Y-44633334D01*
X76080952Y-44585715D01*
X76652381Y-44014286D01*
X76652381Y-44633334D01*
X75652381Y-45538096D02*
X75652381Y-45061905D01*
X76128571Y-45014286D01*
X76080952Y-45061905D01*
X76033333Y-45157143D01*
X76033333Y-45395239D01*
X76080952Y-45490477D01*
X76128571Y-45538096D01*
X76223810Y-45585715D01*
X76461905Y-45585715D01*
X76557143Y-45538096D01*
X76604762Y-45490477D01*
X76652381Y-45395239D01*
X76652381Y-45157143D01*
X76604762Y-45061905D01*
X76557143Y-45014286D01*
X76457143Y-71433334D02*
X76504762Y-71385715D01*
X76552381Y-71242858D01*
X76552381Y-71147620D01*
X76504762Y-71004762D01*
X76409524Y-70909524D01*
X76314286Y-70861905D01*
X76123810Y-70814286D01*
X75980952Y-70814286D01*
X75790476Y-70861905D01*
X75695238Y-70909524D01*
X75600000Y-71004762D01*
X75552381Y-71147620D01*
X75552381Y-71242858D01*
X75600000Y-71385715D01*
X75647619Y-71433334D01*
X76552381Y-71861905D02*
X75552381Y-71861905D01*
X76028571Y-71861905D02*
X76028571Y-72433334D01*
X76552381Y-72433334D02*
X75552381Y-72433334D01*
X75647619Y-72861905D02*
X75600000Y-72909524D01*
X75552381Y-73004762D01*
X75552381Y-73242858D01*
X75600000Y-73338096D01*
X75647619Y-73385715D01*
X75742857Y-73433334D01*
X75838095Y-73433334D01*
X75980952Y-73385715D01*
X76552381Y-72814286D01*
X76552381Y-73433334D01*
X76552381Y-73909524D02*
X76552381Y-74100000D01*
X76504762Y-74195239D01*
X76457143Y-74242858D01*
X76314286Y-74338096D01*
X76123810Y-74385715D01*
X75742857Y-74385715D01*
X75647619Y-74338096D01*
X75600000Y-74290477D01*
X75552381Y-74195239D01*
X75552381Y-74004762D01*
X75600000Y-73909524D01*
X75647619Y-73861905D01*
X75742857Y-73814286D01*
X75980952Y-73814286D01*
X76076190Y-73861905D01*
X76123810Y-73909524D01*
X76171429Y-74004762D01*
X76171429Y-74195239D01*
X76123810Y-74290477D01*
X76076190Y-74338096D01*
X75980952Y-74385715D01*
X76057143Y-86133334D02*
X76104762Y-86085715D01*
X76152381Y-85942858D01*
X76152381Y-85847620D01*
X76104762Y-85704762D01*
X76009524Y-85609524D01*
X75914286Y-85561905D01*
X75723810Y-85514286D01*
X75580952Y-85514286D01*
X75390476Y-85561905D01*
X75295238Y-85609524D01*
X75200000Y-85704762D01*
X75152381Y-85847620D01*
X75152381Y-85942858D01*
X75200000Y-86085715D01*
X75247619Y-86133334D01*
X76152381Y-86561905D02*
X75152381Y-86561905D01*
X75628571Y-86561905D02*
X75628571Y-87133334D01*
X76152381Y-87133334D02*
X75152381Y-87133334D01*
X75152381Y-87514286D02*
X75152381Y-88133334D01*
X75533333Y-87800000D01*
X75533333Y-87942858D01*
X75580952Y-88038096D01*
X75628571Y-88085715D01*
X75723810Y-88133334D01*
X75961905Y-88133334D01*
X76057143Y-88085715D01*
X76104762Y-88038096D01*
X76152381Y-87942858D01*
X76152381Y-87657143D01*
X76104762Y-87561905D01*
X76057143Y-87514286D01*
X76152381Y-89085715D02*
X76152381Y-88514286D01*
X76152381Y-88800000D02*
X75152381Y-88800000D01*
X75295238Y-88704762D01*
X75390476Y-88609524D01*
X75438095Y-88514286D01*
X91757143Y-42533334D02*
X91804762Y-42485715D01*
X91852381Y-42342858D01*
X91852381Y-42247620D01*
X91804762Y-42104762D01*
X91709524Y-42009524D01*
X91614286Y-41961905D01*
X91423810Y-41914286D01*
X91280952Y-41914286D01*
X91090476Y-41961905D01*
X90995238Y-42009524D01*
X90900000Y-42104762D01*
X90852381Y-42247620D01*
X90852381Y-42342858D01*
X90900000Y-42485715D01*
X90947619Y-42533334D01*
X91852381Y-42961905D02*
X90852381Y-42961905D01*
X91328571Y-42961905D02*
X91328571Y-43533334D01*
X91852381Y-43533334D02*
X90852381Y-43533334D01*
X90852381Y-43914286D02*
X90852381Y-44533334D01*
X91233333Y-44200000D01*
X91233333Y-44342858D01*
X91280952Y-44438096D01*
X91328571Y-44485715D01*
X91423810Y-44533334D01*
X91661905Y-44533334D01*
X91757143Y-44485715D01*
X91804762Y-44438096D01*
X91852381Y-44342858D01*
X91852381Y-44057143D01*
X91804762Y-43961905D01*
X91757143Y-43914286D01*
X90852381Y-44866667D02*
X90852381Y-45485715D01*
X91233333Y-45152381D01*
X91233333Y-45295239D01*
X91280952Y-45390477D01*
X91328571Y-45438096D01*
X91423810Y-45485715D01*
X91661905Y-45485715D01*
X91757143Y-45438096D01*
X91804762Y-45390477D01*
X91852381Y-45295239D01*
X91852381Y-45009524D01*
X91804762Y-44914286D01*
X91757143Y-44866667D01*
X91557143Y-57033334D02*
X91604762Y-56985715D01*
X91652381Y-56842858D01*
X91652381Y-56747620D01*
X91604762Y-56604762D01*
X91509524Y-56509524D01*
X91414286Y-56461905D01*
X91223810Y-56414286D01*
X91080952Y-56414286D01*
X90890476Y-56461905D01*
X90795238Y-56509524D01*
X90700000Y-56604762D01*
X90652381Y-56747620D01*
X90652381Y-56842858D01*
X90700000Y-56985715D01*
X90747619Y-57033334D01*
X91652381Y-57461905D02*
X90652381Y-57461905D01*
X91128571Y-57461905D02*
X91128571Y-58033334D01*
X91652381Y-58033334D02*
X90652381Y-58033334D01*
X90652381Y-58414286D02*
X90652381Y-59033334D01*
X91033333Y-58700000D01*
X91033333Y-58842858D01*
X91080952Y-58938096D01*
X91128571Y-58985715D01*
X91223810Y-59033334D01*
X91461905Y-59033334D01*
X91557143Y-58985715D01*
X91604762Y-58938096D01*
X91652381Y-58842858D01*
X91652381Y-58557143D01*
X91604762Y-58461905D01*
X91557143Y-58414286D01*
X90652381Y-59938096D02*
X90652381Y-59461905D01*
X91128571Y-59414286D01*
X91080952Y-59461905D01*
X91033333Y-59557143D01*
X91033333Y-59795239D01*
X91080952Y-59890477D01*
X91128571Y-59938096D01*
X91223810Y-59985715D01*
X91461905Y-59985715D01*
X91557143Y-59938096D01*
X91604762Y-59890477D01*
X91652381Y-59795239D01*
X91652381Y-59557143D01*
X91604762Y-59461905D01*
X91557143Y-59414286D01*
X91857143Y-71533334D02*
X91904762Y-71485715D01*
X91952381Y-71342858D01*
X91952381Y-71247620D01*
X91904762Y-71104762D01*
X91809524Y-71009524D01*
X91714286Y-70961905D01*
X91523810Y-70914286D01*
X91380952Y-70914286D01*
X91190476Y-70961905D01*
X91095238Y-71009524D01*
X91000000Y-71104762D01*
X90952381Y-71247620D01*
X90952381Y-71342858D01*
X91000000Y-71485715D01*
X91047619Y-71533334D01*
X91952381Y-71961905D02*
X90952381Y-71961905D01*
X91428571Y-71961905D02*
X91428571Y-72533334D01*
X91952381Y-72533334D02*
X90952381Y-72533334D01*
X90952381Y-72914286D02*
X90952381Y-73533334D01*
X91333333Y-73200000D01*
X91333333Y-73342858D01*
X91380952Y-73438096D01*
X91428571Y-73485715D01*
X91523810Y-73533334D01*
X91761905Y-73533334D01*
X91857143Y-73485715D01*
X91904762Y-73438096D01*
X91952381Y-73342858D01*
X91952381Y-73057143D01*
X91904762Y-72961905D01*
X91857143Y-72914286D01*
X90952381Y-73866667D02*
X90952381Y-74533334D01*
X91952381Y-74104762D01*
X91497143Y-86023334D02*
X91544762Y-85975715D01*
X91592381Y-85832858D01*
X91592381Y-85737620D01*
X91544762Y-85594762D01*
X91449524Y-85499524D01*
X91354286Y-85451905D01*
X91163810Y-85404286D01*
X91020952Y-85404286D01*
X90830476Y-85451905D01*
X90735238Y-85499524D01*
X90640000Y-85594762D01*
X90592381Y-85737620D01*
X90592381Y-85832858D01*
X90640000Y-85975715D01*
X90687619Y-86023334D01*
X91592381Y-86451905D02*
X90592381Y-86451905D01*
X91068571Y-86451905D02*
X91068571Y-87023334D01*
X91592381Y-87023334D02*
X90592381Y-87023334D01*
X90592381Y-87404286D02*
X90592381Y-88023334D01*
X90973333Y-87690000D01*
X90973333Y-87832858D01*
X91020952Y-87928096D01*
X91068571Y-87975715D01*
X91163810Y-88023334D01*
X91401905Y-88023334D01*
X91497143Y-87975715D01*
X91544762Y-87928096D01*
X91592381Y-87832858D01*
X91592381Y-87547143D01*
X91544762Y-87451905D01*
X91497143Y-87404286D01*
X91592381Y-88499524D02*
X91592381Y-88690000D01*
X91544762Y-88785239D01*
X91497143Y-88832858D01*
X91354286Y-88928096D01*
X91163810Y-88975715D01*
X90782857Y-88975715D01*
X90687619Y-88928096D01*
X90640000Y-88880477D01*
X90592381Y-88785239D01*
X90592381Y-88594762D01*
X90640000Y-88499524D01*
X90687619Y-88451905D01*
X90782857Y-88404286D01*
X91020952Y-88404286D01*
X91116190Y-88451905D01*
X91163810Y-88499524D01*
X91211429Y-88594762D01*
X91211429Y-88785239D01*
X91163810Y-88880477D01*
X91116190Y-88928096D01*
X91020952Y-88975715D01*
D15*
X29533619Y-96199143D02*
X30356095Y-96199143D01*
X30452857Y-96253571D01*
X30501238Y-96308000D01*
X30549619Y-96416857D01*
X30549619Y-96634571D01*
X30501238Y-96743429D01*
X30452857Y-96797857D01*
X30356095Y-96852286D01*
X29533619Y-96852286D01*
X30549619Y-97995286D02*
X30549619Y-97342143D01*
X30549619Y-97668715D02*
X29533619Y-97668715D01*
X29678762Y-97559858D01*
X29775524Y-97451000D01*
X29823905Y-97342143D01*
X44263619Y-96339143D02*
X45086095Y-96339143D01*
X45182857Y-96393571D01*
X45231238Y-96448000D01*
X45279619Y-96556857D01*
X45279619Y-96774571D01*
X45231238Y-96883429D01*
X45182857Y-96937857D01*
X45086095Y-96992286D01*
X44263619Y-96992286D01*
X44360381Y-97482143D02*
X44312000Y-97536572D01*
X44263619Y-97645429D01*
X44263619Y-97917572D01*
X44312000Y-98026429D01*
X44360381Y-98080858D01*
X44457143Y-98135286D01*
X44553905Y-98135286D01*
X44699048Y-98080858D01*
X45279619Y-97427715D01*
X45279619Y-98135286D01*
X60153619Y-96639143D02*
X60976095Y-96639143D01*
X61072857Y-96693571D01*
X61121238Y-96748000D01*
X61169619Y-96856857D01*
X61169619Y-97074571D01*
X61121238Y-97183429D01*
X61072857Y-97237857D01*
X60976095Y-97292286D01*
X60153619Y-97292286D01*
X60153619Y-97727715D02*
X60153619Y-98435286D01*
X60540667Y-98054286D01*
X60540667Y-98217572D01*
X60589048Y-98326429D01*
X60637429Y-98380858D01*
X60734190Y-98435286D01*
X60976095Y-98435286D01*
X61072857Y-98380858D01*
X61121238Y-98326429D01*
X61169619Y-98217572D01*
X61169619Y-97891000D01*
X61121238Y-97782143D01*
X61072857Y-97727715D01*
X75343619Y-96729143D02*
X76166095Y-96729143D01*
X76262857Y-96783571D01*
X76311238Y-96838000D01*
X76359619Y-96946857D01*
X76359619Y-97164571D01*
X76311238Y-97273429D01*
X76262857Y-97327857D01*
X76166095Y-97382286D01*
X75343619Y-97382286D01*
X75682286Y-98416429D02*
X76359619Y-98416429D01*
X75295238Y-98144286D02*
X76020952Y-97872143D01*
X76020952Y-98579715D01*
X90673619Y-96789143D02*
X91496095Y-96789143D01*
X91592857Y-96843571D01*
X91641238Y-96898000D01*
X91689619Y-97006857D01*
X91689619Y-97224571D01*
X91641238Y-97333429D01*
X91592857Y-97387857D01*
X91496095Y-97442286D01*
X90673619Y-97442286D01*
X90673619Y-98530858D02*
X90673619Y-97986572D01*
X91157429Y-97932143D01*
X91109048Y-97986572D01*
X91060667Y-98095429D01*
X91060667Y-98367572D01*
X91109048Y-98476429D01*
X91157429Y-98530858D01*
X91254190Y-98585286D01*
X91496095Y-98585286D01*
X91592857Y-98530858D01*
X91641238Y-98476429D01*
X91689619Y-98367572D01*
X91689619Y-98095429D01*
X91641238Y-97986572D01*
X91592857Y-97932143D01*
D10*
X29446666Y-101717143D02*
X29494285Y-101764762D01*
X29637142Y-101812381D01*
X29732380Y-101812381D01*
X29875238Y-101764762D01*
X29970476Y-101669524D01*
X30018095Y-101574286D01*
X30065714Y-101383810D01*
X30065714Y-101240952D01*
X30018095Y-101050476D01*
X29970476Y-100955238D01*
X29875238Y-100860000D01*
X29732380Y-100812381D01*
X29637142Y-100812381D01*
X29494285Y-100860000D01*
X29446666Y-100907619D01*
X28494285Y-101812381D02*
X29065714Y-101812381D01*
X28780000Y-101812381D02*
X28780000Y-100812381D01*
X28875238Y-100955238D01*
X28970476Y-101050476D01*
X29065714Y-101098095D01*
X75076666Y-101517143D02*
X75124285Y-101564762D01*
X75267142Y-101612381D01*
X75362380Y-101612381D01*
X75505238Y-101564762D01*
X75600476Y-101469524D01*
X75648095Y-101374286D01*
X75695714Y-101183810D01*
X75695714Y-101040952D01*
X75648095Y-100850476D01*
X75600476Y-100755238D01*
X75505238Y-100660000D01*
X75362380Y-100612381D01*
X75267142Y-100612381D01*
X75124285Y-100660000D01*
X75076666Y-100707619D01*
X74171904Y-100612381D02*
X74648095Y-100612381D01*
X74695714Y-101088571D01*
X74648095Y-101040952D01*
X74552857Y-100993333D01*
X74314761Y-100993333D01*
X74219523Y-101040952D01*
X74171904Y-101088571D01*
X74124285Y-101183810D01*
X74124285Y-101421905D01*
X74171904Y-101517143D01*
X74219523Y-101564762D01*
X74314761Y-101612381D01*
X74552857Y-101612381D01*
X74648095Y-101564762D01*
X74695714Y-101517143D01*
X43676666Y-101297143D02*
X43724285Y-101344762D01*
X43867142Y-101392381D01*
X43962380Y-101392381D01*
X44105238Y-101344762D01*
X44200476Y-101249524D01*
X44248095Y-101154286D01*
X44295714Y-100963810D01*
X44295714Y-100820952D01*
X44248095Y-100630476D01*
X44200476Y-100535238D01*
X44105238Y-100440000D01*
X43962380Y-100392381D01*
X43867142Y-100392381D01*
X43724285Y-100440000D01*
X43676666Y-100487619D01*
X43105238Y-100820952D02*
X43200476Y-100773333D01*
X43248095Y-100725714D01*
X43295714Y-100630476D01*
X43295714Y-100582857D01*
X43248095Y-100487619D01*
X43200476Y-100440000D01*
X43105238Y-100392381D01*
X42914761Y-100392381D01*
X42819523Y-100440000D01*
X42771904Y-100487619D01*
X42724285Y-100582857D01*
X42724285Y-100630476D01*
X42771904Y-100725714D01*
X42819523Y-100773333D01*
X42914761Y-100820952D01*
X43105238Y-100820952D01*
X43200476Y-100868571D01*
X43248095Y-100916190D01*
X43295714Y-101011429D01*
X43295714Y-101201905D01*
X43248095Y-101297143D01*
X43200476Y-101344762D01*
X43105238Y-101392381D01*
X42914761Y-101392381D01*
X42819523Y-101344762D01*
X42771904Y-101297143D01*
X42724285Y-101201905D01*
X42724285Y-101011429D01*
X42771904Y-100916190D01*
X42819523Y-100868571D01*
X42914761Y-100820952D01*
X90356666Y-101627143D02*
X90404285Y-101674762D01*
X90547142Y-101722381D01*
X90642380Y-101722381D01*
X90785238Y-101674762D01*
X90880476Y-101579524D01*
X90928095Y-101484286D01*
X90975714Y-101293810D01*
X90975714Y-101150952D01*
X90928095Y-100960476D01*
X90880476Y-100865238D01*
X90785238Y-100770000D01*
X90642380Y-100722381D01*
X90547142Y-100722381D01*
X90404285Y-100770000D01*
X90356666Y-100817619D01*
X89880476Y-101722381D02*
X89690000Y-101722381D01*
X89594761Y-101674762D01*
X89547142Y-101627143D01*
X89451904Y-101484286D01*
X89404285Y-101293810D01*
X89404285Y-100912857D01*
X89451904Y-100817619D01*
X89499523Y-100770000D01*
X89594761Y-100722381D01*
X89785238Y-100722381D01*
X89880476Y-100770000D01*
X89928095Y-100817619D01*
X89975714Y-100912857D01*
X89975714Y-101150952D01*
X89928095Y-101246190D01*
X89880476Y-101293810D01*
X89785238Y-101341429D01*
X89594761Y-101341429D01*
X89499523Y-101293810D01*
X89451904Y-101246190D01*
X89404285Y-101150952D01*
X60322857Y-101577143D02*
X60370476Y-101624762D01*
X60513333Y-101672381D01*
X60608571Y-101672381D01*
X60751429Y-101624762D01*
X60846667Y-101529524D01*
X60894286Y-101434286D01*
X60941905Y-101243810D01*
X60941905Y-101100952D01*
X60894286Y-100910476D01*
X60846667Y-100815238D01*
X60751429Y-100720000D01*
X60608571Y-100672381D01*
X60513333Y-100672381D01*
X60370476Y-100720000D01*
X60322857Y-100767619D01*
X59370476Y-101672381D02*
X59941905Y-101672381D01*
X59656191Y-101672381D02*
X59656191Y-100672381D01*
X59751429Y-100815238D01*
X59846667Y-100910476D01*
X59941905Y-100958095D01*
X58989524Y-100767619D02*
X58941905Y-100720000D01*
X58846667Y-100672381D01*
X58608571Y-100672381D01*
X58513333Y-100720000D01*
X58465714Y-100767619D01*
X58418095Y-100862857D01*
X58418095Y-100958095D01*
X58465714Y-101100952D01*
X59037143Y-101672381D01*
X58418095Y-101672381D01*
X49942857Y-112857143D02*
X49990476Y-112904762D01*
X50133333Y-112952381D01*
X50228571Y-112952381D01*
X50371429Y-112904762D01*
X50466667Y-112809524D01*
X50514286Y-112714286D01*
X50561905Y-112523810D01*
X50561905Y-112380952D01*
X50514286Y-112190476D01*
X50466667Y-112095238D01*
X50371429Y-112000000D01*
X50228571Y-111952381D01*
X50133333Y-111952381D01*
X49990476Y-112000000D01*
X49942857Y-112047619D01*
X48990476Y-112952381D02*
X49561905Y-112952381D01*
X49276191Y-112952381D02*
X49276191Y-111952381D01*
X49371429Y-112095238D01*
X49466667Y-112190476D01*
X49561905Y-112238095D01*
X48657143Y-111952381D02*
X48038095Y-111952381D01*
X48371429Y-112333333D01*
X48228571Y-112333333D01*
X48133333Y-112380952D01*
X48085714Y-112428571D01*
X48038095Y-112523810D01*
X48038095Y-112761905D01*
X48085714Y-112857143D01*
X48133333Y-112904762D01*
X48228571Y-112952381D01*
X48514286Y-112952381D01*
X48609524Y-112904762D01*
X48657143Y-112857143D01*
X35262381Y-50323334D02*
X34786190Y-49990000D01*
X35262381Y-49751905D02*
X34262381Y-49751905D01*
X34262381Y-50132858D01*
X34310000Y-50228096D01*
X34357619Y-50275715D01*
X34452857Y-50323334D01*
X34595714Y-50323334D01*
X34690952Y-50275715D01*
X34738571Y-50228096D01*
X34786190Y-50132858D01*
X34786190Y-49751905D01*
X35262381Y-51275715D02*
X35262381Y-50704286D01*
X35262381Y-50990000D02*
X34262381Y-50990000D01*
X34405238Y-50894762D01*
X34500476Y-50799524D01*
X34548095Y-50704286D01*
X35382381Y-64893334D02*
X34906190Y-64560000D01*
X35382381Y-64321905D02*
X34382381Y-64321905D01*
X34382381Y-64702858D01*
X34430000Y-64798096D01*
X34477619Y-64845715D01*
X34572857Y-64893334D01*
X34715714Y-64893334D01*
X34810952Y-64845715D01*
X34858571Y-64798096D01*
X34906190Y-64702858D01*
X34906190Y-64321905D01*
X34382381Y-65750477D02*
X34382381Y-65560000D01*
X34430000Y-65464762D01*
X34477619Y-65417143D01*
X34620476Y-65321905D01*
X34810952Y-65274286D01*
X35191905Y-65274286D01*
X35287143Y-65321905D01*
X35334762Y-65369524D01*
X35382381Y-65464762D01*
X35382381Y-65655239D01*
X35334762Y-65750477D01*
X35287143Y-65798096D01*
X35191905Y-65845715D01*
X34953810Y-65845715D01*
X34858571Y-65798096D01*
X34810952Y-65750477D01*
X34763333Y-65655239D01*
X34763333Y-65464762D01*
X34810952Y-65369524D01*
X34858571Y-65321905D01*
X34953810Y-65274286D01*
X50542381Y-49547143D02*
X50066190Y-49213809D01*
X50542381Y-48975714D02*
X49542381Y-48975714D01*
X49542381Y-49356667D01*
X49590000Y-49451905D01*
X49637619Y-49499524D01*
X49732857Y-49547143D01*
X49875714Y-49547143D01*
X49970952Y-49499524D01*
X50018571Y-49451905D01*
X50066190Y-49356667D01*
X50066190Y-48975714D01*
X50542381Y-50499524D02*
X50542381Y-49928095D01*
X50542381Y-50213809D02*
X49542381Y-50213809D01*
X49685238Y-50118571D01*
X49780476Y-50023333D01*
X49828095Y-49928095D01*
X49542381Y-50832857D02*
X49542381Y-51451905D01*
X49923333Y-51118571D01*
X49923333Y-51261429D01*
X49970952Y-51356667D01*
X50018571Y-51404286D01*
X50113810Y-51451905D01*
X50351905Y-51451905D01*
X50447143Y-51404286D01*
X50494762Y-51356667D01*
X50542381Y-51261429D01*
X50542381Y-50975714D01*
X50494762Y-50880476D01*
X50447143Y-50832857D01*
X50652381Y-64067143D02*
X50176190Y-63733809D01*
X50652381Y-63495714D02*
X49652381Y-63495714D01*
X49652381Y-63876667D01*
X49700000Y-63971905D01*
X49747619Y-64019524D01*
X49842857Y-64067143D01*
X49985714Y-64067143D01*
X50080952Y-64019524D01*
X50128571Y-63971905D01*
X50176190Y-63876667D01*
X50176190Y-63495714D01*
X50652381Y-65019524D02*
X50652381Y-64448095D01*
X50652381Y-64733809D02*
X49652381Y-64733809D01*
X49795238Y-64638571D01*
X49890476Y-64543333D01*
X49938095Y-64448095D01*
X50080952Y-65590952D02*
X50033333Y-65495714D01*
X49985714Y-65448095D01*
X49890476Y-65400476D01*
X49842857Y-65400476D01*
X49747619Y-65448095D01*
X49700000Y-65495714D01*
X49652381Y-65590952D01*
X49652381Y-65781429D01*
X49700000Y-65876667D01*
X49747619Y-65924286D01*
X49842857Y-65971905D01*
X49890476Y-65971905D01*
X49985714Y-65924286D01*
X50033333Y-65876667D01*
X50080952Y-65781429D01*
X50080952Y-65590952D01*
X50128571Y-65495714D01*
X50176190Y-65448095D01*
X50271429Y-65400476D01*
X50461905Y-65400476D01*
X50557143Y-65448095D01*
X50604762Y-65495714D01*
X50652381Y-65590952D01*
X50652381Y-65781429D01*
X50604762Y-65876667D01*
X50557143Y-65924286D01*
X50461905Y-65971905D01*
X50271429Y-65971905D01*
X50176190Y-65924286D01*
X50128571Y-65876667D01*
X50080952Y-65781429D01*
X65862381Y-64057143D02*
X65386190Y-63723809D01*
X65862381Y-63485714D02*
X64862381Y-63485714D01*
X64862381Y-63866667D01*
X64910000Y-63961905D01*
X64957619Y-64009524D01*
X65052857Y-64057143D01*
X65195714Y-64057143D01*
X65290952Y-64009524D01*
X65338571Y-63961905D01*
X65386190Y-63866667D01*
X65386190Y-63485714D01*
X64862381Y-64390476D02*
X64862381Y-65009524D01*
X65243333Y-64676190D01*
X65243333Y-64819048D01*
X65290952Y-64914286D01*
X65338571Y-64961905D01*
X65433810Y-65009524D01*
X65671905Y-65009524D01*
X65767143Y-64961905D01*
X65814762Y-64914286D01*
X65862381Y-64819048D01*
X65862381Y-64533333D01*
X65814762Y-64438095D01*
X65767143Y-64390476D01*
X64862381Y-65628571D02*
X64862381Y-65723810D01*
X64910000Y-65819048D01*
X64957619Y-65866667D01*
X65052857Y-65914286D01*
X65243333Y-65961905D01*
X65481429Y-65961905D01*
X65671905Y-65914286D01*
X65767143Y-65866667D01*
X65814762Y-65819048D01*
X65862381Y-65723810D01*
X65862381Y-65628571D01*
X65814762Y-65533333D01*
X65767143Y-65485714D01*
X65671905Y-65438095D01*
X65481429Y-65390476D01*
X65243333Y-65390476D01*
X65052857Y-65438095D01*
X64957619Y-65485714D01*
X64910000Y-65533333D01*
X64862381Y-65628571D01*
X81082381Y-49527143D02*
X80606190Y-49193809D01*
X81082381Y-48955714D02*
X80082381Y-48955714D01*
X80082381Y-49336667D01*
X80130000Y-49431905D01*
X80177619Y-49479524D01*
X80272857Y-49527143D01*
X80415714Y-49527143D01*
X80510952Y-49479524D01*
X80558571Y-49431905D01*
X80606190Y-49336667D01*
X80606190Y-48955714D01*
X80082381Y-49860476D02*
X80082381Y-50479524D01*
X80463333Y-50146190D01*
X80463333Y-50289048D01*
X80510952Y-50384286D01*
X80558571Y-50431905D01*
X80653810Y-50479524D01*
X80891905Y-50479524D01*
X80987143Y-50431905D01*
X81034762Y-50384286D01*
X81082381Y-50289048D01*
X81082381Y-50003333D01*
X81034762Y-49908095D01*
X80987143Y-49860476D01*
X80082381Y-50812857D02*
X80082381Y-51479524D01*
X81082381Y-51050952D01*
X81082381Y-64097143D02*
X80606190Y-63763809D01*
X81082381Y-63525714D02*
X80082381Y-63525714D01*
X80082381Y-63906667D01*
X80130000Y-64001905D01*
X80177619Y-64049524D01*
X80272857Y-64097143D01*
X80415714Y-64097143D01*
X80510952Y-64049524D01*
X80558571Y-64001905D01*
X80606190Y-63906667D01*
X80606190Y-63525714D01*
X80415714Y-64954286D02*
X81082381Y-64954286D01*
X80034762Y-64716190D02*
X80749048Y-64478095D01*
X80749048Y-65097143D01*
X80177619Y-65430476D02*
X80130000Y-65478095D01*
X80082381Y-65573333D01*
X80082381Y-65811429D01*
X80130000Y-65906667D01*
X80177619Y-65954286D01*
X80272857Y-66001905D01*
X80368095Y-66001905D01*
X80510952Y-65954286D01*
X81082381Y-65382857D01*
X81082381Y-66001905D01*
X98952381Y-106957143D02*
X98476190Y-106623809D01*
X98952381Y-106385714D02*
X97952381Y-106385714D01*
X97952381Y-106766667D01*
X98000000Y-106861905D01*
X98047619Y-106909524D01*
X98142857Y-106957143D01*
X98285714Y-106957143D01*
X98380952Y-106909524D01*
X98428571Y-106861905D01*
X98476190Y-106766667D01*
X98476190Y-106385714D01*
X98285714Y-107814286D02*
X98952381Y-107814286D01*
X97904762Y-107576190D02*
X98619048Y-107338095D01*
X98619048Y-107957143D01*
X97952381Y-108814286D02*
X97952381Y-108338095D01*
X98428571Y-108290476D01*
X98380952Y-108338095D01*
X98333333Y-108433333D01*
X98333333Y-108671429D01*
X98380952Y-108766667D01*
X98428571Y-108814286D01*
X98523810Y-108861905D01*
X98761905Y-108861905D01*
X98857143Y-108814286D01*
X98904762Y-108766667D01*
X98952381Y-108671429D01*
X98952381Y-108433333D01*
X98904762Y-108338095D01*
X98857143Y-108290476D01*
X96342381Y-49547143D02*
X95866190Y-49213809D01*
X96342381Y-48975714D02*
X95342381Y-48975714D01*
X95342381Y-49356667D01*
X95390000Y-49451905D01*
X95437619Y-49499524D01*
X95532857Y-49547143D01*
X95675714Y-49547143D01*
X95770952Y-49499524D01*
X95818571Y-49451905D01*
X95866190Y-49356667D01*
X95866190Y-48975714D01*
X95342381Y-50451905D02*
X95342381Y-49975714D01*
X95818571Y-49928095D01*
X95770952Y-49975714D01*
X95723333Y-50070952D01*
X95723333Y-50309048D01*
X95770952Y-50404286D01*
X95818571Y-50451905D01*
X95913810Y-50499524D01*
X96151905Y-50499524D01*
X96247143Y-50451905D01*
X96294762Y-50404286D01*
X96342381Y-50309048D01*
X96342381Y-50070952D01*
X96294762Y-49975714D01*
X96247143Y-49928095D01*
X96342381Y-51451905D02*
X96342381Y-50880476D01*
X96342381Y-51166190D02*
X95342381Y-51166190D01*
X95485238Y-51070952D01*
X95580476Y-50975714D01*
X95628095Y-50880476D01*
X96352381Y-64087143D02*
X95876190Y-63753809D01*
X96352381Y-63515714D02*
X95352381Y-63515714D01*
X95352381Y-63896667D01*
X95400000Y-63991905D01*
X95447619Y-64039524D01*
X95542857Y-64087143D01*
X95685714Y-64087143D01*
X95780952Y-64039524D01*
X95828571Y-63991905D01*
X95876190Y-63896667D01*
X95876190Y-63515714D01*
X95352381Y-64991905D02*
X95352381Y-64515714D01*
X95828571Y-64468095D01*
X95780952Y-64515714D01*
X95733333Y-64610952D01*
X95733333Y-64849048D01*
X95780952Y-64944286D01*
X95828571Y-64991905D01*
X95923810Y-65039524D01*
X96161905Y-65039524D01*
X96257143Y-64991905D01*
X96304762Y-64944286D01*
X96352381Y-64849048D01*
X96352381Y-64610952D01*
X96304762Y-64515714D01*
X96257143Y-64468095D01*
X95352381Y-65896667D02*
X95352381Y-65706190D01*
X95400000Y-65610952D01*
X95447619Y-65563333D01*
X95590476Y-65468095D01*
X95780952Y-65420476D01*
X96161905Y-65420476D01*
X96257143Y-65468095D01*
X96304762Y-65515714D01*
X96352381Y-65610952D01*
X96352381Y-65801429D01*
X96304762Y-65896667D01*
X96257143Y-65944286D01*
X96161905Y-65991905D01*
X95923810Y-65991905D01*
X95828571Y-65944286D01*
X95780952Y-65896667D01*
X95733333Y-65801429D01*
X95733333Y-65610952D01*
X95780952Y-65515714D01*
X95828571Y-65468095D01*
X95923810Y-65420476D01*
X31442381Y-35747143D02*
X30966190Y-35413809D01*
X31442381Y-35175714D02*
X30442381Y-35175714D01*
X30442381Y-35556667D01*
X30490000Y-35651905D01*
X30537619Y-35699524D01*
X30632857Y-35747143D01*
X30775714Y-35747143D01*
X30870952Y-35699524D01*
X30918571Y-35651905D01*
X30966190Y-35556667D01*
X30966190Y-35175714D01*
X30442381Y-36604286D02*
X30442381Y-36413809D01*
X30490000Y-36318571D01*
X30537619Y-36270952D01*
X30680476Y-36175714D01*
X30870952Y-36128095D01*
X31251905Y-36128095D01*
X31347143Y-36175714D01*
X31394762Y-36223333D01*
X31442381Y-36318571D01*
X31442381Y-36509048D01*
X31394762Y-36604286D01*
X31347143Y-36651905D01*
X31251905Y-36699524D01*
X31013810Y-36699524D01*
X30918571Y-36651905D01*
X30870952Y-36604286D01*
X30823333Y-36509048D01*
X30823333Y-36318571D01*
X30870952Y-36223333D01*
X30918571Y-36175714D01*
X31013810Y-36128095D01*
X30442381Y-37032857D02*
X30442381Y-37651905D01*
X30823333Y-37318571D01*
X30823333Y-37461429D01*
X30870952Y-37556667D01*
X30918571Y-37604286D01*
X31013810Y-37651905D01*
X31251905Y-37651905D01*
X31347143Y-37604286D01*
X31394762Y-37556667D01*
X31442381Y-37461429D01*
X31442381Y-37175714D01*
X31394762Y-37080476D01*
X31347143Y-37032857D01*
X35262381Y-34917143D02*
X34786190Y-34583809D01*
X35262381Y-34345714D02*
X34262381Y-34345714D01*
X34262381Y-34726667D01*
X34310000Y-34821905D01*
X34357619Y-34869524D01*
X34452857Y-34917143D01*
X34595714Y-34917143D01*
X34690952Y-34869524D01*
X34738571Y-34821905D01*
X34786190Y-34726667D01*
X34786190Y-34345714D01*
X34262381Y-35774286D02*
X34262381Y-35583809D01*
X34310000Y-35488571D01*
X34357619Y-35440952D01*
X34500476Y-35345714D01*
X34690952Y-35298095D01*
X35071905Y-35298095D01*
X35167143Y-35345714D01*
X35214762Y-35393333D01*
X35262381Y-35488571D01*
X35262381Y-35679048D01*
X35214762Y-35774286D01*
X35167143Y-35821905D01*
X35071905Y-35869524D01*
X34833810Y-35869524D01*
X34738571Y-35821905D01*
X34690952Y-35774286D01*
X34643333Y-35679048D01*
X34643333Y-35488571D01*
X34690952Y-35393333D01*
X34738571Y-35345714D01*
X34833810Y-35298095D01*
X34595714Y-36726667D02*
X35262381Y-36726667D01*
X34214762Y-36488571D02*
X34929048Y-36250476D01*
X34929048Y-36869524D01*
X31382381Y-50217143D02*
X30906190Y-49883809D01*
X31382381Y-49645714D02*
X30382381Y-49645714D01*
X30382381Y-50026667D01*
X30430000Y-50121905D01*
X30477619Y-50169524D01*
X30572857Y-50217143D01*
X30715714Y-50217143D01*
X30810952Y-50169524D01*
X30858571Y-50121905D01*
X30906190Y-50026667D01*
X30906190Y-49645714D01*
X30382381Y-51074286D02*
X30382381Y-50883809D01*
X30430000Y-50788571D01*
X30477619Y-50740952D01*
X30620476Y-50645714D01*
X30810952Y-50598095D01*
X31191905Y-50598095D01*
X31287143Y-50645714D01*
X31334762Y-50693333D01*
X31382381Y-50788571D01*
X31382381Y-50979048D01*
X31334762Y-51074286D01*
X31287143Y-51121905D01*
X31191905Y-51169524D01*
X30953810Y-51169524D01*
X30858571Y-51121905D01*
X30810952Y-51074286D01*
X30763333Y-50979048D01*
X30763333Y-50788571D01*
X30810952Y-50693333D01*
X30858571Y-50645714D01*
X30953810Y-50598095D01*
X30382381Y-52074286D02*
X30382381Y-51598095D01*
X30858571Y-51550476D01*
X30810952Y-51598095D01*
X30763333Y-51693333D01*
X30763333Y-51931429D01*
X30810952Y-52026667D01*
X30858571Y-52074286D01*
X30953810Y-52121905D01*
X31191905Y-52121905D01*
X31287143Y-52074286D01*
X31334762Y-52026667D01*
X31382381Y-51931429D01*
X31382381Y-51693333D01*
X31334762Y-51598095D01*
X31287143Y-51550476D01*
X31542381Y-64737143D02*
X31066190Y-64403809D01*
X31542381Y-64165714D02*
X30542381Y-64165714D01*
X30542381Y-64546667D01*
X30590000Y-64641905D01*
X30637619Y-64689524D01*
X30732857Y-64737143D01*
X30875714Y-64737143D01*
X30970952Y-64689524D01*
X31018571Y-64641905D01*
X31066190Y-64546667D01*
X31066190Y-64165714D01*
X30542381Y-65594286D02*
X30542381Y-65403809D01*
X30590000Y-65308571D01*
X30637619Y-65260952D01*
X30780476Y-65165714D01*
X30970952Y-65118095D01*
X31351905Y-65118095D01*
X31447143Y-65165714D01*
X31494762Y-65213333D01*
X31542381Y-65308571D01*
X31542381Y-65499048D01*
X31494762Y-65594286D01*
X31447143Y-65641905D01*
X31351905Y-65689524D01*
X31113810Y-65689524D01*
X31018571Y-65641905D01*
X30970952Y-65594286D01*
X30923333Y-65499048D01*
X30923333Y-65308571D01*
X30970952Y-65213333D01*
X31018571Y-65165714D01*
X31113810Y-65118095D01*
X30542381Y-66546667D02*
X30542381Y-66356190D01*
X30590000Y-66260952D01*
X30637619Y-66213333D01*
X30780476Y-66118095D01*
X30970952Y-66070476D01*
X31351905Y-66070476D01*
X31447143Y-66118095D01*
X31494762Y-66165714D01*
X31542381Y-66260952D01*
X31542381Y-66451429D01*
X31494762Y-66546667D01*
X31447143Y-66594286D01*
X31351905Y-66641905D01*
X31113810Y-66641905D01*
X31018571Y-66594286D01*
X30970952Y-66546667D01*
X30923333Y-66451429D01*
X30923333Y-66260952D01*
X30970952Y-66165714D01*
X31018571Y-66118095D01*
X31113810Y-66070476D01*
X31542381Y-79237143D02*
X31066190Y-78903809D01*
X31542381Y-78665714D02*
X30542381Y-78665714D01*
X30542381Y-79046667D01*
X30590000Y-79141905D01*
X30637619Y-79189524D01*
X30732857Y-79237143D01*
X30875714Y-79237143D01*
X30970952Y-79189524D01*
X31018571Y-79141905D01*
X31066190Y-79046667D01*
X31066190Y-78665714D01*
X30542381Y-80094286D02*
X30542381Y-79903809D01*
X30590000Y-79808571D01*
X30637619Y-79760952D01*
X30780476Y-79665714D01*
X30970952Y-79618095D01*
X31351905Y-79618095D01*
X31447143Y-79665714D01*
X31494762Y-79713333D01*
X31542381Y-79808571D01*
X31542381Y-79999048D01*
X31494762Y-80094286D01*
X31447143Y-80141905D01*
X31351905Y-80189524D01*
X31113810Y-80189524D01*
X31018571Y-80141905D01*
X30970952Y-80094286D01*
X30923333Y-79999048D01*
X30923333Y-79808571D01*
X30970952Y-79713333D01*
X31018571Y-79665714D01*
X31113810Y-79618095D01*
X30542381Y-80522857D02*
X30542381Y-81189524D01*
X31542381Y-80760952D01*
X35382381Y-78547143D02*
X34906190Y-78213809D01*
X35382381Y-77975714D02*
X34382381Y-77975714D01*
X34382381Y-78356667D01*
X34430000Y-78451905D01*
X34477619Y-78499524D01*
X34572857Y-78547143D01*
X34715714Y-78547143D01*
X34810952Y-78499524D01*
X34858571Y-78451905D01*
X34906190Y-78356667D01*
X34906190Y-77975714D01*
X34382381Y-79404286D02*
X34382381Y-79213809D01*
X34430000Y-79118571D01*
X34477619Y-79070952D01*
X34620476Y-78975714D01*
X34810952Y-78928095D01*
X35191905Y-78928095D01*
X35287143Y-78975714D01*
X35334762Y-79023333D01*
X35382381Y-79118571D01*
X35382381Y-79309048D01*
X35334762Y-79404286D01*
X35287143Y-79451905D01*
X35191905Y-79499524D01*
X34953810Y-79499524D01*
X34858571Y-79451905D01*
X34810952Y-79404286D01*
X34763333Y-79309048D01*
X34763333Y-79118571D01*
X34810952Y-79023333D01*
X34858571Y-78975714D01*
X34953810Y-78928095D01*
X34810952Y-80070952D02*
X34763333Y-79975714D01*
X34715714Y-79928095D01*
X34620476Y-79880476D01*
X34572857Y-79880476D01*
X34477619Y-79928095D01*
X34430000Y-79975714D01*
X34382381Y-80070952D01*
X34382381Y-80261429D01*
X34430000Y-80356667D01*
X34477619Y-80404286D01*
X34572857Y-80451905D01*
X34620476Y-80451905D01*
X34715714Y-80404286D01*
X34763333Y-80356667D01*
X34810952Y-80261429D01*
X34810952Y-80070952D01*
X34858571Y-79975714D01*
X34906190Y-79928095D01*
X35001429Y-79880476D01*
X35191905Y-79880476D01*
X35287143Y-79928095D01*
X35334762Y-79975714D01*
X35382381Y-80070952D01*
X35382381Y-80261429D01*
X35334762Y-80356667D01*
X35287143Y-80404286D01*
X35191905Y-80451905D01*
X35001429Y-80451905D01*
X34906190Y-80404286D01*
X34858571Y-80356667D01*
X34810952Y-80261429D01*
X42432381Y-35827143D02*
X41956190Y-35493809D01*
X42432381Y-35255714D02*
X41432381Y-35255714D01*
X41432381Y-35636667D01*
X41480000Y-35731905D01*
X41527619Y-35779524D01*
X41622857Y-35827143D01*
X41765714Y-35827143D01*
X41860952Y-35779524D01*
X41908571Y-35731905D01*
X41956190Y-35636667D01*
X41956190Y-35255714D01*
X41432381Y-36684286D02*
X41432381Y-36493809D01*
X41480000Y-36398571D01*
X41527619Y-36350952D01*
X41670476Y-36255714D01*
X41860952Y-36208095D01*
X42241905Y-36208095D01*
X42337143Y-36255714D01*
X42384762Y-36303333D01*
X42432381Y-36398571D01*
X42432381Y-36589048D01*
X42384762Y-36684286D01*
X42337143Y-36731905D01*
X42241905Y-36779524D01*
X42003810Y-36779524D01*
X41908571Y-36731905D01*
X41860952Y-36684286D01*
X41813333Y-36589048D01*
X41813333Y-36398571D01*
X41860952Y-36303333D01*
X41908571Y-36255714D01*
X42003810Y-36208095D01*
X42432381Y-37255714D02*
X42432381Y-37446190D01*
X42384762Y-37541429D01*
X42337143Y-37589048D01*
X42194286Y-37684286D01*
X42003810Y-37731905D01*
X41622857Y-37731905D01*
X41527619Y-37684286D01*
X41480000Y-37636667D01*
X41432381Y-37541429D01*
X41432381Y-37350952D01*
X41480000Y-37255714D01*
X41527619Y-37208095D01*
X41622857Y-37160476D01*
X41860952Y-37160476D01*
X41956190Y-37208095D01*
X42003810Y-37255714D01*
X42051429Y-37350952D01*
X42051429Y-37541429D01*
X42003810Y-37636667D01*
X41956190Y-37684286D01*
X41860952Y-37731905D01*
X42642381Y-50117143D02*
X42166190Y-49783809D01*
X42642381Y-49545714D02*
X41642381Y-49545714D01*
X41642381Y-49926667D01*
X41690000Y-50021905D01*
X41737619Y-50069524D01*
X41832857Y-50117143D01*
X41975714Y-50117143D01*
X42070952Y-50069524D01*
X42118571Y-50021905D01*
X42166190Y-49926667D01*
X42166190Y-49545714D01*
X41642381Y-50450476D02*
X41642381Y-51117143D01*
X42642381Y-50688571D01*
X42642381Y-52021905D02*
X42642381Y-51450476D01*
X42642381Y-51736190D02*
X41642381Y-51736190D01*
X41785238Y-51640952D01*
X41880476Y-51545714D01*
X41928095Y-51450476D01*
X42402381Y-64717143D02*
X41926190Y-64383809D01*
X42402381Y-64145714D02*
X41402381Y-64145714D01*
X41402381Y-64526667D01*
X41450000Y-64621905D01*
X41497619Y-64669524D01*
X41592857Y-64717143D01*
X41735714Y-64717143D01*
X41830952Y-64669524D01*
X41878571Y-64621905D01*
X41926190Y-64526667D01*
X41926190Y-64145714D01*
X41402381Y-65050476D02*
X41402381Y-65717143D01*
X42402381Y-65288571D01*
X41497619Y-66050476D02*
X41450000Y-66098095D01*
X41402381Y-66193333D01*
X41402381Y-66431429D01*
X41450000Y-66526667D01*
X41497619Y-66574286D01*
X41592857Y-66621905D01*
X41688095Y-66621905D01*
X41830952Y-66574286D01*
X42402381Y-66002857D01*
X42402381Y-66621905D01*
X42362381Y-79227143D02*
X41886190Y-78893809D01*
X42362381Y-78655714D02*
X41362381Y-78655714D01*
X41362381Y-79036667D01*
X41410000Y-79131905D01*
X41457619Y-79179524D01*
X41552857Y-79227143D01*
X41695714Y-79227143D01*
X41790952Y-79179524D01*
X41838571Y-79131905D01*
X41886190Y-79036667D01*
X41886190Y-78655714D01*
X41362381Y-79560476D02*
X41362381Y-80227143D01*
X42362381Y-79798571D01*
X41362381Y-80512857D02*
X41362381Y-81131905D01*
X41743333Y-80798571D01*
X41743333Y-80941429D01*
X41790952Y-81036667D01*
X41838571Y-81084286D01*
X41933810Y-81131905D01*
X42171905Y-81131905D01*
X42267143Y-81084286D01*
X42314762Y-81036667D01*
X42362381Y-80941429D01*
X42362381Y-80655714D01*
X42314762Y-80560476D01*
X42267143Y-80512857D01*
X50642381Y-34977143D02*
X50166190Y-34643809D01*
X50642381Y-34405714D02*
X49642381Y-34405714D01*
X49642381Y-34786667D01*
X49690000Y-34881905D01*
X49737619Y-34929524D01*
X49832857Y-34977143D01*
X49975714Y-34977143D01*
X50070952Y-34929524D01*
X50118571Y-34881905D01*
X50166190Y-34786667D01*
X50166190Y-34405714D01*
X49642381Y-35310476D02*
X49642381Y-35977143D01*
X50642381Y-35548571D01*
X49642381Y-36834286D02*
X49642381Y-36358095D01*
X50118571Y-36310476D01*
X50070952Y-36358095D01*
X50023333Y-36453333D01*
X50023333Y-36691429D01*
X50070952Y-36786667D01*
X50118571Y-36834286D01*
X50213810Y-36881905D01*
X50451905Y-36881905D01*
X50547143Y-36834286D01*
X50594762Y-36786667D01*
X50642381Y-36691429D01*
X50642381Y-36453333D01*
X50594762Y-36358095D01*
X50547143Y-36310476D01*
X46802381Y-35767143D02*
X46326190Y-35433809D01*
X46802381Y-35195714D02*
X45802381Y-35195714D01*
X45802381Y-35576667D01*
X45850000Y-35671905D01*
X45897619Y-35719524D01*
X45992857Y-35767143D01*
X46135714Y-35767143D01*
X46230952Y-35719524D01*
X46278571Y-35671905D01*
X46326190Y-35576667D01*
X46326190Y-35195714D01*
X45802381Y-36100476D02*
X45802381Y-36767143D01*
X46802381Y-36338571D01*
X45802381Y-37576667D02*
X45802381Y-37386190D01*
X45850000Y-37290952D01*
X45897619Y-37243333D01*
X46040476Y-37148095D01*
X46230952Y-37100476D01*
X46611905Y-37100476D01*
X46707143Y-37148095D01*
X46754762Y-37195714D01*
X46802381Y-37290952D01*
X46802381Y-37481429D01*
X46754762Y-37576667D01*
X46707143Y-37624286D01*
X46611905Y-37671905D01*
X46373810Y-37671905D01*
X46278571Y-37624286D01*
X46230952Y-37576667D01*
X46183333Y-37481429D01*
X46183333Y-37290952D01*
X46230952Y-37195714D01*
X46278571Y-37148095D01*
X46373810Y-37100476D01*
X46612381Y-50197143D02*
X46136190Y-49863809D01*
X46612381Y-49625714D02*
X45612381Y-49625714D01*
X45612381Y-50006667D01*
X45660000Y-50101905D01*
X45707619Y-50149524D01*
X45802857Y-50197143D01*
X45945714Y-50197143D01*
X46040952Y-50149524D01*
X46088571Y-50101905D01*
X46136190Y-50006667D01*
X46136190Y-49625714D01*
X45612381Y-50530476D02*
X45612381Y-51197143D01*
X46612381Y-50768571D01*
X45612381Y-51482857D02*
X45612381Y-52149524D01*
X46612381Y-51720952D01*
X46802381Y-64747143D02*
X46326190Y-64413809D01*
X46802381Y-64175714D02*
X45802381Y-64175714D01*
X45802381Y-64556667D01*
X45850000Y-64651905D01*
X45897619Y-64699524D01*
X45992857Y-64747143D01*
X46135714Y-64747143D01*
X46230952Y-64699524D01*
X46278571Y-64651905D01*
X46326190Y-64556667D01*
X46326190Y-64175714D01*
X45802381Y-65080476D02*
X45802381Y-65747143D01*
X46802381Y-65318571D01*
X46230952Y-66270952D02*
X46183333Y-66175714D01*
X46135714Y-66128095D01*
X46040476Y-66080476D01*
X45992857Y-66080476D01*
X45897619Y-66128095D01*
X45850000Y-66175714D01*
X45802381Y-66270952D01*
X45802381Y-66461429D01*
X45850000Y-66556667D01*
X45897619Y-66604286D01*
X45992857Y-66651905D01*
X46040476Y-66651905D01*
X46135714Y-66604286D01*
X46183333Y-66556667D01*
X46230952Y-66461429D01*
X46230952Y-66270952D01*
X46278571Y-66175714D01*
X46326190Y-66128095D01*
X46421429Y-66080476D01*
X46611905Y-66080476D01*
X46707143Y-66128095D01*
X46754762Y-66175714D01*
X46802381Y-66270952D01*
X46802381Y-66461429D01*
X46754762Y-66556667D01*
X46707143Y-66604286D01*
X46611905Y-66651905D01*
X46421429Y-66651905D01*
X46326190Y-66604286D01*
X46278571Y-66556667D01*
X46230952Y-66461429D01*
X46742381Y-79217143D02*
X46266190Y-78883809D01*
X46742381Y-78645714D02*
X45742381Y-78645714D01*
X45742381Y-79026667D01*
X45790000Y-79121905D01*
X45837619Y-79169524D01*
X45932857Y-79217143D01*
X46075714Y-79217143D01*
X46170952Y-79169524D01*
X46218571Y-79121905D01*
X46266190Y-79026667D01*
X46266190Y-78645714D01*
X45742381Y-79550476D02*
X45742381Y-80217143D01*
X46742381Y-79788571D01*
X46742381Y-80645714D02*
X46742381Y-80836190D01*
X46694762Y-80931429D01*
X46647143Y-80979048D01*
X46504286Y-81074286D01*
X46313810Y-81121905D01*
X45932857Y-81121905D01*
X45837619Y-81074286D01*
X45790000Y-81026667D01*
X45742381Y-80931429D01*
X45742381Y-80740952D01*
X45790000Y-80645714D01*
X45837619Y-80598095D01*
X45932857Y-80550476D01*
X46170952Y-80550476D01*
X46266190Y-80598095D01*
X46313810Y-80645714D01*
X46361429Y-80740952D01*
X46361429Y-80931429D01*
X46313810Y-81026667D01*
X46266190Y-81074286D01*
X46170952Y-81121905D01*
X50682381Y-78627143D02*
X50206190Y-78293809D01*
X50682381Y-78055714D02*
X49682381Y-78055714D01*
X49682381Y-78436667D01*
X49730000Y-78531905D01*
X49777619Y-78579524D01*
X49872857Y-78627143D01*
X50015714Y-78627143D01*
X50110952Y-78579524D01*
X50158571Y-78531905D01*
X50206190Y-78436667D01*
X50206190Y-78055714D01*
X50110952Y-79198571D02*
X50063333Y-79103333D01*
X50015714Y-79055714D01*
X49920476Y-79008095D01*
X49872857Y-79008095D01*
X49777619Y-79055714D01*
X49730000Y-79103333D01*
X49682381Y-79198571D01*
X49682381Y-79389048D01*
X49730000Y-79484286D01*
X49777619Y-79531905D01*
X49872857Y-79579524D01*
X49920476Y-79579524D01*
X50015714Y-79531905D01*
X50063333Y-79484286D01*
X50110952Y-79389048D01*
X50110952Y-79198571D01*
X50158571Y-79103333D01*
X50206190Y-79055714D01*
X50301429Y-79008095D01*
X50491905Y-79008095D01*
X50587143Y-79055714D01*
X50634762Y-79103333D01*
X50682381Y-79198571D01*
X50682381Y-79389048D01*
X50634762Y-79484286D01*
X50587143Y-79531905D01*
X50491905Y-79579524D01*
X50301429Y-79579524D01*
X50206190Y-79531905D01*
X50158571Y-79484286D01*
X50110952Y-79389048D01*
X49682381Y-80198571D02*
X49682381Y-80293810D01*
X49730000Y-80389048D01*
X49777619Y-80436667D01*
X49872857Y-80484286D01*
X50063333Y-80531905D01*
X50301429Y-80531905D01*
X50491905Y-80484286D01*
X50587143Y-80436667D01*
X50634762Y-80389048D01*
X50682381Y-80293810D01*
X50682381Y-80198571D01*
X50634762Y-80103333D01*
X50587143Y-80055714D01*
X50491905Y-80008095D01*
X50301429Y-79960476D01*
X50063333Y-79960476D01*
X49872857Y-80008095D01*
X49777619Y-80055714D01*
X49730000Y-80103333D01*
X49682381Y-80198571D01*
X57612381Y-35727143D02*
X57136190Y-35393809D01*
X57612381Y-35155714D02*
X56612381Y-35155714D01*
X56612381Y-35536667D01*
X56660000Y-35631905D01*
X56707619Y-35679524D01*
X56802857Y-35727143D01*
X56945714Y-35727143D01*
X57040952Y-35679524D01*
X57088571Y-35631905D01*
X57136190Y-35536667D01*
X57136190Y-35155714D01*
X57040952Y-36298571D02*
X56993333Y-36203333D01*
X56945714Y-36155714D01*
X56850476Y-36108095D01*
X56802857Y-36108095D01*
X56707619Y-36155714D01*
X56660000Y-36203333D01*
X56612381Y-36298571D01*
X56612381Y-36489048D01*
X56660000Y-36584286D01*
X56707619Y-36631905D01*
X56802857Y-36679524D01*
X56850476Y-36679524D01*
X56945714Y-36631905D01*
X56993333Y-36584286D01*
X57040952Y-36489048D01*
X57040952Y-36298571D01*
X57088571Y-36203333D01*
X57136190Y-36155714D01*
X57231429Y-36108095D01*
X57421905Y-36108095D01*
X57517143Y-36155714D01*
X57564762Y-36203333D01*
X57612381Y-36298571D01*
X57612381Y-36489048D01*
X57564762Y-36584286D01*
X57517143Y-36631905D01*
X57421905Y-36679524D01*
X57231429Y-36679524D01*
X57136190Y-36631905D01*
X57088571Y-36584286D01*
X57040952Y-36489048D01*
X56707619Y-37060476D02*
X56660000Y-37108095D01*
X56612381Y-37203333D01*
X56612381Y-37441429D01*
X56660000Y-37536667D01*
X56707619Y-37584286D01*
X56802857Y-37631905D01*
X56898095Y-37631905D01*
X57040952Y-37584286D01*
X57612381Y-37012857D01*
X57612381Y-37631905D01*
X57642381Y-50167143D02*
X57166190Y-49833809D01*
X57642381Y-49595714D02*
X56642381Y-49595714D01*
X56642381Y-49976667D01*
X56690000Y-50071905D01*
X56737619Y-50119524D01*
X56832857Y-50167143D01*
X56975714Y-50167143D01*
X57070952Y-50119524D01*
X57118571Y-50071905D01*
X57166190Y-49976667D01*
X57166190Y-49595714D01*
X57070952Y-50738571D02*
X57023333Y-50643333D01*
X56975714Y-50595714D01*
X56880476Y-50548095D01*
X56832857Y-50548095D01*
X56737619Y-50595714D01*
X56690000Y-50643333D01*
X56642381Y-50738571D01*
X56642381Y-50929048D01*
X56690000Y-51024286D01*
X56737619Y-51071905D01*
X56832857Y-51119524D01*
X56880476Y-51119524D01*
X56975714Y-51071905D01*
X57023333Y-51024286D01*
X57070952Y-50929048D01*
X57070952Y-50738571D01*
X57118571Y-50643333D01*
X57166190Y-50595714D01*
X57261429Y-50548095D01*
X57451905Y-50548095D01*
X57547143Y-50595714D01*
X57594762Y-50643333D01*
X57642381Y-50738571D01*
X57642381Y-50929048D01*
X57594762Y-51024286D01*
X57547143Y-51071905D01*
X57451905Y-51119524D01*
X57261429Y-51119524D01*
X57166190Y-51071905D01*
X57118571Y-51024286D01*
X57070952Y-50929048D01*
X56642381Y-51452857D02*
X56642381Y-52071905D01*
X57023333Y-51738571D01*
X57023333Y-51881429D01*
X57070952Y-51976667D01*
X57118571Y-52024286D01*
X57213810Y-52071905D01*
X57451905Y-52071905D01*
X57547143Y-52024286D01*
X57594762Y-51976667D01*
X57642381Y-51881429D01*
X57642381Y-51595714D01*
X57594762Y-51500476D01*
X57547143Y-51452857D01*
X57672381Y-64867143D02*
X57196190Y-64533809D01*
X57672381Y-64295714D02*
X56672381Y-64295714D01*
X56672381Y-64676667D01*
X56720000Y-64771905D01*
X56767619Y-64819524D01*
X56862857Y-64867143D01*
X57005714Y-64867143D01*
X57100952Y-64819524D01*
X57148571Y-64771905D01*
X57196190Y-64676667D01*
X57196190Y-64295714D01*
X57100952Y-65438571D02*
X57053333Y-65343333D01*
X57005714Y-65295714D01*
X56910476Y-65248095D01*
X56862857Y-65248095D01*
X56767619Y-65295714D01*
X56720000Y-65343333D01*
X56672381Y-65438571D01*
X56672381Y-65629048D01*
X56720000Y-65724286D01*
X56767619Y-65771905D01*
X56862857Y-65819524D01*
X56910476Y-65819524D01*
X57005714Y-65771905D01*
X57053333Y-65724286D01*
X57100952Y-65629048D01*
X57100952Y-65438571D01*
X57148571Y-65343333D01*
X57196190Y-65295714D01*
X57291429Y-65248095D01*
X57481905Y-65248095D01*
X57577143Y-65295714D01*
X57624762Y-65343333D01*
X57672381Y-65438571D01*
X57672381Y-65629048D01*
X57624762Y-65724286D01*
X57577143Y-65771905D01*
X57481905Y-65819524D01*
X57291429Y-65819524D01*
X57196190Y-65771905D01*
X57148571Y-65724286D01*
X57100952Y-65629048D01*
X57005714Y-66676667D02*
X57672381Y-66676667D01*
X56624762Y-66438571D02*
X57339048Y-66200476D01*
X57339048Y-66819524D01*
X57672381Y-79177143D02*
X57196190Y-78843809D01*
X57672381Y-78605714D02*
X56672381Y-78605714D01*
X56672381Y-78986667D01*
X56720000Y-79081905D01*
X56767619Y-79129524D01*
X56862857Y-79177143D01*
X57005714Y-79177143D01*
X57100952Y-79129524D01*
X57148571Y-79081905D01*
X57196190Y-78986667D01*
X57196190Y-78605714D01*
X57100952Y-79748571D02*
X57053333Y-79653333D01*
X57005714Y-79605714D01*
X56910476Y-79558095D01*
X56862857Y-79558095D01*
X56767619Y-79605714D01*
X56720000Y-79653333D01*
X56672381Y-79748571D01*
X56672381Y-79939048D01*
X56720000Y-80034286D01*
X56767619Y-80081905D01*
X56862857Y-80129524D01*
X56910476Y-80129524D01*
X57005714Y-80081905D01*
X57053333Y-80034286D01*
X57100952Y-79939048D01*
X57100952Y-79748571D01*
X57148571Y-79653333D01*
X57196190Y-79605714D01*
X57291429Y-79558095D01*
X57481905Y-79558095D01*
X57577143Y-79605714D01*
X57624762Y-79653333D01*
X57672381Y-79748571D01*
X57672381Y-79939048D01*
X57624762Y-80034286D01*
X57577143Y-80081905D01*
X57481905Y-80129524D01*
X57291429Y-80129524D01*
X57196190Y-80081905D01*
X57148571Y-80034286D01*
X57100952Y-79939048D01*
X56672381Y-81034286D02*
X56672381Y-80558095D01*
X57148571Y-80510476D01*
X57100952Y-80558095D01*
X57053333Y-80653333D01*
X57053333Y-80891429D01*
X57100952Y-80986667D01*
X57148571Y-81034286D01*
X57243810Y-81081905D01*
X57481905Y-81081905D01*
X57577143Y-81034286D01*
X57624762Y-80986667D01*
X57672381Y-80891429D01*
X57672381Y-80653333D01*
X57624762Y-80558095D01*
X57577143Y-80510476D01*
X65842381Y-35077143D02*
X65366190Y-34743809D01*
X65842381Y-34505714D02*
X64842381Y-34505714D01*
X64842381Y-34886667D01*
X64890000Y-34981905D01*
X64937619Y-35029524D01*
X65032857Y-35077143D01*
X65175714Y-35077143D01*
X65270952Y-35029524D01*
X65318571Y-34981905D01*
X65366190Y-34886667D01*
X65366190Y-34505714D01*
X65270952Y-35648571D02*
X65223333Y-35553333D01*
X65175714Y-35505714D01*
X65080476Y-35458095D01*
X65032857Y-35458095D01*
X64937619Y-35505714D01*
X64890000Y-35553333D01*
X64842381Y-35648571D01*
X64842381Y-35839048D01*
X64890000Y-35934286D01*
X64937619Y-35981905D01*
X65032857Y-36029524D01*
X65080476Y-36029524D01*
X65175714Y-35981905D01*
X65223333Y-35934286D01*
X65270952Y-35839048D01*
X65270952Y-35648571D01*
X65318571Y-35553333D01*
X65366190Y-35505714D01*
X65461429Y-35458095D01*
X65651905Y-35458095D01*
X65747143Y-35505714D01*
X65794762Y-35553333D01*
X65842381Y-35648571D01*
X65842381Y-35839048D01*
X65794762Y-35934286D01*
X65747143Y-35981905D01*
X65651905Y-36029524D01*
X65461429Y-36029524D01*
X65366190Y-35981905D01*
X65318571Y-35934286D01*
X65270952Y-35839048D01*
X64842381Y-36362857D02*
X64842381Y-37029524D01*
X65842381Y-36600952D01*
X61922381Y-35767143D02*
X61446190Y-35433809D01*
X61922381Y-35195714D02*
X60922381Y-35195714D01*
X60922381Y-35576667D01*
X60970000Y-35671905D01*
X61017619Y-35719524D01*
X61112857Y-35767143D01*
X61255714Y-35767143D01*
X61350952Y-35719524D01*
X61398571Y-35671905D01*
X61446190Y-35576667D01*
X61446190Y-35195714D01*
X61350952Y-36338571D02*
X61303333Y-36243333D01*
X61255714Y-36195714D01*
X61160476Y-36148095D01*
X61112857Y-36148095D01*
X61017619Y-36195714D01*
X60970000Y-36243333D01*
X60922381Y-36338571D01*
X60922381Y-36529048D01*
X60970000Y-36624286D01*
X61017619Y-36671905D01*
X61112857Y-36719524D01*
X61160476Y-36719524D01*
X61255714Y-36671905D01*
X61303333Y-36624286D01*
X61350952Y-36529048D01*
X61350952Y-36338571D01*
X61398571Y-36243333D01*
X61446190Y-36195714D01*
X61541429Y-36148095D01*
X61731905Y-36148095D01*
X61827143Y-36195714D01*
X61874762Y-36243333D01*
X61922381Y-36338571D01*
X61922381Y-36529048D01*
X61874762Y-36624286D01*
X61827143Y-36671905D01*
X61731905Y-36719524D01*
X61541429Y-36719524D01*
X61446190Y-36671905D01*
X61398571Y-36624286D01*
X61350952Y-36529048D01*
X61350952Y-37290952D02*
X61303333Y-37195714D01*
X61255714Y-37148095D01*
X61160476Y-37100476D01*
X61112857Y-37100476D01*
X61017619Y-37148095D01*
X60970000Y-37195714D01*
X60922381Y-37290952D01*
X60922381Y-37481429D01*
X60970000Y-37576667D01*
X61017619Y-37624286D01*
X61112857Y-37671905D01*
X61160476Y-37671905D01*
X61255714Y-37624286D01*
X61303333Y-37576667D01*
X61350952Y-37481429D01*
X61350952Y-37290952D01*
X61398571Y-37195714D01*
X61446190Y-37148095D01*
X61541429Y-37100476D01*
X61731905Y-37100476D01*
X61827143Y-37148095D01*
X61874762Y-37195714D01*
X61922381Y-37290952D01*
X61922381Y-37481429D01*
X61874762Y-37576667D01*
X61827143Y-37624286D01*
X61731905Y-37671905D01*
X61541429Y-37671905D01*
X61446190Y-37624286D01*
X61398571Y-37576667D01*
X61350952Y-37481429D01*
X62042381Y-50057143D02*
X61566190Y-49723809D01*
X62042381Y-49485714D02*
X61042381Y-49485714D01*
X61042381Y-49866667D01*
X61090000Y-49961905D01*
X61137619Y-50009524D01*
X61232857Y-50057143D01*
X61375714Y-50057143D01*
X61470952Y-50009524D01*
X61518571Y-49961905D01*
X61566190Y-49866667D01*
X61566190Y-49485714D01*
X61470952Y-50628571D02*
X61423333Y-50533333D01*
X61375714Y-50485714D01*
X61280476Y-50438095D01*
X61232857Y-50438095D01*
X61137619Y-50485714D01*
X61090000Y-50533333D01*
X61042381Y-50628571D01*
X61042381Y-50819048D01*
X61090000Y-50914286D01*
X61137619Y-50961905D01*
X61232857Y-51009524D01*
X61280476Y-51009524D01*
X61375714Y-50961905D01*
X61423333Y-50914286D01*
X61470952Y-50819048D01*
X61470952Y-50628571D01*
X61518571Y-50533333D01*
X61566190Y-50485714D01*
X61661429Y-50438095D01*
X61851905Y-50438095D01*
X61947143Y-50485714D01*
X61994762Y-50533333D01*
X62042381Y-50628571D01*
X62042381Y-50819048D01*
X61994762Y-50914286D01*
X61947143Y-50961905D01*
X61851905Y-51009524D01*
X61661429Y-51009524D01*
X61566190Y-50961905D01*
X61518571Y-50914286D01*
X61470952Y-50819048D01*
X62042381Y-51485714D02*
X62042381Y-51676190D01*
X61994762Y-51771429D01*
X61947143Y-51819048D01*
X61804286Y-51914286D01*
X61613810Y-51961905D01*
X61232857Y-51961905D01*
X61137619Y-51914286D01*
X61090000Y-51866667D01*
X61042381Y-51771429D01*
X61042381Y-51580952D01*
X61090000Y-51485714D01*
X61137619Y-51438095D01*
X61232857Y-51390476D01*
X61470952Y-51390476D01*
X61566190Y-51438095D01*
X61613810Y-51485714D01*
X61661429Y-51580952D01*
X61661429Y-51771429D01*
X61613810Y-51866667D01*
X61566190Y-51914286D01*
X61470952Y-51961905D01*
X61982381Y-64767143D02*
X61506190Y-64433809D01*
X61982381Y-64195714D02*
X60982381Y-64195714D01*
X60982381Y-64576667D01*
X61030000Y-64671905D01*
X61077619Y-64719524D01*
X61172857Y-64767143D01*
X61315714Y-64767143D01*
X61410952Y-64719524D01*
X61458571Y-64671905D01*
X61506190Y-64576667D01*
X61506190Y-64195714D01*
X61982381Y-65243333D02*
X61982381Y-65433809D01*
X61934762Y-65529048D01*
X61887143Y-65576667D01*
X61744286Y-65671905D01*
X61553810Y-65719524D01*
X61172857Y-65719524D01*
X61077619Y-65671905D01*
X61030000Y-65624286D01*
X60982381Y-65529048D01*
X60982381Y-65338571D01*
X61030000Y-65243333D01*
X61077619Y-65195714D01*
X61172857Y-65148095D01*
X61410952Y-65148095D01*
X61506190Y-65195714D01*
X61553810Y-65243333D01*
X61601429Y-65338571D01*
X61601429Y-65529048D01*
X61553810Y-65624286D01*
X61506190Y-65671905D01*
X61410952Y-65719524D01*
X60982381Y-66338571D02*
X60982381Y-66433810D01*
X61030000Y-66529048D01*
X61077619Y-66576667D01*
X61172857Y-66624286D01*
X61363333Y-66671905D01*
X61601429Y-66671905D01*
X61791905Y-66624286D01*
X61887143Y-66576667D01*
X61934762Y-66529048D01*
X61982381Y-66433810D01*
X61982381Y-66338571D01*
X61934762Y-66243333D01*
X61887143Y-66195714D01*
X61791905Y-66148095D01*
X61601429Y-66100476D01*
X61363333Y-66100476D01*
X61172857Y-66148095D01*
X61077619Y-66195714D01*
X61030000Y-66243333D01*
X60982381Y-66338571D01*
X62002381Y-79197143D02*
X61526190Y-78863809D01*
X62002381Y-78625714D02*
X61002381Y-78625714D01*
X61002381Y-79006667D01*
X61050000Y-79101905D01*
X61097619Y-79149524D01*
X61192857Y-79197143D01*
X61335714Y-79197143D01*
X61430952Y-79149524D01*
X61478571Y-79101905D01*
X61526190Y-79006667D01*
X61526190Y-78625714D01*
X62002381Y-79673333D02*
X62002381Y-79863809D01*
X61954762Y-79959048D01*
X61907143Y-80006667D01*
X61764286Y-80101905D01*
X61573810Y-80149524D01*
X61192857Y-80149524D01*
X61097619Y-80101905D01*
X61050000Y-80054286D01*
X61002381Y-79959048D01*
X61002381Y-79768571D01*
X61050000Y-79673333D01*
X61097619Y-79625714D01*
X61192857Y-79578095D01*
X61430952Y-79578095D01*
X61526190Y-79625714D01*
X61573810Y-79673333D01*
X61621429Y-79768571D01*
X61621429Y-79959048D01*
X61573810Y-80054286D01*
X61526190Y-80101905D01*
X61430952Y-80149524D01*
X62002381Y-81101905D02*
X62002381Y-80530476D01*
X62002381Y-80816190D02*
X61002381Y-80816190D01*
X61145238Y-80720952D01*
X61240476Y-80625714D01*
X61288095Y-80530476D01*
X65882381Y-78477143D02*
X65406190Y-78143809D01*
X65882381Y-77905714D02*
X64882381Y-77905714D01*
X64882381Y-78286667D01*
X64930000Y-78381905D01*
X64977619Y-78429524D01*
X65072857Y-78477143D01*
X65215714Y-78477143D01*
X65310952Y-78429524D01*
X65358571Y-78381905D01*
X65406190Y-78286667D01*
X65406190Y-77905714D01*
X65882381Y-78953333D02*
X65882381Y-79143809D01*
X65834762Y-79239048D01*
X65787143Y-79286667D01*
X65644286Y-79381905D01*
X65453810Y-79429524D01*
X65072857Y-79429524D01*
X64977619Y-79381905D01*
X64930000Y-79334286D01*
X64882381Y-79239048D01*
X64882381Y-79048571D01*
X64930000Y-78953333D01*
X64977619Y-78905714D01*
X65072857Y-78858095D01*
X65310952Y-78858095D01*
X65406190Y-78905714D01*
X65453810Y-78953333D01*
X65501429Y-79048571D01*
X65501429Y-79239048D01*
X65453810Y-79334286D01*
X65406190Y-79381905D01*
X65310952Y-79429524D01*
X64977619Y-79810476D02*
X64930000Y-79858095D01*
X64882381Y-79953333D01*
X64882381Y-80191429D01*
X64930000Y-80286667D01*
X64977619Y-80334286D01*
X65072857Y-80381905D01*
X65168095Y-80381905D01*
X65310952Y-80334286D01*
X65882381Y-79762857D01*
X65882381Y-80381905D01*
X72852381Y-35547143D02*
X72376190Y-35213809D01*
X72852381Y-34975714D02*
X71852381Y-34975714D01*
X71852381Y-35356667D01*
X71900000Y-35451905D01*
X71947619Y-35499524D01*
X72042857Y-35547143D01*
X72185714Y-35547143D01*
X72280952Y-35499524D01*
X72328571Y-35451905D01*
X72376190Y-35356667D01*
X72376190Y-34975714D01*
X72852381Y-36023333D02*
X72852381Y-36213809D01*
X72804762Y-36309048D01*
X72757143Y-36356667D01*
X72614286Y-36451905D01*
X72423810Y-36499524D01*
X72042857Y-36499524D01*
X71947619Y-36451905D01*
X71900000Y-36404286D01*
X71852381Y-36309048D01*
X71852381Y-36118571D01*
X71900000Y-36023333D01*
X71947619Y-35975714D01*
X72042857Y-35928095D01*
X72280952Y-35928095D01*
X72376190Y-35975714D01*
X72423810Y-36023333D01*
X72471429Y-36118571D01*
X72471429Y-36309048D01*
X72423810Y-36404286D01*
X72376190Y-36451905D01*
X72280952Y-36499524D01*
X72185714Y-37356667D02*
X72852381Y-37356667D01*
X71804762Y-37118571D02*
X72519048Y-36880476D01*
X72519048Y-37499524D01*
X72802381Y-50197143D02*
X72326190Y-49863809D01*
X72802381Y-49625714D02*
X71802381Y-49625714D01*
X71802381Y-50006667D01*
X71850000Y-50101905D01*
X71897619Y-50149524D01*
X71992857Y-50197143D01*
X72135714Y-50197143D01*
X72230952Y-50149524D01*
X72278571Y-50101905D01*
X72326190Y-50006667D01*
X72326190Y-49625714D01*
X72802381Y-50673333D02*
X72802381Y-50863809D01*
X72754762Y-50959048D01*
X72707143Y-51006667D01*
X72564286Y-51101905D01*
X72373810Y-51149524D01*
X71992857Y-51149524D01*
X71897619Y-51101905D01*
X71850000Y-51054286D01*
X71802381Y-50959048D01*
X71802381Y-50768571D01*
X71850000Y-50673333D01*
X71897619Y-50625714D01*
X71992857Y-50578095D01*
X72230952Y-50578095D01*
X72326190Y-50625714D01*
X72373810Y-50673333D01*
X72421429Y-50768571D01*
X72421429Y-50959048D01*
X72373810Y-51054286D01*
X72326190Y-51101905D01*
X72230952Y-51149524D01*
X71802381Y-52054286D02*
X71802381Y-51578095D01*
X72278571Y-51530476D01*
X72230952Y-51578095D01*
X72183333Y-51673333D01*
X72183333Y-51911429D01*
X72230952Y-52006667D01*
X72278571Y-52054286D01*
X72373810Y-52101905D01*
X72611905Y-52101905D01*
X72707143Y-52054286D01*
X72754762Y-52006667D01*
X72802381Y-51911429D01*
X72802381Y-51673333D01*
X72754762Y-51578095D01*
X72707143Y-51530476D01*
X72952381Y-64527143D02*
X72476190Y-64193809D01*
X72952381Y-63955714D02*
X71952381Y-63955714D01*
X71952381Y-64336667D01*
X72000000Y-64431905D01*
X72047619Y-64479524D01*
X72142857Y-64527143D01*
X72285714Y-64527143D01*
X72380952Y-64479524D01*
X72428571Y-64431905D01*
X72476190Y-64336667D01*
X72476190Y-63955714D01*
X72952381Y-65003333D02*
X72952381Y-65193809D01*
X72904762Y-65289048D01*
X72857143Y-65336667D01*
X72714286Y-65431905D01*
X72523810Y-65479524D01*
X72142857Y-65479524D01*
X72047619Y-65431905D01*
X72000000Y-65384286D01*
X71952381Y-65289048D01*
X71952381Y-65098571D01*
X72000000Y-65003333D01*
X72047619Y-64955714D01*
X72142857Y-64908095D01*
X72380952Y-64908095D01*
X72476190Y-64955714D01*
X72523810Y-65003333D01*
X72571429Y-65098571D01*
X72571429Y-65289048D01*
X72523810Y-65384286D01*
X72476190Y-65431905D01*
X72380952Y-65479524D01*
X71952381Y-66336667D02*
X71952381Y-66146190D01*
X72000000Y-66050952D01*
X72047619Y-66003333D01*
X72190476Y-65908095D01*
X72380952Y-65860476D01*
X72761905Y-65860476D01*
X72857143Y-65908095D01*
X72904762Y-65955714D01*
X72952381Y-66050952D01*
X72952381Y-66241429D01*
X72904762Y-66336667D01*
X72857143Y-66384286D01*
X72761905Y-66431905D01*
X72523810Y-66431905D01*
X72428571Y-66384286D01*
X72380952Y-66336667D01*
X72333333Y-66241429D01*
X72333333Y-66050952D01*
X72380952Y-65955714D01*
X72428571Y-65908095D01*
X72523810Y-65860476D01*
X72822381Y-79447143D02*
X72346190Y-79113809D01*
X72822381Y-78875714D02*
X71822381Y-78875714D01*
X71822381Y-79256667D01*
X71870000Y-79351905D01*
X71917619Y-79399524D01*
X72012857Y-79447143D01*
X72155714Y-79447143D01*
X72250952Y-79399524D01*
X72298571Y-79351905D01*
X72346190Y-79256667D01*
X72346190Y-78875714D01*
X72822381Y-79923333D02*
X72822381Y-80113809D01*
X72774762Y-80209048D01*
X72727143Y-80256667D01*
X72584286Y-80351905D01*
X72393810Y-80399524D01*
X72012857Y-80399524D01*
X71917619Y-80351905D01*
X71870000Y-80304286D01*
X71822381Y-80209048D01*
X71822381Y-80018571D01*
X71870000Y-79923333D01*
X71917619Y-79875714D01*
X72012857Y-79828095D01*
X72250952Y-79828095D01*
X72346190Y-79875714D01*
X72393810Y-79923333D01*
X72441429Y-80018571D01*
X72441429Y-80209048D01*
X72393810Y-80304286D01*
X72346190Y-80351905D01*
X72250952Y-80399524D01*
X71822381Y-80732857D02*
X71822381Y-81399524D01*
X72822381Y-80970952D01*
X81042381Y-34070953D02*
X80566190Y-33737619D01*
X81042381Y-33499524D02*
X80042381Y-33499524D01*
X80042381Y-33880477D01*
X80090000Y-33975715D01*
X80137619Y-34023334D01*
X80232857Y-34070953D01*
X80375714Y-34070953D01*
X80470952Y-34023334D01*
X80518571Y-33975715D01*
X80566190Y-33880477D01*
X80566190Y-33499524D01*
X81042381Y-35023334D02*
X81042381Y-34451905D01*
X81042381Y-34737619D02*
X80042381Y-34737619D01*
X80185238Y-34642381D01*
X80280476Y-34547143D01*
X80328095Y-34451905D01*
X80042381Y-35642381D02*
X80042381Y-35737620D01*
X80090000Y-35832858D01*
X80137619Y-35880477D01*
X80232857Y-35928096D01*
X80423333Y-35975715D01*
X80661429Y-35975715D01*
X80851905Y-35928096D01*
X80947143Y-35880477D01*
X80994762Y-35832858D01*
X81042381Y-35737620D01*
X81042381Y-35642381D01*
X80994762Y-35547143D01*
X80947143Y-35499524D01*
X80851905Y-35451905D01*
X80661429Y-35404286D01*
X80423333Y-35404286D01*
X80232857Y-35451905D01*
X80137619Y-35499524D01*
X80090000Y-35547143D01*
X80042381Y-35642381D01*
X81042381Y-36928096D02*
X81042381Y-36356667D01*
X81042381Y-36642381D02*
X80042381Y-36642381D01*
X80185238Y-36547143D01*
X80280476Y-36451905D01*
X80328095Y-36356667D01*
X77142381Y-35270953D02*
X76666190Y-34937619D01*
X77142381Y-34699524D02*
X76142381Y-34699524D01*
X76142381Y-35080477D01*
X76190000Y-35175715D01*
X76237619Y-35223334D01*
X76332857Y-35270953D01*
X76475714Y-35270953D01*
X76570952Y-35223334D01*
X76618571Y-35175715D01*
X76666190Y-35080477D01*
X76666190Y-34699524D01*
X77142381Y-36223334D02*
X77142381Y-35651905D01*
X77142381Y-35937619D02*
X76142381Y-35937619D01*
X76285238Y-35842381D01*
X76380476Y-35747143D01*
X76428095Y-35651905D01*
X76142381Y-36842381D02*
X76142381Y-36937620D01*
X76190000Y-37032858D01*
X76237619Y-37080477D01*
X76332857Y-37128096D01*
X76523333Y-37175715D01*
X76761429Y-37175715D01*
X76951905Y-37128096D01*
X77047143Y-37080477D01*
X77094762Y-37032858D01*
X77142381Y-36937620D01*
X77142381Y-36842381D01*
X77094762Y-36747143D01*
X77047143Y-36699524D01*
X76951905Y-36651905D01*
X76761429Y-36604286D01*
X76523333Y-36604286D01*
X76332857Y-36651905D01*
X76237619Y-36699524D01*
X76190000Y-36747143D01*
X76142381Y-36842381D01*
X76237619Y-37556667D02*
X76190000Y-37604286D01*
X76142381Y-37699524D01*
X76142381Y-37937620D01*
X76190000Y-38032858D01*
X76237619Y-38080477D01*
X76332857Y-38128096D01*
X76428095Y-38128096D01*
X76570952Y-38080477D01*
X77142381Y-37509048D01*
X77142381Y-38128096D01*
X77342381Y-49430953D02*
X76866190Y-49097619D01*
X77342381Y-48859524D02*
X76342381Y-48859524D01*
X76342381Y-49240477D01*
X76390000Y-49335715D01*
X76437619Y-49383334D01*
X76532857Y-49430953D01*
X76675714Y-49430953D01*
X76770952Y-49383334D01*
X76818571Y-49335715D01*
X76866190Y-49240477D01*
X76866190Y-48859524D01*
X77342381Y-50383334D02*
X77342381Y-49811905D01*
X77342381Y-50097619D02*
X76342381Y-50097619D01*
X76485238Y-50002381D01*
X76580476Y-49907143D01*
X76628095Y-49811905D01*
X76342381Y-51002381D02*
X76342381Y-51097620D01*
X76390000Y-51192858D01*
X76437619Y-51240477D01*
X76532857Y-51288096D01*
X76723333Y-51335715D01*
X76961429Y-51335715D01*
X77151905Y-51288096D01*
X77247143Y-51240477D01*
X77294762Y-51192858D01*
X77342381Y-51097620D01*
X77342381Y-51002381D01*
X77294762Y-50907143D01*
X77247143Y-50859524D01*
X77151905Y-50811905D01*
X76961429Y-50764286D01*
X76723333Y-50764286D01*
X76532857Y-50811905D01*
X76437619Y-50859524D01*
X76390000Y-50907143D01*
X76342381Y-51002381D01*
X76342381Y-51669048D02*
X76342381Y-52288096D01*
X76723333Y-51954762D01*
X76723333Y-52097620D01*
X76770952Y-52192858D01*
X76818571Y-52240477D01*
X76913810Y-52288096D01*
X77151905Y-52288096D01*
X77247143Y-52240477D01*
X77294762Y-52192858D01*
X77342381Y-52097620D01*
X77342381Y-51811905D01*
X77294762Y-51716667D01*
X77247143Y-51669048D01*
X77242381Y-63920953D02*
X76766190Y-63587619D01*
X77242381Y-63349524D02*
X76242381Y-63349524D01*
X76242381Y-63730477D01*
X76290000Y-63825715D01*
X76337619Y-63873334D01*
X76432857Y-63920953D01*
X76575714Y-63920953D01*
X76670952Y-63873334D01*
X76718571Y-63825715D01*
X76766190Y-63730477D01*
X76766190Y-63349524D01*
X77242381Y-64873334D02*
X77242381Y-64301905D01*
X77242381Y-64587619D02*
X76242381Y-64587619D01*
X76385238Y-64492381D01*
X76480476Y-64397143D01*
X76528095Y-64301905D01*
X76242381Y-65492381D02*
X76242381Y-65587620D01*
X76290000Y-65682858D01*
X76337619Y-65730477D01*
X76432857Y-65778096D01*
X76623333Y-65825715D01*
X76861429Y-65825715D01*
X77051905Y-65778096D01*
X77147143Y-65730477D01*
X77194762Y-65682858D01*
X77242381Y-65587620D01*
X77242381Y-65492381D01*
X77194762Y-65397143D01*
X77147143Y-65349524D01*
X77051905Y-65301905D01*
X76861429Y-65254286D01*
X76623333Y-65254286D01*
X76432857Y-65301905D01*
X76337619Y-65349524D01*
X76290000Y-65397143D01*
X76242381Y-65492381D01*
X76575714Y-66682858D02*
X77242381Y-66682858D01*
X76194762Y-66444762D02*
X76909048Y-66206667D01*
X76909048Y-66825715D01*
X77322381Y-78740953D02*
X76846190Y-78407619D01*
X77322381Y-78169524D02*
X76322381Y-78169524D01*
X76322381Y-78550477D01*
X76370000Y-78645715D01*
X76417619Y-78693334D01*
X76512857Y-78740953D01*
X76655714Y-78740953D01*
X76750952Y-78693334D01*
X76798571Y-78645715D01*
X76846190Y-78550477D01*
X76846190Y-78169524D01*
X77322381Y-79693334D02*
X77322381Y-79121905D01*
X77322381Y-79407619D02*
X76322381Y-79407619D01*
X76465238Y-79312381D01*
X76560476Y-79217143D01*
X76608095Y-79121905D01*
X76322381Y-80312381D02*
X76322381Y-80407620D01*
X76370000Y-80502858D01*
X76417619Y-80550477D01*
X76512857Y-80598096D01*
X76703333Y-80645715D01*
X76941429Y-80645715D01*
X77131905Y-80598096D01*
X77227143Y-80550477D01*
X77274762Y-80502858D01*
X77322381Y-80407620D01*
X77322381Y-80312381D01*
X77274762Y-80217143D01*
X77227143Y-80169524D01*
X77131905Y-80121905D01*
X76941429Y-80074286D01*
X76703333Y-80074286D01*
X76512857Y-80121905D01*
X76417619Y-80169524D01*
X76370000Y-80217143D01*
X76322381Y-80312381D01*
X76322381Y-81550477D02*
X76322381Y-81074286D01*
X76798571Y-81026667D01*
X76750952Y-81074286D01*
X76703333Y-81169524D01*
X76703333Y-81407620D01*
X76750952Y-81502858D01*
X76798571Y-81550477D01*
X76893810Y-81598096D01*
X77131905Y-81598096D01*
X77227143Y-81550477D01*
X77274762Y-81502858D01*
X77322381Y-81407620D01*
X77322381Y-81169524D01*
X77274762Y-81074286D01*
X77227143Y-81026667D01*
X81142381Y-78350953D02*
X80666190Y-78017619D01*
X81142381Y-77779524D02*
X80142381Y-77779524D01*
X80142381Y-78160477D01*
X80190000Y-78255715D01*
X80237619Y-78303334D01*
X80332857Y-78350953D01*
X80475714Y-78350953D01*
X80570952Y-78303334D01*
X80618571Y-78255715D01*
X80666190Y-78160477D01*
X80666190Y-77779524D01*
X81142381Y-79303334D02*
X81142381Y-78731905D01*
X81142381Y-79017619D02*
X80142381Y-79017619D01*
X80285238Y-78922381D01*
X80380476Y-78827143D01*
X80428095Y-78731905D01*
X80142381Y-79922381D02*
X80142381Y-80017620D01*
X80190000Y-80112858D01*
X80237619Y-80160477D01*
X80332857Y-80208096D01*
X80523333Y-80255715D01*
X80761429Y-80255715D01*
X80951905Y-80208096D01*
X81047143Y-80160477D01*
X81094762Y-80112858D01*
X81142381Y-80017620D01*
X81142381Y-79922381D01*
X81094762Y-79827143D01*
X81047143Y-79779524D01*
X80951905Y-79731905D01*
X80761429Y-79684286D01*
X80523333Y-79684286D01*
X80332857Y-79731905D01*
X80237619Y-79779524D01*
X80190000Y-79827143D01*
X80142381Y-79922381D01*
X80142381Y-81112858D02*
X80142381Y-80922381D01*
X80190000Y-80827143D01*
X80237619Y-80779524D01*
X80380476Y-80684286D01*
X80570952Y-80636667D01*
X80951905Y-80636667D01*
X81047143Y-80684286D01*
X81094762Y-80731905D01*
X81142381Y-80827143D01*
X81142381Y-81017620D01*
X81094762Y-81112858D01*
X81047143Y-81160477D01*
X80951905Y-81208096D01*
X80713810Y-81208096D01*
X80618571Y-81160477D01*
X80570952Y-81112858D01*
X80523333Y-81017620D01*
X80523333Y-80827143D01*
X80570952Y-80731905D01*
X80618571Y-80684286D01*
X80713810Y-80636667D01*
X88122381Y-35060953D02*
X87646190Y-34727619D01*
X88122381Y-34489524D02*
X87122381Y-34489524D01*
X87122381Y-34870477D01*
X87170000Y-34965715D01*
X87217619Y-35013334D01*
X87312857Y-35060953D01*
X87455714Y-35060953D01*
X87550952Y-35013334D01*
X87598571Y-34965715D01*
X87646190Y-34870477D01*
X87646190Y-34489524D01*
X88122381Y-36013334D02*
X88122381Y-35441905D01*
X88122381Y-35727619D02*
X87122381Y-35727619D01*
X87265238Y-35632381D01*
X87360476Y-35537143D01*
X87408095Y-35441905D01*
X87122381Y-36632381D02*
X87122381Y-36727620D01*
X87170000Y-36822858D01*
X87217619Y-36870477D01*
X87312857Y-36918096D01*
X87503333Y-36965715D01*
X87741429Y-36965715D01*
X87931905Y-36918096D01*
X88027143Y-36870477D01*
X88074762Y-36822858D01*
X88122381Y-36727620D01*
X88122381Y-36632381D01*
X88074762Y-36537143D01*
X88027143Y-36489524D01*
X87931905Y-36441905D01*
X87741429Y-36394286D01*
X87503333Y-36394286D01*
X87312857Y-36441905D01*
X87217619Y-36489524D01*
X87170000Y-36537143D01*
X87122381Y-36632381D01*
X87550952Y-37537143D02*
X87503333Y-37441905D01*
X87455714Y-37394286D01*
X87360476Y-37346667D01*
X87312857Y-37346667D01*
X87217619Y-37394286D01*
X87170000Y-37441905D01*
X87122381Y-37537143D01*
X87122381Y-37727620D01*
X87170000Y-37822858D01*
X87217619Y-37870477D01*
X87312857Y-37918096D01*
X87360476Y-37918096D01*
X87455714Y-37870477D01*
X87503333Y-37822858D01*
X87550952Y-37727620D01*
X87550952Y-37537143D01*
X87598571Y-37441905D01*
X87646190Y-37394286D01*
X87741429Y-37346667D01*
X87931905Y-37346667D01*
X88027143Y-37394286D01*
X88074762Y-37441905D01*
X88122381Y-37537143D01*
X88122381Y-37727620D01*
X88074762Y-37822858D01*
X88027143Y-37870477D01*
X87931905Y-37918096D01*
X87741429Y-37918096D01*
X87646190Y-37870477D01*
X87598571Y-37822858D01*
X87550952Y-37727620D01*
X88192381Y-49840953D02*
X87716190Y-49507619D01*
X88192381Y-49269524D02*
X87192381Y-49269524D01*
X87192381Y-49650477D01*
X87240000Y-49745715D01*
X87287619Y-49793334D01*
X87382857Y-49840953D01*
X87525714Y-49840953D01*
X87620952Y-49793334D01*
X87668571Y-49745715D01*
X87716190Y-49650477D01*
X87716190Y-49269524D01*
X88192381Y-50793334D02*
X88192381Y-50221905D01*
X88192381Y-50507619D02*
X87192381Y-50507619D01*
X87335238Y-50412381D01*
X87430476Y-50317143D01*
X87478095Y-50221905D01*
X87192381Y-51412381D02*
X87192381Y-51507620D01*
X87240000Y-51602858D01*
X87287619Y-51650477D01*
X87382857Y-51698096D01*
X87573333Y-51745715D01*
X87811429Y-51745715D01*
X88001905Y-51698096D01*
X88097143Y-51650477D01*
X88144762Y-51602858D01*
X88192381Y-51507620D01*
X88192381Y-51412381D01*
X88144762Y-51317143D01*
X88097143Y-51269524D01*
X88001905Y-51221905D01*
X87811429Y-51174286D01*
X87573333Y-51174286D01*
X87382857Y-51221905D01*
X87287619Y-51269524D01*
X87240000Y-51317143D01*
X87192381Y-51412381D01*
X88192381Y-52221905D02*
X88192381Y-52412381D01*
X88144762Y-52507620D01*
X88097143Y-52555239D01*
X87954286Y-52650477D01*
X87763810Y-52698096D01*
X87382857Y-52698096D01*
X87287619Y-52650477D01*
X87240000Y-52602858D01*
X87192381Y-52507620D01*
X87192381Y-52317143D01*
X87240000Y-52221905D01*
X87287619Y-52174286D01*
X87382857Y-52126667D01*
X87620952Y-52126667D01*
X87716190Y-52174286D01*
X87763810Y-52221905D01*
X87811429Y-52317143D01*
X87811429Y-52507620D01*
X87763810Y-52602858D01*
X87716190Y-52650477D01*
X87620952Y-52698096D01*
X88272381Y-64050953D02*
X87796190Y-63717619D01*
X88272381Y-63479524D02*
X87272381Y-63479524D01*
X87272381Y-63860477D01*
X87320000Y-63955715D01*
X87367619Y-64003334D01*
X87462857Y-64050953D01*
X87605714Y-64050953D01*
X87700952Y-64003334D01*
X87748571Y-63955715D01*
X87796190Y-63860477D01*
X87796190Y-63479524D01*
X88272381Y-65003334D02*
X88272381Y-64431905D01*
X88272381Y-64717619D02*
X87272381Y-64717619D01*
X87415238Y-64622381D01*
X87510476Y-64527143D01*
X87558095Y-64431905D01*
X88272381Y-65955715D02*
X88272381Y-65384286D01*
X88272381Y-65670000D02*
X87272381Y-65670000D01*
X87415238Y-65574762D01*
X87510476Y-65479524D01*
X87558095Y-65384286D01*
X87272381Y-66574762D02*
X87272381Y-66670001D01*
X87320000Y-66765239D01*
X87367619Y-66812858D01*
X87462857Y-66860477D01*
X87653333Y-66908096D01*
X87891429Y-66908096D01*
X88081905Y-66860477D01*
X88177143Y-66812858D01*
X88224762Y-66765239D01*
X88272381Y-66670001D01*
X88272381Y-66574762D01*
X88224762Y-66479524D01*
X88177143Y-66431905D01*
X88081905Y-66384286D01*
X87891429Y-66336667D01*
X87653333Y-66336667D01*
X87462857Y-66384286D01*
X87367619Y-66431905D01*
X87320000Y-66479524D01*
X87272381Y-66574762D01*
X88182381Y-78580953D02*
X87706190Y-78247619D01*
X88182381Y-78009524D02*
X87182381Y-78009524D01*
X87182381Y-78390477D01*
X87230000Y-78485715D01*
X87277619Y-78533334D01*
X87372857Y-78580953D01*
X87515714Y-78580953D01*
X87610952Y-78533334D01*
X87658571Y-78485715D01*
X87706190Y-78390477D01*
X87706190Y-78009524D01*
X88182381Y-79533334D02*
X88182381Y-78961905D01*
X88182381Y-79247619D02*
X87182381Y-79247619D01*
X87325238Y-79152381D01*
X87420476Y-79057143D01*
X87468095Y-78961905D01*
X88182381Y-80485715D02*
X88182381Y-79914286D01*
X88182381Y-80200000D02*
X87182381Y-80200000D01*
X87325238Y-80104762D01*
X87420476Y-80009524D01*
X87468095Y-79914286D01*
X88182381Y-81438096D02*
X88182381Y-80866667D01*
X88182381Y-81152381D02*
X87182381Y-81152381D01*
X87325238Y-81057143D01*
X87420476Y-80961905D01*
X87468095Y-80866667D01*
X92562381Y-35180953D02*
X92086190Y-34847619D01*
X92562381Y-34609524D02*
X91562381Y-34609524D01*
X91562381Y-34990477D01*
X91610000Y-35085715D01*
X91657619Y-35133334D01*
X91752857Y-35180953D01*
X91895714Y-35180953D01*
X91990952Y-35133334D01*
X92038571Y-35085715D01*
X92086190Y-34990477D01*
X92086190Y-34609524D01*
X92562381Y-36133334D02*
X92562381Y-35561905D01*
X92562381Y-35847619D02*
X91562381Y-35847619D01*
X91705238Y-35752381D01*
X91800476Y-35657143D01*
X91848095Y-35561905D01*
X92562381Y-37085715D02*
X92562381Y-36514286D01*
X92562381Y-36800000D02*
X91562381Y-36800000D01*
X91705238Y-36704762D01*
X91800476Y-36609524D01*
X91848095Y-36514286D01*
X91562381Y-37419048D02*
X91562381Y-38038096D01*
X91943333Y-37704762D01*
X91943333Y-37847620D01*
X91990952Y-37942858D01*
X92038571Y-37990477D01*
X92133810Y-38038096D01*
X92371905Y-38038096D01*
X92467143Y-37990477D01*
X92514762Y-37942858D01*
X92562381Y-37847620D01*
X92562381Y-37561905D01*
X92514762Y-37466667D01*
X92467143Y-37419048D01*
X96292381Y-33950953D02*
X95816190Y-33617619D01*
X96292381Y-33379524D02*
X95292381Y-33379524D01*
X95292381Y-33760477D01*
X95340000Y-33855715D01*
X95387619Y-33903334D01*
X95482857Y-33950953D01*
X95625714Y-33950953D01*
X95720952Y-33903334D01*
X95768571Y-33855715D01*
X95816190Y-33760477D01*
X95816190Y-33379524D01*
X96292381Y-34903334D02*
X96292381Y-34331905D01*
X96292381Y-34617619D02*
X95292381Y-34617619D01*
X95435238Y-34522381D01*
X95530476Y-34427143D01*
X95578095Y-34331905D01*
X96292381Y-35855715D02*
X96292381Y-35284286D01*
X96292381Y-35570000D02*
X95292381Y-35570000D01*
X95435238Y-35474762D01*
X95530476Y-35379524D01*
X95578095Y-35284286D01*
X95625714Y-36712858D02*
X96292381Y-36712858D01*
X95244762Y-36474762D02*
X95959048Y-36236667D01*
X95959048Y-36855715D01*
X92502381Y-49470953D02*
X92026190Y-49137619D01*
X92502381Y-48899524D02*
X91502381Y-48899524D01*
X91502381Y-49280477D01*
X91550000Y-49375715D01*
X91597619Y-49423334D01*
X91692857Y-49470953D01*
X91835714Y-49470953D01*
X91930952Y-49423334D01*
X91978571Y-49375715D01*
X92026190Y-49280477D01*
X92026190Y-48899524D01*
X92502381Y-50423334D02*
X92502381Y-49851905D01*
X92502381Y-50137619D02*
X91502381Y-50137619D01*
X91645238Y-50042381D01*
X91740476Y-49947143D01*
X91788095Y-49851905D01*
X92502381Y-51375715D02*
X92502381Y-50804286D01*
X92502381Y-51090000D02*
X91502381Y-51090000D01*
X91645238Y-50994762D01*
X91740476Y-50899524D01*
X91788095Y-50804286D01*
X91502381Y-52280477D02*
X91502381Y-51804286D01*
X91978571Y-51756667D01*
X91930952Y-51804286D01*
X91883333Y-51899524D01*
X91883333Y-52137620D01*
X91930952Y-52232858D01*
X91978571Y-52280477D01*
X92073810Y-52328096D01*
X92311905Y-52328096D01*
X92407143Y-52280477D01*
X92454762Y-52232858D01*
X92502381Y-52137620D01*
X92502381Y-51899524D01*
X92454762Y-51804286D01*
X92407143Y-51756667D01*
X92592381Y-64250953D02*
X92116190Y-63917619D01*
X92592381Y-63679524D02*
X91592381Y-63679524D01*
X91592381Y-64060477D01*
X91640000Y-64155715D01*
X91687619Y-64203334D01*
X91782857Y-64250953D01*
X91925714Y-64250953D01*
X92020952Y-64203334D01*
X92068571Y-64155715D01*
X92116190Y-64060477D01*
X92116190Y-63679524D01*
X92592381Y-65203334D02*
X92592381Y-64631905D01*
X92592381Y-64917619D02*
X91592381Y-64917619D01*
X91735238Y-64822381D01*
X91830476Y-64727143D01*
X91878095Y-64631905D01*
X92592381Y-66155715D02*
X92592381Y-65584286D01*
X92592381Y-65870000D02*
X91592381Y-65870000D01*
X91735238Y-65774762D01*
X91830476Y-65679524D01*
X91878095Y-65584286D01*
X91592381Y-67012858D02*
X91592381Y-66822381D01*
X91640000Y-66727143D01*
X91687619Y-66679524D01*
X91830476Y-66584286D01*
X92020952Y-66536667D01*
X92401905Y-66536667D01*
X92497143Y-66584286D01*
X92544762Y-66631905D01*
X92592381Y-66727143D01*
X92592381Y-66917620D01*
X92544762Y-67012858D01*
X92497143Y-67060477D01*
X92401905Y-67108096D01*
X92163810Y-67108096D01*
X92068571Y-67060477D01*
X92020952Y-67012858D01*
X91973333Y-66917620D01*
X91973333Y-66727143D01*
X92020952Y-66631905D01*
X92068571Y-66584286D01*
X92163810Y-66536667D01*
X92542381Y-78740953D02*
X92066190Y-78407619D01*
X92542381Y-78169524D02*
X91542381Y-78169524D01*
X91542381Y-78550477D01*
X91590000Y-78645715D01*
X91637619Y-78693334D01*
X91732857Y-78740953D01*
X91875714Y-78740953D01*
X91970952Y-78693334D01*
X92018571Y-78645715D01*
X92066190Y-78550477D01*
X92066190Y-78169524D01*
X92542381Y-79693334D02*
X92542381Y-79121905D01*
X92542381Y-79407619D02*
X91542381Y-79407619D01*
X91685238Y-79312381D01*
X91780476Y-79217143D01*
X91828095Y-79121905D01*
X92542381Y-80645715D02*
X92542381Y-80074286D01*
X92542381Y-80360000D02*
X91542381Y-80360000D01*
X91685238Y-80264762D01*
X91780476Y-80169524D01*
X91828095Y-80074286D01*
X91542381Y-80979048D02*
X91542381Y-81645715D01*
X92542381Y-81217143D01*
X96312381Y-78760953D02*
X95836190Y-78427619D01*
X96312381Y-78189524D02*
X95312381Y-78189524D01*
X95312381Y-78570477D01*
X95360000Y-78665715D01*
X95407619Y-78713334D01*
X95502857Y-78760953D01*
X95645714Y-78760953D01*
X95740952Y-78713334D01*
X95788571Y-78665715D01*
X95836190Y-78570477D01*
X95836190Y-78189524D01*
X96312381Y-79713334D02*
X96312381Y-79141905D01*
X96312381Y-79427619D02*
X95312381Y-79427619D01*
X95455238Y-79332381D01*
X95550476Y-79237143D01*
X95598095Y-79141905D01*
X96312381Y-80665715D02*
X96312381Y-80094286D01*
X96312381Y-80380000D02*
X95312381Y-80380000D01*
X95455238Y-80284762D01*
X95550476Y-80189524D01*
X95598095Y-80094286D01*
X95740952Y-81237143D02*
X95693333Y-81141905D01*
X95645714Y-81094286D01*
X95550476Y-81046667D01*
X95502857Y-81046667D01*
X95407619Y-81094286D01*
X95360000Y-81141905D01*
X95312381Y-81237143D01*
X95312381Y-81427620D01*
X95360000Y-81522858D01*
X95407619Y-81570477D01*
X95502857Y-81618096D01*
X95550476Y-81618096D01*
X95645714Y-81570477D01*
X95693333Y-81522858D01*
X95740952Y-81427620D01*
X95740952Y-81237143D01*
X95788571Y-81141905D01*
X95836190Y-81094286D01*
X95931429Y-81046667D01*
X96121905Y-81046667D01*
X96217143Y-81094286D01*
X96264762Y-81141905D01*
X96312381Y-81237143D01*
X96312381Y-81427620D01*
X96264762Y-81522858D01*
X96217143Y-81570477D01*
X96121905Y-81618096D01*
X95931429Y-81618096D01*
X95836190Y-81570477D01*
X95788571Y-81522858D01*
X95740952Y-81427620D01*
X103132381Y-35140953D02*
X102656190Y-34807619D01*
X103132381Y-34569524D02*
X102132381Y-34569524D01*
X102132381Y-34950477D01*
X102180000Y-35045715D01*
X102227619Y-35093334D01*
X102322857Y-35140953D01*
X102465714Y-35140953D01*
X102560952Y-35093334D01*
X102608571Y-35045715D01*
X102656190Y-34950477D01*
X102656190Y-34569524D01*
X103132381Y-36093334D02*
X103132381Y-35521905D01*
X103132381Y-35807619D02*
X102132381Y-35807619D01*
X102275238Y-35712381D01*
X102370476Y-35617143D01*
X102418095Y-35521905D01*
X103132381Y-37045715D02*
X103132381Y-36474286D01*
X103132381Y-36760000D02*
X102132381Y-36760000D01*
X102275238Y-36664762D01*
X102370476Y-36569524D01*
X102418095Y-36474286D01*
X103132381Y-37521905D02*
X103132381Y-37712381D01*
X103084762Y-37807620D01*
X103037143Y-37855239D01*
X102894286Y-37950477D01*
X102703810Y-37998096D01*
X102322857Y-37998096D01*
X102227619Y-37950477D01*
X102180000Y-37902858D01*
X102132381Y-37807620D01*
X102132381Y-37617143D01*
X102180000Y-37521905D01*
X102227619Y-37474286D01*
X102322857Y-37426667D01*
X102560952Y-37426667D01*
X102656190Y-37474286D01*
X102703810Y-37521905D01*
X102751429Y-37617143D01*
X102751429Y-37807620D01*
X102703810Y-37902858D01*
X102656190Y-37950477D01*
X102560952Y-37998096D01*
X103302381Y-49610953D02*
X102826190Y-49277619D01*
X103302381Y-49039524D02*
X102302381Y-49039524D01*
X102302381Y-49420477D01*
X102350000Y-49515715D01*
X102397619Y-49563334D01*
X102492857Y-49610953D01*
X102635714Y-49610953D01*
X102730952Y-49563334D01*
X102778571Y-49515715D01*
X102826190Y-49420477D01*
X102826190Y-49039524D01*
X103302381Y-50563334D02*
X103302381Y-49991905D01*
X103302381Y-50277619D02*
X102302381Y-50277619D01*
X102445238Y-50182381D01*
X102540476Y-50087143D01*
X102588095Y-49991905D01*
X102397619Y-50944286D02*
X102350000Y-50991905D01*
X102302381Y-51087143D01*
X102302381Y-51325239D01*
X102350000Y-51420477D01*
X102397619Y-51468096D01*
X102492857Y-51515715D01*
X102588095Y-51515715D01*
X102730952Y-51468096D01*
X103302381Y-50896667D01*
X103302381Y-51515715D01*
X103302381Y-52468096D02*
X103302381Y-51896667D01*
X103302381Y-52182381D02*
X102302381Y-52182381D01*
X102445238Y-52087143D01*
X102540476Y-51991905D01*
X102588095Y-51896667D01*
X103382381Y-64170953D02*
X102906190Y-63837619D01*
X103382381Y-63599524D02*
X102382381Y-63599524D01*
X102382381Y-63980477D01*
X102430000Y-64075715D01*
X102477619Y-64123334D01*
X102572857Y-64170953D01*
X102715714Y-64170953D01*
X102810952Y-64123334D01*
X102858571Y-64075715D01*
X102906190Y-63980477D01*
X102906190Y-63599524D01*
X103382381Y-65123334D02*
X103382381Y-64551905D01*
X103382381Y-64837619D02*
X102382381Y-64837619D01*
X102525238Y-64742381D01*
X102620476Y-64647143D01*
X102668095Y-64551905D01*
X102477619Y-65504286D02*
X102430000Y-65551905D01*
X102382381Y-65647143D01*
X102382381Y-65885239D01*
X102430000Y-65980477D01*
X102477619Y-66028096D01*
X102572857Y-66075715D01*
X102668095Y-66075715D01*
X102810952Y-66028096D01*
X103382381Y-65456667D01*
X103382381Y-66075715D01*
X102477619Y-66456667D02*
X102430000Y-66504286D01*
X102382381Y-66599524D01*
X102382381Y-66837620D01*
X102430000Y-66932858D01*
X102477619Y-66980477D01*
X102572857Y-67028096D01*
X102668095Y-67028096D01*
X102810952Y-66980477D01*
X103382381Y-66409048D01*
X103382381Y-67028096D01*
X103442381Y-78530953D02*
X102966190Y-78197619D01*
X103442381Y-77959524D02*
X102442381Y-77959524D01*
X102442381Y-78340477D01*
X102490000Y-78435715D01*
X102537619Y-78483334D01*
X102632857Y-78530953D01*
X102775714Y-78530953D01*
X102870952Y-78483334D01*
X102918571Y-78435715D01*
X102966190Y-78340477D01*
X102966190Y-77959524D01*
X103442381Y-79483334D02*
X103442381Y-78911905D01*
X103442381Y-79197619D02*
X102442381Y-79197619D01*
X102585238Y-79102381D01*
X102680476Y-79007143D01*
X102728095Y-78911905D01*
X102537619Y-79864286D02*
X102490000Y-79911905D01*
X102442381Y-80007143D01*
X102442381Y-80245239D01*
X102490000Y-80340477D01*
X102537619Y-80388096D01*
X102632857Y-80435715D01*
X102728095Y-80435715D01*
X102870952Y-80388096D01*
X103442381Y-79816667D01*
X103442381Y-80435715D01*
X102442381Y-80769048D02*
X102442381Y-81388096D01*
X102823333Y-81054762D01*
X102823333Y-81197620D01*
X102870952Y-81292858D01*
X102918571Y-81340477D01*
X103013810Y-81388096D01*
X103251905Y-81388096D01*
X103347143Y-81340477D01*
X103394762Y-81292858D01*
X103442381Y-81197620D01*
X103442381Y-80911905D01*
X103394762Y-80816667D01*
X103347143Y-80769048D01*
M02*
