G04 #@! TF.FileFunction,Paste,Bot*
%FSLAX46Y46*%
G04 Gerber Fmt 4.6, Leading zero omitted, Abs format (unit mm)*
G04 Created by KiCad (PCBNEW 4.0.1-stable) date 9/28/2016 11:04:03 AM*
%MOMM*%
G01*
G04 APERTURE LIST*
%ADD10C,0.150000*%
%ADD11R,3.749040X2.550160*%
%ADD12R,1.524000X2.032000*%
%ADD13R,0.508000X1.143000*%
%ADD14R,1.700000X0.900000*%
%ADD15R,0.900000X1.700000*%
%ADD16R,1.250000X1.000000*%
%ADD17R,1.000000X1.250000*%
G04 APERTURE END LIST*
D10*
D11*
X32168750Y-47992730D03*
X32168750Y-53392770D03*
D12*
X100748750Y-127591250D03*
X98208750Y-127591250D03*
X95668750Y-127591250D03*
X93128750Y-127591250D03*
X93128750Y-119971250D03*
X95668750Y-119971250D03*
X98208750Y-119971250D03*
X100748750Y-119971250D03*
X100748750Y-109811250D03*
X98208750Y-109811250D03*
X95668750Y-109811250D03*
X93128750Y-109811250D03*
X93128750Y-102191250D03*
X95668750Y-102191250D03*
X98208750Y-102191250D03*
X100748750Y-102191250D03*
X100748750Y-92031250D03*
X98208750Y-92031250D03*
X95668750Y-92031250D03*
X93128750Y-92031250D03*
X93128750Y-84411250D03*
X95668750Y-84411250D03*
X98208750Y-84411250D03*
X100748750Y-84411250D03*
X100748750Y-74251250D03*
X98208750Y-74251250D03*
X95668750Y-74251250D03*
X93128750Y-74251250D03*
X93128750Y-66631250D03*
X95668750Y-66631250D03*
X98208750Y-66631250D03*
X100748750Y-66631250D03*
X85508750Y-127591250D03*
X82968750Y-127591250D03*
X80428750Y-127591250D03*
X77888750Y-127591250D03*
X77888750Y-119971250D03*
X80428750Y-119971250D03*
X82968750Y-119971250D03*
X85508750Y-119971250D03*
X85508750Y-109811250D03*
X82968750Y-109811250D03*
X80428750Y-109811250D03*
X77888750Y-109811250D03*
X77888750Y-102191250D03*
X80428750Y-102191250D03*
X82968750Y-102191250D03*
X85508750Y-102191250D03*
X85508750Y-92031250D03*
X82968750Y-92031250D03*
X80428750Y-92031250D03*
X77888750Y-92031250D03*
X77888750Y-84411250D03*
X80428750Y-84411250D03*
X82968750Y-84411250D03*
X85508750Y-84411250D03*
X85508750Y-74251250D03*
X82968750Y-74251250D03*
X80428750Y-74251250D03*
X77888750Y-74251250D03*
X77888750Y-66631250D03*
X80428750Y-66631250D03*
X82968750Y-66631250D03*
X85508750Y-66631250D03*
X70268750Y-127591250D03*
X67728750Y-127591250D03*
X65188750Y-127591250D03*
X62648750Y-127591250D03*
X62648750Y-119971250D03*
X65188750Y-119971250D03*
X67728750Y-119971250D03*
X70268750Y-119971250D03*
X70268750Y-109811250D03*
X67728750Y-109811250D03*
X65188750Y-109811250D03*
X62648750Y-109811250D03*
X62648750Y-102191250D03*
X65188750Y-102191250D03*
X67728750Y-102191250D03*
X70268750Y-102191250D03*
X70268750Y-92031250D03*
X67728750Y-92031250D03*
X65188750Y-92031250D03*
X62648750Y-92031250D03*
X62648750Y-84411250D03*
X65188750Y-84411250D03*
X67728750Y-84411250D03*
X70268750Y-84411250D03*
X70268750Y-74251250D03*
X67728750Y-74251250D03*
X65188750Y-74251250D03*
X62648750Y-74251250D03*
X62648750Y-66631250D03*
X65188750Y-66631250D03*
X67728750Y-66631250D03*
X70268750Y-66631250D03*
X55028750Y-127591250D03*
X52488750Y-127591250D03*
X49948750Y-127591250D03*
X47408750Y-127591250D03*
X47408750Y-119971250D03*
X49948750Y-119971250D03*
X52488750Y-119971250D03*
X55028750Y-119971250D03*
X55028750Y-109811250D03*
X52488750Y-109811250D03*
X49948750Y-109811250D03*
X47408750Y-109811250D03*
X47408750Y-102191250D03*
X49948750Y-102191250D03*
X52488750Y-102191250D03*
X55028750Y-102191250D03*
X55028750Y-92031250D03*
X52488750Y-92031250D03*
X49948750Y-92031250D03*
X47408750Y-92031250D03*
X47408750Y-84411250D03*
X49948750Y-84411250D03*
X52488750Y-84411250D03*
X55028750Y-84411250D03*
X55028750Y-74251250D03*
X52488750Y-74251250D03*
X49948750Y-74251250D03*
X47408750Y-74251250D03*
X47408750Y-66631250D03*
X49948750Y-66631250D03*
X52488750Y-66631250D03*
X55028750Y-66631250D03*
X39788750Y-127591250D03*
X37248750Y-127591250D03*
X34708750Y-127591250D03*
X32168750Y-127591250D03*
X32168750Y-119971250D03*
X34708750Y-119971250D03*
X37248750Y-119971250D03*
X39788750Y-119971250D03*
X39788750Y-109811250D03*
X37248750Y-109811250D03*
X34708750Y-109811250D03*
X32168750Y-109811250D03*
X32168750Y-102191250D03*
X34708750Y-102191250D03*
X37248750Y-102191250D03*
X39788750Y-102191250D03*
X39788750Y-92031250D03*
X37248750Y-92031250D03*
X34708750Y-92031250D03*
X32168750Y-92031250D03*
X32168750Y-84411250D03*
X34708750Y-84411250D03*
X37248750Y-84411250D03*
X39788750Y-84411250D03*
X39788750Y-74251250D03*
X37248750Y-74251250D03*
X34708750Y-74251250D03*
X32168750Y-74251250D03*
X32168750Y-66631250D03*
X34708750Y-66631250D03*
X37248750Y-66631250D03*
X39788750Y-66631250D03*
D13*
X101383750Y-62948250D03*
X100113750Y-62948250D03*
X98843750Y-62948250D03*
X97573750Y-62948250D03*
X96303750Y-62948250D03*
X95033750Y-62948250D03*
X93763750Y-62948250D03*
X92493750Y-62948250D03*
X92493750Y-57868250D03*
X93763750Y-57868250D03*
X95033750Y-57868250D03*
X96303750Y-57868250D03*
X97573750Y-57868250D03*
X98843750Y-57868250D03*
X100113750Y-57868250D03*
X101383750Y-57868250D03*
X86143750Y-63075250D03*
X84873750Y-63075250D03*
X83603750Y-63075250D03*
X82333750Y-63075250D03*
X81063750Y-63075250D03*
X79793750Y-63075250D03*
X78523750Y-63075250D03*
X77253750Y-63075250D03*
X77253750Y-57995250D03*
X78523750Y-57995250D03*
X79793750Y-57995250D03*
X81063750Y-57995250D03*
X82333750Y-57995250D03*
X83603750Y-57995250D03*
X84873750Y-57995250D03*
X86143750Y-57995250D03*
X70903750Y-63075250D03*
X69633750Y-63075250D03*
X68363750Y-63075250D03*
X67093750Y-63075250D03*
X65823750Y-63075250D03*
X64553750Y-63075250D03*
X63283750Y-63075250D03*
X62013750Y-63075250D03*
X62013750Y-57995250D03*
X63283750Y-57995250D03*
X64553750Y-57995250D03*
X65823750Y-57995250D03*
X67093750Y-57995250D03*
X68363750Y-57995250D03*
X69633750Y-57995250D03*
X70903750Y-57995250D03*
X55663750Y-63075250D03*
X54393750Y-63075250D03*
X53123750Y-63075250D03*
X51853750Y-63075250D03*
X50583750Y-63075250D03*
X49313750Y-63075250D03*
X48043750Y-63075250D03*
X46773750Y-63075250D03*
X46773750Y-57995250D03*
X48043750Y-57995250D03*
X49313750Y-57995250D03*
X50583750Y-57995250D03*
X51853750Y-57995250D03*
X53123750Y-57995250D03*
X54393750Y-57995250D03*
X55663750Y-57995250D03*
X40423750Y-63075250D03*
X39153750Y-63075250D03*
X37883750Y-63075250D03*
X36613750Y-63075250D03*
X35343750Y-63075250D03*
X34073750Y-63075250D03*
X32803750Y-63075250D03*
X31533750Y-63075250D03*
X31533750Y-57995250D03*
X32803750Y-57995250D03*
X34073750Y-57995250D03*
X35343750Y-57995250D03*
X36613750Y-57995250D03*
X37883750Y-57995250D03*
X39153750Y-57995250D03*
X40423750Y-57995250D03*
D14*
X96938750Y-116468250D03*
X96938750Y-113568250D03*
X96938750Y-98561250D03*
X96938750Y-95661250D03*
X81698750Y-116341250D03*
X81698750Y-113441250D03*
X81698750Y-98561250D03*
X81698750Y-95661250D03*
X66458750Y-116341250D03*
X66458750Y-113441250D03*
X66458750Y-98561250D03*
X66458750Y-95661250D03*
X51218750Y-116341250D03*
X51218750Y-113441250D03*
X51218750Y-98561250D03*
X51218750Y-95661250D03*
D15*
X98378000Y-36310000D03*
X101278000Y-36310000D03*
D14*
X35978750Y-116341250D03*
X35978750Y-113441250D03*
X35978750Y-98561250D03*
X35978750Y-95661250D03*
X100748750Y-131221250D03*
X100748750Y-134121250D03*
X96938750Y-134121250D03*
X96938750Y-131221250D03*
X100748750Y-113568250D03*
X100748750Y-116468250D03*
X100748750Y-95661250D03*
X100748750Y-98561250D03*
X100748750Y-77881250D03*
X100748750Y-80781250D03*
X96938750Y-80781250D03*
X96938750Y-77881250D03*
X93128750Y-134121250D03*
X93128750Y-131221250D03*
X93128750Y-116468250D03*
X93128750Y-113568250D03*
X93128750Y-98561250D03*
X93128750Y-95661250D03*
X93128750Y-80781250D03*
X93128750Y-77881250D03*
X81698750Y-134121250D03*
X81698750Y-131221250D03*
X85508750Y-131221250D03*
X85508750Y-134121250D03*
X85508750Y-113441250D03*
X85508750Y-116341250D03*
X85508750Y-95661250D03*
X85508750Y-98561250D03*
X85508750Y-77881250D03*
X85508750Y-80781250D03*
X81698750Y-80781250D03*
X81698750Y-77881250D03*
X77888750Y-134121250D03*
X77888750Y-131221250D03*
X77888750Y-116341250D03*
X77888750Y-113441250D03*
X77888750Y-98561250D03*
X77888750Y-95661250D03*
X77888750Y-80781250D03*
X77888750Y-77881250D03*
X66458750Y-134121250D03*
X66458750Y-131221250D03*
X70268750Y-131221250D03*
X70268750Y-134121250D03*
X70268750Y-113441250D03*
X70268750Y-116341250D03*
X70268750Y-95661250D03*
X70268750Y-98561250D03*
X70268750Y-77881250D03*
X70268750Y-80781250D03*
X66458750Y-80781250D03*
X66458750Y-77881250D03*
X62648750Y-134121250D03*
X62648750Y-131221250D03*
X62648750Y-116341250D03*
X62648750Y-113441250D03*
X62648750Y-98561250D03*
X62648750Y-95661250D03*
X62648750Y-80781250D03*
X62648750Y-77881250D03*
X51218750Y-134121250D03*
X51218750Y-131221250D03*
X55028750Y-131221250D03*
X55028750Y-134121250D03*
X55028750Y-113441250D03*
X55028750Y-116341250D03*
X55028750Y-95661250D03*
X55028750Y-98561250D03*
X55028750Y-77881250D03*
X55028750Y-80781250D03*
X51218750Y-80781250D03*
X51218750Y-77881250D03*
X47408750Y-134121250D03*
X47408750Y-131221250D03*
X47408750Y-116341250D03*
X47408750Y-113441250D03*
X47408750Y-98561250D03*
X47408750Y-95661250D03*
X47408750Y-80781250D03*
X47408750Y-77881250D03*
X39788750Y-131221250D03*
X39788750Y-134121250D03*
X35978750Y-134121250D03*
X35978750Y-131221250D03*
X39788750Y-113441250D03*
X39788750Y-116341250D03*
X39788750Y-95661250D03*
X39788750Y-98561250D03*
X39788750Y-77881250D03*
X39788750Y-80781250D03*
X35978750Y-80781250D03*
X35978750Y-77881250D03*
X32168750Y-134121250D03*
X32168750Y-131221250D03*
X32168750Y-116341250D03*
X32168750Y-113441250D03*
X32168750Y-98561250D03*
X32168750Y-95661250D03*
X32168750Y-80781250D03*
X32168750Y-77881250D03*
D15*
X98378000Y-41390000D03*
X101278000Y-41390000D03*
X98378000Y-43930000D03*
X101278000Y-43930000D03*
X98378000Y-38850000D03*
X101278000Y-38850000D03*
D16*
X74174000Y-31246000D03*
X74174000Y-33246000D03*
D17*
X61026200Y-50381600D03*
X59026200Y-50381600D03*
X85112000Y-39307200D03*
X87112000Y-39307200D03*
M02*
