M48
;DRILL file {KiCad 4.0.1-stable} date 9/28/2016 11:04:05 AM
;FORMAT={2:4/ absolute / inch / suppress leading zeros}
FMAT,2
INCH,TZ
T1C0.015
T2C0.025
T3C0.030
T4C0.031
T5C0.032
T6C0.039
T7C0.040
T8C0.050
T9C0.059
T10C0.060
T11C0.063
T12C0.100
T13C0.120
T14C0.157
%
G90
G05
M72
T1
X11065Y-20183
X11065Y-23583
X11215Y-19583
X11215Y-24108
X11315Y-53083
X11365Y-52733
X11365Y-53483
X11365Y-53833
X11365Y-54183
X11490Y-28208
X11515Y-52433
X11715Y-52133
X11765Y-27908
X11855Y-42953
X11875Y-35673
X12135Y-36233
X12155Y-29233
X12155Y-43233
X12155Y-50233
X12195Y-49353
X12215Y-52283
X12365Y-28033
X12375Y-26853
X12375Y-33853
X12375Y-40853
X12375Y-47853
X12635Y-28313
X12635Y-35313
X12655Y-42313
X12655Y-49313
X12665Y-20208
X12715Y-52283
X12915Y-22358
X13275Y-37593
X13295Y-30593
X13295Y-44593
X13340Y-23583
X13365Y-19583
X13412Y-21855
X13912Y-21605
X13915Y-24108
X14135Y-50873
X14155Y-26773
X14155Y-33773
X14155Y-47793
X14155Y-49673
X14165Y-25408
X14165Y-27883
X14165Y-29858
X14165Y-32473
X14165Y-36853
X14165Y-39533
X14165Y-43808
X14165Y-46513
X14175Y-28713
X14175Y-35713
X14175Y-42693
X14195Y-40773
X14412Y-22105
X14415Y-24258
X14490Y-20183
X14555Y-56273
X14615Y-56833
X14865Y-23583
X14895Y-31033
X14915Y-21358
X14915Y-38033
X14915Y-45273
X14915Y-52233
X14955Y-55993
X15015Y-56833
X15390Y-53433
X15415Y-56833
X15655Y-28613
X15655Y-35613
X15675Y-42613
X15675Y-49613
X15915Y-29883
X15915Y-36858
X15915Y-43858
X15915Y-50883
X16015Y-53733
X16265Y-56833
X16290Y-24833
X16315Y-54333
X16340Y-23783
X16390Y-53183
X16590Y-24058
X16615Y-54833
X16690Y-53383
X16915Y-55433
X17140Y-53883
X17315Y-56253
X17565Y-22358
X17675Y-56253
X18015Y-52913
X18015Y-53458
X18040Y-24833
X18055Y-52573
X18065Y-21358
X18155Y-29233
X18155Y-36233
X18155Y-43233
X18155Y-50233
X18355Y-33873
X18355Y-42013
X18355Y-49013
X18375Y-26853
X18375Y-28013
X18375Y-35013
X18375Y-40853
X18375Y-47853
X18377Y-25445
X18635Y-49313
X18655Y-28313
X18655Y-35313
X18655Y-42313
X18890Y-22358
X19275Y-30573
X19275Y-37593
X19275Y-51573
X19290Y-23483
X19295Y-44593
X19412Y-21855
X19912Y-21605
X19917Y-24320
X19952Y-10545
X20155Y-40793
X20155Y-47773
X20155Y-50958
X20165Y-25408
X20165Y-29808
X20165Y-32523
X20165Y-36808
X20165Y-39543
X20165Y-46493
X20175Y-26773
X20175Y-27933
X20175Y-28713
X20175Y-33793
X20175Y-34973
X20175Y-35753
X20175Y-42693
X20175Y-43833
X20175Y-48913
X20175Y-49713
X20195Y-41893
X20407Y-18495
X20412Y-22105
X20415Y-24358
X20890Y-23583
X20895Y-31033
X20915Y-21333
X20915Y-52233
X20935Y-38033
X20935Y-45273
X21655Y-28613
X21655Y-49613
X21675Y-35613
X21675Y-42613
X21897Y-24105
X21915Y-29858
X21915Y-43858
X21915Y-50958
X22065Y-16483
X22087Y-36810
X22290Y-24833
X22490Y-24108
X23115Y-53893
X23275Y-53293
X23295Y-52933
X23652Y-23595
X24015Y-24833
X24135Y-29233
X24155Y-36233
X24155Y-43233
X24155Y-50233
X24290Y-21333
X24355Y-26873
X24355Y-33873
X24355Y-40853
X24355Y-42013
X24355Y-47873
X24355Y-48993
X24375Y-28013
X24375Y-35013
X24397Y-25480
X24415Y-53533
X24502Y-16645
X24635Y-42313
X24655Y-28313
X24655Y-35313
X24665Y-49303
X24715Y-53793
X24915Y-22358
X25015Y-54053
X25275Y-51553
X25290Y-23608
X25295Y-30593
X25295Y-37593
X25295Y-44573
X25412Y-21855
X25915Y-21608
X25915Y-24108
X26155Y-26773
X26155Y-36853
X26155Y-43833
X26155Y-47833
X26165Y-25408
X26165Y-29813
X26165Y-32573
X26165Y-39593
X26165Y-46493
X26165Y-50933
X26175Y-33773
X26175Y-34913
X26175Y-35713
X26175Y-40793
X26175Y-42653
X26175Y-48873
X26175Y-49693
X26195Y-27893
X26195Y-28673
X26195Y-41873
X26252Y-16395
X26412Y-22105
X26415Y-24258
X26565Y-53983
X26840Y-23583
X26895Y-31033
X26915Y-21358
X26915Y-45253
X26915Y-52233
X26935Y-38033
X27502Y-17245
X27655Y-28613
X27655Y-42613
X27655Y-49613
X27675Y-35613
X27915Y-29873
X27915Y-43858
X27915Y-50933
X27915Y-53458
X27940Y-36858
X28115Y-54008
X28315Y-23958
X28315Y-24308
X28315Y-24833
X28315Y-53233
X28565Y-52958
X28665Y-54183
X28840Y-52733
X29240Y-54383
X29290Y-51658
X29490Y-51933
X29640Y-54683
X29665Y-52258
X29835Y-52553
X29965Y-24833
X30015Y-52833
X30135Y-36233
X30155Y-29253
X30155Y-43233
X30155Y-50233
X30232Y-13655
X30302Y-16645
X30315Y-27073
X30315Y-40913
X30335Y-33953
X30335Y-34973
X30335Y-47933
X30335Y-49013
X30355Y-41993
X30375Y-28013
X30397Y-25460
X30415Y-21333
X30515Y-13208
X30575Y-42313
X30595Y-35313
X30635Y-28313
X30635Y-49313
X30840Y-12958
X30915Y-22358
X30965Y-54883
X31295Y-30593
X31295Y-37593
X31295Y-44573
X31295Y-51573
X31365Y-23583
X31415Y-21858
X31465Y-55083
X31915Y-21608
X31915Y-24308
X31965Y-55283
X32115Y-55833
X32155Y-25383
X32155Y-26793
X32155Y-36873
X32165Y-32573
X32165Y-43833
X32165Y-46533
X32165Y-50893
X32165Y-39547
X32175Y-28693
X32175Y-29873
X32175Y-33813
X32175Y-49713
X32195Y-27913
X32195Y-35673
X32195Y-40833
X32195Y-41893
X32195Y-42693
X32195Y-47793
X32195Y-48913
X32235Y-34873
X32407Y-22110
X32415Y-24283
X32895Y-45273
X32915Y-23583
X32915Y-31033
X32915Y-52233
X32935Y-38033
X33177Y-13030
X33202Y-14795
X33365Y-56083
X33532Y-13345
X33655Y-35613
X33655Y-42613
X33655Y-49613
X33675Y-28613
X33702Y-16905
X33715Y-56083
X33915Y-29858
X33915Y-36883
X33915Y-43858
X33915Y-50883
X33975Y-54193
X34065Y-56083
X34115Y-54753
X34290Y-24833
X34295Y-54453
X34312Y-16995
X34362Y-14825
X34375Y-54973
X34415Y-56083
X34493Y-16009
X34540Y-24208
X34565Y-23833
X34715Y-55013
X34735Y-55353
X34765Y-56083
X34990Y-22033
X35035Y-55493
X35075Y-55833
X35152Y-14795
X35202Y-16895
X35747Y-13655
X35752Y-15700
X35752Y-17025
X35840Y-22658
X36040Y-24833
X36115Y-29253
X36155Y-36253
X36155Y-43233
X36155Y-47793
X36155Y-50233
X36355Y-26933
X36355Y-27973
X36355Y-33993
X36355Y-40893
X36355Y-41973
X36375Y-35053
X36375Y-48973
X36407Y-25435
X36595Y-35353
X36602Y-14345
X36605Y-28343
X36652Y-16295
X36665Y-42283
X36665Y-49283
X36990Y-21433
X37140Y-17583
X37265Y-21183
X37295Y-51573
X37315Y-30583
X37315Y-37583
X37315Y-44633
X37415Y-23583
X37502Y-15295
X37932Y-17725
X38052Y-15295
X38155Y-26753
X38155Y-33753
X38155Y-47773
X38155Y-49713
X38165Y-25433
X38165Y-29853
X38165Y-32533
X38165Y-36853
X38165Y-39553
X38165Y-43853
X38165Y-46553
X38165Y-50933
X38175Y-28733
X38175Y-35733
X38175Y-42733
X38195Y-34953
X38195Y-40813
X38215Y-27933
X38215Y-41973
X38240Y-24108
X38595Y-48993
X38815Y-23583
X38915Y-52233
X38935Y-38033
X38955Y-45273
X38975Y-31033
X39252Y-20595
X39478Y-15295
X39488Y-16299
X39655Y-28613
X39675Y-35613
X39675Y-42613
X39675Y-49613
X39915Y-29858
X39915Y-36858
X39915Y-43858
X39915Y-50933
X40302Y-22795
X40315Y-23858
X40315Y-24783
X40552Y-14295
X40602Y-17295
X41315Y-24783
X41335Y-51573
X41555Y-28273
X41555Y-35253
X41555Y-42293
X41555Y-48093
X41835Y-48413
X41855Y-28593
X41855Y-35613
X41855Y-42613
X42115Y-23583
X42115Y-31033
X42115Y-38033
X42115Y-45273
X42365Y-23133
X42375Y-30133
X42375Y-37153
X42375Y-44113
T2
X21365Y-55883
X21365Y-56383
X21865Y-55883
X21865Y-56383
X22365Y-55883
X22365Y-56383
X22865Y-55883
X22865Y-56383
X23365Y-55883
X23365Y-56383
X23865Y-55883
X23865Y-56383
X24365Y-55883
X24365Y-56383
X24865Y-55883
X24865Y-56383
X25365Y-55883
X25365Y-56383
X25865Y-55883
X25865Y-56383
X26365Y-55883
X26365Y-56383
X26865Y-55883
X26865Y-56383
X27365Y-55883
X27365Y-56383
X27865Y-55883
X27865Y-56383
X28365Y-55883
X28365Y-56383
X28865Y-55883
X28865Y-56383
X29365Y-55883
X29365Y-56383
X29865Y-55883
X29865Y-56383
X30365Y-55883
X30365Y-56383
X30865Y-55883
X30865Y-56383
T3
X17520Y-16043
X19520Y-16043
T4
X17404Y-17805
X17404Y-20805
X18404Y-17805
X18404Y-20805
X19404Y-17805
X19404Y-20805
X20404Y-17805
X20404Y-20805
X21404Y-17805
X21404Y-20805
X22404Y-17805
X22404Y-20805
X23404Y-17805
X23404Y-20805
X24404Y-17805
X24404Y-20805
X25404Y-17805
X25404Y-20805
X26404Y-17805
X26404Y-20805
X27404Y-17805
X27404Y-20805
X28404Y-17805
X28404Y-20805
X29404Y-17805
X29404Y-20805
X30404Y-17805
X30404Y-20805
T5
X34515Y-12033
X34515Y-13033
X35515Y-12033
X35515Y-13033
X36515Y-12033
X36515Y-13033
X37515Y-12033
X37515Y-13033
X38515Y-12033
X38515Y-13033
T6
X31554Y-18177
X31554Y-20539
X33326Y-18177
X33326Y-20539
T7
X23002Y-13278
X24002Y-13278
X25002Y-13278
X26002Y-13278
X27002Y-13278
X28002Y-13278
X30945Y-15472
X30945Y-16472
X35008Y-18789
X35008Y-19789
X36008Y-18789
X36008Y-19789
X37008Y-18789
X37008Y-19789
X39045Y-19646
X39055Y-18504
X40045Y-19646
X40055Y-18504
T8
X20740Y-56133
X31490Y-56133
T9
X13015Y-12033
X18015Y-12033
T10
X22515Y-15533
X24515Y-15533
X26515Y-15533
X28515Y-15533
T11
X12015Y-11033
X12015Y-13033
X14015Y-11033
X14015Y-13033
X17015Y-11033
X17015Y-13033
X19015Y-11033
X19015Y-13033
T12
X21515Y-14533
X29515Y-14533
X32215Y-12333
X40815Y-12333
T13
X11602Y-16045
X11602Y-56545
X41602Y-16045
X41602Y-56545
T14
X23515Y-11533
X27515Y-11533
T0
M30
