G04 (created by PCBNEW (2013-07-07 BZR 4022)-stable) date 04/02/2014 10:44:19 AM*
%MOIN*%
G04 Gerber Fmt 3.4, Leading zero omitted, Abs format*
%FSLAX34Y34*%
G01*
G70*
G90*
G04 APERTURE LIST*
%ADD10C,0.00590551*%
%ADD11C,0.012*%
%ADD12C,0.005*%
%ADD13C,0.015*%
%ADD14C,0.01*%
%ADD15C,0.008*%
%ADD16C,0.006*%
%ADD17C,0.0045*%
G04 APERTURE END LIST*
G54D10*
G54D11*
X7793Y-14991D02*
X7793Y-14533D01*
X7488Y-14762D02*
X8098Y-14762D01*
G54D12*
X11012Y-35187D02*
X10112Y-35187D01*
X10112Y-35187D02*
X10112Y-34537D01*
X11012Y-33837D02*
X11012Y-33187D01*
X11012Y-33187D02*
X10112Y-33187D01*
X10112Y-33187D02*
X10112Y-33837D01*
X11012Y-34537D02*
X11012Y-35187D01*
X35612Y-47187D02*
X36512Y-47187D01*
X36512Y-47187D02*
X36512Y-47837D01*
X35612Y-48537D02*
X35612Y-49187D01*
X35612Y-49187D02*
X36512Y-49187D01*
X36512Y-49187D02*
X36512Y-48537D01*
X35612Y-47837D02*
X35612Y-47187D01*
X35012Y-49187D02*
X34112Y-49187D01*
X34112Y-49187D02*
X34112Y-48537D01*
X35012Y-47837D02*
X35012Y-47187D01*
X35012Y-47187D02*
X34112Y-47187D01*
X34112Y-47187D02*
X34112Y-47837D01*
X35012Y-48537D02*
X35012Y-49187D01*
X33512Y-28187D02*
X32612Y-28187D01*
X32612Y-28187D02*
X32612Y-27537D01*
X33512Y-26837D02*
X33512Y-26187D01*
X33512Y-26187D02*
X32612Y-26187D01*
X32612Y-26187D02*
X32612Y-26837D01*
X33512Y-27537D02*
X33512Y-28187D01*
X27512Y-42187D02*
X26612Y-42187D01*
X26612Y-42187D02*
X26612Y-41537D01*
X27512Y-40837D02*
X27512Y-40187D01*
X27512Y-40187D02*
X26612Y-40187D01*
X26612Y-40187D02*
X26612Y-40837D01*
X27512Y-41537D02*
X27512Y-42187D01*
X29612Y-26187D02*
X30512Y-26187D01*
X30512Y-26187D02*
X30512Y-26837D01*
X29612Y-27537D02*
X29612Y-28187D01*
X29612Y-28187D02*
X30512Y-28187D01*
X30512Y-28187D02*
X30512Y-27537D01*
X29612Y-26837D02*
X29612Y-26187D01*
X29612Y-33187D02*
X30512Y-33187D01*
X30512Y-33187D02*
X30512Y-33837D01*
X29612Y-34537D02*
X29612Y-35187D01*
X29612Y-35187D02*
X30512Y-35187D01*
X30512Y-35187D02*
X30512Y-34537D01*
X29612Y-33837D02*
X29612Y-33187D01*
X27512Y-49187D02*
X26612Y-49187D01*
X26612Y-49187D02*
X26612Y-48537D01*
X27512Y-47837D02*
X27512Y-47187D01*
X27512Y-47187D02*
X26612Y-47187D01*
X26612Y-47187D02*
X26612Y-47837D01*
X27512Y-48537D02*
X27512Y-49187D01*
X23612Y-26187D02*
X24512Y-26187D01*
X24512Y-26187D02*
X24512Y-26837D01*
X23612Y-27537D02*
X23612Y-28187D01*
X23612Y-28187D02*
X24512Y-28187D01*
X24512Y-28187D02*
X24512Y-27537D01*
X23612Y-26837D02*
X23612Y-26187D01*
X23612Y-40187D02*
X24512Y-40187D01*
X24512Y-40187D02*
X24512Y-40837D01*
X23612Y-41537D02*
X23612Y-42187D01*
X23612Y-42187D02*
X24512Y-42187D01*
X24512Y-42187D02*
X24512Y-41537D01*
X23612Y-40837D02*
X23612Y-40187D01*
X23612Y-33187D02*
X24512Y-33187D01*
X24512Y-33187D02*
X24512Y-33837D01*
X23612Y-34537D02*
X23612Y-35187D01*
X23612Y-35187D02*
X24512Y-35187D01*
X24512Y-35187D02*
X24512Y-34537D01*
X23612Y-33837D02*
X23612Y-33187D01*
X23012Y-28187D02*
X22112Y-28187D01*
X22112Y-28187D02*
X22112Y-27537D01*
X23012Y-26837D02*
X23012Y-26187D01*
X23012Y-26187D02*
X22112Y-26187D01*
X22112Y-26187D02*
X22112Y-26837D01*
X23012Y-27537D02*
X23012Y-28187D01*
X35612Y-26187D02*
X36512Y-26187D01*
X36512Y-26187D02*
X36512Y-26837D01*
X35612Y-27537D02*
X35612Y-28187D01*
X35612Y-28187D02*
X36512Y-28187D01*
X36512Y-28187D02*
X36512Y-27537D01*
X35612Y-26837D02*
X35612Y-26187D01*
X35612Y-40237D02*
X36512Y-40237D01*
X36512Y-40237D02*
X36512Y-40887D01*
X35612Y-41587D02*
X35612Y-42237D01*
X35612Y-42237D02*
X36512Y-42237D01*
X36512Y-42237D02*
X36512Y-41587D01*
X35612Y-40887D02*
X35612Y-40237D01*
X35612Y-33187D02*
X36512Y-33187D01*
X36512Y-33187D02*
X36512Y-33837D01*
X35612Y-34537D02*
X35612Y-35187D01*
X35612Y-35187D02*
X36512Y-35187D01*
X36512Y-35187D02*
X36512Y-34537D01*
X35612Y-33837D02*
X35612Y-33187D01*
X35012Y-28187D02*
X34112Y-28187D01*
X34112Y-28187D02*
X34112Y-27537D01*
X35012Y-26837D02*
X35012Y-26187D01*
X35012Y-26187D02*
X34112Y-26187D01*
X34112Y-26187D02*
X34112Y-26837D01*
X35012Y-27537D02*
X35012Y-28187D01*
X29012Y-49187D02*
X28112Y-49187D01*
X28112Y-49187D02*
X28112Y-48537D01*
X29012Y-47837D02*
X29012Y-47187D01*
X29012Y-47187D02*
X28112Y-47187D01*
X28112Y-47187D02*
X28112Y-47837D01*
X29012Y-48537D02*
X29012Y-49187D01*
X33512Y-42237D02*
X32612Y-42237D01*
X32612Y-42237D02*
X32612Y-41587D01*
X33512Y-40887D02*
X33512Y-40237D01*
X33512Y-40237D02*
X32612Y-40237D01*
X32612Y-40237D02*
X32612Y-40887D01*
X33512Y-41587D02*
X33512Y-42237D01*
X33512Y-35187D02*
X32612Y-35187D01*
X32612Y-35187D02*
X32612Y-34537D01*
X33512Y-33837D02*
X33512Y-33187D01*
X33512Y-33187D02*
X32612Y-33187D01*
X32612Y-33187D02*
X32612Y-33837D01*
X33512Y-34537D02*
X33512Y-35187D01*
X29612Y-47187D02*
X30512Y-47187D01*
X30512Y-47187D02*
X30512Y-47837D01*
X29612Y-48537D02*
X29612Y-49187D01*
X29612Y-49187D02*
X30512Y-49187D01*
X30512Y-49187D02*
X30512Y-48537D01*
X29612Y-47837D02*
X29612Y-47187D01*
X33512Y-49187D02*
X32612Y-49187D01*
X32612Y-49187D02*
X32612Y-48537D01*
X33512Y-47837D02*
X33512Y-47187D01*
X33512Y-47187D02*
X32612Y-47187D01*
X32612Y-47187D02*
X32612Y-47837D01*
X33512Y-48537D02*
X33512Y-49187D01*
X11612Y-47187D02*
X12512Y-47187D01*
X12512Y-47187D02*
X12512Y-47837D01*
X11612Y-48537D02*
X11612Y-49187D01*
X11612Y-49187D02*
X12512Y-49187D01*
X12512Y-49187D02*
X12512Y-48537D01*
X11612Y-47837D02*
X11612Y-47187D01*
X11012Y-49187D02*
X10112Y-49187D01*
X10112Y-49187D02*
X10112Y-48537D01*
X11012Y-47837D02*
X11012Y-47187D01*
X11012Y-47187D02*
X10112Y-47187D01*
X10112Y-47187D02*
X10112Y-47837D01*
X11012Y-48537D02*
X11012Y-49187D01*
X11612Y-33187D02*
X12512Y-33187D01*
X12512Y-33187D02*
X12512Y-33837D01*
X11612Y-34537D02*
X11612Y-35187D01*
X11612Y-35187D02*
X12512Y-35187D01*
X12512Y-35187D02*
X12512Y-34537D01*
X11612Y-33837D02*
X11612Y-33187D01*
X9512Y-28187D02*
X8612Y-28187D01*
X8612Y-28187D02*
X8612Y-27537D01*
X9512Y-26837D02*
X9512Y-26187D01*
X9512Y-26187D02*
X8612Y-26187D01*
X8612Y-26187D02*
X8612Y-26837D01*
X9512Y-27537D02*
X9512Y-28187D01*
X9512Y-49187D02*
X8612Y-49187D01*
X8612Y-49187D02*
X8612Y-48537D01*
X9512Y-47837D02*
X9512Y-47187D01*
X9512Y-47187D02*
X8612Y-47187D01*
X8612Y-47187D02*
X8612Y-47837D01*
X9512Y-48537D02*
X9512Y-49187D01*
X9512Y-35187D02*
X8612Y-35187D01*
X8612Y-35187D02*
X8612Y-34537D01*
X9512Y-33837D02*
X9512Y-33187D01*
X9512Y-33187D02*
X8612Y-33187D01*
X8612Y-33187D02*
X8612Y-33837D01*
X9512Y-34537D02*
X9512Y-35187D01*
X11012Y-28187D02*
X10112Y-28187D01*
X10112Y-28187D02*
X10112Y-27537D01*
X11012Y-26837D02*
X11012Y-26187D01*
X11012Y-26187D02*
X10112Y-26187D01*
X10112Y-26187D02*
X10112Y-26837D01*
X11012Y-27537D02*
X11012Y-28187D01*
X11612Y-26187D02*
X12512Y-26187D01*
X12512Y-26187D02*
X12512Y-26837D01*
X11612Y-27537D02*
X11612Y-28187D01*
X11612Y-28187D02*
X12512Y-28187D01*
X12512Y-28187D02*
X12512Y-27537D01*
X11612Y-26837D02*
X11612Y-26187D01*
X15512Y-49187D02*
X14612Y-49187D01*
X14612Y-49187D02*
X14612Y-48537D01*
X15512Y-47837D02*
X15512Y-47187D01*
X15512Y-47187D02*
X14612Y-47187D01*
X14612Y-47187D02*
X14612Y-47837D01*
X15512Y-48537D02*
X15512Y-49187D01*
X17612Y-26187D02*
X18512Y-26187D01*
X18512Y-26187D02*
X18512Y-26837D01*
X17612Y-27537D02*
X17612Y-28187D01*
X17612Y-28187D02*
X18512Y-28187D01*
X18512Y-28187D02*
X18512Y-27537D01*
X17612Y-26837D02*
X17612Y-26187D01*
X17012Y-49187D02*
X16112Y-49187D01*
X16112Y-49187D02*
X16112Y-48537D01*
X17012Y-47837D02*
X17012Y-47187D01*
X17012Y-47187D02*
X16112Y-47187D01*
X16112Y-47187D02*
X16112Y-47837D01*
X17012Y-48537D02*
X17012Y-49187D01*
X17612Y-33187D02*
X18512Y-33187D01*
X18512Y-33187D02*
X18512Y-33837D01*
X17612Y-34537D02*
X17612Y-35187D01*
X17612Y-35187D02*
X18512Y-35187D01*
X18512Y-35187D02*
X18512Y-34537D01*
X17612Y-33837D02*
X17612Y-33187D01*
X15512Y-35187D02*
X14612Y-35187D01*
X14612Y-35187D02*
X14612Y-34537D01*
X15512Y-33837D02*
X15512Y-33187D01*
X15512Y-33187D02*
X14612Y-33187D01*
X14612Y-33187D02*
X14612Y-33837D01*
X15512Y-34537D02*
X15512Y-35187D01*
X15512Y-42187D02*
X14612Y-42187D01*
X14612Y-42187D02*
X14612Y-41537D01*
X15512Y-40837D02*
X15512Y-40187D01*
X15512Y-40187D02*
X14612Y-40187D01*
X14612Y-40187D02*
X14612Y-40837D01*
X15512Y-41537D02*
X15512Y-42187D01*
X15512Y-28187D02*
X14612Y-28187D01*
X14612Y-28187D02*
X14612Y-27537D01*
X15512Y-26837D02*
X15512Y-26187D01*
X15512Y-26187D02*
X14612Y-26187D01*
X14612Y-26187D02*
X14612Y-26837D01*
X15512Y-27537D02*
X15512Y-28187D01*
X9512Y-42187D02*
X8612Y-42187D01*
X8612Y-42187D02*
X8612Y-41537D01*
X9512Y-40837D02*
X9512Y-40187D01*
X9512Y-40187D02*
X8612Y-40187D01*
X8612Y-40187D02*
X8612Y-40837D01*
X9512Y-41537D02*
X9512Y-42187D01*
X21512Y-42187D02*
X20612Y-42187D01*
X20612Y-42187D02*
X20612Y-41537D01*
X21512Y-40837D02*
X21512Y-40187D01*
X21512Y-40187D02*
X20612Y-40187D01*
X20612Y-40187D02*
X20612Y-40837D01*
X21512Y-41537D02*
X21512Y-42187D01*
X21512Y-35187D02*
X20612Y-35187D01*
X20612Y-35187D02*
X20612Y-34537D01*
X21512Y-33837D02*
X21512Y-33187D01*
X21512Y-33187D02*
X20612Y-33187D01*
X20612Y-33187D02*
X20612Y-33837D01*
X21512Y-34537D02*
X21512Y-35187D01*
X21512Y-49187D02*
X20612Y-49187D01*
X20612Y-49187D02*
X20612Y-48537D01*
X21512Y-47837D02*
X21512Y-47187D01*
X21512Y-47187D02*
X20612Y-47187D01*
X20612Y-47187D02*
X20612Y-47837D01*
X21512Y-48537D02*
X21512Y-49187D01*
X27512Y-35187D02*
X26612Y-35187D01*
X26612Y-35187D02*
X26612Y-34537D01*
X27512Y-33837D02*
X27512Y-33187D01*
X27512Y-33187D02*
X26612Y-33187D01*
X26612Y-33187D02*
X26612Y-33837D01*
X27512Y-34537D02*
X27512Y-35187D01*
X29612Y-40187D02*
X30512Y-40187D01*
X30512Y-40187D02*
X30512Y-40837D01*
X29612Y-41537D02*
X29612Y-42187D01*
X29612Y-42187D02*
X30512Y-42187D01*
X30512Y-42187D02*
X30512Y-41537D01*
X29612Y-40837D02*
X29612Y-40187D01*
X29012Y-28187D02*
X28112Y-28187D01*
X28112Y-28187D02*
X28112Y-27537D01*
X29012Y-26837D02*
X29012Y-26187D01*
X29012Y-26187D02*
X28112Y-26187D01*
X28112Y-26187D02*
X28112Y-26837D01*
X29012Y-27537D02*
X29012Y-28187D01*
X27512Y-28187D02*
X26612Y-28187D01*
X26612Y-28187D02*
X26612Y-27537D01*
X27512Y-26837D02*
X27512Y-26187D01*
X27512Y-26187D02*
X26612Y-26187D01*
X26612Y-26187D02*
X26612Y-26837D01*
X27512Y-27537D02*
X27512Y-28187D01*
X23012Y-49187D02*
X22112Y-49187D01*
X22112Y-49187D02*
X22112Y-48537D01*
X23012Y-47837D02*
X23012Y-47187D01*
X23012Y-47187D02*
X22112Y-47187D01*
X22112Y-47187D02*
X22112Y-47837D01*
X23012Y-48537D02*
X23012Y-49187D01*
X23612Y-47187D02*
X24512Y-47187D01*
X24512Y-47187D02*
X24512Y-47837D01*
X23612Y-48537D02*
X23612Y-49187D01*
X23612Y-49187D02*
X24512Y-49187D01*
X24512Y-49187D02*
X24512Y-48537D01*
X23612Y-47837D02*
X23612Y-47187D01*
X21512Y-28187D02*
X20612Y-28187D01*
X20612Y-28187D02*
X20612Y-27537D01*
X21512Y-26837D02*
X21512Y-26187D01*
X21512Y-26187D02*
X20612Y-26187D01*
X20612Y-26187D02*
X20612Y-26837D01*
X21512Y-27537D02*
X21512Y-28187D01*
X17612Y-40187D02*
X18512Y-40187D01*
X18512Y-40187D02*
X18512Y-40837D01*
X17612Y-41537D02*
X17612Y-42187D01*
X17612Y-42187D02*
X18512Y-42187D01*
X18512Y-42187D02*
X18512Y-41537D01*
X17612Y-40837D02*
X17612Y-40187D01*
X17612Y-47187D02*
X18512Y-47187D01*
X18512Y-47187D02*
X18512Y-47837D01*
X17612Y-48537D02*
X17612Y-49187D01*
X17612Y-49187D02*
X18512Y-49187D01*
X18512Y-49187D02*
X18512Y-48537D01*
X17612Y-47837D02*
X17612Y-47187D01*
X17012Y-28187D02*
X16112Y-28187D01*
X16112Y-28187D02*
X16112Y-27537D01*
X17012Y-26837D02*
X17012Y-26187D01*
X17012Y-26187D02*
X16112Y-26187D01*
X16112Y-26187D02*
X16112Y-26837D01*
X17012Y-27537D02*
X17012Y-28187D01*
X11612Y-40187D02*
X12512Y-40187D01*
X12512Y-40187D02*
X12512Y-40837D01*
X11612Y-41537D02*
X11612Y-42187D01*
X11612Y-42187D02*
X12512Y-42187D01*
X12512Y-42187D02*
X12512Y-41537D01*
X11612Y-40837D02*
X11612Y-40187D01*
X23012Y-35187D02*
X22112Y-35187D01*
X22112Y-35187D02*
X22112Y-34537D01*
X23012Y-33837D02*
X23012Y-33187D01*
X23012Y-33187D02*
X22112Y-33187D01*
X22112Y-33187D02*
X22112Y-33837D01*
X23012Y-34537D02*
X23012Y-35187D01*
X23012Y-42187D02*
X22112Y-42187D01*
X22112Y-42187D02*
X22112Y-41537D01*
X23012Y-40837D02*
X23012Y-40187D01*
X23012Y-40187D02*
X22112Y-40187D01*
X22112Y-40187D02*
X22112Y-40837D01*
X23012Y-41537D02*
X23012Y-42187D01*
X29012Y-42187D02*
X28112Y-42187D01*
X28112Y-42187D02*
X28112Y-41537D01*
X29012Y-40837D02*
X29012Y-40187D01*
X29012Y-40187D02*
X28112Y-40187D01*
X28112Y-40187D02*
X28112Y-40837D01*
X29012Y-41537D02*
X29012Y-42187D01*
X29012Y-35187D02*
X28112Y-35187D01*
X28112Y-35187D02*
X28112Y-34537D01*
X29012Y-33837D02*
X29012Y-33187D01*
X29012Y-33187D02*
X28112Y-33187D01*
X28112Y-33187D02*
X28112Y-33837D01*
X29012Y-34537D02*
X29012Y-35187D01*
X35012Y-35187D02*
X34112Y-35187D01*
X34112Y-35187D02*
X34112Y-34537D01*
X35012Y-33837D02*
X35012Y-33187D01*
X35012Y-33187D02*
X34112Y-33187D01*
X34112Y-33187D02*
X34112Y-33837D01*
X35012Y-34537D02*
X35012Y-35187D01*
X35012Y-42237D02*
X34112Y-42237D01*
X34112Y-42237D02*
X34112Y-41587D01*
X35012Y-40887D02*
X35012Y-40237D01*
X35012Y-40237D02*
X34112Y-40237D01*
X34112Y-40237D02*
X34112Y-40887D01*
X35012Y-41587D02*
X35012Y-42237D01*
X11012Y-42187D02*
X10112Y-42187D01*
X10112Y-42187D02*
X10112Y-41537D01*
X11012Y-40837D02*
X11012Y-40187D01*
X11012Y-40187D02*
X10112Y-40187D01*
X10112Y-40187D02*
X10112Y-40837D01*
X11012Y-41537D02*
X11012Y-42187D01*
X17012Y-35187D02*
X16112Y-35187D01*
X16112Y-35187D02*
X16112Y-34537D01*
X17012Y-33837D02*
X17012Y-33187D01*
X17012Y-33187D02*
X16112Y-33187D01*
X16112Y-33187D02*
X16112Y-33837D01*
X17012Y-34537D02*
X17012Y-35187D01*
X17012Y-42187D02*
X16112Y-42187D01*
X16112Y-42187D02*
X16112Y-41537D01*
X17012Y-40837D02*
X17012Y-40187D01*
X17012Y-40187D02*
X16112Y-40187D01*
X16112Y-40187D02*
X16112Y-40837D01*
X17012Y-41537D02*
X17012Y-42187D01*
G54D13*
X24562Y-29437D02*
X24562Y-31937D01*
X24562Y-31937D02*
X20562Y-31937D01*
X20562Y-31937D02*
X20562Y-29437D01*
X20562Y-29437D02*
X24562Y-29437D01*
G54D11*
X24562Y-30187D02*
X24062Y-30187D01*
X24062Y-30187D02*
X24062Y-31187D01*
X24062Y-31187D02*
X24562Y-31187D01*
G54D13*
X36562Y-36437D02*
X36562Y-38937D01*
X36562Y-38937D02*
X32562Y-38937D01*
X32562Y-38937D02*
X32562Y-36437D01*
X32562Y-36437D02*
X36562Y-36437D01*
G54D11*
X36562Y-37187D02*
X36062Y-37187D01*
X36062Y-37187D02*
X36062Y-38187D01*
X36062Y-38187D02*
X36562Y-38187D01*
G54D13*
X12562Y-22437D02*
X12562Y-24937D01*
X12562Y-24937D02*
X8562Y-24937D01*
X8562Y-24937D02*
X8562Y-22437D01*
X8562Y-22437D02*
X12562Y-22437D01*
G54D11*
X12562Y-23187D02*
X12062Y-23187D01*
X12062Y-23187D02*
X12062Y-24187D01*
X12062Y-24187D02*
X12562Y-24187D01*
G54D13*
X24562Y-36437D02*
X24562Y-38937D01*
X24562Y-38937D02*
X20562Y-38937D01*
X20562Y-38937D02*
X20562Y-36437D01*
X20562Y-36437D02*
X24562Y-36437D01*
G54D11*
X24562Y-37187D02*
X24062Y-37187D01*
X24062Y-37187D02*
X24062Y-38187D01*
X24062Y-38187D02*
X24562Y-38187D01*
G54D13*
X12562Y-36437D02*
X12562Y-38937D01*
X12562Y-38937D02*
X8562Y-38937D01*
X8562Y-38937D02*
X8562Y-36437D01*
X8562Y-36437D02*
X12562Y-36437D01*
G54D11*
X12562Y-37187D02*
X12062Y-37187D01*
X12062Y-37187D02*
X12062Y-38187D01*
X12062Y-38187D02*
X12562Y-38187D01*
G54D13*
X30562Y-29437D02*
X30562Y-31937D01*
X30562Y-31937D02*
X26562Y-31937D01*
X26562Y-31937D02*
X26562Y-29437D01*
X26562Y-29437D02*
X30562Y-29437D01*
G54D11*
X30562Y-30187D02*
X30062Y-30187D01*
X30062Y-30187D02*
X30062Y-31187D01*
X30062Y-31187D02*
X30562Y-31187D01*
G54D13*
X30562Y-36437D02*
X30562Y-38937D01*
X30562Y-38937D02*
X26562Y-38937D01*
X26562Y-38937D02*
X26562Y-36437D01*
X26562Y-36437D02*
X30562Y-36437D01*
G54D11*
X30562Y-37187D02*
X30062Y-37187D01*
X30062Y-37187D02*
X30062Y-38187D01*
X30062Y-38187D02*
X30562Y-38187D01*
G54D13*
X36562Y-29437D02*
X36562Y-31937D01*
X36562Y-31937D02*
X32562Y-31937D01*
X32562Y-31937D02*
X32562Y-29437D01*
X32562Y-29437D02*
X36562Y-29437D01*
G54D11*
X36562Y-30187D02*
X36062Y-30187D01*
X36062Y-30187D02*
X36062Y-31187D01*
X36062Y-31187D02*
X36562Y-31187D01*
G54D13*
X36562Y-22437D02*
X36562Y-24937D01*
X36562Y-24937D02*
X32562Y-24937D01*
X32562Y-24937D02*
X32562Y-22437D01*
X32562Y-22437D02*
X36562Y-22437D01*
G54D11*
X36562Y-23187D02*
X36062Y-23187D01*
X36062Y-23187D02*
X36062Y-24187D01*
X36062Y-24187D02*
X36562Y-24187D01*
G54D13*
X12562Y-43437D02*
X12562Y-45937D01*
X12562Y-45937D02*
X8562Y-45937D01*
X8562Y-45937D02*
X8562Y-43437D01*
X8562Y-43437D02*
X12562Y-43437D01*
G54D11*
X12562Y-44187D02*
X12062Y-44187D01*
X12062Y-44187D02*
X12062Y-45187D01*
X12062Y-45187D02*
X12562Y-45187D01*
G54D13*
X30562Y-22437D02*
X30562Y-24937D01*
X30562Y-24937D02*
X26562Y-24937D01*
X26562Y-24937D02*
X26562Y-22437D01*
X26562Y-22437D02*
X30562Y-22437D01*
G54D11*
X30562Y-23187D02*
X30062Y-23187D01*
X30062Y-23187D02*
X30062Y-24187D01*
X30062Y-24187D02*
X30562Y-24187D01*
G54D13*
X36562Y-43437D02*
X36562Y-45937D01*
X36562Y-45937D02*
X32562Y-45937D01*
X32562Y-45937D02*
X32562Y-43437D01*
X32562Y-43437D02*
X36562Y-43437D01*
G54D11*
X36562Y-44187D02*
X36062Y-44187D01*
X36062Y-44187D02*
X36062Y-45187D01*
X36062Y-45187D02*
X36562Y-45187D01*
G54D13*
X18562Y-43437D02*
X18562Y-45937D01*
X18562Y-45937D02*
X14562Y-45937D01*
X14562Y-45937D02*
X14562Y-43437D01*
X14562Y-43437D02*
X18562Y-43437D01*
G54D11*
X18562Y-44187D02*
X18062Y-44187D01*
X18062Y-44187D02*
X18062Y-45187D01*
X18062Y-45187D02*
X18562Y-45187D01*
G54D13*
X24562Y-22437D02*
X24562Y-24937D01*
X24562Y-24937D02*
X20562Y-24937D01*
X20562Y-24937D02*
X20562Y-22437D01*
X20562Y-22437D02*
X24562Y-22437D01*
G54D11*
X24562Y-23187D02*
X24062Y-23187D01*
X24062Y-23187D02*
X24062Y-24187D01*
X24062Y-24187D02*
X24562Y-24187D01*
G54D13*
X18562Y-29437D02*
X18562Y-31937D01*
X18562Y-31937D02*
X14562Y-31937D01*
X14562Y-31937D02*
X14562Y-29437D01*
X14562Y-29437D02*
X18562Y-29437D01*
G54D11*
X18562Y-30187D02*
X18062Y-30187D01*
X18062Y-30187D02*
X18062Y-31187D01*
X18062Y-31187D02*
X18562Y-31187D01*
G54D13*
X24562Y-43437D02*
X24562Y-45937D01*
X24562Y-45937D02*
X20562Y-45937D01*
X20562Y-45937D02*
X20562Y-43437D01*
X20562Y-43437D02*
X24562Y-43437D01*
G54D11*
X24562Y-44187D02*
X24062Y-44187D01*
X24062Y-44187D02*
X24062Y-45187D01*
X24062Y-45187D02*
X24562Y-45187D01*
G54D13*
X12562Y-29437D02*
X12562Y-31937D01*
X12562Y-31937D02*
X8562Y-31937D01*
X8562Y-31937D02*
X8562Y-29437D01*
X8562Y-29437D02*
X12562Y-29437D01*
G54D11*
X12562Y-30187D02*
X12062Y-30187D01*
X12062Y-30187D02*
X12062Y-31187D01*
X12062Y-31187D02*
X12562Y-31187D01*
G54D13*
X18562Y-22437D02*
X18562Y-24937D01*
X18562Y-24937D02*
X14562Y-24937D01*
X14562Y-24937D02*
X14562Y-22437D01*
X14562Y-22437D02*
X18562Y-22437D01*
G54D11*
X18562Y-23187D02*
X18062Y-23187D01*
X18062Y-23187D02*
X18062Y-24187D01*
X18062Y-24187D02*
X18562Y-24187D01*
G54D14*
X8262Y-15412D02*
X8262Y-14262D01*
X8262Y-14262D02*
X9862Y-14262D01*
X9862Y-14262D02*
X9862Y-15412D01*
X8262Y-16412D02*
X8262Y-17562D01*
X8262Y-17562D02*
X9862Y-17562D01*
X9862Y-17562D02*
X9862Y-16412D01*
G54D13*
X30562Y-43437D02*
X30562Y-45937D01*
X30562Y-45937D02*
X26562Y-45937D01*
X26562Y-45937D02*
X26562Y-43437D01*
X26562Y-43437D02*
X30562Y-43437D01*
G54D11*
X30562Y-44187D02*
X30062Y-44187D01*
X30062Y-44187D02*
X30062Y-45187D01*
X30062Y-45187D02*
X30562Y-45187D01*
G54D13*
X18562Y-36437D02*
X18562Y-38937D01*
X18562Y-38937D02*
X14562Y-38937D01*
X14562Y-38937D02*
X14562Y-36437D01*
X14562Y-36437D02*
X18562Y-36437D01*
G54D11*
X18562Y-37187D02*
X18062Y-37187D01*
X18062Y-37187D02*
X18062Y-38187D01*
X18062Y-38187D02*
X18562Y-38187D01*
G54D15*
X18712Y-19087D02*
X14412Y-19087D01*
X14412Y-19087D02*
X14412Y-20487D01*
X14412Y-20487D02*
X18712Y-20487D01*
X18712Y-20487D02*
X18712Y-19087D01*
X18712Y-19587D02*
X18412Y-19587D01*
X18412Y-19587D02*
X18412Y-19987D01*
X18412Y-19987D02*
X18712Y-19987D01*
X24712Y-19087D02*
X20412Y-19087D01*
X20412Y-19087D02*
X20412Y-20487D01*
X20412Y-20487D02*
X24712Y-20487D01*
X24712Y-20487D02*
X24712Y-19087D01*
X24712Y-19587D02*
X24412Y-19587D01*
X24412Y-19587D02*
X24412Y-19987D01*
X24412Y-19987D02*
X24712Y-19987D01*
X30712Y-19087D02*
X26412Y-19087D01*
X26412Y-19087D02*
X26412Y-20487D01*
X26412Y-20487D02*
X30712Y-20487D01*
X30712Y-20487D02*
X30712Y-19087D01*
X30712Y-19587D02*
X30412Y-19587D01*
X30412Y-19587D02*
X30412Y-19987D01*
X30412Y-19987D02*
X30712Y-19987D01*
X36712Y-19037D02*
X32412Y-19037D01*
X32412Y-19037D02*
X32412Y-20437D01*
X32412Y-20437D02*
X36712Y-20437D01*
X36712Y-20437D02*
X36712Y-19037D01*
X36712Y-19537D02*
X36412Y-19537D01*
X36412Y-19537D02*
X36412Y-19937D01*
X36412Y-19937D02*
X36712Y-19937D01*
X12712Y-19087D02*
X8412Y-19087D01*
X8412Y-19087D02*
X8412Y-20487D01*
X8412Y-20487D02*
X12712Y-20487D01*
X12712Y-20487D02*
X12712Y-19087D01*
X12712Y-19587D02*
X12412Y-19587D01*
X12412Y-19587D02*
X12412Y-19987D01*
X12412Y-19987D02*
X12712Y-19987D01*
G54D12*
X20662Y-15037D02*
X20662Y-15937D01*
X20662Y-15937D02*
X21162Y-15937D01*
X21162Y-15937D02*
X21162Y-15037D01*
X21162Y-15037D02*
X20662Y-15037D01*
X10683Y-35494D02*
X10541Y-35394D01*
X10683Y-35323D02*
X10383Y-35323D01*
X10383Y-35437D01*
X10398Y-35466D01*
X10412Y-35480D01*
X10441Y-35494D01*
X10483Y-35494D01*
X10512Y-35480D01*
X10526Y-35466D01*
X10541Y-35437D01*
X10541Y-35323D01*
X10383Y-35766D02*
X10383Y-35623D01*
X10526Y-35608D01*
X10512Y-35623D01*
X10498Y-35651D01*
X10498Y-35723D01*
X10512Y-35751D01*
X10526Y-35766D01*
X10555Y-35780D01*
X10626Y-35780D01*
X10655Y-35766D01*
X10669Y-35751D01*
X10683Y-35723D01*
X10683Y-35651D01*
X10669Y-35623D01*
X10655Y-35608D01*
X10383Y-36037D02*
X10383Y-35980D01*
X10398Y-35951D01*
X10412Y-35937D01*
X10455Y-35908D01*
X10512Y-35894D01*
X10626Y-35894D01*
X10655Y-35908D01*
X10669Y-35923D01*
X10683Y-35951D01*
X10683Y-36008D01*
X10669Y-36037D01*
X10655Y-36051D01*
X10626Y-36066D01*
X10555Y-36066D01*
X10526Y-36051D01*
X10512Y-36037D01*
X10498Y-36008D01*
X10498Y-35951D01*
X10512Y-35923D01*
X10526Y-35908D01*
X10555Y-35894D01*
X36883Y-47994D02*
X36741Y-47894D01*
X36883Y-47823D02*
X36583Y-47823D01*
X36583Y-47937D01*
X36598Y-47966D01*
X36612Y-47980D01*
X36641Y-47994D01*
X36683Y-47994D01*
X36712Y-47980D01*
X36726Y-47966D01*
X36741Y-47937D01*
X36741Y-47823D01*
X36583Y-48251D02*
X36583Y-48194D01*
X36598Y-48166D01*
X36612Y-48151D01*
X36655Y-48123D01*
X36712Y-48108D01*
X36826Y-48108D01*
X36855Y-48123D01*
X36869Y-48137D01*
X36883Y-48166D01*
X36883Y-48223D01*
X36869Y-48251D01*
X36855Y-48266D01*
X36826Y-48280D01*
X36755Y-48280D01*
X36726Y-48266D01*
X36712Y-48251D01*
X36698Y-48223D01*
X36698Y-48166D01*
X36712Y-48137D01*
X36726Y-48123D01*
X36755Y-48108D01*
X36583Y-48380D02*
X36583Y-48566D01*
X36698Y-48466D01*
X36698Y-48508D01*
X36712Y-48537D01*
X36726Y-48551D01*
X36755Y-48566D01*
X36826Y-48566D01*
X36855Y-48551D01*
X36869Y-48537D01*
X36883Y-48508D01*
X36883Y-48423D01*
X36869Y-48394D01*
X36855Y-48380D01*
X35333Y-47994D02*
X35191Y-47894D01*
X35333Y-47823D02*
X35033Y-47823D01*
X35033Y-47937D01*
X35048Y-47966D01*
X35062Y-47980D01*
X35091Y-47994D01*
X35133Y-47994D01*
X35162Y-47980D01*
X35176Y-47966D01*
X35191Y-47937D01*
X35191Y-47823D01*
X35033Y-48251D02*
X35033Y-48194D01*
X35048Y-48166D01*
X35062Y-48151D01*
X35105Y-48123D01*
X35162Y-48108D01*
X35276Y-48108D01*
X35305Y-48123D01*
X35319Y-48137D01*
X35333Y-48166D01*
X35333Y-48223D01*
X35319Y-48251D01*
X35305Y-48266D01*
X35276Y-48280D01*
X35205Y-48280D01*
X35176Y-48266D01*
X35162Y-48251D01*
X35148Y-48223D01*
X35148Y-48166D01*
X35162Y-48137D01*
X35176Y-48123D01*
X35205Y-48108D01*
X35133Y-48537D02*
X35333Y-48537D01*
X35019Y-48466D02*
X35233Y-48394D01*
X35233Y-48580D01*
X32483Y-26994D02*
X32341Y-26894D01*
X32483Y-26823D02*
X32183Y-26823D01*
X32183Y-26937D01*
X32198Y-26966D01*
X32212Y-26980D01*
X32241Y-26994D01*
X32283Y-26994D01*
X32312Y-26980D01*
X32326Y-26966D01*
X32341Y-26937D01*
X32341Y-26823D01*
X32183Y-27094D02*
X32183Y-27294D01*
X32483Y-27166D01*
X32183Y-27380D02*
X32183Y-27566D01*
X32298Y-27466D01*
X32298Y-27508D01*
X32312Y-27537D01*
X32326Y-27551D01*
X32355Y-27566D01*
X32426Y-27566D01*
X32455Y-27551D01*
X32469Y-27537D01*
X32483Y-27508D01*
X32483Y-27423D01*
X32469Y-27394D01*
X32455Y-27380D01*
X26533Y-40994D02*
X26391Y-40894D01*
X26533Y-40823D02*
X26233Y-40823D01*
X26233Y-40937D01*
X26248Y-40966D01*
X26262Y-40980D01*
X26291Y-40994D01*
X26333Y-40994D01*
X26362Y-40980D01*
X26376Y-40966D01*
X26391Y-40937D01*
X26391Y-40823D01*
X26362Y-41166D02*
X26348Y-41137D01*
X26333Y-41123D01*
X26305Y-41108D01*
X26291Y-41108D01*
X26262Y-41123D01*
X26248Y-41137D01*
X26233Y-41166D01*
X26233Y-41223D01*
X26248Y-41251D01*
X26262Y-41266D01*
X26291Y-41280D01*
X26305Y-41280D01*
X26333Y-41266D01*
X26348Y-41251D01*
X26362Y-41223D01*
X26362Y-41166D01*
X26376Y-41137D01*
X26391Y-41123D01*
X26419Y-41108D01*
X26476Y-41108D01*
X26505Y-41123D01*
X26519Y-41137D01*
X26533Y-41166D01*
X26533Y-41223D01*
X26519Y-41251D01*
X26505Y-41266D01*
X26476Y-41280D01*
X26419Y-41280D01*
X26391Y-41266D01*
X26376Y-41251D01*
X26362Y-41223D01*
X26233Y-41380D02*
X26233Y-41566D01*
X26348Y-41466D01*
X26348Y-41508D01*
X26362Y-41537D01*
X26376Y-41551D01*
X26405Y-41566D01*
X26476Y-41566D01*
X26505Y-41551D01*
X26519Y-41537D01*
X26533Y-41508D01*
X26533Y-41423D01*
X26519Y-41394D01*
X26505Y-41380D01*
X30883Y-26994D02*
X30741Y-26894D01*
X30883Y-26823D02*
X30583Y-26823D01*
X30583Y-26937D01*
X30598Y-26966D01*
X30612Y-26980D01*
X30641Y-26994D01*
X30683Y-26994D01*
X30712Y-26980D01*
X30726Y-26966D01*
X30741Y-26937D01*
X30741Y-26823D01*
X30583Y-27094D02*
X30583Y-27294D01*
X30883Y-27166D01*
X30883Y-27423D02*
X30883Y-27480D01*
X30869Y-27508D01*
X30855Y-27523D01*
X30812Y-27551D01*
X30755Y-27566D01*
X30641Y-27566D01*
X30612Y-27551D01*
X30598Y-27537D01*
X30583Y-27508D01*
X30583Y-27451D01*
X30598Y-27423D01*
X30612Y-27408D01*
X30641Y-27394D01*
X30712Y-27394D01*
X30741Y-27408D01*
X30755Y-27423D01*
X30769Y-27451D01*
X30769Y-27508D01*
X30755Y-27537D01*
X30741Y-27551D01*
X30712Y-27566D01*
X30883Y-33994D02*
X30741Y-33894D01*
X30883Y-33823D02*
X30583Y-33823D01*
X30583Y-33937D01*
X30598Y-33966D01*
X30612Y-33980D01*
X30641Y-33994D01*
X30683Y-33994D01*
X30712Y-33980D01*
X30726Y-33966D01*
X30741Y-33937D01*
X30741Y-33823D01*
X30583Y-34094D02*
X30583Y-34294D01*
X30883Y-34166D01*
X30712Y-34451D02*
X30698Y-34423D01*
X30683Y-34408D01*
X30655Y-34394D01*
X30641Y-34394D01*
X30612Y-34408D01*
X30598Y-34423D01*
X30583Y-34451D01*
X30583Y-34508D01*
X30598Y-34537D01*
X30612Y-34551D01*
X30641Y-34566D01*
X30655Y-34566D01*
X30683Y-34551D01*
X30698Y-34537D01*
X30712Y-34508D01*
X30712Y-34451D01*
X30726Y-34423D01*
X30741Y-34408D01*
X30769Y-34394D01*
X30826Y-34394D01*
X30855Y-34408D01*
X30869Y-34423D01*
X30883Y-34451D01*
X30883Y-34508D01*
X30869Y-34537D01*
X30855Y-34551D01*
X30826Y-34566D01*
X30769Y-34566D01*
X30741Y-34551D01*
X30726Y-34537D01*
X30712Y-34508D01*
X26483Y-47994D02*
X26341Y-47894D01*
X26483Y-47823D02*
X26183Y-47823D01*
X26183Y-47937D01*
X26198Y-47966D01*
X26212Y-47980D01*
X26241Y-47994D01*
X26283Y-47994D01*
X26312Y-47980D01*
X26326Y-47966D01*
X26341Y-47937D01*
X26341Y-47823D01*
X26312Y-48166D02*
X26298Y-48137D01*
X26283Y-48123D01*
X26255Y-48108D01*
X26241Y-48108D01*
X26212Y-48123D01*
X26198Y-48137D01*
X26183Y-48166D01*
X26183Y-48223D01*
X26198Y-48251D01*
X26212Y-48266D01*
X26241Y-48280D01*
X26255Y-48280D01*
X26283Y-48266D01*
X26298Y-48251D01*
X26312Y-48223D01*
X26312Y-48166D01*
X26326Y-48137D01*
X26341Y-48123D01*
X26369Y-48108D01*
X26426Y-48108D01*
X26455Y-48123D01*
X26469Y-48137D01*
X26483Y-48166D01*
X26483Y-48223D01*
X26469Y-48251D01*
X26455Y-48266D01*
X26426Y-48280D01*
X26369Y-48280D01*
X26341Y-48266D01*
X26326Y-48251D01*
X26312Y-48223D01*
X26212Y-48394D02*
X26198Y-48408D01*
X26183Y-48437D01*
X26183Y-48508D01*
X26198Y-48537D01*
X26212Y-48551D01*
X26241Y-48566D01*
X26269Y-48566D01*
X26312Y-48551D01*
X26483Y-48380D01*
X26483Y-48566D01*
X24883Y-26994D02*
X24741Y-26894D01*
X24883Y-26823D02*
X24583Y-26823D01*
X24583Y-26937D01*
X24598Y-26966D01*
X24612Y-26980D01*
X24641Y-26994D01*
X24683Y-26994D01*
X24712Y-26980D01*
X24726Y-26966D01*
X24741Y-26937D01*
X24741Y-26823D01*
X24883Y-27137D02*
X24883Y-27194D01*
X24869Y-27223D01*
X24855Y-27237D01*
X24812Y-27266D01*
X24755Y-27280D01*
X24641Y-27280D01*
X24612Y-27266D01*
X24598Y-27251D01*
X24583Y-27223D01*
X24583Y-27166D01*
X24598Y-27137D01*
X24612Y-27123D01*
X24641Y-27108D01*
X24712Y-27108D01*
X24741Y-27123D01*
X24755Y-27137D01*
X24769Y-27166D01*
X24769Y-27223D01*
X24755Y-27251D01*
X24741Y-27266D01*
X24712Y-27280D01*
X24883Y-27566D02*
X24883Y-27394D01*
X24883Y-27480D02*
X24583Y-27480D01*
X24626Y-27451D01*
X24655Y-27423D01*
X24669Y-27394D01*
X24883Y-40994D02*
X24741Y-40894D01*
X24883Y-40823D02*
X24583Y-40823D01*
X24583Y-40937D01*
X24598Y-40966D01*
X24612Y-40980D01*
X24641Y-40994D01*
X24683Y-40994D01*
X24712Y-40980D01*
X24726Y-40966D01*
X24741Y-40937D01*
X24741Y-40823D01*
X24712Y-41166D02*
X24698Y-41137D01*
X24683Y-41123D01*
X24655Y-41108D01*
X24641Y-41108D01*
X24612Y-41123D01*
X24598Y-41137D01*
X24583Y-41166D01*
X24583Y-41223D01*
X24598Y-41251D01*
X24612Y-41266D01*
X24641Y-41280D01*
X24655Y-41280D01*
X24683Y-41266D01*
X24698Y-41251D01*
X24712Y-41223D01*
X24712Y-41166D01*
X24726Y-41137D01*
X24741Y-41123D01*
X24769Y-41108D01*
X24826Y-41108D01*
X24855Y-41123D01*
X24869Y-41137D01*
X24883Y-41166D01*
X24883Y-41223D01*
X24869Y-41251D01*
X24855Y-41266D01*
X24826Y-41280D01*
X24769Y-41280D01*
X24741Y-41266D01*
X24726Y-41251D01*
X24712Y-41223D01*
X24883Y-41423D02*
X24883Y-41480D01*
X24869Y-41508D01*
X24855Y-41523D01*
X24812Y-41551D01*
X24755Y-41566D01*
X24641Y-41566D01*
X24612Y-41551D01*
X24598Y-41537D01*
X24583Y-41508D01*
X24583Y-41451D01*
X24598Y-41423D01*
X24612Y-41408D01*
X24641Y-41394D01*
X24712Y-41394D01*
X24741Y-41408D01*
X24755Y-41423D01*
X24769Y-41451D01*
X24769Y-41508D01*
X24755Y-41537D01*
X24741Y-41551D01*
X24712Y-41566D01*
X24833Y-33994D02*
X24691Y-33894D01*
X24833Y-33823D02*
X24533Y-33823D01*
X24533Y-33937D01*
X24548Y-33966D01*
X24562Y-33980D01*
X24591Y-33994D01*
X24633Y-33994D01*
X24662Y-33980D01*
X24676Y-33966D01*
X24691Y-33937D01*
X24691Y-33823D01*
X24833Y-34137D02*
X24833Y-34194D01*
X24819Y-34223D01*
X24805Y-34237D01*
X24762Y-34266D01*
X24705Y-34280D01*
X24591Y-34280D01*
X24562Y-34266D01*
X24548Y-34251D01*
X24533Y-34223D01*
X24533Y-34166D01*
X24548Y-34137D01*
X24562Y-34123D01*
X24591Y-34108D01*
X24662Y-34108D01*
X24691Y-34123D01*
X24705Y-34137D01*
X24719Y-34166D01*
X24719Y-34223D01*
X24705Y-34251D01*
X24691Y-34266D01*
X24662Y-34280D01*
X24533Y-34466D02*
X24533Y-34494D01*
X24548Y-34523D01*
X24562Y-34537D01*
X24591Y-34551D01*
X24648Y-34566D01*
X24719Y-34566D01*
X24776Y-34551D01*
X24805Y-34537D01*
X24819Y-34523D01*
X24833Y-34494D01*
X24833Y-34466D01*
X24819Y-34437D01*
X24805Y-34423D01*
X24776Y-34408D01*
X24719Y-34394D01*
X24648Y-34394D01*
X24591Y-34408D01*
X24562Y-34423D01*
X24548Y-34437D01*
X24533Y-34466D01*
X23333Y-26994D02*
X23191Y-26894D01*
X23333Y-26823D02*
X23033Y-26823D01*
X23033Y-26937D01*
X23048Y-26966D01*
X23062Y-26980D01*
X23091Y-26994D01*
X23133Y-26994D01*
X23162Y-26980D01*
X23176Y-26966D01*
X23191Y-26937D01*
X23191Y-26823D01*
X23333Y-27137D02*
X23333Y-27194D01*
X23319Y-27223D01*
X23305Y-27237D01*
X23262Y-27266D01*
X23205Y-27280D01*
X23091Y-27280D01*
X23062Y-27266D01*
X23048Y-27251D01*
X23033Y-27223D01*
X23033Y-27166D01*
X23048Y-27137D01*
X23062Y-27123D01*
X23091Y-27108D01*
X23162Y-27108D01*
X23191Y-27123D01*
X23205Y-27137D01*
X23219Y-27166D01*
X23219Y-27223D01*
X23205Y-27251D01*
X23191Y-27266D01*
X23162Y-27280D01*
X23062Y-27394D02*
X23048Y-27408D01*
X23033Y-27437D01*
X23033Y-27508D01*
X23048Y-27537D01*
X23062Y-27551D01*
X23091Y-27566D01*
X23119Y-27566D01*
X23162Y-27551D01*
X23333Y-27380D01*
X23333Y-27566D01*
X36933Y-26994D02*
X36791Y-26894D01*
X36933Y-26823D02*
X36633Y-26823D01*
X36633Y-26937D01*
X36648Y-26966D01*
X36662Y-26980D01*
X36691Y-26994D01*
X36733Y-26994D01*
X36762Y-26980D01*
X36776Y-26966D01*
X36791Y-26937D01*
X36791Y-26823D01*
X36633Y-27251D02*
X36633Y-27194D01*
X36648Y-27166D01*
X36662Y-27151D01*
X36705Y-27123D01*
X36762Y-27108D01*
X36876Y-27108D01*
X36905Y-27123D01*
X36919Y-27137D01*
X36933Y-27166D01*
X36933Y-27223D01*
X36919Y-27251D01*
X36905Y-27266D01*
X36876Y-27280D01*
X36805Y-27280D01*
X36776Y-27266D01*
X36762Y-27251D01*
X36748Y-27223D01*
X36748Y-27166D01*
X36762Y-27137D01*
X36776Y-27123D01*
X36805Y-27108D01*
X36633Y-27380D02*
X36633Y-27580D01*
X36933Y-27451D01*
X36883Y-41044D02*
X36741Y-40944D01*
X36883Y-40873D02*
X36583Y-40873D01*
X36583Y-40987D01*
X36598Y-41016D01*
X36612Y-41030D01*
X36641Y-41044D01*
X36683Y-41044D01*
X36712Y-41030D01*
X36726Y-41016D01*
X36741Y-40987D01*
X36741Y-40873D01*
X36583Y-41301D02*
X36583Y-41244D01*
X36598Y-41216D01*
X36612Y-41201D01*
X36655Y-41173D01*
X36712Y-41158D01*
X36826Y-41158D01*
X36855Y-41173D01*
X36869Y-41187D01*
X36883Y-41216D01*
X36883Y-41273D01*
X36869Y-41301D01*
X36855Y-41316D01*
X36826Y-41330D01*
X36755Y-41330D01*
X36726Y-41316D01*
X36712Y-41301D01*
X36698Y-41273D01*
X36698Y-41216D01*
X36712Y-41187D01*
X36726Y-41173D01*
X36755Y-41158D01*
X36583Y-41601D02*
X36583Y-41458D01*
X36726Y-41444D01*
X36712Y-41458D01*
X36698Y-41487D01*
X36698Y-41558D01*
X36712Y-41587D01*
X36726Y-41601D01*
X36755Y-41616D01*
X36826Y-41616D01*
X36855Y-41601D01*
X36869Y-41587D01*
X36883Y-41558D01*
X36883Y-41487D01*
X36869Y-41458D01*
X36855Y-41444D01*
X36883Y-33994D02*
X36741Y-33894D01*
X36883Y-33823D02*
X36583Y-33823D01*
X36583Y-33937D01*
X36598Y-33966D01*
X36612Y-33980D01*
X36641Y-33994D01*
X36683Y-33994D01*
X36712Y-33980D01*
X36726Y-33966D01*
X36741Y-33937D01*
X36741Y-33823D01*
X36583Y-34251D02*
X36583Y-34194D01*
X36598Y-34166D01*
X36612Y-34151D01*
X36655Y-34123D01*
X36712Y-34108D01*
X36826Y-34108D01*
X36855Y-34123D01*
X36869Y-34137D01*
X36883Y-34166D01*
X36883Y-34223D01*
X36869Y-34251D01*
X36855Y-34266D01*
X36826Y-34280D01*
X36755Y-34280D01*
X36726Y-34266D01*
X36712Y-34251D01*
X36698Y-34223D01*
X36698Y-34166D01*
X36712Y-34137D01*
X36726Y-34123D01*
X36755Y-34108D01*
X36583Y-34537D02*
X36583Y-34480D01*
X36598Y-34451D01*
X36612Y-34437D01*
X36655Y-34408D01*
X36712Y-34394D01*
X36826Y-34394D01*
X36855Y-34408D01*
X36869Y-34423D01*
X36883Y-34451D01*
X36883Y-34508D01*
X36869Y-34537D01*
X36855Y-34551D01*
X36826Y-34566D01*
X36755Y-34566D01*
X36726Y-34551D01*
X36712Y-34537D01*
X36698Y-34508D01*
X36698Y-34451D01*
X36712Y-34423D01*
X36726Y-34408D01*
X36755Y-34394D01*
X35333Y-26994D02*
X35191Y-26894D01*
X35333Y-26823D02*
X35033Y-26823D01*
X35033Y-26937D01*
X35048Y-26966D01*
X35062Y-26980D01*
X35091Y-26994D01*
X35133Y-26994D01*
X35162Y-26980D01*
X35176Y-26966D01*
X35191Y-26937D01*
X35191Y-26823D01*
X35033Y-27251D02*
X35033Y-27194D01*
X35048Y-27166D01*
X35062Y-27151D01*
X35105Y-27123D01*
X35162Y-27108D01*
X35276Y-27108D01*
X35305Y-27123D01*
X35319Y-27137D01*
X35333Y-27166D01*
X35333Y-27223D01*
X35319Y-27251D01*
X35305Y-27266D01*
X35276Y-27280D01*
X35205Y-27280D01*
X35176Y-27266D01*
X35162Y-27251D01*
X35148Y-27223D01*
X35148Y-27166D01*
X35162Y-27137D01*
X35176Y-27123D01*
X35205Y-27108D01*
X35162Y-27451D02*
X35148Y-27423D01*
X35133Y-27408D01*
X35105Y-27394D01*
X35091Y-27394D01*
X35062Y-27408D01*
X35048Y-27423D01*
X35033Y-27451D01*
X35033Y-27508D01*
X35048Y-27537D01*
X35062Y-27551D01*
X35091Y-27566D01*
X35105Y-27566D01*
X35133Y-27551D01*
X35148Y-27537D01*
X35162Y-27508D01*
X35162Y-27451D01*
X35176Y-27423D01*
X35191Y-27408D01*
X35219Y-27394D01*
X35276Y-27394D01*
X35305Y-27408D01*
X35319Y-27423D01*
X35333Y-27451D01*
X35333Y-27508D01*
X35319Y-27537D01*
X35305Y-27551D01*
X35276Y-27566D01*
X35219Y-27566D01*
X35191Y-27551D01*
X35176Y-27537D01*
X35162Y-27508D01*
X29333Y-47994D02*
X29191Y-47894D01*
X29333Y-47823D02*
X29033Y-47823D01*
X29033Y-47937D01*
X29048Y-47966D01*
X29062Y-47980D01*
X29091Y-47994D01*
X29133Y-47994D01*
X29162Y-47980D01*
X29176Y-47966D01*
X29191Y-47937D01*
X29191Y-47823D01*
X29033Y-48094D02*
X29033Y-48294D01*
X29333Y-48166D01*
X29033Y-48551D02*
X29033Y-48408D01*
X29176Y-48394D01*
X29162Y-48408D01*
X29148Y-48437D01*
X29148Y-48508D01*
X29162Y-48537D01*
X29176Y-48551D01*
X29205Y-48566D01*
X29276Y-48566D01*
X29305Y-48551D01*
X29319Y-48537D01*
X29333Y-48508D01*
X29333Y-48437D01*
X29319Y-48408D01*
X29305Y-48394D01*
X32483Y-41044D02*
X32341Y-40944D01*
X32483Y-40873D02*
X32183Y-40873D01*
X32183Y-40987D01*
X32198Y-41016D01*
X32212Y-41030D01*
X32241Y-41044D01*
X32283Y-41044D01*
X32312Y-41030D01*
X32326Y-41016D01*
X32341Y-40987D01*
X32341Y-40873D01*
X32183Y-41144D02*
X32183Y-41344D01*
X32483Y-41216D01*
X32483Y-41616D02*
X32483Y-41444D01*
X32483Y-41530D02*
X32183Y-41530D01*
X32226Y-41501D01*
X32255Y-41473D01*
X32269Y-41444D01*
X32483Y-33994D02*
X32341Y-33894D01*
X32483Y-33823D02*
X32183Y-33823D01*
X32183Y-33937D01*
X32198Y-33966D01*
X32212Y-33980D01*
X32241Y-33994D01*
X32283Y-33994D01*
X32312Y-33980D01*
X32326Y-33966D01*
X32341Y-33937D01*
X32341Y-33823D01*
X32183Y-34094D02*
X32183Y-34294D01*
X32483Y-34166D01*
X32212Y-34394D02*
X32198Y-34408D01*
X32183Y-34437D01*
X32183Y-34508D01*
X32198Y-34537D01*
X32212Y-34551D01*
X32241Y-34566D01*
X32269Y-34566D01*
X32312Y-34551D01*
X32483Y-34380D01*
X32483Y-34566D01*
X30883Y-47994D02*
X30741Y-47894D01*
X30883Y-47823D02*
X30583Y-47823D01*
X30583Y-47937D01*
X30598Y-47966D01*
X30612Y-47980D01*
X30641Y-47994D01*
X30683Y-47994D01*
X30712Y-47980D01*
X30726Y-47966D01*
X30741Y-47937D01*
X30741Y-47823D01*
X30583Y-48094D02*
X30583Y-48294D01*
X30883Y-48166D01*
X30583Y-48537D02*
X30583Y-48480D01*
X30598Y-48451D01*
X30612Y-48437D01*
X30655Y-48408D01*
X30712Y-48394D01*
X30826Y-48394D01*
X30855Y-48408D01*
X30869Y-48423D01*
X30883Y-48451D01*
X30883Y-48508D01*
X30869Y-48537D01*
X30855Y-48551D01*
X30826Y-48566D01*
X30755Y-48566D01*
X30726Y-48551D01*
X30712Y-48537D01*
X30698Y-48508D01*
X30698Y-48451D01*
X30712Y-48423D01*
X30726Y-48408D01*
X30755Y-48394D01*
X32483Y-47994D02*
X32341Y-47894D01*
X32483Y-47823D02*
X32183Y-47823D01*
X32183Y-47937D01*
X32198Y-47966D01*
X32212Y-47980D01*
X32241Y-47994D01*
X32283Y-47994D01*
X32312Y-47980D01*
X32326Y-47966D01*
X32341Y-47937D01*
X32341Y-47823D01*
X32183Y-48251D02*
X32183Y-48194D01*
X32198Y-48166D01*
X32212Y-48151D01*
X32255Y-48123D01*
X32312Y-48108D01*
X32426Y-48108D01*
X32455Y-48123D01*
X32469Y-48137D01*
X32483Y-48166D01*
X32483Y-48223D01*
X32469Y-48251D01*
X32455Y-48266D01*
X32426Y-48280D01*
X32355Y-48280D01*
X32326Y-48266D01*
X32312Y-48251D01*
X32298Y-48223D01*
X32298Y-48166D01*
X32312Y-48137D01*
X32326Y-48123D01*
X32355Y-48108D01*
X32483Y-48423D02*
X32483Y-48480D01*
X32469Y-48508D01*
X32455Y-48523D01*
X32412Y-48551D01*
X32355Y-48566D01*
X32241Y-48566D01*
X32212Y-48551D01*
X32198Y-48537D01*
X32183Y-48508D01*
X32183Y-48451D01*
X32198Y-48423D01*
X32212Y-48408D01*
X32241Y-48394D01*
X32312Y-48394D01*
X32341Y-48408D01*
X32355Y-48423D01*
X32369Y-48451D01*
X32369Y-48508D01*
X32355Y-48537D01*
X32341Y-48551D01*
X32312Y-48566D01*
X12883Y-47851D02*
X12741Y-47751D01*
X12883Y-47680D02*
X12583Y-47680D01*
X12583Y-47794D01*
X12598Y-47823D01*
X12612Y-47837D01*
X12641Y-47851D01*
X12683Y-47851D01*
X12712Y-47837D01*
X12726Y-47823D01*
X12741Y-47794D01*
X12741Y-47680D01*
X12883Y-48137D02*
X12883Y-47966D01*
X12883Y-48051D02*
X12583Y-48051D01*
X12626Y-48023D01*
X12655Y-47994D01*
X12669Y-47966D01*
X12883Y-48423D02*
X12883Y-48251D01*
X12883Y-48337D02*
X12583Y-48337D01*
X12626Y-48308D01*
X12655Y-48280D01*
X12669Y-48251D01*
X12583Y-48523D02*
X12583Y-48708D01*
X12698Y-48608D01*
X12698Y-48651D01*
X12712Y-48680D01*
X12726Y-48694D01*
X12755Y-48708D01*
X12826Y-48708D01*
X12855Y-48694D01*
X12869Y-48680D01*
X12883Y-48651D01*
X12883Y-48566D01*
X12869Y-48537D01*
X12855Y-48523D01*
X11333Y-47801D02*
X11191Y-47701D01*
X11333Y-47630D02*
X11033Y-47630D01*
X11033Y-47744D01*
X11048Y-47773D01*
X11062Y-47787D01*
X11091Y-47801D01*
X11133Y-47801D01*
X11162Y-47787D01*
X11176Y-47773D01*
X11191Y-47744D01*
X11191Y-47630D01*
X11333Y-48087D02*
X11333Y-47916D01*
X11333Y-48001D02*
X11033Y-48001D01*
X11076Y-47973D01*
X11105Y-47944D01*
X11119Y-47916D01*
X11333Y-48373D02*
X11333Y-48201D01*
X11333Y-48287D02*
X11033Y-48287D01*
X11076Y-48258D01*
X11105Y-48230D01*
X11119Y-48201D01*
X11133Y-48630D02*
X11333Y-48630D01*
X11019Y-48558D02*
X11233Y-48487D01*
X11233Y-48673D01*
X12883Y-33851D02*
X12741Y-33751D01*
X12883Y-33680D02*
X12583Y-33680D01*
X12583Y-33794D01*
X12598Y-33823D01*
X12612Y-33837D01*
X12641Y-33851D01*
X12683Y-33851D01*
X12712Y-33837D01*
X12726Y-33823D01*
X12741Y-33794D01*
X12741Y-33680D01*
X12883Y-34137D02*
X12883Y-33966D01*
X12883Y-34051D02*
X12583Y-34051D01*
X12626Y-34023D01*
X12655Y-33994D01*
X12669Y-33966D01*
X12883Y-34423D02*
X12883Y-34251D01*
X12883Y-34337D02*
X12583Y-34337D01*
X12626Y-34308D01*
X12655Y-34280D01*
X12669Y-34251D01*
X12583Y-34680D02*
X12583Y-34623D01*
X12598Y-34594D01*
X12612Y-34580D01*
X12655Y-34551D01*
X12712Y-34537D01*
X12826Y-34537D01*
X12855Y-34551D01*
X12869Y-34566D01*
X12883Y-34594D01*
X12883Y-34651D01*
X12869Y-34680D01*
X12855Y-34694D01*
X12826Y-34708D01*
X12755Y-34708D01*
X12726Y-34694D01*
X12712Y-34680D01*
X12698Y-34651D01*
X12698Y-34594D01*
X12712Y-34566D01*
X12726Y-34551D01*
X12755Y-34537D01*
X8483Y-26851D02*
X8341Y-26751D01*
X8483Y-26680D02*
X8183Y-26680D01*
X8183Y-26794D01*
X8198Y-26823D01*
X8212Y-26837D01*
X8241Y-26851D01*
X8283Y-26851D01*
X8312Y-26837D01*
X8326Y-26823D01*
X8341Y-26794D01*
X8341Y-26680D01*
X8483Y-27137D02*
X8483Y-26966D01*
X8483Y-27051D02*
X8183Y-27051D01*
X8226Y-27023D01*
X8255Y-26994D01*
X8269Y-26966D01*
X8212Y-27251D02*
X8198Y-27266D01*
X8183Y-27294D01*
X8183Y-27366D01*
X8198Y-27394D01*
X8212Y-27408D01*
X8241Y-27423D01*
X8269Y-27423D01*
X8312Y-27408D01*
X8483Y-27237D01*
X8483Y-27423D01*
X8183Y-27523D02*
X8183Y-27708D01*
X8298Y-27608D01*
X8298Y-27651D01*
X8312Y-27680D01*
X8326Y-27694D01*
X8355Y-27708D01*
X8426Y-27708D01*
X8455Y-27694D01*
X8469Y-27680D01*
X8483Y-27651D01*
X8483Y-27566D01*
X8469Y-27537D01*
X8455Y-27523D01*
X8483Y-47801D02*
X8341Y-47701D01*
X8483Y-47630D02*
X8183Y-47630D01*
X8183Y-47744D01*
X8198Y-47773D01*
X8212Y-47787D01*
X8241Y-47801D01*
X8283Y-47801D01*
X8312Y-47787D01*
X8326Y-47773D01*
X8341Y-47744D01*
X8341Y-47630D01*
X8483Y-48087D02*
X8483Y-47916D01*
X8483Y-48001D02*
X8183Y-48001D01*
X8226Y-47973D01*
X8255Y-47944D01*
X8269Y-47916D01*
X8483Y-48373D02*
X8483Y-48201D01*
X8483Y-48287D02*
X8183Y-48287D01*
X8226Y-48258D01*
X8255Y-48230D01*
X8269Y-48201D01*
X8483Y-48516D02*
X8483Y-48573D01*
X8469Y-48601D01*
X8455Y-48616D01*
X8412Y-48644D01*
X8355Y-48658D01*
X8241Y-48658D01*
X8212Y-48644D01*
X8198Y-48630D01*
X8183Y-48601D01*
X8183Y-48544D01*
X8198Y-48516D01*
X8212Y-48501D01*
X8241Y-48487D01*
X8312Y-48487D01*
X8341Y-48501D01*
X8355Y-48516D01*
X8369Y-48544D01*
X8369Y-48601D01*
X8355Y-48630D01*
X8341Y-48644D01*
X8312Y-48658D01*
X8483Y-33851D02*
X8341Y-33751D01*
X8483Y-33680D02*
X8183Y-33680D01*
X8183Y-33794D01*
X8198Y-33823D01*
X8212Y-33837D01*
X8241Y-33851D01*
X8283Y-33851D01*
X8312Y-33837D01*
X8326Y-33823D01*
X8341Y-33794D01*
X8341Y-33680D01*
X8483Y-34137D02*
X8483Y-33966D01*
X8483Y-34051D02*
X8183Y-34051D01*
X8226Y-34023D01*
X8255Y-33994D01*
X8269Y-33966D01*
X8212Y-34251D02*
X8198Y-34266D01*
X8183Y-34294D01*
X8183Y-34366D01*
X8198Y-34394D01*
X8212Y-34408D01*
X8241Y-34423D01*
X8269Y-34423D01*
X8312Y-34408D01*
X8483Y-34237D01*
X8483Y-34423D01*
X8212Y-34537D02*
X8198Y-34551D01*
X8183Y-34580D01*
X8183Y-34651D01*
X8198Y-34680D01*
X8212Y-34694D01*
X8241Y-34708D01*
X8269Y-34708D01*
X8312Y-34694D01*
X8483Y-34523D01*
X8483Y-34708D01*
X10683Y-28501D02*
X10541Y-28401D01*
X10683Y-28330D02*
X10383Y-28330D01*
X10383Y-28444D01*
X10398Y-28473D01*
X10412Y-28487D01*
X10441Y-28501D01*
X10483Y-28501D01*
X10512Y-28487D01*
X10526Y-28473D01*
X10541Y-28444D01*
X10541Y-28330D01*
X10683Y-28787D02*
X10683Y-28616D01*
X10683Y-28701D02*
X10383Y-28701D01*
X10426Y-28673D01*
X10455Y-28644D01*
X10469Y-28616D01*
X10683Y-29073D02*
X10683Y-28901D01*
X10683Y-28987D02*
X10383Y-28987D01*
X10426Y-28958D01*
X10455Y-28930D01*
X10469Y-28901D01*
X10512Y-29244D02*
X10498Y-29216D01*
X10483Y-29201D01*
X10455Y-29187D01*
X10441Y-29187D01*
X10412Y-29201D01*
X10398Y-29216D01*
X10383Y-29244D01*
X10383Y-29301D01*
X10398Y-29330D01*
X10412Y-29344D01*
X10441Y-29358D01*
X10455Y-29358D01*
X10483Y-29344D01*
X10498Y-29330D01*
X10512Y-29301D01*
X10512Y-29244D01*
X10526Y-29216D01*
X10541Y-29201D01*
X10569Y-29187D01*
X10626Y-29187D01*
X10655Y-29201D01*
X10669Y-29216D01*
X10683Y-29244D01*
X10683Y-29301D01*
X10669Y-29330D01*
X10655Y-29344D01*
X10626Y-29358D01*
X10569Y-29358D01*
X10541Y-29344D01*
X10526Y-29330D01*
X10512Y-29301D01*
X12883Y-26851D02*
X12741Y-26751D01*
X12883Y-26680D02*
X12583Y-26680D01*
X12583Y-26794D01*
X12598Y-26823D01*
X12612Y-26837D01*
X12641Y-26851D01*
X12683Y-26851D01*
X12712Y-26837D01*
X12726Y-26823D01*
X12741Y-26794D01*
X12741Y-26680D01*
X12883Y-27137D02*
X12883Y-26966D01*
X12883Y-27051D02*
X12583Y-27051D01*
X12626Y-27023D01*
X12655Y-26994D01*
X12669Y-26966D01*
X12883Y-27423D02*
X12883Y-27251D01*
X12883Y-27337D02*
X12583Y-27337D01*
X12626Y-27308D01*
X12655Y-27280D01*
X12669Y-27251D01*
X12583Y-27523D02*
X12583Y-27723D01*
X12883Y-27594D01*
X14483Y-47851D02*
X14341Y-47751D01*
X14483Y-47680D02*
X14183Y-47680D01*
X14183Y-47794D01*
X14198Y-47823D01*
X14212Y-47837D01*
X14241Y-47851D01*
X14283Y-47851D01*
X14312Y-47837D01*
X14326Y-47823D01*
X14341Y-47794D01*
X14341Y-47680D01*
X14483Y-48137D02*
X14483Y-47966D01*
X14483Y-48051D02*
X14183Y-48051D01*
X14226Y-48023D01*
X14255Y-47994D01*
X14269Y-47966D01*
X14183Y-48323D02*
X14183Y-48351D01*
X14198Y-48380D01*
X14212Y-48394D01*
X14241Y-48408D01*
X14298Y-48423D01*
X14369Y-48423D01*
X14426Y-48408D01*
X14455Y-48394D01*
X14469Y-48380D01*
X14483Y-48351D01*
X14483Y-48323D01*
X14469Y-48294D01*
X14455Y-48280D01*
X14426Y-48266D01*
X14369Y-48251D01*
X14298Y-48251D01*
X14241Y-48266D01*
X14212Y-48280D01*
X14198Y-48294D01*
X14183Y-48323D01*
X14312Y-48594D02*
X14298Y-48566D01*
X14283Y-48551D01*
X14255Y-48537D01*
X14241Y-48537D01*
X14212Y-48551D01*
X14198Y-48566D01*
X14183Y-48594D01*
X14183Y-48651D01*
X14198Y-48680D01*
X14212Y-48694D01*
X14241Y-48708D01*
X14255Y-48708D01*
X14283Y-48694D01*
X14298Y-48680D01*
X14312Y-48651D01*
X14312Y-48594D01*
X14326Y-48566D01*
X14341Y-48551D01*
X14369Y-48537D01*
X14426Y-48537D01*
X14455Y-48551D01*
X14469Y-48566D01*
X14483Y-48594D01*
X14483Y-48651D01*
X14469Y-48680D01*
X14455Y-48694D01*
X14426Y-48708D01*
X14369Y-48708D01*
X14341Y-48694D01*
X14326Y-48680D01*
X14312Y-48651D01*
X18883Y-26851D02*
X18741Y-26751D01*
X18883Y-26680D02*
X18583Y-26680D01*
X18583Y-26794D01*
X18598Y-26823D01*
X18612Y-26837D01*
X18641Y-26851D01*
X18683Y-26851D01*
X18712Y-26837D01*
X18726Y-26823D01*
X18741Y-26794D01*
X18741Y-26680D01*
X18883Y-27137D02*
X18883Y-26966D01*
X18883Y-27051D02*
X18583Y-27051D01*
X18626Y-27023D01*
X18655Y-26994D01*
X18669Y-26966D01*
X18583Y-27323D02*
X18583Y-27351D01*
X18598Y-27380D01*
X18612Y-27394D01*
X18641Y-27408D01*
X18698Y-27423D01*
X18769Y-27423D01*
X18826Y-27408D01*
X18855Y-27394D01*
X18869Y-27380D01*
X18883Y-27351D01*
X18883Y-27323D01*
X18869Y-27294D01*
X18855Y-27280D01*
X18826Y-27266D01*
X18769Y-27251D01*
X18698Y-27251D01*
X18641Y-27266D01*
X18612Y-27280D01*
X18598Y-27294D01*
X18583Y-27323D01*
X18583Y-27694D02*
X18583Y-27551D01*
X18726Y-27537D01*
X18712Y-27551D01*
X18698Y-27580D01*
X18698Y-27651D01*
X18712Y-27680D01*
X18726Y-27694D01*
X18755Y-27708D01*
X18826Y-27708D01*
X18855Y-27694D01*
X18869Y-27680D01*
X18883Y-27651D01*
X18883Y-27580D01*
X18869Y-27551D01*
X18855Y-27537D01*
X17333Y-47851D02*
X17191Y-47751D01*
X17333Y-47680D02*
X17033Y-47680D01*
X17033Y-47794D01*
X17048Y-47823D01*
X17062Y-47837D01*
X17091Y-47851D01*
X17133Y-47851D01*
X17162Y-47837D01*
X17176Y-47823D01*
X17191Y-47794D01*
X17191Y-47680D01*
X17333Y-48137D02*
X17333Y-47966D01*
X17333Y-48051D02*
X17033Y-48051D01*
X17076Y-48023D01*
X17105Y-47994D01*
X17119Y-47966D01*
X17033Y-48323D02*
X17033Y-48351D01*
X17048Y-48380D01*
X17062Y-48394D01*
X17091Y-48408D01*
X17148Y-48423D01*
X17219Y-48423D01*
X17276Y-48408D01*
X17305Y-48394D01*
X17319Y-48380D01*
X17333Y-48351D01*
X17333Y-48323D01*
X17319Y-48294D01*
X17305Y-48280D01*
X17276Y-48266D01*
X17219Y-48251D01*
X17148Y-48251D01*
X17091Y-48266D01*
X17062Y-48280D01*
X17048Y-48294D01*
X17033Y-48323D01*
X17333Y-48708D02*
X17333Y-48537D01*
X17333Y-48623D02*
X17033Y-48623D01*
X17076Y-48594D01*
X17105Y-48566D01*
X17119Y-48537D01*
X18883Y-33851D02*
X18741Y-33751D01*
X18883Y-33680D02*
X18583Y-33680D01*
X18583Y-33794D01*
X18598Y-33823D01*
X18612Y-33837D01*
X18641Y-33851D01*
X18683Y-33851D01*
X18712Y-33837D01*
X18726Y-33823D01*
X18741Y-33794D01*
X18741Y-33680D01*
X18883Y-34137D02*
X18883Y-33966D01*
X18883Y-34051D02*
X18583Y-34051D01*
X18626Y-34023D01*
X18655Y-33994D01*
X18669Y-33966D01*
X18583Y-34323D02*
X18583Y-34351D01*
X18598Y-34380D01*
X18612Y-34394D01*
X18641Y-34408D01*
X18698Y-34423D01*
X18769Y-34423D01*
X18826Y-34408D01*
X18855Y-34394D01*
X18869Y-34380D01*
X18883Y-34351D01*
X18883Y-34323D01*
X18869Y-34294D01*
X18855Y-34280D01*
X18826Y-34266D01*
X18769Y-34251D01*
X18698Y-34251D01*
X18641Y-34266D01*
X18612Y-34280D01*
X18598Y-34294D01*
X18583Y-34323D01*
X18683Y-34680D02*
X18883Y-34680D01*
X18569Y-34608D02*
X18783Y-34537D01*
X18783Y-34723D01*
X14483Y-33851D02*
X14341Y-33751D01*
X14483Y-33680D02*
X14183Y-33680D01*
X14183Y-33794D01*
X14198Y-33823D01*
X14212Y-33837D01*
X14241Y-33851D01*
X14283Y-33851D01*
X14312Y-33837D01*
X14326Y-33823D01*
X14341Y-33794D01*
X14341Y-33680D01*
X14483Y-34137D02*
X14483Y-33966D01*
X14483Y-34051D02*
X14183Y-34051D01*
X14226Y-34023D01*
X14255Y-33994D01*
X14269Y-33966D01*
X14483Y-34423D02*
X14483Y-34251D01*
X14483Y-34337D02*
X14183Y-34337D01*
X14226Y-34308D01*
X14255Y-34280D01*
X14269Y-34251D01*
X14183Y-34608D02*
X14183Y-34637D01*
X14198Y-34666D01*
X14212Y-34680D01*
X14241Y-34694D01*
X14298Y-34708D01*
X14369Y-34708D01*
X14426Y-34694D01*
X14455Y-34680D01*
X14469Y-34666D01*
X14483Y-34637D01*
X14483Y-34608D01*
X14469Y-34580D01*
X14455Y-34566D01*
X14426Y-34551D01*
X14369Y-34537D01*
X14298Y-34537D01*
X14241Y-34551D01*
X14212Y-34566D01*
X14198Y-34580D01*
X14183Y-34608D01*
X14483Y-40851D02*
X14341Y-40751D01*
X14483Y-40680D02*
X14183Y-40680D01*
X14183Y-40794D01*
X14198Y-40823D01*
X14212Y-40837D01*
X14241Y-40851D01*
X14283Y-40851D01*
X14312Y-40837D01*
X14326Y-40823D01*
X14341Y-40794D01*
X14341Y-40680D01*
X14483Y-41137D02*
X14483Y-40966D01*
X14483Y-41051D02*
X14183Y-41051D01*
X14226Y-41023D01*
X14255Y-40994D01*
X14269Y-40966D01*
X14183Y-41323D02*
X14183Y-41351D01*
X14198Y-41380D01*
X14212Y-41394D01*
X14241Y-41408D01*
X14298Y-41423D01*
X14369Y-41423D01*
X14426Y-41408D01*
X14455Y-41394D01*
X14469Y-41380D01*
X14483Y-41351D01*
X14483Y-41323D01*
X14469Y-41294D01*
X14455Y-41280D01*
X14426Y-41266D01*
X14369Y-41251D01*
X14298Y-41251D01*
X14241Y-41266D01*
X14212Y-41280D01*
X14198Y-41294D01*
X14183Y-41323D01*
X14483Y-41566D02*
X14483Y-41623D01*
X14469Y-41651D01*
X14455Y-41666D01*
X14412Y-41694D01*
X14355Y-41708D01*
X14241Y-41708D01*
X14212Y-41694D01*
X14198Y-41680D01*
X14183Y-41651D01*
X14183Y-41594D01*
X14198Y-41566D01*
X14212Y-41551D01*
X14241Y-41537D01*
X14312Y-41537D01*
X14341Y-41551D01*
X14355Y-41566D01*
X14369Y-41594D01*
X14369Y-41651D01*
X14355Y-41680D01*
X14341Y-41694D01*
X14312Y-41708D01*
X14483Y-26851D02*
X14341Y-26751D01*
X14483Y-26680D02*
X14183Y-26680D01*
X14183Y-26794D01*
X14198Y-26823D01*
X14212Y-26837D01*
X14241Y-26851D01*
X14283Y-26851D01*
X14312Y-26837D01*
X14326Y-26823D01*
X14341Y-26794D01*
X14341Y-26680D01*
X14483Y-27137D02*
X14483Y-26966D01*
X14483Y-27051D02*
X14183Y-27051D01*
X14226Y-27023D01*
X14255Y-26994D01*
X14269Y-26966D01*
X14483Y-27423D02*
X14483Y-27251D01*
X14483Y-27337D02*
X14183Y-27337D01*
X14226Y-27308D01*
X14255Y-27280D01*
X14269Y-27251D01*
X14483Y-27708D02*
X14483Y-27537D01*
X14483Y-27623D02*
X14183Y-27623D01*
X14226Y-27594D01*
X14255Y-27566D01*
X14269Y-27537D01*
X8483Y-40851D02*
X8341Y-40751D01*
X8483Y-40680D02*
X8183Y-40680D01*
X8183Y-40794D01*
X8198Y-40823D01*
X8212Y-40837D01*
X8241Y-40851D01*
X8283Y-40851D01*
X8312Y-40837D01*
X8326Y-40823D01*
X8341Y-40794D01*
X8341Y-40680D01*
X8483Y-41137D02*
X8483Y-40966D01*
X8483Y-41051D02*
X8183Y-41051D01*
X8226Y-41023D01*
X8255Y-40994D01*
X8269Y-40966D01*
X8212Y-41251D02*
X8198Y-41266D01*
X8183Y-41294D01*
X8183Y-41366D01*
X8198Y-41394D01*
X8212Y-41408D01*
X8241Y-41423D01*
X8269Y-41423D01*
X8312Y-41408D01*
X8483Y-41237D01*
X8483Y-41423D01*
X8483Y-41708D02*
X8483Y-41537D01*
X8483Y-41623D02*
X8183Y-41623D01*
X8226Y-41594D01*
X8255Y-41566D01*
X8269Y-41537D01*
X20483Y-40994D02*
X20341Y-40894D01*
X20483Y-40823D02*
X20183Y-40823D01*
X20183Y-40937D01*
X20198Y-40966D01*
X20212Y-40980D01*
X20241Y-40994D01*
X20283Y-40994D01*
X20312Y-40980D01*
X20326Y-40966D01*
X20341Y-40937D01*
X20341Y-40823D01*
X20483Y-41137D02*
X20483Y-41194D01*
X20469Y-41223D01*
X20455Y-41237D01*
X20412Y-41266D01*
X20355Y-41280D01*
X20241Y-41280D01*
X20212Y-41266D01*
X20198Y-41251D01*
X20183Y-41223D01*
X20183Y-41166D01*
X20198Y-41137D01*
X20212Y-41123D01*
X20241Y-41108D01*
X20312Y-41108D01*
X20341Y-41123D01*
X20355Y-41137D01*
X20369Y-41166D01*
X20369Y-41223D01*
X20355Y-41251D01*
X20341Y-41266D01*
X20312Y-41280D01*
X20183Y-41551D02*
X20183Y-41408D01*
X20326Y-41394D01*
X20312Y-41408D01*
X20298Y-41437D01*
X20298Y-41508D01*
X20312Y-41537D01*
X20326Y-41551D01*
X20355Y-41566D01*
X20426Y-41566D01*
X20455Y-41551D01*
X20469Y-41537D01*
X20483Y-41508D01*
X20483Y-41437D01*
X20469Y-41408D01*
X20455Y-41394D01*
X20533Y-33994D02*
X20391Y-33894D01*
X20533Y-33823D02*
X20233Y-33823D01*
X20233Y-33937D01*
X20248Y-33966D01*
X20262Y-33980D01*
X20291Y-33994D01*
X20333Y-33994D01*
X20362Y-33980D01*
X20376Y-33966D01*
X20391Y-33937D01*
X20391Y-33823D01*
X20533Y-34137D02*
X20533Y-34194D01*
X20519Y-34223D01*
X20505Y-34237D01*
X20462Y-34266D01*
X20405Y-34280D01*
X20291Y-34280D01*
X20262Y-34266D01*
X20248Y-34251D01*
X20233Y-34223D01*
X20233Y-34166D01*
X20248Y-34137D01*
X20262Y-34123D01*
X20291Y-34108D01*
X20362Y-34108D01*
X20391Y-34123D01*
X20405Y-34137D01*
X20419Y-34166D01*
X20419Y-34223D01*
X20405Y-34251D01*
X20391Y-34266D01*
X20362Y-34280D01*
X20233Y-34537D02*
X20233Y-34480D01*
X20248Y-34451D01*
X20262Y-34437D01*
X20305Y-34408D01*
X20362Y-34394D01*
X20476Y-34394D01*
X20505Y-34408D01*
X20519Y-34423D01*
X20533Y-34451D01*
X20533Y-34508D01*
X20519Y-34537D01*
X20505Y-34551D01*
X20476Y-34566D01*
X20405Y-34566D01*
X20376Y-34551D01*
X20362Y-34537D01*
X20348Y-34508D01*
X20348Y-34451D01*
X20362Y-34423D01*
X20376Y-34408D01*
X20405Y-34394D01*
X20483Y-47994D02*
X20341Y-47894D01*
X20483Y-47823D02*
X20183Y-47823D01*
X20183Y-47937D01*
X20198Y-47966D01*
X20212Y-47980D01*
X20241Y-47994D01*
X20283Y-47994D01*
X20312Y-47980D01*
X20326Y-47966D01*
X20341Y-47937D01*
X20341Y-47823D01*
X20483Y-48137D02*
X20483Y-48194D01*
X20469Y-48223D01*
X20455Y-48237D01*
X20412Y-48266D01*
X20355Y-48280D01*
X20241Y-48280D01*
X20212Y-48266D01*
X20198Y-48251D01*
X20183Y-48223D01*
X20183Y-48166D01*
X20198Y-48137D01*
X20212Y-48123D01*
X20241Y-48108D01*
X20312Y-48108D01*
X20341Y-48123D01*
X20355Y-48137D01*
X20369Y-48166D01*
X20369Y-48223D01*
X20355Y-48251D01*
X20341Y-48266D01*
X20312Y-48280D01*
X20283Y-48537D02*
X20483Y-48537D01*
X20169Y-48466D02*
X20383Y-48394D01*
X20383Y-48580D01*
X26483Y-33994D02*
X26341Y-33894D01*
X26483Y-33823D02*
X26183Y-33823D01*
X26183Y-33937D01*
X26198Y-33966D01*
X26212Y-33980D01*
X26241Y-33994D01*
X26283Y-33994D01*
X26312Y-33980D01*
X26326Y-33966D01*
X26341Y-33937D01*
X26341Y-33823D01*
X26312Y-34166D02*
X26298Y-34137D01*
X26283Y-34123D01*
X26255Y-34108D01*
X26241Y-34108D01*
X26212Y-34123D01*
X26198Y-34137D01*
X26183Y-34166D01*
X26183Y-34223D01*
X26198Y-34251D01*
X26212Y-34266D01*
X26241Y-34280D01*
X26255Y-34280D01*
X26283Y-34266D01*
X26298Y-34251D01*
X26312Y-34223D01*
X26312Y-34166D01*
X26326Y-34137D01*
X26341Y-34123D01*
X26369Y-34108D01*
X26426Y-34108D01*
X26455Y-34123D01*
X26469Y-34137D01*
X26483Y-34166D01*
X26483Y-34223D01*
X26469Y-34251D01*
X26455Y-34266D01*
X26426Y-34280D01*
X26369Y-34280D01*
X26341Y-34266D01*
X26326Y-34251D01*
X26312Y-34223D01*
X26283Y-34537D02*
X26483Y-34537D01*
X26169Y-34466D02*
X26383Y-34394D01*
X26383Y-34580D01*
X30883Y-40994D02*
X30741Y-40894D01*
X30883Y-40823D02*
X30583Y-40823D01*
X30583Y-40937D01*
X30598Y-40966D01*
X30612Y-40980D01*
X30641Y-40994D01*
X30683Y-40994D01*
X30712Y-40980D01*
X30726Y-40966D01*
X30741Y-40937D01*
X30741Y-40823D01*
X30583Y-41094D02*
X30583Y-41294D01*
X30883Y-41166D01*
X30583Y-41380D02*
X30583Y-41580D01*
X30883Y-41451D01*
X29333Y-26994D02*
X29191Y-26894D01*
X29333Y-26823D02*
X29033Y-26823D01*
X29033Y-26937D01*
X29048Y-26966D01*
X29062Y-26980D01*
X29091Y-26994D01*
X29133Y-26994D01*
X29162Y-26980D01*
X29176Y-26966D01*
X29191Y-26937D01*
X29191Y-26823D01*
X29162Y-27166D02*
X29148Y-27137D01*
X29133Y-27123D01*
X29105Y-27108D01*
X29091Y-27108D01*
X29062Y-27123D01*
X29048Y-27137D01*
X29033Y-27166D01*
X29033Y-27223D01*
X29048Y-27251D01*
X29062Y-27266D01*
X29091Y-27280D01*
X29105Y-27280D01*
X29133Y-27266D01*
X29148Y-27251D01*
X29162Y-27223D01*
X29162Y-27166D01*
X29176Y-27137D01*
X29191Y-27123D01*
X29219Y-27108D01*
X29276Y-27108D01*
X29305Y-27123D01*
X29319Y-27137D01*
X29333Y-27166D01*
X29333Y-27223D01*
X29319Y-27251D01*
X29305Y-27266D01*
X29276Y-27280D01*
X29219Y-27280D01*
X29191Y-27266D01*
X29176Y-27251D01*
X29162Y-27223D01*
X29033Y-27466D02*
X29033Y-27494D01*
X29048Y-27523D01*
X29062Y-27537D01*
X29091Y-27551D01*
X29148Y-27566D01*
X29219Y-27566D01*
X29276Y-27551D01*
X29305Y-27537D01*
X29319Y-27523D01*
X29333Y-27494D01*
X29333Y-27466D01*
X29319Y-27437D01*
X29305Y-27423D01*
X29276Y-27408D01*
X29219Y-27394D01*
X29148Y-27394D01*
X29091Y-27408D01*
X29062Y-27423D01*
X29048Y-27437D01*
X29033Y-27466D01*
X26533Y-26994D02*
X26391Y-26894D01*
X26533Y-26823D02*
X26233Y-26823D01*
X26233Y-26937D01*
X26248Y-26966D01*
X26262Y-26980D01*
X26291Y-26994D01*
X26333Y-26994D01*
X26362Y-26980D01*
X26376Y-26966D01*
X26391Y-26937D01*
X26391Y-26823D01*
X26362Y-27166D02*
X26348Y-27137D01*
X26333Y-27123D01*
X26305Y-27108D01*
X26291Y-27108D01*
X26262Y-27123D01*
X26248Y-27137D01*
X26233Y-27166D01*
X26233Y-27223D01*
X26248Y-27251D01*
X26262Y-27266D01*
X26291Y-27280D01*
X26305Y-27280D01*
X26333Y-27266D01*
X26348Y-27251D01*
X26362Y-27223D01*
X26362Y-27166D01*
X26376Y-27137D01*
X26391Y-27123D01*
X26419Y-27108D01*
X26476Y-27108D01*
X26505Y-27123D01*
X26519Y-27137D01*
X26533Y-27166D01*
X26533Y-27223D01*
X26519Y-27251D01*
X26505Y-27266D01*
X26476Y-27280D01*
X26419Y-27280D01*
X26391Y-27266D01*
X26376Y-27251D01*
X26362Y-27223D01*
X26233Y-27551D02*
X26233Y-27408D01*
X26376Y-27394D01*
X26362Y-27408D01*
X26348Y-27437D01*
X26348Y-27508D01*
X26362Y-27537D01*
X26376Y-27551D01*
X26405Y-27566D01*
X26476Y-27566D01*
X26505Y-27551D01*
X26519Y-27537D01*
X26533Y-27508D01*
X26533Y-27437D01*
X26519Y-27408D01*
X26505Y-27394D01*
X23333Y-47994D02*
X23191Y-47894D01*
X23333Y-47823D02*
X23033Y-47823D01*
X23033Y-47937D01*
X23048Y-47966D01*
X23062Y-47980D01*
X23091Y-47994D01*
X23133Y-47994D01*
X23162Y-47980D01*
X23176Y-47966D01*
X23191Y-47937D01*
X23191Y-47823D01*
X23162Y-48166D02*
X23148Y-48137D01*
X23133Y-48123D01*
X23105Y-48108D01*
X23091Y-48108D01*
X23062Y-48123D01*
X23048Y-48137D01*
X23033Y-48166D01*
X23033Y-48223D01*
X23048Y-48251D01*
X23062Y-48266D01*
X23091Y-48280D01*
X23105Y-48280D01*
X23133Y-48266D01*
X23148Y-48251D01*
X23162Y-48223D01*
X23162Y-48166D01*
X23176Y-48137D01*
X23191Y-48123D01*
X23219Y-48108D01*
X23276Y-48108D01*
X23305Y-48123D01*
X23319Y-48137D01*
X23333Y-48166D01*
X23333Y-48223D01*
X23319Y-48251D01*
X23305Y-48266D01*
X23276Y-48280D01*
X23219Y-48280D01*
X23191Y-48266D01*
X23176Y-48251D01*
X23162Y-48223D01*
X23033Y-48380D02*
X23033Y-48580D01*
X23333Y-48451D01*
X24883Y-47994D02*
X24741Y-47894D01*
X24883Y-47823D02*
X24583Y-47823D01*
X24583Y-47937D01*
X24598Y-47966D01*
X24612Y-47980D01*
X24641Y-47994D01*
X24683Y-47994D01*
X24712Y-47980D01*
X24726Y-47966D01*
X24741Y-47937D01*
X24741Y-47823D01*
X24712Y-48166D02*
X24698Y-48137D01*
X24683Y-48123D01*
X24655Y-48108D01*
X24641Y-48108D01*
X24612Y-48123D01*
X24598Y-48137D01*
X24583Y-48166D01*
X24583Y-48223D01*
X24598Y-48251D01*
X24612Y-48266D01*
X24641Y-48280D01*
X24655Y-48280D01*
X24683Y-48266D01*
X24698Y-48251D01*
X24712Y-48223D01*
X24712Y-48166D01*
X24726Y-48137D01*
X24741Y-48123D01*
X24769Y-48108D01*
X24826Y-48108D01*
X24855Y-48123D01*
X24869Y-48137D01*
X24883Y-48166D01*
X24883Y-48223D01*
X24869Y-48251D01*
X24855Y-48266D01*
X24826Y-48280D01*
X24769Y-48280D01*
X24741Y-48266D01*
X24726Y-48251D01*
X24712Y-48223D01*
X24712Y-48451D02*
X24698Y-48423D01*
X24683Y-48408D01*
X24655Y-48394D01*
X24641Y-48394D01*
X24612Y-48408D01*
X24598Y-48423D01*
X24583Y-48451D01*
X24583Y-48508D01*
X24598Y-48537D01*
X24612Y-48551D01*
X24641Y-48566D01*
X24655Y-48566D01*
X24683Y-48551D01*
X24698Y-48537D01*
X24712Y-48508D01*
X24712Y-48451D01*
X24726Y-48423D01*
X24741Y-48408D01*
X24769Y-48394D01*
X24826Y-48394D01*
X24855Y-48408D01*
X24869Y-48423D01*
X24883Y-48451D01*
X24883Y-48508D01*
X24869Y-48537D01*
X24855Y-48551D01*
X24826Y-48566D01*
X24769Y-48566D01*
X24741Y-48551D01*
X24726Y-48537D01*
X24712Y-48508D01*
X20483Y-26994D02*
X20341Y-26894D01*
X20483Y-26823D02*
X20183Y-26823D01*
X20183Y-26937D01*
X20198Y-26966D01*
X20212Y-26980D01*
X20241Y-26994D01*
X20283Y-26994D01*
X20312Y-26980D01*
X20326Y-26966D01*
X20341Y-26937D01*
X20341Y-26823D01*
X20483Y-27137D02*
X20483Y-27194D01*
X20469Y-27223D01*
X20455Y-27237D01*
X20412Y-27266D01*
X20355Y-27280D01*
X20241Y-27280D01*
X20212Y-27266D01*
X20198Y-27251D01*
X20183Y-27223D01*
X20183Y-27166D01*
X20198Y-27137D01*
X20212Y-27123D01*
X20241Y-27108D01*
X20312Y-27108D01*
X20341Y-27123D01*
X20355Y-27137D01*
X20369Y-27166D01*
X20369Y-27223D01*
X20355Y-27251D01*
X20341Y-27266D01*
X20312Y-27280D01*
X20183Y-27380D02*
X20183Y-27580D01*
X20483Y-27451D01*
X18883Y-40851D02*
X18741Y-40751D01*
X18883Y-40680D02*
X18583Y-40680D01*
X18583Y-40794D01*
X18598Y-40823D01*
X18612Y-40837D01*
X18641Y-40851D01*
X18683Y-40851D01*
X18712Y-40837D01*
X18726Y-40823D01*
X18741Y-40794D01*
X18741Y-40680D01*
X18883Y-41137D02*
X18883Y-40966D01*
X18883Y-41051D02*
X18583Y-41051D01*
X18626Y-41023D01*
X18655Y-40994D01*
X18669Y-40966D01*
X18583Y-41323D02*
X18583Y-41351D01*
X18598Y-41380D01*
X18612Y-41394D01*
X18641Y-41408D01*
X18698Y-41423D01*
X18769Y-41423D01*
X18826Y-41408D01*
X18855Y-41394D01*
X18869Y-41380D01*
X18883Y-41351D01*
X18883Y-41323D01*
X18869Y-41294D01*
X18855Y-41280D01*
X18826Y-41266D01*
X18769Y-41251D01*
X18698Y-41251D01*
X18641Y-41266D01*
X18612Y-41280D01*
X18598Y-41294D01*
X18583Y-41323D01*
X18583Y-41523D02*
X18583Y-41708D01*
X18698Y-41608D01*
X18698Y-41651D01*
X18712Y-41680D01*
X18726Y-41694D01*
X18755Y-41708D01*
X18826Y-41708D01*
X18855Y-41694D01*
X18869Y-41680D01*
X18883Y-41651D01*
X18883Y-41566D01*
X18869Y-41537D01*
X18855Y-41523D01*
X18883Y-47851D02*
X18741Y-47751D01*
X18883Y-47680D02*
X18583Y-47680D01*
X18583Y-47794D01*
X18598Y-47823D01*
X18612Y-47837D01*
X18641Y-47851D01*
X18683Y-47851D01*
X18712Y-47837D01*
X18726Y-47823D01*
X18741Y-47794D01*
X18741Y-47680D01*
X18883Y-48137D02*
X18883Y-47966D01*
X18883Y-48051D02*
X18583Y-48051D01*
X18626Y-48023D01*
X18655Y-47994D01*
X18669Y-47966D01*
X18583Y-48323D02*
X18583Y-48351D01*
X18598Y-48380D01*
X18612Y-48394D01*
X18641Y-48408D01*
X18698Y-48423D01*
X18769Y-48423D01*
X18826Y-48408D01*
X18855Y-48394D01*
X18869Y-48380D01*
X18883Y-48351D01*
X18883Y-48323D01*
X18869Y-48294D01*
X18855Y-48280D01*
X18826Y-48266D01*
X18769Y-48251D01*
X18698Y-48251D01*
X18641Y-48266D01*
X18612Y-48280D01*
X18598Y-48294D01*
X18583Y-48323D01*
X18612Y-48537D02*
X18598Y-48551D01*
X18583Y-48580D01*
X18583Y-48651D01*
X18598Y-48680D01*
X18612Y-48694D01*
X18641Y-48708D01*
X18669Y-48708D01*
X18712Y-48694D01*
X18883Y-48523D01*
X18883Y-48708D01*
X17333Y-26826D02*
X17191Y-26726D01*
X17333Y-26655D02*
X17033Y-26655D01*
X17033Y-26769D01*
X17048Y-26798D01*
X17062Y-26812D01*
X17091Y-26826D01*
X17133Y-26826D01*
X17162Y-26812D01*
X17176Y-26798D01*
X17191Y-26769D01*
X17191Y-26655D01*
X17333Y-27112D02*
X17333Y-26941D01*
X17333Y-27026D02*
X17033Y-27026D01*
X17076Y-26998D01*
X17105Y-26969D01*
X17119Y-26941D01*
X17033Y-27298D02*
X17033Y-27326D01*
X17048Y-27355D01*
X17062Y-27369D01*
X17091Y-27383D01*
X17148Y-27398D01*
X17219Y-27398D01*
X17276Y-27383D01*
X17305Y-27369D01*
X17319Y-27355D01*
X17333Y-27326D01*
X17333Y-27298D01*
X17319Y-27269D01*
X17305Y-27255D01*
X17276Y-27241D01*
X17219Y-27226D01*
X17148Y-27226D01*
X17091Y-27241D01*
X17062Y-27255D01*
X17048Y-27269D01*
X17033Y-27298D01*
X17033Y-27655D02*
X17033Y-27598D01*
X17048Y-27569D01*
X17062Y-27555D01*
X17105Y-27526D01*
X17162Y-27512D01*
X17276Y-27512D01*
X17305Y-27526D01*
X17319Y-27541D01*
X17333Y-27569D01*
X17333Y-27626D01*
X17319Y-27655D01*
X17305Y-27669D01*
X17276Y-27683D01*
X17205Y-27683D01*
X17176Y-27669D01*
X17162Y-27655D01*
X17148Y-27626D01*
X17148Y-27569D01*
X17162Y-27541D01*
X17176Y-27526D01*
X17205Y-27512D01*
X12883Y-40851D02*
X12741Y-40751D01*
X12883Y-40680D02*
X12583Y-40680D01*
X12583Y-40794D01*
X12598Y-40823D01*
X12612Y-40837D01*
X12641Y-40851D01*
X12683Y-40851D01*
X12712Y-40837D01*
X12726Y-40823D01*
X12741Y-40794D01*
X12741Y-40680D01*
X12883Y-41137D02*
X12883Y-40966D01*
X12883Y-41051D02*
X12583Y-41051D01*
X12626Y-41023D01*
X12655Y-40994D01*
X12669Y-40966D01*
X12883Y-41423D02*
X12883Y-41251D01*
X12883Y-41337D02*
X12583Y-41337D01*
X12626Y-41308D01*
X12655Y-41280D01*
X12669Y-41251D01*
X12583Y-41694D02*
X12583Y-41551D01*
X12726Y-41537D01*
X12712Y-41551D01*
X12698Y-41580D01*
X12698Y-41651D01*
X12712Y-41680D01*
X12726Y-41694D01*
X12755Y-41708D01*
X12826Y-41708D01*
X12855Y-41694D01*
X12869Y-41680D01*
X12883Y-41651D01*
X12883Y-41580D01*
X12869Y-41551D01*
X12855Y-41537D01*
X23333Y-33994D02*
X23191Y-33894D01*
X23333Y-33823D02*
X23033Y-33823D01*
X23033Y-33937D01*
X23048Y-33966D01*
X23062Y-33980D01*
X23091Y-33994D01*
X23133Y-33994D01*
X23162Y-33980D01*
X23176Y-33966D01*
X23191Y-33937D01*
X23191Y-33823D01*
X23033Y-34094D02*
X23033Y-34280D01*
X23148Y-34180D01*
X23148Y-34223D01*
X23162Y-34251D01*
X23176Y-34266D01*
X23205Y-34280D01*
X23276Y-34280D01*
X23305Y-34266D01*
X23319Y-34251D01*
X23333Y-34223D01*
X23333Y-34137D01*
X23319Y-34108D01*
X23305Y-34094D01*
X23033Y-34466D02*
X23033Y-34494D01*
X23048Y-34523D01*
X23062Y-34537D01*
X23091Y-34551D01*
X23148Y-34566D01*
X23219Y-34566D01*
X23276Y-34551D01*
X23305Y-34537D01*
X23319Y-34523D01*
X23333Y-34494D01*
X23333Y-34466D01*
X23319Y-34437D01*
X23305Y-34423D01*
X23276Y-34408D01*
X23219Y-34394D01*
X23148Y-34394D01*
X23091Y-34408D01*
X23062Y-34423D01*
X23048Y-34437D01*
X23033Y-34466D01*
X23308Y-40994D02*
X23166Y-40894D01*
X23308Y-40823D02*
X23008Y-40823D01*
X23008Y-40937D01*
X23023Y-40966D01*
X23037Y-40980D01*
X23066Y-40994D01*
X23108Y-40994D01*
X23137Y-40980D01*
X23151Y-40966D01*
X23166Y-40937D01*
X23166Y-40823D01*
X23037Y-41108D02*
X23023Y-41123D01*
X23008Y-41151D01*
X23008Y-41223D01*
X23023Y-41251D01*
X23037Y-41266D01*
X23066Y-41280D01*
X23094Y-41280D01*
X23137Y-41266D01*
X23308Y-41094D01*
X23308Y-41280D01*
X23008Y-41551D02*
X23008Y-41408D01*
X23151Y-41394D01*
X23137Y-41408D01*
X23123Y-41437D01*
X23123Y-41508D01*
X23137Y-41537D01*
X23151Y-41551D01*
X23180Y-41566D01*
X23251Y-41566D01*
X23280Y-41551D01*
X23294Y-41537D01*
X23308Y-41508D01*
X23308Y-41437D01*
X23294Y-41408D01*
X23280Y-41394D01*
X29333Y-40994D02*
X29191Y-40894D01*
X29333Y-40823D02*
X29033Y-40823D01*
X29033Y-40937D01*
X29048Y-40966D01*
X29062Y-40980D01*
X29091Y-40994D01*
X29133Y-40994D01*
X29162Y-40980D01*
X29176Y-40966D01*
X29191Y-40937D01*
X29191Y-40823D01*
X29333Y-41280D02*
X29333Y-41108D01*
X29333Y-41194D02*
X29033Y-41194D01*
X29076Y-41166D01*
X29105Y-41137D01*
X29119Y-41108D01*
X29033Y-41380D02*
X29033Y-41566D01*
X29148Y-41466D01*
X29148Y-41508D01*
X29162Y-41537D01*
X29176Y-41551D01*
X29205Y-41566D01*
X29276Y-41566D01*
X29305Y-41551D01*
X29319Y-41537D01*
X29333Y-41508D01*
X29333Y-41423D01*
X29319Y-41394D01*
X29305Y-41380D01*
X29308Y-33994D02*
X29166Y-33894D01*
X29308Y-33823D02*
X29008Y-33823D01*
X29008Y-33937D01*
X29023Y-33966D01*
X29037Y-33980D01*
X29066Y-33994D01*
X29108Y-33994D01*
X29137Y-33980D01*
X29151Y-33966D01*
X29166Y-33937D01*
X29166Y-33823D01*
X29308Y-34280D02*
X29308Y-34108D01*
X29308Y-34194D02*
X29008Y-34194D01*
X29051Y-34166D01*
X29080Y-34137D01*
X29094Y-34108D01*
X29137Y-34451D02*
X29123Y-34423D01*
X29108Y-34408D01*
X29080Y-34394D01*
X29066Y-34394D01*
X29037Y-34408D01*
X29023Y-34423D01*
X29008Y-34451D01*
X29008Y-34508D01*
X29023Y-34537D01*
X29037Y-34551D01*
X29066Y-34566D01*
X29080Y-34566D01*
X29108Y-34551D01*
X29123Y-34537D01*
X29137Y-34508D01*
X29137Y-34451D01*
X29151Y-34423D01*
X29166Y-34408D01*
X29194Y-34394D01*
X29251Y-34394D01*
X29280Y-34408D01*
X29294Y-34423D01*
X29308Y-34451D01*
X29308Y-34508D01*
X29294Y-34537D01*
X29280Y-34551D01*
X29251Y-34566D01*
X29194Y-34566D01*
X29166Y-34551D01*
X29151Y-34537D01*
X29137Y-34508D01*
X35333Y-34137D02*
X35191Y-34037D01*
X35333Y-33966D02*
X35033Y-33966D01*
X35033Y-34080D01*
X35048Y-34108D01*
X35062Y-34123D01*
X35091Y-34137D01*
X35133Y-34137D01*
X35162Y-34123D01*
X35176Y-34108D01*
X35191Y-34080D01*
X35191Y-33966D01*
X35033Y-34394D02*
X35033Y-34337D01*
X35048Y-34308D01*
X35062Y-34294D01*
X35105Y-34266D01*
X35162Y-34251D01*
X35276Y-34251D01*
X35305Y-34266D01*
X35319Y-34280D01*
X35333Y-34308D01*
X35333Y-34366D01*
X35319Y-34394D01*
X35305Y-34408D01*
X35276Y-34423D01*
X35205Y-34423D01*
X35176Y-34408D01*
X35162Y-34394D01*
X35148Y-34366D01*
X35148Y-34308D01*
X35162Y-34280D01*
X35176Y-34266D01*
X35205Y-34251D01*
X35333Y-41187D02*
X35191Y-41087D01*
X35333Y-41016D02*
X35033Y-41016D01*
X35033Y-41130D01*
X35048Y-41158D01*
X35062Y-41173D01*
X35091Y-41187D01*
X35133Y-41187D01*
X35162Y-41173D01*
X35176Y-41158D01*
X35191Y-41130D01*
X35191Y-41016D01*
X35333Y-41473D02*
X35333Y-41301D01*
X35333Y-41387D02*
X35033Y-41387D01*
X35076Y-41358D01*
X35105Y-41330D01*
X35119Y-41301D01*
X10683Y-42494D02*
X10541Y-42394D01*
X10683Y-42323D02*
X10383Y-42323D01*
X10383Y-42437D01*
X10398Y-42466D01*
X10412Y-42480D01*
X10441Y-42494D01*
X10483Y-42494D01*
X10512Y-42480D01*
X10526Y-42466D01*
X10541Y-42437D01*
X10541Y-42323D01*
X10383Y-42766D02*
X10383Y-42623D01*
X10526Y-42608D01*
X10512Y-42623D01*
X10498Y-42651D01*
X10498Y-42723D01*
X10512Y-42751D01*
X10526Y-42766D01*
X10555Y-42780D01*
X10626Y-42780D01*
X10655Y-42766D01*
X10669Y-42751D01*
X10683Y-42723D01*
X10683Y-42651D01*
X10669Y-42623D01*
X10655Y-42608D01*
X10683Y-43066D02*
X10683Y-42894D01*
X10683Y-42980D02*
X10383Y-42980D01*
X10426Y-42951D01*
X10455Y-42923D01*
X10469Y-42894D01*
X17333Y-33994D02*
X17191Y-33894D01*
X17333Y-33823D02*
X17033Y-33823D01*
X17033Y-33937D01*
X17048Y-33966D01*
X17062Y-33980D01*
X17091Y-33994D01*
X17133Y-33994D01*
X17162Y-33980D01*
X17176Y-33966D01*
X17191Y-33937D01*
X17191Y-33823D01*
X17133Y-34251D02*
X17333Y-34251D01*
X17019Y-34180D02*
X17233Y-34108D01*
X17233Y-34294D01*
X17062Y-34394D02*
X17048Y-34408D01*
X17033Y-34437D01*
X17033Y-34508D01*
X17048Y-34537D01*
X17062Y-34551D01*
X17091Y-34566D01*
X17119Y-34566D01*
X17162Y-34551D01*
X17333Y-34380D01*
X17333Y-34566D01*
X17333Y-40994D02*
X17191Y-40894D01*
X17333Y-40823D02*
X17033Y-40823D01*
X17033Y-40937D01*
X17048Y-40966D01*
X17062Y-40980D01*
X17091Y-40994D01*
X17133Y-40994D01*
X17162Y-40980D01*
X17176Y-40966D01*
X17191Y-40937D01*
X17191Y-40823D01*
X17033Y-41094D02*
X17033Y-41280D01*
X17148Y-41180D01*
X17148Y-41223D01*
X17162Y-41251D01*
X17176Y-41266D01*
X17205Y-41280D01*
X17276Y-41280D01*
X17305Y-41266D01*
X17319Y-41251D01*
X17333Y-41223D01*
X17333Y-41137D01*
X17319Y-41108D01*
X17305Y-41094D01*
X17033Y-41380D02*
X17033Y-41580D01*
X17333Y-41451D01*
G54D15*
X24674Y-30192D02*
X24998Y-30192D01*
X25036Y-30211D01*
X25055Y-30230D01*
X25074Y-30268D01*
X25074Y-30344D01*
X25055Y-30382D01*
X25036Y-30401D01*
X24998Y-30420D01*
X24674Y-30420D01*
X24674Y-30573D02*
X24674Y-30820D01*
X24826Y-30687D01*
X24826Y-30744D01*
X24845Y-30782D01*
X24864Y-30801D01*
X24902Y-30820D01*
X24998Y-30820D01*
X25036Y-30801D01*
X25055Y-30782D01*
X25074Y-30744D01*
X25074Y-30630D01*
X25055Y-30592D01*
X25036Y-30573D01*
X24674Y-30954D02*
X24674Y-31220D01*
X25074Y-31049D01*
X36674Y-37092D02*
X36998Y-37092D01*
X37036Y-37111D01*
X37055Y-37130D01*
X37074Y-37168D01*
X37074Y-37244D01*
X37055Y-37282D01*
X37036Y-37301D01*
X36998Y-37320D01*
X36674Y-37320D01*
X36712Y-37492D02*
X36693Y-37511D01*
X36674Y-37549D01*
X36674Y-37644D01*
X36693Y-37682D01*
X36712Y-37701D01*
X36750Y-37720D01*
X36788Y-37720D01*
X36845Y-37701D01*
X37074Y-37473D01*
X37074Y-37720D01*
X36845Y-37949D02*
X36826Y-37911D01*
X36807Y-37892D01*
X36769Y-37873D01*
X36750Y-37873D01*
X36712Y-37892D01*
X36693Y-37911D01*
X36674Y-37949D01*
X36674Y-38025D01*
X36693Y-38063D01*
X36712Y-38082D01*
X36750Y-38101D01*
X36769Y-38101D01*
X36807Y-38082D01*
X36826Y-38063D01*
X36845Y-38025D01*
X36845Y-37949D01*
X36864Y-37911D01*
X36883Y-37892D01*
X36922Y-37873D01*
X36998Y-37873D01*
X37036Y-37892D01*
X37055Y-37911D01*
X37074Y-37949D01*
X37074Y-38025D01*
X37055Y-38063D01*
X37036Y-38082D01*
X36998Y-38101D01*
X36922Y-38101D01*
X36883Y-38082D01*
X36864Y-38063D01*
X36845Y-38025D01*
X12674Y-23142D02*
X12998Y-23142D01*
X13036Y-23161D01*
X13055Y-23180D01*
X13074Y-23218D01*
X13074Y-23294D01*
X13055Y-23332D01*
X13036Y-23351D01*
X12998Y-23370D01*
X12674Y-23370D01*
X12807Y-23732D02*
X13074Y-23732D01*
X12655Y-23637D02*
X12941Y-23542D01*
X12941Y-23789D01*
X12674Y-24113D02*
X12674Y-24037D01*
X12693Y-23999D01*
X12712Y-23980D01*
X12769Y-23942D01*
X12845Y-23923D01*
X12998Y-23923D01*
X13036Y-23942D01*
X13055Y-23961D01*
X13074Y-23999D01*
X13074Y-24075D01*
X13055Y-24113D01*
X13036Y-24132D01*
X12998Y-24151D01*
X12902Y-24151D01*
X12864Y-24132D01*
X12845Y-24113D01*
X12826Y-24075D01*
X12826Y-23999D01*
X12845Y-23961D01*
X12864Y-23942D01*
X12902Y-23923D01*
X24674Y-37192D02*
X24998Y-37192D01*
X25036Y-37211D01*
X25055Y-37230D01*
X25074Y-37268D01*
X25074Y-37344D01*
X25055Y-37382D01*
X25036Y-37401D01*
X24998Y-37420D01*
X24674Y-37420D01*
X24674Y-37573D02*
X24674Y-37820D01*
X24826Y-37687D01*
X24826Y-37744D01*
X24845Y-37782D01*
X24864Y-37801D01*
X24902Y-37820D01*
X24998Y-37820D01*
X25036Y-37801D01*
X25055Y-37782D01*
X25074Y-37744D01*
X25074Y-37630D01*
X25055Y-37592D01*
X25036Y-37573D01*
X24674Y-38163D02*
X24674Y-38087D01*
X24693Y-38049D01*
X24712Y-38030D01*
X24769Y-37992D01*
X24845Y-37973D01*
X24998Y-37973D01*
X25036Y-37992D01*
X25055Y-38011D01*
X25074Y-38049D01*
X25074Y-38125D01*
X25055Y-38163D01*
X25036Y-38182D01*
X24998Y-38201D01*
X24902Y-38201D01*
X24864Y-38182D01*
X24845Y-38163D01*
X24826Y-38125D01*
X24826Y-38049D01*
X24845Y-38011D01*
X24864Y-37992D01*
X24902Y-37973D01*
X12674Y-37192D02*
X12998Y-37192D01*
X13036Y-37211D01*
X13055Y-37230D01*
X13074Y-37268D01*
X13074Y-37344D01*
X13055Y-37382D01*
X13036Y-37401D01*
X12998Y-37420D01*
X12674Y-37420D01*
X12807Y-37782D02*
X13074Y-37782D01*
X12655Y-37687D02*
X12941Y-37592D01*
X12941Y-37839D01*
X12807Y-38163D02*
X13074Y-38163D01*
X12655Y-38068D02*
X12941Y-37973D01*
X12941Y-38220D01*
X30674Y-30142D02*
X30998Y-30142D01*
X31036Y-30161D01*
X31055Y-30180D01*
X31074Y-30218D01*
X31074Y-30294D01*
X31055Y-30332D01*
X31036Y-30351D01*
X30998Y-30370D01*
X30674Y-30370D01*
X30674Y-30523D02*
X30674Y-30770D01*
X30826Y-30637D01*
X30826Y-30694D01*
X30845Y-30732D01*
X30864Y-30751D01*
X30902Y-30770D01*
X30998Y-30770D01*
X31036Y-30751D01*
X31055Y-30732D01*
X31074Y-30694D01*
X31074Y-30580D01*
X31055Y-30542D01*
X31036Y-30523D01*
X30674Y-30904D02*
X30674Y-31151D01*
X30826Y-31018D01*
X30826Y-31075D01*
X30845Y-31113D01*
X30864Y-31132D01*
X30902Y-31151D01*
X30998Y-31151D01*
X31036Y-31132D01*
X31055Y-31113D01*
X31074Y-31075D01*
X31074Y-30961D01*
X31055Y-30923D01*
X31036Y-30904D01*
X30674Y-37142D02*
X30998Y-37142D01*
X31036Y-37161D01*
X31055Y-37180D01*
X31074Y-37218D01*
X31074Y-37294D01*
X31055Y-37332D01*
X31036Y-37351D01*
X30998Y-37370D01*
X30674Y-37370D01*
X30674Y-37523D02*
X30674Y-37770D01*
X30826Y-37637D01*
X30826Y-37694D01*
X30845Y-37732D01*
X30864Y-37751D01*
X30902Y-37770D01*
X30998Y-37770D01*
X31036Y-37751D01*
X31055Y-37732D01*
X31074Y-37694D01*
X31074Y-37580D01*
X31055Y-37542D01*
X31036Y-37523D01*
X30712Y-37923D02*
X30693Y-37942D01*
X30674Y-37980D01*
X30674Y-38075D01*
X30693Y-38113D01*
X30712Y-38132D01*
X30750Y-38151D01*
X30788Y-38151D01*
X30845Y-38132D01*
X31074Y-37904D01*
X31074Y-38151D01*
X36674Y-30192D02*
X36998Y-30192D01*
X37036Y-30211D01*
X37055Y-30230D01*
X37074Y-30268D01*
X37074Y-30344D01*
X37055Y-30382D01*
X37036Y-30401D01*
X36998Y-30420D01*
X36674Y-30420D01*
X36712Y-30592D02*
X36693Y-30611D01*
X36674Y-30649D01*
X36674Y-30744D01*
X36693Y-30782D01*
X36712Y-30801D01*
X36750Y-30820D01*
X36788Y-30820D01*
X36845Y-30801D01*
X37074Y-30573D01*
X37074Y-30820D01*
X37074Y-31011D02*
X37074Y-31087D01*
X37055Y-31125D01*
X37036Y-31144D01*
X36979Y-31182D01*
X36902Y-31201D01*
X36750Y-31201D01*
X36712Y-31182D01*
X36693Y-31163D01*
X36674Y-31125D01*
X36674Y-31049D01*
X36693Y-31011D01*
X36712Y-30992D01*
X36750Y-30973D01*
X36845Y-30973D01*
X36883Y-30992D01*
X36902Y-31011D01*
X36922Y-31049D01*
X36922Y-31125D01*
X36902Y-31163D01*
X36883Y-31182D01*
X36845Y-31201D01*
X36674Y-23142D02*
X36998Y-23142D01*
X37036Y-23161D01*
X37055Y-23180D01*
X37074Y-23218D01*
X37074Y-23294D01*
X37055Y-23332D01*
X37036Y-23351D01*
X36998Y-23370D01*
X36674Y-23370D01*
X36674Y-23523D02*
X36674Y-23770D01*
X36826Y-23637D01*
X36826Y-23694D01*
X36845Y-23732D01*
X36864Y-23751D01*
X36902Y-23770D01*
X36998Y-23770D01*
X37036Y-23751D01*
X37055Y-23732D01*
X37074Y-23694D01*
X37074Y-23580D01*
X37055Y-23542D01*
X37036Y-23523D01*
X36674Y-24018D02*
X36674Y-24056D01*
X36693Y-24094D01*
X36712Y-24113D01*
X36750Y-24132D01*
X36826Y-24151D01*
X36922Y-24151D01*
X36998Y-24132D01*
X37036Y-24113D01*
X37055Y-24094D01*
X37074Y-24056D01*
X37074Y-24018D01*
X37055Y-23980D01*
X37036Y-23961D01*
X36998Y-23942D01*
X36922Y-23923D01*
X36826Y-23923D01*
X36750Y-23942D01*
X36712Y-23961D01*
X36693Y-23980D01*
X36674Y-24018D01*
X12674Y-44192D02*
X12998Y-44192D01*
X13036Y-44211D01*
X13055Y-44230D01*
X13074Y-44268D01*
X13074Y-44344D01*
X13055Y-44382D01*
X13036Y-44401D01*
X12998Y-44420D01*
X12674Y-44420D01*
X12807Y-44782D02*
X13074Y-44782D01*
X12655Y-44687D02*
X12941Y-44592D01*
X12941Y-44839D01*
X12674Y-44954D02*
X12674Y-45201D01*
X12826Y-45068D01*
X12826Y-45125D01*
X12845Y-45163D01*
X12864Y-45182D01*
X12902Y-45201D01*
X12998Y-45201D01*
X13036Y-45182D01*
X13055Y-45163D01*
X13074Y-45125D01*
X13074Y-45011D01*
X13055Y-44973D01*
X13036Y-44954D01*
X30674Y-23192D02*
X30998Y-23192D01*
X31036Y-23211D01*
X31055Y-23230D01*
X31074Y-23268D01*
X31074Y-23344D01*
X31055Y-23382D01*
X31036Y-23401D01*
X30998Y-23420D01*
X30674Y-23420D01*
X30674Y-23573D02*
X30674Y-23820D01*
X30826Y-23687D01*
X30826Y-23744D01*
X30845Y-23782D01*
X30864Y-23801D01*
X30902Y-23820D01*
X30998Y-23820D01*
X31036Y-23801D01*
X31055Y-23782D01*
X31074Y-23744D01*
X31074Y-23630D01*
X31055Y-23592D01*
X31036Y-23573D01*
X30807Y-24163D02*
X31074Y-24163D01*
X30655Y-24068D02*
X30941Y-23973D01*
X30941Y-24220D01*
X36674Y-44142D02*
X36998Y-44142D01*
X37036Y-44161D01*
X37055Y-44180D01*
X37074Y-44218D01*
X37074Y-44294D01*
X37055Y-44332D01*
X37036Y-44351D01*
X36998Y-44370D01*
X36674Y-44370D01*
X36712Y-44542D02*
X36693Y-44561D01*
X36674Y-44599D01*
X36674Y-44694D01*
X36693Y-44732D01*
X36712Y-44751D01*
X36750Y-44770D01*
X36788Y-44770D01*
X36845Y-44751D01*
X37074Y-44523D01*
X37074Y-44770D01*
X36674Y-44904D02*
X36674Y-45170D01*
X37074Y-44999D01*
X18674Y-44192D02*
X18998Y-44192D01*
X19036Y-44211D01*
X19055Y-44230D01*
X19074Y-44268D01*
X19074Y-44344D01*
X19055Y-44382D01*
X19036Y-44401D01*
X18998Y-44420D01*
X18674Y-44420D01*
X18674Y-44573D02*
X18674Y-44820D01*
X18826Y-44687D01*
X18826Y-44744D01*
X18845Y-44782D01*
X18864Y-44801D01*
X18902Y-44820D01*
X18998Y-44820D01*
X19036Y-44801D01*
X19055Y-44782D01*
X19074Y-44744D01*
X19074Y-44630D01*
X19055Y-44592D01*
X19036Y-44573D01*
X19074Y-45011D02*
X19074Y-45087D01*
X19055Y-45125D01*
X19036Y-45144D01*
X18979Y-45182D01*
X18902Y-45201D01*
X18750Y-45201D01*
X18712Y-45182D01*
X18693Y-45163D01*
X18674Y-45125D01*
X18674Y-45049D01*
X18693Y-45011D01*
X18712Y-44992D01*
X18750Y-44973D01*
X18845Y-44973D01*
X18883Y-44992D01*
X18902Y-45011D01*
X18922Y-45049D01*
X18922Y-45125D01*
X18902Y-45163D01*
X18883Y-45182D01*
X18845Y-45201D01*
X24674Y-23192D02*
X24998Y-23192D01*
X25036Y-23211D01*
X25055Y-23230D01*
X25074Y-23268D01*
X25074Y-23344D01*
X25055Y-23382D01*
X25036Y-23401D01*
X24998Y-23420D01*
X24674Y-23420D01*
X24674Y-23573D02*
X24674Y-23820D01*
X24826Y-23687D01*
X24826Y-23744D01*
X24845Y-23782D01*
X24864Y-23801D01*
X24902Y-23820D01*
X24998Y-23820D01*
X25036Y-23801D01*
X25055Y-23782D01*
X25074Y-23744D01*
X25074Y-23630D01*
X25055Y-23592D01*
X25036Y-23573D01*
X24845Y-24049D02*
X24826Y-24011D01*
X24807Y-23992D01*
X24769Y-23973D01*
X24750Y-23973D01*
X24712Y-23992D01*
X24693Y-24011D01*
X24674Y-24049D01*
X24674Y-24125D01*
X24693Y-24163D01*
X24712Y-24182D01*
X24750Y-24201D01*
X24769Y-24201D01*
X24807Y-24182D01*
X24826Y-24163D01*
X24845Y-24125D01*
X24845Y-24049D01*
X24864Y-24011D01*
X24883Y-23992D01*
X24922Y-23973D01*
X24998Y-23973D01*
X25036Y-23992D01*
X25055Y-24011D01*
X25074Y-24049D01*
X25074Y-24125D01*
X25055Y-24163D01*
X25036Y-24182D01*
X24998Y-24201D01*
X24922Y-24201D01*
X24883Y-24182D01*
X24864Y-24163D01*
X24845Y-24125D01*
X18674Y-30192D02*
X18998Y-30192D01*
X19036Y-30211D01*
X19055Y-30230D01*
X19074Y-30268D01*
X19074Y-30344D01*
X19055Y-30382D01*
X19036Y-30401D01*
X18998Y-30420D01*
X18674Y-30420D01*
X18807Y-30782D02*
X19074Y-30782D01*
X18655Y-30687D02*
X18941Y-30592D01*
X18941Y-30839D01*
X19074Y-31201D02*
X19074Y-30973D01*
X19074Y-31087D02*
X18674Y-31087D01*
X18731Y-31049D01*
X18769Y-31011D01*
X18788Y-30973D01*
X24674Y-44192D02*
X24998Y-44192D01*
X25036Y-44211D01*
X25055Y-44230D01*
X25074Y-44268D01*
X25074Y-44344D01*
X25055Y-44382D01*
X25036Y-44401D01*
X24998Y-44420D01*
X24674Y-44420D01*
X24674Y-44573D02*
X24674Y-44820D01*
X24826Y-44687D01*
X24826Y-44744D01*
X24845Y-44782D01*
X24864Y-44801D01*
X24902Y-44820D01*
X24998Y-44820D01*
X25036Y-44801D01*
X25055Y-44782D01*
X25074Y-44744D01*
X25074Y-44630D01*
X25055Y-44592D01*
X25036Y-44573D01*
X24674Y-45182D02*
X24674Y-44992D01*
X24864Y-44973D01*
X24845Y-44992D01*
X24826Y-45030D01*
X24826Y-45125D01*
X24845Y-45163D01*
X24864Y-45182D01*
X24902Y-45201D01*
X24998Y-45201D01*
X25036Y-45182D01*
X25055Y-45163D01*
X25074Y-45125D01*
X25074Y-45030D01*
X25055Y-44992D01*
X25036Y-44973D01*
X12674Y-30192D02*
X12998Y-30192D01*
X13036Y-30211D01*
X13055Y-30230D01*
X13074Y-30268D01*
X13074Y-30344D01*
X13055Y-30382D01*
X13036Y-30401D01*
X12998Y-30420D01*
X12674Y-30420D01*
X12807Y-30782D02*
X13074Y-30782D01*
X12655Y-30687D02*
X12941Y-30592D01*
X12941Y-30839D01*
X12674Y-31182D02*
X12674Y-30992D01*
X12864Y-30973D01*
X12845Y-30992D01*
X12826Y-31030D01*
X12826Y-31125D01*
X12845Y-31163D01*
X12864Y-31182D01*
X12902Y-31201D01*
X12998Y-31201D01*
X13036Y-31182D01*
X13055Y-31163D01*
X13074Y-31125D01*
X13074Y-31030D01*
X13055Y-30992D01*
X13036Y-30973D01*
X18674Y-23192D02*
X18998Y-23192D01*
X19036Y-23211D01*
X19055Y-23230D01*
X19074Y-23268D01*
X19074Y-23344D01*
X19055Y-23382D01*
X19036Y-23401D01*
X18998Y-23420D01*
X18674Y-23420D01*
X18807Y-23782D02*
X19074Y-23782D01*
X18655Y-23687D02*
X18941Y-23592D01*
X18941Y-23839D01*
X18712Y-23973D02*
X18693Y-23992D01*
X18674Y-24030D01*
X18674Y-24125D01*
X18693Y-24163D01*
X18712Y-24182D01*
X18750Y-24201D01*
X18788Y-24201D01*
X18845Y-24182D01*
X19074Y-23954D01*
X19074Y-24201D01*
G54D16*
X9070Y-14070D02*
X9087Y-14087D01*
X9137Y-14104D01*
X9170Y-14104D01*
X9220Y-14087D01*
X9254Y-14054D01*
X9270Y-14020D01*
X9287Y-13954D01*
X9287Y-13904D01*
X9270Y-13837D01*
X9254Y-13804D01*
X9220Y-13770D01*
X9170Y-13754D01*
X9137Y-13754D01*
X9087Y-13770D01*
X9070Y-13787D01*
X8937Y-13787D02*
X8920Y-13770D01*
X8887Y-13754D01*
X8804Y-13754D01*
X8770Y-13770D01*
X8754Y-13787D01*
X8737Y-13820D01*
X8737Y-13854D01*
X8754Y-13904D01*
X8954Y-14104D01*
X8737Y-14104D01*
G54D15*
X30674Y-44192D02*
X30998Y-44192D01*
X31036Y-44211D01*
X31055Y-44230D01*
X31074Y-44268D01*
X31074Y-44344D01*
X31055Y-44382D01*
X31036Y-44401D01*
X30998Y-44420D01*
X30674Y-44420D01*
X30674Y-44573D02*
X30674Y-44820D01*
X30826Y-44687D01*
X30826Y-44744D01*
X30845Y-44782D01*
X30864Y-44801D01*
X30902Y-44820D01*
X30998Y-44820D01*
X31036Y-44801D01*
X31055Y-44782D01*
X31074Y-44744D01*
X31074Y-44630D01*
X31055Y-44592D01*
X31036Y-44573D01*
X31074Y-45201D02*
X31074Y-44973D01*
X31074Y-45087D02*
X30674Y-45087D01*
X30731Y-45049D01*
X30769Y-45011D01*
X30788Y-44973D01*
X18674Y-37192D02*
X18998Y-37192D01*
X19036Y-37211D01*
X19055Y-37230D01*
X19074Y-37268D01*
X19074Y-37344D01*
X19055Y-37382D01*
X19036Y-37401D01*
X18998Y-37420D01*
X18674Y-37420D01*
X18807Y-37782D02*
X19074Y-37782D01*
X18655Y-37687D02*
X18941Y-37592D01*
X18941Y-37839D01*
X18674Y-38068D02*
X18674Y-38106D01*
X18693Y-38144D01*
X18712Y-38163D01*
X18750Y-38182D01*
X18826Y-38201D01*
X18922Y-38201D01*
X18998Y-38182D01*
X19036Y-38163D01*
X19055Y-38144D01*
X19074Y-38106D01*
X19074Y-38068D01*
X19055Y-38030D01*
X19036Y-38011D01*
X18998Y-37992D01*
X18922Y-37973D01*
X18826Y-37973D01*
X18750Y-37992D01*
X18712Y-38011D01*
X18693Y-38030D01*
X18674Y-38068D01*
G54D12*
X16905Y-19249D02*
X16905Y-19573D01*
X16883Y-19611D01*
X16862Y-19630D01*
X16819Y-19649D01*
X16733Y-19649D01*
X16691Y-19630D01*
X16669Y-19611D01*
X16648Y-19573D01*
X16648Y-19249D01*
X16241Y-19249D02*
X16326Y-19249D01*
X16369Y-19268D01*
X16391Y-19287D01*
X16433Y-19344D01*
X16455Y-19420D01*
X16455Y-19573D01*
X16433Y-19611D01*
X16412Y-19630D01*
X16369Y-19649D01*
X16283Y-19649D01*
X16241Y-19630D01*
X16219Y-19611D01*
X16198Y-19573D01*
X16198Y-19477D01*
X16219Y-19439D01*
X16241Y-19420D01*
X16283Y-19401D01*
X16369Y-19401D01*
X16412Y-19420D01*
X16433Y-19439D01*
X16455Y-19477D01*
X18223Y-19849D02*
X17923Y-19849D01*
X18116Y-20249D01*
X17558Y-19982D02*
X17558Y-20249D01*
X17666Y-19830D02*
X17773Y-20116D01*
X17494Y-20116D01*
X17323Y-20249D02*
X17323Y-19849D01*
X17323Y-20039D02*
X17066Y-20039D01*
X17066Y-20249D02*
X17066Y-19849D01*
X16594Y-20211D02*
X16616Y-20230D01*
X16680Y-20249D01*
X16723Y-20249D01*
X16787Y-20230D01*
X16830Y-20192D01*
X16851Y-20154D01*
X16873Y-20077D01*
X16873Y-20020D01*
X16851Y-19944D01*
X16830Y-19906D01*
X16787Y-19868D01*
X16723Y-19849D01*
X16680Y-19849D01*
X16616Y-19868D01*
X16594Y-19887D01*
X16187Y-19849D02*
X16401Y-19849D01*
X16423Y-20039D01*
X16401Y-20020D01*
X16358Y-20001D01*
X16251Y-20001D01*
X16208Y-20020D01*
X16187Y-20039D01*
X16166Y-20077D01*
X16166Y-20173D01*
X16187Y-20211D01*
X16208Y-20230D01*
X16251Y-20249D01*
X16358Y-20249D01*
X16401Y-20230D01*
X16423Y-20211D01*
X15951Y-20249D02*
X15866Y-20249D01*
X15823Y-20230D01*
X15801Y-20211D01*
X15758Y-20154D01*
X15737Y-20077D01*
X15737Y-19925D01*
X15758Y-19887D01*
X15780Y-19868D01*
X15823Y-19849D01*
X15908Y-19849D01*
X15951Y-19868D01*
X15973Y-19887D01*
X15994Y-19925D01*
X15994Y-20020D01*
X15973Y-20058D01*
X15951Y-20077D01*
X15908Y-20097D01*
X15823Y-20097D01*
X15780Y-20077D01*
X15758Y-20058D01*
X15737Y-20020D01*
X15330Y-19849D02*
X15544Y-19849D01*
X15566Y-20039D01*
X15544Y-20020D01*
X15501Y-20001D01*
X15394Y-20001D01*
X15351Y-20020D01*
X15330Y-20039D01*
X15308Y-20077D01*
X15308Y-20173D01*
X15330Y-20211D01*
X15351Y-20230D01*
X15394Y-20249D01*
X15501Y-20249D01*
X15544Y-20230D01*
X15566Y-20211D01*
X15137Y-20135D02*
X14923Y-20135D01*
X15180Y-20249D02*
X15030Y-19849D01*
X14880Y-20249D01*
X23119Y-19249D02*
X23119Y-19573D01*
X23098Y-19611D01*
X23076Y-19630D01*
X23033Y-19649D01*
X22948Y-19649D01*
X22905Y-19630D01*
X22883Y-19611D01*
X22862Y-19573D01*
X22862Y-19249D01*
X22412Y-19649D02*
X22669Y-19649D01*
X22541Y-19649D02*
X22541Y-19249D01*
X22583Y-19306D01*
X22626Y-19344D01*
X22669Y-19363D01*
X22262Y-19249D02*
X21962Y-19249D01*
X22155Y-19649D01*
X24223Y-19849D02*
X23923Y-19849D01*
X24116Y-20249D01*
X23558Y-19982D02*
X23558Y-20249D01*
X23666Y-19830D02*
X23773Y-20116D01*
X23494Y-20116D01*
X23323Y-20249D02*
X23323Y-19849D01*
X23323Y-20039D02*
X23066Y-20039D01*
X23066Y-20249D02*
X23066Y-19849D01*
X22594Y-20211D02*
X22616Y-20230D01*
X22680Y-20249D01*
X22723Y-20249D01*
X22787Y-20230D01*
X22830Y-20192D01*
X22851Y-20154D01*
X22873Y-20077D01*
X22873Y-20020D01*
X22851Y-19944D01*
X22830Y-19906D01*
X22787Y-19868D01*
X22723Y-19849D01*
X22680Y-19849D01*
X22616Y-19868D01*
X22594Y-19887D01*
X22187Y-19849D02*
X22401Y-19849D01*
X22423Y-20039D01*
X22401Y-20020D01*
X22358Y-20001D01*
X22251Y-20001D01*
X22208Y-20020D01*
X22187Y-20039D01*
X22166Y-20077D01*
X22166Y-20173D01*
X22187Y-20211D01*
X22208Y-20230D01*
X22251Y-20249D01*
X22358Y-20249D01*
X22401Y-20230D01*
X22423Y-20211D01*
X21951Y-20249D02*
X21866Y-20249D01*
X21823Y-20230D01*
X21801Y-20211D01*
X21758Y-20154D01*
X21737Y-20077D01*
X21737Y-19925D01*
X21758Y-19887D01*
X21780Y-19868D01*
X21823Y-19849D01*
X21908Y-19849D01*
X21951Y-19868D01*
X21973Y-19887D01*
X21994Y-19925D01*
X21994Y-20020D01*
X21973Y-20058D01*
X21951Y-20077D01*
X21908Y-20097D01*
X21823Y-20097D01*
X21780Y-20077D01*
X21758Y-20058D01*
X21737Y-20020D01*
X21330Y-19849D02*
X21544Y-19849D01*
X21566Y-20039D01*
X21544Y-20020D01*
X21501Y-20001D01*
X21394Y-20001D01*
X21351Y-20020D01*
X21330Y-20039D01*
X21308Y-20077D01*
X21308Y-20173D01*
X21330Y-20211D01*
X21351Y-20230D01*
X21394Y-20249D01*
X21501Y-20249D01*
X21544Y-20230D01*
X21566Y-20211D01*
X21137Y-20135D02*
X20923Y-20135D01*
X21180Y-20249D02*
X21030Y-19849D01*
X20880Y-20249D01*
X29119Y-19249D02*
X29119Y-19573D01*
X29098Y-19611D01*
X29076Y-19630D01*
X29033Y-19649D01*
X28948Y-19649D01*
X28905Y-19630D01*
X28883Y-19611D01*
X28862Y-19573D01*
X28862Y-19249D01*
X28412Y-19649D02*
X28669Y-19649D01*
X28541Y-19649D02*
X28541Y-19249D01*
X28583Y-19306D01*
X28626Y-19344D01*
X28669Y-19363D01*
X27983Y-19649D02*
X28241Y-19649D01*
X28112Y-19649D02*
X28112Y-19249D01*
X28155Y-19306D01*
X28198Y-19344D01*
X28241Y-19363D01*
X30223Y-19849D02*
X29923Y-19849D01*
X30116Y-20249D01*
X29558Y-19982D02*
X29558Y-20249D01*
X29666Y-19830D02*
X29773Y-20116D01*
X29494Y-20116D01*
X29323Y-20249D02*
X29323Y-19849D01*
X29323Y-20039D02*
X29066Y-20039D01*
X29066Y-20249D02*
X29066Y-19849D01*
X28594Y-20211D02*
X28616Y-20230D01*
X28680Y-20249D01*
X28723Y-20249D01*
X28787Y-20230D01*
X28830Y-20192D01*
X28851Y-20154D01*
X28873Y-20077D01*
X28873Y-20020D01*
X28851Y-19944D01*
X28830Y-19906D01*
X28787Y-19868D01*
X28723Y-19849D01*
X28680Y-19849D01*
X28616Y-19868D01*
X28594Y-19887D01*
X28187Y-19849D02*
X28401Y-19849D01*
X28423Y-20039D01*
X28401Y-20020D01*
X28358Y-20001D01*
X28251Y-20001D01*
X28208Y-20020D01*
X28187Y-20039D01*
X28166Y-20077D01*
X28166Y-20173D01*
X28187Y-20211D01*
X28208Y-20230D01*
X28251Y-20249D01*
X28358Y-20249D01*
X28401Y-20230D01*
X28423Y-20211D01*
X27951Y-20249D02*
X27866Y-20249D01*
X27823Y-20230D01*
X27801Y-20211D01*
X27758Y-20154D01*
X27737Y-20077D01*
X27737Y-19925D01*
X27758Y-19887D01*
X27780Y-19868D01*
X27823Y-19849D01*
X27908Y-19849D01*
X27951Y-19868D01*
X27973Y-19887D01*
X27994Y-19925D01*
X27994Y-20020D01*
X27973Y-20058D01*
X27951Y-20077D01*
X27908Y-20097D01*
X27823Y-20097D01*
X27780Y-20077D01*
X27758Y-20058D01*
X27737Y-20020D01*
X27330Y-19849D02*
X27544Y-19849D01*
X27566Y-20039D01*
X27544Y-20020D01*
X27501Y-20001D01*
X27394Y-20001D01*
X27351Y-20020D01*
X27330Y-20039D01*
X27308Y-20077D01*
X27308Y-20173D01*
X27330Y-20211D01*
X27351Y-20230D01*
X27394Y-20249D01*
X27501Y-20249D01*
X27544Y-20230D01*
X27566Y-20211D01*
X27137Y-20135D02*
X26923Y-20135D01*
X27180Y-20249D02*
X27030Y-19849D01*
X26880Y-20249D01*
X34905Y-19199D02*
X34905Y-19523D01*
X34883Y-19561D01*
X34862Y-19580D01*
X34819Y-19599D01*
X34733Y-19599D01*
X34691Y-19580D01*
X34669Y-19561D01*
X34648Y-19523D01*
X34648Y-19199D01*
X34198Y-19599D02*
X34455Y-19599D01*
X34326Y-19599D02*
X34326Y-19199D01*
X34369Y-19256D01*
X34412Y-19294D01*
X34455Y-19313D01*
X36223Y-19799D02*
X35923Y-19799D01*
X36116Y-20199D01*
X35558Y-19932D02*
X35558Y-20199D01*
X35666Y-19780D02*
X35773Y-20066D01*
X35494Y-20066D01*
X35323Y-20199D02*
X35323Y-19799D01*
X35323Y-19989D02*
X35066Y-19989D01*
X35066Y-20199D02*
X35066Y-19799D01*
X34594Y-20161D02*
X34616Y-20180D01*
X34680Y-20199D01*
X34723Y-20199D01*
X34787Y-20180D01*
X34830Y-20142D01*
X34851Y-20104D01*
X34873Y-20027D01*
X34873Y-19970D01*
X34851Y-19894D01*
X34830Y-19856D01*
X34787Y-19818D01*
X34723Y-19799D01*
X34680Y-19799D01*
X34616Y-19818D01*
X34594Y-19837D01*
X34187Y-19799D02*
X34401Y-19799D01*
X34423Y-19989D01*
X34401Y-19970D01*
X34358Y-19951D01*
X34251Y-19951D01*
X34208Y-19970D01*
X34187Y-19989D01*
X34166Y-20027D01*
X34166Y-20123D01*
X34187Y-20161D01*
X34208Y-20180D01*
X34251Y-20199D01*
X34358Y-20199D01*
X34401Y-20180D01*
X34423Y-20161D01*
X33951Y-20199D02*
X33866Y-20199D01*
X33823Y-20180D01*
X33801Y-20161D01*
X33758Y-20104D01*
X33737Y-20027D01*
X33737Y-19875D01*
X33758Y-19837D01*
X33780Y-19818D01*
X33823Y-19799D01*
X33908Y-19799D01*
X33951Y-19818D01*
X33973Y-19837D01*
X33994Y-19875D01*
X33994Y-19970D01*
X33973Y-20008D01*
X33951Y-20027D01*
X33908Y-20047D01*
X33823Y-20047D01*
X33780Y-20027D01*
X33758Y-20008D01*
X33737Y-19970D01*
X33330Y-19799D02*
X33544Y-19799D01*
X33566Y-19989D01*
X33544Y-19970D01*
X33501Y-19951D01*
X33394Y-19951D01*
X33351Y-19970D01*
X33330Y-19989D01*
X33308Y-20027D01*
X33308Y-20123D01*
X33330Y-20161D01*
X33351Y-20180D01*
X33394Y-20199D01*
X33501Y-20199D01*
X33544Y-20180D01*
X33566Y-20161D01*
X33137Y-20085D02*
X32923Y-20085D01*
X33180Y-20199D02*
X33030Y-19799D01*
X32880Y-20199D01*
X11119Y-19249D02*
X11119Y-19573D01*
X11098Y-19611D01*
X11076Y-19630D01*
X11033Y-19649D01*
X10948Y-19649D01*
X10905Y-19630D01*
X10883Y-19611D01*
X10862Y-19573D01*
X10862Y-19249D01*
X10412Y-19649D02*
X10669Y-19649D01*
X10541Y-19649D02*
X10541Y-19249D01*
X10583Y-19306D01*
X10626Y-19344D01*
X10669Y-19363D01*
X10026Y-19249D02*
X10112Y-19249D01*
X10155Y-19268D01*
X10176Y-19287D01*
X10219Y-19344D01*
X10241Y-19420D01*
X10241Y-19573D01*
X10219Y-19611D01*
X10198Y-19630D01*
X10155Y-19649D01*
X10069Y-19649D01*
X10026Y-19630D01*
X10005Y-19611D01*
X9983Y-19573D01*
X9983Y-19477D01*
X10005Y-19439D01*
X10026Y-19420D01*
X10069Y-19401D01*
X10155Y-19401D01*
X10198Y-19420D01*
X10219Y-19439D01*
X10241Y-19477D01*
X12223Y-19849D02*
X11923Y-19849D01*
X12116Y-20249D01*
X11558Y-19982D02*
X11558Y-20249D01*
X11666Y-19830D02*
X11773Y-20116D01*
X11494Y-20116D01*
X11323Y-20249D02*
X11323Y-19849D01*
X11323Y-20039D02*
X11066Y-20039D01*
X11066Y-20249D02*
X11066Y-19849D01*
X10594Y-20211D02*
X10616Y-20230D01*
X10680Y-20249D01*
X10723Y-20249D01*
X10787Y-20230D01*
X10830Y-20192D01*
X10851Y-20154D01*
X10873Y-20077D01*
X10873Y-20020D01*
X10851Y-19944D01*
X10830Y-19906D01*
X10787Y-19868D01*
X10723Y-19849D01*
X10680Y-19849D01*
X10616Y-19868D01*
X10594Y-19887D01*
X10187Y-19849D02*
X10401Y-19849D01*
X10423Y-20039D01*
X10401Y-20020D01*
X10358Y-20001D01*
X10251Y-20001D01*
X10208Y-20020D01*
X10187Y-20039D01*
X10166Y-20077D01*
X10166Y-20173D01*
X10187Y-20211D01*
X10208Y-20230D01*
X10251Y-20249D01*
X10358Y-20249D01*
X10401Y-20230D01*
X10423Y-20211D01*
X9951Y-20249D02*
X9866Y-20249D01*
X9823Y-20230D01*
X9801Y-20211D01*
X9758Y-20154D01*
X9737Y-20077D01*
X9737Y-19925D01*
X9758Y-19887D01*
X9780Y-19868D01*
X9823Y-19849D01*
X9908Y-19849D01*
X9951Y-19868D01*
X9973Y-19887D01*
X9994Y-19925D01*
X9994Y-20020D01*
X9973Y-20058D01*
X9951Y-20077D01*
X9908Y-20097D01*
X9823Y-20097D01*
X9780Y-20077D01*
X9758Y-20058D01*
X9737Y-20020D01*
X9330Y-19849D02*
X9544Y-19849D01*
X9566Y-20039D01*
X9544Y-20020D01*
X9501Y-20001D01*
X9394Y-20001D01*
X9351Y-20020D01*
X9330Y-20039D01*
X9308Y-20077D01*
X9308Y-20173D01*
X9330Y-20211D01*
X9351Y-20230D01*
X9394Y-20249D01*
X9501Y-20249D01*
X9544Y-20230D01*
X9566Y-20211D01*
X9137Y-20135D02*
X8923Y-20135D01*
X9180Y-20249D02*
X9030Y-19849D01*
X8880Y-20249D01*
G54D17*
X20974Y-15371D02*
X20983Y-15363D01*
X20993Y-15337D01*
X20993Y-15320D01*
X20983Y-15294D01*
X20964Y-15277D01*
X20945Y-15268D01*
X20907Y-15260D01*
X20879Y-15260D01*
X20841Y-15268D01*
X20822Y-15277D01*
X20802Y-15294D01*
X20793Y-15320D01*
X20793Y-15337D01*
X20802Y-15363D01*
X20812Y-15371D01*
X20993Y-15543D02*
X20993Y-15440D01*
X20993Y-15491D02*
X20793Y-15491D01*
X20822Y-15474D01*
X20841Y-15457D01*
X20850Y-15440D01*
X20793Y-15603D02*
X20793Y-15714D01*
X20869Y-15654D01*
X20869Y-15680D01*
X20879Y-15697D01*
X20888Y-15706D01*
X20907Y-15714D01*
X20955Y-15714D01*
X20974Y-15706D01*
X20983Y-15697D01*
X20993Y-15680D01*
X20993Y-15628D01*
X20983Y-15611D01*
X20974Y-15603D01*
M02*
