G04 #@! TF.FileFunction,Soldermask,Top*
%FSLAX46Y46*%
G04 Gerber Fmt 4.6, Leading zero omitted, Abs format (unit mm)*
G04 Created by KiCad (PCBNEW 4.0.1-stable) date 2016-12-19 1:22:00 AM*
%MOMM*%
G01*
G04 APERTURE LIST*
%ADD10C,0.150000*%
%ADD11R,1.008000X3.308000*%
%ADD12C,4.572000*%
%ADD13R,4.257040X3.058160*%
%ADD14R,2.032000X2.540000*%
%ADD15R,2.235200X2.540000*%
%ADD16O,2.235200X2.540000*%
%ADD17R,2.235200X2.235200*%
%ADD18O,2.235200X2.235200*%
%ADD19R,1.758000X1.508000*%
%ADD20R,1.706880X1.706880*%
%ADD21R,1.058000X2.108000*%
%ADD22R,2.108000X1.058000*%
%ADD23R,1.808000X1.208000*%
%ADD24R,1.208000X1.808000*%
%ADD25R,0.908000X1.808000*%
%ADD26R,1.016000X1.651000*%
G04 APERTURE END LIST*
D10*
D11*
X95500000Y-23400000D03*
X96300000Y-23400000D03*
X94700000Y-23400000D03*
X93900000Y-23400000D03*
X90700000Y-23400000D03*
X91500000Y-23400000D03*
X93100000Y-23400000D03*
X92300000Y-23400000D03*
X97100000Y-23400000D03*
X84300000Y-23400000D03*
X85100000Y-23400000D03*
X86700000Y-23400000D03*
X85900000Y-23400000D03*
X76300000Y-23400000D03*
X77100000Y-23400000D03*
X75500000Y-23400000D03*
X74700000Y-23400000D03*
X77900000Y-23400000D03*
X78700000Y-23400000D03*
X83500000Y-23400000D03*
X82700000Y-23400000D03*
X87500000Y-23400000D03*
X88300000Y-23400000D03*
X89900000Y-23400000D03*
X89100000Y-23400000D03*
D12*
X104000000Y-31000000D03*
X28000000Y-31000000D03*
X28000000Y-113000000D03*
X104000000Y-113000000D03*
D13*
X93600000Y-107599980D03*
X93600000Y-113000020D03*
D14*
X32751250Y-47528750D03*
X35291250Y-47528750D03*
X37831250Y-47528750D03*
X40371250Y-47528750D03*
X40371250Y-39908750D03*
X37831250Y-39908750D03*
X35291250Y-39908750D03*
X32751250Y-39908750D03*
X32751250Y-61908750D03*
X35291250Y-61908750D03*
X37831250Y-61908750D03*
X40371250Y-61908750D03*
X40371250Y-54288750D03*
X37831250Y-54288750D03*
X35291250Y-54288750D03*
X32751250Y-54288750D03*
X32751250Y-76488750D03*
X35291250Y-76488750D03*
X37831250Y-76488750D03*
X40371250Y-76488750D03*
X40371250Y-68868750D03*
X37831250Y-68868750D03*
X35291250Y-68868750D03*
X32751250Y-68868750D03*
X32751250Y-90968750D03*
X35291250Y-90968750D03*
X37831250Y-90968750D03*
X40371250Y-90968750D03*
X40371250Y-83348750D03*
X37831250Y-83348750D03*
X35291250Y-83348750D03*
X32751250Y-83348750D03*
X47991250Y-47528750D03*
X50531250Y-47528750D03*
X53071250Y-47528750D03*
X55611250Y-47528750D03*
X55611250Y-39908750D03*
X53071250Y-39908750D03*
X50531250Y-39908750D03*
X47991250Y-39908750D03*
X47991250Y-61908750D03*
X50531250Y-61908750D03*
X53071250Y-61908750D03*
X55611250Y-61908750D03*
X55611250Y-54288750D03*
X53071250Y-54288750D03*
X50531250Y-54288750D03*
X47991250Y-54288750D03*
X47991250Y-76488750D03*
X50531250Y-76488750D03*
X53071250Y-76488750D03*
X55611250Y-76488750D03*
X55611250Y-68868750D03*
X53071250Y-68868750D03*
X50531250Y-68868750D03*
X47991250Y-68868750D03*
X47991250Y-90968750D03*
X50531250Y-90968750D03*
X53071250Y-90968750D03*
X55611250Y-90968750D03*
X55611250Y-83348750D03*
X53071250Y-83348750D03*
X50531250Y-83348750D03*
X47991250Y-83348750D03*
X63231250Y-47528750D03*
X65771250Y-47528750D03*
X68311250Y-47528750D03*
X70851250Y-47528750D03*
X70851250Y-39908750D03*
X68311250Y-39908750D03*
X65771250Y-39908750D03*
X63231250Y-39908750D03*
X63231250Y-61908750D03*
X65771250Y-61908750D03*
X68311250Y-61908750D03*
X70851250Y-61908750D03*
X70851250Y-54288750D03*
X68311250Y-54288750D03*
X65771250Y-54288750D03*
X63231250Y-54288750D03*
X63231250Y-76488750D03*
X65771250Y-76488750D03*
X68311250Y-76488750D03*
X70851250Y-76488750D03*
X70851250Y-68868750D03*
X68311250Y-68868750D03*
X65771250Y-68868750D03*
X63231250Y-68868750D03*
X63231250Y-90968750D03*
X65771250Y-90968750D03*
X68311250Y-90968750D03*
X70851250Y-90968750D03*
X70851250Y-83348750D03*
X68311250Y-83348750D03*
X65771250Y-83348750D03*
X63231250Y-83348750D03*
X78471250Y-47528750D03*
X81011250Y-47528750D03*
X83551250Y-47528750D03*
X86091250Y-47528750D03*
X86091250Y-39908750D03*
X83551250Y-39908750D03*
X81011250Y-39908750D03*
X78471250Y-39908750D03*
X78471250Y-61908750D03*
X81011250Y-61908750D03*
X83551250Y-61908750D03*
X86091250Y-61908750D03*
X86091250Y-54288750D03*
X83551250Y-54288750D03*
X81011250Y-54288750D03*
X78471250Y-54288750D03*
X78471250Y-76488750D03*
X81011250Y-76488750D03*
X83551250Y-76488750D03*
X86091250Y-76488750D03*
X86091250Y-68868750D03*
X83551250Y-68868750D03*
X81011250Y-68868750D03*
X78471250Y-68868750D03*
X78471250Y-90968750D03*
X81011250Y-90968750D03*
X83551250Y-90968750D03*
X86091250Y-90968750D03*
X86091250Y-83348750D03*
X83551250Y-83348750D03*
X81011250Y-83348750D03*
X78471250Y-83348750D03*
X93711250Y-47528750D03*
X96251250Y-47528750D03*
X98791250Y-47528750D03*
X101331250Y-47528750D03*
X101331250Y-39908750D03*
X98791250Y-39908750D03*
X96251250Y-39908750D03*
X93711250Y-39908750D03*
X93711250Y-61908750D03*
X96251250Y-61908750D03*
X98791250Y-61908750D03*
X101331250Y-61908750D03*
X101331250Y-54288750D03*
X98791250Y-54288750D03*
X96251250Y-54288750D03*
X93711250Y-54288750D03*
X93711250Y-76488750D03*
X96251250Y-76488750D03*
X98791250Y-76488750D03*
X101331250Y-76488750D03*
X101331250Y-68868750D03*
X98791250Y-68868750D03*
X96251250Y-68868750D03*
X93711250Y-68868750D03*
X93711250Y-90968750D03*
X96251250Y-90968750D03*
X98791250Y-90968750D03*
X101331250Y-90968750D03*
X101331250Y-83348750D03*
X98791250Y-83348750D03*
X96251250Y-83348750D03*
X93711250Y-83348750D03*
D15*
X87700000Y-112500000D03*
D16*
X85160000Y-112500000D03*
X82620000Y-112500000D03*
X80080000Y-112500000D03*
X77540000Y-112500000D03*
X75000000Y-112500000D03*
D17*
X33000000Y-109100000D03*
D18*
X33000000Y-106560000D03*
X35540000Y-109100000D03*
X35540000Y-106560000D03*
X38080000Y-109100000D03*
X38080000Y-106560000D03*
D19*
X73400000Y-108300000D03*
X73400000Y-106300000D03*
X90400000Y-106800000D03*
X90400000Y-108800000D03*
X88500000Y-106800000D03*
X88500000Y-108800000D03*
D20*
X97000000Y-106650980D03*
X97000000Y-108749020D03*
D21*
X53400000Y-106150000D03*
X52600000Y-106150000D03*
X51800000Y-106150000D03*
X51000000Y-106150000D03*
X50200000Y-106150000D03*
X49400000Y-106150000D03*
X48600000Y-106150000D03*
X47800000Y-106150000D03*
D22*
X46350000Y-107600000D03*
X46350000Y-108400000D03*
X46350000Y-109200000D03*
X46350000Y-110000000D03*
X46350000Y-110800000D03*
X46350000Y-111600000D03*
X46350000Y-112400000D03*
X46350000Y-113200000D03*
D21*
X47800000Y-114650000D03*
X48600000Y-114650000D03*
X49400000Y-114650000D03*
X50200000Y-114650000D03*
X51000000Y-114650000D03*
X51800000Y-114650000D03*
X52600000Y-114650000D03*
X53400000Y-114650000D03*
D22*
X54850000Y-113200000D03*
X54850000Y-112400000D03*
X54850000Y-111600000D03*
X54850000Y-110800000D03*
X54850000Y-110000000D03*
X54850000Y-109200000D03*
X54850000Y-108400000D03*
X54850000Y-107600000D03*
D23*
X32751250Y-95098750D03*
X32751250Y-96998750D03*
X32751250Y-78918750D03*
X32751250Y-80818750D03*
X32751250Y-64438750D03*
X32751250Y-66338750D03*
X32651250Y-49931750D03*
X32651250Y-51831750D03*
X36561250Y-96998750D03*
X36561250Y-95098750D03*
X40371250Y-96998750D03*
X40371250Y-95098750D03*
X40371250Y-80818750D03*
X40371250Y-78918750D03*
X40371250Y-66338750D03*
X40371250Y-64438750D03*
X40371250Y-51831750D03*
X40371250Y-49931750D03*
X36461250Y-51831750D03*
X36461250Y-49931750D03*
X47991250Y-95098750D03*
X47991250Y-96998750D03*
X47991250Y-78918750D03*
X47991250Y-80818750D03*
X47991250Y-64438750D03*
X47991250Y-66338750D03*
X47991250Y-49958750D03*
X47991250Y-51858750D03*
X51801250Y-96998750D03*
X51801250Y-95098750D03*
X55611250Y-96998750D03*
X55611250Y-95098750D03*
X55611250Y-80818750D03*
X55611250Y-78918750D03*
X55611250Y-66338750D03*
X55611250Y-64438750D03*
X55611250Y-51858750D03*
X55611250Y-49958750D03*
X51801250Y-51858750D03*
X51801250Y-49958750D03*
X63231250Y-95098750D03*
X63231250Y-96998750D03*
X63231250Y-78918750D03*
X63231250Y-80818750D03*
X63231250Y-64438750D03*
X63231250Y-66338750D03*
X63231250Y-49958750D03*
X63231250Y-51858750D03*
X67041250Y-96998750D03*
X67041250Y-95098750D03*
X70851250Y-96998750D03*
X70851250Y-95098750D03*
X70851250Y-80818750D03*
X70851250Y-78918750D03*
X70851250Y-66338750D03*
X70851250Y-64438750D03*
X70851250Y-51858750D03*
X70851250Y-49958750D03*
X67041250Y-51858750D03*
X67041250Y-49958750D03*
X78471250Y-95098750D03*
X78471250Y-96998750D03*
X78471250Y-78918750D03*
X78471250Y-80818750D03*
X78471250Y-64438750D03*
X78471250Y-66338750D03*
X78471250Y-49958750D03*
X78471250Y-51858750D03*
D24*
X75350000Y-106100000D03*
X77250000Y-106100000D03*
D23*
X82281250Y-96998750D03*
X82281250Y-95098750D03*
X86091250Y-96998750D03*
X86091250Y-95098750D03*
X86091250Y-80818750D03*
X86091250Y-78918750D03*
X86091250Y-66338750D03*
X86091250Y-64438750D03*
X86091250Y-51858750D03*
X86091250Y-49958750D03*
X82281250Y-51858750D03*
X82281250Y-49958750D03*
X93711250Y-95098750D03*
X93711250Y-96998750D03*
X93711250Y-78918750D03*
X93711250Y-80818750D03*
X93711250Y-64438750D03*
X93711250Y-66338750D03*
X93711250Y-49958750D03*
X93711250Y-51858750D03*
X97521250Y-96998750D03*
X97521250Y-95098750D03*
X101331250Y-96998750D03*
X101331250Y-95098750D03*
X101331250Y-80818750D03*
X101331250Y-78918750D03*
X101331250Y-66338750D03*
X101331250Y-64438750D03*
X101331250Y-51858750D03*
X101331250Y-49958750D03*
X97521250Y-51858750D03*
X97521250Y-49958750D03*
X36561250Y-80818750D03*
X36561250Y-78918750D03*
X36561250Y-66338750D03*
X36561250Y-64438750D03*
X51801250Y-80818750D03*
X51801250Y-78918750D03*
X51800000Y-66350000D03*
X51800000Y-64450000D03*
X67041250Y-80818750D03*
X67041250Y-78918750D03*
X67041250Y-66338750D03*
X67041250Y-64438750D03*
X82281250Y-80818750D03*
X82281250Y-78918750D03*
X82281250Y-66338750D03*
X82281250Y-64438750D03*
X97521250Y-80818750D03*
X97521250Y-78918750D03*
X97521250Y-66338750D03*
X97521250Y-64438750D03*
D17*
X82500000Y-106900000D03*
D18*
X85040000Y-106900000D03*
D25*
X49000000Y-104400000D03*
X46600000Y-104400000D03*
X47800000Y-104400000D03*
D19*
X60300000Y-108150000D03*
X60300000Y-110150000D03*
D26*
X62195000Y-106675000D03*
X63465000Y-106675000D03*
X64735000Y-106675000D03*
X66005000Y-106675000D03*
X66005000Y-113025000D03*
X64735000Y-113025000D03*
X63465000Y-113025000D03*
X62195000Y-113025000D03*
M02*
