M48
;DRILL file {KiCad 4.0.1-stable} date 2016-12-19 1:22:03 AM
;FORMAT={2:4/ absolute / inch / suppress leading zeros}
FMAT,2
INCH,TZ
T1C0.015
T2C0.040
T3C0.120
%
G90
G05
M72
T1
X10268Y-14354
X10276Y-20118
X10276Y-25669
X10276Y-31378
X10507Y-38914
X10547Y-14713
X10551Y-20394
X10551Y-26142
X10551Y-31811
X10630Y-38465
X10787Y-42028
X10827Y-17087
X10827Y-22677
X10827Y-28346
X10827Y-33937
X11142Y-17520
X11142Y-22953
X11142Y-28701
X11142Y-34331
X11299Y-37244
X12244Y-38189
X12323Y-27362
X12323Y-37244
X12362Y-28346
X12402Y-15157
X12402Y-20827
X12644Y-26489
X12644Y-32189
X12874Y-22008
X12894Y-17087
X12894Y-22638
X12894Y-33937
X13583Y-20406
X13602Y-14713
X13622Y-26118
X13661Y-31818
X13744Y-38464
X14252Y-40610
X14364Y-23794
X14370Y-15118
X14370Y-16260
X14370Y-17795
X14370Y-18189
X14370Y-19252
X14370Y-20866
X14370Y-23346
X14370Y-25000
X14370Y-34724
X14384Y-21874
X14384Y-33314
X14390Y-27618
X14390Y-29094
X14394Y-26494
X14394Y-32194
X14394Y-36614
X14404Y-35294
X14409Y-29567
X14409Y-30709
X14508Y-37807
X15000Y-45472
X15144Y-38464
X15157Y-19646
X15157Y-31063
X15197Y-25394
X15294Y-40864
X15354Y-14350
X15569Y-40614
X15591Y-44567
X15591Y-45728
X15894Y-34331
X15906Y-16339
X15906Y-17402
X15906Y-22008
X15906Y-22953
X15906Y-27756
X15906Y-28701
X15906Y-33425
X16181Y-23307
X16181Y-34724
X16204Y-23714
X16204Y-35114
X16516Y-29035
X16519Y-37214
X16654Y-17835
X16693Y-43583
X16719Y-39389
X16732Y-29409
X16772Y-18150
X17323Y-40315
X17569Y-40014
X17598Y-43307
X17862Y-37654
X17994Y-38214
X18269Y-37214
X18346Y-27205
X18346Y-28346
X18386Y-32874
X18386Y-33937
X18465Y-15118
X18465Y-20787
X18622Y-22008
X18622Y-22638
X18644Y-26464
X18644Y-32189
X18819Y-41063
X18894Y-17087
X19134Y-44528
X19390Y-16634
X19409Y-14350
X19644Y-38464
X19646Y-26122
X19646Y-31818
X19685Y-20417
X19713Y-14713
X19764Y-41063
X19764Y-42441
X19890Y-37594
X20071Y-44539
X20079Y-43988
X20152Y-39937
X20315Y-40709
X20384Y-32174
X20384Y-33354
X20394Y-16260
X20394Y-17717
X20394Y-18110
X20394Y-19291
X20394Y-21890
X20394Y-23386
X20394Y-23819
X20394Y-25000
X20394Y-27638
X20394Y-29134
X20394Y-29567
X20394Y-30709
X20394Y-34921
X20394Y-36811
X20394Y-43268
X20394Y-15118
X20394Y-20774
X20404Y-26474
X20404Y-35254
X20630Y-12618
X20644Y-40453
X20890Y-37591
X20984Y-42382
X20984Y-44272
X21024Y-12933
X21142Y-19646
X21142Y-31063
X21144Y-40189
X21181Y-25354
X21194Y-38464
X21303Y-14350
X21457Y-44980
X21535Y-13248
X21644Y-39689
X21890Y-16339
X21890Y-22008
X21890Y-27756
X21890Y-33465
X21890Y-34331
X21894Y-17402
X21894Y-22953
X21894Y-28701
X22008Y-13563
X22144Y-40714
X22205Y-17717
X22244Y-23425
X22244Y-34961
X22283Y-18071
X22283Y-23780
X22283Y-42677
X22323Y-45335
X22402Y-29173
X22480Y-29567
X22559Y-40984
X22594Y-37214
X22598Y-13366
X22598Y-43976
X22638Y-35079
X22835Y-43622
X22874Y-41299
X23110Y-13602
X23780Y-41870
X23780Y-44508
X23965Y-37854
X23984Y-37488
X24016Y-13445
X24213Y-32953
X24213Y-33937
X24244Y-37214
X24252Y-27126
X24252Y-28346
X24331Y-14075
X24370Y-20827
X24370Y-26575
X24488Y-15118
X24644Y-32174
X24646Y-22008
X24646Y-22638
X24894Y-17087
X25000Y-42579
X25000Y-43878
X25000Y-45492
X25366Y-40189
X25480Y-42504
X25630Y-20417
X25630Y-31818
X25644Y-40689
X25669Y-26118
X25719Y-38464
X25744Y-14740
X25913Y-37630
X25984Y-42500
X25984Y-45650
X26147Y-39942
X26364Y-33374
X26378Y-16220
X26378Y-17756
X26378Y-18150
X26378Y-19291
X26378Y-20866
X26378Y-21890
X26378Y-23346
X26378Y-23858
X26378Y-25000
X26378Y-30709
X26378Y-34843
X26384Y-29574
X26394Y-15118
X26394Y-26575
X26394Y-32234
X26394Y-36639
X26404Y-35274
X26417Y-27677
X26417Y-29134
X26644Y-40439
X26799Y-37764
X27126Y-25354
X27146Y-31063
X27147Y-40192
X27165Y-19685
X27232Y-14350
X27269Y-38439
X27362Y-16634
X27644Y-39689
X27874Y-33465
X27894Y-34331
X27913Y-16339
X27913Y-17402
X27913Y-22047
X27913Y-22953
X27913Y-27756
X27913Y-28701
X28189Y-17756
X28189Y-34803
X28204Y-29474
X28204Y-35174
X28228Y-23346
X28228Y-23740
X28269Y-40714
X28346Y-18071
X28346Y-29134
X28544Y-37214
X28661Y-14075
X29213Y-14075
X29764Y-14075
X29945Y-37909
X30197Y-37634
X30236Y-32953
X30236Y-33937
X30269Y-37214
X30315Y-14075
X30354Y-20827
X30433Y-15157
X30472Y-26536
X30630Y-22008
X30630Y-22638
X30644Y-32189
X30709Y-27756
X30709Y-28346
X30906Y-17087
X30925Y-12028
X31614Y-26118
X31614Y-31811
X31644Y-40714
X31654Y-20417
X31669Y-38464
X31677Y-14744
X31898Y-37606
X32147Y-39942
X32362Y-19291
X32362Y-20827
X32362Y-34803
X32384Y-29554
X32384Y-33334
X32384Y-35274
X32394Y-15118
X32394Y-26539
X32394Y-32239
X32394Y-36639
X32402Y-16220
X32402Y-17756
X32402Y-18110
X32402Y-21929
X32402Y-23386
X32402Y-25000
X32402Y-27638
X32402Y-29134
X32402Y-30709
X32404Y-23814
X32647Y-40442
X32846Y-37665
X33110Y-31063
X33147Y-40192
X33150Y-19646
X33150Y-25354
X33269Y-38564
X33276Y-14343
X33669Y-39689
X33894Y-17402
X33894Y-22953
X33894Y-28701
X33898Y-16339
X33898Y-22008
X33898Y-27756
X33898Y-33465
X33898Y-34331
X34173Y-42835
X34182Y-36602
X34184Y-23754
X34184Y-35194
X34204Y-29474
X34213Y-23386
X34213Y-34803
X34252Y-17795
X34370Y-29134
X34449Y-18110
X34494Y-40689
X34519Y-37214
X34724Y-13563
X35236Y-14075
X35669Y-13780
X35929Y-37906
X36122Y-13504
X36177Y-37657
X36220Y-32835
X36220Y-33937
X36269Y-37214
X36299Y-32323
X36378Y-15157
X36378Y-20827
X36644Y-26489
X36654Y-22008
X36654Y-22638
X36693Y-27756
X36693Y-28346
X36850Y-42362
X36890Y-17087
X36969Y-10728
X37283Y-10335
X37598Y-10177
X37638Y-20417
X37638Y-31818
X37644Y-40689
X37677Y-14685
X37677Y-26118
X37694Y-38464
X37906Y-37602
X38147Y-39942
X38268Y-10807
X38384Y-33334
X38386Y-15157
X38386Y-16220
X38386Y-17795
X38386Y-18150
X38386Y-19291
X38386Y-21929
X38386Y-23386
X38386Y-23780
X38386Y-25000
X38386Y-27638
X38386Y-29094
X38386Y-29567
X38386Y-30709
X38386Y-34843
X38394Y-20799
X38394Y-26494
X38394Y-32189
X38394Y-36639
X38404Y-35274
X38425Y-10020
X38647Y-40442
X38701Y-43780
X38858Y-37626
X39134Y-31083
X39147Y-40192
X39173Y-19685
X39173Y-25354
X39219Y-38464
X39323Y-14307
X39644Y-39689
X39724Y-11319
X39882Y-17402
X39882Y-22008
X39882Y-22953
X39882Y-27756
X39882Y-28701
X39882Y-33465
X39882Y-34331
X39921Y-16378
X40184Y-35194
X40197Y-23425
X40197Y-34803
X40236Y-29094
X40276Y-17795
X40315Y-29488
X40394Y-23740
X40512Y-18150
X40581Y-15413
X40935Y-15039
X40961Y-14539
X41122Y-13996
X41811Y-34124
X42008Y-11220
X42205Y-38898
T2
X12992Y-41953
X12992Y-42953
X13992Y-41953
X13992Y-42953
X14992Y-41953
X14992Y-42953
X29528Y-44291
X30528Y-44291
X31528Y-44291
X32480Y-42087
X32528Y-44291
X33480Y-42087
X33528Y-44291
X34528Y-44291
T3
X11024Y-12205
X11024Y-44488
X40945Y-12205
X40945Y-44488
T0
M30
