G04 #@! TF.FileFunction,Soldermask,Top*
%FSLAX46Y46*%
G04 Gerber Fmt 4.6, Leading zero omitted, Abs format (unit mm)*
G04 Created by KiCad (PCBNEW 4.0.6) date 06/02/17 17:37:16*
%MOMM*%
%LPD*%
G01*
G04 APERTURE LIST*
%ADD10C,0.150000*%
%ADD11R,4.257040X3.058160*%
%ADD12R,2.032000X2.540000*%
%ADD13R,2.235200X2.540000*%
%ADD14O,2.235200X2.540000*%
%ADD15R,2.235200X2.235200*%
%ADD16O,2.235200X2.235200*%
%ADD17R,1.758000X1.508000*%
%ADD18R,1.706880X1.706880*%
%ADD19R,1.058000X2.108000*%
%ADD20R,2.108000X1.058000*%
%ADD21R,1.808000X1.208000*%
%ADD22R,1.208000X1.808000*%
%ADD23R,0.908000X1.808000*%
%ADD24R,1.016000X1.651000*%
%ADD25C,4.572000*%
%ADD26R,1.244600X1.651000*%
%ADD27C,1.778000*%
G04 APERTURE END LIST*
D10*
D11*
X93600000Y-105399980D03*
X93600000Y-110800020D03*
D12*
X32751250Y-47528750D03*
X35291250Y-47528750D03*
X37831250Y-47528750D03*
X40371250Y-47528750D03*
X40371250Y-39908750D03*
X37831250Y-39908750D03*
X35291250Y-39908750D03*
X32751250Y-39908750D03*
X32751250Y-61908750D03*
X35291250Y-61908750D03*
X37831250Y-61908750D03*
X40371250Y-61908750D03*
X40371250Y-54288750D03*
X37831250Y-54288750D03*
X35291250Y-54288750D03*
X32751250Y-54288750D03*
X32751250Y-76488750D03*
X35291250Y-76488750D03*
X37831250Y-76488750D03*
X40371250Y-76488750D03*
X40371250Y-68868750D03*
X37831250Y-68868750D03*
X35291250Y-68868750D03*
X32751250Y-68868750D03*
X32751250Y-90968750D03*
X35291250Y-90968750D03*
X37831250Y-90968750D03*
X40371250Y-90968750D03*
X40371250Y-83348750D03*
X37831250Y-83348750D03*
X35291250Y-83348750D03*
X32751250Y-83348750D03*
X47991250Y-47528750D03*
X50531250Y-47528750D03*
X53071250Y-47528750D03*
X55611250Y-47528750D03*
X55611250Y-39908750D03*
X53071250Y-39908750D03*
X50531250Y-39908750D03*
X47991250Y-39908750D03*
X47991250Y-61908750D03*
X50531250Y-61908750D03*
X53071250Y-61908750D03*
X55611250Y-61908750D03*
X55611250Y-54288750D03*
X53071250Y-54288750D03*
X50531250Y-54288750D03*
X47991250Y-54288750D03*
X47991250Y-76488750D03*
X50531250Y-76488750D03*
X53071250Y-76488750D03*
X55611250Y-76488750D03*
X55611250Y-68868750D03*
X53071250Y-68868750D03*
X50531250Y-68868750D03*
X47991250Y-68868750D03*
X47991250Y-90968750D03*
X50531250Y-90968750D03*
X53071250Y-90968750D03*
X55611250Y-90968750D03*
X55611250Y-83348750D03*
X53071250Y-83348750D03*
X50531250Y-83348750D03*
X47991250Y-83348750D03*
X63231250Y-47528750D03*
X65771250Y-47528750D03*
X68311250Y-47528750D03*
X70851250Y-47528750D03*
X70851250Y-39908750D03*
X68311250Y-39908750D03*
X65771250Y-39908750D03*
X63231250Y-39908750D03*
X63231250Y-61908750D03*
X65771250Y-61908750D03*
X68311250Y-61908750D03*
X70851250Y-61908750D03*
X70851250Y-54288750D03*
X68311250Y-54288750D03*
X65771250Y-54288750D03*
X63231250Y-54288750D03*
X63231250Y-76488750D03*
X65771250Y-76488750D03*
X68311250Y-76488750D03*
X70851250Y-76488750D03*
X70851250Y-68868750D03*
X68311250Y-68868750D03*
X65771250Y-68868750D03*
X63231250Y-68868750D03*
X63231250Y-90968750D03*
X65771250Y-90968750D03*
X68311250Y-90968750D03*
X70851250Y-90968750D03*
X70851250Y-83348750D03*
X68311250Y-83348750D03*
X65771250Y-83348750D03*
X63231250Y-83348750D03*
X78471250Y-47528750D03*
X81011250Y-47528750D03*
X83551250Y-47528750D03*
X86091250Y-47528750D03*
X86091250Y-39908750D03*
X83551250Y-39908750D03*
X81011250Y-39908750D03*
X78471250Y-39908750D03*
X78471250Y-61908750D03*
X81011250Y-61908750D03*
X83551250Y-61908750D03*
X86091250Y-61908750D03*
X86091250Y-54288750D03*
X83551250Y-54288750D03*
X81011250Y-54288750D03*
X78471250Y-54288750D03*
X78471250Y-76488750D03*
X81011250Y-76488750D03*
X83551250Y-76488750D03*
X86091250Y-76488750D03*
X86091250Y-68868750D03*
X83551250Y-68868750D03*
X81011250Y-68868750D03*
X78471250Y-68868750D03*
X78471250Y-90968750D03*
X81011250Y-90968750D03*
X83551250Y-90968750D03*
X86091250Y-90968750D03*
X86091250Y-83348750D03*
X83551250Y-83348750D03*
X81011250Y-83348750D03*
X78471250Y-83348750D03*
X93711250Y-47528750D03*
X96251250Y-47528750D03*
X98791250Y-47528750D03*
X101331250Y-47528750D03*
X101331250Y-39908750D03*
X98791250Y-39908750D03*
X96251250Y-39908750D03*
X93711250Y-39908750D03*
X93711250Y-61908750D03*
X96251250Y-61908750D03*
X98791250Y-61908750D03*
X101331250Y-61908750D03*
X101331250Y-54288750D03*
X98791250Y-54288750D03*
X96251250Y-54288750D03*
X93711250Y-54288750D03*
X93711250Y-76488750D03*
X96251250Y-76488750D03*
X98791250Y-76488750D03*
X101331250Y-76488750D03*
X101331250Y-68868750D03*
X98791250Y-68868750D03*
X96251250Y-68868750D03*
X93711250Y-68868750D03*
X93711250Y-90968750D03*
X96251250Y-90968750D03*
X98791250Y-90968750D03*
X101331250Y-90968750D03*
X101331250Y-83348750D03*
X98791250Y-83348750D03*
X96251250Y-83348750D03*
X93711250Y-83348750D03*
D13*
X85700000Y-103000000D03*
D14*
X83160000Y-103000000D03*
X80620000Y-103000000D03*
X78080000Y-103000000D03*
X75540000Y-103000000D03*
X73000000Y-103000000D03*
D15*
X36100000Y-108000000D03*
D16*
X36100000Y-105460000D03*
X38640000Y-108000000D03*
X38640000Y-105460000D03*
X41180000Y-108000000D03*
X41180000Y-105460000D03*
D17*
X68400000Y-108600000D03*
X68400000Y-106600000D03*
X90400000Y-104600000D03*
X90400000Y-106600000D03*
X88500000Y-104600000D03*
X88500000Y-106600000D03*
D18*
X88500000Y-111249020D03*
X88500000Y-109150980D03*
D19*
X53400000Y-103950000D03*
X52600000Y-103950000D03*
X51800000Y-103950000D03*
X51000000Y-103950000D03*
X50200000Y-103950000D03*
X49400000Y-103950000D03*
X48600000Y-103950000D03*
X47800000Y-103950000D03*
D20*
X46350000Y-105400000D03*
X46350000Y-106200000D03*
X46350000Y-107000000D03*
X46350000Y-107800000D03*
X46350000Y-108600000D03*
X46350000Y-109400000D03*
X46350000Y-110200000D03*
X46350000Y-111000000D03*
D19*
X47800000Y-112450000D03*
X48600000Y-112450000D03*
X49400000Y-112450000D03*
X50200000Y-112450000D03*
X51000000Y-112450000D03*
X51800000Y-112450000D03*
X52600000Y-112450000D03*
X53400000Y-112450000D03*
D20*
X54850000Y-111000000D03*
X54850000Y-110200000D03*
X54850000Y-109400000D03*
X54850000Y-108600000D03*
X54850000Y-107800000D03*
X54850000Y-107000000D03*
X54850000Y-106200000D03*
X54850000Y-105400000D03*
D21*
X32751250Y-95098750D03*
X32751250Y-96998750D03*
X32751250Y-78918750D03*
X32751250Y-80818750D03*
X32751250Y-64438750D03*
X32751250Y-66338750D03*
X32651250Y-49931750D03*
X32651250Y-51831750D03*
X36561250Y-96998750D03*
X36561250Y-95098750D03*
X40371250Y-96998750D03*
X40371250Y-95098750D03*
X40371250Y-80818750D03*
X40371250Y-78918750D03*
X40371250Y-66338750D03*
X40371250Y-64438750D03*
X40371250Y-51831750D03*
X40371250Y-49931750D03*
X36461250Y-51831750D03*
X36461250Y-49931750D03*
X47991250Y-95098750D03*
X47991250Y-96998750D03*
X47991250Y-78918750D03*
X47991250Y-80818750D03*
X47991250Y-64438750D03*
X47991250Y-66338750D03*
X47991250Y-49958750D03*
X47991250Y-51858750D03*
X51801250Y-96998750D03*
X51801250Y-95098750D03*
X55611250Y-96998750D03*
X55611250Y-95098750D03*
X55611250Y-80818750D03*
X55611250Y-78918750D03*
X55611250Y-66338750D03*
X55611250Y-64438750D03*
X55611250Y-51858750D03*
X55611250Y-49958750D03*
X51801250Y-51858750D03*
X51801250Y-49958750D03*
X63231250Y-95098750D03*
X63231250Y-96998750D03*
X63231250Y-78918750D03*
X63231250Y-80818750D03*
X63231250Y-64438750D03*
X63231250Y-66338750D03*
X63231250Y-49958750D03*
X63231250Y-51858750D03*
X67041250Y-96998750D03*
X67041250Y-95098750D03*
X70851250Y-96998750D03*
X70851250Y-95098750D03*
X70851250Y-80818750D03*
X70851250Y-78918750D03*
X70851250Y-66338750D03*
X70851250Y-64438750D03*
X70851250Y-51858750D03*
X70851250Y-49958750D03*
X67041250Y-51858750D03*
X67041250Y-49958750D03*
X78471250Y-95098750D03*
X78471250Y-96998750D03*
X78471250Y-78918750D03*
X78471250Y-80818750D03*
X78471250Y-64438750D03*
X78471250Y-66338750D03*
X78471250Y-49958750D03*
X78471250Y-51858750D03*
D22*
X68350000Y-104500000D03*
X70250000Y-104500000D03*
D21*
X82281250Y-96998750D03*
X82281250Y-95098750D03*
X86091250Y-96998750D03*
X86091250Y-95098750D03*
X86091250Y-80818750D03*
X86091250Y-78918750D03*
X86091250Y-66338750D03*
X86091250Y-64438750D03*
X86091250Y-51858750D03*
X86091250Y-49958750D03*
X82281250Y-51858750D03*
X82281250Y-49958750D03*
X93711250Y-95098750D03*
X93711250Y-96998750D03*
X93711250Y-78918750D03*
X93711250Y-80818750D03*
X93711250Y-64438750D03*
X93711250Y-66338750D03*
X93711250Y-49958750D03*
X93711250Y-51858750D03*
X97521250Y-96998750D03*
X97521250Y-95098750D03*
X101331250Y-96998750D03*
X101331250Y-95098750D03*
X101331250Y-80818750D03*
X101331250Y-78918750D03*
X101331250Y-66338750D03*
X101331250Y-64438750D03*
X101331250Y-51858750D03*
X101331250Y-49958750D03*
X97521250Y-51858750D03*
X97521250Y-49958750D03*
X36561250Y-80818750D03*
X36561250Y-78918750D03*
X36561250Y-66338750D03*
X36561250Y-64438750D03*
X51801250Y-80818750D03*
X51801250Y-78918750D03*
X51800000Y-66350000D03*
X51800000Y-64450000D03*
X67041250Y-80818750D03*
X67041250Y-78918750D03*
X67041250Y-66338750D03*
X67041250Y-64438750D03*
X82281250Y-80818750D03*
X82281250Y-78918750D03*
X82281250Y-66338750D03*
X82281250Y-64438750D03*
X97521250Y-80818750D03*
X97521250Y-78918750D03*
X97521250Y-66338750D03*
X97521250Y-64438750D03*
D23*
X49000000Y-102200000D03*
X46600000Y-102200000D03*
X47800000Y-102200000D03*
D17*
X60300000Y-105950000D03*
X60300000Y-107950000D03*
D24*
X62195000Y-104475000D03*
X63465000Y-104475000D03*
X64735000Y-104475000D03*
X66005000Y-104475000D03*
X66005000Y-110825000D03*
X64735000Y-110825000D03*
X63465000Y-110825000D03*
X62195000Y-110825000D03*
D25*
X28000000Y-27000000D03*
X104000000Y-27000000D03*
X28000000Y-111000000D03*
X104000000Y-111000000D03*
D22*
X70050000Y-110800000D03*
X68150000Y-110800000D03*
X36775000Y-111425000D03*
X38675000Y-111425000D03*
X36800000Y-113475000D03*
X38700000Y-113475000D03*
X33775000Y-111425000D03*
X35675000Y-111425000D03*
X33775000Y-113475000D03*
X35675000Y-113475000D03*
D26*
X96240000Y-29705600D03*
X96240000Y-31229600D03*
X94970000Y-29705600D03*
X94970000Y-31229600D03*
X93700000Y-29705600D03*
X93700000Y-31229600D03*
X92430000Y-29705600D03*
X92430000Y-31229600D03*
X91160000Y-29705600D03*
X91160000Y-31229600D03*
X89890000Y-29705600D03*
X89890000Y-31229600D03*
X88620000Y-29705600D03*
X88620000Y-31229600D03*
X87350000Y-29705600D03*
X87350000Y-31229600D03*
X86080000Y-29705600D03*
X86080000Y-31229600D03*
X84810000Y-29705600D03*
X84810000Y-31229600D03*
X83540000Y-29705600D03*
X83540000Y-31229600D03*
X82270000Y-29705600D03*
X82270000Y-31229600D03*
X81000000Y-29705600D03*
X81000000Y-31229600D03*
X79730000Y-29705600D03*
X79730000Y-31229600D03*
X78460000Y-29705600D03*
X78460000Y-31229600D03*
X77190000Y-29705600D03*
X77190000Y-31229600D03*
X75920000Y-29705600D03*
X75920000Y-31229600D03*
X74650000Y-29705600D03*
X74650000Y-31229600D03*
X73380000Y-29705600D03*
X73380000Y-31229600D03*
X72110000Y-29705600D03*
X72110000Y-31229600D03*
X70840000Y-29705600D03*
X70840000Y-31229600D03*
X69570000Y-29705600D03*
X69570000Y-31229600D03*
X68300000Y-29705600D03*
X68300000Y-31229600D03*
X67030000Y-29705600D03*
X67030000Y-31229600D03*
X65760000Y-29705600D03*
X65760000Y-31229600D03*
D27*
X98830800Y-24473200D03*
X63169200Y-24473200D03*
X98830800Y-26733800D03*
X63169200Y-26733800D03*
D21*
X103250000Y-99625000D03*
X103250000Y-101525000D03*
M02*
