G04 (created by PCBNEW (2013-07-07 BZR 4022)-stable) date 28/01/2014 3:52:00 PM*
%MOIN*%
G04 Gerber Fmt 3.4, Leading zero omitted, Abs format*
%FSLAX34Y34*%
G01*
G70*
G90*
G04 APERTURE LIST*
%ADD10C,0.00590551*%
%ADD11C,0.18*%
%ADD12R,0.08X0.1*%
%ADD13R,0.045X0.065*%
%ADD14R,0.1X0.08*%
%ADD15R,0.1204X0.1676*%
%ADD16C,0.14*%
%ADD17R,0.08X0.08*%
%ADD18C,0.08*%
%ADD19C,0.07*%
%ADD20C,0.0594*%
%ADD21C,0.12*%
%ADD22C,0.1771*%
%ADD23C,0.145*%
%ADD24C,0.114488*%
%ADD25C,0.118425*%
G04 APERTURE END LIST*
G54D10*
G54D11*
X61750Y-8800D03*
X61750Y-42050D03*
X9850Y-42050D03*
G54D12*
X45350Y-39850D03*
X44050Y-39850D03*
X58050Y-10350D03*
X59350Y-10350D03*
X59350Y-11850D03*
X58050Y-11850D03*
X38350Y-13350D03*
X37050Y-13350D03*
X52350Y-20350D03*
X51050Y-20350D03*
X37050Y-17350D03*
X38350Y-17350D03*
X44050Y-17350D03*
X45350Y-17350D03*
X59350Y-20350D03*
X58050Y-20350D03*
X37050Y-24350D03*
X38350Y-24350D03*
X51050Y-24350D03*
X52350Y-24350D03*
X44050Y-24350D03*
X45350Y-24350D03*
X38350Y-25850D03*
X37050Y-25850D03*
X37050Y-10350D03*
X38350Y-10350D03*
X51100Y-10350D03*
X52400Y-10350D03*
X44050Y-10350D03*
X45350Y-10350D03*
X38350Y-11850D03*
X37050Y-11850D03*
X59350Y-18850D03*
X58050Y-18850D03*
X52400Y-13350D03*
X51100Y-13350D03*
X45350Y-13350D03*
X44050Y-13350D03*
X58050Y-17350D03*
X59350Y-17350D03*
X59350Y-13350D03*
X58050Y-13350D03*
X58050Y-38350D03*
X59350Y-38350D03*
X59350Y-39850D03*
X58050Y-39850D03*
X44050Y-38350D03*
X45350Y-38350D03*
X38350Y-41350D03*
X37050Y-41350D03*
X59350Y-41350D03*
X58050Y-41350D03*
X45350Y-41350D03*
X44050Y-41350D03*
X38350Y-39850D03*
X37050Y-39850D03*
X37050Y-38350D03*
X38350Y-38350D03*
X59350Y-34350D03*
X58050Y-34350D03*
X37050Y-31350D03*
X38350Y-31350D03*
X59350Y-32850D03*
X58050Y-32850D03*
X44050Y-31350D03*
X45350Y-31350D03*
X45350Y-34350D03*
X44050Y-34350D03*
X52350Y-34350D03*
X51050Y-34350D03*
X38350Y-34350D03*
X37050Y-34350D03*
X52350Y-41350D03*
X51050Y-41350D03*
X52350Y-27350D03*
X51050Y-27350D03*
X45350Y-27350D03*
X44050Y-27350D03*
X59350Y-27350D03*
X58050Y-27350D03*
X45350Y-20350D03*
X44050Y-20350D03*
X51050Y-17350D03*
X52350Y-17350D03*
X38350Y-18850D03*
X37050Y-18850D03*
X38350Y-20350D03*
X37050Y-20350D03*
X59350Y-25850D03*
X58050Y-25850D03*
X58050Y-24350D03*
X59350Y-24350D03*
X38350Y-27350D03*
X37050Y-27350D03*
X51050Y-31350D03*
X52350Y-31350D03*
X58050Y-31350D03*
X59350Y-31350D03*
X38350Y-32850D03*
X37050Y-32850D03*
X51050Y-38350D03*
X52350Y-38350D03*
X45350Y-25850D03*
X44050Y-25850D03*
X52350Y-25850D03*
X51050Y-25850D03*
X52350Y-18850D03*
X51050Y-18850D03*
X45350Y-18850D03*
X44050Y-18850D03*
X45350Y-11850D03*
X44050Y-11850D03*
X52400Y-11850D03*
X51100Y-11850D03*
X52350Y-39850D03*
X51050Y-39850D03*
X45350Y-32850D03*
X44050Y-32850D03*
X52350Y-32850D03*
X51050Y-32850D03*
G54D13*
X24055Y-26155D03*
X23455Y-26155D03*
X23405Y-24205D03*
X24005Y-24205D03*
G54D14*
X42700Y-24350D03*
X42700Y-25350D03*
X42700Y-26350D03*
X42700Y-27350D03*
X39700Y-27350D03*
X39700Y-26350D03*
X39700Y-25350D03*
X39700Y-24350D03*
X49700Y-10350D03*
X49700Y-11350D03*
X49700Y-12350D03*
X49700Y-13350D03*
X46700Y-13350D03*
X46700Y-12350D03*
X46700Y-11350D03*
X46700Y-10350D03*
X35700Y-38350D03*
X35700Y-39350D03*
X35700Y-40350D03*
X35700Y-41350D03*
X32700Y-41350D03*
X32700Y-40350D03*
X32700Y-39350D03*
X32700Y-38350D03*
X49700Y-24350D03*
X49700Y-25350D03*
X49700Y-26350D03*
X49700Y-27350D03*
X46700Y-27350D03*
X46700Y-26350D03*
X46700Y-25350D03*
X46700Y-24350D03*
X49700Y-38350D03*
X49700Y-39350D03*
X49700Y-40350D03*
X49700Y-41350D03*
X46700Y-41350D03*
X46700Y-40350D03*
X46700Y-39350D03*
X46700Y-38350D03*
X42700Y-17350D03*
X42700Y-18350D03*
X42700Y-19350D03*
X42700Y-20350D03*
X39700Y-20350D03*
X39700Y-19350D03*
X39700Y-18350D03*
X39700Y-17350D03*
X49700Y-17350D03*
X49700Y-18350D03*
X49700Y-19350D03*
X49700Y-20350D03*
X46700Y-20350D03*
X46700Y-19350D03*
X46700Y-18350D03*
X46700Y-17350D03*
X42700Y-10350D03*
X42700Y-11350D03*
X42700Y-12350D03*
X42700Y-13350D03*
X39700Y-13350D03*
X39700Y-12350D03*
X39700Y-11350D03*
X39700Y-10350D03*
X35700Y-10350D03*
X35700Y-11350D03*
X35700Y-12350D03*
X35700Y-13350D03*
X32700Y-13350D03*
X32700Y-12350D03*
X32700Y-11350D03*
X32700Y-10350D03*
X56700Y-38350D03*
X56700Y-39350D03*
X56700Y-40350D03*
X56700Y-41350D03*
X53700Y-41350D03*
X53700Y-40350D03*
X53700Y-39350D03*
X53700Y-38350D03*
X35700Y-17350D03*
X35700Y-18350D03*
X35700Y-19350D03*
X35700Y-20350D03*
X32700Y-20350D03*
X32700Y-19350D03*
X32700Y-18350D03*
X32700Y-17350D03*
X56700Y-10350D03*
X56700Y-11350D03*
X56700Y-12350D03*
X56700Y-13350D03*
X53700Y-13350D03*
X53700Y-12350D03*
X53700Y-11350D03*
X53700Y-10350D03*
X56700Y-31350D03*
X56700Y-32350D03*
X56700Y-33350D03*
X56700Y-34350D03*
X53700Y-34350D03*
X53700Y-33350D03*
X53700Y-32350D03*
X53700Y-31350D03*
X35700Y-24350D03*
X35700Y-25350D03*
X35700Y-26350D03*
X35700Y-27350D03*
X32700Y-27350D03*
X32700Y-26350D03*
X32700Y-25350D03*
X32700Y-24350D03*
X42700Y-31350D03*
X42700Y-32350D03*
X42700Y-33350D03*
X42700Y-34350D03*
X39700Y-34350D03*
X39700Y-33350D03*
X39700Y-32350D03*
X39700Y-31350D03*
X56700Y-24350D03*
X56700Y-25350D03*
X56700Y-26350D03*
X56700Y-27350D03*
X53700Y-27350D03*
X53700Y-26350D03*
X53700Y-25350D03*
X53700Y-24350D03*
X42700Y-38350D03*
X42700Y-39350D03*
X42700Y-40350D03*
X42700Y-41350D03*
X39700Y-41350D03*
X39700Y-40350D03*
X39700Y-39350D03*
X39700Y-38350D03*
X35700Y-31350D03*
X35700Y-32350D03*
X35700Y-33350D03*
X35700Y-34350D03*
X32700Y-34350D03*
X32700Y-33350D03*
X32700Y-32350D03*
X32700Y-31350D03*
X56700Y-17350D03*
X56700Y-18350D03*
X56700Y-19350D03*
X56700Y-20350D03*
X53700Y-20350D03*
X53700Y-19350D03*
X53700Y-18350D03*
X53700Y-17350D03*
X49700Y-31350D03*
X49700Y-32350D03*
X49700Y-33350D03*
X49700Y-34350D03*
X46700Y-34350D03*
X46700Y-33350D03*
X46700Y-32350D03*
X46700Y-31350D03*
G54D15*
X23042Y-9255D03*
X25168Y-9255D03*
G54D16*
X11400Y-11900D03*
X11400Y-20500D03*
G54D17*
X12100Y-18200D03*
G54D18*
X11100Y-18200D03*
X12100Y-17200D03*
X11100Y-17200D03*
X12100Y-16200D03*
X11100Y-16200D03*
X12100Y-15200D03*
X11100Y-15200D03*
X12100Y-14200D03*
X11100Y-14200D03*
G54D19*
X62600Y-20525D03*
X62600Y-31275D03*
G54D20*
X62350Y-21650D03*
X62350Y-21150D03*
X62850Y-21150D03*
X62850Y-21650D03*
X62850Y-23150D03*
X62850Y-23650D03*
X62850Y-22650D03*
X62850Y-22150D03*
X62350Y-22150D03*
X62350Y-22650D03*
X62350Y-23650D03*
X62350Y-23150D03*
X62850Y-28650D03*
X62850Y-29150D03*
X62850Y-30150D03*
X62850Y-29650D03*
X62350Y-29650D03*
X62350Y-30150D03*
X62350Y-29150D03*
X62350Y-28650D03*
X62350Y-30650D03*
X62850Y-30650D03*
X62850Y-28150D03*
X62350Y-28150D03*
X62350Y-25150D03*
X62350Y-25650D03*
X62350Y-24650D03*
X62350Y-24150D03*
X62350Y-26150D03*
X62350Y-26650D03*
X62350Y-27650D03*
X62350Y-27150D03*
X62850Y-27150D03*
X62850Y-27650D03*
X62850Y-26650D03*
X62850Y-26150D03*
X62850Y-24150D03*
X62850Y-24650D03*
X62850Y-25650D03*
X62850Y-25150D03*
G54D21*
X11500Y-23300D03*
X11500Y-31300D03*
G54D22*
X8500Y-25300D03*
G54D23*
X12500Y-28300D03*
X12500Y-26300D03*
X12500Y-30300D03*
X12500Y-24300D03*
G54D22*
X8500Y-29300D03*
G54D24*
X10100Y-34500D03*
G54D25*
X9100Y-35500D03*
X9100Y-33500D03*
X11100Y-33500D03*
X11100Y-35500D03*
G54D24*
X10100Y-38550D03*
G54D25*
X9100Y-39550D03*
X9100Y-37550D03*
X11100Y-37550D03*
X11100Y-39550D03*
G54D11*
X9850Y-8750D03*
M02*
