G04 (created by PCBNEW (2013-07-07 BZR 4022)-stable) date 30/04/2014 4:00:44 PM*
%MOIN*%
G04 Gerber Fmt 3.4, Leading zero omitted, Abs format*
%FSLAX34Y34*%
G01*
G70*
G90*
G04 APERTURE LIST*
%ADD10C,0.00590551*%
%ADD11C,0.00787402*%
%ADD12C,0.012*%
%ADD13C,0.005*%
%ADD14C,0.015*%
%ADD15C,0.01*%
%ADD16C,0.008*%
%ADD17C,0.006*%
G04 APERTURE END LIST*
G54D10*
G54D11*
X19276Y-9834D02*
X19314Y-9815D01*
X19370Y-9815D01*
X19426Y-9834D01*
X19464Y-9871D01*
X19483Y-9909D01*
X19501Y-9984D01*
X19501Y-10040D01*
X19483Y-10115D01*
X19464Y-10153D01*
X19426Y-10190D01*
X19370Y-10209D01*
X19333Y-10209D01*
X19276Y-10190D01*
X19258Y-10171D01*
X19258Y-10040D01*
X19333Y-10040D01*
G54D12*
X7790Y-15118D02*
X7790Y-14661D01*
X7486Y-14889D02*
X8095Y-14889D01*
G54D13*
X11012Y-35187D02*
X10112Y-35187D01*
X10112Y-35187D02*
X10112Y-34537D01*
X11012Y-33837D02*
X11012Y-33187D01*
X11012Y-33187D02*
X10112Y-33187D01*
X10112Y-33187D02*
X10112Y-33837D01*
X11012Y-34537D02*
X11012Y-35187D01*
X35612Y-47187D02*
X36512Y-47187D01*
X36512Y-47187D02*
X36512Y-47837D01*
X35612Y-48537D02*
X35612Y-49187D01*
X35612Y-49187D02*
X36512Y-49187D01*
X36512Y-49187D02*
X36512Y-48537D01*
X35612Y-47837D02*
X35612Y-47187D01*
X35012Y-49187D02*
X34112Y-49187D01*
X34112Y-49187D02*
X34112Y-48537D01*
X35012Y-47837D02*
X35012Y-47187D01*
X35012Y-47187D02*
X34112Y-47187D01*
X34112Y-47187D02*
X34112Y-47837D01*
X35012Y-48537D02*
X35012Y-49187D01*
X33512Y-28187D02*
X32612Y-28187D01*
X32612Y-28187D02*
X32612Y-27537D01*
X33512Y-26837D02*
X33512Y-26187D01*
X33512Y-26187D02*
X32612Y-26187D01*
X32612Y-26187D02*
X32612Y-26837D01*
X33512Y-27537D02*
X33512Y-28187D01*
X27512Y-42187D02*
X26612Y-42187D01*
X26612Y-42187D02*
X26612Y-41537D01*
X27512Y-40837D02*
X27512Y-40187D01*
X27512Y-40187D02*
X26612Y-40187D01*
X26612Y-40187D02*
X26612Y-40837D01*
X27512Y-41537D02*
X27512Y-42187D01*
X29612Y-26187D02*
X30512Y-26187D01*
X30512Y-26187D02*
X30512Y-26837D01*
X29612Y-27537D02*
X29612Y-28187D01*
X29612Y-28187D02*
X30512Y-28187D01*
X30512Y-28187D02*
X30512Y-27537D01*
X29612Y-26837D02*
X29612Y-26187D01*
X29612Y-33187D02*
X30512Y-33187D01*
X30512Y-33187D02*
X30512Y-33837D01*
X29612Y-34537D02*
X29612Y-35187D01*
X29612Y-35187D02*
X30512Y-35187D01*
X30512Y-35187D02*
X30512Y-34537D01*
X29612Y-33837D02*
X29612Y-33187D01*
X27512Y-49187D02*
X26612Y-49187D01*
X26612Y-49187D02*
X26612Y-48537D01*
X27512Y-47837D02*
X27512Y-47187D01*
X27512Y-47187D02*
X26612Y-47187D01*
X26612Y-47187D02*
X26612Y-47837D01*
X27512Y-48537D02*
X27512Y-49187D01*
X23612Y-26187D02*
X24512Y-26187D01*
X24512Y-26187D02*
X24512Y-26837D01*
X23612Y-27537D02*
X23612Y-28187D01*
X23612Y-28187D02*
X24512Y-28187D01*
X24512Y-28187D02*
X24512Y-27537D01*
X23612Y-26837D02*
X23612Y-26187D01*
X23612Y-40187D02*
X24512Y-40187D01*
X24512Y-40187D02*
X24512Y-40837D01*
X23612Y-41537D02*
X23612Y-42187D01*
X23612Y-42187D02*
X24512Y-42187D01*
X24512Y-42187D02*
X24512Y-41537D01*
X23612Y-40837D02*
X23612Y-40187D01*
X23612Y-33187D02*
X24512Y-33187D01*
X24512Y-33187D02*
X24512Y-33837D01*
X23612Y-34537D02*
X23612Y-35187D01*
X23612Y-35187D02*
X24512Y-35187D01*
X24512Y-35187D02*
X24512Y-34537D01*
X23612Y-33837D02*
X23612Y-33187D01*
X23012Y-28187D02*
X22112Y-28187D01*
X22112Y-28187D02*
X22112Y-27537D01*
X23012Y-26837D02*
X23012Y-26187D01*
X23012Y-26187D02*
X22112Y-26187D01*
X22112Y-26187D02*
X22112Y-26837D01*
X23012Y-27537D02*
X23012Y-28187D01*
X35612Y-26187D02*
X36512Y-26187D01*
X36512Y-26187D02*
X36512Y-26837D01*
X35612Y-27537D02*
X35612Y-28187D01*
X35612Y-28187D02*
X36512Y-28187D01*
X36512Y-28187D02*
X36512Y-27537D01*
X35612Y-26837D02*
X35612Y-26187D01*
X35612Y-40237D02*
X36512Y-40237D01*
X36512Y-40237D02*
X36512Y-40887D01*
X35612Y-41587D02*
X35612Y-42237D01*
X35612Y-42237D02*
X36512Y-42237D01*
X36512Y-42237D02*
X36512Y-41587D01*
X35612Y-40887D02*
X35612Y-40237D01*
X35612Y-33187D02*
X36512Y-33187D01*
X36512Y-33187D02*
X36512Y-33837D01*
X35612Y-34537D02*
X35612Y-35187D01*
X35612Y-35187D02*
X36512Y-35187D01*
X36512Y-35187D02*
X36512Y-34537D01*
X35612Y-33837D02*
X35612Y-33187D01*
X35012Y-28187D02*
X34112Y-28187D01*
X34112Y-28187D02*
X34112Y-27537D01*
X35012Y-26837D02*
X35012Y-26187D01*
X35012Y-26187D02*
X34112Y-26187D01*
X34112Y-26187D02*
X34112Y-26837D01*
X35012Y-27537D02*
X35012Y-28187D01*
X29012Y-49187D02*
X28112Y-49187D01*
X28112Y-49187D02*
X28112Y-48537D01*
X29012Y-47837D02*
X29012Y-47187D01*
X29012Y-47187D02*
X28112Y-47187D01*
X28112Y-47187D02*
X28112Y-47837D01*
X29012Y-48537D02*
X29012Y-49187D01*
X33512Y-42237D02*
X32612Y-42237D01*
X32612Y-42237D02*
X32612Y-41587D01*
X33512Y-40887D02*
X33512Y-40237D01*
X33512Y-40237D02*
X32612Y-40237D01*
X32612Y-40237D02*
X32612Y-40887D01*
X33512Y-41587D02*
X33512Y-42237D01*
X33512Y-35187D02*
X32612Y-35187D01*
X32612Y-35187D02*
X32612Y-34537D01*
X33512Y-33837D02*
X33512Y-33187D01*
X33512Y-33187D02*
X32612Y-33187D01*
X32612Y-33187D02*
X32612Y-33837D01*
X33512Y-34537D02*
X33512Y-35187D01*
X29612Y-47187D02*
X30512Y-47187D01*
X30512Y-47187D02*
X30512Y-47837D01*
X29612Y-48537D02*
X29612Y-49187D01*
X29612Y-49187D02*
X30512Y-49187D01*
X30512Y-49187D02*
X30512Y-48537D01*
X29612Y-47837D02*
X29612Y-47187D01*
X33512Y-49187D02*
X32612Y-49187D01*
X32612Y-49187D02*
X32612Y-48537D01*
X33512Y-47837D02*
X33512Y-47187D01*
X33512Y-47187D02*
X32612Y-47187D01*
X32612Y-47187D02*
X32612Y-47837D01*
X33512Y-48537D02*
X33512Y-49187D01*
X11612Y-47187D02*
X12512Y-47187D01*
X12512Y-47187D02*
X12512Y-47837D01*
X11612Y-48537D02*
X11612Y-49187D01*
X11612Y-49187D02*
X12512Y-49187D01*
X12512Y-49187D02*
X12512Y-48537D01*
X11612Y-47837D02*
X11612Y-47187D01*
X11012Y-49187D02*
X10112Y-49187D01*
X10112Y-49187D02*
X10112Y-48537D01*
X11012Y-47837D02*
X11012Y-47187D01*
X11012Y-47187D02*
X10112Y-47187D01*
X10112Y-47187D02*
X10112Y-47837D01*
X11012Y-48537D02*
X11012Y-49187D01*
X11612Y-33187D02*
X12512Y-33187D01*
X12512Y-33187D02*
X12512Y-33837D01*
X11612Y-34537D02*
X11612Y-35187D01*
X11612Y-35187D02*
X12512Y-35187D01*
X12512Y-35187D02*
X12512Y-34537D01*
X11612Y-33837D02*
X11612Y-33187D01*
X9512Y-28187D02*
X8612Y-28187D01*
X8612Y-28187D02*
X8612Y-27537D01*
X9512Y-26837D02*
X9512Y-26187D01*
X9512Y-26187D02*
X8612Y-26187D01*
X8612Y-26187D02*
X8612Y-26837D01*
X9512Y-27537D02*
X9512Y-28187D01*
X9512Y-49187D02*
X8612Y-49187D01*
X8612Y-49187D02*
X8612Y-48537D01*
X9512Y-47837D02*
X9512Y-47187D01*
X9512Y-47187D02*
X8612Y-47187D01*
X8612Y-47187D02*
X8612Y-47837D01*
X9512Y-48537D02*
X9512Y-49187D01*
X9512Y-35187D02*
X8612Y-35187D01*
X8612Y-35187D02*
X8612Y-34537D01*
X9512Y-33837D02*
X9512Y-33187D01*
X9512Y-33187D02*
X8612Y-33187D01*
X8612Y-33187D02*
X8612Y-33837D01*
X9512Y-34537D02*
X9512Y-35187D01*
X11012Y-28187D02*
X10112Y-28187D01*
X10112Y-28187D02*
X10112Y-27537D01*
X11012Y-26837D02*
X11012Y-26187D01*
X11012Y-26187D02*
X10112Y-26187D01*
X10112Y-26187D02*
X10112Y-26837D01*
X11012Y-27537D02*
X11012Y-28187D01*
X11612Y-26187D02*
X12512Y-26187D01*
X12512Y-26187D02*
X12512Y-26837D01*
X11612Y-27537D02*
X11612Y-28187D01*
X11612Y-28187D02*
X12512Y-28187D01*
X12512Y-28187D02*
X12512Y-27537D01*
X11612Y-26837D02*
X11612Y-26187D01*
X15512Y-49187D02*
X14612Y-49187D01*
X14612Y-49187D02*
X14612Y-48537D01*
X15512Y-47837D02*
X15512Y-47187D01*
X15512Y-47187D02*
X14612Y-47187D01*
X14612Y-47187D02*
X14612Y-47837D01*
X15512Y-48537D02*
X15512Y-49187D01*
X17612Y-26187D02*
X18512Y-26187D01*
X18512Y-26187D02*
X18512Y-26837D01*
X17612Y-27537D02*
X17612Y-28187D01*
X17612Y-28187D02*
X18512Y-28187D01*
X18512Y-28187D02*
X18512Y-27537D01*
X17612Y-26837D02*
X17612Y-26187D01*
X17012Y-49187D02*
X16112Y-49187D01*
X16112Y-49187D02*
X16112Y-48537D01*
X17012Y-47837D02*
X17012Y-47187D01*
X17012Y-47187D02*
X16112Y-47187D01*
X16112Y-47187D02*
X16112Y-47837D01*
X17012Y-48537D02*
X17012Y-49187D01*
X17612Y-33187D02*
X18512Y-33187D01*
X18512Y-33187D02*
X18512Y-33837D01*
X17612Y-34537D02*
X17612Y-35187D01*
X17612Y-35187D02*
X18512Y-35187D01*
X18512Y-35187D02*
X18512Y-34537D01*
X17612Y-33837D02*
X17612Y-33187D01*
X15512Y-35187D02*
X14612Y-35187D01*
X14612Y-35187D02*
X14612Y-34537D01*
X15512Y-33837D02*
X15512Y-33187D01*
X15512Y-33187D02*
X14612Y-33187D01*
X14612Y-33187D02*
X14612Y-33837D01*
X15512Y-34537D02*
X15512Y-35187D01*
X15512Y-42187D02*
X14612Y-42187D01*
X14612Y-42187D02*
X14612Y-41537D01*
X15512Y-40837D02*
X15512Y-40187D01*
X15512Y-40187D02*
X14612Y-40187D01*
X14612Y-40187D02*
X14612Y-40837D01*
X15512Y-41537D02*
X15512Y-42187D01*
X15512Y-28187D02*
X14612Y-28187D01*
X14612Y-28187D02*
X14612Y-27537D01*
X15512Y-26837D02*
X15512Y-26187D01*
X15512Y-26187D02*
X14612Y-26187D01*
X14612Y-26187D02*
X14612Y-26837D01*
X15512Y-27537D02*
X15512Y-28187D01*
X9512Y-42187D02*
X8612Y-42187D01*
X8612Y-42187D02*
X8612Y-41537D01*
X9512Y-40837D02*
X9512Y-40187D01*
X9512Y-40187D02*
X8612Y-40187D01*
X8612Y-40187D02*
X8612Y-40837D01*
X9512Y-41537D02*
X9512Y-42187D01*
X21512Y-42187D02*
X20612Y-42187D01*
X20612Y-42187D02*
X20612Y-41537D01*
X21512Y-40837D02*
X21512Y-40187D01*
X21512Y-40187D02*
X20612Y-40187D01*
X20612Y-40187D02*
X20612Y-40837D01*
X21512Y-41537D02*
X21512Y-42187D01*
X21512Y-35187D02*
X20612Y-35187D01*
X20612Y-35187D02*
X20612Y-34537D01*
X21512Y-33837D02*
X21512Y-33187D01*
X21512Y-33187D02*
X20612Y-33187D01*
X20612Y-33187D02*
X20612Y-33837D01*
X21512Y-34537D02*
X21512Y-35187D01*
X21512Y-49187D02*
X20612Y-49187D01*
X20612Y-49187D02*
X20612Y-48537D01*
X21512Y-47837D02*
X21512Y-47187D01*
X21512Y-47187D02*
X20612Y-47187D01*
X20612Y-47187D02*
X20612Y-47837D01*
X21512Y-48537D02*
X21512Y-49187D01*
X27512Y-35187D02*
X26612Y-35187D01*
X26612Y-35187D02*
X26612Y-34537D01*
X27512Y-33837D02*
X27512Y-33187D01*
X27512Y-33187D02*
X26612Y-33187D01*
X26612Y-33187D02*
X26612Y-33837D01*
X27512Y-34537D02*
X27512Y-35187D01*
X29612Y-40187D02*
X30512Y-40187D01*
X30512Y-40187D02*
X30512Y-40837D01*
X29612Y-41537D02*
X29612Y-42187D01*
X29612Y-42187D02*
X30512Y-42187D01*
X30512Y-42187D02*
X30512Y-41537D01*
X29612Y-40837D02*
X29612Y-40187D01*
X29012Y-28187D02*
X28112Y-28187D01*
X28112Y-28187D02*
X28112Y-27537D01*
X29012Y-26837D02*
X29012Y-26187D01*
X29012Y-26187D02*
X28112Y-26187D01*
X28112Y-26187D02*
X28112Y-26837D01*
X29012Y-27537D02*
X29012Y-28187D01*
X27512Y-28187D02*
X26612Y-28187D01*
X26612Y-28187D02*
X26612Y-27537D01*
X27512Y-26837D02*
X27512Y-26187D01*
X27512Y-26187D02*
X26612Y-26187D01*
X26612Y-26187D02*
X26612Y-26837D01*
X27512Y-27537D02*
X27512Y-28187D01*
X23012Y-49187D02*
X22112Y-49187D01*
X22112Y-49187D02*
X22112Y-48537D01*
X23012Y-47837D02*
X23012Y-47187D01*
X23012Y-47187D02*
X22112Y-47187D01*
X22112Y-47187D02*
X22112Y-47837D01*
X23012Y-48537D02*
X23012Y-49187D01*
X23612Y-47187D02*
X24512Y-47187D01*
X24512Y-47187D02*
X24512Y-47837D01*
X23612Y-48537D02*
X23612Y-49187D01*
X23612Y-49187D02*
X24512Y-49187D01*
X24512Y-49187D02*
X24512Y-48537D01*
X23612Y-47837D02*
X23612Y-47187D01*
X21512Y-28187D02*
X20612Y-28187D01*
X20612Y-28187D02*
X20612Y-27537D01*
X21512Y-26837D02*
X21512Y-26187D01*
X21512Y-26187D02*
X20612Y-26187D01*
X20612Y-26187D02*
X20612Y-26837D01*
X21512Y-27537D02*
X21512Y-28187D01*
X17612Y-40187D02*
X18512Y-40187D01*
X18512Y-40187D02*
X18512Y-40837D01*
X17612Y-41537D02*
X17612Y-42187D01*
X17612Y-42187D02*
X18512Y-42187D01*
X18512Y-42187D02*
X18512Y-41537D01*
X17612Y-40837D02*
X17612Y-40187D01*
X17612Y-47187D02*
X18512Y-47187D01*
X18512Y-47187D02*
X18512Y-47837D01*
X17612Y-48537D02*
X17612Y-49187D01*
X17612Y-49187D02*
X18512Y-49187D01*
X18512Y-49187D02*
X18512Y-48537D01*
X17612Y-47837D02*
X17612Y-47187D01*
X17012Y-28187D02*
X16112Y-28187D01*
X16112Y-28187D02*
X16112Y-27537D01*
X17012Y-26837D02*
X17012Y-26187D01*
X17012Y-26187D02*
X16112Y-26187D01*
X16112Y-26187D02*
X16112Y-26837D01*
X17012Y-27537D02*
X17012Y-28187D01*
X11612Y-40187D02*
X12512Y-40187D01*
X12512Y-40187D02*
X12512Y-40837D01*
X11612Y-41537D02*
X11612Y-42187D01*
X11612Y-42187D02*
X12512Y-42187D01*
X12512Y-42187D02*
X12512Y-41537D01*
X11612Y-40837D02*
X11612Y-40187D01*
X23012Y-35187D02*
X22112Y-35187D01*
X22112Y-35187D02*
X22112Y-34537D01*
X23012Y-33837D02*
X23012Y-33187D01*
X23012Y-33187D02*
X22112Y-33187D01*
X22112Y-33187D02*
X22112Y-33837D01*
X23012Y-34537D02*
X23012Y-35187D01*
X23012Y-42187D02*
X22112Y-42187D01*
X22112Y-42187D02*
X22112Y-41537D01*
X23012Y-40837D02*
X23012Y-40187D01*
X23012Y-40187D02*
X22112Y-40187D01*
X22112Y-40187D02*
X22112Y-40837D01*
X23012Y-41537D02*
X23012Y-42187D01*
X29012Y-42187D02*
X28112Y-42187D01*
X28112Y-42187D02*
X28112Y-41537D01*
X29012Y-40837D02*
X29012Y-40187D01*
X29012Y-40187D02*
X28112Y-40187D01*
X28112Y-40187D02*
X28112Y-40837D01*
X29012Y-41537D02*
X29012Y-42187D01*
X29012Y-35187D02*
X28112Y-35187D01*
X28112Y-35187D02*
X28112Y-34537D01*
X29012Y-33837D02*
X29012Y-33187D01*
X29012Y-33187D02*
X28112Y-33187D01*
X28112Y-33187D02*
X28112Y-33837D01*
X29012Y-34537D02*
X29012Y-35187D01*
X35012Y-35187D02*
X34112Y-35187D01*
X34112Y-35187D02*
X34112Y-34537D01*
X35012Y-33837D02*
X35012Y-33187D01*
X35012Y-33187D02*
X34112Y-33187D01*
X34112Y-33187D02*
X34112Y-33837D01*
X35012Y-34537D02*
X35012Y-35187D01*
X35012Y-42237D02*
X34112Y-42237D01*
X34112Y-42237D02*
X34112Y-41587D01*
X35012Y-40887D02*
X35012Y-40237D01*
X35012Y-40237D02*
X34112Y-40237D01*
X34112Y-40237D02*
X34112Y-40887D01*
X35012Y-41587D02*
X35012Y-42237D01*
X34700Y-10700D02*
X34700Y-9800D01*
X34700Y-9800D02*
X35350Y-9800D01*
X36050Y-10700D02*
X36700Y-10700D01*
X36700Y-10700D02*
X36700Y-9800D01*
X36700Y-9800D02*
X36050Y-9800D01*
X35350Y-10700D02*
X34700Y-10700D01*
X11012Y-42187D02*
X10112Y-42187D01*
X10112Y-42187D02*
X10112Y-41537D01*
X11012Y-40837D02*
X11012Y-40187D01*
X11012Y-40187D02*
X10112Y-40187D01*
X10112Y-40187D02*
X10112Y-40837D01*
X11012Y-41537D02*
X11012Y-42187D01*
X17012Y-35187D02*
X16112Y-35187D01*
X16112Y-35187D02*
X16112Y-34537D01*
X17012Y-33837D02*
X17012Y-33187D01*
X17012Y-33187D02*
X16112Y-33187D01*
X16112Y-33187D02*
X16112Y-33837D01*
X17012Y-34537D02*
X17012Y-35187D01*
X17012Y-42187D02*
X16112Y-42187D01*
X16112Y-42187D02*
X16112Y-41537D01*
X17012Y-40837D02*
X17012Y-40187D01*
X17012Y-40187D02*
X16112Y-40187D01*
X16112Y-40187D02*
X16112Y-40837D01*
X17012Y-41537D02*
X17012Y-42187D01*
G54D14*
X24562Y-29437D02*
X24562Y-31937D01*
X24562Y-31937D02*
X20562Y-31937D01*
X20562Y-31937D02*
X20562Y-29437D01*
X20562Y-29437D02*
X24562Y-29437D01*
G54D12*
X24562Y-30187D02*
X24062Y-30187D01*
X24062Y-30187D02*
X24062Y-31187D01*
X24062Y-31187D02*
X24562Y-31187D01*
G54D14*
X36562Y-36437D02*
X36562Y-38937D01*
X36562Y-38937D02*
X32562Y-38937D01*
X32562Y-38937D02*
X32562Y-36437D01*
X32562Y-36437D02*
X36562Y-36437D01*
G54D12*
X36562Y-37187D02*
X36062Y-37187D01*
X36062Y-37187D02*
X36062Y-38187D01*
X36062Y-38187D02*
X36562Y-38187D01*
G54D14*
X12562Y-22437D02*
X12562Y-24937D01*
X12562Y-24937D02*
X8562Y-24937D01*
X8562Y-24937D02*
X8562Y-22437D01*
X8562Y-22437D02*
X12562Y-22437D01*
G54D12*
X12562Y-23187D02*
X12062Y-23187D01*
X12062Y-23187D02*
X12062Y-24187D01*
X12062Y-24187D02*
X12562Y-24187D01*
G54D14*
X24562Y-36437D02*
X24562Y-38937D01*
X24562Y-38937D02*
X20562Y-38937D01*
X20562Y-38937D02*
X20562Y-36437D01*
X20562Y-36437D02*
X24562Y-36437D01*
G54D12*
X24562Y-37187D02*
X24062Y-37187D01*
X24062Y-37187D02*
X24062Y-38187D01*
X24062Y-38187D02*
X24562Y-38187D01*
G54D14*
X12562Y-36437D02*
X12562Y-38937D01*
X12562Y-38937D02*
X8562Y-38937D01*
X8562Y-38937D02*
X8562Y-36437D01*
X8562Y-36437D02*
X12562Y-36437D01*
G54D12*
X12562Y-37187D02*
X12062Y-37187D01*
X12062Y-37187D02*
X12062Y-38187D01*
X12062Y-38187D02*
X12562Y-38187D01*
G54D14*
X30562Y-29437D02*
X30562Y-31937D01*
X30562Y-31937D02*
X26562Y-31937D01*
X26562Y-31937D02*
X26562Y-29437D01*
X26562Y-29437D02*
X30562Y-29437D01*
G54D12*
X30562Y-30187D02*
X30062Y-30187D01*
X30062Y-30187D02*
X30062Y-31187D01*
X30062Y-31187D02*
X30562Y-31187D01*
G54D14*
X30562Y-36437D02*
X30562Y-38937D01*
X30562Y-38937D02*
X26562Y-38937D01*
X26562Y-38937D02*
X26562Y-36437D01*
X26562Y-36437D02*
X30562Y-36437D01*
G54D12*
X30562Y-37187D02*
X30062Y-37187D01*
X30062Y-37187D02*
X30062Y-38187D01*
X30062Y-38187D02*
X30562Y-38187D01*
G54D14*
X36562Y-29437D02*
X36562Y-31937D01*
X36562Y-31937D02*
X32562Y-31937D01*
X32562Y-31937D02*
X32562Y-29437D01*
X32562Y-29437D02*
X36562Y-29437D01*
G54D12*
X36562Y-30187D02*
X36062Y-30187D01*
X36062Y-30187D02*
X36062Y-31187D01*
X36062Y-31187D02*
X36562Y-31187D01*
G54D14*
X36562Y-22437D02*
X36562Y-24937D01*
X36562Y-24937D02*
X32562Y-24937D01*
X32562Y-24937D02*
X32562Y-22437D01*
X32562Y-22437D02*
X36562Y-22437D01*
G54D12*
X36562Y-23187D02*
X36062Y-23187D01*
X36062Y-23187D02*
X36062Y-24187D01*
X36062Y-24187D02*
X36562Y-24187D01*
G54D14*
X12562Y-43437D02*
X12562Y-45937D01*
X12562Y-45937D02*
X8562Y-45937D01*
X8562Y-45937D02*
X8562Y-43437D01*
X8562Y-43437D02*
X12562Y-43437D01*
G54D12*
X12562Y-44187D02*
X12062Y-44187D01*
X12062Y-44187D02*
X12062Y-45187D01*
X12062Y-45187D02*
X12562Y-45187D01*
G54D14*
X30562Y-22437D02*
X30562Y-24937D01*
X30562Y-24937D02*
X26562Y-24937D01*
X26562Y-24937D02*
X26562Y-22437D01*
X26562Y-22437D02*
X30562Y-22437D01*
G54D12*
X30562Y-23187D02*
X30062Y-23187D01*
X30062Y-23187D02*
X30062Y-24187D01*
X30062Y-24187D02*
X30562Y-24187D01*
G54D14*
X36562Y-43437D02*
X36562Y-45937D01*
X36562Y-45937D02*
X32562Y-45937D01*
X32562Y-45937D02*
X32562Y-43437D01*
X32562Y-43437D02*
X36562Y-43437D01*
G54D12*
X36562Y-44187D02*
X36062Y-44187D01*
X36062Y-44187D02*
X36062Y-45187D01*
X36062Y-45187D02*
X36562Y-45187D01*
G54D14*
X18562Y-43437D02*
X18562Y-45937D01*
X18562Y-45937D02*
X14562Y-45937D01*
X14562Y-45937D02*
X14562Y-43437D01*
X14562Y-43437D02*
X18562Y-43437D01*
G54D12*
X18562Y-44187D02*
X18062Y-44187D01*
X18062Y-44187D02*
X18062Y-45187D01*
X18062Y-45187D02*
X18562Y-45187D01*
G54D14*
X24562Y-22437D02*
X24562Y-24937D01*
X24562Y-24937D02*
X20562Y-24937D01*
X20562Y-24937D02*
X20562Y-22437D01*
X20562Y-22437D02*
X24562Y-22437D01*
G54D12*
X24562Y-23187D02*
X24062Y-23187D01*
X24062Y-23187D02*
X24062Y-24187D01*
X24062Y-24187D02*
X24562Y-24187D01*
G54D14*
X18562Y-29437D02*
X18562Y-31937D01*
X18562Y-31937D02*
X14562Y-31937D01*
X14562Y-31937D02*
X14562Y-29437D01*
X14562Y-29437D02*
X18562Y-29437D01*
G54D12*
X18562Y-30187D02*
X18062Y-30187D01*
X18062Y-30187D02*
X18062Y-31187D01*
X18062Y-31187D02*
X18562Y-31187D01*
G54D14*
X24562Y-43437D02*
X24562Y-45937D01*
X24562Y-45937D02*
X20562Y-45937D01*
X20562Y-45937D02*
X20562Y-43437D01*
X20562Y-43437D02*
X24562Y-43437D01*
G54D12*
X24562Y-44187D02*
X24062Y-44187D01*
X24062Y-44187D02*
X24062Y-45187D01*
X24062Y-45187D02*
X24562Y-45187D01*
G54D14*
X12562Y-29437D02*
X12562Y-31937D01*
X12562Y-31937D02*
X8562Y-31937D01*
X8562Y-31937D02*
X8562Y-29437D01*
X8562Y-29437D02*
X12562Y-29437D01*
G54D12*
X12562Y-30187D02*
X12062Y-30187D01*
X12062Y-30187D02*
X12062Y-31187D01*
X12062Y-31187D02*
X12562Y-31187D01*
G54D14*
X18562Y-22437D02*
X18562Y-24937D01*
X18562Y-24937D02*
X14562Y-24937D01*
X14562Y-24937D02*
X14562Y-22437D01*
X14562Y-22437D02*
X18562Y-22437D01*
G54D12*
X18562Y-23187D02*
X18062Y-23187D01*
X18062Y-23187D02*
X18062Y-24187D01*
X18062Y-24187D02*
X18562Y-24187D01*
G54D15*
X8262Y-15412D02*
X8262Y-14262D01*
X8262Y-14262D02*
X9862Y-14262D01*
X9862Y-14262D02*
X9862Y-15412D01*
X8262Y-16412D02*
X8262Y-17562D01*
X8262Y-17562D02*
X9862Y-17562D01*
X9862Y-17562D02*
X9862Y-16412D01*
G54D14*
X30562Y-43437D02*
X30562Y-45937D01*
X30562Y-45937D02*
X26562Y-45937D01*
X26562Y-45937D02*
X26562Y-43437D01*
X26562Y-43437D02*
X30562Y-43437D01*
G54D12*
X30562Y-44187D02*
X30062Y-44187D01*
X30062Y-44187D02*
X30062Y-45187D01*
X30062Y-45187D02*
X30562Y-45187D01*
G54D14*
X18562Y-36437D02*
X18562Y-38937D01*
X18562Y-38937D02*
X14562Y-38937D01*
X14562Y-38937D02*
X14562Y-36437D01*
X14562Y-36437D02*
X18562Y-36437D01*
G54D12*
X18562Y-37187D02*
X18062Y-37187D01*
X18062Y-37187D02*
X18062Y-38187D01*
X18062Y-38187D02*
X18562Y-38187D01*
G54D16*
X18712Y-19087D02*
X14412Y-19087D01*
X14412Y-19087D02*
X14412Y-20487D01*
X14412Y-20487D02*
X18712Y-20487D01*
X18712Y-20487D02*
X18712Y-19087D01*
X18712Y-19587D02*
X18412Y-19587D01*
X18412Y-19587D02*
X18412Y-19987D01*
X18412Y-19987D02*
X18712Y-19987D01*
X24712Y-19087D02*
X20412Y-19087D01*
X20412Y-19087D02*
X20412Y-20487D01*
X20412Y-20487D02*
X24712Y-20487D01*
X24712Y-20487D02*
X24712Y-19087D01*
X24712Y-19587D02*
X24412Y-19587D01*
X24412Y-19587D02*
X24412Y-19987D01*
X24412Y-19987D02*
X24712Y-19987D01*
X30712Y-19087D02*
X26412Y-19087D01*
X26412Y-19087D02*
X26412Y-20487D01*
X26412Y-20487D02*
X30712Y-20487D01*
X30712Y-20487D02*
X30712Y-19087D01*
X30712Y-19587D02*
X30412Y-19587D01*
X30412Y-19587D02*
X30412Y-19987D01*
X30412Y-19987D02*
X30712Y-19987D01*
X36712Y-19037D02*
X32412Y-19037D01*
X32412Y-19037D02*
X32412Y-20437D01*
X32412Y-20437D02*
X36712Y-20437D01*
X36712Y-20437D02*
X36712Y-19037D01*
X36712Y-19537D02*
X36412Y-19537D01*
X36412Y-19537D02*
X36412Y-19937D01*
X36412Y-19937D02*
X36712Y-19937D01*
G54D12*
X18900Y-8700D02*
X18900Y-9700D01*
X18900Y-9700D02*
X24900Y-9700D01*
X24900Y-9700D02*
X24900Y-8700D01*
X24900Y-8700D02*
X18900Y-8700D01*
X19900Y-8700D02*
X19900Y-9700D01*
G54D16*
X12712Y-19087D02*
X8412Y-19087D01*
X8412Y-19087D02*
X8412Y-20487D01*
X8412Y-20487D02*
X12712Y-20487D01*
X12712Y-20487D02*
X12712Y-19087D01*
X12712Y-19587D02*
X12412Y-19587D01*
X12412Y-19587D02*
X12412Y-19987D01*
X12412Y-19987D02*
X12712Y-19987D01*
G54D13*
X34700Y-12700D02*
X34700Y-11800D01*
X34700Y-11800D02*
X35350Y-11800D01*
X36050Y-12700D02*
X36700Y-12700D01*
X36700Y-12700D02*
X36700Y-11800D01*
X36700Y-11800D02*
X36050Y-11800D01*
X35350Y-12700D02*
X34700Y-12700D01*
X34700Y-13700D02*
X34700Y-12800D01*
X34700Y-12800D02*
X35350Y-12800D01*
X36050Y-13700D02*
X36700Y-13700D01*
X36700Y-13700D02*
X36700Y-12800D01*
X36700Y-12800D02*
X36050Y-12800D01*
X35350Y-13700D02*
X34700Y-13700D01*
X25150Y-7650D02*
X26050Y-7650D01*
X26050Y-7650D02*
X26050Y-8300D01*
X25150Y-9000D02*
X25150Y-9650D01*
X25150Y-9650D02*
X26050Y-9650D01*
X26050Y-9650D02*
X26050Y-9000D01*
X25150Y-8300D02*
X25150Y-7650D01*
X21030Y-15340D02*
X21030Y-16240D01*
X21030Y-16240D02*
X20380Y-16240D01*
X19680Y-15340D02*
X19030Y-15340D01*
X19030Y-15340D02*
X19030Y-16240D01*
X19030Y-16240D02*
X19680Y-16240D01*
X20380Y-15340D02*
X21030Y-15340D01*
X34700Y-11700D02*
X34700Y-10800D01*
X34700Y-10800D02*
X35350Y-10800D01*
X36050Y-11700D02*
X36700Y-11700D01*
X36700Y-11700D02*
X36700Y-10800D01*
X36700Y-10800D02*
X36050Y-10800D01*
X35350Y-11700D02*
X34700Y-11700D01*
X10683Y-35494D02*
X10541Y-35394D01*
X10683Y-35323D02*
X10383Y-35323D01*
X10383Y-35437D01*
X10398Y-35466D01*
X10412Y-35480D01*
X10441Y-35494D01*
X10483Y-35494D01*
X10512Y-35480D01*
X10526Y-35466D01*
X10541Y-35437D01*
X10541Y-35323D01*
X10383Y-35766D02*
X10383Y-35623D01*
X10526Y-35608D01*
X10512Y-35623D01*
X10498Y-35651D01*
X10498Y-35723D01*
X10512Y-35751D01*
X10526Y-35766D01*
X10555Y-35780D01*
X10626Y-35780D01*
X10655Y-35766D01*
X10669Y-35751D01*
X10683Y-35723D01*
X10683Y-35651D01*
X10669Y-35623D01*
X10655Y-35608D01*
X10383Y-36037D02*
X10383Y-35980D01*
X10398Y-35951D01*
X10412Y-35937D01*
X10455Y-35908D01*
X10512Y-35894D01*
X10626Y-35894D01*
X10655Y-35908D01*
X10669Y-35923D01*
X10683Y-35951D01*
X10683Y-36008D01*
X10669Y-36037D01*
X10655Y-36051D01*
X10626Y-36066D01*
X10555Y-36066D01*
X10526Y-36051D01*
X10512Y-36037D01*
X10498Y-36008D01*
X10498Y-35951D01*
X10512Y-35923D01*
X10526Y-35908D01*
X10555Y-35894D01*
X36883Y-47994D02*
X36741Y-47894D01*
X36883Y-47823D02*
X36583Y-47823D01*
X36583Y-47937D01*
X36598Y-47966D01*
X36612Y-47980D01*
X36641Y-47994D01*
X36683Y-47994D01*
X36712Y-47980D01*
X36726Y-47966D01*
X36741Y-47937D01*
X36741Y-47823D01*
X36583Y-48251D02*
X36583Y-48194D01*
X36598Y-48166D01*
X36612Y-48151D01*
X36655Y-48123D01*
X36712Y-48108D01*
X36826Y-48108D01*
X36855Y-48123D01*
X36869Y-48137D01*
X36883Y-48166D01*
X36883Y-48223D01*
X36869Y-48251D01*
X36855Y-48266D01*
X36826Y-48280D01*
X36755Y-48280D01*
X36726Y-48266D01*
X36712Y-48251D01*
X36698Y-48223D01*
X36698Y-48166D01*
X36712Y-48137D01*
X36726Y-48123D01*
X36755Y-48108D01*
X36583Y-48380D02*
X36583Y-48566D01*
X36698Y-48466D01*
X36698Y-48508D01*
X36712Y-48537D01*
X36726Y-48551D01*
X36755Y-48566D01*
X36826Y-48566D01*
X36855Y-48551D01*
X36869Y-48537D01*
X36883Y-48508D01*
X36883Y-48423D01*
X36869Y-48394D01*
X36855Y-48380D01*
X35333Y-47994D02*
X35191Y-47894D01*
X35333Y-47823D02*
X35033Y-47823D01*
X35033Y-47937D01*
X35048Y-47966D01*
X35062Y-47980D01*
X35091Y-47994D01*
X35133Y-47994D01*
X35162Y-47980D01*
X35176Y-47966D01*
X35191Y-47937D01*
X35191Y-47823D01*
X35033Y-48251D02*
X35033Y-48194D01*
X35048Y-48166D01*
X35062Y-48151D01*
X35105Y-48123D01*
X35162Y-48108D01*
X35276Y-48108D01*
X35305Y-48123D01*
X35319Y-48137D01*
X35333Y-48166D01*
X35333Y-48223D01*
X35319Y-48251D01*
X35305Y-48266D01*
X35276Y-48280D01*
X35205Y-48280D01*
X35176Y-48266D01*
X35162Y-48251D01*
X35148Y-48223D01*
X35148Y-48166D01*
X35162Y-48137D01*
X35176Y-48123D01*
X35205Y-48108D01*
X35133Y-48537D02*
X35333Y-48537D01*
X35019Y-48466D02*
X35233Y-48394D01*
X35233Y-48580D01*
X32483Y-26994D02*
X32341Y-26894D01*
X32483Y-26823D02*
X32183Y-26823D01*
X32183Y-26937D01*
X32198Y-26966D01*
X32212Y-26980D01*
X32241Y-26994D01*
X32283Y-26994D01*
X32312Y-26980D01*
X32326Y-26966D01*
X32341Y-26937D01*
X32341Y-26823D01*
X32183Y-27094D02*
X32183Y-27294D01*
X32483Y-27166D01*
X32183Y-27380D02*
X32183Y-27566D01*
X32298Y-27466D01*
X32298Y-27508D01*
X32312Y-27537D01*
X32326Y-27551D01*
X32355Y-27566D01*
X32426Y-27566D01*
X32455Y-27551D01*
X32469Y-27537D01*
X32483Y-27508D01*
X32483Y-27423D01*
X32469Y-27394D01*
X32455Y-27380D01*
X26533Y-40994D02*
X26391Y-40894D01*
X26533Y-40823D02*
X26233Y-40823D01*
X26233Y-40937D01*
X26248Y-40966D01*
X26262Y-40980D01*
X26291Y-40994D01*
X26333Y-40994D01*
X26362Y-40980D01*
X26376Y-40966D01*
X26391Y-40937D01*
X26391Y-40823D01*
X26362Y-41166D02*
X26348Y-41137D01*
X26333Y-41123D01*
X26305Y-41108D01*
X26291Y-41108D01*
X26262Y-41123D01*
X26248Y-41137D01*
X26233Y-41166D01*
X26233Y-41223D01*
X26248Y-41251D01*
X26262Y-41266D01*
X26291Y-41280D01*
X26305Y-41280D01*
X26333Y-41266D01*
X26348Y-41251D01*
X26362Y-41223D01*
X26362Y-41166D01*
X26376Y-41137D01*
X26391Y-41123D01*
X26419Y-41108D01*
X26476Y-41108D01*
X26505Y-41123D01*
X26519Y-41137D01*
X26533Y-41166D01*
X26533Y-41223D01*
X26519Y-41251D01*
X26505Y-41266D01*
X26476Y-41280D01*
X26419Y-41280D01*
X26391Y-41266D01*
X26376Y-41251D01*
X26362Y-41223D01*
X26233Y-41380D02*
X26233Y-41566D01*
X26348Y-41466D01*
X26348Y-41508D01*
X26362Y-41537D01*
X26376Y-41551D01*
X26405Y-41566D01*
X26476Y-41566D01*
X26505Y-41551D01*
X26519Y-41537D01*
X26533Y-41508D01*
X26533Y-41423D01*
X26519Y-41394D01*
X26505Y-41380D01*
X30883Y-26994D02*
X30741Y-26894D01*
X30883Y-26823D02*
X30583Y-26823D01*
X30583Y-26937D01*
X30598Y-26966D01*
X30612Y-26980D01*
X30641Y-26994D01*
X30683Y-26994D01*
X30712Y-26980D01*
X30726Y-26966D01*
X30741Y-26937D01*
X30741Y-26823D01*
X30583Y-27094D02*
X30583Y-27294D01*
X30883Y-27166D01*
X30883Y-27423D02*
X30883Y-27480D01*
X30869Y-27508D01*
X30855Y-27523D01*
X30812Y-27551D01*
X30755Y-27566D01*
X30641Y-27566D01*
X30612Y-27551D01*
X30598Y-27537D01*
X30583Y-27508D01*
X30583Y-27451D01*
X30598Y-27423D01*
X30612Y-27408D01*
X30641Y-27394D01*
X30712Y-27394D01*
X30741Y-27408D01*
X30755Y-27423D01*
X30769Y-27451D01*
X30769Y-27508D01*
X30755Y-27537D01*
X30741Y-27551D01*
X30712Y-27566D01*
X30883Y-33994D02*
X30741Y-33894D01*
X30883Y-33823D02*
X30583Y-33823D01*
X30583Y-33937D01*
X30598Y-33966D01*
X30612Y-33980D01*
X30641Y-33994D01*
X30683Y-33994D01*
X30712Y-33980D01*
X30726Y-33966D01*
X30741Y-33937D01*
X30741Y-33823D01*
X30583Y-34094D02*
X30583Y-34294D01*
X30883Y-34166D01*
X30712Y-34451D02*
X30698Y-34423D01*
X30683Y-34408D01*
X30655Y-34394D01*
X30641Y-34394D01*
X30612Y-34408D01*
X30598Y-34423D01*
X30583Y-34451D01*
X30583Y-34508D01*
X30598Y-34537D01*
X30612Y-34551D01*
X30641Y-34566D01*
X30655Y-34566D01*
X30683Y-34551D01*
X30698Y-34537D01*
X30712Y-34508D01*
X30712Y-34451D01*
X30726Y-34423D01*
X30741Y-34408D01*
X30769Y-34394D01*
X30826Y-34394D01*
X30855Y-34408D01*
X30869Y-34423D01*
X30883Y-34451D01*
X30883Y-34508D01*
X30869Y-34537D01*
X30855Y-34551D01*
X30826Y-34566D01*
X30769Y-34566D01*
X30741Y-34551D01*
X30726Y-34537D01*
X30712Y-34508D01*
X26483Y-47994D02*
X26341Y-47894D01*
X26483Y-47823D02*
X26183Y-47823D01*
X26183Y-47937D01*
X26198Y-47966D01*
X26212Y-47980D01*
X26241Y-47994D01*
X26283Y-47994D01*
X26312Y-47980D01*
X26326Y-47966D01*
X26341Y-47937D01*
X26341Y-47823D01*
X26312Y-48166D02*
X26298Y-48137D01*
X26283Y-48123D01*
X26255Y-48108D01*
X26241Y-48108D01*
X26212Y-48123D01*
X26198Y-48137D01*
X26183Y-48166D01*
X26183Y-48223D01*
X26198Y-48251D01*
X26212Y-48266D01*
X26241Y-48280D01*
X26255Y-48280D01*
X26283Y-48266D01*
X26298Y-48251D01*
X26312Y-48223D01*
X26312Y-48166D01*
X26326Y-48137D01*
X26341Y-48123D01*
X26369Y-48108D01*
X26426Y-48108D01*
X26455Y-48123D01*
X26469Y-48137D01*
X26483Y-48166D01*
X26483Y-48223D01*
X26469Y-48251D01*
X26455Y-48266D01*
X26426Y-48280D01*
X26369Y-48280D01*
X26341Y-48266D01*
X26326Y-48251D01*
X26312Y-48223D01*
X26212Y-48394D02*
X26198Y-48408D01*
X26183Y-48437D01*
X26183Y-48508D01*
X26198Y-48537D01*
X26212Y-48551D01*
X26241Y-48566D01*
X26269Y-48566D01*
X26312Y-48551D01*
X26483Y-48380D01*
X26483Y-48566D01*
X24883Y-26994D02*
X24741Y-26894D01*
X24883Y-26823D02*
X24583Y-26823D01*
X24583Y-26937D01*
X24598Y-26966D01*
X24612Y-26980D01*
X24641Y-26994D01*
X24683Y-26994D01*
X24712Y-26980D01*
X24726Y-26966D01*
X24741Y-26937D01*
X24741Y-26823D01*
X24883Y-27137D02*
X24883Y-27194D01*
X24869Y-27223D01*
X24855Y-27237D01*
X24812Y-27266D01*
X24755Y-27280D01*
X24641Y-27280D01*
X24612Y-27266D01*
X24598Y-27251D01*
X24583Y-27223D01*
X24583Y-27166D01*
X24598Y-27137D01*
X24612Y-27123D01*
X24641Y-27108D01*
X24712Y-27108D01*
X24741Y-27123D01*
X24755Y-27137D01*
X24769Y-27166D01*
X24769Y-27223D01*
X24755Y-27251D01*
X24741Y-27266D01*
X24712Y-27280D01*
X24883Y-27566D02*
X24883Y-27394D01*
X24883Y-27480D02*
X24583Y-27480D01*
X24626Y-27451D01*
X24655Y-27423D01*
X24669Y-27394D01*
X24883Y-40994D02*
X24741Y-40894D01*
X24883Y-40823D02*
X24583Y-40823D01*
X24583Y-40937D01*
X24598Y-40966D01*
X24612Y-40980D01*
X24641Y-40994D01*
X24683Y-40994D01*
X24712Y-40980D01*
X24726Y-40966D01*
X24741Y-40937D01*
X24741Y-40823D01*
X24712Y-41166D02*
X24698Y-41137D01*
X24683Y-41123D01*
X24655Y-41108D01*
X24641Y-41108D01*
X24612Y-41123D01*
X24598Y-41137D01*
X24583Y-41166D01*
X24583Y-41223D01*
X24598Y-41251D01*
X24612Y-41266D01*
X24641Y-41280D01*
X24655Y-41280D01*
X24683Y-41266D01*
X24698Y-41251D01*
X24712Y-41223D01*
X24712Y-41166D01*
X24726Y-41137D01*
X24741Y-41123D01*
X24769Y-41108D01*
X24826Y-41108D01*
X24855Y-41123D01*
X24869Y-41137D01*
X24883Y-41166D01*
X24883Y-41223D01*
X24869Y-41251D01*
X24855Y-41266D01*
X24826Y-41280D01*
X24769Y-41280D01*
X24741Y-41266D01*
X24726Y-41251D01*
X24712Y-41223D01*
X24883Y-41423D02*
X24883Y-41480D01*
X24869Y-41508D01*
X24855Y-41523D01*
X24812Y-41551D01*
X24755Y-41566D01*
X24641Y-41566D01*
X24612Y-41551D01*
X24598Y-41537D01*
X24583Y-41508D01*
X24583Y-41451D01*
X24598Y-41423D01*
X24612Y-41408D01*
X24641Y-41394D01*
X24712Y-41394D01*
X24741Y-41408D01*
X24755Y-41423D01*
X24769Y-41451D01*
X24769Y-41508D01*
X24755Y-41537D01*
X24741Y-41551D01*
X24712Y-41566D01*
X24833Y-33994D02*
X24691Y-33894D01*
X24833Y-33823D02*
X24533Y-33823D01*
X24533Y-33937D01*
X24548Y-33966D01*
X24562Y-33980D01*
X24591Y-33994D01*
X24633Y-33994D01*
X24662Y-33980D01*
X24676Y-33966D01*
X24691Y-33937D01*
X24691Y-33823D01*
X24833Y-34137D02*
X24833Y-34194D01*
X24819Y-34223D01*
X24805Y-34237D01*
X24762Y-34266D01*
X24705Y-34280D01*
X24591Y-34280D01*
X24562Y-34266D01*
X24548Y-34251D01*
X24533Y-34223D01*
X24533Y-34166D01*
X24548Y-34137D01*
X24562Y-34123D01*
X24591Y-34108D01*
X24662Y-34108D01*
X24691Y-34123D01*
X24705Y-34137D01*
X24719Y-34166D01*
X24719Y-34223D01*
X24705Y-34251D01*
X24691Y-34266D01*
X24662Y-34280D01*
X24533Y-34466D02*
X24533Y-34494D01*
X24548Y-34523D01*
X24562Y-34537D01*
X24591Y-34551D01*
X24648Y-34566D01*
X24719Y-34566D01*
X24776Y-34551D01*
X24805Y-34537D01*
X24819Y-34523D01*
X24833Y-34494D01*
X24833Y-34466D01*
X24819Y-34437D01*
X24805Y-34423D01*
X24776Y-34408D01*
X24719Y-34394D01*
X24648Y-34394D01*
X24591Y-34408D01*
X24562Y-34423D01*
X24548Y-34437D01*
X24533Y-34466D01*
X23333Y-26994D02*
X23191Y-26894D01*
X23333Y-26823D02*
X23033Y-26823D01*
X23033Y-26937D01*
X23048Y-26966D01*
X23062Y-26980D01*
X23091Y-26994D01*
X23133Y-26994D01*
X23162Y-26980D01*
X23176Y-26966D01*
X23191Y-26937D01*
X23191Y-26823D01*
X23333Y-27137D02*
X23333Y-27194D01*
X23319Y-27223D01*
X23305Y-27237D01*
X23262Y-27266D01*
X23205Y-27280D01*
X23091Y-27280D01*
X23062Y-27266D01*
X23048Y-27251D01*
X23033Y-27223D01*
X23033Y-27166D01*
X23048Y-27137D01*
X23062Y-27123D01*
X23091Y-27108D01*
X23162Y-27108D01*
X23191Y-27123D01*
X23205Y-27137D01*
X23219Y-27166D01*
X23219Y-27223D01*
X23205Y-27251D01*
X23191Y-27266D01*
X23162Y-27280D01*
X23062Y-27394D02*
X23048Y-27408D01*
X23033Y-27437D01*
X23033Y-27508D01*
X23048Y-27537D01*
X23062Y-27551D01*
X23091Y-27566D01*
X23119Y-27566D01*
X23162Y-27551D01*
X23333Y-27380D01*
X23333Y-27566D01*
X36933Y-26994D02*
X36791Y-26894D01*
X36933Y-26823D02*
X36633Y-26823D01*
X36633Y-26937D01*
X36648Y-26966D01*
X36662Y-26980D01*
X36691Y-26994D01*
X36733Y-26994D01*
X36762Y-26980D01*
X36776Y-26966D01*
X36791Y-26937D01*
X36791Y-26823D01*
X36633Y-27251D02*
X36633Y-27194D01*
X36648Y-27166D01*
X36662Y-27151D01*
X36705Y-27123D01*
X36762Y-27108D01*
X36876Y-27108D01*
X36905Y-27123D01*
X36919Y-27137D01*
X36933Y-27166D01*
X36933Y-27223D01*
X36919Y-27251D01*
X36905Y-27266D01*
X36876Y-27280D01*
X36805Y-27280D01*
X36776Y-27266D01*
X36762Y-27251D01*
X36748Y-27223D01*
X36748Y-27166D01*
X36762Y-27137D01*
X36776Y-27123D01*
X36805Y-27108D01*
X36633Y-27380D02*
X36633Y-27580D01*
X36933Y-27451D01*
X36883Y-41044D02*
X36741Y-40944D01*
X36883Y-40873D02*
X36583Y-40873D01*
X36583Y-40987D01*
X36598Y-41016D01*
X36612Y-41030D01*
X36641Y-41044D01*
X36683Y-41044D01*
X36712Y-41030D01*
X36726Y-41016D01*
X36741Y-40987D01*
X36741Y-40873D01*
X36583Y-41301D02*
X36583Y-41244D01*
X36598Y-41216D01*
X36612Y-41201D01*
X36655Y-41173D01*
X36712Y-41158D01*
X36826Y-41158D01*
X36855Y-41173D01*
X36869Y-41187D01*
X36883Y-41216D01*
X36883Y-41273D01*
X36869Y-41301D01*
X36855Y-41316D01*
X36826Y-41330D01*
X36755Y-41330D01*
X36726Y-41316D01*
X36712Y-41301D01*
X36698Y-41273D01*
X36698Y-41216D01*
X36712Y-41187D01*
X36726Y-41173D01*
X36755Y-41158D01*
X36583Y-41601D02*
X36583Y-41458D01*
X36726Y-41444D01*
X36712Y-41458D01*
X36698Y-41487D01*
X36698Y-41558D01*
X36712Y-41587D01*
X36726Y-41601D01*
X36755Y-41616D01*
X36826Y-41616D01*
X36855Y-41601D01*
X36869Y-41587D01*
X36883Y-41558D01*
X36883Y-41487D01*
X36869Y-41458D01*
X36855Y-41444D01*
X36883Y-33994D02*
X36741Y-33894D01*
X36883Y-33823D02*
X36583Y-33823D01*
X36583Y-33937D01*
X36598Y-33966D01*
X36612Y-33980D01*
X36641Y-33994D01*
X36683Y-33994D01*
X36712Y-33980D01*
X36726Y-33966D01*
X36741Y-33937D01*
X36741Y-33823D01*
X36583Y-34251D02*
X36583Y-34194D01*
X36598Y-34166D01*
X36612Y-34151D01*
X36655Y-34123D01*
X36712Y-34108D01*
X36826Y-34108D01*
X36855Y-34123D01*
X36869Y-34137D01*
X36883Y-34166D01*
X36883Y-34223D01*
X36869Y-34251D01*
X36855Y-34266D01*
X36826Y-34280D01*
X36755Y-34280D01*
X36726Y-34266D01*
X36712Y-34251D01*
X36698Y-34223D01*
X36698Y-34166D01*
X36712Y-34137D01*
X36726Y-34123D01*
X36755Y-34108D01*
X36583Y-34537D02*
X36583Y-34480D01*
X36598Y-34451D01*
X36612Y-34437D01*
X36655Y-34408D01*
X36712Y-34394D01*
X36826Y-34394D01*
X36855Y-34408D01*
X36869Y-34423D01*
X36883Y-34451D01*
X36883Y-34508D01*
X36869Y-34537D01*
X36855Y-34551D01*
X36826Y-34566D01*
X36755Y-34566D01*
X36726Y-34551D01*
X36712Y-34537D01*
X36698Y-34508D01*
X36698Y-34451D01*
X36712Y-34423D01*
X36726Y-34408D01*
X36755Y-34394D01*
X35333Y-26994D02*
X35191Y-26894D01*
X35333Y-26823D02*
X35033Y-26823D01*
X35033Y-26937D01*
X35048Y-26966D01*
X35062Y-26980D01*
X35091Y-26994D01*
X35133Y-26994D01*
X35162Y-26980D01*
X35176Y-26966D01*
X35191Y-26937D01*
X35191Y-26823D01*
X35033Y-27251D02*
X35033Y-27194D01*
X35048Y-27166D01*
X35062Y-27151D01*
X35105Y-27123D01*
X35162Y-27108D01*
X35276Y-27108D01*
X35305Y-27123D01*
X35319Y-27137D01*
X35333Y-27166D01*
X35333Y-27223D01*
X35319Y-27251D01*
X35305Y-27266D01*
X35276Y-27280D01*
X35205Y-27280D01*
X35176Y-27266D01*
X35162Y-27251D01*
X35148Y-27223D01*
X35148Y-27166D01*
X35162Y-27137D01*
X35176Y-27123D01*
X35205Y-27108D01*
X35162Y-27451D02*
X35148Y-27423D01*
X35133Y-27408D01*
X35105Y-27394D01*
X35091Y-27394D01*
X35062Y-27408D01*
X35048Y-27423D01*
X35033Y-27451D01*
X35033Y-27508D01*
X35048Y-27537D01*
X35062Y-27551D01*
X35091Y-27566D01*
X35105Y-27566D01*
X35133Y-27551D01*
X35148Y-27537D01*
X35162Y-27508D01*
X35162Y-27451D01*
X35176Y-27423D01*
X35191Y-27408D01*
X35219Y-27394D01*
X35276Y-27394D01*
X35305Y-27408D01*
X35319Y-27423D01*
X35333Y-27451D01*
X35333Y-27508D01*
X35319Y-27537D01*
X35305Y-27551D01*
X35276Y-27566D01*
X35219Y-27566D01*
X35191Y-27551D01*
X35176Y-27537D01*
X35162Y-27508D01*
X29333Y-47994D02*
X29191Y-47894D01*
X29333Y-47823D02*
X29033Y-47823D01*
X29033Y-47937D01*
X29048Y-47966D01*
X29062Y-47980D01*
X29091Y-47994D01*
X29133Y-47994D01*
X29162Y-47980D01*
X29176Y-47966D01*
X29191Y-47937D01*
X29191Y-47823D01*
X29033Y-48094D02*
X29033Y-48294D01*
X29333Y-48166D01*
X29033Y-48551D02*
X29033Y-48408D01*
X29176Y-48394D01*
X29162Y-48408D01*
X29148Y-48437D01*
X29148Y-48508D01*
X29162Y-48537D01*
X29176Y-48551D01*
X29205Y-48566D01*
X29276Y-48566D01*
X29305Y-48551D01*
X29319Y-48537D01*
X29333Y-48508D01*
X29333Y-48437D01*
X29319Y-48408D01*
X29305Y-48394D01*
X32483Y-41044D02*
X32341Y-40944D01*
X32483Y-40873D02*
X32183Y-40873D01*
X32183Y-40987D01*
X32198Y-41016D01*
X32212Y-41030D01*
X32241Y-41044D01*
X32283Y-41044D01*
X32312Y-41030D01*
X32326Y-41016D01*
X32341Y-40987D01*
X32341Y-40873D01*
X32183Y-41144D02*
X32183Y-41344D01*
X32483Y-41216D01*
X32483Y-41616D02*
X32483Y-41444D01*
X32483Y-41530D02*
X32183Y-41530D01*
X32226Y-41501D01*
X32255Y-41473D01*
X32269Y-41444D01*
X32483Y-33994D02*
X32341Y-33894D01*
X32483Y-33823D02*
X32183Y-33823D01*
X32183Y-33937D01*
X32198Y-33966D01*
X32212Y-33980D01*
X32241Y-33994D01*
X32283Y-33994D01*
X32312Y-33980D01*
X32326Y-33966D01*
X32341Y-33937D01*
X32341Y-33823D01*
X32183Y-34094D02*
X32183Y-34294D01*
X32483Y-34166D01*
X32212Y-34394D02*
X32198Y-34408D01*
X32183Y-34437D01*
X32183Y-34508D01*
X32198Y-34537D01*
X32212Y-34551D01*
X32241Y-34566D01*
X32269Y-34566D01*
X32312Y-34551D01*
X32483Y-34380D01*
X32483Y-34566D01*
X30883Y-47994D02*
X30741Y-47894D01*
X30883Y-47823D02*
X30583Y-47823D01*
X30583Y-47937D01*
X30598Y-47966D01*
X30612Y-47980D01*
X30641Y-47994D01*
X30683Y-47994D01*
X30712Y-47980D01*
X30726Y-47966D01*
X30741Y-47937D01*
X30741Y-47823D01*
X30583Y-48094D02*
X30583Y-48294D01*
X30883Y-48166D01*
X30583Y-48537D02*
X30583Y-48480D01*
X30598Y-48451D01*
X30612Y-48437D01*
X30655Y-48408D01*
X30712Y-48394D01*
X30826Y-48394D01*
X30855Y-48408D01*
X30869Y-48423D01*
X30883Y-48451D01*
X30883Y-48508D01*
X30869Y-48537D01*
X30855Y-48551D01*
X30826Y-48566D01*
X30755Y-48566D01*
X30726Y-48551D01*
X30712Y-48537D01*
X30698Y-48508D01*
X30698Y-48451D01*
X30712Y-48423D01*
X30726Y-48408D01*
X30755Y-48394D01*
X32483Y-47994D02*
X32341Y-47894D01*
X32483Y-47823D02*
X32183Y-47823D01*
X32183Y-47937D01*
X32198Y-47966D01*
X32212Y-47980D01*
X32241Y-47994D01*
X32283Y-47994D01*
X32312Y-47980D01*
X32326Y-47966D01*
X32341Y-47937D01*
X32341Y-47823D01*
X32183Y-48251D02*
X32183Y-48194D01*
X32198Y-48166D01*
X32212Y-48151D01*
X32255Y-48123D01*
X32312Y-48108D01*
X32426Y-48108D01*
X32455Y-48123D01*
X32469Y-48137D01*
X32483Y-48166D01*
X32483Y-48223D01*
X32469Y-48251D01*
X32455Y-48266D01*
X32426Y-48280D01*
X32355Y-48280D01*
X32326Y-48266D01*
X32312Y-48251D01*
X32298Y-48223D01*
X32298Y-48166D01*
X32312Y-48137D01*
X32326Y-48123D01*
X32355Y-48108D01*
X32483Y-48423D02*
X32483Y-48480D01*
X32469Y-48508D01*
X32455Y-48523D01*
X32412Y-48551D01*
X32355Y-48566D01*
X32241Y-48566D01*
X32212Y-48551D01*
X32198Y-48537D01*
X32183Y-48508D01*
X32183Y-48451D01*
X32198Y-48423D01*
X32212Y-48408D01*
X32241Y-48394D01*
X32312Y-48394D01*
X32341Y-48408D01*
X32355Y-48423D01*
X32369Y-48451D01*
X32369Y-48508D01*
X32355Y-48537D01*
X32341Y-48551D01*
X32312Y-48566D01*
X12883Y-47851D02*
X12741Y-47751D01*
X12883Y-47680D02*
X12583Y-47680D01*
X12583Y-47794D01*
X12598Y-47823D01*
X12612Y-47837D01*
X12641Y-47851D01*
X12683Y-47851D01*
X12712Y-47837D01*
X12726Y-47823D01*
X12741Y-47794D01*
X12741Y-47680D01*
X12883Y-48137D02*
X12883Y-47966D01*
X12883Y-48051D02*
X12583Y-48051D01*
X12626Y-48023D01*
X12655Y-47994D01*
X12669Y-47966D01*
X12883Y-48423D02*
X12883Y-48251D01*
X12883Y-48337D02*
X12583Y-48337D01*
X12626Y-48308D01*
X12655Y-48280D01*
X12669Y-48251D01*
X12583Y-48523D02*
X12583Y-48708D01*
X12698Y-48608D01*
X12698Y-48651D01*
X12712Y-48680D01*
X12726Y-48694D01*
X12755Y-48708D01*
X12826Y-48708D01*
X12855Y-48694D01*
X12869Y-48680D01*
X12883Y-48651D01*
X12883Y-48566D01*
X12869Y-48537D01*
X12855Y-48523D01*
X11333Y-47801D02*
X11191Y-47701D01*
X11333Y-47630D02*
X11033Y-47630D01*
X11033Y-47744D01*
X11048Y-47773D01*
X11062Y-47787D01*
X11091Y-47801D01*
X11133Y-47801D01*
X11162Y-47787D01*
X11176Y-47773D01*
X11191Y-47744D01*
X11191Y-47630D01*
X11333Y-48087D02*
X11333Y-47916D01*
X11333Y-48001D02*
X11033Y-48001D01*
X11076Y-47973D01*
X11105Y-47944D01*
X11119Y-47916D01*
X11333Y-48373D02*
X11333Y-48201D01*
X11333Y-48287D02*
X11033Y-48287D01*
X11076Y-48258D01*
X11105Y-48230D01*
X11119Y-48201D01*
X11133Y-48630D02*
X11333Y-48630D01*
X11019Y-48558D02*
X11233Y-48487D01*
X11233Y-48673D01*
X12883Y-33851D02*
X12741Y-33751D01*
X12883Y-33680D02*
X12583Y-33680D01*
X12583Y-33794D01*
X12598Y-33823D01*
X12612Y-33837D01*
X12641Y-33851D01*
X12683Y-33851D01*
X12712Y-33837D01*
X12726Y-33823D01*
X12741Y-33794D01*
X12741Y-33680D01*
X12883Y-34137D02*
X12883Y-33966D01*
X12883Y-34051D02*
X12583Y-34051D01*
X12626Y-34023D01*
X12655Y-33994D01*
X12669Y-33966D01*
X12883Y-34423D02*
X12883Y-34251D01*
X12883Y-34337D02*
X12583Y-34337D01*
X12626Y-34308D01*
X12655Y-34280D01*
X12669Y-34251D01*
X12583Y-34680D02*
X12583Y-34623D01*
X12598Y-34594D01*
X12612Y-34580D01*
X12655Y-34551D01*
X12712Y-34537D01*
X12826Y-34537D01*
X12855Y-34551D01*
X12869Y-34566D01*
X12883Y-34594D01*
X12883Y-34651D01*
X12869Y-34680D01*
X12855Y-34694D01*
X12826Y-34708D01*
X12755Y-34708D01*
X12726Y-34694D01*
X12712Y-34680D01*
X12698Y-34651D01*
X12698Y-34594D01*
X12712Y-34566D01*
X12726Y-34551D01*
X12755Y-34537D01*
X8483Y-26851D02*
X8341Y-26751D01*
X8483Y-26680D02*
X8183Y-26680D01*
X8183Y-26794D01*
X8198Y-26823D01*
X8212Y-26837D01*
X8241Y-26851D01*
X8283Y-26851D01*
X8312Y-26837D01*
X8326Y-26823D01*
X8341Y-26794D01*
X8341Y-26680D01*
X8483Y-27137D02*
X8483Y-26966D01*
X8483Y-27051D02*
X8183Y-27051D01*
X8226Y-27023D01*
X8255Y-26994D01*
X8269Y-26966D01*
X8212Y-27251D02*
X8198Y-27266D01*
X8183Y-27294D01*
X8183Y-27366D01*
X8198Y-27394D01*
X8212Y-27408D01*
X8241Y-27423D01*
X8269Y-27423D01*
X8312Y-27408D01*
X8483Y-27237D01*
X8483Y-27423D01*
X8183Y-27523D02*
X8183Y-27708D01*
X8298Y-27608D01*
X8298Y-27651D01*
X8312Y-27680D01*
X8326Y-27694D01*
X8355Y-27708D01*
X8426Y-27708D01*
X8455Y-27694D01*
X8469Y-27680D01*
X8483Y-27651D01*
X8483Y-27566D01*
X8469Y-27537D01*
X8455Y-27523D01*
X8483Y-47801D02*
X8341Y-47701D01*
X8483Y-47630D02*
X8183Y-47630D01*
X8183Y-47744D01*
X8198Y-47773D01*
X8212Y-47787D01*
X8241Y-47801D01*
X8283Y-47801D01*
X8312Y-47787D01*
X8326Y-47773D01*
X8341Y-47744D01*
X8341Y-47630D01*
X8483Y-48087D02*
X8483Y-47916D01*
X8483Y-48001D02*
X8183Y-48001D01*
X8226Y-47973D01*
X8255Y-47944D01*
X8269Y-47916D01*
X8483Y-48373D02*
X8483Y-48201D01*
X8483Y-48287D02*
X8183Y-48287D01*
X8226Y-48258D01*
X8255Y-48230D01*
X8269Y-48201D01*
X8483Y-48516D02*
X8483Y-48573D01*
X8469Y-48601D01*
X8455Y-48616D01*
X8412Y-48644D01*
X8355Y-48658D01*
X8241Y-48658D01*
X8212Y-48644D01*
X8198Y-48630D01*
X8183Y-48601D01*
X8183Y-48544D01*
X8198Y-48516D01*
X8212Y-48501D01*
X8241Y-48487D01*
X8312Y-48487D01*
X8341Y-48501D01*
X8355Y-48516D01*
X8369Y-48544D01*
X8369Y-48601D01*
X8355Y-48630D01*
X8341Y-48644D01*
X8312Y-48658D01*
X8483Y-33851D02*
X8341Y-33751D01*
X8483Y-33680D02*
X8183Y-33680D01*
X8183Y-33794D01*
X8198Y-33823D01*
X8212Y-33837D01*
X8241Y-33851D01*
X8283Y-33851D01*
X8312Y-33837D01*
X8326Y-33823D01*
X8341Y-33794D01*
X8341Y-33680D01*
X8483Y-34137D02*
X8483Y-33966D01*
X8483Y-34051D02*
X8183Y-34051D01*
X8226Y-34023D01*
X8255Y-33994D01*
X8269Y-33966D01*
X8212Y-34251D02*
X8198Y-34266D01*
X8183Y-34294D01*
X8183Y-34366D01*
X8198Y-34394D01*
X8212Y-34408D01*
X8241Y-34423D01*
X8269Y-34423D01*
X8312Y-34408D01*
X8483Y-34237D01*
X8483Y-34423D01*
X8212Y-34537D02*
X8198Y-34551D01*
X8183Y-34580D01*
X8183Y-34651D01*
X8198Y-34680D01*
X8212Y-34694D01*
X8241Y-34708D01*
X8269Y-34708D01*
X8312Y-34694D01*
X8483Y-34523D01*
X8483Y-34708D01*
X10683Y-28501D02*
X10541Y-28401D01*
X10683Y-28330D02*
X10383Y-28330D01*
X10383Y-28444D01*
X10398Y-28473D01*
X10412Y-28487D01*
X10441Y-28501D01*
X10483Y-28501D01*
X10512Y-28487D01*
X10526Y-28473D01*
X10541Y-28444D01*
X10541Y-28330D01*
X10683Y-28787D02*
X10683Y-28616D01*
X10683Y-28701D02*
X10383Y-28701D01*
X10426Y-28673D01*
X10455Y-28644D01*
X10469Y-28616D01*
X10683Y-29073D02*
X10683Y-28901D01*
X10683Y-28987D02*
X10383Y-28987D01*
X10426Y-28958D01*
X10455Y-28930D01*
X10469Y-28901D01*
X10512Y-29244D02*
X10498Y-29216D01*
X10483Y-29201D01*
X10455Y-29187D01*
X10441Y-29187D01*
X10412Y-29201D01*
X10398Y-29216D01*
X10383Y-29244D01*
X10383Y-29301D01*
X10398Y-29330D01*
X10412Y-29344D01*
X10441Y-29358D01*
X10455Y-29358D01*
X10483Y-29344D01*
X10498Y-29330D01*
X10512Y-29301D01*
X10512Y-29244D01*
X10526Y-29216D01*
X10541Y-29201D01*
X10569Y-29187D01*
X10626Y-29187D01*
X10655Y-29201D01*
X10669Y-29216D01*
X10683Y-29244D01*
X10683Y-29301D01*
X10669Y-29330D01*
X10655Y-29344D01*
X10626Y-29358D01*
X10569Y-29358D01*
X10541Y-29344D01*
X10526Y-29330D01*
X10512Y-29301D01*
X12883Y-26851D02*
X12741Y-26751D01*
X12883Y-26680D02*
X12583Y-26680D01*
X12583Y-26794D01*
X12598Y-26823D01*
X12612Y-26837D01*
X12641Y-26851D01*
X12683Y-26851D01*
X12712Y-26837D01*
X12726Y-26823D01*
X12741Y-26794D01*
X12741Y-26680D01*
X12883Y-27137D02*
X12883Y-26966D01*
X12883Y-27051D02*
X12583Y-27051D01*
X12626Y-27023D01*
X12655Y-26994D01*
X12669Y-26966D01*
X12883Y-27423D02*
X12883Y-27251D01*
X12883Y-27337D02*
X12583Y-27337D01*
X12626Y-27308D01*
X12655Y-27280D01*
X12669Y-27251D01*
X12583Y-27523D02*
X12583Y-27723D01*
X12883Y-27594D01*
X14483Y-47851D02*
X14341Y-47751D01*
X14483Y-47680D02*
X14183Y-47680D01*
X14183Y-47794D01*
X14198Y-47823D01*
X14212Y-47837D01*
X14241Y-47851D01*
X14283Y-47851D01*
X14312Y-47837D01*
X14326Y-47823D01*
X14341Y-47794D01*
X14341Y-47680D01*
X14483Y-48137D02*
X14483Y-47966D01*
X14483Y-48051D02*
X14183Y-48051D01*
X14226Y-48023D01*
X14255Y-47994D01*
X14269Y-47966D01*
X14183Y-48323D02*
X14183Y-48351D01*
X14198Y-48380D01*
X14212Y-48394D01*
X14241Y-48408D01*
X14298Y-48423D01*
X14369Y-48423D01*
X14426Y-48408D01*
X14455Y-48394D01*
X14469Y-48380D01*
X14483Y-48351D01*
X14483Y-48323D01*
X14469Y-48294D01*
X14455Y-48280D01*
X14426Y-48266D01*
X14369Y-48251D01*
X14298Y-48251D01*
X14241Y-48266D01*
X14212Y-48280D01*
X14198Y-48294D01*
X14183Y-48323D01*
X14312Y-48594D02*
X14298Y-48566D01*
X14283Y-48551D01*
X14255Y-48537D01*
X14241Y-48537D01*
X14212Y-48551D01*
X14198Y-48566D01*
X14183Y-48594D01*
X14183Y-48651D01*
X14198Y-48680D01*
X14212Y-48694D01*
X14241Y-48708D01*
X14255Y-48708D01*
X14283Y-48694D01*
X14298Y-48680D01*
X14312Y-48651D01*
X14312Y-48594D01*
X14326Y-48566D01*
X14341Y-48551D01*
X14369Y-48537D01*
X14426Y-48537D01*
X14455Y-48551D01*
X14469Y-48566D01*
X14483Y-48594D01*
X14483Y-48651D01*
X14469Y-48680D01*
X14455Y-48694D01*
X14426Y-48708D01*
X14369Y-48708D01*
X14341Y-48694D01*
X14326Y-48680D01*
X14312Y-48651D01*
X18883Y-26851D02*
X18741Y-26751D01*
X18883Y-26680D02*
X18583Y-26680D01*
X18583Y-26794D01*
X18598Y-26823D01*
X18612Y-26837D01*
X18641Y-26851D01*
X18683Y-26851D01*
X18712Y-26837D01*
X18726Y-26823D01*
X18741Y-26794D01*
X18741Y-26680D01*
X18883Y-27137D02*
X18883Y-26966D01*
X18883Y-27051D02*
X18583Y-27051D01*
X18626Y-27023D01*
X18655Y-26994D01*
X18669Y-26966D01*
X18583Y-27323D02*
X18583Y-27351D01*
X18598Y-27380D01*
X18612Y-27394D01*
X18641Y-27408D01*
X18698Y-27423D01*
X18769Y-27423D01*
X18826Y-27408D01*
X18855Y-27394D01*
X18869Y-27380D01*
X18883Y-27351D01*
X18883Y-27323D01*
X18869Y-27294D01*
X18855Y-27280D01*
X18826Y-27266D01*
X18769Y-27251D01*
X18698Y-27251D01*
X18641Y-27266D01*
X18612Y-27280D01*
X18598Y-27294D01*
X18583Y-27323D01*
X18583Y-27694D02*
X18583Y-27551D01*
X18726Y-27537D01*
X18712Y-27551D01*
X18698Y-27580D01*
X18698Y-27651D01*
X18712Y-27680D01*
X18726Y-27694D01*
X18755Y-27708D01*
X18826Y-27708D01*
X18855Y-27694D01*
X18869Y-27680D01*
X18883Y-27651D01*
X18883Y-27580D01*
X18869Y-27551D01*
X18855Y-27537D01*
X17333Y-47851D02*
X17191Y-47751D01*
X17333Y-47680D02*
X17033Y-47680D01*
X17033Y-47794D01*
X17048Y-47823D01*
X17062Y-47837D01*
X17091Y-47851D01*
X17133Y-47851D01*
X17162Y-47837D01*
X17176Y-47823D01*
X17191Y-47794D01*
X17191Y-47680D01*
X17333Y-48137D02*
X17333Y-47966D01*
X17333Y-48051D02*
X17033Y-48051D01*
X17076Y-48023D01*
X17105Y-47994D01*
X17119Y-47966D01*
X17033Y-48323D02*
X17033Y-48351D01*
X17048Y-48380D01*
X17062Y-48394D01*
X17091Y-48408D01*
X17148Y-48423D01*
X17219Y-48423D01*
X17276Y-48408D01*
X17305Y-48394D01*
X17319Y-48380D01*
X17333Y-48351D01*
X17333Y-48323D01*
X17319Y-48294D01*
X17305Y-48280D01*
X17276Y-48266D01*
X17219Y-48251D01*
X17148Y-48251D01*
X17091Y-48266D01*
X17062Y-48280D01*
X17048Y-48294D01*
X17033Y-48323D01*
X17333Y-48708D02*
X17333Y-48537D01*
X17333Y-48623D02*
X17033Y-48623D01*
X17076Y-48594D01*
X17105Y-48566D01*
X17119Y-48537D01*
X18883Y-33851D02*
X18741Y-33751D01*
X18883Y-33680D02*
X18583Y-33680D01*
X18583Y-33794D01*
X18598Y-33823D01*
X18612Y-33837D01*
X18641Y-33851D01*
X18683Y-33851D01*
X18712Y-33837D01*
X18726Y-33823D01*
X18741Y-33794D01*
X18741Y-33680D01*
X18883Y-34137D02*
X18883Y-33966D01*
X18883Y-34051D02*
X18583Y-34051D01*
X18626Y-34023D01*
X18655Y-33994D01*
X18669Y-33966D01*
X18583Y-34323D02*
X18583Y-34351D01*
X18598Y-34380D01*
X18612Y-34394D01*
X18641Y-34408D01*
X18698Y-34423D01*
X18769Y-34423D01*
X18826Y-34408D01*
X18855Y-34394D01*
X18869Y-34380D01*
X18883Y-34351D01*
X18883Y-34323D01*
X18869Y-34294D01*
X18855Y-34280D01*
X18826Y-34266D01*
X18769Y-34251D01*
X18698Y-34251D01*
X18641Y-34266D01*
X18612Y-34280D01*
X18598Y-34294D01*
X18583Y-34323D01*
X18683Y-34680D02*
X18883Y-34680D01*
X18569Y-34608D02*
X18783Y-34537D01*
X18783Y-34723D01*
X14483Y-33851D02*
X14341Y-33751D01*
X14483Y-33680D02*
X14183Y-33680D01*
X14183Y-33794D01*
X14198Y-33823D01*
X14212Y-33837D01*
X14241Y-33851D01*
X14283Y-33851D01*
X14312Y-33837D01*
X14326Y-33823D01*
X14341Y-33794D01*
X14341Y-33680D01*
X14483Y-34137D02*
X14483Y-33966D01*
X14483Y-34051D02*
X14183Y-34051D01*
X14226Y-34023D01*
X14255Y-33994D01*
X14269Y-33966D01*
X14483Y-34423D02*
X14483Y-34251D01*
X14483Y-34337D02*
X14183Y-34337D01*
X14226Y-34308D01*
X14255Y-34280D01*
X14269Y-34251D01*
X14183Y-34608D02*
X14183Y-34637D01*
X14198Y-34666D01*
X14212Y-34680D01*
X14241Y-34694D01*
X14298Y-34708D01*
X14369Y-34708D01*
X14426Y-34694D01*
X14455Y-34680D01*
X14469Y-34666D01*
X14483Y-34637D01*
X14483Y-34608D01*
X14469Y-34580D01*
X14455Y-34566D01*
X14426Y-34551D01*
X14369Y-34537D01*
X14298Y-34537D01*
X14241Y-34551D01*
X14212Y-34566D01*
X14198Y-34580D01*
X14183Y-34608D01*
X14483Y-40851D02*
X14341Y-40751D01*
X14483Y-40680D02*
X14183Y-40680D01*
X14183Y-40794D01*
X14198Y-40823D01*
X14212Y-40837D01*
X14241Y-40851D01*
X14283Y-40851D01*
X14312Y-40837D01*
X14326Y-40823D01*
X14341Y-40794D01*
X14341Y-40680D01*
X14483Y-41137D02*
X14483Y-40966D01*
X14483Y-41051D02*
X14183Y-41051D01*
X14226Y-41023D01*
X14255Y-40994D01*
X14269Y-40966D01*
X14183Y-41323D02*
X14183Y-41351D01*
X14198Y-41380D01*
X14212Y-41394D01*
X14241Y-41408D01*
X14298Y-41423D01*
X14369Y-41423D01*
X14426Y-41408D01*
X14455Y-41394D01*
X14469Y-41380D01*
X14483Y-41351D01*
X14483Y-41323D01*
X14469Y-41294D01*
X14455Y-41280D01*
X14426Y-41266D01*
X14369Y-41251D01*
X14298Y-41251D01*
X14241Y-41266D01*
X14212Y-41280D01*
X14198Y-41294D01*
X14183Y-41323D01*
X14483Y-41566D02*
X14483Y-41623D01*
X14469Y-41651D01*
X14455Y-41666D01*
X14412Y-41694D01*
X14355Y-41708D01*
X14241Y-41708D01*
X14212Y-41694D01*
X14198Y-41680D01*
X14183Y-41651D01*
X14183Y-41594D01*
X14198Y-41566D01*
X14212Y-41551D01*
X14241Y-41537D01*
X14312Y-41537D01*
X14341Y-41551D01*
X14355Y-41566D01*
X14369Y-41594D01*
X14369Y-41651D01*
X14355Y-41680D01*
X14341Y-41694D01*
X14312Y-41708D01*
X14483Y-26851D02*
X14341Y-26751D01*
X14483Y-26680D02*
X14183Y-26680D01*
X14183Y-26794D01*
X14198Y-26823D01*
X14212Y-26837D01*
X14241Y-26851D01*
X14283Y-26851D01*
X14312Y-26837D01*
X14326Y-26823D01*
X14341Y-26794D01*
X14341Y-26680D01*
X14483Y-27137D02*
X14483Y-26966D01*
X14483Y-27051D02*
X14183Y-27051D01*
X14226Y-27023D01*
X14255Y-26994D01*
X14269Y-26966D01*
X14483Y-27423D02*
X14483Y-27251D01*
X14483Y-27337D02*
X14183Y-27337D01*
X14226Y-27308D01*
X14255Y-27280D01*
X14269Y-27251D01*
X14483Y-27708D02*
X14483Y-27537D01*
X14483Y-27623D02*
X14183Y-27623D01*
X14226Y-27594D01*
X14255Y-27566D01*
X14269Y-27537D01*
X8483Y-40851D02*
X8341Y-40751D01*
X8483Y-40680D02*
X8183Y-40680D01*
X8183Y-40794D01*
X8198Y-40823D01*
X8212Y-40837D01*
X8241Y-40851D01*
X8283Y-40851D01*
X8312Y-40837D01*
X8326Y-40823D01*
X8341Y-40794D01*
X8341Y-40680D01*
X8483Y-41137D02*
X8483Y-40966D01*
X8483Y-41051D02*
X8183Y-41051D01*
X8226Y-41023D01*
X8255Y-40994D01*
X8269Y-40966D01*
X8212Y-41251D02*
X8198Y-41266D01*
X8183Y-41294D01*
X8183Y-41366D01*
X8198Y-41394D01*
X8212Y-41408D01*
X8241Y-41423D01*
X8269Y-41423D01*
X8312Y-41408D01*
X8483Y-41237D01*
X8483Y-41423D01*
X8483Y-41708D02*
X8483Y-41537D01*
X8483Y-41623D02*
X8183Y-41623D01*
X8226Y-41594D01*
X8255Y-41566D01*
X8269Y-41537D01*
X20483Y-40994D02*
X20341Y-40894D01*
X20483Y-40823D02*
X20183Y-40823D01*
X20183Y-40937D01*
X20198Y-40966D01*
X20212Y-40980D01*
X20241Y-40994D01*
X20283Y-40994D01*
X20312Y-40980D01*
X20326Y-40966D01*
X20341Y-40937D01*
X20341Y-40823D01*
X20483Y-41137D02*
X20483Y-41194D01*
X20469Y-41223D01*
X20455Y-41237D01*
X20412Y-41266D01*
X20355Y-41280D01*
X20241Y-41280D01*
X20212Y-41266D01*
X20198Y-41251D01*
X20183Y-41223D01*
X20183Y-41166D01*
X20198Y-41137D01*
X20212Y-41123D01*
X20241Y-41108D01*
X20312Y-41108D01*
X20341Y-41123D01*
X20355Y-41137D01*
X20369Y-41166D01*
X20369Y-41223D01*
X20355Y-41251D01*
X20341Y-41266D01*
X20312Y-41280D01*
X20183Y-41551D02*
X20183Y-41408D01*
X20326Y-41394D01*
X20312Y-41408D01*
X20298Y-41437D01*
X20298Y-41508D01*
X20312Y-41537D01*
X20326Y-41551D01*
X20355Y-41566D01*
X20426Y-41566D01*
X20455Y-41551D01*
X20469Y-41537D01*
X20483Y-41508D01*
X20483Y-41437D01*
X20469Y-41408D01*
X20455Y-41394D01*
X20533Y-33994D02*
X20391Y-33894D01*
X20533Y-33823D02*
X20233Y-33823D01*
X20233Y-33937D01*
X20248Y-33966D01*
X20262Y-33980D01*
X20291Y-33994D01*
X20333Y-33994D01*
X20362Y-33980D01*
X20376Y-33966D01*
X20391Y-33937D01*
X20391Y-33823D01*
X20533Y-34137D02*
X20533Y-34194D01*
X20519Y-34223D01*
X20505Y-34237D01*
X20462Y-34266D01*
X20405Y-34280D01*
X20291Y-34280D01*
X20262Y-34266D01*
X20248Y-34251D01*
X20233Y-34223D01*
X20233Y-34166D01*
X20248Y-34137D01*
X20262Y-34123D01*
X20291Y-34108D01*
X20362Y-34108D01*
X20391Y-34123D01*
X20405Y-34137D01*
X20419Y-34166D01*
X20419Y-34223D01*
X20405Y-34251D01*
X20391Y-34266D01*
X20362Y-34280D01*
X20233Y-34537D02*
X20233Y-34480D01*
X20248Y-34451D01*
X20262Y-34437D01*
X20305Y-34408D01*
X20362Y-34394D01*
X20476Y-34394D01*
X20505Y-34408D01*
X20519Y-34423D01*
X20533Y-34451D01*
X20533Y-34508D01*
X20519Y-34537D01*
X20505Y-34551D01*
X20476Y-34566D01*
X20405Y-34566D01*
X20376Y-34551D01*
X20362Y-34537D01*
X20348Y-34508D01*
X20348Y-34451D01*
X20362Y-34423D01*
X20376Y-34408D01*
X20405Y-34394D01*
X20483Y-47994D02*
X20341Y-47894D01*
X20483Y-47823D02*
X20183Y-47823D01*
X20183Y-47937D01*
X20198Y-47966D01*
X20212Y-47980D01*
X20241Y-47994D01*
X20283Y-47994D01*
X20312Y-47980D01*
X20326Y-47966D01*
X20341Y-47937D01*
X20341Y-47823D01*
X20483Y-48137D02*
X20483Y-48194D01*
X20469Y-48223D01*
X20455Y-48237D01*
X20412Y-48266D01*
X20355Y-48280D01*
X20241Y-48280D01*
X20212Y-48266D01*
X20198Y-48251D01*
X20183Y-48223D01*
X20183Y-48166D01*
X20198Y-48137D01*
X20212Y-48123D01*
X20241Y-48108D01*
X20312Y-48108D01*
X20341Y-48123D01*
X20355Y-48137D01*
X20369Y-48166D01*
X20369Y-48223D01*
X20355Y-48251D01*
X20341Y-48266D01*
X20312Y-48280D01*
X20283Y-48537D02*
X20483Y-48537D01*
X20169Y-48466D02*
X20383Y-48394D01*
X20383Y-48580D01*
X26483Y-33994D02*
X26341Y-33894D01*
X26483Y-33823D02*
X26183Y-33823D01*
X26183Y-33937D01*
X26198Y-33966D01*
X26212Y-33980D01*
X26241Y-33994D01*
X26283Y-33994D01*
X26312Y-33980D01*
X26326Y-33966D01*
X26341Y-33937D01*
X26341Y-33823D01*
X26312Y-34166D02*
X26298Y-34137D01*
X26283Y-34123D01*
X26255Y-34108D01*
X26241Y-34108D01*
X26212Y-34123D01*
X26198Y-34137D01*
X26183Y-34166D01*
X26183Y-34223D01*
X26198Y-34251D01*
X26212Y-34266D01*
X26241Y-34280D01*
X26255Y-34280D01*
X26283Y-34266D01*
X26298Y-34251D01*
X26312Y-34223D01*
X26312Y-34166D01*
X26326Y-34137D01*
X26341Y-34123D01*
X26369Y-34108D01*
X26426Y-34108D01*
X26455Y-34123D01*
X26469Y-34137D01*
X26483Y-34166D01*
X26483Y-34223D01*
X26469Y-34251D01*
X26455Y-34266D01*
X26426Y-34280D01*
X26369Y-34280D01*
X26341Y-34266D01*
X26326Y-34251D01*
X26312Y-34223D01*
X26283Y-34537D02*
X26483Y-34537D01*
X26169Y-34466D02*
X26383Y-34394D01*
X26383Y-34580D01*
X30883Y-40994D02*
X30741Y-40894D01*
X30883Y-40823D02*
X30583Y-40823D01*
X30583Y-40937D01*
X30598Y-40966D01*
X30612Y-40980D01*
X30641Y-40994D01*
X30683Y-40994D01*
X30712Y-40980D01*
X30726Y-40966D01*
X30741Y-40937D01*
X30741Y-40823D01*
X30583Y-41094D02*
X30583Y-41294D01*
X30883Y-41166D01*
X30583Y-41380D02*
X30583Y-41580D01*
X30883Y-41451D01*
X29333Y-26994D02*
X29191Y-26894D01*
X29333Y-26823D02*
X29033Y-26823D01*
X29033Y-26937D01*
X29048Y-26966D01*
X29062Y-26980D01*
X29091Y-26994D01*
X29133Y-26994D01*
X29162Y-26980D01*
X29176Y-26966D01*
X29191Y-26937D01*
X29191Y-26823D01*
X29162Y-27166D02*
X29148Y-27137D01*
X29133Y-27123D01*
X29105Y-27108D01*
X29091Y-27108D01*
X29062Y-27123D01*
X29048Y-27137D01*
X29033Y-27166D01*
X29033Y-27223D01*
X29048Y-27251D01*
X29062Y-27266D01*
X29091Y-27280D01*
X29105Y-27280D01*
X29133Y-27266D01*
X29148Y-27251D01*
X29162Y-27223D01*
X29162Y-27166D01*
X29176Y-27137D01*
X29191Y-27123D01*
X29219Y-27108D01*
X29276Y-27108D01*
X29305Y-27123D01*
X29319Y-27137D01*
X29333Y-27166D01*
X29333Y-27223D01*
X29319Y-27251D01*
X29305Y-27266D01*
X29276Y-27280D01*
X29219Y-27280D01*
X29191Y-27266D01*
X29176Y-27251D01*
X29162Y-27223D01*
X29033Y-27466D02*
X29033Y-27494D01*
X29048Y-27523D01*
X29062Y-27537D01*
X29091Y-27551D01*
X29148Y-27566D01*
X29219Y-27566D01*
X29276Y-27551D01*
X29305Y-27537D01*
X29319Y-27523D01*
X29333Y-27494D01*
X29333Y-27466D01*
X29319Y-27437D01*
X29305Y-27423D01*
X29276Y-27408D01*
X29219Y-27394D01*
X29148Y-27394D01*
X29091Y-27408D01*
X29062Y-27423D01*
X29048Y-27437D01*
X29033Y-27466D01*
X26533Y-26994D02*
X26391Y-26894D01*
X26533Y-26823D02*
X26233Y-26823D01*
X26233Y-26937D01*
X26248Y-26966D01*
X26262Y-26980D01*
X26291Y-26994D01*
X26333Y-26994D01*
X26362Y-26980D01*
X26376Y-26966D01*
X26391Y-26937D01*
X26391Y-26823D01*
X26362Y-27166D02*
X26348Y-27137D01*
X26333Y-27123D01*
X26305Y-27108D01*
X26291Y-27108D01*
X26262Y-27123D01*
X26248Y-27137D01*
X26233Y-27166D01*
X26233Y-27223D01*
X26248Y-27251D01*
X26262Y-27266D01*
X26291Y-27280D01*
X26305Y-27280D01*
X26333Y-27266D01*
X26348Y-27251D01*
X26362Y-27223D01*
X26362Y-27166D01*
X26376Y-27137D01*
X26391Y-27123D01*
X26419Y-27108D01*
X26476Y-27108D01*
X26505Y-27123D01*
X26519Y-27137D01*
X26533Y-27166D01*
X26533Y-27223D01*
X26519Y-27251D01*
X26505Y-27266D01*
X26476Y-27280D01*
X26419Y-27280D01*
X26391Y-27266D01*
X26376Y-27251D01*
X26362Y-27223D01*
X26233Y-27551D02*
X26233Y-27408D01*
X26376Y-27394D01*
X26362Y-27408D01*
X26348Y-27437D01*
X26348Y-27508D01*
X26362Y-27537D01*
X26376Y-27551D01*
X26405Y-27566D01*
X26476Y-27566D01*
X26505Y-27551D01*
X26519Y-27537D01*
X26533Y-27508D01*
X26533Y-27437D01*
X26519Y-27408D01*
X26505Y-27394D01*
X23333Y-47994D02*
X23191Y-47894D01*
X23333Y-47823D02*
X23033Y-47823D01*
X23033Y-47937D01*
X23048Y-47966D01*
X23062Y-47980D01*
X23091Y-47994D01*
X23133Y-47994D01*
X23162Y-47980D01*
X23176Y-47966D01*
X23191Y-47937D01*
X23191Y-47823D01*
X23162Y-48166D02*
X23148Y-48137D01*
X23133Y-48123D01*
X23105Y-48108D01*
X23091Y-48108D01*
X23062Y-48123D01*
X23048Y-48137D01*
X23033Y-48166D01*
X23033Y-48223D01*
X23048Y-48251D01*
X23062Y-48266D01*
X23091Y-48280D01*
X23105Y-48280D01*
X23133Y-48266D01*
X23148Y-48251D01*
X23162Y-48223D01*
X23162Y-48166D01*
X23176Y-48137D01*
X23191Y-48123D01*
X23219Y-48108D01*
X23276Y-48108D01*
X23305Y-48123D01*
X23319Y-48137D01*
X23333Y-48166D01*
X23333Y-48223D01*
X23319Y-48251D01*
X23305Y-48266D01*
X23276Y-48280D01*
X23219Y-48280D01*
X23191Y-48266D01*
X23176Y-48251D01*
X23162Y-48223D01*
X23033Y-48380D02*
X23033Y-48580D01*
X23333Y-48451D01*
X24883Y-47994D02*
X24741Y-47894D01*
X24883Y-47823D02*
X24583Y-47823D01*
X24583Y-47937D01*
X24598Y-47966D01*
X24612Y-47980D01*
X24641Y-47994D01*
X24683Y-47994D01*
X24712Y-47980D01*
X24726Y-47966D01*
X24741Y-47937D01*
X24741Y-47823D01*
X24712Y-48166D02*
X24698Y-48137D01*
X24683Y-48123D01*
X24655Y-48108D01*
X24641Y-48108D01*
X24612Y-48123D01*
X24598Y-48137D01*
X24583Y-48166D01*
X24583Y-48223D01*
X24598Y-48251D01*
X24612Y-48266D01*
X24641Y-48280D01*
X24655Y-48280D01*
X24683Y-48266D01*
X24698Y-48251D01*
X24712Y-48223D01*
X24712Y-48166D01*
X24726Y-48137D01*
X24741Y-48123D01*
X24769Y-48108D01*
X24826Y-48108D01*
X24855Y-48123D01*
X24869Y-48137D01*
X24883Y-48166D01*
X24883Y-48223D01*
X24869Y-48251D01*
X24855Y-48266D01*
X24826Y-48280D01*
X24769Y-48280D01*
X24741Y-48266D01*
X24726Y-48251D01*
X24712Y-48223D01*
X24712Y-48451D02*
X24698Y-48423D01*
X24683Y-48408D01*
X24655Y-48394D01*
X24641Y-48394D01*
X24612Y-48408D01*
X24598Y-48423D01*
X24583Y-48451D01*
X24583Y-48508D01*
X24598Y-48537D01*
X24612Y-48551D01*
X24641Y-48566D01*
X24655Y-48566D01*
X24683Y-48551D01*
X24698Y-48537D01*
X24712Y-48508D01*
X24712Y-48451D01*
X24726Y-48423D01*
X24741Y-48408D01*
X24769Y-48394D01*
X24826Y-48394D01*
X24855Y-48408D01*
X24869Y-48423D01*
X24883Y-48451D01*
X24883Y-48508D01*
X24869Y-48537D01*
X24855Y-48551D01*
X24826Y-48566D01*
X24769Y-48566D01*
X24741Y-48551D01*
X24726Y-48537D01*
X24712Y-48508D01*
X20483Y-26994D02*
X20341Y-26894D01*
X20483Y-26823D02*
X20183Y-26823D01*
X20183Y-26937D01*
X20198Y-26966D01*
X20212Y-26980D01*
X20241Y-26994D01*
X20283Y-26994D01*
X20312Y-26980D01*
X20326Y-26966D01*
X20341Y-26937D01*
X20341Y-26823D01*
X20483Y-27137D02*
X20483Y-27194D01*
X20469Y-27223D01*
X20455Y-27237D01*
X20412Y-27266D01*
X20355Y-27280D01*
X20241Y-27280D01*
X20212Y-27266D01*
X20198Y-27251D01*
X20183Y-27223D01*
X20183Y-27166D01*
X20198Y-27137D01*
X20212Y-27123D01*
X20241Y-27108D01*
X20312Y-27108D01*
X20341Y-27123D01*
X20355Y-27137D01*
X20369Y-27166D01*
X20369Y-27223D01*
X20355Y-27251D01*
X20341Y-27266D01*
X20312Y-27280D01*
X20183Y-27380D02*
X20183Y-27580D01*
X20483Y-27451D01*
X18883Y-40851D02*
X18741Y-40751D01*
X18883Y-40680D02*
X18583Y-40680D01*
X18583Y-40794D01*
X18598Y-40823D01*
X18612Y-40837D01*
X18641Y-40851D01*
X18683Y-40851D01*
X18712Y-40837D01*
X18726Y-40823D01*
X18741Y-40794D01*
X18741Y-40680D01*
X18883Y-41137D02*
X18883Y-40966D01*
X18883Y-41051D02*
X18583Y-41051D01*
X18626Y-41023D01*
X18655Y-40994D01*
X18669Y-40966D01*
X18583Y-41323D02*
X18583Y-41351D01*
X18598Y-41380D01*
X18612Y-41394D01*
X18641Y-41408D01*
X18698Y-41423D01*
X18769Y-41423D01*
X18826Y-41408D01*
X18855Y-41394D01*
X18869Y-41380D01*
X18883Y-41351D01*
X18883Y-41323D01*
X18869Y-41294D01*
X18855Y-41280D01*
X18826Y-41266D01*
X18769Y-41251D01*
X18698Y-41251D01*
X18641Y-41266D01*
X18612Y-41280D01*
X18598Y-41294D01*
X18583Y-41323D01*
X18583Y-41523D02*
X18583Y-41708D01*
X18698Y-41608D01*
X18698Y-41651D01*
X18712Y-41680D01*
X18726Y-41694D01*
X18755Y-41708D01*
X18826Y-41708D01*
X18855Y-41694D01*
X18869Y-41680D01*
X18883Y-41651D01*
X18883Y-41566D01*
X18869Y-41537D01*
X18855Y-41523D01*
X18883Y-47851D02*
X18741Y-47751D01*
X18883Y-47680D02*
X18583Y-47680D01*
X18583Y-47794D01*
X18598Y-47823D01*
X18612Y-47837D01*
X18641Y-47851D01*
X18683Y-47851D01*
X18712Y-47837D01*
X18726Y-47823D01*
X18741Y-47794D01*
X18741Y-47680D01*
X18883Y-48137D02*
X18883Y-47966D01*
X18883Y-48051D02*
X18583Y-48051D01*
X18626Y-48023D01*
X18655Y-47994D01*
X18669Y-47966D01*
X18583Y-48323D02*
X18583Y-48351D01*
X18598Y-48380D01*
X18612Y-48394D01*
X18641Y-48408D01*
X18698Y-48423D01*
X18769Y-48423D01*
X18826Y-48408D01*
X18855Y-48394D01*
X18869Y-48380D01*
X18883Y-48351D01*
X18883Y-48323D01*
X18869Y-48294D01*
X18855Y-48280D01*
X18826Y-48266D01*
X18769Y-48251D01*
X18698Y-48251D01*
X18641Y-48266D01*
X18612Y-48280D01*
X18598Y-48294D01*
X18583Y-48323D01*
X18612Y-48537D02*
X18598Y-48551D01*
X18583Y-48580D01*
X18583Y-48651D01*
X18598Y-48680D01*
X18612Y-48694D01*
X18641Y-48708D01*
X18669Y-48708D01*
X18712Y-48694D01*
X18883Y-48523D01*
X18883Y-48708D01*
X17333Y-26826D02*
X17191Y-26726D01*
X17333Y-26655D02*
X17033Y-26655D01*
X17033Y-26769D01*
X17048Y-26798D01*
X17062Y-26812D01*
X17091Y-26826D01*
X17133Y-26826D01*
X17162Y-26812D01*
X17176Y-26798D01*
X17191Y-26769D01*
X17191Y-26655D01*
X17333Y-27112D02*
X17333Y-26941D01*
X17333Y-27026D02*
X17033Y-27026D01*
X17076Y-26998D01*
X17105Y-26969D01*
X17119Y-26941D01*
X17033Y-27298D02*
X17033Y-27326D01*
X17048Y-27355D01*
X17062Y-27369D01*
X17091Y-27383D01*
X17148Y-27398D01*
X17219Y-27398D01*
X17276Y-27383D01*
X17305Y-27369D01*
X17319Y-27355D01*
X17333Y-27326D01*
X17333Y-27298D01*
X17319Y-27269D01*
X17305Y-27255D01*
X17276Y-27241D01*
X17219Y-27226D01*
X17148Y-27226D01*
X17091Y-27241D01*
X17062Y-27255D01*
X17048Y-27269D01*
X17033Y-27298D01*
X17033Y-27655D02*
X17033Y-27598D01*
X17048Y-27569D01*
X17062Y-27555D01*
X17105Y-27526D01*
X17162Y-27512D01*
X17276Y-27512D01*
X17305Y-27526D01*
X17319Y-27541D01*
X17333Y-27569D01*
X17333Y-27626D01*
X17319Y-27655D01*
X17305Y-27669D01*
X17276Y-27683D01*
X17205Y-27683D01*
X17176Y-27669D01*
X17162Y-27655D01*
X17148Y-27626D01*
X17148Y-27569D01*
X17162Y-27541D01*
X17176Y-27526D01*
X17205Y-27512D01*
X12883Y-40851D02*
X12741Y-40751D01*
X12883Y-40680D02*
X12583Y-40680D01*
X12583Y-40794D01*
X12598Y-40823D01*
X12612Y-40837D01*
X12641Y-40851D01*
X12683Y-40851D01*
X12712Y-40837D01*
X12726Y-40823D01*
X12741Y-40794D01*
X12741Y-40680D01*
X12883Y-41137D02*
X12883Y-40966D01*
X12883Y-41051D02*
X12583Y-41051D01*
X12626Y-41023D01*
X12655Y-40994D01*
X12669Y-40966D01*
X12883Y-41423D02*
X12883Y-41251D01*
X12883Y-41337D02*
X12583Y-41337D01*
X12626Y-41308D01*
X12655Y-41280D01*
X12669Y-41251D01*
X12583Y-41694D02*
X12583Y-41551D01*
X12726Y-41537D01*
X12712Y-41551D01*
X12698Y-41580D01*
X12698Y-41651D01*
X12712Y-41680D01*
X12726Y-41694D01*
X12755Y-41708D01*
X12826Y-41708D01*
X12855Y-41694D01*
X12869Y-41680D01*
X12883Y-41651D01*
X12883Y-41580D01*
X12869Y-41551D01*
X12855Y-41537D01*
X23333Y-33994D02*
X23191Y-33894D01*
X23333Y-33823D02*
X23033Y-33823D01*
X23033Y-33937D01*
X23048Y-33966D01*
X23062Y-33980D01*
X23091Y-33994D01*
X23133Y-33994D01*
X23162Y-33980D01*
X23176Y-33966D01*
X23191Y-33937D01*
X23191Y-33823D01*
X23033Y-34094D02*
X23033Y-34280D01*
X23148Y-34180D01*
X23148Y-34223D01*
X23162Y-34251D01*
X23176Y-34266D01*
X23205Y-34280D01*
X23276Y-34280D01*
X23305Y-34266D01*
X23319Y-34251D01*
X23333Y-34223D01*
X23333Y-34137D01*
X23319Y-34108D01*
X23305Y-34094D01*
X23033Y-34466D02*
X23033Y-34494D01*
X23048Y-34523D01*
X23062Y-34537D01*
X23091Y-34551D01*
X23148Y-34566D01*
X23219Y-34566D01*
X23276Y-34551D01*
X23305Y-34537D01*
X23319Y-34523D01*
X23333Y-34494D01*
X23333Y-34466D01*
X23319Y-34437D01*
X23305Y-34423D01*
X23276Y-34408D01*
X23219Y-34394D01*
X23148Y-34394D01*
X23091Y-34408D01*
X23062Y-34423D01*
X23048Y-34437D01*
X23033Y-34466D01*
X23308Y-40994D02*
X23166Y-40894D01*
X23308Y-40823D02*
X23008Y-40823D01*
X23008Y-40937D01*
X23023Y-40966D01*
X23037Y-40980D01*
X23066Y-40994D01*
X23108Y-40994D01*
X23137Y-40980D01*
X23151Y-40966D01*
X23166Y-40937D01*
X23166Y-40823D01*
X23037Y-41108D02*
X23023Y-41123D01*
X23008Y-41151D01*
X23008Y-41223D01*
X23023Y-41251D01*
X23037Y-41266D01*
X23066Y-41280D01*
X23094Y-41280D01*
X23137Y-41266D01*
X23308Y-41094D01*
X23308Y-41280D01*
X23008Y-41551D02*
X23008Y-41408D01*
X23151Y-41394D01*
X23137Y-41408D01*
X23123Y-41437D01*
X23123Y-41508D01*
X23137Y-41537D01*
X23151Y-41551D01*
X23180Y-41566D01*
X23251Y-41566D01*
X23280Y-41551D01*
X23294Y-41537D01*
X23308Y-41508D01*
X23308Y-41437D01*
X23294Y-41408D01*
X23280Y-41394D01*
X29333Y-40994D02*
X29191Y-40894D01*
X29333Y-40823D02*
X29033Y-40823D01*
X29033Y-40937D01*
X29048Y-40966D01*
X29062Y-40980D01*
X29091Y-40994D01*
X29133Y-40994D01*
X29162Y-40980D01*
X29176Y-40966D01*
X29191Y-40937D01*
X29191Y-40823D01*
X29333Y-41280D02*
X29333Y-41108D01*
X29333Y-41194D02*
X29033Y-41194D01*
X29076Y-41166D01*
X29105Y-41137D01*
X29119Y-41108D01*
X29033Y-41380D02*
X29033Y-41566D01*
X29148Y-41466D01*
X29148Y-41508D01*
X29162Y-41537D01*
X29176Y-41551D01*
X29205Y-41566D01*
X29276Y-41566D01*
X29305Y-41551D01*
X29319Y-41537D01*
X29333Y-41508D01*
X29333Y-41423D01*
X29319Y-41394D01*
X29305Y-41380D01*
X29308Y-33994D02*
X29166Y-33894D01*
X29308Y-33823D02*
X29008Y-33823D01*
X29008Y-33937D01*
X29023Y-33966D01*
X29037Y-33980D01*
X29066Y-33994D01*
X29108Y-33994D01*
X29137Y-33980D01*
X29151Y-33966D01*
X29166Y-33937D01*
X29166Y-33823D01*
X29308Y-34280D02*
X29308Y-34108D01*
X29308Y-34194D02*
X29008Y-34194D01*
X29051Y-34166D01*
X29080Y-34137D01*
X29094Y-34108D01*
X29137Y-34451D02*
X29123Y-34423D01*
X29108Y-34408D01*
X29080Y-34394D01*
X29066Y-34394D01*
X29037Y-34408D01*
X29023Y-34423D01*
X29008Y-34451D01*
X29008Y-34508D01*
X29023Y-34537D01*
X29037Y-34551D01*
X29066Y-34566D01*
X29080Y-34566D01*
X29108Y-34551D01*
X29123Y-34537D01*
X29137Y-34508D01*
X29137Y-34451D01*
X29151Y-34423D01*
X29166Y-34408D01*
X29194Y-34394D01*
X29251Y-34394D01*
X29280Y-34408D01*
X29294Y-34423D01*
X29308Y-34451D01*
X29308Y-34508D01*
X29294Y-34537D01*
X29280Y-34551D01*
X29251Y-34566D01*
X29194Y-34566D01*
X29166Y-34551D01*
X29151Y-34537D01*
X29137Y-34508D01*
X35333Y-34137D02*
X35191Y-34037D01*
X35333Y-33966D02*
X35033Y-33966D01*
X35033Y-34080D01*
X35048Y-34108D01*
X35062Y-34123D01*
X35091Y-34137D01*
X35133Y-34137D01*
X35162Y-34123D01*
X35176Y-34108D01*
X35191Y-34080D01*
X35191Y-33966D01*
X35033Y-34394D02*
X35033Y-34337D01*
X35048Y-34308D01*
X35062Y-34294D01*
X35105Y-34266D01*
X35162Y-34251D01*
X35276Y-34251D01*
X35305Y-34266D01*
X35319Y-34280D01*
X35333Y-34308D01*
X35333Y-34366D01*
X35319Y-34394D01*
X35305Y-34408D01*
X35276Y-34423D01*
X35205Y-34423D01*
X35176Y-34408D01*
X35162Y-34394D01*
X35148Y-34366D01*
X35148Y-34308D01*
X35162Y-34280D01*
X35176Y-34266D01*
X35205Y-34251D01*
X35333Y-41187D02*
X35191Y-41087D01*
X35333Y-41016D02*
X35033Y-41016D01*
X35033Y-41130D01*
X35048Y-41158D01*
X35062Y-41173D01*
X35091Y-41187D01*
X35133Y-41187D01*
X35162Y-41173D01*
X35176Y-41158D01*
X35191Y-41130D01*
X35191Y-41016D01*
X35333Y-41473D02*
X35333Y-41301D01*
X35333Y-41387D02*
X35033Y-41387D01*
X35076Y-41358D01*
X35105Y-41330D01*
X35119Y-41301D01*
X34462Y-10436D02*
X34562Y-10293D01*
X34634Y-10436D02*
X34634Y-10136D01*
X34520Y-10136D01*
X34491Y-10150D01*
X34477Y-10165D01*
X34462Y-10193D01*
X34462Y-10236D01*
X34477Y-10265D01*
X34491Y-10279D01*
X34520Y-10293D01*
X34634Y-10293D01*
X34205Y-10236D02*
X34205Y-10436D01*
X34277Y-10122D02*
X34348Y-10336D01*
X34162Y-10336D01*
X33905Y-10136D02*
X34048Y-10136D01*
X34062Y-10279D01*
X34048Y-10265D01*
X34020Y-10250D01*
X33948Y-10250D01*
X33920Y-10265D01*
X33905Y-10279D01*
X33891Y-10307D01*
X33891Y-10379D01*
X33905Y-10407D01*
X33920Y-10422D01*
X33948Y-10436D01*
X34020Y-10436D01*
X34048Y-10422D01*
X34062Y-10407D01*
X10683Y-42494D02*
X10541Y-42394D01*
X10683Y-42323D02*
X10383Y-42323D01*
X10383Y-42437D01*
X10398Y-42466D01*
X10412Y-42480D01*
X10441Y-42494D01*
X10483Y-42494D01*
X10512Y-42480D01*
X10526Y-42466D01*
X10541Y-42437D01*
X10541Y-42323D01*
X10383Y-42766D02*
X10383Y-42623D01*
X10526Y-42608D01*
X10512Y-42623D01*
X10498Y-42651D01*
X10498Y-42723D01*
X10512Y-42751D01*
X10526Y-42766D01*
X10555Y-42780D01*
X10626Y-42780D01*
X10655Y-42766D01*
X10669Y-42751D01*
X10683Y-42723D01*
X10683Y-42651D01*
X10669Y-42623D01*
X10655Y-42608D01*
X10683Y-43066D02*
X10683Y-42894D01*
X10683Y-42980D02*
X10383Y-42980D01*
X10426Y-42951D01*
X10455Y-42923D01*
X10469Y-42894D01*
X17333Y-33994D02*
X17191Y-33894D01*
X17333Y-33823D02*
X17033Y-33823D01*
X17033Y-33937D01*
X17048Y-33966D01*
X17062Y-33980D01*
X17091Y-33994D01*
X17133Y-33994D01*
X17162Y-33980D01*
X17176Y-33966D01*
X17191Y-33937D01*
X17191Y-33823D01*
X17133Y-34251D02*
X17333Y-34251D01*
X17019Y-34180D02*
X17233Y-34108D01*
X17233Y-34294D01*
X17062Y-34394D02*
X17048Y-34408D01*
X17033Y-34437D01*
X17033Y-34508D01*
X17048Y-34537D01*
X17062Y-34551D01*
X17091Y-34566D01*
X17119Y-34566D01*
X17162Y-34551D01*
X17333Y-34380D01*
X17333Y-34566D01*
X17333Y-40994D02*
X17191Y-40894D01*
X17333Y-40823D02*
X17033Y-40823D01*
X17033Y-40937D01*
X17048Y-40966D01*
X17062Y-40980D01*
X17091Y-40994D01*
X17133Y-40994D01*
X17162Y-40980D01*
X17176Y-40966D01*
X17191Y-40937D01*
X17191Y-40823D01*
X17033Y-41094D02*
X17033Y-41280D01*
X17148Y-41180D01*
X17148Y-41223D01*
X17162Y-41251D01*
X17176Y-41266D01*
X17205Y-41280D01*
X17276Y-41280D01*
X17305Y-41266D01*
X17319Y-41251D01*
X17333Y-41223D01*
X17333Y-41137D01*
X17319Y-41108D01*
X17305Y-41094D01*
X17033Y-41380D02*
X17033Y-41580D01*
X17333Y-41451D01*
G54D16*
X25036Y-30220D02*
X25055Y-30201D01*
X25074Y-30144D01*
X25074Y-30106D01*
X25055Y-30049D01*
X25017Y-30011D01*
X24979Y-29992D01*
X24902Y-29973D01*
X24845Y-29973D01*
X24769Y-29992D01*
X24731Y-30011D01*
X24693Y-30049D01*
X24674Y-30106D01*
X24674Y-30144D01*
X24693Y-30201D01*
X24712Y-30220D01*
X25074Y-30392D02*
X24674Y-30392D01*
X24864Y-30392D02*
X24864Y-30620D01*
X25074Y-30620D02*
X24674Y-30620D01*
X24712Y-30792D02*
X24693Y-30811D01*
X24674Y-30849D01*
X24674Y-30944D01*
X24693Y-30982D01*
X24712Y-31001D01*
X24750Y-31020D01*
X24788Y-31020D01*
X24845Y-31001D01*
X25074Y-30773D01*
X25074Y-31020D01*
X25074Y-31401D02*
X25074Y-31173D01*
X25074Y-31287D02*
X24674Y-31287D01*
X24731Y-31249D01*
X24769Y-31211D01*
X24788Y-31173D01*
X37036Y-37311D02*
X37055Y-37292D01*
X37074Y-37235D01*
X37074Y-37197D01*
X37055Y-37139D01*
X37017Y-37101D01*
X36979Y-37082D01*
X36902Y-37063D01*
X36845Y-37063D01*
X36769Y-37082D01*
X36731Y-37101D01*
X36693Y-37139D01*
X36674Y-37197D01*
X36674Y-37235D01*
X36693Y-37292D01*
X36712Y-37311D01*
X37074Y-37482D02*
X36674Y-37482D01*
X36864Y-37482D02*
X36864Y-37711D01*
X37074Y-37711D02*
X36674Y-37711D01*
X36674Y-37863D02*
X36674Y-38111D01*
X36826Y-37977D01*
X36826Y-38035D01*
X36845Y-38073D01*
X36864Y-38092D01*
X36902Y-38111D01*
X36998Y-38111D01*
X37036Y-38092D01*
X37055Y-38073D01*
X37074Y-38035D01*
X37074Y-37920D01*
X37055Y-37882D01*
X37036Y-37863D01*
X13036Y-23170D02*
X13055Y-23151D01*
X13074Y-23094D01*
X13074Y-23056D01*
X13055Y-22999D01*
X13017Y-22961D01*
X12979Y-22942D01*
X12902Y-22923D01*
X12845Y-22923D01*
X12769Y-22942D01*
X12731Y-22961D01*
X12693Y-22999D01*
X12674Y-23056D01*
X12674Y-23094D01*
X12693Y-23151D01*
X12712Y-23170D01*
X13074Y-23342D02*
X12674Y-23342D01*
X12864Y-23342D02*
X12864Y-23570D01*
X13074Y-23570D02*
X12674Y-23570D01*
X12674Y-23723D02*
X12674Y-23970D01*
X12826Y-23837D01*
X12826Y-23894D01*
X12845Y-23932D01*
X12864Y-23951D01*
X12902Y-23970D01*
X12998Y-23970D01*
X13036Y-23951D01*
X13055Y-23932D01*
X13074Y-23894D01*
X13074Y-23780D01*
X13055Y-23742D01*
X13036Y-23723D01*
X13074Y-24161D02*
X13074Y-24237D01*
X13055Y-24275D01*
X13036Y-24294D01*
X12979Y-24332D01*
X12902Y-24351D01*
X12750Y-24351D01*
X12712Y-24332D01*
X12693Y-24313D01*
X12674Y-24275D01*
X12674Y-24199D01*
X12693Y-24161D01*
X12712Y-24142D01*
X12750Y-24123D01*
X12845Y-24123D01*
X12883Y-24142D01*
X12902Y-24161D01*
X12922Y-24199D01*
X12922Y-24275D01*
X12902Y-24313D01*
X12883Y-24332D01*
X12845Y-24351D01*
X25036Y-37220D02*
X25055Y-37201D01*
X25074Y-37144D01*
X25074Y-37106D01*
X25055Y-37049D01*
X25017Y-37011D01*
X24979Y-36992D01*
X24902Y-36973D01*
X24845Y-36973D01*
X24769Y-36992D01*
X24731Y-37011D01*
X24693Y-37049D01*
X24674Y-37106D01*
X24674Y-37144D01*
X24693Y-37201D01*
X24712Y-37220D01*
X25074Y-37392D02*
X24674Y-37392D01*
X24864Y-37392D02*
X24864Y-37620D01*
X25074Y-37620D02*
X24674Y-37620D01*
X25074Y-38020D02*
X25074Y-37792D01*
X25074Y-37906D02*
X24674Y-37906D01*
X24731Y-37868D01*
X24769Y-37830D01*
X24788Y-37792D01*
X25074Y-38211D02*
X25074Y-38287D01*
X25055Y-38325D01*
X25036Y-38344D01*
X24979Y-38382D01*
X24902Y-38401D01*
X24750Y-38401D01*
X24712Y-38382D01*
X24693Y-38363D01*
X24674Y-38325D01*
X24674Y-38249D01*
X24693Y-38211D01*
X24712Y-38192D01*
X24750Y-38173D01*
X24845Y-38173D01*
X24883Y-38192D01*
X24902Y-38211D01*
X24922Y-38249D01*
X24922Y-38325D01*
X24902Y-38363D01*
X24883Y-38382D01*
X24845Y-38401D01*
X13036Y-37220D02*
X13055Y-37201D01*
X13074Y-37144D01*
X13074Y-37106D01*
X13055Y-37049D01*
X13017Y-37011D01*
X12979Y-36992D01*
X12902Y-36973D01*
X12845Y-36973D01*
X12769Y-36992D01*
X12731Y-37011D01*
X12693Y-37049D01*
X12674Y-37106D01*
X12674Y-37144D01*
X12693Y-37201D01*
X12712Y-37220D01*
X13074Y-37392D02*
X12674Y-37392D01*
X12864Y-37392D02*
X12864Y-37620D01*
X13074Y-37620D02*
X12674Y-37620D01*
X12674Y-37773D02*
X12674Y-38020D01*
X12826Y-37887D01*
X12826Y-37944D01*
X12845Y-37982D01*
X12864Y-38001D01*
X12902Y-38020D01*
X12998Y-38020D01*
X13036Y-38001D01*
X13055Y-37982D01*
X13074Y-37944D01*
X13074Y-37830D01*
X13055Y-37792D01*
X13036Y-37773D01*
X12674Y-38382D02*
X12674Y-38192D01*
X12864Y-38173D01*
X12845Y-38192D01*
X12826Y-38230D01*
X12826Y-38325D01*
X12845Y-38363D01*
X12864Y-38382D01*
X12902Y-38401D01*
X12998Y-38401D01*
X13036Y-38382D01*
X13055Y-38363D01*
X13074Y-38325D01*
X13074Y-38230D01*
X13055Y-38192D01*
X13036Y-38173D01*
X31036Y-30170D02*
X31055Y-30151D01*
X31074Y-30094D01*
X31074Y-30056D01*
X31055Y-29999D01*
X31017Y-29961D01*
X30979Y-29942D01*
X30902Y-29923D01*
X30845Y-29923D01*
X30769Y-29942D01*
X30731Y-29961D01*
X30693Y-29999D01*
X30674Y-30056D01*
X30674Y-30094D01*
X30693Y-30151D01*
X30712Y-30170D01*
X31074Y-30342D02*
X30674Y-30342D01*
X30864Y-30342D02*
X30864Y-30570D01*
X31074Y-30570D02*
X30674Y-30570D01*
X31074Y-30970D02*
X31074Y-30742D01*
X31074Y-30856D02*
X30674Y-30856D01*
X30731Y-30818D01*
X30769Y-30780D01*
X30788Y-30742D01*
X30674Y-31104D02*
X30674Y-31351D01*
X30826Y-31218D01*
X30826Y-31275D01*
X30845Y-31313D01*
X30864Y-31332D01*
X30902Y-31351D01*
X30998Y-31351D01*
X31036Y-31332D01*
X31055Y-31313D01*
X31074Y-31275D01*
X31074Y-31161D01*
X31055Y-31123D01*
X31036Y-31104D01*
X31036Y-37170D02*
X31055Y-37151D01*
X31074Y-37094D01*
X31074Y-37056D01*
X31055Y-36999D01*
X31017Y-36961D01*
X30979Y-36942D01*
X30902Y-36923D01*
X30845Y-36923D01*
X30769Y-36942D01*
X30731Y-36961D01*
X30693Y-36999D01*
X30674Y-37056D01*
X30674Y-37094D01*
X30693Y-37151D01*
X30712Y-37170D01*
X31074Y-37342D02*
X30674Y-37342D01*
X30864Y-37342D02*
X30864Y-37570D01*
X31074Y-37570D02*
X30674Y-37570D01*
X31074Y-37970D02*
X31074Y-37742D01*
X31074Y-37856D02*
X30674Y-37856D01*
X30731Y-37818D01*
X30769Y-37780D01*
X30788Y-37742D01*
X31074Y-38351D02*
X31074Y-38123D01*
X31074Y-38237D02*
X30674Y-38237D01*
X30731Y-38199D01*
X30769Y-38161D01*
X30788Y-38123D01*
X37036Y-30411D02*
X37055Y-30392D01*
X37074Y-30335D01*
X37074Y-30297D01*
X37055Y-30239D01*
X37017Y-30201D01*
X36979Y-30182D01*
X36902Y-30163D01*
X36845Y-30163D01*
X36769Y-30182D01*
X36731Y-30201D01*
X36693Y-30239D01*
X36674Y-30297D01*
X36674Y-30335D01*
X36693Y-30392D01*
X36712Y-30411D01*
X37074Y-30582D02*
X36674Y-30582D01*
X36864Y-30582D02*
X36864Y-30811D01*
X37074Y-30811D02*
X36674Y-30811D01*
X36674Y-31192D02*
X36674Y-31001D01*
X36864Y-30982D01*
X36845Y-31001D01*
X36826Y-31039D01*
X36826Y-31135D01*
X36845Y-31173D01*
X36864Y-31192D01*
X36902Y-31211D01*
X36998Y-31211D01*
X37036Y-31192D01*
X37055Y-31173D01*
X37074Y-31135D01*
X37074Y-31039D01*
X37055Y-31001D01*
X37036Y-30982D01*
X37036Y-23361D02*
X37055Y-23342D01*
X37074Y-23285D01*
X37074Y-23247D01*
X37055Y-23189D01*
X37017Y-23151D01*
X36979Y-23132D01*
X36902Y-23113D01*
X36845Y-23113D01*
X36769Y-23132D01*
X36731Y-23151D01*
X36693Y-23189D01*
X36674Y-23247D01*
X36674Y-23285D01*
X36693Y-23342D01*
X36712Y-23361D01*
X37074Y-23532D02*
X36674Y-23532D01*
X36864Y-23532D02*
X36864Y-23761D01*
X37074Y-23761D02*
X36674Y-23761D01*
X36674Y-23913D02*
X36674Y-24180D01*
X37074Y-24008D01*
X13036Y-44220D02*
X13055Y-44201D01*
X13074Y-44144D01*
X13074Y-44106D01*
X13055Y-44049D01*
X13017Y-44011D01*
X12979Y-43992D01*
X12902Y-43973D01*
X12845Y-43973D01*
X12769Y-43992D01*
X12731Y-44011D01*
X12693Y-44049D01*
X12674Y-44106D01*
X12674Y-44144D01*
X12693Y-44201D01*
X12712Y-44220D01*
X13074Y-44392D02*
X12674Y-44392D01*
X12864Y-44392D02*
X12864Y-44620D01*
X13074Y-44620D02*
X12674Y-44620D01*
X12674Y-44773D02*
X12674Y-45020D01*
X12826Y-44887D01*
X12826Y-44944D01*
X12845Y-44982D01*
X12864Y-45001D01*
X12902Y-45020D01*
X12998Y-45020D01*
X13036Y-45001D01*
X13055Y-44982D01*
X13074Y-44944D01*
X13074Y-44830D01*
X13055Y-44792D01*
X13036Y-44773D01*
X12674Y-45154D02*
X12674Y-45401D01*
X12826Y-45268D01*
X12826Y-45325D01*
X12845Y-45363D01*
X12864Y-45382D01*
X12902Y-45401D01*
X12998Y-45401D01*
X13036Y-45382D01*
X13055Y-45363D01*
X13074Y-45325D01*
X13074Y-45211D01*
X13055Y-45173D01*
X13036Y-45154D01*
X31036Y-23220D02*
X31055Y-23201D01*
X31074Y-23144D01*
X31074Y-23106D01*
X31055Y-23049D01*
X31017Y-23011D01*
X30979Y-22992D01*
X30902Y-22973D01*
X30845Y-22973D01*
X30769Y-22992D01*
X30731Y-23011D01*
X30693Y-23049D01*
X30674Y-23106D01*
X30674Y-23144D01*
X30693Y-23201D01*
X30712Y-23220D01*
X31074Y-23392D02*
X30674Y-23392D01*
X30864Y-23392D02*
X30864Y-23620D01*
X31074Y-23620D02*
X30674Y-23620D01*
X31074Y-24020D02*
X31074Y-23792D01*
X31074Y-23906D02*
X30674Y-23906D01*
X30731Y-23868D01*
X30769Y-23830D01*
X30788Y-23792D01*
X30674Y-24382D02*
X30674Y-24192D01*
X30864Y-24173D01*
X30845Y-24192D01*
X30826Y-24230D01*
X30826Y-24325D01*
X30845Y-24363D01*
X30864Y-24382D01*
X30902Y-24401D01*
X30998Y-24401D01*
X31036Y-24382D01*
X31055Y-24363D01*
X31074Y-24325D01*
X31074Y-24230D01*
X31055Y-24192D01*
X31036Y-24173D01*
X37036Y-44361D02*
X37055Y-44342D01*
X37074Y-44285D01*
X37074Y-44247D01*
X37055Y-44189D01*
X37017Y-44151D01*
X36979Y-44132D01*
X36902Y-44113D01*
X36845Y-44113D01*
X36769Y-44132D01*
X36731Y-44151D01*
X36693Y-44189D01*
X36674Y-44247D01*
X36674Y-44285D01*
X36693Y-44342D01*
X36712Y-44361D01*
X37074Y-44532D02*
X36674Y-44532D01*
X36864Y-44532D02*
X36864Y-44761D01*
X37074Y-44761D02*
X36674Y-44761D01*
X37074Y-45161D02*
X37074Y-44932D01*
X37074Y-45047D02*
X36674Y-45047D01*
X36731Y-45008D01*
X36769Y-44970D01*
X36788Y-44932D01*
X19036Y-44220D02*
X19055Y-44201D01*
X19074Y-44144D01*
X19074Y-44106D01*
X19055Y-44049D01*
X19017Y-44011D01*
X18979Y-43992D01*
X18902Y-43973D01*
X18845Y-43973D01*
X18769Y-43992D01*
X18731Y-44011D01*
X18693Y-44049D01*
X18674Y-44106D01*
X18674Y-44144D01*
X18693Y-44201D01*
X18712Y-44220D01*
X19074Y-44392D02*
X18674Y-44392D01*
X18864Y-44392D02*
X18864Y-44620D01*
X19074Y-44620D02*
X18674Y-44620D01*
X18712Y-44792D02*
X18693Y-44811D01*
X18674Y-44849D01*
X18674Y-44944D01*
X18693Y-44982D01*
X18712Y-45001D01*
X18750Y-45020D01*
X18788Y-45020D01*
X18845Y-45001D01*
X19074Y-44773D01*
X19074Y-45020D01*
X18674Y-45382D02*
X18674Y-45192D01*
X18864Y-45173D01*
X18845Y-45192D01*
X18826Y-45230D01*
X18826Y-45325D01*
X18845Y-45363D01*
X18864Y-45382D01*
X18902Y-45401D01*
X18998Y-45401D01*
X19036Y-45382D01*
X19055Y-45363D01*
X19074Y-45325D01*
X19074Y-45230D01*
X19055Y-45192D01*
X19036Y-45173D01*
X25036Y-23220D02*
X25055Y-23201D01*
X25074Y-23144D01*
X25074Y-23106D01*
X25055Y-23049D01*
X25017Y-23011D01*
X24979Y-22992D01*
X24902Y-22973D01*
X24845Y-22973D01*
X24769Y-22992D01*
X24731Y-23011D01*
X24693Y-23049D01*
X24674Y-23106D01*
X24674Y-23144D01*
X24693Y-23201D01*
X24712Y-23220D01*
X25074Y-23392D02*
X24674Y-23392D01*
X24864Y-23392D02*
X24864Y-23620D01*
X25074Y-23620D02*
X24674Y-23620D01*
X24712Y-23792D02*
X24693Y-23811D01*
X24674Y-23849D01*
X24674Y-23944D01*
X24693Y-23982D01*
X24712Y-24001D01*
X24750Y-24020D01*
X24788Y-24020D01*
X24845Y-24001D01*
X25074Y-23773D01*
X25074Y-24020D01*
X24674Y-24154D02*
X24674Y-24401D01*
X24826Y-24268D01*
X24826Y-24325D01*
X24845Y-24363D01*
X24864Y-24382D01*
X24902Y-24401D01*
X24998Y-24401D01*
X25036Y-24382D01*
X25055Y-24363D01*
X25074Y-24325D01*
X25074Y-24211D01*
X25055Y-24173D01*
X25036Y-24154D01*
X19036Y-30220D02*
X19055Y-30201D01*
X19074Y-30144D01*
X19074Y-30106D01*
X19055Y-30049D01*
X19017Y-30011D01*
X18979Y-29992D01*
X18902Y-29973D01*
X18845Y-29973D01*
X18769Y-29992D01*
X18731Y-30011D01*
X18693Y-30049D01*
X18674Y-30106D01*
X18674Y-30144D01*
X18693Y-30201D01*
X18712Y-30220D01*
X19074Y-30392D02*
X18674Y-30392D01*
X18864Y-30392D02*
X18864Y-30620D01*
X19074Y-30620D02*
X18674Y-30620D01*
X18712Y-30792D02*
X18693Y-30811D01*
X18674Y-30849D01*
X18674Y-30944D01*
X18693Y-30982D01*
X18712Y-31001D01*
X18750Y-31020D01*
X18788Y-31020D01*
X18845Y-31001D01*
X19074Y-30773D01*
X19074Y-31020D01*
X19074Y-31211D02*
X19074Y-31287D01*
X19055Y-31325D01*
X19036Y-31344D01*
X18979Y-31382D01*
X18902Y-31401D01*
X18750Y-31401D01*
X18712Y-31382D01*
X18693Y-31363D01*
X18674Y-31325D01*
X18674Y-31249D01*
X18693Y-31211D01*
X18712Y-31192D01*
X18750Y-31173D01*
X18845Y-31173D01*
X18883Y-31192D01*
X18902Y-31211D01*
X18922Y-31249D01*
X18922Y-31325D01*
X18902Y-31363D01*
X18883Y-31382D01*
X18845Y-31401D01*
X25036Y-44220D02*
X25055Y-44201D01*
X25074Y-44144D01*
X25074Y-44106D01*
X25055Y-44049D01*
X25017Y-44011D01*
X24979Y-43992D01*
X24902Y-43973D01*
X24845Y-43973D01*
X24769Y-43992D01*
X24731Y-44011D01*
X24693Y-44049D01*
X24674Y-44106D01*
X24674Y-44144D01*
X24693Y-44201D01*
X24712Y-44220D01*
X25074Y-44392D02*
X24674Y-44392D01*
X24864Y-44392D02*
X24864Y-44620D01*
X25074Y-44620D02*
X24674Y-44620D01*
X25074Y-45020D02*
X25074Y-44792D01*
X25074Y-44906D02*
X24674Y-44906D01*
X24731Y-44868D01*
X24769Y-44830D01*
X24788Y-44792D01*
X24674Y-45154D02*
X24674Y-45420D01*
X25074Y-45249D01*
X13036Y-30220D02*
X13055Y-30201D01*
X13074Y-30144D01*
X13074Y-30106D01*
X13055Y-30049D01*
X13017Y-30011D01*
X12979Y-29992D01*
X12902Y-29973D01*
X12845Y-29973D01*
X12769Y-29992D01*
X12731Y-30011D01*
X12693Y-30049D01*
X12674Y-30106D01*
X12674Y-30144D01*
X12693Y-30201D01*
X12712Y-30220D01*
X13074Y-30392D02*
X12674Y-30392D01*
X12864Y-30392D02*
X12864Y-30620D01*
X13074Y-30620D02*
X12674Y-30620D01*
X12674Y-30773D02*
X12674Y-31020D01*
X12826Y-30887D01*
X12826Y-30944D01*
X12845Y-30982D01*
X12864Y-31001D01*
X12902Y-31020D01*
X12998Y-31020D01*
X13036Y-31001D01*
X13055Y-30982D01*
X13074Y-30944D01*
X13074Y-30830D01*
X13055Y-30792D01*
X13036Y-30773D01*
X12674Y-31154D02*
X12674Y-31420D01*
X13074Y-31249D01*
X19036Y-23220D02*
X19055Y-23201D01*
X19074Y-23144D01*
X19074Y-23106D01*
X19055Y-23049D01*
X19017Y-23011D01*
X18979Y-22992D01*
X18902Y-22973D01*
X18845Y-22973D01*
X18769Y-22992D01*
X18731Y-23011D01*
X18693Y-23049D01*
X18674Y-23106D01*
X18674Y-23144D01*
X18693Y-23201D01*
X18712Y-23220D01*
X19074Y-23392D02*
X18674Y-23392D01*
X18864Y-23392D02*
X18864Y-23620D01*
X19074Y-23620D02*
X18674Y-23620D01*
X18674Y-23773D02*
X18674Y-24020D01*
X18826Y-23887D01*
X18826Y-23944D01*
X18845Y-23982D01*
X18864Y-24001D01*
X18902Y-24020D01*
X18998Y-24020D01*
X19036Y-24001D01*
X19055Y-23982D01*
X19074Y-23944D01*
X19074Y-23830D01*
X19055Y-23792D01*
X19036Y-23773D01*
X19074Y-24401D02*
X19074Y-24173D01*
X19074Y-24287D02*
X18674Y-24287D01*
X18731Y-24249D01*
X18769Y-24211D01*
X18788Y-24173D01*
G54D17*
X9070Y-14070D02*
X9087Y-14087D01*
X9137Y-14104D01*
X9170Y-14104D01*
X9220Y-14087D01*
X9254Y-14054D01*
X9270Y-14020D01*
X9287Y-13954D01*
X9287Y-13904D01*
X9270Y-13837D01*
X9254Y-13804D01*
X9220Y-13770D01*
X9170Y-13754D01*
X9137Y-13754D01*
X9087Y-13770D01*
X9070Y-13787D01*
X8937Y-13787D02*
X8920Y-13770D01*
X8887Y-13754D01*
X8804Y-13754D01*
X8770Y-13770D01*
X8754Y-13787D01*
X8737Y-13820D01*
X8737Y-13854D01*
X8754Y-13904D01*
X8954Y-14104D01*
X8737Y-14104D01*
G54D16*
X31036Y-44411D02*
X31055Y-44392D01*
X31074Y-44335D01*
X31074Y-44297D01*
X31055Y-44239D01*
X31017Y-44201D01*
X30979Y-44182D01*
X30902Y-44163D01*
X30845Y-44163D01*
X30769Y-44182D01*
X30731Y-44201D01*
X30693Y-44239D01*
X30674Y-44297D01*
X30674Y-44335D01*
X30693Y-44392D01*
X30712Y-44411D01*
X31074Y-44582D02*
X30674Y-44582D01*
X30864Y-44582D02*
X30864Y-44811D01*
X31074Y-44811D02*
X30674Y-44811D01*
X31074Y-45020D02*
X31074Y-45097D01*
X31055Y-45135D01*
X31036Y-45154D01*
X30979Y-45192D01*
X30902Y-45211D01*
X30750Y-45211D01*
X30712Y-45192D01*
X30693Y-45173D01*
X30674Y-45135D01*
X30674Y-45058D01*
X30693Y-45020D01*
X30712Y-45001D01*
X30750Y-44982D01*
X30845Y-44982D01*
X30883Y-45001D01*
X30902Y-45020D01*
X30922Y-45058D01*
X30922Y-45135D01*
X30902Y-45173D01*
X30883Y-45192D01*
X30845Y-45211D01*
X19036Y-37220D02*
X19055Y-37201D01*
X19074Y-37144D01*
X19074Y-37106D01*
X19055Y-37049D01*
X19017Y-37011D01*
X18979Y-36992D01*
X18902Y-36973D01*
X18845Y-36973D01*
X18769Y-36992D01*
X18731Y-37011D01*
X18693Y-37049D01*
X18674Y-37106D01*
X18674Y-37144D01*
X18693Y-37201D01*
X18712Y-37220D01*
X19074Y-37392D02*
X18674Y-37392D01*
X18864Y-37392D02*
X18864Y-37620D01*
X19074Y-37620D02*
X18674Y-37620D01*
X18712Y-37792D02*
X18693Y-37811D01*
X18674Y-37849D01*
X18674Y-37944D01*
X18693Y-37982D01*
X18712Y-38001D01*
X18750Y-38020D01*
X18788Y-38020D01*
X18845Y-38001D01*
X19074Y-37773D01*
X19074Y-38020D01*
X18674Y-38154D02*
X18674Y-38420D01*
X19074Y-38249D01*
G54D13*
X16905Y-19249D02*
X16905Y-19573D01*
X16883Y-19611D01*
X16862Y-19630D01*
X16819Y-19649D01*
X16733Y-19649D01*
X16691Y-19630D01*
X16669Y-19611D01*
X16648Y-19573D01*
X16648Y-19249D01*
X16241Y-19249D02*
X16326Y-19249D01*
X16369Y-19268D01*
X16391Y-19287D01*
X16433Y-19344D01*
X16455Y-19420D01*
X16455Y-19573D01*
X16433Y-19611D01*
X16412Y-19630D01*
X16369Y-19649D01*
X16283Y-19649D01*
X16241Y-19630D01*
X16219Y-19611D01*
X16198Y-19573D01*
X16198Y-19477D01*
X16219Y-19439D01*
X16241Y-19420D01*
X16283Y-19401D01*
X16369Y-19401D01*
X16412Y-19420D01*
X16433Y-19439D01*
X16455Y-19477D01*
X18223Y-19849D02*
X17923Y-19849D01*
X18116Y-20249D01*
X17558Y-19982D02*
X17558Y-20249D01*
X17666Y-19830D02*
X17773Y-20116D01*
X17494Y-20116D01*
X17323Y-20249D02*
X17323Y-19849D01*
X17323Y-20039D02*
X17066Y-20039D01*
X17066Y-20249D02*
X17066Y-19849D01*
X16594Y-20211D02*
X16616Y-20230D01*
X16680Y-20249D01*
X16723Y-20249D01*
X16787Y-20230D01*
X16830Y-20192D01*
X16851Y-20154D01*
X16873Y-20077D01*
X16873Y-20020D01*
X16851Y-19944D01*
X16830Y-19906D01*
X16787Y-19868D01*
X16723Y-19849D01*
X16680Y-19849D01*
X16616Y-19868D01*
X16594Y-19887D01*
X16187Y-19849D02*
X16401Y-19849D01*
X16423Y-20039D01*
X16401Y-20020D01*
X16358Y-20001D01*
X16251Y-20001D01*
X16208Y-20020D01*
X16187Y-20039D01*
X16166Y-20077D01*
X16166Y-20173D01*
X16187Y-20211D01*
X16208Y-20230D01*
X16251Y-20249D01*
X16358Y-20249D01*
X16401Y-20230D01*
X16423Y-20211D01*
X15951Y-20249D02*
X15866Y-20249D01*
X15823Y-20230D01*
X15801Y-20211D01*
X15758Y-20154D01*
X15737Y-20077D01*
X15737Y-19925D01*
X15758Y-19887D01*
X15780Y-19868D01*
X15823Y-19849D01*
X15908Y-19849D01*
X15951Y-19868D01*
X15973Y-19887D01*
X15994Y-19925D01*
X15994Y-20020D01*
X15973Y-20058D01*
X15951Y-20077D01*
X15908Y-20097D01*
X15823Y-20097D01*
X15780Y-20077D01*
X15758Y-20058D01*
X15737Y-20020D01*
X15330Y-19849D02*
X15544Y-19849D01*
X15566Y-20039D01*
X15544Y-20020D01*
X15501Y-20001D01*
X15394Y-20001D01*
X15351Y-20020D01*
X15330Y-20039D01*
X15308Y-20077D01*
X15308Y-20173D01*
X15330Y-20211D01*
X15351Y-20230D01*
X15394Y-20249D01*
X15501Y-20249D01*
X15544Y-20230D01*
X15566Y-20211D01*
X15137Y-20135D02*
X14923Y-20135D01*
X15180Y-20249D02*
X15030Y-19849D01*
X14880Y-20249D01*
X23119Y-19249D02*
X23119Y-19573D01*
X23098Y-19611D01*
X23076Y-19630D01*
X23033Y-19649D01*
X22948Y-19649D01*
X22905Y-19630D01*
X22883Y-19611D01*
X22862Y-19573D01*
X22862Y-19249D01*
X22412Y-19649D02*
X22669Y-19649D01*
X22541Y-19649D02*
X22541Y-19249D01*
X22583Y-19306D01*
X22626Y-19344D01*
X22669Y-19363D01*
X22262Y-19249D02*
X21962Y-19249D01*
X22155Y-19649D01*
X24223Y-19849D02*
X23923Y-19849D01*
X24116Y-20249D01*
X23558Y-19982D02*
X23558Y-20249D01*
X23666Y-19830D02*
X23773Y-20116D01*
X23494Y-20116D01*
X23323Y-20249D02*
X23323Y-19849D01*
X23323Y-20039D02*
X23066Y-20039D01*
X23066Y-20249D02*
X23066Y-19849D01*
X22594Y-20211D02*
X22616Y-20230D01*
X22680Y-20249D01*
X22723Y-20249D01*
X22787Y-20230D01*
X22830Y-20192D01*
X22851Y-20154D01*
X22873Y-20077D01*
X22873Y-20020D01*
X22851Y-19944D01*
X22830Y-19906D01*
X22787Y-19868D01*
X22723Y-19849D01*
X22680Y-19849D01*
X22616Y-19868D01*
X22594Y-19887D01*
X22187Y-19849D02*
X22401Y-19849D01*
X22423Y-20039D01*
X22401Y-20020D01*
X22358Y-20001D01*
X22251Y-20001D01*
X22208Y-20020D01*
X22187Y-20039D01*
X22166Y-20077D01*
X22166Y-20173D01*
X22187Y-20211D01*
X22208Y-20230D01*
X22251Y-20249D01*
X22358Y-20249D01*
X22401Y-20230D01*
X22423Y-20211D01*
X21951Y-20249D02*
X21866Y-20249D01*
X21823Y-20230D01*
X21801Y-20211D01*
X21758Y-20154D01*
X21737Y-20077D01*
X21737Y-19925D01*
X21758Y-19887D01*
X21780Y-19868D01*
X21823Y-19849D01*
X21908Y-19849D01*
X21951Y-19868D01*
X21973Y-19887D01*
X21994Y-19925D01*
X21994Y-20020D01*
X21973Y-20058D01*
X21951Y-20077D01*
X21908Y-20097D01*
X21823Y-20097D01*
X21780Y-20077D01*
X21758Y-20058D01*
X21737Y-20020D01*
X21330Y-19849D02*
X21544Y-19849D01*
X21566Y-20039D01*
X21544Y-20020D01*
X21501Y-20001D01*
X21394Y-20001D01*
X21351Y-20020D01*
X21330Y-20039D01*
X21308Y-20077D01*
X21308Y-20173D01*
X21330Y-20211D01*
X21351Y-20230D01*
X21394Y-20249D01*
X21501Y-20249D01*
X21544Y-20230D01*
X21566Y-20211D01*
X21137Y-20135D02*
X20923Y-20135D01*
X21180Y-20249D02*
X21030Y-19849D01*
X20880Y-20249D01*
X29119Y-19249D02*
X29119Y-19573D01*
X29098Y-19611D01*
X29076Y-19630D01*
X29033Y-19649D01*
X28948Y-19649D01*
X28905Y-19630D01*
X28883Y-19611D01*
X28862Y-19573D01*
X28862Y-19249D01*
X28412Y-19649D02*
X28669Y-19649D01*
X28541Y-19649D02*
X28541Y-19249D01*
X28583Y-19306D01*
X28626Y-19344D01*
X28669Y-19363D01*
X27983Y-19649D02*
X28241Y-19649D01*
X28112Y-19649D02*
X28112Y-19249D01*
X28155Y-19306D01*
X28198Y-19344D01*
X28241Y-19363D01*
X30223Y-19849D02*
X29923Y-19849D01*
X30116Y-20249D01*
X29558Y-19982D02*
X29558Y-20249D01*
X29666Y-19830D02*
X29773Y-20116D01*
X29494Y-20116D01*
X29323Y-20249D02*
X29323Y-19849D01*
X29323Y-20039D02*
X29066Y-20039D01*
X29066Y-20249D02*
X29066Y-19849D01*
X28594Y-20211D02*
X28616Y-20230D01*
X28680Y-20249D01*
X28723Y-20249D01*
X28787Y-20230D01*
X28830Y-20192D01*
X28851Y-20154D01*
X28873Y-20077D01*
X28873Y-20020D01*
X28851Y-19944D01*
X28830Y-19906D01*
X28787Y-19868D01*
X28723Y-19849D01*
X28680Y-19849D01*
X28616Y-19868D01*
X28594Y-19887D01*
X28187Y-19849D02*
X28401Y-19849D01*
X28423Y-20039D01*
X28401Y-20020D01*
X28358Y-20001D01*
X28251Y-20001D01*
X28208Y-20020D01*
X28187Y-20039D01*
X28166Y-20077D01*
X28166Y-20173D01*
X28187Y-20211D01*
X28208Y-20230D01*
X28251Y-20249D01*
X28358Y-20249D01*
X28401Y-20230D01*
X28423Y-20211D01*
X27951Y-20249D02*
X27866Y-20249D01*
X27823Y-20230D01*
X27801Y-20211D01*
X27758Y-20154D01*
X27737Y-20077D01*
X27737Y-19925D01*
X27758Y-19887D01*
X27780Y-19868D01*
X27823Y-19849D01*
X27908Y-19849D01*
X27951Y-19868D01*
X27973Y-19887D01*
X27994Y-19925D01*
X27994Y-20020D01*
X27973Y-20058D01*
X27951Y-20077D01*
X27908Y-20097D01*
X27823Y-20097D01*
X27780Y-20077D01*
X27758Y-20058D01*
X27737Y-20020D01*
X27330Y-19849D02*
X27544Y-19849D01*
X27566Y-20039D01*
X27544Y-20020D01*
X27501Y-20001D01*
X27394Y-20001D01*
X27351Y-20020D01*
X27330Y-20039D01*
X27308Y-20077D01*
X27308Y-20173D01*
X27330Y-20211D01*
X27351Y-20230D01*
X27394Y-20249D01*
X27501Y-20249D01*
X27544Y-20230D01*
X27566Y-20211D01*
X27137Y-20135D02*
X26923Y-20135D01*
X27180Y-20249D02*
X27030Y-19849D01*
X26880Y-20249D01*
X34905Y-19199D02*
X34905Y-19523D01*
X34883Y-19561D01*
X34862Y-19580D01*
X34819Y-19599D01*
X34733Y-19599D01*
X34691Y-19580D01*
X34669Y-19561D01*
X34648Y-19523D01*
X34648Y-19199D01*
X34198Y-19599D02*
X34455Y-19599D01*
X34326Y-19599D02*
X34326Y-19199D01*
X34369Y-19256D01*
X34412Y-19294D01*
X34455Y-19313D01*
X36223Y-19799D02*
X35923Y-19799D01*
X36116Y-20199D01*
X35558Y-19932D02*
X35558Y-20199D01*
X35666Y-19780D02*
X35773Y-20066D01*
X35494Y-20066D01*
X35323Y-20199D02*
X35323Y-19799D01*
X35323Y-19989D02*
X35066Y-19989D01*
X35066Y-20199D02*
X35066Y-19799D01*
X34594Y-20161D02*
X34616Y-20180D01*
X34680Y-20199D01*
X34723Y-20199D01*
X34787Y-20180D01*
X34830Y-20142D01*
X34851Y-20104D01*
X34873Y-20027D01*
X34873Y-19970D01*
X34851Y-19894D01*
X34830Y-19856D01*
X34787Y-19818D01*
X34723Y-19799D01*
X34680Y-19799D01*
X34616Y-19818D01*
X34594Y-19837D01*
X34187Y-19799D02*
X34401Y-19799D01*
X34423Y-19989D01*
X34401Y-19970D01*
X34358Y-19951D01*
X34251Y-19951D01*
X34208Y-19970D01*
X34187Y-19989D01*
X34166Y-20027D01*
X34166Y-20123D01*
X34187Y-20161D01*
X34208Y-20180D01*
X34251Y-20199D01*
X34358Y-20199D01*
X34401Y-20180D01*
X34423Y-20161D01*
X33951Y-20199D02*
X33866Y-20199D01*
X33823Y-20180D01*
X33801Y-20161D01*
X33758Y-20104D01*
X33737Y-20027D01*
X33737Y-19875D01*
X33758Y-19837D01*
X33780Y-19818D01*
X33823Y-19799D01*
X33908Y-19799D01*
X33951Y-19818D01*
X33973Y-19837D01*
X33994Y-19875D01*
X33994Y-19970D01*
X33973Y-20008D01*
X33951Y-20027D01*
X33908Y-20047D01*
X33823Y-20047D01*
X33780Y-20027D01*
X33758Y-20008D01*
X33737Y-19970D01*
X33330Y-19799D02*
X33544Y-19799D01*
X33566Y-19989D01*
X33544Y-19970D01*
X33501Y-19951D01*
X33394Y-19951D01*
X33351Y-19970D01*
X33330Y-19989D01*
X33308Y-20027D01*
X33308Y-20123D01*
X33330Y-20161D01*
X33351Y-20180D01*
X33394Y-20199D01*
X33501Y-20199D01*
X33544Y-20180D01*
X33566Y-20161D01*
X33137Y-20085D02*
X32923Y-20085D01*
X33180Y-20199D02*
X33030Y-19799D01*
X32880Y-20199D01*
G54D16*
X18586Y-8879D02*
X18186Y-8879D01*
X18186Y-9032D01*
X18205Y-9070D01*
X18225Y-9089D01*
X18263Y-9108D01*
X18320Y-9108D01*
X18358Y-9089D01*
X18377Y-9070D01*
X18396Y-9032D01*
X18396Y-8879D01*
X18586Y-9489D02*
X18586Y-9260D01*
X18586Y-9375D02*
X18186Y-9375D01*
X18244Y-9336D01*
X18282Y-9298D01*
X18301Y-9260D01*
G54D13*
X11119Y-19249D02*
X11119Y-19573D01*
X11098Y-19611D01*
X11076Y-19630D01*
X11033Y-19649D01*
X10948Y-19649D01*
X10905Y-19630D01*
X10883Y-19611D01*
X10862Y-19573D01*
X10862Y-19249D01*
X10412Y-19649D02*
X10669Y-19649D01*
X10541Y-19649D02*
X10541Y-19249D01*
X10583Y-19306D01*
X10626Y-19344D01*
X10669Y-19363D01*
X10026Y-19249D02*
X10112Y-19249D01*
X10155Y-19268D01*
X10176Y-19287D01*
X10219Y-19344D01*
X10241Y-19420D01*
X10241Y-19573D01*
X10219Y-19611D01*
X10198Y-19630D01*
X10155Y-19649D01*
X10069Y-19649D01*
X10026Y-19630D01*
X10005Y-19611D01*
X9983Y-19573D01*
X9983Y-19477D01*
X10005Y-19439D01*
X10026Y-19420D01*
X10069Y-19401D01*
X10155Y-19401D01*
X10198Y-19420D01*
X10219Y-19439D01*
X10241Y-19477D01*
X12223Y-19849D02*
X11923Y-19849D01*
X12116Y-20249D01*
X11558Y-19982D02*
X11558Y-20249D01*
X11666Y-19830D02*
X11773Y-20116D01*
X11494Y-20116D01*
X11323Y-20249D02*
X11323Y-19849D01*
X11323Y-20039D02*
X11066Y-20039D01*
X11066Y-20249D02*
X11066Y-19849D01*
X10594Y-20211D02*
X10616Y-20230D01*
X10680Y-20249D01*
X10723Y-20249D01*
X10787Y-20230D01*
X10830Y-20192D01*
X10851Y-20154D01*
X10873Y-20077D01*
X10873Y-20020D01*
X10851Y-19944D01*
X10830Y-19906D01*
X10787Y-19868D01*
X10723Y-19849D01*
X10680Y-19849D01*
X10616Y-19868D01*
X10594Y-19887D01*
X10187Y-19849D02*
X10401Y-19849D01*
X10423Y-20039D01*
X10401Y-20020D01*
X10358Y-20001D01*
X10251Y-20001D01*
X10208Y-20020D01*
X10187Y-20039D01*
X10166Y-20077D01*
X10166Y-20173D01*
X10187Y-20211D01*
X10208Y-20230D01*
X10251Y-20249D01*
X10358Y-20249D01*
X10401Y-20230D01*
X10423Y-20211D01*
X9951Y-20249D02*
X9866Y-20249D01*
X9823Y-20230D01*
X9801Y-20211D01*
X9758Y-20154D01*
X9737Y-20077D01*
X9737Y-19925D01*
X9758Y-19887D01*
X9780Y-19868D01*
X9823Y-19849D01*
X9908Y-19849D01*
X9951Y-19868D01*
X9973Y-19887D01*
X9994Y-19925D01*
X9994Y-20020D01*
X9973Y-20058D01*
X9951Y-20077D01*
X9908Y-20097D01*
X9823Y-20097D01*
X9780Y-20077D01*
X9758Y-20058D01*
X9737Y-20020D01*
X9330Y-19849D02*
X9544Y-19849D01*
X9566Y-20039D01*
X9544Y-20020D01*
X9501Y-20001D01*
X9394Y-20001D01*
X9351Y-20020D01*
X9330Y-20039D01*
X9308Y-20077D01*
X9308Y-20173D01*
X9330Y-20211D01*
X9351Y-20230D01*
X9394Y-20249D01*
X9501Y-20249D01*
X9544Y-20230D01*
X9566Y-20211D01*
X9137Y-20135D02*
X8923Y-20135D01*
X9180Y-20249D02*
X9030Y-19849D01*
X8880Y-20249D01*
X34450Y-12396D02*
X34550Y-12253D01*
X34622Y-12396D02*
X34622Y-12096D01*
X34507Y-12096D01*
X34479Y-12110D01*
X34465Y-12125D01*
X34450Y-12153D01*
X34450Y-12196D01*
X34465Y-12225D01*
X34479Y-12239D01*
X34507Y-12253D01*
X34622Y-12253D01*
X34165Y-12396D02*
X34336Y-12396D01*
X34250Y-12396D02*
X34250Y-12096D01*
X34279Y-12139D01*
X34307Y-12167D01*
X34336Y-12182D01*
X34050Y-12125D02*
X34036Y-12110D01*
X34007Y-12096D01*
X33936Y-12096D01*
X33907Y-12110D01*
X33893Y-12125D01*
X33879Y-12153D01*
X33879Y-12182D01*
X33893Y-12225D01*
X34065Y-12396D01*
X33879Y-12396D01*
X33607Y-12096D02*
X33750Y-12096D01*
X33765Y-12239D01*
X33750Y-12225D01*
X33722Y-12210D01*
X33650Y-12210D01*
X33622Y-12225D01*
X33607Y-12239D01*
X33593Y-12267D01*
X33593Y-12339D01*
X33607Y-12367D01*
X33622Y-12382D01*
X33650Y-12396D01*
X33722Y-12396D01*
X33750Y-12382D01*
X33765Y-12367D01*
X34450Y-13376D02*
X34550Y-13233D01*
X34622Y-13376D02*
X34622Y-13076D01*
X34507Y-13076D01*
X34479Y-13090D01*
X34465Y-13105D01*
X34450Y-13133D01*
X34450Y-13176D01*
X34465Y-13205D01*
X34479Y-13219D01*
X34507Y-13233D01*
X34622Y-13233D01*
X34165Y-13376D02*
X34336Y-13376D01*
X34250Y-13376D02*
X34250Y-13076D01*
X34279Y-13119D01*
X34307Y-13147D01*
X34336Y-13162D01*
X34050Y-13105D02*
X34036Y-13090D01*
X34007Y-13076D01*
X33936Y-13076D01*
X33907Y-13090D01*
X33893Y-13105D01*
X33879Y-13133D01*
X33879Y-13162D01*
X33893Y-13205D01*
X34065Y-13376D01*
X33879Y-13376D01*
X33622Y-13076D02*
X33679Y-13076D01*
X33707Y-13090D01*
X33722Y-13105D01*
X33750Y-13147D01*
X33765Y-13205D01*
X33765Y-13319D01*
X33750Y-13347D01*
X33736Y-13362D01*
X33707Y-13376D01*
X33650Y-13376D01*
X33622Y-13362D01*
X33607Y-13347D01*
X33593Y-13319D01*
X33593Y-13247D01*
X33607Y-13219D01*
X33622Y-13205D01*
X33650Y-13190D01*
X33707Y-13190D01*
X33736Y-13205D01*
X33750Y-13219D01*
X33765Y-13247D01*
X25650Y-7542D02*
X25664Y-7557D01*
X25707Y-7571D01*
X25735Y-7571D01*
X25778Y-7557D01*
X25807Y-7528D01*
X25821Y-7500D01*
X25835Y-7442D01*
X25835Y-7400D01*
X25821Y-7342D01*
X25807Y-7314D01*
X25778Y-7285D01*
X25735Y-7271D01*
X25707Y-7271D01*
X25664Y-7285D01*
X25650Y-7300D01*
X25550Y-7271D02*
X25364Y-7271D01*
X25464Y-7385D01*
X25421Y-7385D01*
X25392Y-7400D01*
X25378Y-7414D01*
X25364Y-7442D01*
X25364Y-7514D01*
X25378Y-7542D01*
X25392Y-7557D01*
X25421Y-7571D01*
X25507Y-7571D01*
X25535Y-7557D01*
X25550Y-7542D01*
X20222Y-15882D02*
X20237Y-15897D01*
X20280Y-15911D01*
X20308Y-15911D01*
X20351Y-15897D01*
X20380Y-15868D01*
X20394Y-15840D01*
X20408Y-15782D01*
X20408Y-15740D01*
X20394Y-15682D01*
X20380Y-15654D01*
X20351Y-15625D01*
X20308Y-15611D01*
X20280Y-15611D01*
X20237Y-15625D01*
X20222Y-15640D01*
X19937Y-15911D02*
X20108Y-15911D01*
X20022Y-15911D02*
X20022Y-15611D01*
X20051Y-15654D01*
X20080Y-15682D01*
X20108Y-15697D01*
X19837Y-15611D02*
X19651Y-15611D01*
X19751Y-15725D01*
X19708Y-15725D01*
X19680Y-15740D01*
X19665Y-15754D01*
X19651Y-15782D01*
X19651Y-15854D01*
X19665Y-15882D01*
X19680Y-15897D01*
X19708Y-15911D01*
X19794Y-15911D01*
X19822Y-15897D01*
X19837Y-15882D01*
X34445Y-11431D02*
X34545Y-11288D01*
X34617Y-11431D02*
X34617Y-11131D01*
X34502Y-11131D01*
X34474Y-11145D01*
X34460Y-11160D01*
X34445Y-11188D01*
X34445Y-11231D01*
X34460Y-11260D01*
X34474Y-11274D01*
X34502Y-11288D01*
X34617Y-11288D01*
X34160Y-11431D02*
X34331Y-11431D01*
X34245Y-11431D02*
X34245Y-11131D01*
X34274Y-11174D01*
X34302Y-11202D01*
X34331Y-11217D01*
X34045Y-11160D02*
X34031Y-11145D01*
X34002Y-11131D01*
X33931Y-11131D01*
X33902Y-11145D01*
X33888Y-11160D01*
X33874Y-11188D01*
X33874Y-11217D01*
X33888Y-11260D01*
X34060Y-11431D01*
X33874Y-11431D01*
X33774Y-11131D02*
X33574Y-11131D01*
X33702Y-11431D01*
M02*
